<svg width="28" height="28" viewBox="0 0 28 28" fill="none" xmlns="http://www.w3.org/2000/svg">
<path d="M0 14C0 6.26801 6.26801 0 14 0V0C21.732 0 28 6.26801 28 14V14C28 21.732 21.732 28 14 28V28C6.26801 28 0 21.732 0 14V14Z" fill="#D1FADF"/>
<path fill-rule="evenodd" clip-rule="evenodd" d="M16.3344 12.6947C14.0587 14.8647 12.1792 16.638 12.158 16.6355C12.1367 16.633 11.3851 15.949 10.4879 15.1154C9.59064 14.2818 8.74072 13.4955 8.59924 13.368L8.34194 13.1361L7.33088 14.1072C6.77478 14.6412 6.24983 15.1478 6.16435 15.2329L6.0089 15.3876L9.0911 18.2445L12.1733 21.1014L12.2893 20.9888C12.353 20.9269 14.7531 18.6456 17.6227 15.9193L22.8403 10.9623L22.7785 10.8925C22.6725 10.7726 20.5093 8.74427 20.4902 8.74691C20.4803 8.74829 18.6102 10.5248 16.3344 12.6947Z" fill="#12B76A"/>
</svg>
