<svg xmlns:xlink="http://www.w3.org/1999/xlink" width="224" height="46" viewBox="0 0 224 46" fill="none" xmlns="http://www.w3.org/2000/svg" id="svg-1181464223_4359">
<path d="M18.1855 36.7036H47.5979V45.6995H18.1855V36.7036Z" fill="#FFFFFF"></path>
<path d="M36.1568 27.7278C36.1568 37.6532 28.1107 45.6993 18.1853 45.6993C8.25997 45.6993 0.213867 37.6532 0.213867 27.7278C0.213867 17.8025 8.25997 9.75635 18.1853 9.75635C28.1107 9.75635 36.1568 17.8025 36.1568 27.7278Z" fill="#FFFFFF"></path>
<path d="M68.7866 22.9998C68.7866 35.5363 58.6237 45.6992 46.0872 45.6992C33.5506 45.6992 23.3877 35.5363 23.3877 22.9998C23.3877 10.4632 33.5506 0.300293 46.0872 0.300293C58.6237 0.300293 68.7866 10.4632 68.7866 22.9998Z" fill="#FFFFFF"></path>
<path d="M97.4171 35.9561C94.7317 35.9561 92.4264 35.3861 90.5011 34.2461C88.5757 33.0808 87.0937 31.4721 86.0551 29.4201C85.0164 27.3428 84.4971 24.9488 84.4971 22.2381C84.4971 19.5275 85.0164 17.1335 86.0551 15.0561C87.0937 12.9788 88.5757 11.3575 90.5011 10.1921C92.4264 9.0268 94.7317 8.44414 97.4171 8.44414C100.609 8.44414 103.218 9.24214 105.245 10.8381C107.297 12.4088 108.576 14.6255 109.083 17.4881H103.725C103.396 16.0441 102.686 14.9168 101.597 14.1061C100.533 13.2701 99.1144 12.8521 97.3411 12.8521C94.8837 12.8521 92.9584 13.6881 91.5651 15.3601C90.1717 17.0321 89.4751 19.3248 89.4751 22.2381C89.4751 25.1515 90.1717 27.4441 91.5651 29.1161C92.9584 30.7628 94.8837 31.5861 97.3411 31.5861C99.1144 31.5861 100.533 31.2061 101.597 30.4461C102.686 29.6608 103.396 28.5841 103.725 27.2161H109.083C108.576 29.9521 107.297 32.0928 105.245 33.6381C103.218 35.1835 100.609 35.9561 97.4171 35.9561Z" fill="#FFFFFF"></path>
<path d="M113.275 35.5001V8.14014H118.139V35.5001H113.275Z" fill="#FFFFFF"></path>
<path d="M132.153 35.9561C130.329 35.9561 128.682 35.5381 127.213 34.7021C125.769 33.8661 124.616 32.7135 123.755 31.2441C122.919 29.7495 122.501 28.0268 122.501 26.0761C122.501 24.1255 122.931 22.4155 123.793 20.9461C124.654 19.4515 125.807 18.2861 127.251 17.4501C128.72 16.6141 130.367 16.1961 132.191 16.1961C133.989 16.1961 135.611 16.6141 137.055 17.4501C138.524 18.2861 139.677 19.4515 140.513 20.9461C141.374 22.4155 141.805 24.1255 141.805 26.0761C141.805 28.0268 141.374 29.7495 140.513 31.2441C139.677 32.7135 138.524 33.8661 137.055 34.7021C135.585 35.5381 133.951 35.9561 132.153 35.9561ZM132.153 31.7381C133.419 31.7381 134.521 31.2695 135.459 30.3321C136.396 29.3695 136.865 27.9508 136.865 26.0761C136.865 24.2015 136.396 22.7955 135.459 21.8581C134.521 20.8955 133.432 20.4141 132.191 20.4141C130.899 20.4141 129.784 20.8955 128.847 21.8581C127.935 22.7955 127.479 24.2015 127.479 26.0761C127.479 27.9508 127.935 29.3695 128.847 30.3321C129.784 31.2695 130.886 31.7381 132.153 31.7381Z" fill="#FFFFFF"></path>
<path d="M153.222 35.9561C150.866 35.9561 149.042 35.2215 147.75 33.7521C146.483 32.2828 145.85 30.1295 145.85 27.2921V16.6521H150.676V26.8361C150.676 28.4575 151.005 29.6988 151.664 30.5601C152.322 31.4215 153.361 31.8521 154.78 31.8521C156.122 31.8521 157.224 31.3708 158.086 30.4081C158.972 29.4455 159.416 28.1028 159.416 26.3801V16.6521H164.28V35.5001H159.986L159.606 32.3081C159.023 33.4228 158.174 34.3095 157.06 34.9681C155.97 35.6268 154.691 35.9561 153.222 35.9561Z" fill="#FFFFFF"></path>
<path d="M177.937 35.9561C176.163 35.9561 174.58 35.5255 173.187 34.6641C171.793 33.8028 170.691 32.6248 169.881 31.1301C169.07 29.6355 168.665 27.9381 168.665 26.0381C168.665 24.1381 169.07 22.4535 169.881 20.9841C170.691 19.4895 171.793 18.3241 173.187 17.4881C174.58 16.6268 176.163 16.1961 177.937 16.1961C179.355 16.1961 180.597 16.4621 181.661 16.9941C182.725 17.5261 183.586 18.2735 184.245 19.2361V8.14014H189.109V35.5001H184.777L184.245 32.8021C183.637 33.6381 182.826 34.3728 181.813 35.0061C180.825 35.6395 179.533 35.9561 177.937 35.9561ZM178.963 31.7001C180.533 31.7001 181.813 31.1808 182.801 30.1421C183.814 29.0781 184.321 27.7228 184.321 26.0761C184.321 24.4295 183.814 23.0868 182.801 22.0481C181.813 20.9841 180.533 20.4521 178.963 20.4521C177.417 20.4521 176.138 20.9715 175.125 22.0101C174.111 23.0488 173.605 24.3915 173.605 26.0381C173.605 27.6848 174.111 29.0401 175.125 30.1041C176.138 31.1681 177.417 31.7001 178.963 31.7001Z" fill="#FFFFFF"></path>
<path d="M194.062 35.5001V8.14014H198.926V35.5001H194.062Z" fill="#FFFFFF"></path>
<path d="M206.252 43.8601L210.622 34.2461H209.482L202.148 16.6521H207.43L212.712 29.9141L218.222 16.6521H223.39L211.42 43.8601H206.252Z" fill="#FFFFFF"></path>
</svg>