<svg xmlns:xlink="http://www.w3.org/1999/xlink" width="196" height="53" viewBox="0 0 196 53" fill="none" xmlns="http://www.w3.org/2000/svg" id="svg168682246_4297">
<path d="M65.0869 38.5001V11.9001H75.7649C78.5262 11.9001 80.6289 12.5461 82.0729 13.8381C83.5422 15.1048 84.2769 16.7388 84.2769 18.7401C84.2769 20.4121 83.8209 21.7548 82.9089 22.7681C82.0222 23.7561 80.9329 24.4275 79.6409 24.7821C81.1609 25.0861 82.4149 25.8461 83.4029 27.0621C84.3909 28.2528 84.8849 29.6461 84.8849 31.2421C84.8849 33.3448 84.1249 35.0801 82.6049 36.4481C81.0849 37.8161 78.9316 38.5001 76.1449 38.5001H65.0869ZM69.9509 23.0721H75.0429C76.4109 23.0721 77.4622 22.7555 78.1969 22.1221C78.9316 21.4888 79.2989 20.5895 79.2989 19.4241C79.2989 18.3095 78.9316 17.4355 78.1969 16.8021C77.4876 16.1435 76.4109 15.8141 74.9669 15.8141H69.9509V23.0721ZM69.9509 34.5481H75.3849C76.8289 34.5481 77.9436 34.2188 78.7289 33.5601C79.5396 32.8761 79.9449 31.9261 79.9449 30.7101C79.9449 29.4688 79.5269 28.4935 78.6909 27.7841C77.8549 27.0748 76.7276 26.7201 75.3089 26.7201H69.9509V34.5481Z" fill="#FFFFFF"></path>
<path d="M88.9456 38.5001V11.1401H93.8096V38.5001H88.9456Z" fill="#FFFFFF"></path>
<path d="M107.824 38.9561C106 38.9561 104.353 38.5381 102.884 37.7021C101.44 36.8661 100.287 35.7135 99.4256 34.2441C98.5896 32.7495 98.1716 31.0268 98.1716 29.0761C98.1716 27.1255 98.6022 25.4155 99.4636 23.9461C100.325 22.4515 101.478 21.2861 102.922 20.4501C104.391 19.6141 106.038 19.1961 107.862 19.1961C109.66 19.1961 111.282 19.6141 112.726 20.4501C114.195 21.2861 115.348 22.4515 116.184 23.9461C117.045 25.4155 117.476 27.1255 117.476 29.0761C117.476 31.0268 117.045 32.7495 116.184 34.2441C115.348 35.7135 114.195 36.8661 112.726 37.7021C111.256 38.5381 109.622 38.9561 107.824 38.9561ZM107.824 34.7381C109.09 34.7381 110.192 34.2695 111.13 33.3321C112.067 32.3695 112.536 30.9508 112.536 29.0761C112.536 27.2015 112.067 25.7955 111.13 24.8581C110.192 23.8955 109.103 23.4141 107.862 23.4141C106.57 23.4141 105.455 23.8955 104.518 24.8581C103.606 25.7955 103.15 27.2015 103.15 29.0761C103.15 30.9508 103.606 32.3695 104.518 33.3321C105.455 34.2695 106.557 34.7381 107.824 34.7381Z" fill="#FFFFFF"></path>
<path d="M131.058 38.9561C129.133 38.9561 127.436 38.5381 125.966 37.7021C124.497 36.8661 123.332 35.7008 122.47 34.2061C121.634 32.7115 121.216 31.0015 121.216 29.0761C121.216 27.1508 121.634 25.4408 122.47 23.9461C123.332 22.4515 124.497 21.2861 125.966 20.4501C127.436 19.6141 129.133 19.1961 131.058 19.1961C133.465 19.1961 135.492 19.8295 137.138 21.0961C138.785 22.3375 139.836 24.0601 140.292 26.2641H135.162C134.909 25.3521 134.402 24.6428 133.642 24.1361C132.908 23.6041 132.034 23.3381 131.02 23.3381C129.678 23.3381 128.538 23.8448 127.6 24.8581C126.663 25.8715 126.194 27.2775 126.194 29.0761C126.194 30.8748 126.663 32.2808 127.6 33.2941C128.538 34.3075 129.678 34.8141 131.02 34.8141C132.034 34.8141 132.908 34.5608 133.642 34.0541C134.402 33.5475 134.909 32.8255 135.162 31.8881H140.292C139.836 34.0161 138.785 35.7261 137.138 37.0181C135.492 38.3101 133.465 38.9561 131.058 38.9561Z" fill="#FFFFFF"></path>
<path d="M144.61 38.5001V11.1401H149.474V27.2901L156.162 19.6521H161.938L154.224 28.2401L163.192 38.5001H157.112L149.474 29.0381V38.5001H144.61Z" fill="#FFFFFF"></path>
<path d="M166.207 38.5001V11.1401H171.071V38.5001H166.207Z" fill="#FFFFFF"></path>
<path d="M178.397 46.8601L182.767 37.2461H181.627L174.293 19.6521H179.575L184.857 32.9141L190.367 19.6521H195.535L183.565 46.8601H178.397Z" fill="#FFFFFF"></path>
<mask id="svg168682246_4297_mask0_1245_35570" style="mask-type:alpha" maskUnits="userSpaceOnUse" x="0" y="0" width="49" height="53" fill="none">
<path d="M19.9473 1.41118C22.7643 -0.215184 26.2349 -0.215186 29.0519 1.41118L43.9509 10.0131C46.7678 11.6395 48.5031 14.6451 48.5031 17.8979V35.1017C48.5031 38.3545 46.7678 41.3601 43.9509 42.9865L29.0519 51.5884C26.2349 53.2148 22.7643 53.2148 19.9473 51.5884L5.04836 42.9865C2.23141 41.3601 0.496094 38.3545 0.496094 35.1017V17.8979C0.496094 14.6451 2.23141 11.6395 5.04836 10.0131L19.9473 1.41118Z" fill="#C4C4C4"></path>
</mask>
<g mask="url(#svg168682246_4297_mask0_1245_35570)" fill="none">
<path d="M24.5 -1.66895L50.8113 13.5219L24.5 28.7128L-1.81133 13.5219L24.5 -1.66895Z" fill="#FFFFFF"></path>
<path d="M0.289062 13.7417L24.4991 27.7194L24.4991 55.6747L0.289062 41.6971L0.289062 13.7417Z" fill="#FFFFFF"></path>
<path d="M24.5 27.7231L48.71 13.7455L48.71 41.7008L24.5 55.6785L24.5 27.7231Z" fill="#FFFFFF"></path>
</g>
</svg>