<svg xmlns:xlink="http://www.w3.org/1999/xlink" width="190" height="43" viewBox="0 0 190 43" fill="none" xmlns="http://www.w3.org/2000/svg" id="svg-282937663_4458">
<path d="M59.5703 32.0756V5.4756H64.4343L76.9363 24.2096V5.4756H81.8003V32.0756H76.9363L64.4343 13.3796V32.0756H59.5703Z" fill="#FFFFFF"></path>
<path d="M93.341 32.5316C91.7197 32.5316 90.3897 32.2783 89.351 31.7716C88.3124 31.2396 87.5397 30.5429 87.033 29.6816C86.5264 28.8203 86.273 27.8703 86.273 26.8316C86.273 25.0836 86.957 23.6649 88.325 22.5756C89.693 21.4863 91.745 20.9416 94.481 20.9416H99.269V20.4856C99.269 19.1936 98.9017 18.2436 98.167 17.6356C97.4324 17.0276 96.5204 16.7236 95.431 16.7236C94.443 16.7236 93.5817 16.9643 92.847 17.4456C92.1124 17.9016 91.6564 18.5856 91.479 19.4976H86.729C86.8557 18.1296 87.3117 16.9389 88.097 15.9256C88.9077 14.9123 89.9464 14.1396 91.213 13.6076C92.4797 13.0503 93.8984 12.7716 95.469 12.7716C98.1544 12.7716 100.27 13.4429 101.815 14.7856C103.36 16.1283 104.133 18.0283 104.133 20.4856V32.0756H99.991L99.535 29.0356C98.9777 30.0489 98.1924 30.8849 97.179 31.5436C96.191 32.2023 94.9117 32.5316 93.341 32.5316ZM94.443 28.7316C95.8364 28.7316 96.913 28.2756 97.673 27.3636C98.4584 26.4516 98.9524 25.3243 99.155 23.9816H95.013C93.721 23.9816 92.7964 24.2223 92.239 24.7036C91.6817 25.1596 91.403 25.7296 91.403 26.4136C91.403 27.1483 91.6817 27.7183 92.239 28.1236C92.7964 28.5289 93.531 28.7316 94.443 28.7316Z" fill="#FFFFFF"></path>
<path d="M116.913 32.0756C114.937 32.0756 113.354 31.5943 112.163 30.6316C110.972 29.6689 110.377 27.9589 110.377 25.5016V17.2936H107.147V13.2276H110.377L110.947 8.1736H115.241V13.2276H120.333V17.2936H115.241V25.5396C115.241 26.4516 115.431 27.0849 115.811 27.4396C116.216 27.7689 116.9 27.9336 117.863 27.9336H120.219V32.0756H116.913Z" fill="#FFFFFF"></path>
<path d="M131.577 32.5316C129.221 32.5316 127.397 31.7969 126.105 30.3276C124.838 28.8583 124.205 26.7049 124.205 23.8676V13.2276H129.031V23.4116C129.031 25.0329 129.36 26.2743 130.019 27.1356C130.678 27.9969 131.716 28.4276 133.135 28.4276C134.478 28.4276 135.58 27.9463 136.441 26.9836C137.328 26.0209 137.771 24.6783 137.771 22.9556V13.2276H142.635V32.0756H138.341L137.961 28.8836C137.378 29.9983 136.53 30.8849 135.415 31.5436C134.326 32.2023 133.046 32.5316 131.577 32.5316Z" fill="#FFFFFF"></path>
<path d="M147.628 32.0756V13.2276H151.96L152.416 16.7616C153.1 15.5456 154.025 14.5829 155.19 13.8736C156.381 13.1389 157.774 12.7716 159.37 12.7716V17.9016H158.002C156.938 17.9016 155.988 18.0663 155.152 18.3956C154.316 18.7249 153.658 19.2949 153.176 20.1056C152.72 20.9163 152.492 22.0436 152.492 23.4876V32.0756H147.628Z" fill="#FFFFFF"></path>
<path d="M169.193 32.5316C167.571 32.5316 166.241 32.2783 165.203 31.7716C164.164 31.2396 163.391 30.5429 162.885 29.6816C162.378 28.8203 162.125 27.8703 162.125 26.8316C162.125 25.0836 162.809 23.6649 164.177 22.5756C165.545 21.4863 167.597 20.9416 170.333 20.9416H175.121V20.4856C175.121 19.1936 174.753 18.2436 174.019 17.6356C173.284 17.0276 172.372 16.7236 171.283 16.7236C170.295 16.7236 169.433 16.9643 168.699 17.4456C167.964 17.9016 167.508 18.5856 167.331 19.4976H162.581C162.707 18.1296 163.163 16.9389 163.949 15.9256C164.759 14.9123 165.798 14.1396 167.065 13.6076C168.331 13.0503 169.75 12.7716 171.321 12.7716C174.006 12.7716 176.121 13.4429 177.667 14.7856C179.212 16.1283 179.985 18.0283 179.985 20.4856V32.0756H175.843L175.387 29.0356C174.829 30.0489 174.044 30.8849 173.031 31.5436C172.043 32.2023 170.763 32.5316 169.193 32.5316ZM170.295 28.7316C171.688 28.7316 172.765 28.2756 173.525 27.3636C174.31 26.4516 174.804 25.3243 175.007 23.9816H170.865C169.573 23.9816 168.648 24.2223 168.091 24.7036C167.533 25.1596 167.255 25.7296 167.255 26.4136C167.255 27.1483 167.533 27.7183 168.091 28.1236C168.648 28.5289 169.383 28.7316 170.295 28.7316Z" fill="#FFFFFF"></path>
<path d="M184.626 32.0756V4.7156H189.49V32.0756H184.626Z" fill="#FFFFFF"></path>
<path d="M2.31979 42.9245C1.3893 42.9245 0.545364 42.3619 0.190478 41.5006C-0.168734 40.6394 0.0303475 39.644 0.688183 38.9861L13.239 26.4353C14.1435 25.5351 15.602 25.5351 16.5022 26.4353C17.4067 27.3355 17.4067 28.7983 16.5022 29.6985L3.95139 42.2493C3.52293 42.6821 2.93434 42.9245 2.31979 42.9245Z" fill="#FFFFFF"></path>
<path d="M39.2703 0.351361L6.45211 33.1652C-0.403228 26.3099 -0.403228 15.1916 6.45211 8.33194C16.2071 -1.42306 39.2703 0.351361 39.2703 0.351361Z" fill="#FFFFFF"></path>
<path d="M31.2854 33.1648C24.4301 40.0245 13.3118 40.0249 6.45211 33.1652L39.2703 0.351361C39.2703 0.351361 41.0447 23.4098 31.2854 33.1648Z" fill="#FFFFFF"></path>
</svg>