<svg xmlns:xlink="http://www.w3.org/1999/xlink" width="217" height="54" viewBox="0 0 217 54" fill="none" xmlns="http://www.w3.org/2000/svg" id="svg-1693527042_4608">
<path d="M82.4186 39.4993V16.8133H74.6666V12.8993H95.0726V16.8133H87.2826V39.4993H82.4186Z" fill="#FFFFFF"></path>
<path d="M104.306 39.9553C102.406 39.9553 100.721 39.55 99.2517 38.7393C97.7824 37.9286 96.6297 36.7886 95.7937 35.3193C94.9577 33.85 94.5397 32.1526 94.5397 30.2273C94.5397 28.2766 94.9451 26.5413 95.7557 25.0213C96.5917 23.5013 97.7317 22.3233 99.1757 21.4873C100.645 20.626 102.368 20.1953 104.344 20.1953C106.193 20.1953 107.827 20.6006 109.246 21.4113C110.664 22.222 111.766 23.3366 112.552 24.7553C113.362 26.1486 113.768 27.7066 113.768 29.4293C113.768 29.708 113.755 29.9993 113.73 30.3033C113.73 30.6073 113.717 30.924 113.692 31.2533H99.3657C99.4671 32.7226 99.9737 33.8753 100.886 34.7113C101.823 35.5473 102.95 35.9653 104.268 35.9653C105.256 35.9653 106.079 35.75 106.738 35.3193C107.422 34.8633 107.928 34.2806 108.258 33.5713H113.198C112.843 34.762 112.248 35.8513 111.412 36.8393C110.601 37.802 109.588 38.562 108.372 39.1193C107.181 39.6766 105.826 39.9553 104.306 39.9553ZM104.344 24.1473C103.153 24.1473 102.102 24.4893 101.19 25.1733C100.278 25.832 99.6951 26.8453 99.4417 28.2133H108.828C108.752 26.972 108.296 25.984 107.46 25.2493C106.624 24.5146 105.585 24.1473 104.344 24.1473Z" fill="#FFFFFF"></path>
<path d="M127.093 39.9553C125.167 39.9553 123.47 39.5373 122.001 38.7013C120.531 37.8653 119.366 36.7 118.505 35.2053C117.669 33.7106 117.251 32.0006 117.251 30.0753C117.251 28.15 117.669 26.44 118.505 24.9453C119.366 23.4506 120.531 22.2853 122.001 21.4493C123.47 20.6133 125.167 20.1953 127.093 20.1953C129.499 20.1953 131.526 20.8286 133.173 22.0953C134.819 23.3366 135.871 25.0593 136.327 27.2633H131.197C130.943 26.3513 130.437 25.642 129.677 25.1353C128.942 24.6033 128.068 24.3373 127.055 24.3373C125.712 24.3373 124.572 24.844 123.635 25.8573C122.697 26.8706 122.229 28.2766 122.229 30.0753C122.229 31.874 122.697 33.28 123.635 34.2933C124.572 35.3066 125.712 35.8133 127.055 35.8133C128.068 35.8133 128.942 35.56 129.677 35.0533C130.437 34.5466 130.943 33.8246 131.197 32.8873H136.327C135.871 35.0153 134.819 36.7253 133.173 38.0173C131.526 39.3093 129.499 39.9553 127.093 39.9553Z" fill="#FFFFFF"></path>
<path d="M140.644 39.4993V12.1393H145.508V23.5393C146.141 22.5006 146.99 21.69 148.054 21.1073C149.143 20.4993 150.384 20.1953 151.778 20.1953C154.108 20.1953 155.907 20.93 157.174 22.3993C158.466 23.8686 159.112 26.022 159.112 28.8593V39.4993H154.286V29.3153C154.286 27.694 153.956 26.4526 153.298 25.5913C152.664 24.73 151.651 24.2993 150.258 24.2993C148.89 24.2993 147.75 24.7806 146.838 25.7433C145.951 26.706 145.508 28.0486 145.508 29.7713V39.4993H140.644Z" fill="#FFFFFF"></path>
<path d="M163.763 39.4993V12.1393H168.627V39.4993H163.763Z" fill="#FFFFFF"></path>
<path d="M176.219 17.7253C175.332 17.7253 174.598 17.4593 174.015 16.9273C173.458 16.3953 173.179 15.724 173.179 14.9133C173.179 14.1026 173.458 13.444 174.015 12.9373C174.598 12.4053 175.332 12.1393 176.219 12.1393C177.106 12.1393 177.828 12.4053 178.385 12.9373C178.968 13.444 179.259 14.1026 179.259 14.9133C179.259 15.724 178.968 16.3953 178.385 16.9273C177.828 17.4593 177.106 17.7253 176.219 17.7253ZM173.787 39.4993V20.6513H178.651V39.4993H173.787Z" fill="#FFFFFF"></path>
<path d="M184.602 39.4993V24.7173H182.018V20.6513H184.602V18.4473C184.602 16.1673 185.172 14.546 186.312 13.5833C187.477 12.6206 189.048 12.1393 191.024 12.1393H193.114V16.2813H191.784C190.948 16.2813 190.352 16.446 189.998 16.7753C189.643 17.1046 189.466 17.662 189.466 18.4473V20.6513H193.532V24.7173H189.466V39.4993H184.602Z" fill="#FFFFFF"></path>
<path d="M199.74 47.8593L204.11 38.2453H202.97L195.636 20.6513H200.918L206.2 33.9133L211.71 20.6513H216.878L204.908 47.8593H199.74Z" fill="#FFFFFF"></path>
<path d="M32.9219 4.84205C32.9219 1.86864 36.5379 0.403171 38.608 2.53765L57.6821 22.2054C58.9383 23.5007 59.6408 25.2342 59.6408 27.0386V49.8039C59.6408 52.7773 56.0248 54.2427 53.9547 52.1083L34.8806 32.4405C33.6244 31.1452 32.9219 29.4117 32.9219 27.6073V4.84205Z" fill="#FFFFFF"></path>
<path d="M16.3633 4.19556C16.3633 1.22215 19.9793 -0.243313 22.0494 1.89117L40.842 21.2687C42.2788 22.7501 43.0823 24.7327 43.0823 26.7964V49.1574C43.0823 52.1308 39.4662 53.5963 37.3961 51.4618L18.322 31.794C17.0658 30.4987 16.3633 28.7652 16.3633 26.9608V4.19556Z" fill="#FFFFFF"></path>
<path d="M0.359375 4.84205C0.359375 1.86864 3.97542 0.403171 6.04548 2.53765L25.1196 22.2054C26.3758 23.5007 27.0783 25.2342 27.0783 27.0386V49.8039C27.0783 52.7773 23.4623 54.2427 21.3922 52.1083L2.3181 32.4405C1.06191 31.1452 0.359375 29.4117 0.359375 27.6073V4.84205Z" fill="#FFFFFF"></path>
</svg>