<svg xmlns:xlink="http://www.w3.org/1999/xlink" width="72" height="54" viewBox="0 0 72 54" fill="none" xmlns="http://www.w3.org/2000/svg" id="svg1754509929_1141">
<path d="M48.6478 21.9248C48.6478 20.9663 49.4248 20.1892 50.3834 20.1892H70.2635C71.2221 20.1892 71.9991 20.9663 71.9991 21.9248V41.805C71.9991 42.7635 71.2221 43.5405 70.2635 43.5405H50.3834C49.4248 43.5405 48.6478 42.7635 48.6478 41.805V21.9248Z" fill="#FFFFFF"></path>
<path d="M19.4598 31.6547C19.4598 30.6962 20.2368 29.9191 21.1954 29.9191H41.0755C42.0341 29.9191 42.8111 30.6962 42.8111 31.6547V51.5349C42.8111 52.4934 42.0341 53.2704 41.0755 53.2704H21.1954C20.2369 53.2704 19.4598 52.4934 19.4598 51.5349V31.6547Z" fill="#FFFFFF"></path>
<path d="M29.188 2.46555C29.188 1.50702 29.965 0.72998 30.9236 0.72998H50.8037C51.7623 0.72998 52.5393 1.50702 52.5393 2.46555V22.3457C52.5393 23.3042 51.7623 24.0813 50.8037 24.0813H30.9236C29.965 24.0813 29.188 23.3043 29.188 22.3457V2.46555Z" fill="#FFFFFF"></path>
<path d="M0 12.1955C0 11.2369 0.777043 10.4599 1.73557 10.4599H21.6157C22.5743 10.4599 23.3513 11.2369 23.3513 12.1955V32.0756C23.3513 33.0342 22.5743 33.8112 21.6157 33.8112H1.73557C0.777044 33.8112 0 33.0342 0 32.0756V12.1955Z" fill="#FFFFFF"></path>
</svg>