<svg xmlns:xlink="http://www.w3.org/1999/xlink" width="130" height="28" viewBox="0 0 130 28" fill="none" xmlns="http://www.w3.org/2000/svg" id="svg1740903378_9187">
<rect x="24.3828" y="10.5859" width="11.7038" height="11.7038" rx="1.95064" fill="#FFFFFF"></rect>
<rect x="9.75342" y="15.4619" width="11.7038" height="11.7038" rx="1.95064" fill="#FFFFFF"></rect>
<rect x="14.6299" y="0.833008" width="11.7038" height="11.7038" rx="1.95064" fill="#FFFFFF"></rect>
<rect y="5.70898" width="11.7038" height="11.7038" rx="1.95064" fill="#FFFFFF"></rect>
<path d="M50.6017 19.4491C49.4483 19.4491 48.4424 19.2729 47.5838 18.9205C46.7316 18.5681 46.0652 18.0427 45.5846 17.3443C45.1105 16.6459 44.8606 15.7808 44.835 14.7492H47.7568C47.7952 15.2234 47.9362 15.6239 48.1797 15.9506C48.4231 16.271 48.7499 16.5113 49.16 16.6715C49.5701 16.8317 50.041 16.9118 50.5728 16.9118C51.0854 16.9118 51.5308 16.8381 51.9088 16.6907C52.2933 16.5433 52.588 16.3383 52.793 16.0756C53.0045 15.8065 53.1102 15.4957 53.1102 15.1433C53.1102 14.8229 53.0141 14.5538 52.8219 14.336C52.6361 14.1181 52.3605 13.9323 51.9953 13.7785C51.6365 13.6247 51.1976 13.487 50.6786 13.3652L49.1119 12.9808C47.9073 12.6925 46.9558 12.2343 46.2574 11.6064C45.559 10.972 45.2098 10.1263 45.2098 9.06903C45.2098 8.20402 45.4437 7.44794 45.9114 6.80078C46.3856 6.14722 47.0295 5.64103 47.8433 5.28221C48.6634 4.91699 49.5957 4.73438 50.6401 4.73438C51.7038 4.73438 52.6296 4.91699 53.4178 5.28221C54.2123 5.64744 54.8306 6.15363 55.2727 6.80078C55.7213 7.44794 55.9519 8.19441 55.9647 9.04019H53.0525C53.0013 8.48274 52.761 8.04704 52.3317 7.73307C51.9088 7.4191 51.3353 7.26212 50.6113 7.26212C50.1243 7.26212 49.7078 7.3326 49.3618 7.47357C49.0222 7.60812 48.7627 7.79714 48.5833 8.04063C48.4039 8.28411 48.3142 8.56284 48.3142 8.8768C48.3142 9.20999 48.4167 9.49192 48.6218 9.72259C48.8268 9.94685 49.0991 10.1327 49.4387 10.28C49.7847 10.421 50.1628 10.5395 50.5728 10.6357L51.8511 10.9528C52.4727 11.0938 53.0461 11.2828 53.5715 11.5199C54.097 11.7506 54.5519 12.0357 54.9363 12.3753C55.3272 12.7149 55.6283 13.1153 55.8398 13.5767C56.0512 14.0316 56.157 14.557 56.157 15.1529C56.157 16.0307 55.9359 16.7932 55.4938 17.4404C55.0581 18.0811 54.4269 18.5777 53.6004 18.9301C52.7738 19.2761 51.7743 19.4491 50.6017 19.4491Z" fill="#FFFFFF"></path>
<path d="M64.5379 23.2648V17.5269H64.4514C64.3169 17.8216 64.1214 18.1164 63.8651 18.4111C63.6088 18.6995 63.2789 18.9397 62.8752 19.132C62.4779 19.3242 61.991 19.4203 61.4143 19.4203C60.5941 19.4203 59.8541 19.2088 59.1941 18.786C58.5341 18.3631 58.0119 17.7415 57.6275 16.9214C57.243 16.0948 57.0508 15.0856 57.0508 13.8939C57.0508 12.6636 57.2494 11.6384 57.6467 10.8183C58.044 9.99811 58.5726 9.3862 59.2325 8.98253C59.8925 8.57245 60.6134 8.36741 61.3951 8.36741C61.9974 8.36741 62.5004 8.46993 62.904 8.67497C63.3077 8.8736 63.6345 9.12349 63.8844 9.42464C64.1343 9.72579 64.3233 10.0237 64.4514 10.3185H64.586V8.50197H67.5174V23.2648H64.5379ZM62.3466 17.0559C62.8271 17.0559 63.234 16.9246 63.5672 16.6619C63.9068 16.3928 64.1631 16.0211 64.3361 15.547C64.5155 15.0728 64.6052 14.5186 64.6052 13.8842C64.6052 13.2435 64.5187 12.6892 64.3457 12.2215C64.1727 11.7473 63.9164 11.3821 63.5768 11.1258C63.2372 10.8631 62.8271 10.7318 62.3466 10.7318C61.8596 10.7318 61.4495 10.8663 61.1163 11.1354C60.7832 11.4045 60.5301 11.7762 60.3571 12.2503C60.1841 12.7181 60.0976 13.2627 60.0976 13.8842C60.0976 14.5058 60.1841 15.0568 60.3571 15.5374C60.5301 16.0115 60.7832 16.3832 61.1163 16.6523C61.4559 16.9214 61.866 17.0559 62.3466 17.0559Z" fill="#FFFFFF"></path>
<path d="M76.1387 14.682V8.50197H79.1085V19.2473H76.254V17.2962H76.1387C75.8952 17.9177 75.4947 18.4239 74.9373 18.8148C74.3798 19.1992 73.6974 19.3883 72.8901 19.3818C72.1724 19.3818 71.5381 19.2217 70.987 18.9013C70.4424 18.5745 70.0163 18.11 69.7088 17.5077C69.4076 16.9054 69.257 16.1845 69.257 15.3451V8.50197H72.2269V14.8261C72.2269 15.4541 72.3967 15.9539 72.7363 16.3255C73.0759 16.6907 73.5276 16.8701 74.0915 16.8637C74.4503 16.8637 74.7835 16.7836 75.091 16.6234C75.3986 16.4568 75.6485 16.2101 75.8407 15.8834C76.0393 15.5566 76.1387 15.1561 76.1387 14.682Z" fill="#FFFFFF"></path>
<path d="M83.9237 19.4491C83.2445 19.4491 82.6326 19.3306 82.088 19.0935C81.5498 18.85 81.1269 18.4912 80.8193 18.0171C80.5117 17.5429 80.358 16.9534 80.358 16.2486C80.358 15.6463 80.4669 15.1465 80.6847 14.7492C80.9026 14.3456 81.2006 14.0188 81.5786 13.7689C81.9566 13.519 82.3859 13.33 82.8665 13.2018C83.3471 13.0737 83.8564 12.984 84.3947 12.9327C85.0162 12.8751 85.516 12.8174 85.894 12.7597C86.2721 12.7021 86.5476 12.6156 86.7206 12.5002C86.9 12.3785 86.9897 12.2055 86.9897 11.9812V11.9332C86.9897 11.491 86.8487 11.1483 86.5668 10.9048C86.2913 10.6613 85.9004 10.5395 85.3942 10.5395C84.8624 10.5395 84.4363 10.6581 84.116 10.8952C83.802 11.1258 83.5937 11.4206 83.4912 11.7794L80.7328 11.5583C80.8738 10.9048 81.1493 10.3409 81.5594 9.86676C81.9694 9.3862 82.4981 9.01777 83.1452 8.76147C83.7988 8.49876 84.5549 8.36741 85.4135 8.36741C86.0094 8.36741 86.5796 8.43789 87.1243 8.57886C87.6689 8.71982 88.1527 8.93767 88.5756 9.23242C89.0048 9.52075 89.3444 9.89559 89.5943 10.3569C89.8442 10.8183 89.9692 11.3661 89.9692 12.0004V19.2473H87.1339V17.7479H87.057C86.884 18.0875 86.6533 18.3855 86.365 18.6418C86.0766 18.8917 85.7306 19.0903 85.327 19.2377C84.9233 19.3786 84.4555 19.4491 83.9237 19.4491ZM84.7791 17.3923C85.2148 17.3923 85.5993 17.3058 85.9325 17.1328C86.2721 16.9534 86.5348 16.7163 86.7206 16.4216C86.9128 16.1204 87.0089 15.7841 87.0089 15.4124V14.2687C86.9192 14.3264 86.7911 14.3808 86.6245 14.4321C86.4643 14.4833 86.2849 14.5282 86.0862 14.5666C85.8876 14.6051 85.689 14.6403 85.4904 14.6724C85.2917 14.698 85.1123 14.7236 84.9521 14.7492C84.5997 14.8005 84.2922 14.8838 84.0294 14.9991C83.7667 15.1081 83.5617 15.2586 83.4143 15.4509C83.2734 15.6367 83.2029 15.8706 83.2029 16.1525C83.2029 16.5562 83.3503 16.8637 83.645 17.0752C83.9397 17.2866 84.3178 17.3923 84.7791 17.3923Z" fill="#FFFFFF"></path>
<path d="M91.7088 19.2473V8.50197H94.5826V10.3858H94.6979C94.8965 9.71938 95.2265 9.2164 95.6878 8.8768C96.1492 8.5308 96.6778 8.3578 97.2737 8.3578C97.4275 8.3578 97.5877 8.36741 97.7542 8.38663C97.9272 8.39945 98.081 8.42508 98.2156 8.46352V11.097C98.0746 11.0521 97.8792 11.0169 97.6293 10.9913C97.3858 10.9592 97.1584 10.9432 96.9469 10.9432C96.5176 10.9432 96.13 11.0393 95.784 11.2315C95.4379 11.4174 95.1656 11.6801 94.967 12.0197C94.7748 12.3529 94.6787 12.7373 94.6787 13.173V19.2473H91.7088Z" fill="#FFFFFF"></path>
<path d="M103.502 19.4587C102.4 19.4587 101.448 19.2345 100.647 18.786C99.8463 18.3374 99.2312 17.6999 98.8019 16.8733C98.379 16.0404 98.1675 15.0568 98.1675 13.9227C98.1675 12.8206 98.379 11.8531 98.8019 11.0201C99.2312 10.1871 99.8335 9.53677 100.609 9.06903C101.39 8.60128 102.307 8.36741 103.358 8.36741C104.069 8.36741 104.732 8.48274 105.347 8.71341C105.962 8.93767 106.5 9.27727 106.962 9.7322C107.423 10.1807 107.782 10.7478 108.038 11.4334C108.295 12.1126 108.423 12.9103 108.423 13.8266V14.6339H99.3497V12.7982H106.981L105.597 13.2787C105.597 12.7341 105.514 12.2599 105.347 11.8563C105.181 11.4526 104.931 11.1418 104.597 10.924C104.271 10.6997 103.864 10.5876 103.377 10.5876C102.89 10.5876 102.477 10.6997 102.137 10.924C101.804 11.1483 101.547 11.4526 101.368 11.8371C101.189 12.2215 101.099 12.6636 101.099 13.1634V14.4609C101.099 15.044 101.201 15.5438 101.407 15.9603C101.612 16.3703 101.897 16.6875 102.262 16.9118C102.634 17.1296 103.06 17.2385 103.54 17.2385C103.873 17.2385 104.175 17.1905 104.444 17.0944C104.713 16.9983 104.943 16.8573 105.136 16.6715C105.334 16.4857 105.482 16.2614 105.578 15.9987L108.327 16.1813C108.192 16.8413 107.91 17.418 107.481 17.9113C107.058 18.3983 106.51 18.7795 105.837 19.0551C105.164 19.3242 104.386 19.4587 103.502 19.4587Z" fill="#FFFFFF"></path>
<path d="M114.593 19.4587C113.491 19.4587 112.539 19.2345 111.739 18.786C110.938 18.3374 110.322 17.6999 109.893 16.8733C109.47 16.0404 109.259 15.0568 109.259 13.9227C109.259 12.8206 109.47 11.8531 109.893 11.0201C110.322 10.1871 110.925 9.53677 111.7 9.06903C112.482 8.60128 113.398 8.36741 114.449 8.36741C115.16 8.36741 115.823 8.48274 116.438 8.71341C117.054 8.93767 117.592 9.27727 118.053 9.7322C118.514 10.1807 118.873 10.7478 119.13 11.4334C119.386 12.1126 119.514 12.9103 119.514 13.8266V14.6339H110.441V12.7982H118.072L116.688 13.2787C116.688 12.7341 116.605 12.2599 116.438 11.8563C116.272 11.4526 116.022 11.1418 115.689 10.924C115.362 10.6997 114.955 10.5876 114.468 10.5876C113.981 10.5876 113.568 10.6997 113.228 10.924C112.895 11.1483 112.639 11.4526 112.459 11.8371C112.28 12.2215 112.19 12.6636 112.19 13.1634V14.4609C112.19 15.044 112.293 15.5438 112.498 15.9603C112.703 16.3703 112.988 16.6875 113.353 16.9118C113.725 17.1296 114.151 17.2385 114.632 17.2385C114.965 17.2385 115.266 17.1905 115.535 17.0944C115.804 16.9983 116.035 16.8573 116.227 16.6715C116.426 16.4857 116.573 16.2614 116.669 15.9987L119.418 16.1813C119.283 16.8413 119.001 17.418 118.572 17.9113C118.149 18.3983 117.601 18.7795 116.929 19.0551C116.256 19.3242 115.477 19.4587 114.593 19.4587Z" fill="#FFFFFF"></path>
<path d="M122.878 8.50197L124.829 12.2696L126.857 8.50197H129.923L126.809 13.8842L130 19.2473H126.953L124.829 15.5374L122.763 19.2473H119.677L122.878 13.8842L119.793 8.50197H122.878Z" fill="#FFFFFF"></path>
</svg>