<svg xmlns:xlink="http://www.w3.org/1999/xlink" width="192" height="50" viewBox="-3 -3 192 50" fill="none" xmlns="http://www.w3.org/2000/svg" id="svg-401585222_5774">
<path d="M58.1924 33.5001V6.90007H67.9584C70.0864 6.90007 71.8344 7.2674 73.2024 8.00207C74.5957 8.7114 75.6344 9.68674 76.3184 10.9281C77.0024 12.1441 77.3444 13.4994 77.3444 14.9941C77.3444 16.6154 76.9137 18.0974 76.0524 19.4401C75.2164 20.7827 73.8991 21.7581 72.1004 22.3661L77.6104 33.5001H72.0244L67.0844 23.0121H63.0564V33.5001H58.1924ZM63.0564 19.4401H67.6544C69.2757 19.4401 70.4664 19.0474 71.2264 18.2621C71.9864 17.4767 72.3664 16.4381 72.3664 15.1461C72.3664 13.8794 71.9864 12.8661 71.2264 12.1061C70.4917 11.3461 69.2884 10.9661 67.6164 10.9661H63.0564V19.4401Z" fill="#FFFFFF"></path>
<path d="M89.7618 33.9561C87.8618 33.9561 86.1771 33.5507 84.7078 32.7401C83.2384 31.9294 82.0858 30.7894 81.2498 29.3201C80.4138 27.8507 79.9958 26.1534 79.9958 24.2281C79.9958 22.2774 80.4011 20.5421 81.2118 19.0221C82.0478 17.5021 83.1878 16.3241 84.6318 15.4881C86.1011 14.6267 87.8238 14.1961 89.7998 14.1961C91.6491 14.1961 93.2831 14.6014 94.7018 15.4121C96.1204 16.2227 97.2224 17.3374 98.0078 18.7561C98.8184 20.1494 99.2238 21.7074 99.2238 23.4301C99.2238 23.7087 99.2111 24.0001 99.1858 24.3041C99.1858 24.6081 99.1731 24.9247 99.1478 25.2541H84.8218C84.9231 26.7234 85.4298 27.8761 86.3418 28.7121C87.2791 29.5481 88.4065 29.9661 89.7238 29.9661C90.7118 29.9661 91.5351 29.7507 92.1938 29.3201C92.8778 28.8641 93.3844 28.2814 93.7138 27.5721H98.6538C98.2991 28.7627 97.7038 29.8521 96.8678 30.8401C96.0571 31.8027 95.0438 32.5627 93.8278 33.1201C92.6371 33.6774 91.2818 33.9561 89.7618 33.9561ZM89.7998 18.1481C88.6091 18.1481 87.5578 18.4901 86.6458 19.1741C85.7338 19.8327 85.1511 20.8461 84.8978 22.2141H94.2838C94.2078 20.9727 93.7518 19.9847 92.9158 19.2501C92.0798 18.5154 91.0411 18.1481 89.7998 18.1481Z" fill="#FFFFFF"></path>
<path d="M109.813 33.9561C108.191 33.9561 106.861 33.7027 105.823 33.1961C104.784 32.6641 104.011 31.9674 103.505 31.1061C102.998 30.2447 102.745 29.2947 102.745 28.2561C102.745 26.5081 103.429 25.0894 104.797 24.0001C106.165 22.9107 108.217 22.3661 110.953 22.3661H115.741V21.9101C115.741 20.6181 115.373 19.6681 114.639 19.0601C113.904 18.4521 112.992 18.1481 111.903 18.1481C110.915 18.1481 110.053 18.3887 109.319 18.8701C108.584 19.3261 108.128 20.0101 107.951 20.9221H103.201C103.327 19.5541 103.783 18.3634 104.569 17.3501C105.379 16.3367 106.418 15.5641 107.685 15.0321C108.951 14.4747 110.37 14.1961 111.941 14.1961C114.626 14.1961 116.741 14.8674 118.287 16.2101C119.832 17.5527 120.605 19.4527 120.605 21.9101V33.5001H116.463L116.007 30.4601C115.449 31.4734 114.664 32.3094 113.651 32.9681C112.663 33.6267 111.383 33.9561 109.813 33.9561ZM110.915 30.1561C112.308 30.1561 113.385 29.7001 114.145 28.7881C114.93 27.8761 115.424 26.7487 115.627 25.4061H111.485C110.193 25.4061 109.268 25.6467 108.711 26.1281C108.153 26.5841 107.875 27.1541 107.875 27.8381C107.875 28.5727 108.153 29.1427 108.711 29.5481C109.268 29.9534 110.003 30.1561 110.915 30.1561Z" fill="#FFFFFF"></path>
<path d="M125.246 33.5001V6.14007H130.11V33.5001H125.246Z" fill="#FFFFFF"></path>
<path d="M143.478 33.5001C141.502 33.5001 139.919 33.0187 138.728 32.0561C137.538 31.0934 136.942 29.3834 136.942 26.9261V18.7181H133.712V14.6521H136.942L137.512 9.59807H141.806V14.6521H146.898V18.7181H141.806V26.9641C141.806 27.8761 141.996 28.5094 142.376 28.8641C142.782 29.1934 143.466 29.3581 144.428 29.3581H146.784V33.5001H143.478Z" fill="#FFFFFF"></path>
<path d="M159.636 33.9561C157.812 33.9561 156.165 33.5381 154.696 32.7021C153.252 31.8661 152.099 30.7134 151.238 29.2441C150.402 27.7494 149.984 26.0267 149.984 24.0761C149.984 22.1254 150.415 20.4154 151.276 18.9461C152.137 17.4514 153.29 16.2861 154.734 15.4501C156.203 14.6141 157.85 14.1961 159.674 14.1961C161.473 14.1961 163.094 14.6141 164.538 15.4501C166.007 16.2861 167.16 17.4514 167.996 18.9461C168.857 20.4154 169.288 22.1254 169.288 24.0761C169.288 26.0267 168.857 27.7494 167.996 29.2441C167.16 30.7134 166.007 31.8661 164.538 32.7021C163.069 33.5381 161.435 33.9561 159.636 33.9561ZM159.636 29.7381C160.903 29.7381 162.005 29.2694 162.942 28.3321C163.879 27.3694 164.348 25.9507 164.348 24.0761C164.348 22.2014 163.879 20.7954 162.942 19.8581C162.005 18.8954 160.915 18.4141 159.674 18.4141C158.382 18.4141 157.267 18.8954 156.33 19.8581C155.418 20.7954 154.962 22.2014 154.962 24.0761C154.962 25.9507 155.418 27.3694 156.33 28.3321C157.267 29.2694 158.369 29.7381 159.636 29.7381Z" fill="#FFFFFF"></path>
<path d="M173.637 33.5001V14.6521H177.969L178.425 18.1861C179.109 16.9701 180.034 16.0074 181.199 15.2981C182.39 14.5634 183.783 14.1961 185.379 14.1961V19.3261H184.011C182.947 19.3261 181.997 19.4907 181.161 19.8201C180.325 20.1494 179.666 20.7194 179.185 21.5301C178.729 22.3407 178.501 23.4681 178.501 24.9121V33.5001H173.637Z" fill="#FFFFFF"></path>
<path d="M2.87109 2.59863C2.87109 1.49406 3.76652 0.598633 4.87109 0.598633H11.2365C12.3411 0.598633 13.2365 1.49406 13.2365 2.59863V16.8074H2.87109V2.59863Z" fill="#FFFFFF"></path>
<path d="M4.00048 40.9368H38.4787C39.1024 40.9368 39.6081 40.4312 39.6081 39.8074V19.3718C39.6081 19.0377 39.4601 18.7207 39.204 18.5062L21.9649 4.06191C21.5453 3.71031 20.9339 3.71031 20.5143 4.06191L3.27515 18.5062C3.01904 18.7207 2.87109 19.0377 2.87109 19.3718V39.8074C2.87109 40.4312 3.37674 40.9368 4.00048 40.9368Z" fill="#FFFFFF"></path>
<path fill-rule="evenodd" clip-rule="evenodd" d="M21.2396 7.04188L5.62109 20.1283V38.1868H36.8581V20.1283L21.2396 7.04188ZM23.7311 1.95402L40.9702 16.3983C41.8499 17.1354 42.3581 18.2241 42.3581 19.3718V39.8074C42.3581 41.95 40.6212 43.6868 38.4787 43.6868H4.00048C1.85796 43.6868 0.121094 41.95 0.121094 39.8074V19.3718C0.121094 18.2242 0.629277 17.1354 1.50899 16.3983L18.7481 1.95402C20.1896 0.746273 22.2896 0.746273 23.7311 1.95402Z" fill="#FFFFFF"></path>
</svg>