<svg xmlns:xlink="http://www.w3.org/1999/xlink" width="249" height="50" viewBox="0 0 249 50" fill="none" xmlns="http://www.w3.org/2000/svg" id="svg-1503835155_6278">
<path d="M74.2559 37.5024V10.9024H91.4319V14.8164H79.1199V22.2644H89.0759V26.1024H79.1199V37.5024H74.2559Z" fill="#FFFFFF"></path>
<path d="M97.6936 15.7284C96.8069 15.7284 96.0722 15.4624 95.4896 14.9304C94.9322 14.3984 94.6536 13.7271 94.6536 12.9164C94.6536 12.1058 94.9322 11.4471 95.4896 10.9404C96.0722 10.4084 96.8069 10.1424 97.6936 10.1424C98.5802 10.1424 99.3022 10.4084 99.8596 10.9404C100.442 11.4471 100.734 12.1058 100.734 12.9164C100.734 13.7271 100.442 14.3984 99.8596 14.9304C99.3022 15.4624 98.5802 15.7284 97.6936 15.7284ZM95.2616 37.5024V18.6544H100.126V37.5024H95.2616Z" fill="#FFFFFF"></path>
<path d="M105.202 37.5024V18.6544H109.496L109.876 21.8464C110.459 20.7318 111.295 19.8451 112.384 19.1864C113.499 18.5278 114.804 18.1984 116.298 18.1984C118.629 18.1984 120.44 18.9331 121.732 20.4024C123.024 21.8718 123.67 24.0251 123.67 26.8624V37.5024H118.806V27.3184C118.806 25.6971 118.477 24.4558 117.818 23.5944C117.16 22.7331 116.134 22.3024 114.74 22.3024C113.372 22.3024 112.245 22.7838 111.358 23.7464C110.497 24.7091 110.066 26.0518 110.066 27.7744V37.5024H105.202Z" fill="#FFFFFF"></path>
<path d="M134.82 37.9584C133.198 37.9584 131.868 37.7051 130.83 37.1984C129.791 36.6664 129.018 35.9698 128.512 35.1084C128.005 34.2471 127.752 33.2971 127.752 32.2584C127.752 30.5104 128.436 29.0918 129.804 28.0024C131.172 26.9131 133.224 26.3684 135.96 26.3684H140.748V25.9124C140.748 24.6204 140.38 23.6704 139.646 23.0624C138.911 22.4544 137.999 22.1504 136.91 22.1504C135.922 22.1504 135.06 22.3911 134.326 22.8724C133.591 23.3284 133.135 24.0124 132.958 24.9244H128.208C128.334 23.5564 128.79 22.3658 129.576 21.3524C130.386 20.3391 131.425 19.5664 132.692 19.0344C133.958 18.4771 135.377 18.1984 136.948 18.1984C139.633 18.1984 141.748 18.8698 143.294 20.2124C144.839 21.5551 145.612 23.4551 145.612 25.9124V37.5024H141.47L141.014 34.4624C140.456 35.4758 139.671 36.3118 138.658 36.9704C137.67 37.6291 136.39 37.9584 134.82 37.9584ZM135.922 34.1584C137.315 34.1584 138.392 33.7024 139.152 32.7904C139.937 31.8784 140.431 30.7511 140.634 29.4084H136.492C135.2 29.4084 134.275 29.6491 133.718 30.1304C133.16 30.5864 132.882 31.1564 132.882 31.8404C132.882 32.5751 133.16 33.1451 133.718 33.5504C134.275 33.9558 135.01 34.1584 135.922 34.1584Z" fill="#FFFFFF"></path>
<path d="M150.253 37.5024V18.6544H154.547L154.927 21.8464C155.51 20.7318 156.346 19.8451 157.435 19.1864C158.55 18.5278 159.855 18.1984 161.349 18.1984C163.68 18.1984 165.491 18.9331 166.783 20.4024C168.075 21.8718 168.721 24.0251 168.721 26.8624V37.5024H163.857V27.3184C163.857 25.6971 163.528 24.4558 162.869 23.5944C162.211 22.7331 161.185 22.3024 159.791 22.3024C158.423 22.3024 157.296 22.7838 156.409 23.7464C155.548 24.7091 155.117 26.0518 155.117 27.7744V37.5024H150.253Z" fill="#FFFFFF"></path>
<path d="M182.606 37.9584C180.681 37.9584 178.984 37.5404 177.514 36.7044C176.045 35.8684 174.88 34.7031 174.018 33.2084C173.182 31.7138 172.764 30.0038 172.764 28.0784C172.764 26.1531 173.182 24.4431 174.018 22.9484C174.88 21.4538 176.045 20.2884 177.514 19.4524C178.984 18.6164 180.681 18.1984 182.606 18.1984C185.013 18.1984 187.04 18.8318 188.686 20.0984C190.333 21.3398 191.384 23.0624 191.84 25.2664H186.71C186.457 24.3544 185.95 23.6451 185.19 23.1384C184.456 22.6064 183.582 22.3404 182.568 22.3404C181.226 22.3404 180.086 22.8471 179.148 23.8604C178.211 24.8738 177.742 26.2798 177.742 28.0784C177.742 29.8771 178.211 31.2831 179.148 32.2964C180.086 33.3098 181.226 33.8164 182.568 33.8164C183.582 33.8164 184.456 33.5631 185.19 33.0564C185.95 32.5498 186.457 31.8278 186.71 30.8904H191.84C191.384 33.0184 190.333 34.7284 188.686 36.0204C187.04 37.3124 185.013 37.9584 182.606 37.9584Z" fill="#FFFFFF"></path>
<path d="M205.316 37.9584C203.416 37.9584 201.731 37.5531 200.262 36.7424C198.792 35.9318 197.639 34.7918 196.803 33.3224C195.967 31.8531 195.549 30.1558 195.549 28.2304C195.549 26.2798 195.955 24.5444 196.766 23.0244C197.602 21.5044 198.742 20.3264 200.186 19.4904C201.655 18.6291 203.378 18.1984 205.354 18.1984C207.203 18.1984 208.837 18.6038 210.255 19.4144C211.674 20.2251 212.776 21.3398 213.561 22.7584C214.372 24.1518 214.777 25.7098 214.777 27.4324C214.777 27.7111 214.765 28.0024 214.74 28.3064C214.74 28.6104 214.727 28.9271 214.702 29.2564H200.376C200.477 30.7258 200.984 31.8784 201.896 32.7144C202.833 33.5504 203.96 33.9684 205.277 33.9684C206.265 33.9684 207.089 33.7531 207.747 33.3224C208.431 32.8664 208.938 32.2838 209.268 31.5744H214.208C213.853 32.7651 213.258 33.8544 212.422 34.8424C211.611 35.8051 210.598 36.5651 209.382 37.1224C208.191 37.6798 206.836 37.9584 205.316 37.9584ZM205.354 22.1504C204.163 22.1504 203.111 22.4924 202.199 23.1764C201.287 23.8351 200.705 24.8484 200.452 26.2164H209.837C209.761 24.9751 209.305 23.9871 208.469 23.2524C207.633 22.5178 206.595 22.1504 205.354 22.1504Z" fill="#FFFFFF"></path>
<path d="M218.868 37.5024V10.1424H223.732V37.5024H218.868Z" fill="#FFFFFF"></path>
<path d="M231.058 45.8624L235.428 36.2484H234.288L226.954 18.6544H232.236L237.518 31.9164L243.028 18.6544H248.196L236.226 45.8624H231.058Z" fill="#FFFFFF"></path>
<path d="M3.32812 15.1645C3.32812 8.53713 8.70071 3.16455 15.3281 3.16455H41.6724C48.2998 3.16455 53.6724 8.53713 53.6724 15.1645V34.8362C53.6724 41.4636 48.2998 46.8362 41.6724 46.8362H15.3281C8.70072 46.8362 3.32812 41.4636 3.32812 34.8362V15.1645Z" fill="#FFFFFF"></path>
<path fill-rule="evenodd" clip-rule="evenodd" d="M0.828125 15.1645C0.828125 7.15642 7.32 0.664551 15.3281 0.664551H41.6724C49.6805 0.664551 56.1724 7.15642 56.1724 15.1645V34.8362C56.1724 42.8443 49.6806 49.3362 41.6724 49.3362H15.3281C7.32002 49.3362 0.828125 42.8443 0.828125 34.8362V15.1645ZM15.3281 5.66455C10.0814 5.66455 5.82812 9.91785 5.82812 15.1645V34.8362C5.82812 40.0829 10.0814 44.3362 15.3281 44.3362H41.6724C46.9191 44.3362 51.1724 40.0829 51.1724 34.8362V15.1645C51.1724 9.91785 46.9191 5.66455 41.6724 5.66455H15.3281Z" fill="#FFFFFF"></path>
<path d="M56.1685 17H35.9189C31.5007 17 27.9189 20.5817 27.9189 25C27.9189 29.4183 31.5007 33 35.9189 33H56.1685V17Z" fill="#FFFFFF"></path>
<path d="M39.6504 25C39.6504 27.2091 37.8595 29 35.6504 29C33.4413 29 31.6504 27.2091 31.6504 25C31.6504 22.7909 33.4413 21 35.6504 21C37.8595 21 39.6504 22.7909 39.6504 25Z" fill="#FFFFFF"></path>
</svg>