<svg xmlns:xlink="http://www.w3.org/1999/xlink" width="36" height="32" viewBox="0 0 36 32" fill="none" xmlns="http://www.w3.org/2000/svg" id="svg-1740027979_919">
<path d="M19.7743 2.42758C19.7743 0.606248 21.9702 -0.291406 23.2273 1.01605L34.8105 13.0633C35.5734 13.8567 36 14.9186 36 16.0238V29.9684C36 31.7897 33.8041 32.6874 32.547 31.3799L20.9638 19.3327C20.2009 18.5393 19.7743 17.4774 19.7743 16.3722V2.42758Z" fill="#FFFFFF"></path>
<path d="M9.71873 2.03158C9.71873 0.210251 11.9147 -0.687403 13.1717 0.62005L24.584 12.4895C25.4565 13.397 25.9444 14.6114 25.9444 15.8755V29.5724C25.9444 31.3938 23.7485 32.2914 22.4914 30.984L10.9082 18.9367C10.1454 18.1433 9.71873 17.0814 9.71873 15.9762V2.03158Z" fill="#FFFFFF"></path>
<path d="M0 2.42758C0 0.606248 2.19593 -0.291406 3.45302 1.01605L15.0362 13.0633C15.7991 13.8567 16.2257 14.9186 16.2257 16.0238V29.9684C16.2257 31.7897 14.0298 32.6874 12.7727 31.3799L1.18948 19.3327C0.426628 18.5393 0 17.4774 0 16.3722V2.42758Z" fill="#FFFFFF"></path>
</svg>