<svg xmlns="http://www.w3.org/2000/svg" viewBox="0 0 69 69"><path fill="#1c7df8" d="m42.931 27.18-.01-.01v-.03a7.815 7.815 0 0 0-7.4-5.33c-1.13 0-2.21.23-3.21.69v3.05h1.72c.39-.91 1.29-1.55 2.34-1.55 1.41 0 2.56 1.15 2.56 2.55s-1.15 2.55-2.56 2.55c-1.05 0-1.95-.64-2.34-1.55h-2.72c-.55 0-1-.45-1-1v-3.6c-.18-.03-.36-.04-.55-.04-2 0-3.75 1.42-4.19 3.34a4.32 4.32 0 0 0-2.48 3.9v.13h2.83c.39-.91 1.29-1.55 2.34-1.55 1.41 0 2.56 1.14 2.56 2.55 0 1.4-1.15 2.55-2.56 2.55-1.05 0-1.95-.64-2.34-1.55h-2.26c.4.71 1 1.3 1.75 1.69.05.02.1.05.15.07a4.286 4.286 0 0 0 3.76 2.23c.06 0 .12 0 .18-.01.12-.01.24-.01.36-.03.22.22.47.4.74.55.99.6 2.22.78 3.34.47.61.48 1.38.71 2.16.67.19.75.74 1.7 2.01 2.06 1.38.41 1.65 1.42 1.66 1.46.117.641 1.193.51 1.67.12.23-.19.5-.53.52-1.16.02-.56-.17-1.11-.55-1.63 1.107-.514 1.431-1.32 1.67-1.72.42-.24.79-.56 1.08-.94.26-.34.46-.73.58-1.14h-3.17c-.4.9-1.3 1.54-2.35 1.54-1.4 0-2.56-1.14-2.56-2.54 0-1.41 1.16-2.55 2.56-2.55 1.05 0 1.95.64 2.35 1.55h3.17c-.01-.07-.04-.13-.06-.2.65-.61 1.03-1.47 1.03-2.37 0-.83-.32-1.59-.84-2.16-.5-.56-1.18-.94-1.94-1.06z" class="color000000 svgShape"/><path fill="#1c7df8" d="m11.561 27.83-1.13-1.73a.998.998 0 0 0-.84-.46H7.5a2.681 2.681 0 0 0-5.17 1.003 2.68 2.68 0 0 0 5.172.997h1.549l1.13 1.74c.19.28.5.45.84.45h2.08v3.84h-3.72c-.21 0-.4.06-.57.17l-1.93 1.34a2.684 2.684 0 1 0-1.483 4.919c1.688 0 3-1.56 2.614-3.273l.009-.007 1.67-1.15h3.41v6.98l-3.75 2.41H7.894a2.68 2.68 0 0 0-5.18.97 2.684 2.684 0 0 0 5.16 1.03h1.767c.19 0 .38-.05.54-.16l2.92-1.88v14.11c0 3.498 2.593 6.89 6.55 7.32.05.01.1.02.15.01.27.037 37.427.044 42.42.04a4.04 4.04 0 0 0 4.03-4.04v-8.57c0-2.22-1.81-4.04-4.03-4.04h-6.33v-4.71l2.73 1.76c.17.11.35.16.55.16h2.338a2.683 2.683 0 1 0 2.477-3.714 2.68 2.68 0 0 0-2.497 1.715h-2.028l-3.57-2.29v-7.1h3.23l2.19 1.51.013.009a2.662 2.662 0 0 0 2.662 2.91 2.684 2.684 0 0 0 0-5.368 2.66 2.66 0 0 0-1.745.66v-.001l-2.24-1.55c-.17-.11-.37-.17-.57-.17h-3.54v-3.84h1.9c.33 0 .65-.17.83-.45l1.14-1.74h1.354a2.68 2.68 0 0 0 5.172-.997 2.681 2.681 0 0 0-5.17-1.003H59.22c-.34 0-.66.17-.84.46l-1.14 1.73h-1.35v-7.01l2.06-1.51h3.165a2.681 2.681 0 0 0 5.17-1 2.68 2.68 0 0 0-5.17-1H57.62c-.21 0-.42.07-.59.19l-1.14.84V9.86c0-4.06-3.31-7.36-7.37-7.36h-28.05c-4.06 0-7.37 3.3-7.37 7.36v8.61c-1.217-.83-1.384-1.16-1.92-1.16h-3.68a2.68 2.68 0 0 0-5.17 1 2.681 2.681 0 0 0 5.17 1h3.36l2.24 1.64v6.88h-1.54zm22.93 35.7c-1.07 0-1.93-.86-1.93-1.94 0-1.07.86-1.94 1.93-1.94 1.08 0 1.95.87 1.95 1.94 0 1.08-.87 1.94-1.95 1.94zm27.73-11.68c1.12 0 2.03.92 2.03 2.04v8.57c0 1.12-.91 2.04-2.03 2.04-13.353 0-13.488.015-13.59-.01a2.045 2.045 0 0 1-1.92-2.03v-8.57c0-1.12.92-2.04 2.04-2.04h13.47zm-8.33-22.02v3.84h-3.53v-3.84h3.53zm-3.53-2v-5.02h2.49c.484 0 .742-.334 1.04-.52v5.54h-3.53zm3.53 7.84v5.81c-.12-.063-.326-.26-.7-.26h-2.83v-5.55h3.53zM34.761 5.15h3.47c.55 0 1 .45 1 1s-.45 1-1 1h-3.47c-.55 0-1-.45-1-1s.45-1 1-1zm-5.32.29c.446-.4 1.05-.37 1.42 0 .254.253.372.637.22 1.09-.434.868-1.616.7-1.85 0-.147-.295-.1-.762.21-1.09zM15.1 9.86c0-2.96 2.41-5.36 5.37-5.36h3.84l1.54 3.5a3.415 3.415 0 0 0 3.11 2.02h11.08c1.34 0 2.56-.8 3.1-2.02l1.55-3.5h3.83c2.96 0 5.37 2.4 5.37 5.36v9.94l-1.37 1.01h-2.21a4.81 4.81 0 0 0-4.76-4.15h-22.29a4.82 4.82 0 0 0-4.77 4.15h-2.2l-1.19-.87V9.86zm33.26 11.61v20.75c0 1.55-1.26 2.81-2.81 2.81h-22.29a2.82 2.82 0 0 1-2.82-2.81V21.47a2.82 2.82 0 0 1 2.82-2.81h22.29c1.55 0 2.81 1.26 2.81 2.81zm-33.26.95c.129.077.406.39.86.39h2.48v5.02H15.1v-5.41zm0 7.41h3.34v3.84H15.1v-3.84zm0 5.84h3.34v5.55h-2.83c-.18 0-.36.04-.51.14v-5.69zm0 8.07.81-.52h2.64a4.817 4.817 0 0 0 4.71 3.81h22.29c2.31 0 4.24-1.64 4.7-3.81h2.65l.99.64v5.99h-5.14c-2.23 0-4.04 1.82-4.04 4.04v2.8H15.1V43.74z" class="color000000 svgShape"/><path fill="#1c7df8" d="m53.261 54.46-.94 2.23-2.12 5c-.124.27-.083.576.12.78.322.336.929.26 1.15-.22l.74-1.78h3.88l.75 1.78c.137.297.403.43.65.43.438 0 .836-.395.62-.99l-2.22-5.23-.85-2c-.368-.826-1.451-.752-1.78 0zm.89 1.35 1.4 3.36h-2.79l1.39-3.36zm5.19 1.03v5.15c0 .372.29.69.69.69.383 0 .7-.288.7-.69v-5.15c0-.932-1.39-.93-1.39 0zm1.5-2.35v-.05c0-.507-.397-.76-.795-.761s-.795.253-.795.76v.05c0 .525.428.78.84.76.382-.017.75-.27.75-.76z" class="color000000 svgShape"/></svg>