<svg xmlns="http://www.w3.org/2000/svg" viewBox="0 0 32 32"><path fill="#1c7df8" d="M23 12H9a1 1 0 0 1-1-1c0-4.411 3.589-8 8-8s8 3.589 8 8a1 1 0 0 1-1 1zm-12.916-2h11.833c-.478-2.834-2.95-5-5.917-5s-5.439 2.166-5.916 5z" class="color000000 svgShape"/><path fill="#1c7df8" d="M20.031 5.969a1 1 0 0 1-.707-1.707l1.938-1.938a1 1 0 1 1 1.414 1.414l-1.938 1.938a.997.997 0 0 1-.707.293zm-8.062 0a.997.997 0 0 1-.707-.293L9.324 3.738a1 1 0 1 1 1.414-1.414l1.938 1.938a1 1 0 0 1-.707 1.707zM14.029 9c-.551 0-1.004-.448-1.004-1s.443-1 .995-1h.01a1 1 0 1 1 0 2zm4 0c-.551 0-1.004-.448-1.004-1s.443-1 .995-1h.01a1 1 0 1 1 0 2zm.092 15.525a.997.997 0 0 1-.707-.293l-4.242-4.242a1 1 0 1 1 1.414-1.414l4.242 4.242a1 1 0 0 1-.707 1.707z" class="color000000 svgShape"/><path fill="#1c7df8" d="M12.818 20.72c-.64 0-1.28-.243-1.768-.73l-.354-.355a1 1 0 1 1 1.415-1.413l.354.354a.5.5 0 0 0 .706-.708l-.353-.353a1 1 0 0 1 1.414-1.415l.354.353c.974.976.974 2.561 0 3.537a2.496 2.496 0 0 1-1.768.73zM18.475 27a.997.997 0 0 1-.706-.292l-.354-.354a2.505 2.505 0 0 1-.001-3.536 2.506 2.506 0 0 1 3.536 0l.354.354a1 1 0 1 1-1.415 1.413l-.354-.354a.5.5 0 0 0-.706.709l.353.353A1 1 0 0 1 18.475 27zm-6.071 0a2.002 2.002 0 0 1-1.414-3.414l1.414-1.414a1 1 0 0 1 1.414 0l1.414 1.414a1 1 0 0 1 0 1.414l-1.414 1.414c-.378.378-.88.586-1.414.586zm0-2v1-1zm5.364-4.364a1 1 0 0 1-.707-1.707l2.828-2.829a1 1 0 1 1 1.414 1.415l-2.828 2.828a.997.997 0 0 1-.707.293z" class="color000000 svgShape"/><path fill="#1c7df8" d="M12.842 25.562a1 1 0 0 1-.707-1.707l1.365-1.366a1 1 0 1 1 1.415 1.414l-1.366 1.366a.997.997 0 0 1-.707.293z" class="color000000 svgShape"/><path fill="#1c7df8" d="M29 30H3a1 1 0 0 1-1-1V14a1 1 0 0 1 1-1h26a1 1 0 0 1 1 1v15a1 1 0 0 1-1 1zM4 28h24V15H4v13z" class="color000000 svgShape"/><path fill="#1c7df8" d="M29 15H3a1 1 0 0 1-.848-1.53l5-8a1 1 0 1 1 1.696 1.06L4.804 13h22.392l-4.044-6.47a1 1 0 1 1 1.696-1.06l5 8A1 1 0 0 1 29 15z" class="color000000 svgShape"/></svg>