<svg xmlns="http://www.w3.org/2000/svg" viewBox="0 0 48 48"><path fill="#1c7df8" d="M37.4 13.7h10L34.3.6v10c0 1.7 1.4 3.1 3.1 3.1z" class="color000000 svgShape"/><path fill="#1c7df8" d="M37.4 15.7c-2.8 0-5.1-2.3-5.1-5.1V0H14.1C11.3 0 9 2.3 9 5.1v.1h14.2c1.9 0 3.5 1.6 3.5 3.5v9.4c0 2-1.6 3.5-3.5 3.5H9v21.2c0 2.8 2.3 5.1 5.1 5.1h28.8c2.8 0 5.1-2.3 5.1-5.1V15.7H37.4zm3.7 24.7H15.9v-2h25.2v2zm0-7.1H15.9v-2h25.2v2zm0-7.2H15.9v-2h25.2v2zM7.1 13c-.2 0-.5.1-.6.3-.2.2-.3.5-.3.8s.1.6.3.7c.2.2.4.3.6.3.2 0 .5-.1.6-.3.2-.1.3-.4.3-.7s-.1-.6-.3-.8c-.1-.2-.3-.3-.6-.3z" class="color000000 svgShape"/><path fill="#1c7df8" d="M11.8 13.1c-.3 0-.5.1-.7.3-.2.2-.3.5-.3.8 0 .3.1.6.3.8.2.2.4.3.7.3.3 0 .5-.1.7-.3.2-.2.3-.4.3-.8 0-.3-.1-.6-.3-.8-.2-.2-.4-.3-.7-.3z" class="color000000 svgShape"/><path fill="#1c7df8" d="M23.3 7.2H1.5C.7 7.2 0 7.9 0 8.7v9.4c0 .8.7 1.5 1.5 1.5h21.7c.8 0 1.5-.7 1.5-1.5V8.7c.1-.8-.6-1.5-1.4-1.5zm-19 8.7c-.1.1-.3.2-.4.2s-.4-.1-.5-.2-.2-.3-.2-.4.1-.3.2-.4c.1-.1.3-.2.4-.2s.3.1.4.2c.1.1.2.3.2.4s0 .3-.1.4zm4.8.1H8v-.5c-.3.4-.7.6-1.1.6s-.9-.2-1.2-.6c-.4-.4-.5-.9-.5-1.4s.2-1 .5-1.4c.3-.4.7-.5 1.2-.5s.8.2 1.1.5v-1.9h1.1V16zm4.2-.5c-.4.4-.9.6-1.4.6-.6 0-1.1-.2-1.4-.6-.4-.4-.6-.8-.6-1.4 0-.5.2-1 .6-1.4.4-.4.9-.6 1.4-.6.6 0 1.1.2 1.4.6.4.4.6.8.6 1.4-.1.6-.2 1-.6 1.4zm3.1.6c-.6 0-1-.2-1.4-.5-.4-.4-.6-.8-.6-1.4s.2-1.1.6-1.4.9-.5 1.4-.5c.3 0 .5.1.8.2.3.1.5.3.7.5l-.5.7c-.1-.1-.3-.3-.4-.3s-.4-.1-.5-.1c-.3 0-.5.1-.7.3-.2.2-.3.4-.3.8 0 .3.1.6.3.7.2.2.4.3.7.3.4 0 .7-.2.9-.5l.6.7c-.5.2-1 .5-1.6.5zm4.8-.4c-.3.2-.6.3-1 .3-.3 0-.6-.1-.9-.2-.3-.1-.6-.3-.8-.4l.5-.7c.4.3.8.5 1.3.5.1 0 .2 0 .3-.1.1-.1.1-.1.1-.2s-.1-.2-.2-.2c-.1-.1-.3-.1-.5-.2s-.4-.1-.5-.2c-.1 0-.2-.1-.4-.2-.3-.2-.4-.4-.4-.8 0-.3.1-.6.4-.9s.6-.3 1.1-.3.9.1 1.3.5l-.4.7c-.3-.2-.7-.3-1-.3-.3 0-.5.1-.5.3 0 .1.1.2.2.2.1.1.3.1.5.2s.4.1.5.2c.1 0 .2.1.4.2.3.2.4.4.4.8 0 .3-.2.6-.4.8z" class="color000000 svgShape"/></svg>