<svg xmlns="http://www.w3.org/2000/svg" enable-background="new 0 0 256 256" viewBox="0 0 256 256"><path fill="#5fa6ff" d="M217.806,207.365H29.797c-2.941,0-5.326-2.384-5.326-5.326V171.06c0-2.941,2.384-5.326,5.326-5.326
					h188.009c2.941,0,5.326,2.384,5.326,5.326v30.979C223.132,204.98,220.748,207.365,217.806,207.365z" class="color5fcdff svgShape"/><path fill="#73aef9" d="M42.631,207.365H29.799c-2.943,0-5.329-2.387-5.329-5.329V171.06c0-2.943,2.387-5.329,5.329-5.329
					h12.831c-2.943,0-5.329,2.386-5.329,5.329v30.975C37.301,204.978,39.688,207.365,42.631,207.365z" class="color73d7f9 svgShape"/><path fill="#308bff" d="M223.133,171.06v30.975c0,2.943-2.387,5.329-5.329,5.329h-12.831c2.943,0,5.329-2.387,5.329-5.329
					V171.06c0-2.943-2.387-5.329-5.329-5.329h12.831C220.747,165.731,223.133,168.118,223.133,171.06z" class="color30b6ff svgShape"/><path fill="#5fa6ff" d="M217.806,248.998H29.797c-2.941,0-5.326-2.384-5.326-5.326v-30.979c0-2.941,2.384-5.326,5.326-5.326
					h188.009c2.941,0,5.326,2.384,5.326,5.326v30.979C223.132,246.613,220.748,248.998,217.806,248.998z" class="color5fcdff svgShape"/><path fill="#73aef9" d="M42.631,248.998H29.799c-2.943,0-5.329-2.387-5.329-5.329v-30.975c0-2.943,2.387-5.329,5.329-5.329
					h12.831c-2.943,0-5.329,2.386-5.329,5.329v30.975C37.301,246.611,39.688,248.998,42.631,248.998z" class="color73d7f9 svgShape"/><path fill="#308bff" d="M223.133,212.694v30.975c0,2.943-2.387,5.329-5.329,5.329h-12.831c2.943,0,5.329-2.387,5.329-5.329
					v-30.975c0-2.943-2.387-5.329-5.329-5.329h12.831C220.747,207.365,223.133,209.751,223.133,212.694z" class="color30b6ff svgShape"/><path fill="#3187f3" d="M52.67,7.002c-24.412,0-44.202,6.243-44.202,13.944v20.108v52.376v9.871
					c0,7.701,19.79,13.943,44.202,13.943c24.412,0,44.202-6.243,44.202-13.943v-7.074V43.851V20.946
					C96.871,13.245,77.081,7.002,52.67,7.002z" class="color3193f3 svgShape"/><path fill="#1c7df8" d="M96.869,20.945v82.356c0,7.699-19.79,13.946-44.199,13.946c-1.476,0-2.934-0.023-4.374-0.064
					c22.356-0.694,39.825-6.649,39.825-13.882V20.945c0-7.232-17.469-13.182-39.825-13.876c1.441-0.041,2.899-0.064,4.374-0.064
					C77.079,7.005,96.869,13.246,96.869,20.945z" class="color307fed svgShape"/><path fill="#358dfc" d="M58.58,117.118c-1.931,0.087-3.909,0.126-5.91,0.126c-24.412,0-44.199-6.241-44.199-13.94V20.943
					c0-7.699,19.787-13.94,44.199-13.94c2.002,0,3.979,0.039,5.91,0.126C36.957,8.035,20.29,13.874,20.29,20.943v82.361
					C20.29,110.372,36.957,116.211,58.58,117.118z" class="color35b1fc svgShape"/><g class="color000000 svgShape"><path fill="#3187f3" d="M245.468,133.762L245.468,133.762c-2.759,2.759-7.233,2.759-9.993,0l-37.049-37.049l9.993-9.993
						l37.049,37.049C248.228,126.528,248.228,131.002,245.468,133.762z" class="color3193f3 svgShape"/><circle cx="175.727" cy="64.02" r="56.505" fill="#5fa6ff" class="color5fcdff svgShape"/><circle cx="175.726" cy="64.02" r="42.966" fill="#e2efff" class="colorffe2e2 svgShape" transform="rotate(-67.5 175.723 64.018)"/><path fill="#eef5ff" d="M209.304,90.826c-0.984,1.237-2.049,2.429-3.196,3.575c-16.752,16.752-44.009,16.752-60.761,0
						c-16.752-16.752-16.752-44.009,0-60.761c1.147-1.147,2.338-2.212,3.575-3.196c-13.475,16.852-12.41,41.58,3.196,57.186
						C167.724,103.236,192.452,104.301,209.304,90.826z" class="colorffefee svgShape"/><path fill="#73aef9" d="M218.924,100.446c-1.02,1.21-2.099,2.388-3.241,3.53c-22.029,22.029-57.881,22.029-79.911,0
						c-22.034-22.034-22.029-57.881,0-79.911c1.142-1.142,2.32-2.221,3.53-3.241c-18.729,22.169-17.651,55.489,3.241,76.38
						C163.431,118.092,196.755,119.175,218.924,100.446z" class="color73d7f9 svgShape"/></g><g class="color000000 svgShape"><path fill="#26456d" d="M180.692 191.263c2.603 0 4.714-2.11 4.714-4.714 0-2.603-2.11-4.714-4.714-4.714-2.603 0-4.714 2.11-4.714 4.714C175.978 189.153 178.089 191.263 180.692 191.263zM202.79 191.263c2.603 0 4.714-2.11 4.714-4.714 0-2.603-2.11-4.714-4.714-4.714-2.603 0-4.714 2.11-4.714 4.714C198.076 189.153 200.187 191.263 202.79 191.263zM180.692 223.469c-2.603 0-4.714 2.11-4.714 4.714s2.11 4.714 4.714 4.714c2.603 0 4.714-2.11 4.714-4.714S183.295 223.469 180.692 223.469zM202.79 223.469c-2.603 0-4.714 2.11-4.714 4.714s2.11 4.714 4.714 4.714c2.603 0 4.714-2.11 4.714-4.714S205.394 223.469 202.79 223.469zM149.911 190.548h7.584c2.209 0 4-1.791 4-4s-1.791-4-4-4h-7.584c-2.209 0-4 1.791-4 4S147.702 190.548 149.911 190.548zM42.911 186.548c0 2.209 1.791 4 4 4h88c2.209 0 4-1.791 4-4s-1.791-4-4-4h-88C44.702 182.548 42.911 184.339 42.911 186.548zM157.495 224.183H46.911c-2.209 0-4 1.791-4 4s1.791 4 4 4h110.584c2.209 0 4-1.791 4-4S159.704 224.183 157.495 224.183zM208.937 30.81c-18.312-18.311-48.108-18.311-66.42 0-18.312 18.312-18.312 48.108 0 66.42 18.33 18.33 48.09 18.329 66.419 0C227.248 78.918 227.249 49.122 208.937 30.81zM203.279 91.573c-15.203 15.204-39.901 15.203-55.106 0-15.192-15.192-15.192-39.913 0-55.105 15.191-15.191 39.912-15.196 55.107 0C218.473 51.66 218.472 76.38 203.279 91.573z" class="color5f266d svgShape"/><path fill="#26456d" d="M248.296,120.938l-22.691-22.69c16.176-23.554,13.822-56.094-7.096-77.011
			c-23.59-23.591-61.977-23.591-85.566,0c-23.591,23.591-23.591,61.976,0,85.567c15.321,15.322,37.361,21.074,57.99,15.751v14.875
			H56.67v-16.244c21.994-0.609,44.201-6.263,44.201-17.885V20.946c0-12.329-24.986-17.944-48.201-17.944
			c-23.216,0-48.202,5.615-48.202,17.944V103.3c0,11.622,22.207,17.276,44.202,17.886v20.244c0,2.209,1.791,4,4,4h67.132v16.304
			H29.797c-5.142,0-9.325,4.184-9.325,9.326v30.979c0,1.981,0.625,3.815,1.682,5.327c-1.057,1.512-1.682,3.347-1.682,5.327v30.979
			c0,5.143,4.184,9.326,9.325,9.326h188.01c5.142,0,9.325-4.184,9.325-9.326v-30.979c0-1.981-0.625-3.815-1.682-5.327
			c1.057-1.512,1.682-3.347,1.682-5.327V171.06c0-5.143-4.184-9.326-9.325-9.326h-90.005V145.43h67.132c2.209,0,4-1.791,4-4v-21.542
			c3.829-1.584,7.522-3.585,11.021-5.989l22.69,22.69c4.314,4.314,11.336,4.315,15.652,0
			C252.611,132.274,252.61,125.253,248.296,120.938z M52.67,11.002c26.112,0,40.201,7.057,40.201,9.943
			c0,2.886-14.088,9.943-40.201,9.943c-26.114,0-40.202-7.058-40.202-9.943C12.468,18.06,26.557,11.002,52.67,11.002z M52.67,38.889
			c15.112,0,30.969-2.382,40.201-7.444v17.052c0,2.886-14.088,9.943-40.201,9.943c-26.114,0-40.202-7.058-40.202-9.943V31.445
			C21.7,36.507,37.557,38.889,52.67,38.889z M12.468,58.996C21.7,64.058,37.557,66.44,52.67,66.44
			c15.112,0,30.969-2.382,40.201-7.444v17.619c0,2.886-14.088,9.944-40.201,9.944c-26.114,0-40.202-7.058-40.202-9.944V58.996z
			 M12.468,103.3V87.115C21.7,92.177,37.557,94.56,52.67,94.56c15.112,0,30.969-2.382,40.201-7.444V103.3
			c0,2.886-14.088,9.943-40.201,9.943C26.556,113.244,12.468,106.186,12.468,103.3z M219.132,243.672
			c0,0.731-0.595,1.326-1.325,1.326H29.797c-0.73,0-1.325-0.595-1.325-1.326v-30.979c0-0.731,0.595-1.326,1.325-1.326h188.01
			c0.73,0,1.325,0.595,1.325,1.326V243.672z M219.132,171.06v30.979c0,0.731-0.595,1.326-1.325,1.326H29.797
			c-0.73,0-1.325-0.595-1.325-1.326V171.06c0-0.731,0.595-1.326,1.325-1.326h188.01C218.537,169.734,219.132,170.329,219.132,171.06
			z M138.6,101.146c-20.472-20.472-20.472-53.781,0-74.253c20.473-20.472,53.781-20.472,74.254,0
			c20.472,20.472,20.472,53.781,0,74.253C192.381,121.618,159.072,121.618,138.6,101.146z M242.64,130.932
			c-1.197,1.195-3.142,1.197-4.339,0l-22.014-22.015c0.754-0.682,1.496-1.386,2.223-2.114s1.431-1.469,2.114-2.224l22.016,22.016
			C243.835,127.791,243.835,129.736,242.64,130.932z" class="color5f266d svgShape"/></g></svg>