<svg width="316" height="315" viewBox="0 0 316 315" fill="none" xmlns="http://www.w3.org/2000/svg">
<path d="M21.5328 176.229C31.7383 176.229 40.0114 167.781 40.0114 157.36C40.0114 146.938 31.7383 138.49 21.5328 138.49C11.3274 138.49 3.0542 146.938 3.0542 157.36C3.0542 167.781 11.3274 176.229 21.5328 176.229Z" fill="white"/>
<path d="M31.3552 161.394L28.32 163.054V163.108C29.1847 163.503 30.1292 163.693 31.0794 163.661C31.7886 163.683 32.4966 163.59 33.1764 163.387V150.942L32.3483 150.888L31.3025 151.885V161.398L31.3552 161.394ZM7.73683 155.199V154.925C7.73683 152.656 7.79157 152.436 10.2198 149.173L10.1651 149.118L8.18032 150.224H6.69313C5.92114 150.224 5.64807 150.279 5.36883 150.611C5.27609 150.727 5.20851 150.86 5.17044 151.003C5.13236 151.146 5.12465 151.295 5.14778 151.441H4.874C4.62355 151.064 4.48933 150.622 4.48801 150.17C4.47153 149.845 4.52176 149.521 4.63559 149.217C4.74942 148.913 4.92445 148.635 5.14982 148.401C5.44075 148.144 5.78326 147.952 6.15444 147.837C6.52562 147.723 6.91693 147.689 7.30223 147.738L9.45466 147.904L10.9446 147.738L11.1656 147.849V159.907C11.1656 161.348 11.1102 161.787 8.01743 164.775L8.07286 164.886L10.8323 164.055H12.5433V147.622H13.3714V155.2H16.4622V149.725L20.3824 147.568L20.6034 147.679L20.1627 150.942V163.001L22.0386 164.383V164.604L19.1689 166.484H18.9458L16.5176 164.162V157.579H13.4234V164.991L11.1061 166.54H5.6994L5.5892 166.319C7.6855 163.718 7.85249 162.945 7.85249 161.451V157.635H4.3751L4.31964 157.413L5.865 155.256H7.74025L7.73683 155.199ZM25.3942 157.799C25.3644 158.61 25.4954 159.418 25.7795 160.177C26.0637 160.937 26.4954 161.632 27.0497 162.224C27.2235 162.422 27.4285 162.59 27.6568 162.722H27.7122L28.374 161.891V152.378L31.2437 150.83V150.775C30.185 150.593 29.1155 150.482 28.0421 150.443C25.9458 150.443 25.1177 150.83 24.5106 151.44C24.129 151.85 23.8959 152.376 23.8488 152.933H23.4074C23.202 152.403 23.0899 151.842 23.0761 151.274C23.0628 150.813 23.1442 150.354 23.3152 149.926C23.4863 149.498 23.7433 149.109 24.0706 148.785C24.898 147.955 26.223 147.457 28.3172 147.457C29.8626 147.457 32.4003 147.954 34.552 147.954C36.042 147.954 36.4834 147.733 37.1452 146.791L37.419 146.846C36.9221 150.055 35.708 150.938 34.0538 150.938H33.8882V163.052C35.1944 162.574 36.2763 161.628 36.9235 160.397L37.1972 160.451C37.15 161.932 36.5377 163.338 35.4862 164.381C34.7419 165.082 33.8663 165.628 32.9098 165.989C31.9533 166.35 30.9349 166.518 29.9132 166.483C28.9301 166.54 27.9458 166.392 27.0231 166.048C26.1003 165.704 25.2593 165.172 24.5534 164.485C23.8476 163.798 23.2924 162.972 22.9232 162.059C22.5539 161.146 22.3788 160.166 22.4088 159.182C22.4001 158.322 22.5614 157.469 22.8833 156.672C23.2052 155.874 23.6815 155.148 24.2848 154.536C25.0778 153.728 26.0385 153.105 27.099 152.71L27.2639 152.931C26.0743 154.276 25.4082 156.004 25.3873 157.799M41.8306 157.19C41.8647 154.55 41.3752 151.93 40.3901 149.48C39.4051 147.031 37.9442 144.801 36.0919 142.919C32.1496 139.122 26.8887 137 21.4148 137C15.9408 137 10.68 139.122 6.73762 142.919C3.05578 146.758 1 151.87 1 157.189C1 162.508 3.05578 167.62 6.73762 171.459C10.6804 175.256 15.9413 177.377 21.4151 177.377C26.8889 177.377 32.1498 175.256 36.0926 171.459C39.8123 167.644 41.8749 162.515 41.8312 157.188" fill="#00B1CD"/>
<path d="M56.9115 172.17L56.3092 172.628C55.3847 171.994 54.2815 171.672 53.161 171.71C51.8968 171.712 50.6497 172.003 49.5159 172.562V172.528C50.7889 171.699 52.2799 171.268 53.7989 171.29C54.9071 171.229 56.004 171.541 56.9142 172.176M301.032 171.645C301.068 171.411 301.166 171.19 301.316 171.008C301.715 170.878 302.134 170.818 302.553 170.83C304.318 170.748 306.045 171.358 307.367 172.53L306.801 172.884C305.597 171.715 303.653 171.397 302.34 171.397C301.892 171.394 301.446 171.478 301.03 171.645M147.288 171.645C147.323 171.411 147.421 171.19 147.571 171.008C147.971 170.878 148.389 170.819 148.809 170.831C150.483 170.787 152.108 171.397 153.34 172.531L152.774 172.885C151.602 171.911 150.123 171.384 148.6 171.398C148.151 171.398 147.707 171.482 147.289 171.645M88.1705 169.309C89.1943 170.435 90.3605 171.423 91.6397 172.248L90.9313 172.706C89.6749 171.879 88.5323 170.891 87.5326 169.767L88.1705 169.309ZM256.955 169.309C257.979 170.435 259.145 171.423 260.424 172.248L259.716 172.706C258.459 171.879 257.317 170.891 256.317 169.767L256.955 169.309ZM195.535 169.309C196.559 170.435 197.725 171.423 199.005 172.248L198.296 172.706C197.04 171.879 195.897 170.891 194.897 169.767L195.535 169.309ZM246.405 169.097C247.483 170.351 248.763 171.416 250.193 172.248L249.487 172.707C248.096 171.851 246.843 170.789 245.77 169.559L246.405 169.097ZM77.5822 169.097C78.6683 170.343 79.9473 171.407 81.3703 172.248L80.662 172.707C79.2715 171.851 78.0184 170.789 76.945 169.559L77.5822 169.097ZM165.091 168.638C166.581 170.09 168.246 171.351 170.048 172.391L169.339 172.887C167.557 171.837 165.915 170.564 164.454 169.098L165.091 168.638ZM179.532 172.71C178.241 171.943 177.111 170.933 176.205 169.736V166.263C176.219 165.222 176.172 164.182 176.063 163.147L176.807 162.864C176.841 163.716 176.913 164.811 176.913 165.909V169.482C177.827 170.606 178.959 171.534 180.241 172.209L179.532 172.71ZM310.582 169.843V163.718L308.493 162.8L308.917 162.342L311.29 163.368V170.401L311.184 170.435L310.582 169.843ZM156.556 169.843V163.718L154.468 162.8L154.892 162.342L157.265 163.368V170.401L157.159 170.435L156.556 169.843ZM181.372 164.036C181.325 163.015 181.408 161.991 181.62 160.991C182.65 161.274 183.703 161.463 184.768 161.557V168.984C184.202 169.232 183.599 169.443 183.104 169.693C182.481 169.334 181.91 168.893 181.405 168.382V164.028L181.372 164.036ZM60.9084 157.483H66.0057V158.084H60.9084V157.483ZM47.3854 158.262L48.0226 157.483H51.9496V158.084H50.2503C49.2914 158.062 48.3322 158.121 47.3834 158.261M112.661 172.248L111.952 172.706C110.547 171.853 109.321 170.735 108.342 169.414V159.285C108.342 156.877 108.308 155.85 108.236 155L109.015 154.682V169.165C110.003 170.434 111.245 171.482 112.66 172.245M176.593 157.338C177.831 156.486 179 155.569 180.169 154.612C181.556 155.564 183.121 156.226 184.77 156.559V160.772C181.125 160.454 178.505 159.285 176.593 157.337M291.044 154.607L291.15 154.573C292.11 156.59 293.26 158.511 294.585 160.31L291.046 162.221L291.044 154.607ZM306.868 163.99L306.409 164.486L301.737 162.29V157.015C301.735 156.199 301.687 155.384 301.595 154.573L302.447 154.325V161.938L306.868 163.99ZM152.842 163.99L152.384 164.486L147.711 162.29V157.015C147.709 156.199 147.662 155.384 147.57 154.573L148.422 154.325V161.938L152.842 163.99ZM241.236 169.234C240.056 170.475 238.633 171.459 237.054 172.124C235.476 172.788 233.777 173.118 232.065 173.093C228.027 173.093 224.844 171.782 222.471 169.482C221.394 168.406 220.544 167.125 219.972 165.714C219.401 164.303 219.119 162.791 219.143 161.269C219.149 159.943 219.428 158.632 219.964 157.419C220.5 156.206 221.282 155.117 222.259 154.22L222.293 154.254C220.672 156.102 219.802 158.489 219.852 160.946C219.841 162.446 220.13 163.933 220.702 165.319C221.275 166.705 222.119 167.962 223.185 169.017C225.38 171.213 228.427 172.417 232.318 172.417C235.588 172.527 238.778 171.387 241.238 169.23L241.236 169.234ZM165.022 154.467H163.784L164.139 153.83H165.024L165.022 154.467ZM174.758 153.865L174.192 154.609C173.089 154.468 171.976 154.421 170.865 154.468V153.831H174.688L174.758 153.865ZM291.507 172.81C289.432 171.028 287.524 169.06 285.807 166.932V157.973C285.807 156.203 285.701 154.645 285.629 154.041L286.373 153.864C286.49 155.017 286.537 156.176 286.515 157.334V166.646C288.23 168.722 290.125 170.641 292.179 172.382L291.507 172.81ZM188.741 172.244L188.032 172.702C186.932 171.79 185.977 170.715 185.2 169.516V156.238C183.502 155.9 181.888 155.226 180.455 154.254L180.951 153.758C182.444 154.753 184.115 155.45 185.872 155.811V169.231C186.703 170.346 187.666 171.357 188.739 172.242M101.761 172.242L101.053 172.701C99.9566 171.927 98.9581 171.023 98.0791 170.01V155.458C97.6246 154.8 97.0477 154.235 96.3798 153.794L97.0169 153.511C97.7094 153.988 98.309 154.588 98.7861 155.281V169.764C99.6728 170.708 100.671 171.541 101.76 172.243M209.092 172.243L208.384 172.701C207.288 171.928 206.289 171.024 205.41 170.01V155.458C204.956 154.8 204.379 154.235 203.712 153.794L204.349 153.511C205.041 153.988 205.641 154.588 206.118 155.281V169.764C207.013 170.7 208.01 171.531 209.092 172.243M270.547 172.243L269.838 172.701C268.742 171.928 267.744 171.024 266.865 170.01V155.458C266.41 154.8 265.833 154.235 265.165 153.794L265.803 153.511C266.495 153.988 267.095 154.588 267.572 155.281V169.764C268.466 170.7 269.464 171.531 270.545 172.243M280.104 172.243L279.396 172.701C278.3 171.928 277.301 171.024 276.422 170.01V155.458C275.953 154.777 275.351 154.197 274.651 153.755L275.288 153.472C275.985 153.971 276.594 154.581 277.094 155.277V169.761C278.01 170.688 279.019 171.518 280.105 172.239M195.894 168.628V155.351C195.484 154.735 194.983 154.186 194.407 153.722L195.009 153.404C195.61 153.887 196.145 154.446 196.602 155.067V168.1L195.965 168.596H195.897L195.894 168.628ZM246.764 168.38V155.353C246.342 154.747 245.843 154.2 245.277 153.725L245.879 153.407C246.479 153.891 247.014 154.45 247.471 155.071V167.888L246.834 168.384L246.764 168.38ZM129.164 169.159C130.114 170.442 131.35 171.485 132.774 172.205L132.066 172.663C130.632 171.849 129.398 170.724 128.456 169.37V154.822C127.981 154.381 127.445 154.012 126.863 153.727L127.465 153.408C128.065 153.754 128.623 154.169 129.127 154.645V169.162L129.164 169.159ZM257.351 168.628V155.351C256.941 154.736 256.44 154.187 255.865 153.722L256.466 153.404C257.067 153.887 257.602 154.446 258.059 155.067V168.097L257.422 168.592H257.353L257.351 168.628ZM77.9792 168.38V155.353C77.5582 154.747 77.0583 154.2 76.4927 153.725L77.0942 153.407C77.6946 153.891 78.2299 154.45 78.6868 155.071V167.888L78.0497 168.384H77.9812L77.9792 168.38ZM88.5284 168.628V155.351C88.1185 154.736 87.6172 154.187 87.0419 153.722L87.6435 153.404C88.2441 153.888 88.7794 154.447 89.2361 155.068V168.1L88.5989 168.596H88.5305L88.5284 168.628ZM138.018 154.288C137.702 154.015 137.358 153.778 136.992 153.579L137.593 153.26C137.994 153.496 138.362 153.782 138.688 154.113V169.232C139.45 170.393 140.408 171.412 141.52 172.243L140.812 172.701C139.651 171.811 138.687 170.69 137.98 169.409V154.292L138.018 154.288ZM113.734 157.934C113.734 154.922 113.84 153.759 114.192 152.69C115.077 153.186 116.104 153.785 117.341 154.531V168.872C116.704 169.119 116.03 169.367 115.429 169.651C114.801 169.272 114.229 168.807 113.73 168.27L113.734 157.934ZM313.818 155.242L313.322 155.88C313.027 155.981 312.717 156.029 312.405 156.021C311.31 156.02 310.229 155.778 309.238 155.313C308.247 154.848 307.371 154.171 306.67 153.33V152.622H306.776C307.486 153.487 308.377 154.185 309.386 154.668C310.395 155.152 311.498 155.408 312.617 155.419C313.03 155.405 313.437 155.321 313.821 155.171L313.818 155.242ZM159.829 155.242L159.334 155.88C159.039 155.981 158.728 156.029 158.417 156.021C157.322 156.02 156.241 155.778 155.25 155.313C154.259 154.848 153.382 154.171 152.681 153.33V152.622H152.787C153.498 153.487 154.389 154.185 155.398 154.668C156.407 155.152 157.51 155.408 158.629 155.419C159.041 155.405 159.448 155.321 159.833 155.171L159.829 155.242ZM294.949 160.129C293.457 158.043 292.153 155.828 291.055 153.51V152.415L291.161 152.381C292.354 155.02 293.826 157.525 295.55 159.852L294.949 160.129ZM264.958 169.975L264.675 169.517C264.32 169.659 263.966 169.8 263.648 169.942C263.316 169.77 263.008 169.556 262.731 169.305V154.926C263.333 154.608 264.042 154.289 264.716 154.009C265.382 154.437 265.959 154.99 266.415 155.637V170.298C267.395 171.473 268.539 172.499 269.814 173.344H269.92C271.538 172.109 273.229 170.974 274.984 169.945L274.701 169.486L273.709 169.911C273.166 169.602 272.675 169.208 272.256 168.744V154.932C272.857 154.614 273.566 154.295 274.241 154.015C274.906 154.443 275.483 154.996 275.94 155.644V170.303C276.919 171.477 278.064 172.503 279.339 173.347H279.445C281.285 171.966 282.737 170.94 284.861 169.63L284.578 169.171C284.128 169.395 283.667 169.596 283.197 169.773C282.67 169.531 282.2 169.181 281.817 168.746V154.22C280.984 152.656 279.719 151.365 278.172 150.502H278.066C275.93 151.382 273.946 152.589 272.184 154.082C271.373 152.561 270.128 151.316 268.608 150.505H268.502C266.388 151.364 264.427 152.561 262.696 154.048C261.835 152.678 260.732 151.478 259.44 150.505H259.334C257.238 151.606 255.278 152.948 253.492 154.503L253.847 154.928C254.306 154.609 254.874 154.29 255.369 154.01C255.897 154.473 256.383 154.983 256.821 155.532V168.878C256.396 169.196 256.042 169.479 255.652 169.763V169.869C256.826 171.197 258.169 172.364 259.649 173.34H259.755C261.412 172.105 263.15 170.981 264.956 169.976M86.3979 169.586L86.1146 169.127C85.513 169.375 85.0195 169.586 84.522 169.836C84.0885 169.6 83.6844 169.314 83.3181 168.984V154.045C82.4775 152.651 81.3711 151.436 80.0618 150.468H79.9557C77.8599 151.569 75.8996 152.911 74.1144 154.466L74.4682 154.891C74.9597 154.559 75.4677 154.253 75.9903 153.973C76.5184 154.437 77.0041 154.946 77.4419 155.496V168.561C77.0697 168.888 76.6794 169.195 76.273 169.479V169.585C77.5012 171.05 78.9597 172.306 80.5915 173.302H80.6976C82.644 171.921 84.1319 170.93 86.3979 169.585M203.963 169.726L203.68 169.268C203.114 169.516 202.653 169.693 202.158 169.904C201.838 169.727 201.541 169.513 201.273 169.266V154.894C201.874 154.575 202.583 154.257 203.257 153.977C203.923 154.406 204.5 154.959 204.957 155.606V170.265C205.936 171.439 207.081 172.465 208.355 173.31H208.461C210.189 171.961 211.998 170.719 213.878 169.592L213.594 169.134C213.145 169.357 212.684 169.558 212.214 169.735C211.687 169.493 211.217 169.144 210.834 168.709V154.183C210.001 152.619 208.736 151.328 207.188 150.465H207.081C204.967 151.325 203.006 152.521 201.275 154.008C200.414 152.639 199.311 151.438 198.019 150.465H197.911C195.815 151.568 193.855 152.91 192.07 154.466L192.424 154.891C192.916 154.56 193.424 154.254 193.946 153.974C194.474 154.438 194.96 154.947 195.398 155.496V168.842C195.026 169.16 194.635 169.456 194.229 169.728V169.834C195.404 171.161 196.749 172.328 198.229 173.304H198.335C200.131 171.99 202.012 170.795 203.964 169.727M133.836 153.55C132.874 152.359 131.726 151.331 130.437 150.504H130.331C128.278 151.743 127.004 152.733 124.915 154.222L125.198 154.681C125.623 154.433 126.05 154.222 126.436 153.972C126.988 154.27 127.499 154.638 127.958 155.067V169.62C129.02 171.116 130.399 172.361 131.996 173.265H132.102C133.801 172.027 135.678 170.752 137.482 169.654C138.375 171.03 139.487 172.25 140.774 173.265H140.88C142.721 171.92 144.775 170.433 146.509 169.333L146.225 168.875C145.66 169.123 145.163 169.37 144.633 169.619C144.181 169.301 143.766 168.934 143.396 168.524V154.928C143.82 154.609 144.139 154.326 144.564 154.042V153.936C143.336 152.665 141.999 151.504 140.568 150.466H140.462C138.34 151.704 136.886 152.662 134.833 154.077L135.116 154.536L136.497 153.792C136.863 153.991 137.207 154.228 137.523 154.5V168.84C136.815 169.123 136.179 169.406 135.539 169.692C134.911 169.313 134.339 168.848 133.839 168.311L133.836 153.55ZM255.222 169.589L254.939 169.131C254.338 169.379 253.844 169.589 253.347 169.839C252.913 169.604 252.509 169.318 252.143 168.987V154.042C251.302 152.648 250.196 151.433 248.886 150.465H248.781C246.685 151.567 244.725 152.908 242.94 154.463L243.294 154.888C243.785 154.556 244.293 154.25 244.816 153.97C245.344 154.434 245.829 154.943 246.267 155.493V168.558C245.895 168.886 245.505 169.192 245.098 169.476V169.582C246.327 171.047 247.785 172.303 249.417 173.3H249.523C251.355 171.96 253.258 170.719 255.223 169.582M96.5953 169.724L96.312 169.265C95.746 169.513 95.2854 169.691 94.7899 169.902C94.4708 169.726 94.1737 169.512 93.905 169.265V154.893C94.5066 154.574 95.2156 154.256 95.8897 153.976C96.5557 154.404 97.1327 154.957 97.5891 155.605V170.264C98.5685 171.438 99.7134 172.463 100.988 173.308H101.094C102.821 171.959 104.63 170.718 106.51 169.591L106.227 169.132C105.777 169.356 105.316 169.557 104.846 169.734C104.32 169.492 103.849 169.142 103.466 168.707V154.183C102.634 152.619 101.368 151.329 99.8209 150.465H99.7148C97.6008 151.325 95.6401 152.521 93.9091 154.008C93.0482 152.639 91.9447 151.438 90.6528 150.465H90.5467C88.4508 151.568 86.4905 152.91 84.7054 154.466L85.0599 154.891C85.5513 154.56 86.0594 154.254 86.582 153.974C87.11 154.438 87.5958 154.947 88.0336 155.496V168.842C87.6617 169.16 87.2713 169.456 86.8646 169.728V169.834C88.0396 171.161 89.3847 172.328 90.8649 173.304H90.971C92.7726 171.998 94.6522 170.804 96.5994 169.727M291.051 164.484V163.389L299.901 158.643V158.501C298.026 155.917 296.312 153.22 294.768 150.425H294.662C291.552 151.754 288.345 152.843 285.068 153.682C285.281 155.231 285.376 156.793 285.352 158.356V167.138C287.135 169.387 289.139 171.45 291.335 173.297H291.512C294.212 171.506 297.001 169.852 299.868 168.34L299.443 167.703C298.098 168.34 297.002 168.907 295.902 169.403C294.129 167.924 292.505 166.276 291.053 164.481M187.998 173.304H188.104C189.945 171.959 191.998 170.472 193.733 169.373L193.449 168.914C192.883 169.162 192.387 169.409 191.857 169.658C191.405 169.34 190.99 168.973 190.619 168.563V157.517C190.541 156.199 190.636 154.877 190.903 153.584C188.53 153.018 184.778 151.531 183.256 150.436H183.148C180.914 153.055 178.301 155.324 175.395 157.168V157.31C176.828 158.998 178.743 160.208 180.882 160.78C179.136 161.624 177.339 162.357 175.501 162.975C175.671 164.147 175.754 165.33 175.749 166.514V170.044C176.738 171.417 178.02 172.554 179.501 173.372H179.607C181.271 172.168 183.077 170.964 184.849 169.83C185.705 171.148 186.768 172.319 187.997 173.3M306.834 173.406C309.556 171.537 312.571 170.136 315.755 169.263C315.571 168.426 315.488 167.57 315.507 166.714V160.983L310.021 158.575H309.876L308.284 160.345L306.619 159.601V154.041C307.343 154.806 308.216 155.415 309.184 155.829C310.152 156.243 311.195 156.454 312.248 156.449C312.652 156.439 313.055 156.392 313.451 156.307C314.952 154.728 315.853 152.674 316 150.5C315.765 150.465 315.527 150.465 315.292 150.5C315.293 150.906 315.246 151.31 315.15 151.704C314.725 151.886 314.268 151.982 313.805 151.988C312.38 151.955 311.022 151.372 310.018 150.359H309.912C307.183 152.157 304.165 153.475 300.991 154.254C301.177 155.281 301.26 156.325 301.238 157.37V162.613L306.371 164.95H306.513L308.141 163.145L310.088 163.997V169.52C308.316 168.061 306.081 167.282 303.786 167.324C303.382 167.334 302.979 167.381 302.583 167.466C301.081 169.059 300.18 171.124 300.034 173.308C300.269 173.344 300.507 173.344 300.742 173.308C300.741 172.903 300.788 172.499 300.884 172.105C301.309 171.923 301.767 171.826 302.229 171.821C303.883 171.762 305.495 172.345 306.726 173.45H306.832L306.834 173.406ZM152.809 173.406C155.53 171.537 158.546 170.136 161.73 169.263C161.545 168.426 161.462 167.57 161.482 166.714V160.983L155.995 158.575H155.854L154.261 160.345L152.597 159.601V154.041C153.321 154.806 154.194 155.415 155.162 155.829C156.13 156.243 157.173 156.454 158.226 156.449C158.63 156.439 159.033 156.392 159.429 156.307C160.93 154.728 161.831 152.674 161.978 150.5C161.743 150.465 161.505 150.465 161.27 150.5C161.271 150.906 161.224 151.31 161.128 151.704C160.703 151.886 160.246 151.982 159.783 151.988C158.357 151.956 156.999 151.372 155.995 150.359H155.923C153.194 152.157 150.177 153.475 147.002 154.254C147.189 155.281 147.272 156.325 147.25 157.37V162.613L152.383 164.95H152.525L154.153 163.145L156.099 163.997V169.52C154.42 168.092 152.285 167.313 150.081 167.324C149.677 167.334 149.274 167.381 148.878 167.466C147.376 169.058 146.474 171.124 146.327 173.308C146.562 173.343 146.801 173.343 147.036 173.308C147.034 172.902 147.082 172.498 147.177 172.104C147.603 171.922 148.06 171.826 148.523 171.821C150.082 171.812 151.587 172.394 152.735 173.449H152.804L152.809 173.406ZM229.344 167.455L229.309 167.421C229.593 166.677 229.628 166.183 229.628 164.306V154.04C229.63 152.876 229.523 151.714 229.309 150.57L230.053 150.252C230.244 151.399 230.339 152.559 230.337 153.722V163.778C230.302 166.186 230.125 166.681 229.345 167.461M121.347 172.244L120.639 172.703C119.524 171.764 118.568 170.652 117.807 169.41V154.291C110.514 150.149 109.699 149.689 108.992 149.369L108.815 148.342H108.849L118.477 154.008V169.09C119.269 170.277 120.236 171.339 121.344 172.238M234.731 151.03C234.731 149.366 234.765 148.802 235.474 148.091C235.793 148.125 236.465 148.233 236.855 148.268V168.273C235.841 168.558 234.793 168.701 233.74 168.698C232.244 168.712 230.758 168.46 229.35 167.954C231.335 167.176 233.388 166.29 234.979 165.513C234.817 164.363 234.734 163.204 234.731 162.043L234.731 151.03ZM165.488 152.907C165.488 150.96 165.382 149.368 165.312 148.516L166.164 147.914H166.198V167.498L165.562 167.993H165.49L165.488 152.907ZM55.2498 147.103C53.3383 149.794 53.0221 150.396 53.0221 153.689V162.611C53.0221 166.683 52.8448 168.313 50.0484 171.569L50.0142 171.535C52.2802 168.561 52.3507 166.932 52.3507 162.825V153.865C52.3507 150.573 52.7052 149.971 55.2176 147.103H55.2498ZM70.4009 172.243L69.6925 172.701C68.4628 171.895 67.3645 170.903 66.4362 169.763V150.888C66.4706 149.535 66.364 148.182 66.118 146.85L66.97 146.249C67.1197 147.683 67.1787 149.126 67.1466 150.568V169.483C68.0774 170.571 69.1768 171.504 70.4029 172.244M55.566 145.332L55.6002 145.367C54.8463 145.981 53.9168 146.341 52.9454 146.393C51.9189 146.393 51.0339 145.898 50.1134 145.898C49.7042 145.886 49.2968 145.955 48.9144 146.101C48.5321 146.247 48.1825 146.468 47.8857 146.75C47.6536 146.961 47.4618 147.214 47.3197 147.494H47.2855C47.3921 146.998 47.6379 146.544 47.9939 146.183C48.6301 145.603 49.4689 145.297 50.329 145.331C51.3207 145.331 52.3137 145.827 53.3739 145.827C54.133 145.825 54.8824 145.655 55.5687 145.331M77.1593 144.907C78.0208 146.006 78.955 147.047 79.9557 148.022L79.3897 148.376C78.3936 147.417 77.4816 146.375 76.6638 145.261L77.1593 144.907ZM246.478 144.873C247.362 145.975 248.307 147.026 249.31 148.021L248.744 148.375C247.734 147.397 246.799 146.345 245.948 145.226L246.478 144.873ZM220.173 150.751C220.358 149.755 220.825 148.834 221.518 148.095C222.829 146.785 224.775 146.148 227.36 146.148C231.398 146.148 236.209 147.386 239.36 147.386C240.988 147.386 242.333 146.678 243.43 144.731L243.537 144.765C242.368 147.138 240.988 147.952 239.182 147.952C236.034 147.952 231.288 146.714 227.182 146.714C224.633 146.714 222.827 147.351 221.553 148.625C220.953 149.211 220.493 149.926 220.208 150.715H220.173V150.751ZM171.252 144.235L171.075 144.129C168.42 145.793 166.33 147.245 164.809 148.413C164.927 149.317 164.986 150.228 164.986 151.14C164.437 152.388 163.798 153.594 163.075 154.75L163.181 154.892H164.987V168.205C164.562 168.523 164.243 168.771 163.818 169.057V169.163C165.412 170.849 167.236 172.303 169.234 173.482H169.34C171.128 172.139 173.022 170.943 175.004 169.907L174.72 169.448C174.298 169.616 173.885 169.805 173.482 170.014C172.557 169.527 171.669 168.971 170.827 168.35V154.928H171.075C172.174 154.915 173.273 154.962 174.367 155.069C176.066 152.841 176.808 151.599 177.093 150.785L176.987 150.679C175.603 150.859 174.208 150.942 172.812 150.927H170.827C170.831 148.689 170.973 146.454 171.252 144.234M120.594 173.304H120.7C122.541 171.959 124.595 170.578 126.329 169.445L126.045 168.986C125.479 169.234 124.983 169.483 124.453 169.73C123.998 169.388 123.583 168.996 123.215 168.562V157.157C123.215 154.716 123.321 153.512 123.392 152.555C112.666 145.935 109.657 143.879 108.029 142.039L107.852 142.073C107.828 144.632 108.089 147.185 108.63 149.686C110.243 150.417 111.804 151.257 113.303 152.2C111.534 153.085 109.55 153.969 107.674 154.749C107.826 156.302 107.885 157.863 107.851 159.423V169.62C108.913 171.117 110.292 172.362 111.889 173.266H111.995C113.659 172.062 115.537 170.824 117.34 169.689C118.208 171.072 119.31 172.294 120.596 173.3M79.3178 148.98H79.4239C81.1233 147.811 82.2559 146.995 83.7424 145.793V145.687C82.7256 144.389 81.6385 143.148 80.4861 141.969H80.38C78.9996 142.961 77.548 143.954 76.0252 145.227V145.333C77.0035 146.651 78.1059 147.872 79.3172 148.979M248.564 148.979H248.67C250.37 147.81 251.502 146.994 252.989 145.792V145.686C251.972 144.389 250.885 143.148 249.732 141.969H249.626C248.246 142.96 246.794 143.953 245.272 145.226V145.332C246.26 146.642 247.362 147.862 248.563 148.978M60.8413 170.331L60.8755 170.225V158.504H66.0084V170.012C67.0619 171.276 68.2891 172.384 69.6535 173.304H69.7596C71.7215 171.841 73.7665 170.493 75.8842 169.266L75.6009 168.771C74.9993 169.019 74.5059 169.266 73.9727 169.515C73.274 169.182 72.6669 168.683 72.2036 168.063V148.731C72.1413 146.477 72.3917 144.225 72.9475 142.039L72.7709 141.933C70.2338 143.343 67.8288 144.979 65.5848 146.82C65.9173 148.174 66.0601 149.568 66.0091 150.962V154.54H60.9152V148.417C60.9152 144.878 61.163 143.92 61.7673 142.079L61.6256 142.045C60.3875 143.745 59.9618 145.193 59.9618 148.772V169.557C59.0991 169.11 58.1366 168.89 57.1654 168.919C55.8442 168.926 54.5359 169.179 53.3068 169.663L53.2726 169.629C57.8033 165.591 57.9449 164.883 57.9449 161.945V149.405C57.9449 145.687 58.4035 144.058 59.3965 142.251L59.2549 142.109C58.3925 142.644 57.4025 142.938 56.3879 142.961C55.0075 142.961 53.1316 142.253 51.4671 142.253C50.2609 142.22 49.0906 142.665 48.2108 143.491C47.4192 144.293 46.9748 145.375 46.9734 146.502C46.9756 147.115 47.0711 147.724 47.2568 148.308H47.3628C47.4905 147.862 47.7351 147.458 48.0712 147.139C48.3282 146.889 48.6333 146.694 48.9679 146.566C49.3025 146.439 49.6597 146.38 50.0176 146.395C51.1126 146.395 51.8579 146.853 52.8845 146.853C53.9111 146.853 54.7249 146.499 56.3188 145.402L56.353 145.436C52.1782 149.791 52.0345 150.569 52.0345 153.934V154.536C51.3946 154.511 50.7565 154.452 50.123 154.358C48.8866 155.723 47.7395 157.165 46.6887 158.677L46.7948 158.784C47.9189 158.607 49.0557 158.524 50.1935 158.536H52.0338V164.272C52.0338 167.811 51.5383 169.265 48.5646 173.089L48.7063 173.266C50.1646 172.608 51.7432 172.258 53.3431 172.239C53.8788 172.213 54.4144 172.293 54.9188 172.475C55.4232 172.658 55.8863 172.939 56.2812 173.302H56.3873C57.7399 172.122 59.2393 171.123 60.8481 170.328M223.721 158.998C223.727 157.516 224.03 156.05 224.614 154.688C225.198 153.326 226.05 152.095 227.119 151.068L226.978 150.891C224.944 151.555 223.099 152.696 221.597 154.219C219.708 156.133 218.652 158.716 218.659 161.405C218.627 162.945 218.912 164.476 219.497 165.901C220.081 167.326 220.953 168.616 222.058 169.69C224.465 172.098 227.793 173.479 231.934 173.479C233.612 173.537 235.283 173.253 236.847 172.644C238.411 172.035 239.835 171.114 241.032 169.936C242.917 167.999 243.994 165.417 244.043 162.714L243.795 162.68C242.506 165.098 240.378 166.962 237.812 167.923V148.349C238.52 148.383 238.907 148.383 239.122 148.383C241.813 148.383 243.867 146.683 244.928 141.479L244.68 141.373C243.654 142.754 242.307 143.214 240.397 143.214C237.282 143.214 232.185 141.976 228.397 141.976C225.423 141.976 222.91 142.893 221.245 144.56C220.655 145.126 220.189 145.809 219.878 146.565C219.567 147.322 219.417 148.134 219.438 148.952C219.448 149.938 219.652 150.912 220.04 151.819H220.182C220.414 150.751 220.941 149.77 221.704 148.986C222.908 147.783 224.642 147.075 227.084 147.075C229.637 147.152 232.18 147.412 234.696 147.854C232.784 148.562 230.341 149.554 228.747 150.296C229.001 151.591 229.119 152.908 229.101 154.228V164.956C229.101 166.408 229.066 167.009 228.642 167.541C227.888 167.194 227.195 166.728 226.589 166.16C225.646 165.226 224.905 164.108 224.41 162.876C223.916 161.644 223.679 160.324 223.715 158.997" fill="#333333"/>
</svg>
