<svg width="316" height="315" viewBox="0 0 316 315" fill="none" xmlns="http://www.w3.org/2000/svg">
<path d="M155.231 162.202C155.14 162.598 155.045 162.913 154.998 163.234C154.4 167.287 153.809 171.34 153.213 175.394C152.542 179.959 151.882 184.526 151.191 189.089C150.854 191.315 150.068 191.973 147.78 191.979C143.445 191.993 139.11 191.984 134.778 191.982C134.448 191.982 134.116 191.977 133.792 191.933C132.155 191.716 131.103 190.42 131.298 188.763C131.513 186.94 131.808 185.126 132.076 183.308C132.592 179.815 133.114 176.322 133.63 172.829C134.344 167.985 135.048 163.138 135.763 158.292C136.656 152.236 137.558 146.183 138.455 140.127C139.124 135.609 139.799 131.092 140.448 126.57C140.714 124.711 141.099 123.562 144.034 123.513C146.247 123.477 148.462 123.506 150.677 123.504C152.513 123.504 154.351 123.493 156.188 123.511C156.701 123.515 157.215 123.593 157.729 123.655C158.819 123.785 159.514 124.434 159.955 125.396C160.132 125.781 160.287 126.175 160.447 126.567C163.924 135.066 167.4 143.565 170.879 152.064C171.019 152.405 171.185 152.735 171.38 153.162C171.728 152.808 171.73 152.431 171.779 152.095C172.366 148.137 172.944 144.174 173.526 140.216C174.197 135.651 174.871 131.086 175.548 126.521C175.604 126.149 175.666 125.77 175.794 125.42C176.12 124.534 176.682 123.863 177.666 123.683C178.173 123.593 178.689 123.515 179.203 123.513C183.396 123.5 187.589 123.5 191.782 123.513C192.296 123.515 192.818 123.575 193.319 123.688C194.856 124.036 195.696 125.261 195.472 126.826C195.12 129.296 194.745 131.764 194.38 134.233C193.567 139.731 192.756 145.226 191.943 150.724C191.042 156.826 190.136 162.928 189.237 169.03C188.439 174.435 187.649 179.839 186.854 185.244C186.661 186.548 186.473 187.853 186.273 189.155C186.222 189.481 186.16 189.809 186.061 190.121C185.768 191.042 185.159 191.66 184.198 191.858C183.742 191.951 183.263 191.979 182.796 191.979C178.649 191.988 174.505 191.975 170.359 191.99C168.647 191.997 167.541 191.782 166.609 189.483C163.092 180.798 159.514 172.138 155.953 163.468C155.773 163.05 155.671 162.576 155.231 162.202Z" fill="#00FFA8"/>
<path d="M253.863 165.258C253.962 160.576 254.554 156.533 255.473 152.527C256.709 147.144 258.811 142.141 261.868 137.538C265.489 132.085 270.132 127.772 276.088 124.979C280.819 122.76 285.822 121.701 291.045 122.073C295.759 122.41 300.202 123.688 304.167 126.408C308.497 129.38 311.611 133.312 313.494 138.185C315.487 143.35 316.36 148.697 315.864 154.254C315.392 159.539 314.389 164.698 312.377 169.622C310.085 175.234 306.816 180.211 302.344 184.327C297.936 188.387 292.842 191.22 286.956 192.577C283.483 193.379 279.99 193.747 276.442 193.328C272.322 192.841 268.442 191.667 264.971 189.286C261.128 186.648 258.346 183.168 256.556 178.898C255.163 175.575 254.366 172.091 254.049 168.503C253.936 167.234 253.9 165.96 253.863 165.258ZM296.235 152.967C296.275 150.978 296.135 149.005 295.681 147.071C295.167 144.887 294.277 142.88 292.622 141.283C291.783 140.475 290.799 139.952 289.654 139.757C287.495 139.39 285.433 139.644 283.523 140.787C282.092 141.642 280.89 142.761 279.818 144.026C277.995 146.17 276.743 148.633 275.769 151.257C273.757 156.68 273.235 162.241 274.203 167.934C274.562 170.049 275.341 172.012 276.701 173.706C277.751 175.015 279.096 175.804 280.788 175.963C283.082 176.18 285.182 175.664 287.063 174.311C288.644 173.17 290.009 171.81 291.07 170.173C294.452 164.937 296.188 159.202 296.235 152.967Z" fill="#00FFA8"/>
<path d="M87.4596 123.508C89.484 123.508 91.5107 123.495 93.5352 123.517C94.0956 123.524 94.667 123.573 95.2119 123.692C96.7491 124.027 97.5908 125.236 97.4003 126.817C97.2696 127.892 97.0858 128.959 96.9263 130.031C95.553 139.299 94.1775 148.566 92.8043 157.833C92.328 161.047 91.8275 164.257 91.4066 167.477C91.2671 168.543 91.2161 169.655 91.3557 170.713C91.6613 173.013 92.8397 174.785 95.048 175.671C96.6339 176.306 98.2818 176.235 99.8677 175.593C102.521 174.517 104.404 172.609 105.631 170.047C106.101 169.068 106.428 168.044 106.588 166.957C107.591 160.062 108.617 153.171 109.638 146.278C110.542 140.178 111.452 134.078 112.36 127.978C112.471 127.234 112.575 126.487 112.721 125.75C112.954 124.558 113.667 123.832 114.887 123.657C115.35 123.59 115.82 123.519 116.287 123.517C120.431 123.506 124.578 123.506 128.722 123.517C129.189 123.519 129.663 123.57 130.12 123.663C131.818 124.009 132.689 125.209 132.472 126.937C132.312 128.197 132.102 129.453 131.916 130.709C131.389 134.249 130.855 137.786 130.332 141.325C129.61 146.216 128.899 151.109 128.175 155.997C127.672 159.397 127.189 162.799 126.638 166.191C126 170.12 124.879 173.899 122.919 177.394C121.06 180.707 118.786 183.684 115.864 186.143C111.855 189.518 107.277 191.678 102.151 192.779C96.7203 193.944 91.369 193.745 86.1417 191.902C79.1867 189.452 74.6084 184.69 72.5153 177.553C71.255 173.254 71.1952 168.928 71.8508 164.545C72.8808 157.654 73.8863 150.759 74.903 143.866C75.7491 138.138 76.6107 132.41 77.4325 126.68C77.7669 124.354 78.6729 123.524 81.0982 123.513C83.2202 123.502 85.3399 123.508 87.4596 123.508Z" fill="#00FFA8"/>
<path d="M227.272 141.299C227.004 141.224 226.834 141.142 226.659 141.133C226.236 141.109 225.81 141.115 225.387 141.115C218.791 141.115 212.197 141.118 205.601 141.111C205.039 141.111 204.465 141.109 203.911 141.02C202.243 140.752 201.353 139.616 201.486 137.943C201.539 137.288 201.665 136.639 201.763 135.985C202.223 132.865 202.682 129.744 203.149 126.623C203.211 126.204 203.284 125.783 203.408 125.38C203.681 124.508 204.254 123.916 205.167 123.726C205.672 123.622 206.188 123.566 206.7 123.515C206.979 123.486 207.265 123.509 207.548 123.509C223.518 123.509 239.488 123.506 255.458 123.517C256.206 123.517 256.97 123.555 257.697 123.71C259.141 124.022 259.958 125.347 259.708 126.802C259.584 127.524 259.221 128.116 258.782 128.681C257.079 130.876 255.376 133.071 253.681 135.272C246.243 144.938 238.81 154.607 231.372 164.275C229.046 167.298 226.719 170.319 224.395 173.345C224.207 173.591 224.058 173.866 223.85 174.191C224.344 174.442 224.767 174.368 225.17 174.368C230.116 174.373 235.062 174.373 240.008 174.373C241.656 174.373 243.306 174.364 244.954 174.379C245.422 174.384 245.887 174.455 246.352 174.51C248.102 174.718 248.943 176.508 248.72 177.806C248.496 179.104 248.328 180.413 248.133 181.718C247.778 184.092 247.426 186.469 247.065 188.843C247.01 189.215 246.934 189.585 246.848 189.951C246.582 191.089 245.842 191.736 244.708 191.906C244.199 191.984 243.676 191.984 243.16 191.984C236.659 191.988 230.158 191.986 223.657 191.986C214.284 191.986 204.908 191.986 195.534 191.984C195.016 191.984 194.498 191.982 193.982 191.942C191.549 191.747 190.998 189.116 191.864 187.725C192.039 187.445 192.225 187.173 192.427 186.912C200.792 176.001 209.163 165.09 217.529 154.179C220.594 150.181 223.651 146.176 226.707 142.172C226.905 141.922 227.055 141.64 227.272 141.299Z" fill="#00FFA8"/>
<path d="M1.18069 189.895C3.62379 186.294 19.536 164.273 22.5993 160.049C23.0356 159.446 24.0302 158.919 24.9361 159.716C24.9804 159.756 25.7822 160.492 25.8243 160.529C29.9109 164.153 32.8678 166.614 36.95 170.242C37.1405 170.41 37.3332 170.574 37.5303 170.738C37.9467 171.084 38.5713 171.002 38.8748 170.556C38.9855 170.395 39.083 170.231 39.1937 170.078C42.5383 165.466 45.8718 160.846 49.2075 156.228C53.3716 150.465 57.5335 144.701 61.7021 138.942L61.7087 138.933C62.1185 138.369 62.9757 138.457 63.2747 139.086C63.288 139.113 63.2991 139.139 63.3123 139.166C64.5284 141.58 65.2637 144.159 65.8396 146.785C66.7832 151.087 66.5661 155.382 65.7776 159.688C64.4973 166.671 61.4208 172.774 56.8602 178.163C52.3904 183.447 46.9195 187.35 40.4385 189.771C36.6687 191.18 32.7571 191.979 28.7037 191.977C20.5106 191.973 12.3175 191.984 4.12437 191.982C3.70131 191.982 3.27604 191.962 2.85963 191.895C2.13091 191.782 1.54838 191.474 1.17626 190.916C0.968059 190.608 0.970273 190.203 1.18069 189.895Z" fill="#00FFA8"/>
<path d="M36.5558 157.362C36.4694 157.517 36.1128 158.064 35.3952 157.535C35.0098 157.249 35.1449 157.373 34.8348 157.109C30.7216 153.587 27.2043 150.557 23.0955 147.027C21.9349 145.979 20.8008 146.46 20.236 147.736C17.567 153.242 15.3033 157.838 12.6387 163.347C9.01064 170.846 5.38033 178.346 1.74559 185.844C1.41335 186.601 0.954856 186.411 1.00358 186.065C1.53296 182.433 2.06676 178.8 2.60278 175.17C3.40681 169.721 4.21084 164.275 5.01486 158.826C5.81889 153.377 6.61849 147.93 7.4203 142.482C8.14681 137.547 8.8711 132.61 9.60203 127.675C9.69063 127.07 9.77258 126.461 9.91877 125.867C10.2023 124.722 10.8646 123.931 12.0961 123.754C12.559 123.688 13.0286 123.628 13.4959 123.628C21.596 123.621 29.6939 123.582 37.794 123.639C42.5185 123.672 47.037 124.698 51.2564 126.888C51.2852 126.904 51.314 126.919 51.3428 126.935C51.0792 127.515 41.5904 146.971 36.5558 157.362Z" fill="#00FFA8"/>
</svg>
