<svg width="316" height="315" viewBox="0 0 316 315" fill="none" xmlns="http://www.w3.org/2000/svg">
<g clip-path="url(#clip0_220_1429)">
<path d="M153.974 102.001C157.157 101.988 160.272 102.919 162.925 104.677C165.578 106.434 167.651 108.939 168.88 111.875C170.11 114.81 170.441 118.044 169.833 121.168C169.225 124.292 167.703 127.165 165.462 129.425C163.221 131.684 160.36 133.228 157.241 133.861C154.122 134.495 150.885 134.189 147.94 132.983C144.995 131.777 142.474 129.724 140.695 127.085C138.916 124.446 137.96 121.339 137.947 118.156C137.947 113.894 139.632 109.804 142.634 106.778C145.636 103.752 149.712 102.034 153.974 102.001Z" fill="#F99D1C"/>
<path d="M40.5863 212.992H1V200.153H3.93153C5.85735 200.153 6.52068 199.062 6.52068 197.286V157.636C6.52068 155.838 5.85735 154.768 3.93153 154.768H1V141.673H36.6919V152.778C41.7846 145.61 48.4394 140.175 59.0528 140.175C73.1113 140.175 77.8188 145.802 79.4451 154.126C81.7031 149.914 85.0602 146.393 89.1595 143.936C93.2588 141.48 97.9471 140.18 102.726 140.175C120.551 140.175 122.99 148.734 122.99 161.444V197.329C122.99 199.105 123.782 200.196 125.986 200.196H128.254V213.035H89.3524V200.196H90.4009C92.1983 200.196 92.99 199.105 92.99 197.329V164.718C92.99 158.834 90.9786 156.951 86.8702 156.951C81.4351 156.951 79.6591 161.444 79.6591 168.377V197.201C79.6591 199.105 80.4722 200.196 82.2696 200.196H83.8745V213.035H46.0428V200.196H47.1341C48.8673 200.196 49.6805 199.105 49.6805 197.329V164.718C49.6805 158.834 47.669 156.951 43.5606 156.951C38.1255 156.951 36.3709 161.444 36.3709 168.377V197.201C36.3709 199.105 37.0556 200.196 38.9601 200.196H40.5863V212.992Z" fill="#F99D1C"/>
<path d="M139.231 157.635C139.231 155.838 138.568 154.768 136.642 154.768H133.668V141.672H169.081V197.307C169.081 199.212 169.766 200.303 171.671 200.303H174.324V213.142H133.668V200.303H136.599C138.525 200.303 139.188 199.212 139.188 197.436L139.231 157.635Z" fill="#F99D1C"/>
<path d="M220.073 212.992H180.486V200.153H183.418C185.322 200.153 186.007 199.062 186.007 197.286V157.635C186.007 155.838 185.322 154.768 183.418 154.768H180.486V141.672H215.857V152.906C218.451 148.977 221.983 145.756 226.133 143.533C230.284 141.31 234.922 140.156 239.63 140.175C256.128 140.175 259.702 148.734 259.702 161.444V197.329C259.702 199.105 260.365 200.196 262.548 200.196H264.944V213.035H225.508V200.196H227.134C228.889 200.196 229.723 199.105 229.723 197.329V164.718C229.723 158.834 227.583 156.951 223.603 156.951C219.623 156.951 215.857 160.075 215.857 167.008V197.2C215.803 197.599 215.84 198.005 215.966 198.387C216.092 198.769 216.303 199.118 216.583 199.406C216.864 199.695 217.206 199.916 217.584 200.053C217.963 200.19 218.367 200.239 218.767 200.196H220.073V212.992Z" fill="#F99D1C"/>
<path d="M264.195 141.673L274.723 141.266L275.986 125.046H302.712V141.673H315.315V155.046H302.712V187.357C302.712 195.788 304.338 198.527 313.603 198.527H315.978V212.992C310.102 213.637 304.194 213.952 298.282 213.934C281.399 213.934 272.862 208.691 272.862 194.676V155.046H264.302L264.195 141.673Z" fill="#F99D1C"/>
</g>
<defs>
<clipPath id="clip0_220_1429">
<rect width="315" height="111.933" fill="white" transform="translate(1 102)"/>
</clipPath>
</defs>
</svg>
