<svg width="316" height="315" viewBox="0 0 316 315" fill="none" xmlns="http://www.w3.org/2000/svg">
<path d="M24.7777 225.325H3.35204V232.145H13.6317V233.181L13.5282 233.251L3.13867 240.615V247.315H24.616V240.469H14.0907V239.458L14.1941 239.388L24.7777 231.992V225.325Z" fill="#7399D2"/>
<path d="M40.1842 225.325H31.7729V247.309H40.1842V225.325Z" fill="#7399D2"/>
<path d="M62.7153 247.315H72.2582V225.325H64.0862V235.489H62.9095L62.89 235.451L57.3687 225.325H47.5806V247.315H55.7526V237.151H56.9484L62.7153 247.315Z" fill="#7399D2"/>
<path d="M91.4727 225.324H79.6475V247.308H91.4727C99.7484 247.308 103.944 243.607 103.944 236.313C103.944 229.019 99.8645 225.318 91.4727 225.318V225.324ZM91.4986 240.436H88.0914V232.171H91.4986C94.1554 232.171 95.5007 233.565 95.5007 236.319C95.5007 239.727 93.3217 240.436 91.4986 240.436Z" fill="#7399D2"/>
<path d="M126.624 244.879L127.354 247.315H135.998L128.111 225.332H116.008L108.121 247.315H116.765L117.52 244.879H126.624ZM119.383 238.813L121.147 233.059H122.997L123.017 233.118L124.794 238.915H119.351L119.383 238.813Z" fill="#7399D2"/>
<path d="M160.372 244.745H160.883L161.019 247.315H164.982V235.009H152.996V238.538H157.024L156.9 238.864C156.532 239.829 155.582 240.973 153.118 240.973H152.996C150.286 240.973 148.398 239.062 148.398 236.319C148.398 233.577 150.274 231.666 153.293 231.666C155.097 231.666 156.247 232.548 156.609 233.162H165.001C164.141 226.827 158.051 224.577 153.073 224.577C145.031 224.577 140.033 229.077 140.033 236.319C140.033 243.562 145.062 248.063 152.258 248.063C155.685 248.063 158.542 246.918 160.294 244.834L160.365 244.745H160.372Z" fill="#7399D2"/>
<path d="M180.918 225.325H172.507V247.309H180.918V225.325Z" fill="#7399D2"/>
<path d="M207.355 248.063C207.439 248.063 207.516 248.063 207.6 248.063C212.495 248.063 215.76 247.193 217.576 245.409C218.746 244.265 219.309 242.751 219.309 240.788C219.309 235.284 214.46 234.689 210.18 234.165H210.128C209.417 234.07 208.745 233.986 208.105 233.884L205.726 233.507C204.749 233.392 204.238 232.951 204.251 232.242C204.251 231.736 204.64 230.886 207.225 230.886C209.54 230.886 210.833 231.474 211.176 232.676H218.675C218.72 230.234 218.132 228.419 216.871 227.127C215.145 225.363 212.23 224.57 207.419 224.57C200.178 224.57 196.189 227.127 196.189 231.769C196.189 237.272 200.76 237.879 204.788 238.417C205.215 238.474 205.635 238.531 206.049 238.589L209.055 239.043C210.387 239.196 211.014 239.631 210.969 240.379C210.969 240.621 210.871 240.832 210.684 241.018C210.173 241.511 209.016 241.753 207.361 241.715C204.646 241.689 203.36 241.127 203.217 239.899H195.698C195.621 242.297 196.176 244.087 197.405 245.358C199.157 247.187 202.325 248.043 207.368 248.056L207.355 248.063Z" fill="#7399D2"/>
<path d="M247.129 231.826V225.325H226.246V247.315H247.129V240.814H234.657V238.858H246.643V233.807H234.657V231.826H247.129Z" fill="#7399D2"/>
<path d="M277.385 225.325H253.096V232.145H261.048V247.315H269.434V232.145H277.385V225.325Z" fill="#7399D2"/>
<path d="M210.252 152.361H154.044V145.848H207.162L190.934 111.674H154.044V105.16H187.844L169.89 67.355H119.047V190.166H228.206L210.252 152.361Z" fill="#2075F0"/>
<path d="M314.955 67.355H179.574L196.978 105.16H237.017V190.166H275.245V105.16H314.955V67.355Z" fill="#2075F0"/>
<path d="M110.301 67.355H1V105.16H53.7043L1 152.361V190.166H110.301V152.361H57.5963L110.301 105.16V67.355Z" fill="#2075F0"/>
</svg>
