<svg width="316" height="315" viewBox="0 0 316 315" fill="none" xmlns="http://www.w3.org/2000/svg">
<g clip-path="url(#clip0_348_178)">
<path fill-rule="evenodd" clip-rule="evenodd" d="M15.3099 152.336V166.819H30.3267V178.027L19.8086 174.514L19.8231 174.48L19.8311 174.461L14.6362 172.788C4.25578 169.321 -1.35069 158.396 1.94093 148.23L2.24534 147.362C6.00946 137.355 17.2886 132.069 27.6677 135.534L30.3267 136.415V152.336H15.3099ZM58.5311 152.336C56.3075 147.598 52.1795 143.72 46.7318 141.901L45.2561 141.409V152.336H58.5311ZM45.2561 179.585C51.5905 177.981 57.005 173.397 59.2802 166.893C59.2868 166.878 59.2934 166.862 59.2974 166.845L59.3053 166.819H45.2574L45.2561 179.585Z" fill="#84BE52"/>
<path fill-rule="evenodd" clip-rule="evenodd" d="M232.844 170.246C233.662 170.246 234.43 170.134 235.125 169.913C235.88 169.672 236.535 169.261 237.074 168.694C237.614 168.12 238.042 167.334 238.342 166.356C238.648 165.358 238.801 164.085 238.801 162.575V160.942C238.801 159.433 238.648 158.144 238.338 157.11C238.039 156.099 237.61 155.27 237.062 154.651C236.523 154.038 235.867 153.589 235.113 153.319C234.412 153.071 233.637 152.944 232.811 152.944L232.546 152.948L232.239 152.944C231.416 152.944 230.642 153.064 229.948 153.301C229.194 153.554 228.537 153.994 228.003 154.602C227.456 155.225 227.026 156.059 226.727 157.085C226.421 158.131 226.263 159.428 226.263 160.942V162.575C226.263 164.089 226.418 165.368 226.727 166.383C227.023 167.375 227.448 168.167 227.991 168.741C228.527 169.305 229.181 169.707 229.934 169.932C230.713 170.168 231.581 170.271 232.518 170.241C232.648 170.245 232.745 170.246 232.844 170.246ZM236.218 149.876C237.097 150.135 237.93 150.437 238.71 150.77L238.804 137.923H245.144V161.736C245.08 163.587 244.8 165.26 244.312 166.723C243.816 168.205 243.042 169.49 242.015 170.545C240.985 171.599 239.654 172.419 238.052 172.982C236.468 173.542 234.533 173.825 232.293 173.825C230.148 173.825 228.296 173.542 226.79 172.981C225.268 172.417 223.992 171.593 222.996 170.539C222.002 169.489 221.249 168.204 220.754 166.72C220.265 165.26 219.986 163.587 219.921 161.749C219.986 159.886 220.265 158.199 220.754 156.706C221.247 155.194 222 153.878 222.993 152.797C223.988 151.711 225.263 150.858 226.782 150.259C228.292 149.668 230.147 149.366 232.293 149.366C233.763 149.366 235.082 149.537 236.218 149.876ZM188.911 153.105C187.93 152.001 186.645 151.137 185.087 150.537C183.547 149.946 181.662 149.647 179.486 149.647C177.431 149.647 175.6 149.964 174.044 150.589C172.631 151.157 171.409 151.96 170.408 152.989C169.487 152.022 168.317 151.261 166.926 150.727C165.384 150.132 163.483 149.833 161.272 149.833C157.313 149.833 154.225 150.985 152.094 153.261C149.975 155.522 148.901 158.64 148.901 162.53V173.777H155.244V161.081C155.244 159.569 155.399 158.291 155.705 157.277C156.003 156.284 156.429 155.493 156.971 154.917C157.507 154.353 158.161 153.951 158.913 153.726C159.605 153.517 160.372 153.411 161.19 153.411C161.293 153.411 161.395 153.411 161.527 153.415C162.456 153.386 163.278 153.497 163.973 153.742C164.644 153.98 165.217 154.384 165.674 154.943C166.145 155.518 166.513 156.297 166.767 157.262C167.026 158.251 167.16 159.504 167.16 160.989V173.777H173.502V163.045C173.502 162.222 173.493 161.684 173.478 161.43C173.464 161.192 173.455 161.013 173.455 160.897C173.455 159.384 173.61 158.103 173.917 157.089C174.216 156.096 174.642 155.302 175.183 154.732C175.719 154.167 176.369 153.766 177.122 153.537C177.817 153.329 178.583 153.224 179.401 153.224L179.667 153.228H179.737C180.668 153.199 181.5 153.312 182.211 153.556C182.898 153.792 183.475 154.196 183.933 154.754C184.403 155.327 184.76 156.115 185 157.09C185.246 158.097 185.37 159.377 185.37 160.897V173.777H191.715V162.345C191.715 160.415 191.494 158.656 191.054 157.119C190.609 155.558 189.889 154.208 188.911 153.105ZM203.67 154.034C204.317 153.654 205.088 153.464 205.963 153.464H206.057C207.704 153.464 209.01 153.984 210.054 155.061C211.028 156.072 211.666 157.706 211.943 159.921H200.367C200.472 159.177 200.639 158.452 200.869 157.751C201.139 156.926 201.512 156.188 201.979 155.556C202.437 154.937 203.006 154.423 203.67 154.034ZM214.921 153.534C213.865 152.454 212.578 151.59 211.104 150.964C209.625 150.34 207.962 150.005 206.138 149.975C204.429 150.037 202.834 150.397 201.39 151.036C199.944 151.68 198.672 152.549 197.605 153.624C196.536 154.7 195.695 155.963 195.101 157.375C194.511 158.788 194.21 160.318 194.21 161.937C194.276 163.66 194.632 165.266 195.274 166.711C195.914 168.154 196.79 169.415 197.874 170.459C198.962 171.505 200.253 172.329 201.716 172.909C203.177 173.486 204.796 173.776 206.506 173.776H206.512C206.681 173.785 206.846 173.791 207.011 173.791C208.001 173.791 208.97 173.621 209.889 173.284C210.915 172.909 211.938 172.497 212.925 172.061L213.244 171.919L212.679 169.631L212.258 169.742C210.298 170.259 208.728 170.521 207.586 170.521C206.229 170.521 205.09 170.288 204.2 169.823C203.306 169.357 202.57 168.765 202.02 168.068C201.465 167.366 201.056 166.577 200.8 165.73C200.586 165.019 200.428 164.319 200.328 163.644H218.047V163.23C218.047 163.049 218.056 162.816 218.072 162.527C218.088 162.222 218.096 161.99 218.096 161.847C218.163 160.271 217.912 158.746 217.352 157.315C216.792 155.886 215.974 154.614 214.921 153.534ZM264.442 163.797C263.972 162.99 263.35 162.289 262.592 161.713C261.852 161.152 261.009 160.662 260.092 160.26C259.207 159.875 258.301 159.503 257.401 159.159C256.701 158.878 256.022 158.607 255.371 158.341C254.747 158.088 254.186 157.797 253.706 157.471C253.237 157.156 252.861 156.812 252.587 156.447C252.337 156.112 252.214 155.719 252.214 155.243C252.214 154.801 252.329 154.427 252.566 154.108C252.816 153.765 253.146 153.473 253.541 153.239C253.948 152.997 254.431 152.809 254.973 152.679C255.529 152.548 256.101 152.48 256.629 152.48C257.652 152.57 258.551 152.701 259.296 152.869C260.032 153.032 260.681 153.236 261.227 153.473C261.778 153.713 262.263 153.969 262.67 154.234C263.093 154.509 263.493 154.786 263.869 155.061L264.548 155.558V154.73C264.548 154.267 264.553 153.814 264.57 153.367C264.588 152.891 264.547 152.323 264.445 151.68L264.417 151.486L264.246 151.387C263.603 151.01 262.999 150.683 262.447 150.413C261.881 150.136 261.272 149.915 260.647 149.754C260.021 149.594 259.341 149.48 258.617 149.415C257.906 149.352 257.088 149.32 256.19 149.32C255.008 149.32 253.862 149.467 252.779 149.755C251.691 150.044 250.706 150.479 249.855 151.048C248.996 151.624 248.306 152.339 247.796 153.163C247.278 154.002 247.016 154.954 247.016 155.992C247.016 157.209 247.261 158.258 247.739 159.109C248.213 159.949 248.835 160.669 249.595 161.245C250.337 161.809 251.18 162.29 252.101 162.677C253.001 163.054 253.928 163.401 254.849 163.713C255.547 163.961 256.211 164.208 256.844 164.454C257.452 164.693 257.996 164.968 258.461 165.276C258.907 165.573 259.274 165.915 259.548 166.294C259.799 166.643 259.925 167.048 259.925 167.528C259.925 168.078 259.806 168.543 259.554 168.948C259.301 169.358 258.944 169.715 258.491 170.007C258.019 170.308 257.475 170.541 256.866 170.7C256.255 170.859 255.593 170.942 254.882 170.945C253.397 171.003 252.09 170.912 251 170.672C249.928 170.437 248.812 169.924 247.687 169.15L246.895 168.608L247.488 172.983L247.754 173.061C249.076 173.438 250.391 173.71 251.666 173.869C252.931 174.025 254.193 174.119 255.413 174.151H255.425C256.531 174.151 257.676 174.013 258.822 173.744C259.978 173.47 261.034 173.036 261.964 172.451C262.905 171.859 263.682 171.085 264.269 170.148C264.866 169.198 265.166 168.066 265.166 166.778C265.166 165.622 264.925 164.618 264.442 163.797ZM98.2729 150.725C99.8281 151.324 101.113 152.188 102.094 153.293C103.073 154.393 103.793 155.742 104.238 157.305C104.677 158.843 104.898 160.602 104.898 162.531V173.779H98.5561V161.082C98.5561 159.569 98.4317 158.288 98.1842 157.277C97.9434 156.299 97.586 155.514 97.1188 154.942C96.6556 154.376 96.0917 153.981 95.3956 153.742C94.6835 153.497 93.8497 153.392 92.9206 153.415C92.7895 153.412 92.6876 153.412 92.5844 153.412C91.7651 153.412 90.9988 153.517 90.3079 153.724C89.5561 153.951 88.9023 154.353 88.3676 154.918C87.825 155.493 87.3975 156.284 87.101 157.274C86.7953 158.291 86.6404 159.571 86.6404 161.082V173.779H80.2954V162.531C80.2954 158.643 81.3701 155.523 83.4904 153.261C85.6186 150.986 88.7064 149.833 92.6691 149.833C94.8463 149.833 96.731 150.132 98.2729 150.725ZM116.855 154.034C117.502 153.654 118.271 153.464 119.146 153.464H119.243C120.885 153.464 122.194 153.984 123.235 155.063C124.214 156.071 124.849 157.704 125.127 159.921H113.55C113.655 159.18 113.822 158.455 114.052 157.751C114.323 156.926 114.698 156.188 115.164 155.556C115.622 154.937 116.19 154.423 116.855 154.034ZM128.105 153.534C127.046 152.454 125.764 151.591 124.286 150.964C122.809 150.34 121.146 150.005 119.322 149.975C117.615 150.037 116.017 150.397 114.573 151.036C113.128 151.678 111.855 152.548 110.788 153.624C109.719 154.701 108.877 155.964 108.287 157.375C107.692 158.791 107.395 160.321 107.395 161.937C107.461 163.664 107.817 165.27 108.457 166.71C109.097 168.154 109.973 169.415 111.058 170.461C112.146 171.506 113.438 172.328 114.9 172.909C116.36 173.486 117.979 173.776 119.69 173.776H119.696C119.862 173.785 120.029 173.791 120.195 173.791C121.185 173.791 122.153 173.621 123.071 173.284C124.095 172.91 125.117 172.497 126.108 172.061L126.427 171.919L125.862 169.631L125.44 169.742C123.481 170.259 121.91 170.521 120.772 170.521C119.412 170.521 118.274 170.288 117.385 169.823C116.489 169.357 115.754 168.765 115.204 168.068C114.648 167.363 114.237 166.577 113.985 165.73C113.77 165.017 113.611 164.318 113.511 163.644H131.233V163.23C131.233 163.049 131.241 162.814 131.255 162.527C131.271 162.222 131.279 161.99 131.279 161.847C131.345 160.271 131.094 158.746 130.535 157.315C129.975 155.886 129.159 154.614 128.104 153.534H128.105ZM141.607 153.137V169.628H141.6L141.596 170.582C141.596 171.151 141.768 172.051 142.716 172.184C143.088 172.238 144.09 172.295 144.502 172.295C144.554 172.295 144.623 172.29 144.688 172.286L144.816 172.278L144.817 173.645C143.837 173.82 142.099 173.911 140.828 173.911C139.907 173.911 139.108 173.841 138.43 173.695C137.754 173.552 137.194 173.348 136.749 173.084C136.303 172.819 135.976 172.503 135.763 172.137C135.55 171.771 135.442 171.362 135.442 170.913V167.541H135.453V153.135H129.86V149.553H135.453V141.723L141.607 137.97V149.553H147.151V153.135H141.607V153.137Z" fill="#24AEB1"/>
<path fill-rule="evenodd" clip-rule="evenodd" d="M266.875 145.431H265.146V145.1H268.975V145.431H267.245V149.95H266.875V145.434V145.431ZM270.236 145.099H270.584L272.576 147.969L274.57 145.099H274.918V149.95H274.548V145.737L272.583 148.53H272.555L270.59 145.737V149.95H270.236V145.099ZM267.137 173.776H269.279V171.388H267.137V173.776ZM277.076 174.05C276.192 174.05 275.373 173.887 274.62 173.56C273.868 173.235 273.217 172.795 272.665 172.242C272.114 171.689 271.683 171.04 271.373 170.296C271.063 169.555 270.907 168.774 270.907 167.954V167.909C270.907 167.075 271.063 166.288 271.373 165.544C271.683 164.801 272.114 164.15 272.665 163.588C273.217 163.028 273.868 162.584 274.62 162.259C275.373 161.933 276.192 161.769 277.076 161.769C277.651 161.769 278.171 161.822 278.637 161.928C279.101 162.034 279.529 162.183 279.917 162.371C280.304 162.563 280.66 162.785 280.987 163.044C281.312 163.302 281.615 163.573 281.895 163.86L280.707 165.09C280.228 164.605 279.703 164.19 279.137 163.839C278.571 163.49 277.874 163.315 277.054 163.315C276.449 163.315 275.881 163.434 275.354 163.668C274.826 163.904 274.368 164.224 273.981 164.634C273.593 165.043 273.288 165.525 273.073 166.077C272.856 166.633 272.747 167.229 272.747 167.864V167.909C272.747 168.547 272.858 169.14 273.085 169.696C273.311 170.249 273.619 170.735 274.016 171.15C274.411 171.567 274.877 171.891 275.413 172.13C275.949 172.364 276.534 172.482 277.17 172.482C277.945 172.482 278.633 172.314 279.228 171.98C279.827 171.648 280.367 171.231 280.847 170.731L281.989 171.776C281.383 172.443 280.696 172.99 279.926 173.413C279.16 173.837 278.209 174.05 277.076 174.05ZM289.087 172.482C289.739 172.482 290.337 172.359 290.879 172.118C291.423 171.874 291.889 171.549 292.276 171.138C292.665 170.729 292.968 170.251 293.185 169.706C293.401 169.16 293.511 168.577 293.511 167.955V167.909C293.511 167.274 293.398 166.678 293.173 166.125C292.947 165.57 292.633 165.087 292.229 164.669C291.827 164.251 291.353 163.922 290.809 163.679C290.268 163.437 289.676 163.315 289.041 163.315C288.39 163.315 287.793 163.437 287.248 163.679C286.705 163.922 286.244 164.248 285.863 164.657C285.482 165.067 285.184 165.548 284.967 166.101C284.751 166.655 284.642 167.243 284.642 167.864V167.909C284.642 168.547 284.753 169.14 284.979 169.696C285.204 170.249 285.516 170.731 285.911 171.138C286.307 171.549 286.775 171.874 287.319 172.118C287.86 172.36 288.452 172.482 289.087 172.482ZM289.041 174.05C288.141 174.05 287.31 173.887 286.55 173.56C285.789 173.235 285.13 172.795 284.571 172.242C284.013 171.689 283.579 171.044 283.268 170.31C282.957 169.574 282.803 168.788 282.803 167.954V167.909C282.803 167.075 282.957 166.288 283.268 165.544C283.579 164.801 284.013 164.15 284.571 163.588C285.13 163.028 285.793 162.584 286.561 162.259C287.33 161.933 288.171 161.769 289.087 161.769C289.987 161.769 290.822 161.933 291.59 162.259C292.358 162.584 293.022 163.024 293.579 163.578C294.138 164.131 294.572 164.775 294.884 165.511C295.193 166.245 295.349 167.03 295.349 167.864V167.909C295.349 168.743 295.19 169.533 294.871 170.275C294.553 171.016 294.115 171.67 293.557 172.23C292.998 172.791 292.331 173.235 291.554 173.56C290.777 173.887 289.941 174.05 289.041 174.05ZM297.187 162.019H298.979V163.998C299.182 163.711 299.403 163.429 299.644 163.156C299.885 162.883 300.16 162.645 300.471 162.44C300.781 162.236 301.13 162.072 301.518 161.95C301.906 161.829 302.357 161.769 302.868 161.769C303.846 161.769 304.652 161.991 305.289 162.44C305.925 162.886 306.406 163.446 306.733 164.112C306.95 163.794 307.195 163.49 307.465 163.202C307.736 162.914 308.044 162.664 308.384 162.451C308.727 162.239 309.111 162.072 309.536 161.95C309.965 161.829 310.441 161.769 310.967 161.769C312.366 161.769 313.459 162.19 314.252 163.03C315.043 163.872 315.437 165.029 315.437 166.499V173.777H313.648V166.924C313.648 165.79 313.369 164.915 312.82 164.304C312.268 163.689 311.504 163.384 310.527 163.384C310.076 163.384 309.651 163.463 309.246 163.622C308.842 163.781 308.489 164.016 308.187 164.325C307.883 164.636 307.642 165.017 307.465 165.472C307.287 165.925 307.197 166.44 307.197 167.014V173.777H305.428V166.878C305.428 165.774 305.152 164.915 304.603 164.304C304.051 163.689 303.294 163.384 302.333 163.384C301.851 163.384 301.409 163.475 301.006 163.655C300.602 163.839 300.249 164.096 299.947 164.428C299.644 164.76 299.408 165.151 299.236 165.595C299.065 166.043 298.979 166.539 298.979 167.082V173.777H297.187V162.018V162.019Z" fill="#151B39"/>
</g>
<defs>
<clipPath id="clip0_348_178">
<rect width="315" height="68.8235" fill="white" transform="translate(1 123)"/>
</clipPath>
</defs>
</svg>
