<svg width="316" height="315" viewBox="0 0 316 315" fill="none" xmlns="http://www.w3.org/2000/svg">
<g clip-path="url(#clip0_227_82)">
<path d="M52.0432 215.014H33.9723L16.9636 191.519V215.014H1V140.575H16.9506V185.132L32.9027 161.843H51.5128L32.1575 188.43L52.0432 215.014ZM89.0514 160.354C91.6945 160.287 94.3224 160.773 96.767 161.78C99.2116 162.788 101.419 164.294 103.248 166.203C107.041 170.103 108.937 175.491 108.937 182.367V215.014H92.985V184.707C93.0719 183.395 92.8851 182.079 92.4365 180.844C91.9879 179.608 91.2872 178.479 90.379 177.529C89.4922 176.692 88.4482 176.04 87.3075 175.611C86.1669 175.181 84.9522 174.982 83.7341 175.025C82.4025 174.956 81.0713 175.166 79.8259 175.642C78.5805 176.119 77.4485 176.85 76.5025 177.789C74.5787 180.066 73.6244 183.007 73.8445 185.98V215.011H57.8997V140.575H73.8445V166.842C77.0339 162.517 82.1029 160.354 89.0514 160.354ZM158.493 161.843H174.443V215.014H158.491V210.016C154.734 214.341 149.452 216.503 142.646 216.503C139.24 216.531 135.868 215.817 132.765 214.413C129.662 213.008 126.901 210.945 124.674 208.368C119.708 202.935 117.04 195.788 117.231 188.43C117.039 181.071 119.707 173.924 124.674 168.491C126.901 165.913 129.662 163.851 132.765 162.446C135.868 161.041 139.24 160.328 142.646 160.356C149.451 160.356 154.733 162.518 158.491 166.842L158.493 161.843ZM136.693 197.893C137.898 199.07 139.331 199.988 140.904 200.592C142.476 201.195 144.156 201.471 145.839 201.403C147.522 201.471 149.201 201.195 150.774 200.592C152.346 199.988 153.779 199.07 154.984 197.893C156.181 196.636 157.109 195.149 157.713 193.522C158.316 191.895 158.582 190.162 158.494 188.429C158.582 186.695 158.316 184.963 157.713 183.335C157.109 181.708 156.181 180.221 154.984 178.964C153.779 177.787 152.346 176.869 150.774 176.265C149.201 175.662 147.522 175.386 145.839 175.454C144.156 175.386 142.476 175.662 140.904 176.265C139.331 176.869 137.898 177.787 136.693 178.964C135.496 180.221 134.568 181.709 133.965 183.336C133.361 184.963 133.095 186.697 133.183 188.43C133.095 190.163 133.361 191.895 133.964 193.522C134.568 195.149 135.497 196.636 136.693 197.893ZM217.938 160.354C221.345 160.326 224.717 161.039 227.821 162.443C230.925 163.848 233.687 165.911 235.914 168.49C240.88 173.924 243.546 181.071 243.353 188.43C243.545 195.788 240.879 202.934 235.914 208.368C233.687 210.945 230.926 213.008 227.823 214.413C224.72 215.817 221.349 216.531 217.942 216.503C211.137 216.503 205.855 214.341 202.097 210.016V215.014H186.14V140.575H202.091V166.842C205.849 162.517 211.133 160.354 217.938 160.354ZM205.601 197.893C206.814 199.059 208.248 199.97 209.819 200.573C211.389 201.176 213.065 201.458 214.747 201.403C216.421 201.461 218.089 201.181 219.652 200.577C221.214 199.974 222.639 199.061 223.839 197.893C225.05 196.644 225.992 195.159 226.605 193.531C227.218 191.903 227.489 190.166 227.402 188.429C227.489 186.691 227.218 184.954 226.605 183.326C225.992 181.698 225.05 180.213 223.839 178.964C222.639 177.796 221.214 176.883 219.652 176.28C218.089 175.676 216.421 175.396 214.747 175.454C213.073 175.396 211.404 175.676 209.842 176.28C208.279 176.883 206.855 177.796 205.654 178.964C204.443 180.213 203.502 181.698 202.889 183.326C202.276 184.954 202.004 186.691 202.091 188.429C202.003 190.162 202.269 191.895 202.873 193.522C203.476 195.149 204.404 196.636 205.601 197.893ZM268.346 171.307C269.251 168.017 271.407 165.212 274.353 163.491C277.355 161.686 280.797 160.748 284.299 160.779V178.858C280.547 178.193 276.682 178.891 273.399 180.825C270.036 182.775 268.354 186.16 268.354 190.981V215.014H252.392V161.843H268.346V171.307ZM291.741 215.014V161.843H307.696V215.014H291.741Z" fill="url(#paint0_linear_227_82)"/>
<path d="M292.691 100.043C283.542 101.166 276.748 107.703 277.591 114.569C277.639 114.961 277.841 115.317 278.152 115.56C278.463 115.803 278.857 115.912 279.249 115.864L286.125 115.02C288.065 114.782 289.799 115.778 289.978 117.235C290.157 118.691 288.715 120.078 286.775 120.316L281.067 121.017C280.719 121.06 280.384 121.17 280.08 121.343C279.775 121.515 279.508 121.745 279.292 122.021C279.077 122.297 278.918 122.612 278.824 122.949C278.731 123.286 278.705 123.638 278.747 123.986C278.834 124.687 279.195 125.325 279.751 125.76C280.308 126.195 281.015 126.391 281.716 126.305L287.424 125.604C289.364 125.366 291.099 126.362 291.277 127.819C291.456 129.275 290.015 130.662 288.075 130.9L282.366 131.601C281.665 131.687 281.027 132.048 280.592 132.605C280.157 133.162 279.961 133.868 280.047 134.57C280.133 135.271 280.494 135.909 281.051 136.344C281.608 136.779 282.314 136.975 283.015 136.889L288.724 136.188C290.664 135.95 292.398 136.947 292.577 138.403C292.756 139.859 291.314 141.246 289.374 141.484L282.498 142.329C282.107 142.377 281.75 142.578 281.507 142.889C281.265 143.2 281.155 143.595 281.203 143.986C282.046 150.853 290.22 155.551 299.369 154.428C308.518 153.305 315.312 146.767 314.469 139.902C314.421 139.51 314.219 139.154 313.908 138.911C313.598 138.668 313.203 138.558 312.811 138.607L305.934 139.451C303.994 139.689 302.26 138.692 302.081 137.236C301.902 135.78 303.344 134.393 305.284 134.155L310.988 133.454C311.689 133.368 312.327 133.007 312.762 132.45C313.197 131.894 313.393 131.187 313.307 130.486C313.264 130.139 313.154 129.803 312.982 129.499C312.809 129.194 312.579 128.927 312.303 128.711C312.028 128.496 311.712 128.337 311.375 128.244C311.038 128.15 310.686 128.124 310.339 128.167L304.63 128.867C302.69 129.106 300.956 128.109 300.777 126.652C300.598 125.196 302.04 123.809 303.98 123.571L309.688 122.87C310.389 122.784 311.028 122.423 311.463 121.866C311.898 121.31 312.094 120.603 312.008 119.902C311.965 119.554 311.855 119.219 311.682 118.914C311.51 118.61 311.28 118.342 311.004 118.126C310.728 117.911 310.413 117.752 310.076 117.658C309.738 117.565 309.386 117.538 309.039 117.581L303.331 118.282C301.391 118.52 299.656 117.523 299.477 116.067C299.299 114.611 300.74 113.224 302.68 112.986L309.556 112.141C309.948 112.093 310.304 111.892 310.547 111.581C310.79 111.27 310.899 110.875 310.851 110.484C310.013 103.619 301.839 98.9195 292.691 100.043Z" fill="url(#paint1_linear_227_82)"/>
</g>
<defs>
<linearGradient id="paint0_linear_227_82" x1="154.348" y1="140.575" x2="154.348" y2="216.504" gradientUnits="userSpaceOnUse">
<stop stop-color="#5832D8"/>
<stop offset="1" stop-color="#206CD3"/>
</linearGradient>
<linearGradient id="paint1_linear_227_82" x1="292.691" y1="100.043" x2="299.369" y2="154.428" gradientUnits="userSpaceOnUse">
<stop stop-color="#5832D8"/>
<stop offset="1" stop-color="#206CD3"/>
</linearGradient>
<clipPath id="clip0_227_82">
<rect width="315" height="118.504" fill="white" transform="translate(1 98)"/>
</clipPath>
</defs>
</svg>
