<svg width="316" height="315" viewBox="0 0 316 315" fill="none" xmlns="http://www.w3.org/2000/svg">
<g clip-path="url(#clip0_228_244)">
<path d="M316 101H1V214.502H316V101Z" fill="white"/>
<path d="M315.681 101.319H1.31885V214.183H315.681V101.319Z" stroke="#707070" stroke-width="0.637652"/>
<path d="M101.303 139.386C101.047 139.386 100.792 139.386 100.537 139.386C97.0303 139.386 93.9696 140.598 91.8653 141.937L91.7378 141.873V140.088H83.7034V175.031H90.5263H91.7378V149.015C93.587 147.612 96.0101 146.592 98.8157 146.592C99.4534 146.592 100.027 146.592 100.601 146.783C104.555 147.676 106.021 150.991 106.021 154.499C106.021 161.895 106.021 175.095 106.021 175.095H114.056V153.096C114.056 148.632 112.78 144.998 110.038 142.766C107.552 140.662 104.555 139.514 101.303 139.386Z" fill="#003323"/>
<path d="M69.675 140.088V175.031H77.7094V140.088H69.675Z" fill="#003323"/>
<path d="M135.226 139.323C126.107 139.323 118.2 146.528 118.2 157.623C118.2 158.835 118.328 160.046 118.519 161.194C118.583 161.64 118.647 162.023 118.774 162.406C118.774 162.533 118.838 162.661 118.902 162.788C118.965 162.916 118.965 163.043 119.029 163.171C119.157 163.49 119.22 163.872 119.348 164.191C121.835 171.333 128.211 175.733 135.289 175.733C135.544 175.733 135.736 175.733 135.991 175.733C141.538 175.478 146.512 172.672 149.126 167.316C149.509 166.614 149.764 165.785 150.019 164.956H149.126H148.616H142.686C140.901 168.081 137.266 169.229 133.886 168.655C129.997 167.953 127.574 165.02 126.872 161.194C126.809 160.748 126.745 160.301 126.681 159.855H151.422C151.549 158.962 151.613 157.496 151.613 156.348C151.486 145.253 143.515 139.323 135.226 139.323ZM126.553 153.925C127.574 148.696 131.4 146.273 135.162 146.273C138.924 146.273 143.196 148.696 143.834 153.925H126.553Z" fill="#003323"/>
<path d="M47.1023 140.088C43.914 140.088 41.2359 140.088 38.749 140.088H31.7349V189.761H39.9605V173.246L40.0881 173.182C42.1923 174.585 45.3168 175.796 48.9515 175.796C57.6235 175.796 65.0203 168.846 65.0203 158.133C64.9565 147.166 57.4322 140.088 47.1023 140.088ZM47.166 168.4C44.2966 168.4 41.8735 167.316 39.9605 165.913V147.23C42.0648 147.23 44.4241 147.23 46.8472 147.23C53.0324 147.23 56.7308 151.438 56.7308 157.623C56.6671 163.809 53.0962 168.4 47.166 168.4Z" fill="#003323"/>
<path d="M237.824 139.323C234.317 139.323 231.256 140.534 229.216 141.873L229.088 141.81V125.741H221.054V175.031H227.877C230.3 175.031 232.914 175.031 236.039 175.031C246.113 175.031 253.51 167.316 253.51 156.667C253.51 146.146 246.305 139.323 237.824 139.323ZM235.72 168.017C233.424 168.017 231.065 168.017 229.024 168.017V149.015C230.874 147.612 233.297 146.592 236.102 146.592C241.905 146.592 245.412 151.119 245.412 157.049C245.348 163.107 241.777 168.017 235.72 168.017Z" fill="#003323"/>
<path d="M274.298 154.116C269.451 153.032 265.307 153.096 265.307 149.844C265.307 147.421 267.538 146.337 271.046 146.337C274.361 146.337 279.144 147.484 283.161 149.907V142.128C279.718 140.215 274.999 139.386 271.046 139.386C263.202 139.386 257.272 143.212 257.208 150.545C257.208 156.858 261.481 159.217 267.73 160.62C272.703 161.768 276.912 161.64 276.912 165.084C276.912 167.698 274.616 168.846 270.918 168.846C267.347 168.846 262.373 167.634 258.229 164.956V172.99C261.863 174.967 266.709 175.924 270.79 175.924C278.506 175.924 285.01 172.289 285.01 164.446C284.946 157.623 280.547 155.519 274.298 154.116Z" fill="#003323"/>
<path d="M207.025 141.873L206.898 141.937C201.796 138.557 196.376 139.514 196.376 139.514C186.875 140.853 182.157 149.525 181.647 155.838C181.2 161.194 182.603 169.547 191.466 174.266C197.46 177.454 203.773 175.286 206.898 173.245C206.961 173.245 206.961 173.309 207.025 173.309V175.095H215.06V140.088H207.025V141.873ZM207.025 166.167C204.092 168.144 201.478 168.782 199.182 168.527C191.913 167.762 190.956 161.258 190.765 159.663C190.382 156.411 190.701 150.354 195.42 147.803C201.35 144.551 207.025 149.015 207.025 149.015V166.167Z" fill="#003323"/>
<path d="M174.824 166.678V125.741H166.79V166.933V166.997V167.061C166.79 174.457 171.955 175.031 173.549 175.031H180.18V168.017H174.824" fill="#003323"/>
<path d="M69.6113 131.798L75.3502 126.123H83.5122V134.221L77.7733 139.96V131.798H69.6113Z" fill="#003323"/>
<path d="M315.971 190.242H291.74V214.472H315.971V190.242Z" fill="#003323"/>
<path d="M310.043 209.364H296.907C296.333 209.364 295.887 208.918 295.887 208.344V205.092C295.887 204.837 296.078 204.582 296.397 204.582C296.716 204.582 296.907 204.773 296.907 205.092V208.344C296.907 208.407 296.971 208.407 296.971 208.407H310.106C310.17 208.407 310.17 208.407 310.17 208.344V205.092C310.17 204.837 310.361 204.582 310.68 204.582C310.999 204.582 311.19 204.773 311.19 205.092V208.344C311.063 208.918 310.616 209.364 310.043 209.364Z" fill="white"/>
<path d="M303.496 204.837C303.241 204.837 303.05 204.646 303.05 204.39V195.591C302.986 195.336 303.177 195.145 303.496 195.145C303.815 195.145 304.006 195.336 304.006 195.655V204.454C303.943 204.646 303.751 204.837 303.496 204.837Z" fill="white"/>
<path d="M303.496 205.793C303.369 205.793 303.241 205.729 303.178 205.666L299.097 201.585C298.905 201.393 298.905 201.075 299.097 200.883C299.288 200.692 299.543 200.692 299.734 200.883L303.496 204.645L307.195 200.883C307.386 200.692 307.705 200.692 307.896 200.883C308.087 201.075 308.087 201.33 307.896 201.521L303.815 205.602C303.688 205.793 303.624 205.793 303.496 205.793Z" fill="white"/>
</g>
<defs>
<clipPath id="clip0_228_244">
<rect width="315" height="113.502" fill="white" transform="translate(1 101)"/>
</clipPath>
</defs>
</svg>
