<svg width="316" height="315" viewBox="0 0 316 315" fill="none" xmlns="http://www.w3.org/2000/svg">
<g clip-path="url(#clip0_348_81)">
<path fill-rule="evenodd" clip-rule="evenodd" d="M283.484 232.621V205.838H251.389V232.621H235.009V162.747H251.371V189.536H283.466V162.741H299.828V223.466C299.826 225.894 298.858 228.221 297.135 229.938C295.412 231.655 293.076 232.619 290.639 232.621H283.484Z" fill="#030305"/>
<path d="M303.792 146.918C303.781 146.913 303.769 146.91 303.757 146.91C303.745 146.91 303.732 146.913 303.721 146.918H298.818C298.807 146.919 298.797 146.922 298.788 146.926C298.778 146.932 298.769 146.938 298.763 146.946C298.756 146.955 298.751 146.965 298.748 146.975C298.745 146.986 298.745 146.996 298.747 147.007V148.28C298.747 148.28 298.747 148.321 298.747 148.333C298.76 148.338 298.775 148.338 298.788 148.333H300.381C300.411 148.333 300.429 148.363 300.429 148.387V153.153C300.426 153.163 300.426 153.174 300.429 153.183C300.429 153.183 300.458 153.213 300.47 153.213H302.004C302.033 153.213 302.045 153.177 302.051 153.159V148.369C302.057 148.366 302.063 148.365 302.069 148.365C302.075 148.365 302.081 148.366 302.087 148.369H303.668C303.685 148.376 303.704 148.376 303.721 148.369C303.727 148.346 303.727 148.321 303.721 148.298V146.959C303.724 146.946 303.724 146.932 303.721 146.918H303.792ZM311.097 146.871H309.73C309.697 146.867 309.665 146.874 309.636 146.89C309.607 146.906 309.584 146.93 309.569 146.959L308.143 150.27H308.101L306.633 146.959C306.621 146.93 306.599 146.906 306.571 146.89C306.543 146.874 306.511 146.867 306.479 146.871H305.094C305.023 146.871 304.993 146.871 304.993 146.959V153.112C304.993 153.171 304.993 153.201 305.094 153.201H306.39C306.455 153.201 306.485 153.171 306.485 153.112V149.849H306.526L307.549 152.218C307.565 152.253 307.59 152.282 307.621 152.304C307.652 152.326 307.689 152.339 307.727 152.342H308.458C308.497 152.343 308.535 152.332 308.566 152.31C308.597 152.287 308.62 152.255 308.63 152.218L309.653 149.849H309.7V153.112C309.7 153.171 309.73 153.201 309.795 153.201H311.097C311.109 153.203 311.122 153.202 311.134 153.198C311.145 153.194 311.156 153.188 311.165 153.179C311.174 153.171 311.18 153.16 311.184 153.148C311.187 153.136 311.188 153.124 311.186 153.112V146.959C311.188 146.948 311.187 146.935 311.184 146.923C311.18 146.912 311.174 146.901 311.165 146.892C311.156 146.884 311.145 146.877 311.134 146.873C311.122 146.869 311.109 146.868 311.097 146.871ZM311.097 146.871H309.73C309.697 146.867 309.665 146.874 309.636 146.89C309.607 146.906 309.584 146.93 309.569 146.959L308.143 150.27H308.101L306.633 146.959C306.621 146.93 306.599 146.906 306.571 146.89C306.543 146.874 306.511 146.867 306.479 146.871H305.094C305.023 146.871 304.993 146.871 304.993 146.959V153.112C304.993 153.171 304.993 153.201 305.094 153.201H306.39C306.455 153.201 306.485 153.171 306.485 153.112V149.849H306.526L307.549 152.218C307.565 152.253 307.59 152.282 307.621 152.304C307.652 152.326 307.689 152.339 307.727 152.342H308.458C308.497 152.343 308.535 152.332 308.566 152.31C308.597 152.287 308.62 152.255 308.63 152.218L309.653 149.849H309.7V153.112C309.7 153.171 309.73 153.201 309.795 153.201H311.097C311.109 153.203 311.122 153.202 311.134 153.198C311.145 153.194 311.156 153.188 311.165 153.179C311.174 153.171 311.18 153.16 311.184 153.148C311.187 153.136 311.188 153.124 311.186 153.112V146.959C311.188 146.948 311.187 146.935 311.184 146.923C311.18 146.912 311.174 146.901 311.165 146.892C311.156 146.884 311.145 146.877 311.134 146.873C311.122 146.869 311.109 146.868 311.097 146.871ZM303.792 146.918C303.781 146.913 303.769 146.91 303.757 146.91C303.745 146.91 303.732 146.913 303.721 146.918H298.818C298.807 146.919 298.797 146.922 298.788 146.926C298.778 146.932 298.769 146.938 298.763 146.946C298.756 146.955 298.751 146.965 298.748 146.975C298.745 146.986 298.745 146.996 298.747 147.007V148.28C298.747 148.28 298.747 148.321 298.747 148.333C298.76 148.338 298.775 148.338 298.788 148.333H300.381C300.411 148.333 300.429 148.363 300.429 148.387V153.153C300.426 153.163 300.426 153.174 300.429 153.183C300.429 153.183 300.458 153.213 300.47 153.213H302.004C302.033 153.213 302.045 153.177 302.051 153.159V148.369C302.057 148.366 302.063 148.365 302.069 148.365C302.075 148.365 302.081 148.366 302.087 148.369H303.668C303.685 148.376 303.704 148.376 303.721 148.369C303.727 148.346 303.727 148.321 303.721 148.298V146.959C303.724 146.946 303.724 146.932 303.721 146.918H303.792ZM303.792 146.918C303.781 146.913 303.769 146.91 303.757 146.91C303.745 146.91 303.732 146.913 303.721 146.918H298.818C298.807 146.919 298.797 146.922 298.788 146.926C298.778 146.932 298.769 146.938 298.763 146.946C298.756 146.955 298.751 146.965 298.748 146.975C298.745 146.986 298.745 146.996 298.747 147.007V148.28C298.747 148.28 298.747 148.321 298.747 148.333C298.76 148.338 298.775 148.338 298.788 148.333H300.381C300.411 148.333 300.429 148.363 300.429 148.387V153.153C300.426 153.163 300.426 153.174 300.429 153.183C300.429 153.183 300.458 153.213 300.47 153.213H302.004C302.033 153.213 302.045 153.177 302.051 153.159V148.369C302.057 148.366 302.063 148.365 302.069 148.365C302.075 148.365 302.081 148.366 302.087 148.369H303.668C303.685 148.376 303.704 148.376 303.721 148.369C303.727 148.346 303.727 148.321 303.721 148.298V146.959C303.724 146.946 303.724 146.932 303.721 146.918H303.792ZM311.097 146.871H309.73C309.697 146.867 309.665 146.874 309.636 146.89C309.607 146.906 309.584 146.93 309.569 146.959L308.143 150.27H308.101L306.633 146.959C306.621 146.93 306.599 146.906 306.571 146.89C306.543 146.874 306.511 146.867 306.479 146.871H305.094C305.023 146.871 304.993 146.871 304.993 146.959V153.112C304.993 153.171 304.993 153.201 305.094 153.201H306.39C306.455 153.201 306.485 153.171 306.485 153.112V149.849H306.526L307.549 152.218C307.565 152.253 307.59 152.282 307.621 152.304C307.652 152.326 307.689 152.339 307.727 152.342H308.458C308.497 152.343 308.535 152.332 308.566 152.31C308.597 152.287 308.62 152.255 308.63 152.218L309.653 149.849H309.7V153.112C309.7 153.171 309.73 153.201 309.795 153.201H311.097C311.109 153.203 311.122 153.202 311.134 153.198C311.145 153.194 311.156 153.188 311.165 153.179C311.174 153.171 311.18 153.16 311.184 153.148C311.187 153.136 311.188 153.124 311.186 153.112V146.959C311.188 146.948 311.187 146.935 311.184 146.923C311.18 146.912 311.174 146.901 311.165 146.892C311.156 146.884 311.145 146.877 311.134 146.873C311.122 146.869 311.109 146.868 311.097 146.871ZM311.097 146.871H309.73C309.697 146.867 309.665 146.874 309.636 146.89C309.607 146.906 309.584 146.93 309.569 146.959L308.143 150.27H308.101L306.633 146.959C306.621 146.93 306.599 146.906 306.571 146.89C306.543 146.874 306.511 146.867 306.479 146.871H305.094C305.023 146.871 304.993 146.871 304.993 146.959V153.112C304.993 153.171 304.993 153.201 305.094 153.201H306.39C306.455 153.201 306.485 153.171 306.485 153.112V149.849H306.526L307.549 152.218C307.565 152.253 307.59 152.282 307.621 152.304C307.652 152.326 307.689 152.339 307.727 152.342H308.458C308.497 152.343 308.535 152.332 308.566 152.31C308.597 152.287 308.62 152.255 308.63 152.218L309.653 149.849H309.7V153.112C309.7 153.171 309.73 153.201 309.795 153.201H311.097C311.109 153.203 311.122 153.202 311.134 153.198C311.145 153.194 311.156 153.188 311.165 153.179C311.174 153.171 311.18 153.16 311.184 153.148C311.187 153.136 311.188 153.124 311.186 153.112V146.959C311.188 146.948 311.187 146.935 311.184 146.923C311.18 146.912 311.174 146.901 311.165 146.892C311.156 146.884 311.145 146.877 311.134 146.873C311.122 146.869 311.109 146.868 311.097 146.871ZM303.792 146.918C303.781 146.913 303.769 146.91 303.757 146.91C303.745 146.91 303.732 146.913 303.721 146.918H298.818C298.807 146.919 298.797 146.922 298.788 146.926C298.778 146.932 298.769 146.938 298.763 146.946C298.756 146.955 298.751 146.965 298.748 146.975C298.745 146.986 298.745 146.996 298.747 147.007V148.28C298.747 148.28 298.747 148.321 298.747 148.333C298.76 148.338 298.775 148.338 298.788 148.333H300.381C300.411 148.333 300.429 148.363 300.429 148.387V153.153C300.426 153.163 300.426 153.174 300.429 153.183C300.429 153.183 300.458 153.213 300.47 153.213H302.004C302.033 153.213 302.045 153.177 302.051 153.159V148.369C302.057 148.366 302.063 148.365 302.069 148.365C302.075 148.365 302.081 148.366 302.087 148.369H303.668C303.685 148.376 303.704 148.376 303.721 148.369C303.727 148.346 303.727 148.321 303.721 148.298V146.959C303.724 146.946 303.724 146.932 303.721 146.918H303.792ZM303.792 146.918C303.781 146.913 303.769 146.91 303.757 146.91C303.745 146.91 303.732 146.913 303.721 146.918H298.818C298.807 146.919 298.797 146.922 298.788 146.926C298.778 146.932 298.769 146.938 298.763 146.946C298.756 146.955 298.751 146.965 298.748 146.975C298.745 146.986 298.745 146.996 298.747 147.007V148.28C298.747 148.28 298.747 148.321 298.747 148.333C298.76 148.338 298.775 148.338 298.788 148.333H300.381C300.411 148.333 300.429 148.363 300.429 148.387V153.153C300.426 153.163 300.426 153.174 300.429 153.183C300.429 153.183 300.458 153.213 300.47 153.213H302.004C302.033 153.213 302.045 153.177 302.051 153.159V148.369C302.057 148.366 302.063 148.365 302.069 148.365C302.075 148.365 302.081 148.366 302.087 148.369H303.668C303.685 148.376 303.704 148.376 303.721 148.369C303.727 148.346 303.727 148.321 303.721 148.298V146.959C303.724 146.946 303.724 146.932 303.721 146.918H303.792ZM311.103 146.918H309.736C309.703 146.914 309.671 146.922 309.642 146.938C309.613 146.953 309.59 146.977 309.575 147.007L308.149 150.317H308.107L306.633 146.959C306.621 146.93 306.599 146.906 306.571 146.89C306.543 146.874 306.511 146.867 306.479 146.871H305.094C305.023 146.871 304.993 146.871 304.993 146.959V153.112C304.993 153.171 304.993 153.201 305.094 153.201H306.39C306.455 153.201 306.485 153.171 306.485 153.112V149.849H306.526L307.549 152.218C307.565 152.253 307.59 152.282 307.621 152.304C307.652 152.326 307.689 152.339 307.727 152.342H308.458C308.497 152.343 308.535 152.332 308.566 152.31C308.597 152.287 308.62 152.255 308.63 152.218L309.653 149.849H309.7V153.112C309.7 153.171 309.73 153.201 309.795 153.201H311.097C311.109 153.203 311.122 153.202 311.134 153.198C311.145 153.194 311.156 153.188 311.165 153.179C311.174 153.171 311.18 153.16 311.184 153.148C311.187 153.136 311.188 153.124 311.186 153.112V146.959C311.188 146.948 311.187 146.935 311.184 146.923C311.18 146.912 311.174 146.901 311.165 146.892C311.156 146.884 311.145 146.877 311.134 146.873C311.122 146.869 311.109 146.868 311.097 146.871L311.103 146.918ZM304.975 158.69C303.267 158.691 301.597 158.187 300.176 157.243C298.755 156.298 297.647 154.955 296.993 153.383C296.338 151.81 296.167 150.081 296.499 148.411C296.832 146.742 297.654 145.208 298.861 144.004C300.068 142.8 301.607 141.98 303.283 141.648C304.958 141.315 306.695 141.486 308.273 142.136C309.851 142.788 311.2 143.89 312.15 145.305C313.099 146.72 313.605 148.384 313.605 150.086C313.605 152.367 312.696 154.554 311.078 156.168C309.46 157.781 307.265 158.688 304.975 158.69ZM304.975 139.427C302.859 139.427 300.791 140.052 299.032 141.224C297.273 142.395 295.901 144.06 295.091 146.007C294.282 147.955 294.07 150.098 294.483 152.166C294.896 154.233 295.915 156.133 297.41 157.623C298.907 159.113 300.813 160.129 302.889 160.54C304.963 160.952 307.114 160.74 309.069 159.934C311.024 159.127 312.695 157.76 313.871 156.008C315.046 154.255 315.673 152.194 315.673 150.086C315.673 147.259 314.546 144.548 312.54 142.549C310.533 140.55 307.813 139.427 304.975 139.427ZM303.787 146.948C303.775 146.943 303.763 146.94 303.751 146.94C303.739 146.94 303.727 146.943 303.715 146.948H298.812C298.801 146.948 298.791 146.951 298.782 146.956C298.772 146.961 298.763 146.968 298.757 146.976C298.75 146.985 298.745 146.994 298.742 147.004C298.739 147.015 298.739 147.026 298.741 147.036V148.31C298.741 148.31 298.741 148.351 298.741 148.363C298.754 148.368 298.769 148.368 298.782 148.363H300.375C300.405 148.363 300.423 148.393 300.423 148.416V153.183C300.42 153.193 300.42 153.203 300.423 153.213C300.423 153.213 300.452 153.242 300.464 153.242H301.998C302.027 153.242 302.039 153.207 302.045 153.189V148.398C302.051 148.396 302.057 148.394 302.063 148.394C302.07 148.394 302.075 148.396 302.081 148.398H303.662C303.679 148.406 303.698 148.406 303.715 148.398C303.721 148.375 303.721 148.35 303.715 148.327V146.959C303.718 146.946 303.718 146.932 303.715 146.918L303.787 146.948ZM311.097 146.948H309.73C309.697 146.944 309.665 146.951 309.636 146.967C309.607 146.983 309.584 147.007 309.569 147.036L308.143 150.347H308.101L306.633 146.959C306.621 146.93 306.599 146.906 306.571 146.89C306.543 146.874 306.511 146.867 306.479 146.871H305.094C305.023 146.871 304.993 146.871 304.993 146.959V153.112C304.993 153.171 304.993 153.201 305.094 153.201H306.39C306.455 153.201 306.485 153.171 306.485 153.112V149.849H306.526L307.549 152.218C307.565 152.253 307.59 152.282 307.621 152.304C307.652 152.326 307.689 152.339 307.727 152.342H308.458C308.497 152.343 308.535 152.332 308.566 152.31C308.597 152.287 308.62 152.255 308.63 152.218L309.653 149.849H309.7V153.112C309.7 153.171 309.73 153.201 309.795 153.201H311.097C311.109 153.203 311.122 153.202 311.134 153.198C311.145 153.194 311.156 153.188 311.165 153.179C311.174 153.171 311.18 153.16 311.184 153.148C311.187 153.136 311.188 153.124 311.186 153.112V146.959C311.188 146.948 311.187 146.935 311.184 146.923C311.18 146.912 311.174 146.901 311.165 146.892C311.156 146.884 311.145 146.877 311.134 146.873C311.122 146.869 311.109 146.868 311.097 146.871V146.948ZM311.097 146.948H309.73C309.697 146.944 309.665 146.951 309.636 146.967C309.607 146.983 309.584 147.007 309.569 147.036L308.143 150.347H308.101L306.633 146.959C306.621 146.93 306.599 146.906 306.571 146.89C306.543 146.874 306.511 146.867 306.479 146.871H305.094C305.023 146.871 304.993 146.871 304.993 146.959V153.112C304.993 153.171 304.993 153.201 305.094 153.201H306.39C306.455 153.201 306.485 153.171 306.485 153.112V149.849H306.526L307.549 152.218C307.565 152.253 307.59 152.282 307.621 152.304C307.652 152.326 307.689 152.339 307.727 152.342H308.458C308.497 152.343 308.535 152.332 308.566 152.31C308.597 152.287 308.62 152.255 308.63 152.218L309.653 149.849H309.7V153.112C309.7 153.171 309.73 153.201 309.795 153.201H311.097C311.109 153.203 311.122 153.202 311.134 153.198C311.145 153.194 311.156 153.188 311.165 153.179C311.174 153.171 311.18 153.16 311.184 153.148C311.187 153.136 311.188 153.124 311.186 153.112V146.959C311.188 146.948 311.187 146.935 311.184 146.923C311.18 146.912 311.174 146.901 311.165 146.892C311.156 146.884 311.145 146.877 311.134 146.873C311.122 146.869 311.109 146.868 311.097 146.871V146.948ZM303.792 146.995C303.781 146.99 303.769 146.987 303.757 146.987C303.745 146.987 303.732 146.99 303.721 146.995H298.818C298.807 146.996 298.797 146.999 298.788 147.003C298.778 147.009 298.769 147.015 298.763 147.024C298.756 147.032 298.751 147.042 298.748 147.052C298.745 147.063 298.745 147.073 298.747 147.084V148.357C298.747 148.357 298.747 148.398 298.747 148.41C298.76 148.415 298.775 148.415 298.788 148.41H300.381C300.411 148.41 300.429 148.44 300.429 148.464V153.23C300.426 153.24 300.426 153.251 300.429 153.26C300.429 153.26 300.458 153.29 300.47 153.29H302.004C302.033 153.29 302.045 153.254 302.051 153.236V148.446C302.057 148.443 302.063 148.442 302.069 148.442C302.075 148.442 302.081 148.443 302.087 148.446H303.668C303.685 148.453 303.704 148.453 303.721 148.446C303.727 148.423 303.727 148.398 303.721 148.375V146.959C303.724 146.946 303.724 146.932 303.721 146.918L303.792 146.995ZM303.792 146.995C303.781 146.99 303.769 146.987 303.757 146.987C303.745 146.987 303.732 146.99 303.721 146.995H298.818C298.807 146.996 298.797 146.999 298.788 147.003C298.778 147.009 298.769 147.015 298.763 147.024C298.756 147.032 298.751 147.042 298.748 147.052C298.745 147.063 298.745 147.073 298.747 147.084V148.357C298.747 148.357 298.747 148.398 298.747 148.41C298.76 148.415 298.775 148.415 298.788 148.41H300.381C300.411 148.41 300.429 148.44 300.429 148.464V153.23C300.426 153.24 300.426 153.251 300.429 153.26C300.429 153.26 300.458 153.29 300.47 153.29H302.004C302.033 153.29 302.045 153.254 302.051 153.236V148.446C302.057 148.443 302.063 148.442 302.069 148.442C302.075 148.442 302.081 148.443 302.087 148.446H303.668C303.685 148.453 303.704 148.453 303.721 148.446C303.727 148.423 303.727 148.398 303.721 148.375V146.959C303.724 146.946 303.724 146.932 303.721 146.918L303.792 146.995ZM311.097 146.948H309.73C309.697 146.944 309.665 146.951 309.636 146.967C309.607 146.983 309.584 147.007 309.569 147.036L308.143 150.347H308.101L306.633 146.959C306.621 146.93 306.599 146.906 306.571 146.89C306.543 146.874 306.511 146.867 306.479 146.871H305.094C305.023 146.871 304.993 146.871 304.993 146.959V153.112C304.993 153.171 304.993 153.201 305.094 153.201H306.39C306.455 153.201 306.485 153.171 306.485 153.112V149.849H306.526L307.549 152.218C307.565 152.253 307.59 152.282 307.621 152.304C307.652 152.326 307.689 152.339 307.727 152.342H308.458C308.497 152.343 308.535 152.332 308.566 152.31C308.597 152.287 308.62 152.255 308.63 152.218L309.653 149.849H309.7V153.112C309.7 153.171 309.73 153.201 309.795 153.201H311.097C311.109 153.203 311.122 153.202 311.134 153.198C311.145 153.194 311.156 153.188 311.165 153.179C311.174 153.171 311.18 153.16 311.184 153.148C311.187 153.136 311.188 153.124 311.186 153.112V146.959C311.188 146.948 311.187 146.935 311.184 146.923C311.18 146.912 311.174 146.901 311.165 146.892C311.156 146.884 311.145 146.877 311.134 146.873C311.122 146.869 311.109 146.868 311.097 146.871V146.948ZM311.097 146.948H309.73C309.697 146.944 309.665 146.951 309.636 146.967C309.607 146.983 309.584 147.007 309.569 147.036L308.143 150.347H308.101L306.633 146.959C306.621 146.93 306.599 146.906 306.571 146.89C306.543 146.874 306.511 146.867 306.479 146.871H305.094C305.023 146.871 304.993 146.871 304.993 146.959V153.112C304.993 153.171 304.993 153.201 305.094 153.201H306.39C306.455 153.201 306.485 153.171 306.485 153.112V149.849H306.526L307.549 152.218C307.565 152.253 307.59 152.282 307.621 152.304C307.652 152.326 307.689 152.339 307.727 152.342H308.458C308.497 152.343 308.535 152.332 308.566 152.31C308.597 152.287 308.62 152.255 308.63 152.218L309.653 149.849H309.7V153.112C309.7 153.171 309.73 153.201 309.795 153.201H311.097C311.109 153.203 311.122 153.202 311.134 153.198C311.145 153.194 311.156 153.188 311.165 153.179C311.174 153.171 311.18 153.16 311.184 153.148C311.187 153.136 311.188 153.124 311.186 153.112V146.959C311.188 146.948 311.187 146.935 311.184 146.923C311.18 146.912 311.174 146.901 311.165 146.892C311.156 146.884 311.145 146.877 311.134 146.873C311.122 146.869 311.109 146.868 311.097 146.871V146.948ZM303.792 146.995C303.781 146.99 303.769 146.987 303.757 146.987C303.745 146.987 303.732 146.99 303.721 146.995H298.818C298.807 146.996 298.797 146.999 298.788 147.003C298.778 147.009 298.769 147.015 298.763 147.024C298.756 147.032 298.751 147.042 298.748 147.052C298.745 147.063 298.745 147.073 298.747 147.084V148.357C298.747 148.357 298.747 148.398 298.747 148.41C298.76 148.415 298.775 148.415 298.788 148.41H300.381C300.411 148.41 300.429 148.44 300.429 148.464V153.23C300.426 153.24 300.426 153.251 300.429 153.26C300.429 153.26 300.458 153.29 300.47 153.29H302.004C302.033 153.29 302.045 153.254 302.051 153.236V148.446C302.057 148.443 302.063 148.442 302.069 148.442C302.075 148.442 302.081 148.443 302.087 148.446H303.668C303.685 148.453 303.704 148.453 303.721 148.446C303.727 148.423 303.727 148.398 303.721 148.375V146.959C303.724 146.946 303.724 146.932 303.721 146.918L303.792 146.995ZM303.792 146.995C303.781 146.99 303.769 146.987 303.757 146.987C303.745 146.987 303.732 146.99 303.721 146.995H298.818C298.807 146.996 298.797 146.999 298.788 147.003C298.778 147.009 298.769 147.015 298.763 147.024C298.756 147.032 298.751 147.042 298.748 147.052C298.745 147.063 298.745 147.073 298.747 147.084V148.357C298.747 148.357 298.747 148.398 298.747 148.41C298.76 148.415 298.775 148.415 298.788 148.41H300.381C300.411 148.41 300.429 148.44 300.429 148.464V153.23C300.426 153.24 300.426 153.251 300.429 153.26C300.429 153.26 300.458 153.29 300.47 153.29H302.004C302.033 153.29 302.045 153.254 302.051 153.236V148.446C302.057 148.443 302.063 148.442 302.069 148.442C302.075 148.442 302.081 148.443 302.087 148.446H303.668C303.685 148.453 303.704 148.453 303.721 148.446C303.727 148.423 303.727 148.398 303.721 148.375V146.959C303.724 146.946 303.724 146.932 303.721 146.918L303.792 146.995ZM311.097 146.948H309.73C309.697 146.944 309.665 146.951 309.636 146.967C309.607 146.983 309.584 147.007 309.569 147.036L308.143 150.347H308.101L306.633 146.959C306.621 146.93 306.599 146.906 306.571 146.89C306.543 146.874 306.511 146.867 306.479 146.871H305.094C305.023 146.871 304.993 146.871 304.993 146.959V153.112C304.993 153.171 304.993 153.201 305.094 153.201H306.39C306.455 153.201 306.485 153.171 306.485 153.112V149.849H306.526L307.549 152.218C307.565 152.253 307.59 152.282 307.621 152.304C307.652 152.326 307.689 152.339 307.727 152.342H308.458C308.497 152.343 308.535 152.332 308.566 152.31C308.597 152.287 308.62 152.255 308.63 152.218L309.653 149.849H309.7V153.112C309.7 153.171 309.73 153.201 309.795 153.201H311.097C311.109 153.203 311.122 153.202 311.134 153.198C311.145 153.194 311.156 153.188 311.165 153.179C311.174 153.171 311.18 153.16 311.184 153.148C311.187 153.136 311.188 153.124 311.186 153.112V146.959C311.188 146.948 311.187 146.935 311.184 146.923C311.18 146.912 311.174 146.901 311.165 146.892C311.156 146.884 311.145 146.877 311.134 146.873C311.122 146.869 311.109 146.868 311.097 146.871V146.948ZM303.792 146.995C303.781 146.99 303.769 146.987 303.757 146.987C303.745 146.987 303.732 146.99 303.721 146.995H298.818C298.807 146.996 298.797 146.999 298.788 147.003C298.778 147.009 298.769 147.015 298.763 147.024C298.756 147.032 298.751 147.042 298.748 147.052C298.745 147.063 298.745 147.073 298.747 147.084V148.357C298.747 148.357 298.747 148.398 298.747 148.41C298.76 148.415 298.775 148.415 298.788 148.41H300.381C300.411 148.41 300.429 148.44 300.429 148.464V153.23C300.426 153.24 300.426 153.251 300.429 153.26C300.429 153.26 300.458 153.29 300.47 153.29H302.004C302.033 153.29 302.045 153.254 302.051 153.236V148.446C302.057 148.443 302.063 148.442 302.069 148.442C302.075 148.442 302.081 148.443 302.087 148.446H303.668C303.685 148.453 303.704 148.453 303.721 148.446C303.727 148.423 303.727 148.398 303.721 148.375V146.959C303.724 146.946 303.724 146.932 303.721 146.918L303.792 146.995ZM311.097 146.948H309.73C309.697 146.944 309.665 146.951 309.636 146.967C309.607 146.983 309.584 147.007 309.569 147.036L308.143 150.347H308.101L306.633 146.959C306.621 146.93 306.599 146.906 306.571 146.89C306.543 146.874 306.511 146.867 306.479 146.871H305.094C305.023 146.871 304.993 146.871 304.993 146.959V153.112C304.993 153.171 304.993 153.201 305.094 153.201H306.39C306.455 153.201 306.485 153.171 306.485 153.112V149.849H306.526L307.549 152.218C307.565 152.253 307.59 152.282 307.621 152.304C307.652 152.326 307.689 152.339 307.727 152.342H308.458C308.497 152.343 308.535 152.332 308.566 152.31C308.597 152.287 308.62 152.255 308.63 152.218L309.653 149.849H309.7V153.112C309.7 153.171 309.73 153.201 309.795 153.201H311.097C311.109 153.203 311.122 153.202 311.134 153.198C311.145 153.194 311.156 153.188 311.165 153.179C311.174 153.171 311.18 153.16 311.184 153.148C311.187 153.136 311.188 153.124 311.186 153.112V146.959C311.188 146.948 311.187 146.935 311.184 146.923C311.18 146.912 311.174 146.901 311.165 146.892C311.156 146.884 311.145 146.877 311.134 146.873C311.122 146.869 311.109 146.868 311.097 146.871V146.948Z" fill="#231F20"/>
<path fill-rule="evenodd" clip-rule="evenodd" d="M205.809 189.595H187.296C180.116 189.595 179.337 185.782 179.337 184.141C179.337 179.096 185.328 179.096 187.296 179.096H229.785V162.735H195.943H198.321H187.753C171.159 162.735 163.385 169.497 163.314 184.005C163.314 198.886 171.04 205.814 187.682 205.814H205.809C212.739 205.814 213.767 208.976 213.767 210.859C213.767 212.506 212.995 216.331 205.809 216.331H159.932C158.214 221.021 153.05 227.789 144.527 232.598H205.875C222.451 232.621 230.177 225.717 230.177 210.859C230.094 196.363 222.344 189.613 205.809 189.613V189.595Z" fill="#030305"/>
<path d="M118.881 156.712V85.9675C118.878 84.9182 118.459 83.9127 117.716 83.1696C116.972 82.4266 115.964 82.0062 114.911 82H76.1126L60.6597 104.354H104.005L75.1022 149.056H93.7823C74.1691 192.088 52.5887 235.446 40.1313 226.273C35.6322 222.957 38.699 221.808 35.3766 218.688C35.0675 218.391 32.0245 222.933 31.7214 222.643C31.4183 222.353 33.861 217.219 33.5757 216.935C16.5479 199.999 7.4248 184.988 7.4248 185.029C7.4248 185.272 7.47235 185.509 7.50207 185.752C7.53179 185.995 7.56745 186.291 7.60311 186.557C7.60311 186.717 7.64471 186.877 7.66848 187.031C7.70414 187.303 7.74575 187.57 7.78735 187.836C7.85273 188.257 7.92405 188.683 8.00726 189.097C8.0548 189.346 8.09641 189.595 8.1499 189.844C8.20339 190.092 8.24499 190.329 8.29848 190.572C8.66103 192.248 10.6224 193.888 11.1454 195.493C11.2226 195.741 11.3118 195.978 11.395 196.227V196.298C11.502 196.588 11.603 196.89 11.7159 197.18C11.8289 197.471 11.9477 197.808 12.0666 198.116C12.1201 198.258 12.1795 198.406 12.239 198.548C12.3578 198.85 12.4826 199.14 12.6015 199.437C12.7204 199.733 12.8571 200.029 12.9878 200.319L13.1542 200.692C13.2077 200.816 13.2672 200.941 13.3266 201.065C13.4871 201.408 13.6535 201.758 13.8199 202.101C13.9863 202.445 14.2062 202.865 14.4142 203.244C14.6223 203.623 14.8124 204.002 15.0086 204.369C15.2047 204.736 15.4662 205.18 15.704 205.554C15.9417 205.927 16.1794 206.335 16.4231 206.738C16.6668 207.14 16.9758 207.602 17.2611 208.023C17.5464 208.443 17.8139 208.822 18.0932 209.207C18.3725 209.592 18.6875 209.989 18.9609 210.391C19.2343 210.794 19.5553 211.155 19.8584 211.528C20.4527 212.286 21.0946 213.021 21.7424 213.731C22.0693 214.087 22.3962 214.442 22.735 214.791C23.6087 215.703 31.6025 218.836 32.708 219.825C32.8447 219.943 31.6739 222.258 31.8106 222.377C31.9473 222.495 33.4509 220.387 33.5698 220.505C34.0572 220.926 32.7377 220.239 34.5267 221.382L35.3528 221.897C36.4583 222.578 35.0675 224.195 36.2265 224.781C36.7297 225.041 37.2408 225.296 37.7599 225.545C39.3088 226.28 40.8959 226.932 42.5146 227.499L43.4537 227.819C44.0757 228.024 44.7057 228.221 45.3437 228.411L46.1936 228.648L46.3778 228.701L47.1029 228.885L47.4892 228.979L48.244 229.151C48.8919 229.299 49.5457 229.435 50.2054 229.554L50.8889 229.672L51.4832 229.773L51.816 229.82C52.0538 229.862 52.2914 229.891 52.5352 229.927L53.1295 230.004C53.4683 230.045 53.813 230.087 54.1637 230.116C54.5143 230.146 54.8472 230.187 55.1978 230.211H55.2513C55.489 230.211 55.7387 230.252 55.9824 230.264H56.333L57.1175 230.306H57.5633H58.1576C58.544 230.306 58.9243 230.306 59.3107 230.306H59.8753H60.8678C62.2645 230.306 71.9819 230.199 73.3489 230.057C73.6461 230.027 73.9432 229.998 74.2463 229.956L74.7753 229.891L75.3696 229.814L76.1482 229.696L76.6831 229.607C77.0219 229.554 78.6445 228.618 78.9773 228.559C87.8448 225.805 92.7897 222.27 92.7422 222.193C72.3801 192.129 93.497 168.538 105.348 163.617C109.567 161.514 114.143 160.213 118.84 159.78L118.881 156.712ZM118.881 94.9505V86.0148C118.879 84.9683 118.463 83.9648 117.721 83.2237C116.979 82.4825 115.973 82.0639 114.923 82.0592H76.1185L60.6657 104.378H104.005L75.1319 149.032H93.7823L31.971 222.46L53.9616 173.068L31.9175 172.985L37.017 160.283H11.2761C9.10084 160.283 7.66848 162.06 7.66848 164.221L7.70414 179.925C7.70414 194.871 22.3487 210.403 32.7793 219.635C32.9279 219.759 31.5907 222.466 31.763 222.596C31.9354 222.726 33.5163 220.275 33.659 220.399C42.473 227.842 46.9484 230.246 59.382 230.246H59.9407C83.7142 216.627 54.2706 157.695 118.852 94.9327L118.881 94.9505Z" fill="#E8157C"/>
<path d="M31.8463 223.158L34.818 215.117L48.4878 177.544L27.3115 177.829L32.2683 164.582L11.1157 164.896C11.1157 165.02 11.1157 165.411 11.1157 165.535V182.649C11.1236 190.452 12.9598 198.145 16.4783 205.116C19.9969 212.087 25.1005 218.144 31.3827 222.803C31.46 222.862 31.8285 223.099 31.9057 223.158H31.8463Z" fill="white"/>
<path d="M75.5064 182.365C77.8915 176.603 81.5562 171.455 86.2242 167.307C90.8921 163.158 96.4432 160.117 102.46 158.412V94.2222C102.455 93.1766 102.037 92.1749 101.296 91.4345C100.555 90.694 99.551 90.2744 98.5014 90.2666H62.841L49.4981 111.377H90.3827L61.587 155.925H80.4989L32.0721 222.661L43.8935 177.586H22.6161L27.775 164.754H5.01179C3.96288 164.759 2.95818 165.176 2.21592 165.914C1.47366 166.652 1.05381 167.653 1.04756 168.698L1 185.995C2.18868 208.195 21.4512 226.688 51.9765 232.26C77.6282 234.67 73.0221 229.725 81.2834 223.839C76.6957 218.072 73.74 211.187 72.7243 203.899C71.7086 196.61 72.669 189.183 75.5064 182.388V182.365Z" fill="#26B6EA"/>
<path d="M109.116 92.3331V158.483C81.5568 168.603 72.0296 200.224 90.2223 223.881C89.367 224.5 88.4779 225.07 87.5597 225.592C86.8227 226.036 86.2224 226.445 85.7766 226.676C83.448 227.927 81.0231 228.992 78.5257 229.862C77.6817 230.152 76.8318 230.418 75.976 230.667C75.4827 230.809 74.9894 230.945 74.4961 231.07L73.7472 231.253C72.9983 231.437 72.2435 231.597 71.4828 231.739C71.1499 231.798 70.8231 231.863 70.4843 231.916L69.9494 232.005L69.1767 232.118C68.9865 232.153 68.7904 232.177 68.5824 232.201L68.0594 232.266L67.1679 232.366C65.8128 232.503 64.4458 232.585 63.055 232.609H62.0684H61.5038H60.3626C60.1546 232.609 59.9585 232.609 59.7683 232.609H59.3285L58.5439 232.568H58.1992L57.4682 232.514H57.4206L56.3924 232.42C56.0418 232.39 55.703 232.349 55.3642 232.301C55.1621 232.301 54.9601 232.26 54.7699 232.224C54.5797 232.189 54.2885 232.165 54.0507 232.124L53.7238 232.076L53.1295 231.976L52.452 231.857C51.7982 231.739 51.1444 231.602 50.5025 231.454C50.247 231.407 50.0033 231.342 49.7536 231.283L49.3733 231.194L48.6482 231.01L48.4639 230.957L47.62 230.72C46.99 230.537 46.36 230.341 45.7419 230.128L44.8147 229.808C43.1959 229.246 41.6088 228.598 40.06 227.866L38.5325 227.114C37.3854 226.522 36.2621 225.888 35.1686 225.207L34.3484 224.698C33.5341 224.177 32.6307 223.727 31.8521 223.158L31.5966 222.975C31.127 222.631 31.7689 223.2 31.7689 223.2L88.5225 151.857H68.9093L97.6278 107.445H55.2632L67.5601 88.4959L68.9033 86.4233H103.09C104.684 86.4326 106.211 87.0674 107.339 88.1902C108.467 89.313 109.106 90.8333 109.116 92.4219V92.3331Z" fill="#030305"/>
<path d="M31.8936 223.188L34.8653 215.158L48.5351 177.391H27.3231L32.0422 164.754H11.1333C11.1333 164.872 11.1333 164.991 11.1333 165.115V182.205C11.1384 190.073 12.9673 197.834 16.4776 204.882C19.9879 211.93 25.0847 218.075 31.3706 222.839L31.8995 223.188H31.8936Z" fill="#030305"/>
<path fill-rule="evenodd" clip-rule="evenodd" d="M138.257 211.38C135.184 214.426 131.148 216.318 126.833 216.734C122.519 217.15 118.194 216.064 114.592 213.662C110.99 211.26 108.335 207.688 107.076 203.556C105.819 199.424 106.036 194.984 107.692 190.994C109.347 187.002 112.339 183.706 116.159 181.664C119.978 179.622 124.389 178.962 128.642 179.794C132.895 180.627 136.727 182.901 139.488 186.23C142.248 189.559 143.766 193.738 143.784 198.057C143.82 200.536 143.349 202.995 142.399 205.287C141.448 207.577 140.039 209.651 138.257 211.38ZM149.739 173.352C144.834 168.46 138.581 165.128 131.774 163.779C124.967 162.43 117.911 163.124 111.5 165.773C105.088 168.422 99.6103 172.907 95.759 178.661C91.9083 184.414 89.8572 191.176 89.8667 198.091C89.8756 205.006 91.9445 211.764 95.8107 217.506C99.6769 223.25 105.167 227.72 111.585 230.353C118.003 232.985 125.061 233.66 131.865 232.293C138.669 230.926 144.912 227.578 149.805 222.673C153.094 219.472 155.695 215.639 157.449 211.405C159.204 207.171 160.075 202.625 160.01 198.045C160.021 193.457 159.12 188.912 157.358 184.674C155.594 180.435 153.005 176.587 149.739 173.352Z" fill="#030305"/>
</g>
<g clip-path="url(#clip1_348_81)">
<path fill-rule="evenodd" clip-rule="evenodd" d="M283.484 232.621V205.838H251.389V232.621H235.009V162.747H251.371V189.536H283.466V162.741H299.828V223.466C299.826 225.894 298.858 228.221 297.135 229.938C295.412 231.655 293.076 232.619 290.639 232.621H283.484Z" fill="#030305"/>
<path d="M303.792 146.918C303.781 146.913 303.769 146.91 303.757 146.91C303.745 146.91 303.732 146.913 303.721 146.918H298.818C298.807 146.919 298.797 146.922 298.788 146.926C298.778 146.932 298.769 146.938 298.763 146.946C298.756 146.955 298.751 146.965 298.748 146.975C298.745 146.986 298.745 146.996 298.747 147.007V148.28C298.747 148.28 298.747 148.321 298.747 148.333C298.76 148.338 298.775 148.338 298.788 148.333H300.381C300.411 148.333 300.429 148.363 300.429 148.387V153.153C300.426 153.163 300.426 153.174 300.429 153.183C300.429 153.183 300.458 153.213 300.47 153.213H302.004C302.033 153.213 302.045 153.177 302.051 153.159V148.369C302.057 148.366 302.063 148.365 302.069 148.365C302.075 148.365 302.081 148.366 302.087 148.369H303.668C303.685 148.376 303.704 148.376 303.721 148.369C303.727 148.346 303.727 148.321 303.721 148.298V146.959C303.724 146.946 303.724 146.932 303.721 146.918H303.792ZM311.097 146.871H309.73C309.697 146.867 309.665 146.874 309.636 146.89C309.607 146.906 309.584 146.93 309.569 146.959L308.143 150.27H308.101L306.633 146.959C306.621 146.93 306.599 146.906 306.571 146.89C306.543 146.874 306.511 146.867 306.479 146.871H305.094C305.023 146.871 304.993 146.871 304.993 146.959V153.112C304.993 153.171 304.993 153.201 305.094 153.201H306.39C306.455 153.201 306.485 153.171 306.485 153.112V149.849H306.526L307.549 152.218C307.565 152.253 307.59 152.282 307.621 152.304C307.652 152.326 307.689 152.339 307.727 152.342H308.458C308.497 152.343 308.535 152.332 308.566 152.31C308.597 152.287 308.62 152.255 308.63 152.218L309.653 149.849H309.7V153.112C309.7 153.171 309.73 153.201 309.795 153.201H311.097C311.109 153.203 311.122 153.202 311.134 153.198C311.145 153.194 311.156 153.188 311.165 153.179C311.174 153.171 311.18 153.16 311.184 153.148C311.187 153.136 311.188 153.124 311.186 153.112V146.959C311.188 146.948 311.187 146.935 311.184 146.923C311.18 146.912 311.174 146.901 311.165 146.892C311.156 146.884 311.145 146.877 311.134 146.873C311.122 146.869 311.109 146.868 311.097 146.871ZM311.097 146.871H309.73C309.697 146.867 309.665 146.874 309.636 146.89C309.607 146.906 309.584 146.93 309.569 146.959L308.143 150.27H308.101L306.633 146.959C306.621 146.93 306.599 146.906 306.571 146.89C306.543 146.874 306.511 146.867 306.479 146.871H305.094C305.023 146.871 304.993 146.871 304.993 146.959V153.112C304.993 153.171 304.993 153.201 305.094 153.201H306.39C306.455 153.201 306.485 153.171 306.485 153.112V149.849H306.526L307.549 152.218C307.565 152.253 307.59 152.282 307.621 152.304C307.652 152.326 307.689 152.339 307.727 152.342H308.458C308.497 152.343 308.535 152.332 308.566 152.31C308.597 152.287 308.62 152.255 308.63 152.218L309.653 149.849H309.7V153.112C309.7 153.171 309.73 153.201 309.795 153.201H311.097C311.109 153.203 311.122 153.202 311.134 153.198C311.145 153.194 311.156 153.188 311.165 153.179C311.174 153.171 311.18 153.16 311.184 153.148C311.187 153.136 311.188 153.124 311.186 153.112V146.959C311.188 146.948 311.187 146.935 311.184 146.923C311.18 146.912 311.174 146.901 311.165 146.892C311.156 146.884 311.145 146.877 311.134 146.873C311.122 146.869 311.109 146.868 311.097 146.871ZM303.792 146.918C303.781 146.913 303.769 146.91 303.757 146.91C303.745 146.91 303.732 146.913 303.721 146.918H298.818C298.807 146.919 298.797 146.922 298.788 146.926C298.778 146.932 298.769 146.938 298.763 146.946C298.756 146.955 298.751 146.965 298.748 146.975C298.745 146.986 298.745 146.996 298.747 147.007V148.28C298.747 148.28 298.747 148.321 298.747 148.333C298.76 148.338 298.775 148.338 298.788 148.333H300.381C300.411 148.333 300.429 148.363 300.429 148.387V153.153C300.426 153.163 300.426 153.174 300.429 153.183C300.429 153.183 300.458 153.213 300.47 153.213H302.004C302.033 153.213 302.045 153.177 302.051 153.159V148.369C302.057 148.366 302.063 148.365 302.069 148.365C302.075 148.365 302.081 148.366 302.087 148.369H303.668C303.685 148.376 303.704 148.376 303.721 148.369C303.727 148.346 303.727 148.321 303.721 148.298V146.959C303.724 146.946 303.724 146.932 303.721 146.918H303.792ZM303.792 146.918C303.781 146.913 303.769 146.91 303.757 146.91C303.745 146.91 303.732 146.913 303.721 146.918H298.818C298.807 146.919 298.797 146.922 298.788 146.926C298.778 146.932 298.769 146.938 298.763 146.946C298.756 146.955 298.751 146.965 298.748 146.975C298.745 146.986 298.745 146.996 298.747 147.007V148.28C298.747 148.28 298.747 148.321 298.747 148.333C298.76 148.338 298.775 148.338 298.788 148.333H300.381C300.411 148.333 300.429 148.363 300.429 148.387V153.153C300.426 153.163 300.426 153.174 300.429 153.183C300.429 153.183 300.458 153.213 300.47 153.213H302.004C302.033 153.213 302.045 153.177 302.051 153.159V148.369C302.057 148.366 302.063 148.365 302.069 148.365C302.075 148.365 302.081 148.366 302.087 148.369H303.668C303.685 148.376 303.704 148.376 303.721 148.369C303.727 148.346 303.727 148.321 303.721 148.298V146.959C303.724 146.946 303.724 146.932 303.721 146.918H303.792ZM311.097 146.871H309.73C309.697 146.867 309.665 146.874 309.636 146.89C309.607 146.906 309.584 146.93 309.569 146.959L308.143 150.27H308.101L306.633 146.959C306.621 146.93 306.599 146.906 306.571 146.89C306.543 146.874 306.511 146.867 306.479 146.871H305.094C305.023 146.871 304.993 146.871 304.993 146.959V153.112C304.993 153.171 304.993 153.201 305.094 153.201H306.39C306.455 153.201 306.485 153.171 306.485 153.112V149.849H306.526L307.549 152.218C307.565 152.253 307.59 152.282 307.621 152.304C307.652 152.326 307.689 152.339 307.727 152.342H308.458C308.497 152.343 308.535 152.332 308.566 152.31C308.597 152.287 308.62 152.255 308.63 152.218L309.653 149.849H309.7V153.112C309.7 153.171 309.73 153.201 309.795 153.201H311.097C311.109 153.203 311.122 153.202 311.134 153.198C311.145 153.194 311.156 153.188 311.165 153.179C311.174 153.171 311.18 153.16 311.184 153.148C311.187 153.136 311.188 153.124 311.186 153.112V146.959C311.188 146.948 311.187 146.935 311.184 146.923C311.18 146.912 311.174 146.901 311.165 146.892C311.156 146.884 311.145 146.877 311.134 146.873C311.122 146.869 311.109 146.868 311.097 146.871ZM311.097 146.871H309.73C309.697 146.867 309.665 146.874 309.636 146.89C309.607 146.906 309.584 146.93 309.569 146.959L308.143 150.27H308.101L306.633 146.959C306.621 146.93 306.599 146.906 306.571 146.89C306.543 146.874 306.511 146.867 306.479 146.871H305.094C305.023 146.871 304.993 146.871 304.993 146.959V153.112C304.993 153.171 304.993 153.201 305.094 153.201H306.39C306.455 153.201 306.485 153.171 306.485 153.112V149.849H306.526L307.549 152.218C307.565 152.253 307.59 152.282 307.621 152.304C307.652 152.326 307.689 152.339 307.727 152.342H308.458C308.497 152.343 308.535 152.332 308.566 152.31C308.597 152.287 308.62 152.255 308.63 152.218L309.653 149.849H309.7V153.112C309.7 153.171 309.73 153.201 309.795 153.201H311.097C311.109 153.203 311.122 153.202 311.134 153.198C311.145 153.194 311.156 153.188 311.165 153.179C311.174 153.171 311.18 153.16 311.184 153.148C311.187 153.136 311.188 153.124 311.186 153.112V146.959C311.188 146.948 311.187 146.935 311.184 146.923C311.18 146.912 311.174 146.901 311.165 146.892C311.156 146.884 311.145 146.877 311.134 146.873C311.122 146.869 311.109 146.868 311.097 146.871ZM303.792 146.918C303.781 146.913 303.769 146.91 303.757 146.91C303.745 146.91 303.732 146.913 303.721 146.918H298.818C298.807 146.919 298.797 146.922 298.788 146.926C298.778 146.932 298.769 146.938 298.763 146.946C298.756 146.955 298.751 146.965 298.748 146.975C298.745 146.986 298.745 146.996 298.747 147.007V148.28C298.747 148.28 298.747 148.321 298.747 148.333C298.76 148.338 298.775 148.338 298.788 148.333H300.381C300.411 148.333 300.429 148.363 300.429 148.387V153.153C300.426 153.163 300.426 153.174 300.429 153.183C300.429 153.183 300.458 153.213 300.47 153.213H302.004C302.033 153.213 302.045 153.177 302.051 153.159V148.369C302.057 148.366 302.063 148.365 302.069 148.365C302.075 148.365 302.081 148.366 302.087 148.369H303.668C303.685 148.376 303.704 148.376 303.721 148.369C303.727 148.346 303.727 148.321 303.721 148.298V146.959C303.724 146.946 303.724 146.932 303.721 146.918H303.792ZM303.792 146.918C303.781 146.913 303.769 146.91 303.757 146.91C303.745 146.91 303.732 146.913 303.721 146.918H298.818C298.807 146.919 298.797 146.922 298.788 146.926C298.778 146.932 298.769 146.938 298.763 146.946C298.756 146.955 298.751 146.965 298.748 146.975C298.745 146.986 298.745 146.996 298.747 147.007V148.28C298.747 148.28 298.747 148.321 298.747 148.333C298.76 148.338 298.775 148.338 298.788 148.333H300.381C300.411 148.333 300.429 148.363 300.429 148.387V153.153C300.426 153.163 300.426 153.174 300.429 153.183C300.429 153.183 300.458 153.213 300.47 153.213H302.004C302.033 153.213 302.045 153.177 302.051 153.159V148.369C302.057 148.366 302.063 148.365 302.069 148.365C302.075 148.365 302.081 148.366 302.087 148.369H303.668C303.685 148.376 303.704 148.376 303.721 148.369C303.727 148.346 303.727 148.321 303.721 148.298V146.959C303.724 146.946 303.724 146.932 303.721 146.918H303.792ZM311.103 146.918H309.736C309.703 146.914 309.671 146.922 309.642 146.938C309.613 146.953 309.59 146.977 309.575 147.007L308.149 150.317H308.107L306.633 146.959C306.621 146.93 306.599 146.906 306.571 146.89C306.543 146.874 306.511 146.867 306.479 146.871H305.094C305.023 146.871 304.993 146.871 304.993 146.959V153.112C304.993 153.171 304.993 153.201 305.094 153.201H306.39C306.455 153.201 306.485 153.171 306.485 153.112V149.849H306.526L307.549 152.218C307.565 152.253 307.59 152.282 307.621 152.304C307.652 152.326 307.689 152.339 307.727 152.342H308.458C308.497 152.343 308.535 152.332 308.566 152.31C308.597 152.287 308.62 152.255 308.63 152.218L309.653 149.849H309.7V153.112C309.7 153.171 309.73 153.201 309.795 153.201H311.097C311.109 153.203 311.122 153.202 311.134 153.198C311.145 153.194 311.156 153.188 311.165 153.179C311.174 153.171 311.18 153.16 311.184 153.148C311.187 153.136 311.188 153.124 311.186 153.112V146.959C311.188 146.948 311.187 146.935 311.184 146.923C311.18 146.912 311.174 146.901 311.165 146.892C311.156 146.884 311.145 146.877 311.134 146.873C311.122 146.869 311.109 146.868 311.097 146.871L311.103 146.918ZM304.975 158.69C303.267 158.691 301.597 158.187 300.176 157.243C298.755 156.298 297.647 154.955 296.993 153.383C296.338 151.81 296.167 150.081 296.499 148.411C296.832 146.742 297.654 145.208 298.861 144.004C300.068 142.8 301.607 141.98 303.283 141.648C304.958 141.315 306.695 141.486 308.273 142.136C309.851 142.788 311.2 143.89 312.15 145.305C313.099 146.72 313.605 148.384 313.605 150.086C313.605 152.367 312.696 154.554 311.078 156.168C309.46 157.781 307.265 158.688 304.975 158.69ZM304.975 139.427C302.859 139.427 300.791 140.052 299.032 141.224C297.273 142.395 295.901 144.06 295.091 146.007C294.282 147.955 294.07 150.098 294.483 152.166C294.896 154.233 295.915 156.133 297.41 157.623C298.907 159.113 300.813 160.129 302.889 160.54C304.963 160.952 307.114 160.74 309.069 159.934C311.024 159.127 312.695 157.76 313.871 156.008C315.046 154.255 315.673 152.194 315.673 150.086C315.673 147.259 314.546 144.548 312.54 142.549C310.533 140.55 307.813 139.427 304.975 139.427ZM303.787 146.948C303.775 146.943 303.763 146.94 303.751 146.94C303.739 146.94 303.727 146.943 303.715 146.948H298.812C298.801 146.948 298.791 146.951 298.782 146.956C298.772 146.961 298.763 146.968 298.757 146.976C298.75 146.985 298.745 146.994 298.742 147.004C298.739 147.015 298.739 147.026 298.741 147.036V148.31C298.741 148.31 298.741 148.351 298.741 148.363C298.754 148.368 298.769 148.368 298.782 148.363H300.375C300.405 148.363 300.423 148.393 300.423 148.416V153.183C300.42 153.193 300.42 153.203 300.423 153.213C300.423 153.213 300.452 153.242 300.464 153.242H301.998C302.027 153.242 302.039 153.207 302.045 153.189V148.398C302.051 148.396 302.057 148.394 302.063 148.394C302.07 148.394 302.075 148.396 302.081 148.398H303.662C303.679 148.406 303.698 148.406 303.715 148.398C303.721 148.375 303.721 148.35 303.715 148.327V146.959C303.718 146.946 303.718 146.932 303.715 146.918L303.787 146.948ZM311.097 146.948H309.73C309.697 146.944 309.665 146.951 309.636 146.967C309.607 146.983 309.584 147.007 309.569 147.036L308.143 150.347H308.101L306.633 146.959C306.621 146.93 306.599 146.906 306.571 146.89C306.543 146.874 306.511 146.867 306.479 146.871H305.094C305.023 146.871 304.993 146.871 304.993 146.959V153.112C304.993 153.171 304.993 153.201 305.094 153.201H306.39C306.455 153.201 306.485 153.171 306.485 153.112V149.849H306.526L307.549 152.218C307.565 152.253 307.59 152.282 307.621 152.304C307.652 152.326 307.689 152.339 307.727 152.342H308.458C308.497 152.343 308.535 152.332 308.566 152.31C308.597 152.287 308.62 152.255 308.63 152.218L309.653 149.849H309.7V153.112C309.7 153.171 309.73 153.201 309.795 153.201H311.097C311.109 153.203 311.122 153.202 311.134 153.198C311.145 153.194 311.156 153.188 311.165 153.179C311.174 153.171 311.18 153.16 311.184 153.148C311.187 153.136 311.188 153.124 311.186 153.112V146.959C311.188 146.948 311.187 146.935 311.184 146.923C311.18 146.912 311.174 146.901 311.165 146.892C311.156 146.884 311.145 146.877 311.134 146.873C311.122 146.869 311.109 146.868 311.097 146.871V146.948ZM311.097 146.948H309.73C309.697 146.944 309.665 146.951 309.636 146.967C309.607 146.983 309.584 147.007 309.569 147.036L308.143 150.347H308.101L306.633 146.959C306.621 146.93 306.599 146.906 306.571 146.89C306.543 146.874 306.511 146.867 306.479 146.871H305.094C305.023 146.871 304.993 146.871 304.993 146.959V153.112C304.993 153.171 304.993 153.201 305.094 153.201H306.39C306.455 153.201 306.485 153.171 306.485 153.112V149.849H306.526L307.549 152.218C307.565 152.253 307.59 152.282 307.621 152.304C307.652 152.326 307.689 152.339 307.727 152.342H308.458C308.497 152.343 308.535 152.332 308.566 152.31C308.597 152.287 308.62 152.255 308.63 152.218L309.653 149.849H309.7V153.112C309.7 153.171 309.73 153.201 309.795 153.201H311.097C311.109 153.203 311.122 153.202 311.134 153.198C311.145 153.194 311.156 153.188 311.165 153.179C311.174 153.171 311.18 153.16 311.184 153.148C311.187 153.136 311.188 153.124 311.186 153.112V146.959C311.188 146.948 311.187 146.935 311.184 146.923C311.18 146.912 311.174 146.901 311.165 146.892C311.156 146.884 311.145 146.877 311.134 146.873C311.122 146.869 311.109 146.868 311.097 146.871V146.948ZM303.792 146.995C303.781 146.99 303.769 146.987 303.757 146.987C303.745 146.987 303.732 146.99 303.721 146.995H298.818C298.807 146.996 298.797 146.999 298.788 147.003C298.778 147.009 298.769 147.015 298.763 147.024C298.756 147.032 298.751 147.042 298.748 147.052C298.745 147.063 298.745 147.073 298.747 147.084V148.357C298.747 148.357 298.747 148.398 298.747 148.41C298.76 148.415 298.775 148.415 298.788 148.41H300.381C300.411 148.41 300.429 148.44 300.429 148.464V153.23C300.426 153.24 300.426 153.251 300.429 153.26C300.429 153.26 300.458 153.29 300.47 153.29H302.004C302.033 153.29 302.045 153.254 302.051 153.236V148.446C302.057 148.443 302.063 148.442 302.069 148.442C302.075 148.442 302.081 148.443 302.087 148.446H303.668C303.685 148.453 303.704 148.453 303.721 148.446C303.727 148.423 303.727 148.398 303.721 148.375V146.959C303.724 146.946 303.724 146.932 303.721 146.918L303.792 146.995ZM303.792 146.995C303.781 146.99 303.769 146.987 303.757 146.987C303.745 146.987 303.732 146.99 303.721 146.995H298.818C298.807 146.996 298.797 146.999 298.788 147.003C298.778 147.009 298.769 147.015 298.763 147.024C298.756 147.032 298.751 147.042 298.748 147.052C298.745 147.063 298.745 147.073 298.747 147.084V148.357C298.747 148.357 298.747 148.398 298.747 148.41C298.76 148.415 298.775 148.415 298.788 148.41H300.381C300.411 148.41 300.429 148.44 300.429 148.464V153.23C300.426 153.24 300.426 153.251 300.429 153.26C300.429 153.26 300.458 153.29 300.47 153.29H302.004C302.033 153.29 302.045 153.254 302.051 153.236V148.446C302.057 148.443 302.063 148.442 302.069 148.442C302.075 148.442 302.081 148.443 302.087 148.446H303.668C303.685 148.453 303.704 148.453 303.721 148.446C303.727 148.423 303.727 148.398 303.721 148.375V146.959C303.724 146.946 303.724 146.932 303.721 146.918L303.792 146.995ZM311.097 146.948H309.73C309.697 146.944 309.665 146.951 309.636 146.967C309.607 146.983 309.584 147.007 309.569 147.036L308.143 150.347H308.101L306.633 146.959C306.621 146.93 306.599 146.906 306.571 146.89C306.543 146.874 306.511 146.867 306.479 146.871H305.094C305.023 146.871 304.993 146.871 304.993 146.959V153.112C304.993 153.171 304.993 153.201 305.094 153.201H306.39C306.455 153.201 306.485 153.171 306.485 153.112V149.849H306.526L307.549 152.218C307.565 152.253 307.59 152.282 307.621 152.304C307.652 152.326 307.689 152.339 307.727 152.342H308.458C308.497 152.343 308.535 152.332 308.566 152.31C308.597 152.287 308.62 152.255 308.63 152.218L309.653 149.849H309.7V153.112C309.7 153.171 309.73 153.201 309.795 153.201H311.097C311.109 153.203 311.122 153.202 311.134 153.198C311.145 153.194 311.156 153.188 311.165 153.179C311.174 153.171 311.18 153.16 311.184 153.148C311.187 153.136 311.188 153.124 311.186 153.112V146.959C311.188 146.948 311.187 146.935 311.184 146.923C311.18 146.912 311.174 146.901 311.165 146.892C311.156 146.884 311.145 146.877 311.134 146.873C311.122 146.869 311.109 146.868 311.097 146.871V146.948ZM311.097 146.948H309.73C309.697 146.944 309.665 146.951 309.636 146.967C309.607 146.983 309.584 147.007 309.569 147.036L308.143 150.347H308.101L306.633 146.959C306.621 146.93 306.599 146.906 306.571 146.89C306.543 146.874 306.511 146.867 306.479 146.871H305.094C305.023 146.871 304.993 146.871 304.993 146.959V153.112C304.993 153.171 304.993 153.201 305.094 153.201H306.39C306.455 153.201 306.485 153.171 306.485 153.112V149.849H306.526L307.549 152.218C307.565 152.253 307.59 152.282 307.621 152.304C307.652 152.326 307.689 152.339 307.727 152.342H308.458C308.497 152.343 308.535 152.332 308.566 152.31C308.597 152.287 308.62 152.255 308.63 152.218L309.653 149.849H309.7V153.112C309.7 153.171 309.73 153.201 309.795 153.201H311.097C311.109 153.203 311.122 153.202 311.134 153.198C311.145 153.194 311.156 153.188 311.165 153.179C311.174 153.171 311.18 153.16 311.184 153.148C311.187 153.136 311.188 153.124 311.186 153.112V146.959C311.188 146.948 311.187 146.935 311.184 146.923C311.18 146.912 311.174 146.901 311.165 146.892C311.156 146.884 311.145 146.877 311.134 146.873C311.122 146.869 311.109 146.868 311.097 146.871V146.948ZM303.792 146.995C303.781 146.99 303.769 146.987 303.757 146.987C303.745 146.987 303.732 146.99 303.721 146.995H298.818C298.807 146.996 298.797 146.999 298.788 147.003C298.778 147.009 298.769 147.015 298.763 147.024C298.756 147.032 298.751 147.042 298.748 147.052C298.745 147.063 298.745 147.073 298.747 147.084V148.357C298.747 148.357 298.747 148.398 298.747 148.41C298.76 148.415 298.775 148.415 298.788 148.41H300.381C300.411 148.41 300.429 148.44 300.429 148.464V153.23C300.426 153.24 300.426 153.251 300.429 153.26C300.429 153.26 300.458 153.29 300.47 153.29H302.004C302.033 153.29 302.045 153.254 302.051 153.236V148.446C302.057 148.443 302.063 148.442 302.069 148.442C302.075 148.442 302.081 148.443 302.087 148.446H303.668C303.685 148.453 303.704 148.453 303.721 148.446C303.727 148.423 303.727 148.398 303.721 148.375V146.959C303.724 146.946 303.724 146.932 303.721 146.918L303.792 146.995ZM303.792 146.995C303.781 146.99 303.769 146.987 303.757 146.987C303.745 146.987 303.732 146.99 303.721 146.995H298.818C298.807 146.996 298.797 146.999 298.788 147.003C298.778 147.009 298.769 147.015 298.763 147.024C298.756 147.032 298.751 147.042 298.748 147.052C298.745 147.063 298.745 147.073 298.747 147.084V148.357C298.747 148.357 298.747 148.398 298.747 148.41C298.76 148.415 298.775 148.415 298.788 148.41H300.381C300.411 148.41 300.429 148.44 300.429 148.464V153.23C300.426 153.24 300.426 153.251 300.429 153.26C300.429 153.26 300.458 153.29 300.47 153.29H302.004C302.033 153.29 302.045 153.254 302.051 153.236V148.446C302.057 148.443 302.063 148.442 302.069 148.442C302.075 148.442 302.081 148.443 302.087 148.446H303.668C303.685 148.453 303.704 148.453 303.721 148.446C303.727 148.423 303.727 148.398 303.721 148.375V146.959C303.724 146.946 303.724 146.932 303.721 146.918L303.792 146.995ZM311.097 146.948H309.73C309.697 146.944 309.665 146.951 309.636 146.967C309.607 146.983 309.584 147.007 309.569 147.036L308.143 150.347H308.101L306.633 146.959C306.621 146.93 306.599 146.906 306.571 146.89C306.543 146.874 306.511 146.867 306.479 146.871H305.094C305.023 146.871 304.993 146.871 304.993 146.959V153.112C304.993 153.171 304.993 153.201 305.094 153.201H306.39C306.455 153.201 306.485 153.171 306.485 153.112V149.849H306.526L307.549 152.218C307.565 152.253 307.59 152.282 307.621 152.304C307.652 152.326 307.689 152.339 307.727 152.342H308.458C308.497 152.343 308.535 152.332 308.566 152.31C308.597 152.287 308.62 152.255 308.63 152.218L309.653 149.849H309.7V153.112C309.7 153.171 309.73 153.201 309.795 153.201H311.097C311.109 153.203 311.122 153.202 311.134 153.198C311.145 153.194 311.156 153.188 311.165 153.179C311.174 153.171 311.18 153.16 311.184 153.148C311.187 153.136 311.188 153.124 311.186 153.112V146.959C311.188 146.948 311.187 146.935 311.184 146.923C311.18 146.912 311.174 146.901 311.165 146.892C311.156 146.884 311.145 146.877 311.134 146.873C311.122 146.869 311.109 146.868 311.097 146.871V146.948ZM303.792 146.995C303.781 146.99 303.769 146.987 303.757 146.987C303.745 146.987 303.732 146.99 303.721 146.995H298.818C298.807 146.996 298.797 146.999 298.788 147.003C298.778 147.009 298.769 147.015 298.763 147.024C298.756 147.032 298.751 147.042 298.748 147.052C298.745 147.063 298.745 147.073 298.747 147.084V148.357C298.747 148.357 298.747 148.398 298.747 148.41C298.76 148.415 298.775 148.415 298.788 148.41H300.381C300.411 148.41 300.429 148.44 300.429 148.464V153.23C300.426 153.24 300.426 153.251 300.429 153.26C300.429 153.26 300.458 153.29 300.47 153.29H302.004C302.033 153.29 302.045 153.254 302.051 153.236V148.446C302.057 148.443 302.063 148.442 302.069 148.442C302.075 148.442 302.081 148.443 302.087 148.446H303.668C303.685 148.453 303.704 148.453 303.721 148.446C303.727 148.423 303.727 148.398 303.721 148.375V146.959C303.724 146.946 303.724 146.932 303.721 146.918L303.792 146.995ZM311.097 146.948H309.73C309.697 146.944 309.665 146.951 309.636 146.967C309.607 146.983 309.584 147.007 309.569 147.036L308.143 150.347H308.101L306.633 146.959C306.621 146.93 306.599 146.906 306.571 146.89C306.543 146.874 306.511 146.867 306.479 146.871H305.094C305.023 146.871 304.993 146.871 304.993 146.959V153.112C304.993 153.171 304.993 153.201 305.094 153.201H306.39C306.455 153.201 306.485 153.171 306.485 153.112V149.849H306.526L307.549 152.218C307.565 152.253 307.59 152.282 307.621 152.304C307.652 152.326 307.689 152.339 307.727 152.342H308.458C308.497 152.343 308.535 152.332 308.566 152.31C308.597 152.287 308.62 152.255 308.63 152.218L309.653 149.849H309.7V153.112C309.7 153.171 309.73 153.201 309.795 153.201H311.097C311.109 153.203 311.122 153.202 311.134 153.198C311.145 153.194 311.156 153.188 311.165 153.179C311.174 153.171 311.18 153.16 311.184 153.148C311.187 153.136 311.188 153.124 311.186 153.112V146.959C311.188 146.948 311.187 146.935 311.184 146.923C311.18 146.912 311.174 146.901 311.165 146.892C311.156 146.884 311.145 146.877 311.134 146.873C311.122 146.869 311.109 146.868 311.097 146.871V146.948Z" fill="#231F20"/>
<path fill-rule="evenodd" clip-rule="evenodd" d="M205.809 189.595H187.296C180.116 189.595 179.337 185.782 179.337 184.141C179.337 179.096 185.328 179.096 187.296 179.096H229.785V162.735H195.943H198.321H187.753C171.159 162.735 163.385 169.497 163.314 184.005C163.314 198.886 171.04 205.814 187.682 205.814H205.809C212.739 205.814 213.767 208.976 213.767 210.859C213.767 212.506 212.995 216.331 205.809 216.331H159.932C158.214 221.021 153.05 227.789 144.527 232.598H205.875C222.451 232.621 230.177 225.717 230.177 210.859C230.094 196.363 222.344 189.613 205.809 189.613V189.595Z" fill="#030305"/>
<path d="M118.881 156.712V85.9675C118.878 84.9182 118.459 83.9127 117.716 83.1696C116.972 82.4266 115.964 82.0062 114.911 82H76.1126L60.6597 104.354H104.005L75.1022 149.056H93.7823C74.1691 192.088 52.5887 235.446 40.1313 226.273C35.6322 222.957 38.699 221.808 35.3766 218.688C35.0675 218.391 32.0245 222.933 31.7214 222.643C31.4183 222.353 33.861 217.219 33.5757 216.935C16.5479 199.999 7.4248 184.988 7.4248 185.029C7.4248 185.272 7.47235 185.509 7.50207 185.752C7.53179 185.995 7.56745 186.291 7.60311 186.557C7.60311 186.717 7.64471 186.877 7.66848 187.031C7.70414 187.303 7.74575 187.57 7.78735 187.836C7.85273 188.257 7.92405 188.683 8.00726 189.097C8.0548 189.346 8.09641 189.595 8.1499 189.844C8.20339 190.092 8.24499 190.329 8.29848 190.572C8.66103 192.248 10.6224 193.888 11.1454 195.493C11.2226 195.741 11.3118 195.978 11.395 196.227V196.298C11.502 196.588 11.603 196.89 11.7159 197.18C11.8289 197.471 11.9477 197.808 12.0666 198.116C12.1201 198.258 12.1795 198.406 12.239 198.548C12.3578 198.85 12.4826 199.14 12.6015 199.437C12.7204 199.733 12.8571 200.029 12.9878 200.319L13.1542 200.692C13.2077 200.816 13.2672 200.941 13.3266 201.065C13.4871 201.408 13.6535 201.758 13.8199 202.101C13.9863 202.445 14.2062 202.865 14.4142 203.244C14.6223 203.623 14.8124 204.002 15.0086 204.369C15.2047 204.736 15.4662 205.18 15.704 205.554C15.9417 205.927 16.1794 206.335 16.4231 206.738C16.6668 207.14 16.9758 207.602 17.2611 208.023C17.5464 208.443 17.8139 208.822 18.0932 209.207C18.3725 209.592 18.6875 209.989 18.9609 210.391C19.2343 210.794 19.5553 211.155 19.8584 211.528C20.4527 212.286 21.0946 213.021 21.7424 213.731C22.0693 214.087 22.3962 214.442 22.735 214.791C23.6087 215.703 31.6025 218.836 32.708 219.825C32.8447 219.943 31.6739 222.258 31.8106 222.377C31.9473 222.495 33.4509 220.387 33.5698 220.505C34.0572 220.926 32.7377 220.239 34.5267 221.382L35.3528 221.897C36.4583 222.578 35.0675 224.195 36.2265 224.781C36.7297 225.041 37.2408 225.296 37.7599 225.545C39.3088 226.28 40.8959 226.932 42.5146 227.499L43.4537 227.819C44.0757 228.024 44.7057 228.221 45.3437 228.411L46.1936 228.648L46.3778 228.701L47.1029 228.885L47.4892 228.979L48.244 229.151C48.8919 229.299 49.5457 229.435 50.2054 229.554L50.8889 229.672L51.4832 229.773L51.816 229.82C52.0538 229.862 52.2914 229.891 52.5352 229.927L53.1295 230.004C53.4683 230.045 53.813 230.087 54.1637 230.116C54.5143 230.146 54.8472 230.187 55.1978 230.211H55.2513C55.489 230.211 55.7387 230.252 55.9824 230.264H56.333L57.1175 230.306H57.5633H58.1576C58.544 230.306 58.9243 230.306 59.3107 230.306H59.8753H60.8678C62.2645 230.306 71.9819 230.199 73.3489 230.057C73.6461 230.027 73.9432 229.998 74.2463 229.956L74.7753 229.891L75.3696 229.814L76.1482 229.696L76.6831 229.607C77.0219 229.554 78.6445 228.618 78.9773 228.559C87.8448 225.805 92.7897 222.27 92.7422 222.193C72.3801 192.129 93.497 168.538 105.348 163.617C109.567 161.514 114.143 160.213 118.84 159.78L118.881 156.712ZM118.881 94.9505V86.0148C118.879 84.9683 118.463 83.9648 117.721 83.2237C116.979 82.4825 115.973 82.0639 114.923 82.0592H76.1185L60.6657 104.378H104.005L75.1319 149.032H93.7823L31.971 222.46L53.9616 173.068L31.9175 172.985L37.017 160.283H11.2761C9.10084 160.283 7.66848 162.06 7.66848 164.221L7.70414 179.925C7.70414 194.871 22.3487 210.403 32.7793 219.635C32.9279 219.759 31.5907 222.466 31.763 222.596C31.9354 222.726 33.5163 220.275 33.659 220.399C42.473 227.842 46.9484 230.246 59.382 230.246H59.9407C83.7142 216.627 54.2706 157.695 118.852 94.9327L118.881 94.9505Z" fill="#E8157C"/>
<path d="M31.8463 223.158L34.818 215.117L48.4878 177.544L27.3115 177.829L32.2683 164.582L11.1157 164.896C11.1157 165.02 11.1157 165.411 11.1157 165.535V182.649C11.1236 190.452 12.9598 198.145 16.4783 205.116C19.9969 212.087 25.1005 218.144 31.3827 222.803C31.46 222.862 31.8285 223.099 31.9057 223.158H31.8463Z" fill="white"/>
<path d="M75.5064 182.365C77.8915 176.603 81.5562 171.455 86.2242 167.307C90.8921 163.158 96.4432 160.117 102.46 158.412V94.2222C102.455 93.1766 102.037 92.1749 101.296 91.4345C100.555 90.694 99.551 90.2744 98.5014 90.2666H62.841L49.4981 111.377H90.3827L61.587 155.925H80.4989L32.0721 222.661L43.8935 177.586H22.6161L27.775 164.754H5.01179C3.96288 164.759 2.95818 165.176 2.21592 165.914C1.47366 166.652 1.05381 167.653 1.04756 168.698L1 185.995C2.18868 208.195 21.4512 226.688 51.9765 232.26C77.6282 234.67 73.0221 229.725 81.2834 223.839C76.6957 218.072 73.74 211.187 72.7243 203.899C71.7086 196.61 72.669 189.183 75.5064 182.388V182.365Z" fill="#26B6EA"/>
<path d="M109.116 92.3331V158.483C81.5568 168.603 72.0296 200.224 90.2223 223.881C89.367 224.5 88.4779 225.07 87.5597 225.592C86.8227 226.036 86.2224 226.445 85.7766 226.676C83.448 227.927 81.0231 228.992 78.5257 229.862C77.6817 230.152 76.8318 230.418 75.976 230.667C75.4827 230.809 74.9894 230.945 74.4961 231.07L73.7472 231.253C72.9983 231.437 72.2435 231.597 71.4828 231.739C71.1499 231.798 70.8231 231.863 70.4843 231.916L69.9494 232.005L69.1767 232.118C68.9865 232.153 68.7904 232.177 68.5824 232.201L68.0594 232.266L67.1679 232.366C65.8128 232.503 64.4458 232.585 63.055 232.609H62.0684H61.5038H60.3626C60.1546 232.609 59.9585 232.609 59.7683 232.609H59.3285L58.5439 232.568H58.1992L57.4682 232.514H57.4206L56.3924 232.42C56.0418 232.39 55.703 232.349 55.3642 232.301C55.1621 232.301 54.9601 232.26 54.7699 232.224C54.5797 232.189 54.2885 232.165 54.0507 232.124L53.7238 232.076L53.1295 231.976L52.452 231.857C51.7982 231.739 51.1444 231.602 50.5025 231.454C50.247 231.407 50.0033 231.342 49.7536 231.283L49.3733 231.194L48.6482 231.01L48.4639 230.957L47.62 230.72C46.99 230.537 46.36 230.341 45.7419 230.128L44.8147 229.808C43.1959 229.246 41.6088 228.598 40.06 227.866L38.5325 227.114C37.3854 226.522 36.2621 225.888 35.1686 225.207L34.3484 224.698C33.5341 224.177 32.6307 223.727 31.8521 223.158L31.5966 222.975C31.127 222.631 31.7689 223.2 31.7689 223.2L88.5225 151.857H68.9093L97.6278 107.445H55.2632L67.5601 88.4959L68.9033 86.4233H103.09C104.684 86.4326 106.211 87.0674 107.339 88.1902C108.467 89.313 109.106 90.8333 109.116 92.4219V92.3331Z" fill="#030305"/>
<path d="M31.8936 223.188L34.8653 215.158L48.5351 177.391H27.3231L32.0422 164.754H11.1333C11.1333 164.872 11.1333 164.991 11.1333 165.115V182.205C11.1384 190.073 12.9673 197.834 16.4776 204.882C19.9879 211.93 25.0847 218.075 31.3706 222.839L31.8995 223.188H31.8936Z" fill="#030305"/>
<path fill-rule="evenodd" clip-rule="evenodd" d="M138.257 211.38C135.184 214.426 131.148 216.318 126.833 216.734C122.519 217.15 118.194 216.064 114.592 213.662C110.99 211.26 108.335 207.688 107.076 203.556C105.819 199.424 106.036 194.984 107.692 190.994C109.347 187.002 112.339 183.706 116.159 181.664C119.978 179.622 124.389 178.962 128.642 179.794C132.895 180.627 136.727 182.901 139.488 186.23C142.248 189.559 143.766 193.738 143.784 198.057C143.82 200.536 143.349 202.995 142.399 205.287C141.448 207.577 140.039 209.651 138.257 211.38ZM149.739 173.352C144.834 168.46 138.581 165.128 131.774 163.779C124.967 162.43 117.911 163.124 111.5 165.773C105.088 168.422 99.6103 172.907 95.759 178.661C91.9083 184.414 89.8572 191.176 89.8667 198.091C89.8756 205.006 91.9445 211.764 95.8107 217.506C99.6769 223.25 105.167 227.72 111.585 230.353C118.003 232.985 125.061 233.66 131.865 232.293C138.669 230.926 144.912 227.578 149.805 222.673C153.094 219.472 155.695 215.639 157.449 211.405C159.204 207.171 160.075 202.625 160.01 198.045C160.021 193.457 159.12 188.912 157.358 184.674C155.594 180.435 153.005 176.587 149.739 173.352Z" fill="#030305"/>
</g>
<defs>
<clipPath id="clip0_348_81">
<rect width="315" height="151" fill="white" transform="translate(1 82)"/>
</clipPath>
<clipPath id="clip1_348_81">
<rect width="315" height="151" fill="white" transform="translate(1 82)"/>
</clipPath>
</defs>
</svg>
