<svg width="316" height="315" viewBox="0 0 316 315" fill="none" xmlns="http://www.w3.org/2000/svg">
<g clip-path="url(#clip0_228_1259)">
<path d="M315.5 148.873H309.2L309.198 172.226H303.736L303.738 148.873L297.436 148.871V144.16H315.502L315.5 148.873ZM284.264 154.92C286.45 155.678 288.505 156.435 289.934 157.743C291.194 158.879 292.326 160.773 292.324 163.635C292.322 169.105 288.371 172.848 282.573 172.844C277.406 172.842 274.385 169.684 272.915 167.538L276.489 164.131C277.832 166.867 280.391 167.878 282.367 167.878C284.846 167.882 286.695 166.367 286.697 164.012C286.697 163.001 286.361 162.2 285.608 161.485C284.556 160.516 282.876 159.968 281.28 159.42C279.81 158.914 278.044 158.241 276.617 156.977C275.695 156.178 274.394 154.619 274.394 151.757C274.396 147.634 277.171 143.512 283.389 143.514C285.153 143.516 288.472 143.856 291.327 146.802L288.468 150.545C286.831 148.356 284.898 148.146 283.891 148.144C280.951 148.142 280.024 149.995 280.024 151.426C280.024 152.097 280.234 152.729 280.904 153.32C281.575 153.95 282.499 154.286 284.264 154.92ZM259.677 172.212L259.681 144.146H265.141L265.139 172.212H259.677ZM237.783 172.239L226.015 144.173H231.98L239.459 163.025L246.935 144.171H252.901L241.059 172.239H237.783ZM207.727 172.846C204.241 172.844 200.63 172.127 197.564 169.05C196.597 168.086 193.408 164.547 193.412 158.237C193.416 152.807 195.853 149.483 197.534 147.802C199.636 145.657 203.166 143.512 208.585 143.516C210.685 143.518 212.911 143.856 215.052 144.994C216.86 145.919 218.832 147.605 220.302 150.129L215.554 152.696C214.589 150.8 213.16 149.832 212.279 149.367C211.101 148.778 209.631 148.482 208.328 148.482C206.104 148.48 203.582 149.279 201.857 150.961C200.263 152.517 199.041 155.208 199.039 158.366C199.038 162.109 200.634 164.343 201.808 165.478C203.068 166.7 205.044 167.88 208.025 167.88C209.874 167.882 211.974 167.378 213.529 166.2C214.62 165.36 215.715 163.931 216.178 161.91L208.952 161.907L208.956 157.191L221.809 157.201V157.535C221.809 159.431 221.554 165.321 217.685 169.15C214.786 172.051 211.216 172.848 207.727 172.846ZM182.858 172.21L167.026 154.331L167.028 172.214L161.568 172.212L161.57 144.146H165.352L181.18 161.98V144.142H186.642L186.638 172.212L182.858 172.21ZM146.876 144.146H152.336V172.212H146.876V144.146ZM122.992 144.125L128.454 144.123L128.466 167.032L138.892 167.036V172.193H123.008L122.992 144.125ZM45.4108 187.12C45.1483 187.272 44.8217 187.081 44.8217 186.776V180.628C44.8217 180.338 44.9753 180.072 45.2261 179.928L82.5711 158.329L45.2261 136.73C44.9753 136.586 44.8217 136.32 44.8217 136.03V129.876C44.8217 129.57 45.1483 129.382 45.4108 129.533L94.2942 157.808C94.6967 158.039 94.6967 158.618 94.2942 158.85L45.4108 187.12ZM44.8217 161.382C44.8217 161.638 44.6856 161.877 44.46 162.006L1.40223 186.912C1.00168 187.143 0.501953 186.854 0.501953 186.391V129.059C0.501953 128.933 0.599175 128.833 0.721675 128.833H6.63084C6.75334 128.833 6.85445 128.933 6.85445 129.059V176.463L44.32 154.784C44.5436 154.656 44.8217 154.817 44.8217 155.072V161.382Z" fill="black"/>
</g>
<defs>
<clipPath id="clip0_228_1259">
<rect width="315" height="58.3333" fill="white" transform="translate(0.5 128.833)"/>
</clipPath>
</defs>
</svg>
