<svg width="316" height="315" viewBox="0 0 316 315" fill="none" xmlns="http://www.w3.org/2000/svg">
<path fill-rule="evenodd" clip-rule="evenodd" d="M74.0419 146.01C73.3143 143.257 72.2518 140.598 70.8626 138.064C68.6519 134.034 65.7262 130.521 62.1648 127.623C58.4779 124.622 54.2701 122.414 49.6562 121.062C46.3526 120.094 42.9496 119.604 39.5389 119.604H39.5362C35.7349 119.604 31.9735 120.208 28.3523 121.399C24.7832 122.573 21.4374 124.289 18.4069 126.498C18.2209 126.634 18.0371 126.77 17.8566 126.909L17.8874 126.873C7.99785 134.102 1.58203 145.729 1.58203 158.841C1.58203 163.313 2.33059 167.612 3.70612 171.623C4.39434 173.794 5.29624 175.902 6.40955 177.929C8.62029 181.959 11.546 185.472 15.1069 188.371C18.7939 191.371 23.0021 193.578 27.615 194.931C30.9182 195.898 34.3226 196.389 37.7355 196.389C41.536 196.389 45.2992 195.786 48.9199 194.594C52.4889 193.42 55.8348 191.705 58.8653 189.494C60.2413 188.491 61.5356 187.397 62.7433 186.219L62.7551 186.211C70.6639 178.958 75.6162 168.585 75.6162 157.065C75.6162 153.228 75.0654 149.52 74.0419 146.01Z" fill="#FCD01F"/>
<path fill-rule="evenodd" clip-rule="evenodd" d="M44.2349 142.438C46.8843 136.252 45.5129 128.76 38.9977 127.916C34.6538 127.354 30.8951 130.683 29.5795 134.161C28.0084 138.313 28.5428 142.194 29.0441 144.904C29.5813 147.811 31.0131 149.208 32.6753 149.921C35.1043 150.963 37.6258 150.137 39.421 148.72C41.5646 147.029 43.2354 144.77 44.2349 142.438Z" fill="white"/>
<path fill-rule="evenodd" clip-rule="evenodd" d="M42.8208 185.933C42.6516 185.933 42.4842 185.894 42.3231 185.816C42.0509 185.684 41.5814 185.243 41.746 184.51C41.761 184.446 41.8436 184.168 41.942 183.92C42.7936 181.8 46.8607 172.079 47.0104 171.723C47.1837 171.312 47.2999 170.699 46.8712 170.117C46.7577 169.963 46.6194 169.838 46.4502 169.734C46.2279 169.597 45.9593 169.516 45.7138 169.512L45.6821 169.51L45.6494 169.51C45.5297 169.51 45.1114 169.531 44.7421 169.818C44.4141 170.072 44.2893 170.307 44.1437 170.578C44.1215 170.619 44.1006 170.661 44.0775 170.702C44.0489 170.756 44.0189 170.812 43.9872 170.869L38.2029 182.339C38.0894 182.593 37.8268 183.01 37.7306 183.134C37.5382 183.386 37.354 183.492 37.2325 183.551C36.9135 183.704 36.5601 183.703 36.2398 183.548C35.8891 183.377 35.5534 182.924 35.6446 182.331C35.656 182.254 35.6836 182.157 35.7349 182.004C35.8111 181.78 35.9449 181.443 35.9504 181.429C36.3596 180.393 40.6649 169.316 40.9299 168.562C41.2366 167.693 40.7289 167.055 40.4186 166.84C40.2335 166.711 40.0371 166.593 39.6569 166.55C39.6106 166.544 39.5612 166.542 39.5103 166.542C39.2286 166.542 38.9419 166.626 38.7033 166.778C38.6016 166.845 38.4968 166.918 38.3462 167.096C38.0777 167.501 35.7589 172.173 34.2196 175.272C32.8146 178.102 32.0143 179.713 31.8964 179.901L31.8683 179.958C31.8193 180.054 31.7539 180.185 31.6627 180.312C31.4368 180.626 31.1796 180.803 30.8774 180.85C30.8048 180.862 30.7377 180.868 30.671 180.868C30.5109 180.868 30.3929 180.834 30.2954 180.8C29.9597 180.687 29.5863 180.324 29.5645 179.798C29.5536 179.547 29.6548 179.119 29.9143 178.319C29.9284 178.275 29.9392 178.243 29.9438 178.228L29.9488 178.209C31.3062 174.068 34.1107 166.395 35.2467 164.264C35.3511 164.066 36.1223 162.093 38.1362 161.141C39.2749 160.603 40.3061 160.346 41.9615 160.546C44.219 160.819 46.6239 162.126 47.3285 162.484C49.2511 163.461 51.0191 164.822 51.6252 165.902C52.5901 167.625 52.6573 170.081 51.1679 173.079C49.3373 176.769 44.415 184.587 44.3723 184.653C44.1782 184.951 43.8043 185.483 43.489 185.71C43.2862 185.857 43.0558 185.933 42.8208 185.933Z" fill="white"/>
<path fill-rule="evenodd" clip-rule="evenodd" d="M54.7482 165.685C54.3585 162.551 52.5048 158.538 47.0961 155.712C46.9342 155.625 43.4395 153.553 38.0749 152.809C35.9875 152.52 32.3768 152.394 29.0532 152.897C25.1248 153.492 22.582 154.535 21.735 154.999C20.8045 155.508 20.4697 156.697 21.0295 157.625C21.3984 158.237 22.2826 158.841 23.4594 158.378C23.4594 158.378 24.4969 157.894 25.8834 157.411C26.5462 157.18 27.3138 156.949 28.0392 156.771C29.6965 156.362 31.0058 156.18 32.0578 156.082C33.1335 155.983 33.9397 155.972 34.4464 155.972C40.5864 155.972 45.1698 157.585 48.1151 159.939C49.8971 161.363 51.0993 163.277 51.5639 164.95C52.1954 167.225 52.3737 169.565 50.7396 172.87C49.0011 176.388 44.0906 184.214 43.9717 184.395C43.8365 184.603 43.4677 185.141 43.2091 185.327C42.891 185.555 42.6084 185.427 42.5313 185.391C42.4823 185.367 42.0917 185.146 42.2124 184.613C42.2192 184.583 42.2927 184.326 42.3866 184.094C43.2454 181.953 47.3461 172.129 47.4504 171.906C47.7721 171.219 47.8075 170.453 47.3416 169.779C47.1751 169.538 46.9845 169.372 46.7622 169.232C46.4555 169.038 46.0921 168.935 45.7582 168.935C45.7582 168.935 45.0519 168.873 44.429 169.394C43.9685 169.78 43.8356 170.153 43.6546 170.482C43.6274 170.536 43.596 170.59 43.5643 170.647L37.77 182.138C37.6806 182.342 37.4334 182.742 37.3513 182.847C37.2138 183.024 37.0958 183.09 37.0242 183.126C36.7592 183.252 36.5419 183.166 36.448 183.122C36.286 183.044 36.0556 182.792 36.1168 182.401C36.1241 182.35 36.1531 182.259 36.1876 182.156C36.2611 181.941 36.394 181.602 36.394 181.602C36.8055 180.563 41.0968 169.494 41.3808 168.718C41.8136 167.542 41.1734 166.7 40.7288 166.38C40.5301 166.237 40.2257 166.051 39.7358 165.999C39.3216 165.955 38.8316 166.048 38.4133 166.336C38.2586 166.442 38.0672 166.601 37.8626 166.901C37.5876 167.304 31.7688 179.206 31.4916 179.652C31.4481 179.723 31.3746 179.895 31.2734 180.037C31.1165 180.257 30.9667 180.356 30.8021 180.383C30.6347 180.41 30.5489 180.386 30.4505 180.352C30.2813 180.295 30.0544 180.093 30.0408 179.777C30.0267 179.456 30.3811 178.438 30.4033 178.354C31.7335 174.297 34.5299 166.622 35.6686 164.485C36.3967 163.118 37.6525 162.323 39.2286 162.332C41.2383 162.344 42.8457 163.376 43.9327 163.972C44.0747 164.049 44.257 164.142 44.4344 164.218C44.8777 164.407 45.4003 164.368 45.8281 164.069C45.9896 163.956 46.1312 163.802 46.2518 163.585C46.412 163.293 46.4732 162.888 46.3394 162.489C46.1479 161.919 45.6122 161.632 45.5146 161.575C43.8551 160.591 41.139 159.905 39.9181 159.833C39.591 159.813 39.112 159.765 38.509 159.844C37.0623 160.036 35.7058 160.731 34.7141 162.204C33.2124 164.437 28.9343 177.084 28.0614 179.968C27.7398 181.03 27.9843 181.708 28.3355 182.205C28.6898 182.707 29.2124 183.011 29.5563 183.113C30.5666 183.414 31.3478 183.099 31.8859 182.639C32.1685 182.397 32.5405 181.914 32.8055 181.341C32.8055 181.341 38.5989 168.868 38.9886 168.34C39.1374 168.139 39.396 168.169 39.5194 168.284C39.601 168.362 39.6795 168.494 39.6133 168.681C38.0894 172.967 34.5743 181.199 34.3312 181.9C34.1497 182.422 33.9564 182.881 33.9025 183.313C33.8271 183.929 33.9637 184.47 34.3321 185.007C34.4623 185.197 34.6546 185.377 34.8239 185.507C35.258 185.845 35.8591 186.01 36.3242 185.991C37.2791 185.951 37.9596 185.457 38.4092 184.727C38.5703 184.466 38.691 184.201 38.7998 184.001C38.7998 184.001 44.7525 171.757 45.1222 171.257C45.168 171.196 45.2515 171.143 45.3436 171.125C45.4144 171.112 45.486 171.121 45.5713 171.16C45.6317 171.187 45.6884 171.234 45.7333 171.325C45.7646 171.385 45.7823 171.488 45.7474 171.589C44.9049 174.052 40.5252 183.953 40.3627 184.405C40.2725 184.657 40.1218 185.006 40.0511 185.261C39.8115 186.117 40.0765 187.074 40.8423 187.717C41.2542 188.063 41.9855 188.342 42.6701 188.233C43.3488 188.126 44.0116 187.719 44.5374 187.094C45.1 186.425 45.6553 185.611 45.8263 185.351C45.8263 185.351 50.1693 179.024 52.3818 175.259C54.5164 171.627 55.1061 168.545 54.7482 165.685Z" fill="#343433"/>
<path fill-rule="evenodd" clip-rule="evenodd" d="M44.5982 130.845C43.3225 128.763 40.6794 127.106 37.3812 127.383C34.2286 127.648 31.5438 129.621 30.0676 131.56C28.1803 134.04 26.8946 137.211 26.7766 141.736C26.7281 143.615 26.9767 145.731 27.419 148.096C27.8641 150.475 28.5709 152.664 29.0327 156.255C29.084 156.657 29.3426 159.975 28.4126 163.172C28.0428 164.445 27.4422 166.236 26.7376 167.843C25.7504 170.096 24.6076 172.834 23.1563 174.796C22.7104 175.399 22.2336 175.579 21.6588 175.451C21.5118 175.418 21.2618 175.294 21.1085 175.129C20.7628 174.759 20.5627 174.249 20.8204 173.268C21.4682 170.807 23.7942 166.375 24.8363 164.577C25.2223 163.939 25.632 163.282 26.0662 162.605C26.1025 162.547 26.1193 162.518 26.1583 162.46C26.5031 161.949 26.3724 161.265 25.8534 160.933C25.3553 160.615 24.6702 160.74 24.3345 161.265C24.2701 161.366 24.198 161.478 24.1335 161.579C21.6161 165.527 19.3024 169.863 18.3197 172.445C17.4251 174.793 17.6574 176.108 18.219 177.115C18.7947 178.147 19.5855 178.749 20.6149 179.104C21.1148 179.278 21.8543 179.354 22.2921 179.302C24.2388 179.064 25.2722 178.009 26.3452 176.056C28.423 172.27 30.1066 168.109 31.0752 164.345C32.0433 160.587 32.0424 158.048 31.9344 156.271C31.8396 154.704 31.4925 153.101 31.0411 151.421C30.778 150.443 30.421 148.87 29.9374 146.632C28.4126 139.567 29.9977 135.214 31.8051 132.874C32.6222 131.818 33.6969 131.009 34.475 130.615C38.5181 128.569 42.509 130.815 42.8765 134.859C43.4563 141.211 38.6193 145.031 37.2306 146.093C37.1657 146.144 36.9575 146.312 36.9153 146.353C36.5306 146.668 36.2897 147.146 36.2983 147.678C36.3146 148.608 37.0872 149.349 38.0254 149.333C38.3915 149.328 38.7263 149.207 38.9999 149.008C39.6114 148.627 40.2688 148.072 40.9475 147.405C42.2536 146.122 43.3116 144.695 44.2049 143.05C46.6379 138.563 46.4846 133.921 44.5982 130.845Z" fill="#343433"/>
<path fill-rule="evenodd" clip-rule="evenodd" d="M58.1951 137.756C58.1951 136.571 57.2256 135.61 56.0302 135.61C55.1968 135.61 54.4737 136.079 54.1121 136.764C53.9905 136.972 53.9465 137.134 53.9465 137.134L53.9329 137.165L47.8637 153.006C47.6359 153.585 47.9177 154.217 48.4888 154.442C48.6381 154.5 48.7928 154.524 48.9425 154.518C49.6144 154.488 49.8943 153.914 49.8943 153.914C49.8943 153.914 57.8993 138.865 57.9914 138.66C58.1216 138.385 58.1951 138.079 58.1951 137.756Z" fill="#343433"/>
<path fill-rule="evenodd" clip-rule="evenodd" d="M74.4838 153.927C73.9594 149.338 72.5603 144.945 70.3246 140.869C68.0894 136.794 65.1296 133.241 61.5288 130.31C57.8001 127.274 53.5433 125.042 48.8782 123.674C45.5369 122.695 42.0945 122.199 38.6447 122.199C34.7985 122.199 30.9927 122.81 27.3315 124.015C23.7208 125.203 20.3368 126.938 17.2718 129.173C14.2912 131.347 11.6835 133.944 9.51586 136.894C15.8577 126.475 27.3216 120.09 39.5503 120.089C42.8475 120.089 46.197 120.552 49.5179 121.526C65.165 126.111 75.1607 140.547 74.6558 155.987C74.6177 155.301 74.5619 154.615 74.4838 153.927ZM72.1679 167.748L72.1529 167.798L72.1366 167.848C70.9076 171.926 68.9858 175.612 66.5369 178.82C59.9764 187.416 49.6313 192.569 38.6715 192.569C35.3892 192.569 32.0552 192.108 28.7474 191.138C14.3965 186.934 4.82173 174.405 3.79643 160.439C3.56052 157.227 3.77692 153.941 4.49009 150.661C4.63345 150.074 4.7809 149.473 4.9297 148.868C4.99095 148.647 5.05265 148.425 5.11843 148.204L5.1334 148.151L5.14565 148.109C6.30387 144.226 8.08952 140.697 10.3579 137.597C16.8926 128.665 27.4459 123.289 38.642 123.288C41.9243 123.287 45.2584 123.749 48.5661 124.718C63.1557 128.994 72.8084 141.871 73.5615 156.116C73.7634 159.942 73.3265 163.865 72.1679 167.748ZM37.7224 195.904C34.4251 195.904 31.0761 195.441 27.7539 194.468C15.3846 190.842 6.54749 181.062 3.63855 169.494C3.42941 168.457 3.20983 167.368 3.00341 166.349C2.65681 164.106 2.52933 161.812 2.63911 159.498C2.67541 160.308 2.73756 161.118 2.83056 161.929C3.3541 166.519 4.75232 170.912 6.98891 174.987C9.22461 179.063 12.1839 182.616 15.7851 185.547C19.5134 188.584 23.7702 190.814 28.4362 192.183C31.7762 193.161 35.22 193.657 38.6715 193.657C42.515 193.657 46.3209 193.047 49.9829 191.842C53.5918 190.655 56.9767 188.92 60.0417 186.686C63.1262 184.436 65.8101 181.735 68.0227 178.656C61.7393 189.337 50.124 195.904 37.7224 195.904ZM74.5982 145.822C73.861 143.025 72.7817 140.325 71.3694 137.751C69.1242 133.657 66.1522 130.089 62.5351 127.145C58.7905 124.097 54.5164 121.855 49.83 120.482C46.4751 119.499 43.0177 119 39.5539 119H39.5503C35.6909 119 31.8692 119.614 28.1908 120.824C24.566 122.016 21.167 123.759 18.0889 126.004C17.9011 126.14 17.7142 126.28 17.5295 126.42L17.5617 126.384C7.51608 133.726 1 145.536 1 158.855C1 163.397 1.7599 167.763 3.15766 171.836C3.85677 174.043 4.77273 176.183 5.90328 178.243C8.14895 182.336 11.1205 185.905 14.7376 188.848C18.4822 191.897 22.7567 194.139 27.4431 195.511C30.7976 196.495 34.2559 196.993 37.7224 196.993C41.5823 196.993 45.4049 196.38 49.0819 195.17C52.7067 193.978 56.1061 192.235 59.1842 189.99C60.5816 188.972 61.8963 187.859 63.1235 186.663L63.1344 186.654C71.1693 179.289 76.1987 168.752 76.1987 157.05C76.1987 153.153 75.6394 149.386 74.5982 145.822Z" fill="white"/>
<path fill-rule="evenodd" clip-rule="evenodd" d="M95.1542 174.364C95.1542 176.83 93.333 178.413 91.2171 178.413C89.1019 178.413 87.2783 176.83 87.2783 175.211V150.072C87.2927 146.912 87.1405 143.458 88.6396 140.883C90.7764 137.217 93.9556 136.533 97.6267 136.519H102.972C105.913 136.519 107.087 138.045 107.087 140.042C107.087 142.037 105.913 143.564 102.972 143.564H99.7539C98.4343 143.613 96.7991 143.351 95.945 144.228C95.1574 145.041 95.1886 145.74 95.1542 147.346V152.6H99.9839C102.924 152.6 104.099 154.129 104.099 156.123C104.099 158.118 102.924 159.646 99.9839 159.646H95.1542V174.364Z" fill="#444040"/>
<path fill-rule="evenodd" clip-rule="evenodd" d="M107.587 149.007C107.587 146.66 108.586 145.136 110.938 145.136C113.288 145.136 114.286 146.66 114.286 149.007V152.003H114.404C115.263 147.643 116.969 145.092 119.751 145.136C121.875 145.169 123.433 146.573 123.28 149.77C123.175 151.942 122.164 154.057 118.812 154.057C116.58 154.057 114.761 155.583 114.761 158.4V174.133C114.761 177.066 113.349 178.413 111.172 178.413C108.998 178.413 107.587 177.066 107.587 174.133V149.007Z" fill="#444040"/>
<path fill-rule="evenodd" clip-rule="evenodd" d="M139.043 157.696V155.057C139.043 152.646 138.279 150.769 135.929 150.769C133.576 150.769 132.814 152.646 132.814 155.057V157.696H139.043ZM125.289 158.461C125.289 150.359 126.467 144.975 136.223 145.136C143.712 145.261 146.214 149.303 146.214 157.637C146.214 160.513 145.859 162.743 142.215 162.743H132.814V165.973C132.814 169.786 132.763 172.826 136.046 172.781C137.573 172.759 138.754 171.796 138.808 169.492C138.882 166.381 140.337 165.678 142.335 165.678C144.449 165.678 145.978 166.381 145.978 169.2C145.978 174.953 142.225 178.305 136.223 178.413C126.469 178.594 125.289 173.19 125.289 165.09V158.461Z" fill="#444040"/>
<path fill-rule="evenodd" clip-rule="evenodd" d="M155.584 162.099C151.469 159.044 150.762 157.05 150.762 153.706C150.762 147.952 154.819 145.137 160.577 145.137C168.219 145.137 170.218 150.359 170.218 152.942C170.218 155.057 169.335 156.464 166.456 156.464C164.517 156.464 163.634 155.467 163.517 153.706C163.401 151.533 162.521 150.395 160.406 150.477C158.935 150.531 157.934 151.415 157.934 152.942C157.934 153.998 158.345 155.112 159.52 155.992L163.928 159.34C168.394 162.683 170.746 164.798 170.746 169.082C170.746 175.304 166.221 178.414 160.344 178.414C152.644 178.414 150.455 173.599 150.455 169.899C150.455 167.2 152.256 165.974 153.96 165.974C156.605 165.974 157.405 167.497 157.64 170.491C157.758 171.842 158.344 173.105 160.753 173.075C162.636 173.049 163.59 172.019 163.576 170.142C163.565 168.727 163.046 167.676 161.05 166.149L155.584 162.099Z" fill="#444040"/>
<path fill-rule="evenodd" clip-rule="evenodd" d="M175.539 140.736C175.539 137.801 176.948 136.448 179.123 136.448C181.298 136.448 182.709 137.801 182.709 140.736L182.763 149.244H182.881C184.059 146.485 186.82 145.136 189.581 145.136C193.578 145.136 196.457 147.601 196.457 153V174.133C196.457 177.066 195.049 178.414 192.873 178.414C190.698 178.414 189.287 177.066 189.287 174.133V154.702C189.287 152.353 188.053 151.356 186.523 151.356C184.234 151.356 182.763 153.058 182.763 157.049V174.133C182.763 177.066 181.353 178.414 179.178 178.414C177.005 178.414 175.539 177.066 175.539 174.133V140.736Z" fill="#444040"/>
<path fill-rule="evenodd" clip-rule="evenodd" d="M254.167 157.697V155.057C254.167 152.649 253.402 150.769 251.052 150.769C248.702 150.769 247.936 152.649 247.936 155.057V157.697H254.167ZM240.416 158.461C240.416 150.359 241.591 145.137 251.346 145.137C258.812 145.137 261.336 149.303 261.336 157.638C261.336 160.513 260.986 162.743 257.341 162.743H247.936V165.974C247.936 169.787 248.232 172.782 251.169 172.782C252.696 172.782 253.821 171.57 253.933 169.493C254.097 166.395 255.461 165.698 257.457 165.678C259.407 165.658 261.104 166.384 261.104 169.201C261.104 174.953 257.164 178.417 251.346 178.417C241.591 178.417 240.416 173.192 240.416 165.09V158.461Z" fill="#444040"/>
<path fill-rule="evenodd" clip-rule="evenodd" d="M266.274 149.418C266.274 146.487 267.683 145.137 269.858 145.137C272.034 145.137 273.444 146.487 273.444 149.244H273.561C274.736 146.487 277.499 145.094 280.26 145.137C284.697 145.202 287.138 147.601 287.138 153.001V174.133C287.138 177.066 285.728 178.417 283.551 178.417C281.376 178.417 279.969 177.066 279.969 174.133V154.703C279.969 152.353 278.732 151.356 277.204 151.356C274.913 151.356 273.444 153.06 273.444 157.05V174.133C273.444 177.066 272.034 178.417 269.858 178.417C267.683 178.417 266.274 177.066 266.274 174.133V149.418Z" fill="#444040"/>
<path fill-rule="evenodd" clip-rule="evenodd" d="M293.466 149.418C293.466 146.487 294.878 145.137 297.053 145.137C299.224 145.137 300.636 146.487 300.636 149.418V168.85C300.636 171.196 301.634 172.195 303.396 172.195C305.927 172.195 307.16 170.493 307.16 166.5V149.418C307.16 146.487 308.573 145.137 310.745 145.137C312.922 145.137 314.328 146.487 314.328 149.418V174.133C314.328 177.066 312.922 178.417 310.745 178.417C308.573 178.417 307.16 177.066 307.16 174.307H307.042C305.867 177.066 303.105 178.417 300.343 178.417C296.345 178.417 293.466 175.949 293.466 170.552V149.418Z" fill="#444040"/>
<path fill-rule="evenodd" clip-rule="evenodd" d="M203.404 144.663C203.404 141.198 204.529 138.293 209.167 138.121C212.951 137.978 214.862 139.86 215.517 143.822L219.039 162.807H219.146L222.669 144.838C223.521 140.468 225.084 138.085 229.018 138.121C233.768 138.163 234.782 141.254 234.782 144.719V174.741C234.782 176.981 233.128 178.419 231.208 178.419C229.284 178.419 227.631 176.981 227.631 174.741L227.612 144.713H227.576L221.653 176.074C221.387 177.301 220.963 178.419 219.095 178.419C217.225 178.419 216.798 177.301 216.532 176.074L210.516 144.713H210.469L210.555 174.741C210.555 176.981 208.901 178.419 206.98 178.419C205.059 178.419 203.404 176.981 203.404 174.741V144.663Z" fill="#444040"/>
</svg>
