<svg width="316" height="315" viewBox="0 0 316 315" fill="none" xmlns="http://www.w3.org/2000/svg">
<g clip-path="url(#clip0_228_1009)">
<path d="M77.7888 157.45C77.6271 156.621 77.3033 155.831 76.8361 155.126C76.369 154.422 75.7675 153.817 75.0661 153.345C74.3647 152.873 73.5772 152.544 72.7486 152.377C71.92 152.21 71.0666 152.207 70.2371 152.37L65.638 153.271C65.6086 153.276 65.5788 153.279 65.5489 153.279C65.477 153.277 65.4071 153.254 65.3474 153.214C65.2878 153.174 65.2406 153.118 65.2114 153.052C65.1776 152.987 65.1642 152.914 65.173 152.841C65.1817 152.768 65.2122 152.7 65.2604 152.645L68.4838 148.624C68.8632 148.146 69.1723 147.616 69.4016 147.051C69.7086 146.284 69.8596 145.463 69.8461 144.637C69.8325 143.81 69.6547 142.995 69.3227 142.238C68.9908 141.481 68.5115 140.798 67.9128 140.229C67.3141 139.659 66.6079 139.214 65.8356 138.921C65.1401 138.655 64.4019 138.519 63.6574 138.519C62.3975 138.53 61.1691 138.914 60.1282 139.624C59.0872 140.334 58.2805 141.337 57.8101 142.506L51.8666 157.365C51.7449 157.673 51.6598 157.994 51.6131 158.323C51.4658 159.397 51.7513 160.487 52.4069 161.351C53.0625 162.215 54.0345 162.784 55.1093 162.932L70.6042 165.06C70.894 165.098 71.186 165.117 71.4783 165.117C72.4281 165.117 73.3663 164.907 74.2253 164.502C75.0844 164.097 75.8429 163.506 76.4467 162.773C77.0505 162.039 77.4844 161.182 77.7173 160.261C77.9503 159.34 77.9765 158.379 77.794 157.447L77.7888 157.45Z" fill="#FDD535"/>
<path d="M284.812 166.738C283.605 167.028 282.337 166.921 281.195 166.433C280.655 166.226 280.163 165.909 279.751 165.502C279.339 165.096 279.016 164.609 278.8 164.072L290.75 161.341C291.153 161.25 291.535 161.079 291.872 160.84C292.21 160.6 292.497 160.297 292.717 159.946C292.937 159.596 293.085 159.206 293.154 158.798C293.223 158.39 293.211 157.972 293.119 157.569C292.881 156.23 292.346 154.961 291.553 153.856C290.759 152.751 289.728 151.838 288.535 151.185C286.137 149.919 283.352 149.59 280.725 150.264C277.976 150.852 275.565 152.49 274.005 154.828C273.185 156.059 272.639 157.452 272.405 158.913C272.172 160.374 272.256 161.868 272.652 163.294C272.914 164.748 273.48 166.13 274.314 167.349C275.149 168.568 276.232 169.597 277.492 170.367C280.04 171.841 283.069 172.246 285.915 171.492C287.432 171.161 288.869 170.534 290.143 169.647C291.418 168.76 292.505 167.631 293.343 166.323L289.61 163.761C289.574 163.736 289.533 163.719 289.49 163.71C289.447 163.701 289.403 163.7 289.36 163.709C289.317 163.717 289.276 163.734 289.239 163.758C289.203 163.782 289.171 163.813 289.147 163.85C288.65 164.593 288.011 165.23 287.267 165.726C286.523 166.222 285.689 166.565 284.812 166.738ZM279.022 156.751C279.768 155.87 280.782 155.256 281.908 155.003C282.955 154.733 284.064 154.853 285.028 155.34C285.517 155.606 285.948 155.966 286.296 156.4C286.644 156.833 286.903 157.332 287.057 157.866L278.014 159.932C277.947 159.362 278.003 158.783 278.176 158.235C278.35 157.688 278.637 157.183 279.02 156.754L279.022 156.751Z" fill="#131A2D"/>
<path d="M262.961 166.738C261.754 167.028 260.486 166.922 259.344 166.434C258.804 166.226 258.313 165.909 257.901 165.502C257.489 165.096 257.166 164.609 256.951 164.072L268.901 161.342C269.304 161.25 269.686 161.079 270.023 160.84C270.36 160.601 270.648 160.297 270.868 159.947C271.088 159.596 271.236 159.206 271.305 158.798C271.374 158.39 271.362 157.972 271.27 157.569C271.033 156.23 270.498 154.961 269.704 153.856C268.911 152.751 267.879 151.838 266.686 151.185C264.287 149.919 261.503 149.591 258.876 150.264C256.128 150.853 253.717 152.49 252.158 154.828C251.337 156.059 250.791 157.453 250.558 158.914C250.324 160.376 250.408 161.87 250.805 163.296C251.066 164.75 251.633 166.132 252.468 167.352C253.302 168.571 254.386 169.599 255.647 170.369C258.194 171.843 261.222 172.248 264.067 171.494C265.584 171.163 267.021 170.536 268.296 169.649C269.57 168.762 270.657 167.633 271.495 166.325L267.763 163.763C267.727 163.738 267.686 163.72 267.642 163.711C267.599 163.702 267.555 163.702 267.512 163.71C267.469 163.718 267.427 163.735 267.391 163.759C267.354 163.784 267.322 163.815 267.298 163.852C266.801 164.595 266.161 165.232 265.417 165.727C264.673 166.223 263.838 166.566 262.961 166.738ZM257.171 156.753C257.917 155.871 258.931 155.258 260.057 155.005C261.104 154.735 262.213 154.855 263.177 155.342C263.666 155.608 264.097 155.968 264.445 156.402C264.793 156.835 265.052 157.334 265.206 157.868L256.163 159.934C256.096 159.362 256.152 158.783 256.326 158.234C256.5 157.685 256.789 157.18 257.173 156.751L257.171 156.753Z" fill="#131A2D"/>
<path d="M246.885 159.581C245.823 158.382 244.392 157.572 242.817 157.277C243.289 157.067 243.617 156.916 243.8 156.824C244.145 156.621 244.474 156.391 244.782 156.136C245.492 155.563 246.053 154.827 246.416 153.991C246.779 153.154 246.934 152.241 246.866 151.332C246.87 149.556 246.211 147.843 245.018 146.528C244.178 145.67 243.128 145.046 241.973 144.717C240.414 144.24 238.789 144.014 237.159 144.048H226.889C226.834 144.048 226.778 144.059 226.727 144.08C226.676 144.101 226.629 144.132 226.59 144.172C226.551 144.211 226.52 144.257 226.498 144.309C226.477 144.36 226.466 144.415 226.466 144.471V171.566H238.493C242.266 171.566 244.913 170.713 246.433 169.007C247.709 167.624 248.412 165.808 248.399 163.927C248.448 162.341 247.909 160.793 246.885 159.581ZM232.598 149.246H235.547C236.857 149.161 238.169 149.363 239.393 149.837C239.796 150.088 240.118 150.45 240.32 150.88C240.522 151.309 240.596 151.788 240.533 152.258C240.598 152.735 240.514 153.22 240.293 153.646C240.071 154.073 239.723 154.421 239.295 154.641C238.079 155.072 236.79 155.259 235.502 155.192H232.593L232.598 149.246ZM240.755 165.724C239.502 166.226 238.154 166.448 236.806 166.374H232.6V160.036H236.217C237.729 159.954 239.243 160.161 240.678 160.646C241.146 160.865 241.533 161.227 241.785 161.68C242.036 162.132 242.138 162.653 242.076 163.166C242.137 163.676 242.044 164.191 241.809 164.647C241.575 165.103 241.209 165.479 240.76 165.726L240.755 165.724Z" fill="#131A2D"/>
<path d="M222.202 170.349C221.492 170.856 220.689 171.218 219.839 171.416C218.875 171.654 217.885 171.772 216.892 171.765C214.635 171.91 212.41 171.176 210.683 169.717C209.913 168.924 209.32 167.978 208.942 166.94C208.563 165.902 208.408 164.796 208.487 163.695V154.454H206.575V149.436H208.487V144.141C208.487 144.094 208.506 144.05 208.538 144.017C208.571 143.984 208.616 143.966 208.662 143.966H214.819C214.865 143.966 214.909 143.984 214.942 144.017C214.975 144.05 214.993 144.094 214.993 144.141V149.436H220.598V154.454H215.007V163.612C214.956 164.412 215.218 165.2 215.74 165.808C216.011 166.075 216.336 166.282 216.692 166.415C217.049 166.549 217.43 166.606 217.81 166.582C218.757 166.609 219.686 166.315 220.444 165.747L222.202 170.349Z" fill="#131A2D"/>
<path d="M197.055 144.855C196.699 144.524 196.415 144.123 196.221 143.677C196.027 143.231 195.926 142.749 195.926 142.263C195.926 141.776 196.027 141.295 196.221 140.849C196.415 140.403 196.699 140.002 197.055 139.671C197.858 138.954 198.908 138.578 199.983 138.622C201.05 138.575 202.095 138.934 202.909 139.625C203.271 139.934 203.56 140.319 203.755 140.753C203.951 141.186 204.047 141.658 204.038 142.134C204.053 142.638 203.959 143.139 203.764 143.604C203.57 144.069 203.278 144.487 202.909 144.831C202.113 145.559 201.061 145.942 199.983 145.897C198.909 145.944 197.858 145.57 197.055 144.855ZM196.905 149.037H203.061C203.108 149.037 203.152 149.055 203.185 149.088C203.218 149.121 203.236 149.165 203.236 149.212V171.526H196.714V149.22C196.714 149.197 196.719 149.175 196.727 149.153C196.736 149.132 196.749 149.113 196.765 149.097C196.782 149.08 196.801 149.068 196.822 149.059C196.843 149.05 196.866 149.045 196.889 149.045L196.905 149.037Z" fill="#131A2D"/>
<path d="M192.116 140.788V171.527H185.886V168.94C185.081 169.922 184.054 170.699 182.89 171.208C181.726 171.716 180.459 171.942 179.191 171.867C177.234 171.894 175.304 171.416 173.585 170.48C171.922 169.565 170.556 168.192 169.65 166.524C168.712 164.68 168.223 162.64 168.223 160.571C168.223 158.502 168.712 156.463 169.65 154.618C170.557 152.951 171.922 151.578 173.585 150.662C175.304 149.727 177.234 149.249 179.191 149.276C180.383 149.19 181.579 149.377 182.689 149.822C183.798 150.267 184.791 150.959 185.593 151.846V140.786C185.593 140.711 185.622 140.64 185.675 140.587C185.728 140.534 185.799 140.504 185.874 140.504H191.833C191.871 140.504 191.907 140.511 191.942 140.525C191.976 140.54 192.008 140.56 192.034 140.587C192.06 140.613 192.081 140.644 192.095 140.679C192.109 140.713 192.117 140.75 192.116 140.788ZM183.97 165.22C185.015 163.939 185.585 162.336 185.585 160.683C185.585 159.03 185.015 157.428 183.97 156.146C183.436 155.609 182.8 155.183 182.101 154.893C181.401 154.602 180.651 154.452 179.893 154.452C179.135 154.452 178.385 154.602 177.685 154.893C176.986 155.183 176.35 155.609 175.816 156.146C174.696 157.387 174.116 159.022 174.202 160.691C174.183 161.505 174.328 162.314 174.628 163.071C174.928 163.827 175.378 164.516 175.95 165.095C176.441 165.666 177.049 166.125 177.733 166.44C178.418 166.755 179.162 166.919 179.915 166.921C180.672 166.941 181.425 166.801 182.125 166.509C182.824 166.217 183.454 165.78 183.972 165.227L183.97 165.22Z" fill="#131A2D"/>
<path d="M157.77 166.836C156.563 167.126 155.295 167.019 154.154 166.531C153.614 166.323 153.123 166.006 152.711 165.6C152.299 165.194 151.976 164.707 151.761 164.17L163.71 161.441C164.114 161.349 164.495 161.179 164.833 160.94C165.171 160.701 165.458 160.397 165.678 160.047C165.898 159.696 166.047 159.306 166.116 158.898C166.185 158.49 166.173 158.072 166.081 157.669C165.843 156.33 165.308 155.061 164.515 153.956C163.722 152.851 162.692 151.938 161.499 151.285C159.1 150.018 156.316 149.689 153.688 150.362C150.94 150.95 148.529 152.587 146.969 154.926C146.148 156.157 145.602 157.55 145.369 159.011C145.135 160.472 145.22 161.966 145.616 163.392C145.877 164.846 146.444 166.228 147.278 167.447C148.112 168.666 149.195 169.695 150.456 170.465C153.004 171.94 156.033 172.344 158.879 171.59C160.396 171.259 161.833 170.632 163.107 169.745C164.381 168.858 165.469 167.729 166.306 166.421L162.574 163.859C162.538 163.834 162.497 163.816 162.454 163.808C162.411 163.799 162.367 163.798 162.324 163.807C162.281 163.815 162.24 163.832 162.203 163.856C162.167 163.88 162.135 163.911 162.111 163.948C161.613 164.691 160.973 165.329 160.228 165.824C159.484 166.32 158.648 166.664 157.77 166.836ZM151.982 156.849C152.729 155.967 153.742 155.354 154.869 155.101C155.915 154.831 157.024 154.951 157.989 155.438C158.477 155.704 158.908 156.064 159.256 156.497C159.605 156.931 159.863 157.43 160.017 157.964L150.974 160.029C150.908 159.457 150.963 158.879 151.137 158.331C151.311 157.782 151.599 157.277 151.982 156.849Z" fill="#131A2D"/>
<path d="M143.377 155.681L143.394 155.576C144.017 153.834 145.105 152.296 146.541 151.129C145.545 150.496 144.391 150.155 143.211 150.145C142.03 150.136 140.871 150.458 139.865 151.075C138.788 151.629 137.823 152.376 137.015 153.279V150.779C137.015 150.701 136.984 150.626 136.929 150.57C136.874 150.515 136.798 150.484 136.72 150.484H131.214C131.128 150.484 131.046 150.518 130.985 150.579C130.924 150.639 130.89 150.722 130.89 150.807V171.667H137.008V162.493C136.924 160.752 137.377 159.027 138.306 157.551C138.746 156.93 139.339 156.432 140.027 156.104C140.715 155.777 141.475 155.631 142.235 155.681H143.377Z" fill="#131A2D"/>
<path d="M128.735 144.266H122.075C122.005 144.265 121.937 144.281 121.876 144.314C121.815 144.346 121.763 144.393 121.725 144.451C120.792 145.894 114.637 155.251 111.876 155.721C111.851 155.726 111.824 155.725 111.799 155.719C111.774 155.712 111.751 155.7 111.731 155.683C111.711 155.667 111.695 155.646 111.684 155.622C111.673 155.598 111.668 155.573 111.668 155.546V144.672C111.668 144.563 111.625 144.459 111.549 144.382C111.472 144.306 111.368 144.263 111.259 144.263H105.957C105.849 144.263 105.745 144.306 105.668 144.382C105.591 144.459 105.548 144.563 105.548 144.672V171.735H111.667V161.247C111.667 161.205 111.675 161.164 111.692 161.126C111.71 161.088 111.735 161.054 111.766 161.026C111.797 160.999 111.834 160.978 111.874 160.966C111.913 160.954 111.956 160.95 111.997 160.955C115.117 161.515 117.969 163.081 120.115 165.414C120.955 166.228 121.609 167.215 122.032 168.306C122.454 169.396 122.635 170.566 122.562 171.734H128.681C128.594 168.916 127.757 166.173 126.256 163.787C124.756 161.4 122.645 159.458 120.143 158.16C118.606 157.328 118.724 157.298 119.872 155.956C125.849 148.963 128.174 146.053 129.039 144.92C129.085 144.859 129.113 144.787 129.12 144.712C129.127 144.636 129.113 144.56 129.079 144.492C129.045 144.424 128.993 144.366 128.929 144.326C128.864 144.286 128.79 144.265 128.714 144.264L128.735 144.266Z" fill="#131A2D"/>
<path d="M37.1025 139.161C37.7092 138.81 38.1518 138.233 38.3331 137.557C38.5144 136.88 38.4194 136.159 38.0692 135.552C37.7189 134.946 37.142 134.503 36.4654 134.322C35.7888 134.141 35.0678 134.236 34.4612 134.586C33.8545 134.936 33.4119 135.513 33.2306 136.19C33.0493 136.866 33.1443 137.587 33.4945 138.194C33.8448 138.8 34.4217 139.243 35.0983 139.424C35.7749 139.606 36.4959 139.511 37.1025 139.161Z" fill="#131A2D"/>
<path d="M28.2973 144.246C28.9039 143.895 29.3466 143.318 29.5279 142.642C29.7092 141.965 29.6143 141.244 29.264 140.637C28.9137 140.031 28.3368 139.588 27.6602 139.407C26.9836 139.226 26.2627 139.321 25.656 139.671C25.0494 140.021 24.6067 140.598 24.4254 141.275C24.2442 141.951 24.3391 142.672 24.6893 143.279C25.0396 143.885 25.6165 144.328 26.2931 144.509C26.9698 144.691 27.6907 144.596 28.2973 144.246Z" fill="#131A2D"/>
<path d="M79.1303 132.928C77.0424 129.315 73.6172 126.668 69.5943 125.559C65.5715 124.449 61.2736 124.967 57.6289 126.999L57.4261 127.114C56.9442 127.39 56.4774 127.692 56.0277 128.018L55.9945 128.041C50.8472 131.604 47.1356 136.882 45.5235 142.931C45.4233 143.307 45.3306 143.685 45.2456 144.065C45.2099 144.221 45.1391 144.366 45.0388 144.49C44.9384 144.614 44.8111 144.714 44.6665 144.781C44.5218 144.849 44.3637 144.882 44.2041 144.879C44.0446 144.877 43.8878 144.837 43.7457 144.765C41.6509 143.691 39.4483 142.843 37.1747 142.233C36.3706 142.018 35.5595 141.833 34.7414 141.679C34.1295 141.564 33.4966 141.672 32.9575 141.983C32.4183 142.295 32.0087 142.789 31.8028 143.377C31.5278 144.161 31.2831 144.956 31.0686 145.761C29.9373 149.967 29.6484 154.354 30.2184 158.672C30.7884 162.989 32.2061 167.151 34.39 170.919L34.4302 170.989L34.5228 171.148L34.626 171.323C37.027 175.36 40.2605 178.839 44.1111 181.529C47.9617 184.219 52.3411 186.058 56.9577 186.923C57.5695 187.038 58.2024 186.93 58.7416 186.619C59.2807 186.308 59.6904 185.813 59.8962 185.226C60.1712 184.44 60.4159 183.645 60.6304 182.841C61.2345 180.587 61.6001 178.276 61.7212 175.945C61.7294 175.785 61.774 175.63 61.8516 175.49C61.9293 175.35 62.0379 175.23 62.1691 175.138C62.3004 175.047 62.4508 174.987 62.6089 174.962C62.7669 174.938 62.9285 174.95 63.0812 174.998C68.6936 176.786 74.743 176.646 80.2665 174.599C81.5208 174.241 82.7261 173.729 83.8553 173.076C84.477 172.717 85.0739 172.316 85.6419 171.877C87.9188 170.113 89.6736 167.764 90.7186 165.079C91.7635 162.395 92.0594 159.478 91.5747 156.639C91.09 153.799 89.8429 151.145 87.9665 148.96C86.0902 146.775 83.6553 145.14 80.9221 144.231C81.7552 140.372 81.1162 136.341 79.1303 132.928ZM76.7057 157.611C76.8432 158.313 76.8411 159.036 76.6994 159.737C76.5577 160.439 76.2793 161.105 75.88 161.699C75.4806 162.293 74.9683 162.802 74.3721 163.198C73.7759 163.594 73.1076 163.868 72.4054 164.006C71.8159 164.119 71.2121 164.136 70.6172 164.056L55.1798 161.936H55.1257C54.3103 161.824 53.5727 161.393 53.0751 160.737C52.5776 160.082 52.3606 159.255 52.4721 158.44C52.5081 158.19 52.5732 157.944 52.6661 157.709L58.6096 142.85C59.1161 141.562 60.1072 140.523 61.3705 139.957C62.6337 139.39 64.0685 139.341 65.3676 139.819C66.0172 140.067 66.611 140.442 67.1144 140.921C67.6179 141.401 68.0211 141.975 68.3004 142.612C68.5796 143.249 68.7296 143.935 68.7414 144.63C68.7532 145.325 68.6266 146.015 68.3691 146.661C68.1756 147.139 67.9149 147.586 67.5947 147.99L64.3748 152.01C64.1989 152.23 64.0948 152.499 64.0764 152.78C64.0581 153.061 64.1264 153.341 64.2723 153.582C64.4181 153.823 64.6344 154.013 64.8918 154.127C65.1493 154.241 65.4356 154.274 65.7121 154.22L70.3112 153.32C71.7279 153.042 73.1968 153.338 74.3954 154.143C75.594 154.948 76.4243 156.195 76.704 157.611H76.7057Z" fill="#131A2D"/>
</g>
<defs>
<clipPath id="clip0_228_1009">
<rect width="315" height="82.6699" fill="white" transform="translate(0.599121 116.311)"/>
</clipPath>
</defs>
</svg>
