<svg width="316" height="315" viewBox="0 0 316 315" fill="none" xmlns="http://www.w3.org/2000/svg">
<mask id="mask0_228_494" style="mask-type:luminance" maskUnits="userSpaceOnUse" x="0" y="126" width="316" height="64">
<path d="M315.334 126.434H0.334473V189.567H315.334V126.434Z" fill="white"/>
</mask>
<g mask="url(#mask0_228_494)">
<path d="M59.8412 149.969H46.6669C45.8238 151.551 44.529 152.847 42.9474 153.69C41.3657 154.534 39.5687 154.887 37.7853 154.706C34.0846 154.41 22.3906 153.67 17.6537 153.078C16.9135 152.93 16.9135 152.486 17.6537 152.338H37.3407V150.858L17.6537 149.822C16.9135 149.822 16.9135 149.229 17.6537 149.081L37.3407 148.341V146.861L17.6537 146.565C16.9135 146.565 16.9135 145.973 17.6537 145.825L37.3407 144.492V143.012L17.6537 143.308C16.9135 143.308 16.9135 142.716 17.6537 142.716C23.2786 141.976 37.7853 140.643 37.7853 140.643C39.5415 140.394 41.332 140.685 42.9185 141.478C44.5051 142.272 45.8125 143.529 46.6669 145.084H57.7688C59.8417 145.084 60.2853 144.047 59.3972 142.419C55.6938 135.714 49.6761 130.586 42.468 127.993C35.2599 125.401 27.3546 125.521 20.2287 128.332C13.1029 131.142 7.2439 136.451 3.74627 143.266C0.248645 150.081 -0.648392 157.936 1.22273 165.364C1.66677 166.992 2.70299 167.584 4.62729 167.584H45.0386C46.2227 167.584 46.3708 169.213 44.5945 171.137C42.8183 173.061 39.4136 176.466 27.1277 176.466H22.0945C17.8014 176.466 20.1702 172.173 13.953 172.173H7.14379C5.07091 172.173 4.47935 173.209 5.51547 174.837C9.49152 180.924 15.449 185.45 22.3792 187.648C29.3093 189.847 36.7863 189.582 43.5439 186.9C50.3016 184.218 55.9247 179.283 59.461 172.93C62.9974 166.578 64.2297 159.199 62.9492 152.042C62.5052 150.561 61.617 149.969 59.8407 149.969" fill="#E60A78"/>
<path d="M86.0419 175.874H74.9399L75.384 171.434H82.7853C85.5978 171.434 87.0784 170.101 87.0784 167.585C87.1052 166.158 86.5741 164.777 85.5981 163.736L79.9728 157.519C78.3035 155.816 77.3501 153.538 77.3084 151.154C77.3084 145.677 82.4893 142.124 89.1505 142.124H96.8478L96.4038 146.564H90.9267C88.5583 146.564 87.3741 147.156 87.3741 148.489C87.4003 149.266 87.7172 150.006 88.2623 150.562L95.0716 158.555C97.0899 160.677 98.2502 163.472 98.3282 166.4C98.3282 172.025 93.1471 175.874 86.0419 175.874Z" fill="#E60A78"/>
<path d="M148.065 175.874H143.624C139.036 175.874 135.927 173.654 135.927 169.805V169.065L137.555 150.265C137.596 149.794 137.539 149.319 137.386 148.871C137.234 148.424 136.989 148.012 136.669 147.664C136.349 147.316 135.959 147.038 135.526 146.849C135.092 146.66 134.624 146.563 134.151 146.564H130.598L127.785 175.874H118.459L120.828 150.265C120.869 149.794 120.812 149.319 120.659 148.871C120.507 148.423 120.262 148.012 119.942 147.664C119.622 147.316 119.232 147.038 118.798 146.849C118.365 146.659 117.896 146.563 117.423 146.564H113.575L110.91 175.874H101.584L104.249 146.564H101.881L102.325 142.124H134.742C142.44 142.124 147.029 145.233 147.029 150.71V151.746L145.4 168.473C145.368 168.718 145.368 168.967 145.4 169.213C145.4 170.841 145.548 171.286 148.509 171.286L148.065 175.874Z" fill="#E60A78"/>
<path d="M177.67 166.4C177.226 171.581 171.305 175.874 164.644 175.874H163.311C157.094 175.874 151.765 172.469 151.765 167.289C151.731 166.993 151.731 166.695 151.765 166.4L153.098 151.598C153.542 146.269 159.315 142.124 166.124 142.124H167.604C173.821 142.124 179.002 145.677 179.002 150.71V151.598L177.67 166.4ZM169.677 150.857C169.677 148.193 168.344 146.713 166.42 146.713C164.496 146.713 162.571 148.786 162.275 151.598L160.943 166.4V167.14C160.943 169.657 162.423 171.433 164.2 171.433C165.976 171.433 168.048 169.805 168.344 166.401L169.677 151.598V150.857Z" fill="#E60A78"/>
<path d="M208.312 166.4C207.868 171.581 201.947 175.874 195.285 175.874H193.953C187.736 175.874 182.407 172.469 182.407 167.289C182.373 166.993 182.373 166.695 182.407 166.4L183.739 151.598C184.183 146.269 189.956 142.124 196.766 142.124H198.246C204.463 142.124 209.644 145.677 209.644 150.71V151.598L208.312 166.4ZM200.318 150.857C200.318 148.193 198.986 146.713 197.062 146.713C195.137 146.713 193.213 148.786 192.917 151.598L191.585 166.4V167.14C191.585 169.657 193.065 171.433 194.841 171.433C196.618 171.433 198.69 169.805 198.986 166.401L200.318 151.598L200.318 150.857Z" fill="#E60A78"/>
<path d="M240.137 168.472V169.064C240.137 169.361 241.173 171.581 243.098 171.581L242.654 176.021H239.249C237.942 176.119 236.63 175.932 235.403 175.472C234.176 175.012 233.064 174.29 232.144 173.357C229.955 175.198 227.155 176.149 224.298 176.021C217.489 176.021 212.16 172.765 212.16 167.436C212.126 167.141 212.126 166.843 212.16 166.548L213.492 151.745C213.936 146.268 220.006 142.271 226.519 142.271H233.18L234.216 131.466H231.551L231.996 127.025H243.986L240.137 168.472ZM226.075 146.565C224.15 146.565 223.114 147.749 222.818 149.822L221.338 166.844V167.585C221.338 170.101 222.67 171.285 225.335 171.285C226.746 171.297 228.112 170.791 229.176 169.864C230.24 168.937 230.927 167.652 231.108 166.252L233.032 146.417L226.075 146.565Z" fill="#E60A78"/>
<path d="M251.387 176.17C250.843 176.19 250.3 176.102 249.789 175.912C249.279 175.722 248.811 175.433 248.412 175.062C248.013 174.69 247.692 174.244 247.466 173.749C247.24 173.253 247.113 172.718 247.094 172.173C247.094 171.616 247.206 171.065 247.423 170.552C247.641 170.039 247.959 169.576 248.36 169.189C248.761 168.802 249.235 168.5 249.756 168.3C250.276 168.101 250.831 168.009 251.387 168.029C251.987 167.914 252.604 167.933 253.195 168.084C253.787 168.236 254.337 168.516 254.808 168.905C255.278 169.294 255.657 169.782 255.917 170.334C256.177 170.886 256.312 171.489 256.312 172.099C256.312 172.71 256.177 173.312 255.917 173.865C255.657 174.417 255.278 174.905 254.808 175.294C254.337 175.683 253.787 175.963 253.195 176.114C252.604 176.266 251.987 176.285 251.387 176.17Z" fill="#E60A78"/>
<path d="M282.621 146.564H272.703C270.927 146.564 269.595 148.489 269.447 150.413L267.818 167.88C267.894 168.875 268.353 169.801 269.099 170.464C269.844 171.127 270.818 171.474 271.815 171.433C273.226 171.444 274.592 170.939 275.656 170.011C276.72 169.084 277.407 167.799 277.588 166.4H282.325C281.88 171.433 276.848 175.873 271.518 175.873H270.039C263.674 175.873 258.641 172.469 258.641 167.14L259.973 151.597C260.417 146.12 266.338 142.124 272.999 142.124H283.065L282.621 146.564Z" fill="#E60A78"/>
<path d="M314.891 176.022H311.338C306.749 176.022 303.641 173.654 303.641 169.953V169.213L305.121 151.746V150.858C305.121 148.045 303.936 146.713 301.716 146.713H298.015L295.351 175.726H286.025L290.17 131.17H287.506L287.95 126.729H299.94L298.608 141.976H302.308C309.71 141.976 314.594 145.381 314.594 151.006V152.19L313.114 169.065V169.509C313.114 170.841 313.41 171.433 315.483 171.433L314.891 176.022Z" fill="#E60A78"/>
</g>
</svg>
