<svg width="316" height="315" viewBox="0 0 316 315" fill="none" xmlns="http://www.w3.org/2000/svg">
<g clip-path="url(#clip0_228_260)">
<path d="M33.0482 219.376C38.1923 219.376 42.8731 220.658 47.0897 223.216C51.3067 225.738 54.613 229.24 57.0038 233.719C59.399 238.16 60.5948 243.103 60.5948 248.541C60.5948 253.979 59.399 258.938 57.0038 263.416C54.609 267.858 51.3067 271.36 47.0897 273.919C42.8731 276.441 38.1923 277.706 33.0482 277.706C28.9735 277.706 25.2608 276.888 21.9019 275.253C18.5429 273.618 15.6842 271.291 13.3256 268.269V297.116H1V220.711H13.3256V228.765C15.6476 225.779 18.4901 223.469 21.849 221.833C25.2405 220.194 28.9735 219.376 33.0482 219.376ZM18.2542 260.915C21.5766 264.222 25.7041 265.873 30.6327 265.873C35.5653 265.873 39.6725 264.222 42.9584 260.915C46.244 257.575 47.8911 253.451 47.8911 248.545C47.8911 243.64 46.248 239.515 42.9584 236.176C39.6725 232.836 35.5613 231.164 30.6327 231.164C25.7 231.164 21.5766 232.836 18.2542 236.176C14.9685 239.515 13.3215 243.64 13.3215 248.545C13.3256 253.451 14.9685 257.575 18.2542 260.915Z" fill="#1C1C1C"/>
<path d="M115.969 220.703H128.294V276.372H115.969V268.375C111.036 274.598 104.501 277.706 96.3517 277.706C91.171 277.706 86.4743 276.445 82.2573 273.919C78.0403 271.36 74.7344 267.858 72.3431 263.416C69.9846 258.974 68.8052 254.016 68.8052 248.541C68.8052 243.066 69.9846 238.108 72.3431 233.666C74.7383 229.224 78.0403 225.738 82.2573 223.216C86.4743 220.658 91.171 219.376 96.3517 219.376C104.534 219.376 111.073 222.468 115.969 228.655V220.703ZM98.7633 265.865C103.696 265.865 107.787 264.214 111.036 260.907C114.322 257.567 115.969 253.443 115.969 248.537C115.969 243.595 114.326 239.47 111.036 236.168C107.783 232.828 103.692 231.156 98.7633 231.156C93.7982 231.156 89.6502 232.828 86.3279 236.168C83.042 239.475 81.3952 243.599 81.3952 248.537C81.3952 253.443 83.038 257.567 86.3279 260.907C89.6542 264.214 93.7982 265.865 98.7633 265.865Z" fill="#1C1C1C"/>
<path d="M176.62 231.783H160.809V258.124C160.809 260.683 161.504 262.623 162.899 263.937C164.331 265.218 166.347 265.857 168.954 265.857C171.418 265.857 173.972 265.218 176.62 263.937V275.403C173.582 276.933 170.17 277.694 166.384 277.694C160.488 277.694 156.039 276.148 153.038 273.056C150.037 269.965 148.536 265.645 148.536 260.101V231.787H139.049V220.694H148.536V206.246H160.809V220.694H176.62V231.783Z" fill="#1C1C1C"/>
<path d="M229.797 220.703H242.122V276.372H229.797V268.375C224.864 274.598 218.329 277.706 210.18 277.706C204.999 277.706 200.298 276.445 196.085 273.919C191.868 271.36 188.562 267.858 186.171 263.416C183.812 258.974 182.633 254.016 182.633 248.541C182.633 243.066 183.812 238.108 186.171 233.666C188.566 229.224 191.868 225.738 196.085 223.216C200.302 220.658 204.999 219.376 210.18 219.376C218.361 219.376 224.901 222.468 229.797 228.655V220.703ZM212.591 265.865C217.524 265.865 221.615 264.214 224.864 260.907C228.15 257.567 229.797 253.443 229.797 248.537C229.797 243.595 228.154 239.47 224.864 236.168C221.611 232.828 217.52 231.156 212.591 231.156C207.626 231.156 203.482 232.828 200.156 236.168C196.87 239.475 195.227 243.599 195.227 248.537C195.227 253.443 196.87 257.567 200.156 260.907C203.482 264.214 207.626 265.865 212.591 265.865Z" fill="#1C1C1C"/>
<path d="M300.771 220.703H313.097V276.372H300.771V268.375C295.842 274.598 289.303 277.706 281.154 277.706C275.973 277.706 271.277 276.445 267.06 273.919C262.843 271.36 259.536 267.858 257.145 263.416C254.787 258.974 253.607 254.016 253.607 248.541C253.607 243.066 254.787 238.108 257.145 233.666C259.541 229.224 262.843 225.738 267.06 223.216C271.277 220.658 275.973 219.376 281.154 219.376C289.336 219.376 295.875 222.468 300.771 228.655V220.703ZM283.57 265.865C288.498 265.865 292.593 264.214 295.842 260.907C299.128 257.567 300.771 253.443 300.771 248.537C300.771 243.595 299.128 239.47 295.842 236.168C292.589 232.828 288.498 231.156 283.57 231.156C278.604 231.156 274.456 232.828 271.134 236.168C267.848 239.475 266.201 243.599 266.201 248.537C266.201 253.443 267.844 257.567 271.134 260.907C274.456 264.214 278.6 265.865 283.57 265.865Z" fill="#1C1C1C"/>
<path d="M275.092 171.161L157.5 18L127.823 56.4591L215.732 171.161H275.092Z" fill="#E39D02"/>
<path d="M39.8955 171.161L157.491 18L187.026 56.4631L99.2544 171.161H39.8955Z" fill="#FFC543"/>
</g>
<defs>
<clipPath id="clip0_228_260">
<rect width="315" height="279.114" fill="white" transform="translate(1 18)"/>
</clipPath>
</defs>
</svg>
