<svg width="316" height="315" viewBox="0 0 316 315" fill="none" xmlns="http://www.w3.org/2000/svg">
<g clip-path="url(#clip0_228_1001)">
<path d="M315.5 116.333H0.5V199.667H315.5V116.333Z" fill="#0071BB"/>
<path d="M117.525 154.141V131.6H137.459C141.567 131.6 148.181 132.155 148.181 137.513C148.181 140.147 145.87 142.005 143.184 142.677C146.531 143.683 148.181 145.533 148.181 148.063C148.181 153.588 141.903 154.116 137.459 154.133H117.525V154.141ZM124.845 144.644L126.937 141.188C127.475 140.405 128.361 139.938 129.309 139.933H137.456C138.912 139.933 140.098 139.266 140.098 138.138C140.098 137.008 138.923 136.33 137.456 136.33H124.842V144.644H124.845ZM124.845 144.644V154.13L126.937 150.669C127.475 149.888 128.361 149.419 129.309 149.413H137.348C138.87 149.438 140.075 148.358 140.075 147.041C140.075 145.722 138.895 144.661 137.348 144.661L124.845 144.644ZM165.875 137.041L155.995 154.158H147.389L161.167 131.6H170.584L184.348 154.141H175.75L173.439 150.125H160.684L162.8 146.669C163.342 145.891 164.225 145.425 165.173 145.413H170.698L165.875 137.041ZM225.72 137.041L215.848 154.158H207.223L220.995 131.6H230.411L244.173 154.141H235.598L233.284 150.125H220.531L222.623 146.669C223.159 145.891 224.042 145.422 224.987 145.413H230.52L225.698 137.044H225.72V137.041ZM197.681 149.416C199.356 149.416 200.689 148.608 200.689 146.969V131.6H207.975V147.644C207.975 152.508 204.756 154.138 200.542 154.138H188.364C187.417 154.127 186.537 153.661 185.995 152.883L183.878 149.411L197.681 149.416ZM257.498 149.416C259.173 149.416 260.514 148.608 260.514 146.969V131.6H267.823V147.644C267.823 152.508 264.611 154.138 260.395 154.138H248.217C247.27 154.133 246.384 153.663 245.848 152.883L243.731 149.411L257.498 149.416Z" fill="white"/>
<path d="M117.484 161.644H135.528V167.122H123.734V172.494H134.398V177.68H123.734V184.2H117.481V161.644H117.484Z" fill="white"/>
<path d="M139.781 161.644H146.059V184.202H139.781V161.644Z" fill="white"/>
<path d="M151.478 161.644H157.311L166.595 173.566V161.644H172.781V184.202H167.303L157.678 171.83V184.202H151.481V161.644H151.478Z" fill="white"/>
<path d="M176.358 180.85L179.836 176.694C181.889 178.414 184.475 179.369 187.153 179.402C188.828 179.402 189.731 178.822 189.731 177.855V177.791C189.731 176.858 188.989 176.339 185.931 175.633C181.125 174.536 177.422 173.186 177.422 168.544V168.48C177.422 164.294 180.742 161.261 186.156 161.261C189.989 161.261 192.986 162.291 195.433 164.258L192.308 168.672C190.245 167.219 187.995 166.444 185.995 166.444C184.481 166.444 183.739 167.089 183.739 167.897V167.961C183.739 168.994 184.514 169.441 187.639 170.152C192.828 171.277 196.047 172.955 196.047 177.18V177.244C196.047 181.847 192.406 184.589 186.933 184.589C182.928 184.586 179.128 183.33 176.358 180.85Z" fill="white"/>
<path d="M200.364 161.644H218.506V166.963H206.553V170.377H217.381V175.308H206.553V178.891H218.67V184.205H200.364V161.644Z" fill="white"/>
<path d="M223.147 161.644H233.814C237.261 161.644 239.647 162.547 241.158 164.091C242.481 165.38 243.158 167.122 243.158 169.344V169.411C243.158 172.858 241.322 175.144 238.517 176.336L243.897 184.2H236.678L232.133 177.369H229.397V184.2H223.145V161.644H223.147ZM233.503 172.475C235.633 172.475 236.85 171.441 236.85 169.797V169.733C236.85 167.958 235.561 167.058 233.47 167.058H229.378V172.475H233.503Z" fill="white"/>
<path d="M245.156 161.644H252.15L257.272 175.919L262.384 161.644H269.247L260.095 184.363H254.311L245.156 161.644Z" fill="white"/>
<path d="M94.5614 165.541C94.5614 173.564 85.5975 174.33 79.2559 174.366H73.5531V167.144H84.8947V161.633H73.5531V154.141H86.1086V148.316H66.9031V174.38H59.567V141.619H79.267C85.1253 141.619 94.5725 142.455 94.5725 150.208C94.5725 154.041 91.2864 156.861 87.4586 157.83C92.2003 159.294 94.5614 161.644 94.5614 165.541ZM76.1892 128.566C59.9336 128.566 46.7559 141.744 46.7559 158C46.7559 174.255 59.9336 187.433 76.1892 187.433C92.4447 187.433 105.623 174.255 105.623 158C105.623 141.747 92.4503 128.572 76.1975 128.566H76.1892Z" fill="white"/>
</g>
<defs>
<clipPath id="clip0_228_1001">
<rect width="315" height="83.3333" fill="white" transform="translate(0.5 116.333)"/>
</clipPath>
</defs>
</svg>
