<svg width="316" height="315" viewBox="0 0 316 315" fill="none" xmlns="http://www.w3.org/2000/svg">
<g clip-path="url(#clip0_228_354)">
<path fill-rule="evenodd" clip-rule="evenodd" d="M34.4248 173.944L24.0896 174.385L11.727 175.008L11.9009 179.137L0.989258 172.092L11.2678 164.153L11.4417 168.269C14.4315 168.119 17.4164 167.973 20.3993 167.831L20.4442 167.829L20.4901 167.828H20.5048L20.5361 167.826L20.5615 167.825L20.582 167.824L20.6113 167.823L20.6279 167.822L20.6738 167.82L20.7168 167.818H20.7197L20.7647 167.816L20.8106 167.814H20.8214L20.8556 167.812L20.9005 167.81L20.9259 167.809L20.9454 167.808H20.9562L20.9914 167.806L21.0314 167.804H21.0373L21.0832 167.802L21.1291 167.8H21.1379L21.1751 167.798L21.22 167.796L21.2425 167.795L21.2659 167.794L21.3118 167.792L21.349 167.79H21.3539H21.3578L21.4037 167.788L21.4496 167.786H21.4555L21.4955 167.785L21.5414 167.783L21.561 167.782L21.5864 167.78L21.6323 167.778L21.6665 167.776H21.6782L21.7242 167.774L21.7515 167.772L21.7701 167.771H21.772L21.815 167.769L21.8609 167.767L21.8775 167.766L21.9059 167.764L21.9518 167.762L21.9831 167.76H21.9977L22.0427 167.758L22.0876 167.756L22.1335 167.754L22.1462 167.753L22.1795 167.751L22.1931 167.75L22.2244 167.748L22.2703 167.746L22.2987 167.745L22.3162 167.744L22.3612 167.743L22.4032 167.741H22.4071L22.453 167.739L22.498 167.737H22.5087L22.541 167.735H22.5429L22.5879 167.733L22.6133 167.732L22.6338 167.731L22.6787 167.729L22.7188 167.727H22.7246L22.7706 167.725L22.8155 167.723H22.8233L22.8614 167.721L22.9064 167.719L22.9289 167.718H22.9357H22.9523L22.9982 167.716L23.0344 167.714H23.0432L23.0891 167.712L23.134 167.71H23.1389L23.18 167.708L23.2249 167.706L23.2444 167.705L23.2708 167.704L23.3167 167.702L24.7764 169.043C24.9425 169.209 25.1135 169.373 25.2884 169.534L25.306 169.53C26.2616 170.407 27.2943 171.149 28.3808 171.758L28.4892 171.82L28.498 171.825C30.3466 172.847 32.4072 173.523 34.588 173.766L34.4179 173.953L34.4248 173.944Z" fill="#3F3FD4"/>
<path fill-rule="evenodd" clip-rule="evenodd" d="M60.9331 135.698L71.8448 142.743L61.5663 150.682L61.3923 146.566C58.4036 146.715 55.4187 146.861 52.4348 147.004L52.3898 147.006L52.3439 147.008L52.298 147.01H52.296L52.2521 147.011L52.2061 147.013L52.1612 147.015L52.1153 147.017H52.1104L52.0694 147.019L52.0234 147.021L51.9775 147.023L51.9326 147.025H51.9248L51.8867 147.027L51.8417 147.029L51.7958 147.031L51.7508 147.033L51.7401 147.034L51.7049 147.036L51.659 147.038L51.6141 147.04L51.5681 147.042L51.5545 147.043L51.5222 147.044L51.4763 147.046L51.4313 147.048L51.3854 147.05L51.3688 147.051L51.3395 147.053L51.2946 147.054L51.2486 147.056L51.2027 147.058L51.1832 147.059L51.1568 147.06L51.1109 147.062L51.065 147.064L51.019 147.066L50.9975 147.067L50.9741 147.068L50.9282 147.07L50.8822 147.072L50.8373 147.074L50.8119 147.076L50.7914 147.077L50.7464 147.079L50.7005 147.081L50.6546 147.083L50.6263 147.084L50.6087 147.085L50.5628 147.087L50.5178 147.089L50.4719 147.091L50.4416 147.093L50.4269 147.094L50.381 147.096L50.3351 147.097L50.2902 147.099L50.256 147.1L50.2442 147.101L50.1983 147.103L50.1524 147.105L50.1074 147.107L50.0703 147.109H50.0615L50.0156 147.111L49.9707 147.113L49.9247 147.115L49.8847 147.117H49.8788L49.8339 147.119L49.788 147.121L49.742 147.123L49.699 147.125H49.6961L49.6512 147.127L49.6052 147.129L49.5593 147.131L49.5144 147.133L48.0576 145.794C47.8905 145.627 47.7195 145.463 47.5437 145.301L47.5329 145.312L47.5261 145.306C46.5696 144.427 45.5349 143.685 44.4474 143.075L44.3487 143.02L44.3302 143.01C42.4816 141.988 40.422 141.313 38.2432 141.069L38.4132 140.882L48.7484 140.441L61.111 139.818L60.937 135.689L60.9331 135.698Z" fill="#D03F24"/>
<path fill-rule="evenodd" clip-rule="evenodd" d="M53.1197 163.541L53.3845 169.745L54.0069 182.108L58.1359 181.934L51.0913 192.846L43.1519 182.567L47.2682 182.393C47.1177 179.403 46.9721 176.419 46.8304 173.435L46.8285 173.39L46.8265 173.344L46.8256 173.329L46.8236 173.298L46.8226 173.272L46.8207 173.252L46.8197 173.223L46.8187 173.206L46.8168 173.16L46.8148 173.117V173.114L46.8129 173.069L46.8109 173.023V173.013L46.8089 172.978L46.807 172.933L46.806 172.908L46.805 172.878L46.8031 172.843L46.8011 172.802V172.797L46.7992 172.751L46.7972 172.705V172.696L46.7953 172.659L46.7933 172.614L46.7914 172.568L46.7894 172.522L46.7874 172.477L46.7855 172.431L46.7835 172.385L46.7816 172.34L46.7796 172.294L46.7777 172.249L46.7757 172.204L46.7738 172.159L46.7699 172.086L46.7689 172.067V172.065L46.7669 172.022L46.765 171.976L46.764 171.959L46.762 171.93L46.7601 171.884L46.7581 171.853L46.7572 171.838L46.7552 171.793L46.7532 171.748L46.7513 171.702V171.69L46.7493 171.656V171.643L46.7474 171.611L46.7454 171.566L46.7435 171.537L46.7425 171.52L46.7405 171.475L46.7386 171.433V171.429L46.7366 171.383L46.7347 171.338V171.327L46.7327 171.295V171.292L46.7308 171.246L46.7288 171.221L46.7278 171.2L46.7259 171.155L46.7239 171.116V171.109L46.722 171.063L46.72 171.018V171.011L46.7181 170.972L46.7161 170.927L46.7151 170.905V170.898L46.7142 170.882L46.7122 170.836L46.7103 170.8V170.791L46.7083 170.745L46.7064 170.7V170.695L46.7044 170.654L46.7024 170.609L46.7015 170.589L46.7005 170.563L46.6985 170.518L48.0459 169.051C48.21 168.886 48.3712 168.719 48.5295 168.546L53.1236 163.547L53.1197 163.541Z" fill="#9C0034"/>
<path fill-rule="evenodd" clip-rule="evenodd" d="M14.6982 132.902L21.7428 121.99L29.6822 132.269L25.5659 132.443C25.7154 135.431 25.861 138.416 26.0037 141.4L26.0056 141.446L26.0076 141.492L26.0095 141.537V141.539L26.0115 141.582L26.0134 141.628L26.0154 141.674L26.0173 141.719V141.724L26.0193 141.765L26.0212 141.811L26.0232 141.856L26.0252 141.902V141.909L26.0271 141.947L26.0291 141.992L26.031 142.038L26.033 142.083V142.094L26.0349 142.129L26.0369 142.174L26.0388 142.22L26.0408 142.265V142.279L26.0427 142.311L26.0447 142.357L26.0466 142.402L26.0486 142.448L26.0496 142.464L26.0515 142.494L26.0535 142.539L26.0554 142.584L26.0574 142.63L26.0584 142.65L26.0594 142.676L26.0613 142.721L26.0633 142.767L26.0652 142.813L26.0662 142.836L26.0681 142.859L26.0701 142.905L26.0721 142.951L26.074 142.996L26.075 143.021L26.076 143.042L26.0779 143.087L26.0799 143.133L26.0818 143.178L26.0828 143.206L26.0838 143.223L26.0857 143.269L26.0877 143.314L26.0896 143.36L26.0916 143.392V143.406L26.0935 143.452L26.0955 143.498L26.0975 143.543L26.0994 143.577V143.589L26.1014 143.634L26.1033 143.68L26.1053 143.725L26.1072 143.762V143.771L26.1092 143.817L26.1111 143.861L26.1131 143.907L26.115 143.947V143.953L26.117 143.998L26.119 144.044L26.1209 144.09L26.1229 144.133V144.136L26.1248 144.181L26.1268 144.227L26.1287 144.273L26.1307 144.318L24.7882 145.78C24.6221 145.946 24.4589 146.116 24.2997 146.289L19.7056 151.289L19.4408 145.085L18.8185 132.723L14.6895 132.897L14.6982 132.902Z" fill="#9BB631"/>
<path fill-rule="evenodd" clip-rule="evenodd" d="M48.0409 169.045L46.6935 170.512L43.8972 173.558L39.6979 178.132L31.3969 187.314L34.4404 190.11L21.7427 192.845L23.3978 179.962L26.4315 182.751C29.1555 179.739 31.8805 176.737 34.6104 173.741C35.4438 173.832 36.2811 173.86 37.1165 173.826C41.1048 173.658 45.0355 172.052 48.0409 169.046V169.045Z" fill="#80237C"/>
<path fill-rule="evenodd" clip-rule="evenodd" d="M38.3944 124.725L51.0912 121.99L49.437 134.873L46.4033 132.085C43.6793 135.096 40.9543 138.099 38.2244 141.095C37.392 141.004 36.5537 140.975 35.7183 141.01C31.732 141.178 27.8042 142.782 24.7979 145.785L27.2131 143.154L28.9366 141.277L33.136 136.703L41.437 127.521L38.3935 124.725H38.3944Z" fill="#E49310"/>
<path fill-rule="evenodd" clip-rule="evenodd" d="M69.11 159.395L71.8447 172.092L58.9624 170.438L61.7499 167.404C59.531 165.397 57.317 163.39 55.1069 161.379L55.0288 161.308L54.9867 161.27L54.9506 161.237L54.8724 161.166L54.7943 161.094L54.7161 161.023L54.6936 161.003L54.6379 160.952L54.5598 160.881L54.4816 160.809L54.4035 160.738L54.4005 160.735L54.3253 160.667L54.2471 160.595L54.169 160.524L54.1064 160.467L54.0908 160.453L54.0126 160.382L53.9345 160.311L53.8563 160.241L53.8133 160.2L53.7781 160.169L53.7 160.098L53.6218 160.027L53.5437 159.955L53.5202 159.934L53.4655 159.885L53.3873 159.814L53.3092 159.743L53.231 159.672L53.2261 159.668L53.1528 159.602L53.0747 159.53L52.9965 159.46L52.933 159.401L52.9183 159.389L52.8402 159.318L52.762 159.247L52.6838 159.177L52.6389 159.136L52.6057 159.105L52.5275 159.035L52.4494 158.964L52.3712 158.893L52.3458 158.87L52.293 158.821L52.2149 158.751L52.1367 158.679L52.0585 158.609L52.0517 158.603L51.9804 158.538L51.9022 158.466L51.824 158.395L51.7586 158.335L51.7459 158.324L51.6677 158.252L51.5896 158.181L51.5114 158.11L51.4655 158.068L51.4332 158.038L51.3551 157.967L51.2769 157.896L51.1987 157.824L51.1714 157.801L51.1206 157.754L51.0424 157.683L50.9642 157.611L50.8079 157.469L50.7298 157.397L50.6516 157.326L50.5852 157.265L50.5734 157.255L50.4953 157.183L50.4171 157.112L50.3389 157.041L50.292 156.998L50.2617 156.969L50.1836 156.898L50.1054 156.827L50.04 156.767L49.994 156.725L49.9745 156.708L49.909 156.648L49.8827 156.624L49.8436 156.587L49.7781 156.528L49.7713 156.521L49.7126 156.468L49.6599 156.419L49.6472 156.409L49.5817 156.349L49.5475 156.319L49.5163 156.289L49.4508 156.23L49.4371 156.217L49.3853 156.17L49.3257 156.114L49.3199 156.11L49.2544 156.05L49.2134 156.012L49.1889 155.989L49.1235 155.93L49.102 155.91L49.058 155.87L48.9926 155.811L48.9906 155.809L48.9271 155.751L48.8792 155.707L48.8616 155.691L48.7962 155.632L48.7678 155.605L48.7307 155.571L48.6653 155.512L48.6565 155.503L48.6008 155.451L48.4698 155.332L48.4347 155.3L48.4044 155.272L48.3389 155.213L48.3223 155.198L48.2735 155.153L48.2109 155.095L48.208 155.092L48.1425 155.033L48.0995 154.994L48.0771 154.973L48.0116 154.914L47.9882 154.892L47.9461 154.854L47.8807 154.794L47.8768 154.791L47.8152 154.735L47.7654 154.689L47.7498 154.675L47.6843 154.616L47.654 154.587L47.6188 154.555L47.4879 154.436L47.4303 154.383L47.4224 154.375L47.357 154.316L47.3189 154.282L47.2905 154.256L47.2251 154.197L47.2065 154.18L47.1596 154.137L47.0951 154.078L47.0942 154.077L47.0287 154.018L46.9838 153.977L46.9632 153.958L46.8978 153.899L46.8724 153.875L46.8323 153.839L46.7669 153.779L46.761 153.773L46.7014 153.719L46.6496 153.671L46.6359 153.659L46.5705 153.6L46.5382 153.569L46.506 153.539L46.4405 153.479L46.4268 153.468L46.3741 153.42L46.3145 153.365L46.3086 153.359L46.2432 153.3L46.2031 153.263L46.1777 153.24L46.1122 153.18L46.0917 153.162L46.0468 153.12L45.9813 153.06L45.9803 153.059L45.9158 153L45.8699 152.958L45.8689 152.957L45.824 152.915L45.7781 152.873L45.7576 152.854L45.7322 152.831L45.6862 152.789L45.6462 152.752L45.6403 152.747L45.5944 152.705L45.5485 152.663L45.5358 152.651L45.5035 152.621L45.4576 152.579L45.4254 152.549L45.4127 152.537L45.3667 152.495L45.3208 152.452L45.315 152.447L45.2749 152.41L45.229 152.368L45.2036 152.345L45.1831 152.326L45.1371 152.284L45.0922 152.243L45.0912 152.242L45.0453 152.2L44.9994 152.158L44.9808 152.142L44.9534 152.116L44.9075 152.074L44.8694 152.04L44.8606 152.032L44.8147 151.99L44.7688 151.948L44.758 151.939L44.7229 151.906L44.6769 151.864L44.6467 151.836L44.631 151.822L44.5851 151.78L44.5392 151.738L44.5353 151.734L44.4933 151.696L44.4473 151.654L44.4239 151.633L44.4014 151.612L44.3555 151.57L44.3125 151.531L44.3096 151.528L44.2637 151.486L44.2177 151.444L44.2011 151.43L44.1718 151.402L44.1259 151.36L44.0897 151.328L44.08 151.318L44.034 151.276L43.9881 151.234L43.9793 151.225L43.9422 151.191L43.8963 151.149L43.867 151.123L43.8494 151.106L43.8035 151.064L43.7575 151.022L43.7556 151.02L43.7116 150.98L43.6657 150.938L43.6442 150.919L43.6198 150.896L43.5739 150.854L43.5328 150.817L43.527 150.812L43.481 150.77L43.4351 150.728L43.4205 150.715L43.3892 150.686L43.3433 150.644L43.3101 150.614L43.2974 150.602L43.2514 150.56L43.2055 150.518L43.1987 150.511L43.1596 150.475L43.1137 150.433L43.0873 150.409L43.0677 150.39L43.0218 150.348L42.9759 150.306L42.973 150.303L42.97 150.3L42.9671 150.298L42.9642 150.295L42.9613 150.292L42.9583 150.29L42.9554 150.287L42.9525 150.285L42.9495 150.282L42.9466 150.28L42.9437 150.278L42.9407 150.275L42.9378 150.272L42.9349 150.27L42.9319 150.267L42.929 150.265L42.9261 150.262L42.9231 150.259L42.9202 150.257L42.9173 150.254L42.9144 150.251L42.9114 150.249L42.9085 150.246L42.9056 150.244L42.9026 150.241L42.8997 150.239L42.8968 150.237L42.8938 150.235L42.8909 150.232L42.888 150.23L42.885 150.227L42.8821 150.225L42.8802 150.223L42.8792 150.222L42.8762 150.219L42.8733 150.217L42.8704 150.214L42.8675 150.212L42.8645 150.209L42.8616 150.207L42.8587 150.204L42.8557 150.202L42.8528 150.199L42.8499 150.197L42.8469 150.195L42.844 150.193L42.8411 150.19L42.8381 150.187L42.8352 150.185L42.8323 150.182L42.8293 150.18L42.8264 150.177L42.8235 150.175L42.8206 150.172L42.8176 150.17L42.8147 150.167L42.8118 150.165L42.8088 150.163L42.8059 150.16L42.803 150.158L42.8 150.155L42.7971 150.153L42.7942 150.151L42.7912 150.149L42.7883 150.146C40.8577 148.456 38.4082 147.678 35.9988 147.782C30.3192 148.022 26.3798 154.045 22.7227 158.025L22.6445 157.953L22.5664 157.882L22.5361 157.854L22.4892 157.811L22.411 157.739L22.3329 157.668L22.2547 157.597L22.243 157.586L22.1765 157.525L22.0984 157.454L22.0202 157.383L21.9499 157.319L21.943 157.312L21.8648 157.241L21.7867 157.17L21.7085 157.098L21.6577 157.051L21.6304 157.027L21.5522 156.956L21.474 156.884L21.3959 156.813L21.3636 156.784L21.3177 156.742L21.2395 156.67L21.1614 156.6L21.0832 156.529L21.0705 156.517L21.005 156.457L20.9269 156.386L20.8487 156.315L20.7764 156.249L20.7706 156.243L20.6924 156.172L20.6142 156.101L20.4833 155.982L20.4579 155.958L20.3797 155.887L20.3016 155.815L20.2234 155.744L20.1902 155.714L20.1452 155.673L20.0671 155.602L19.9889 155.53L19.9108 155.459L19.8961 155.446L19.8326 155.389L19.7544 155.317L19.6763 155.246L19.5199 155.103L19.4418 155.033L19.3636 154.962L19.3099 154.913L19.2854 154.891L19.2073 154.82L19.1291 154.749L19.051 154.677L19.0158 154.645L18.9728 154.606L18.8946 154.535L18.8165 154.463L18.7383 154.393L18.7227 154.378L18.6601 154.322L18.582 154.25L18.5038 154.179L18.4286 154.111L18.4256 154.108L18.3475 154.036L18.2693 153.965L18.1912 153.894L18.1355 153.843L18.113 153.822L18.0348 153.751L17.9567 153.68L17.8785 153.608L17.8423 153.575L17.8003 153.537L17.7222 153.467L24.3036 146.305C27.3646 142.974 31.5063 141.198 35.7125 141.021C39.9109 140.844 44.1835 142.265 47.5162 145.325L49.5055 147.151L51.2046 148.711L57.1245 154.147L66.3068 162.448L69.1031 159.404L69.11 159.395Z" fill="#BA1F00"/>
<path fill-rule="evenodd" clip-rule="evenodd" d="M55.1069 161.379L48.5255 168.541C45.4644 171.871 41.3227 173.647 37.1166 173.825C32.9182 174.001 28.6456 172.581 25.3128 169.521L22.1736 166.638L20.2771 164.897L15.7036 160.698L6.5213 152.397L3.72499 155.44L0.991211 142.744L13.8736 144.398L11.0851 147.432C14.9786 150.954 18.8565 154.477 22.7276 158.011L22.793 158.071L22.8341 158.108L22.8585 158.13L22.924 158.19L22.9894 158.249L23.0549 158.309L23.1204 158.369L23.1262 158.374L23.1858 158.429L23.2513 158.489L23.3167 158.548L23.3822 158.608L23.4193 158.642L23.4477 158.668L23.5131 158.727L23.5786 158.787L23.644 158.846L23.7095 158.906L23.7124 158.909L23.775 158.967L23.8404 159.026L23.9059 159.086L23.9714 159.145L24.0056 159.177L24.0368 159.206L24.1023 159.266L24.1677 159.325L24.2332 159.385L24.2977 159.444H24.2987L24.3641 159.504L24.4296 159.564L24.4951 159.623L24.5605 159.683L24.5908 159.71L24.626 159.742L24.6914 159.802L24.7569 159.862L24.8224 159.921L24.8839 159.977L24.8878 159.981L24.9533 160.04L25.0188 160.1L25.0842 160.16L25.1497 160.219L25.177 160.244L25.2151 160.279L25.2806 160.338L25.3461 160.398L25.4115 160.458L25.4692 160.51L25.476 160.517L25.5415 160.577L25.6069 160.636L25.6724 160.696L25.7379 160.756L25.7613 160.777L25.8033 160.815L25.8688 160.875L25.9342 160.934L25.9997 160.994L26.0544 161.044L26.0652 161.054L26.1306 161.113L26.1961 161.173L26.2616 161.232L26.327 161.292L26.3475 161.311L26.3925 161.352L26.4579 161.411L26.5234 161.471L26.5889 161.53L26.6397 161.577L26.6543 161.59L26.7198 161.65L26.7853 161.709L26.8507 161.769L26.9162 161.828L26.9338 161.844L26.9631 161.87L27.009 161.912L27.0549 161.954L27.1008 161.996L27.1468 162.038L27.1927 162.08L27.2269 162.111L27.2396 162.122L27.2855 162.164L27.3314 162.206L27.3773 162.248L27.4233 162.29L27.4692 162.333L27.5151 162.375L27.52 162.378L27.562 162.417L27.6079 162.459L27.6538 162.501L27.6998 162.543L27.7457 162.585L27.7916 162.627L27.8131 162.646L27.8385 162.67L27.8844 162.712L27.9304 162.754L27.9763 162.796L28.0222 162.838L28.0681 162.88L28.1062 162.915L28.114 162.922L28.16 162.964L28.2059 163.006L28.2518 163.048L28.2977 163.09L28.3436 163.132L28.3896 163.174L28.3984 163.182L28.4365 163.216L28.4824 163.258L28.5283 163.3L28.5742 163.342L28.6201 163.384L28.6661 163.426L28.6915 163.449L28.712 163.469L28.7579 163.511L28.8038 163.553L28.8498 163.595L28.8957 163.637L28.9416 163.679L28.9836 163.717L28.9875 163.721L29.0334 163.763L29.0794 163.805L29.1253 163.847L29.1712 163.889L29.2171 163.931L29.263 163.973L29.2757 163.985L29.3099 164.015L29.3559 164.057L29.4018 164.099L29.4477 164.141L29.4936 164.183L29.5396 164.225L29.5689 164.251L29.5855 164.267L29.6314 164.309L29.6773 164.351L29.7232 164.393L29.7692 164.435L29.8151 164.477L29.861 164.519L29.8639 164.522L29.8669 164.525L29.8698 164.527L29.8727 164.53L29.8757 164.533L29.8786 164.535L29.8815 164.538L29.8844 164.54L29.8874 164.543L29.8903 164.546L29.8932 164.547L29.8962 164.55L29.8991 164.553L29.902 164.555L29.905 164.558L29.9079 164.56L29.9108 164.563L29.9167 164.568L29.9196 164.571L29.9226 164.573L29.9255 164.576L29.9284 164.579L29.9313 164.581L29.9343 164.584L29.9372 164.586L29.9401 164.589L29.9431 164.59L29.946 164.593L29.9489 164.595L29.9519 164.598L29.9548 164.6L29.9568 164.602L29.9577 164.603L29.9607 164.605L29.9636 164.608L29.9665 164.61L29.9695 164.613L29.9724 164.615L29.9753 164.618L29.9782 164.621L29.9812 164.623L29.9841 164.626L29.987 164.628L29.99 164.631L29.9929 164.632L29.9958 164.635L29.9988 164.637L30.0017 164.64L30.0046 164.642L30.0076 164.645L30.0105 164.647L30.0134 164.65L30.0164 164.652L30.0193 164.655L30.0222 164.657L30.0251 164.66L30.0281 164.662L30.031 164.664L30.0369 164.669L30.0398 164.672C31.9714 166.365 34.4238 167.147 36.8371 167.043C39.3169 166.938 41.7546 165.896 43.5514 163.94L43.7097 163.767L46.2695 160.982L50.1132 156.799C51.7781 158.32 53.444 159.837 55.1128 161.354L55.1069 161.379Z" fill="#319CCA"/>
<path fill-rule="evenodd" clip-rule="evenodd" d="M32.613 153.187C32.0482 153.703 31.4884 154.403 30.9627 154.975L28.3472 157.822C29.2978 158.69 30.2485 159.559 31.1982 160.429C32.8416 161.935 34.2202 163.206 36.6579 163.103C39.1514 162.998 40.315 161.638 41.8441 159.98C42.7176 159.033 43.5911 158.087 44.4645 157.141C43.0556 155.847 41.6721 154.519 40.2671 153.228C39.1582 152.213 37.6838 151.669 36.1772 151.733C34.8025 151.791 33.5617 152.332 32.613 153.187ZM36.3355 155.467C35.2578 155.512 34.4215 156.422 34.4664 157.5C34.5123 158.578 35.4229 159.414 36.4997 159.369C37.5773 159.324 38.4137 158.414 38.3687 157.336C38.3228 156.258 37.4122 155.422 36.3355 155.467Z" fill="#FEFEFE"/>
<path d="M89.7304 136.434C90.0402 136.434 90.4144 137.985 90.8531 141.075C90.9596 141.075 92.1359 146.923 94.3704 158.62H94.6157C97.4814 143.833 98.9782 136.435 99.1277 136.435H108.9C109.125 136.435 110.386 142.497 112.664 154.611L113.54 158.867H113.657L118.169 136.436H127.825L128.07 136.693C121.976 167.56 118.843 183.138 118.672 183.426H108.653C108.396 183.426 107.691 180.123 106.515 173.526C106.269 172.927 105.478 168.992 104.141 161.754H104.013L99.6289 183.426H89.5995C89.2898 183.426 88.9586 182.09 88.6059 179.416L79.9561 136.564L80.084 136.436H89.7275L89.7304 136.434ZM131.674 136.434H140.569L140.826 136.691V155.231H149.967L150.224 154.985V136.691L150.471 136.434H159.366L159.623 136.691V183.179L159.366 183.425H150.471L150.224 183.179V164.63H140.826V183.179L140.569 183.425H131.674L131.428 183.179V136.691L131.674 136.434ZM163.408 136.434H179.328C179.659 136.434 179.905 137.813 180.076 140.572L180.824 145.714L180.707 145.831H172.561V150.471H180.579L180.825 150.718V159.742L180.579 159.999H172.561V173.898H180.579L180.707 174.026H180.824L179.574 183.295L179.446 183.423H163.409L163.162 183.177V136.689L163.409 136.432L163.408 136.434ZM184.299 136.434H200.219C200.55 136.434 200.796 137.813 200.967 140.572L201.716 145.714L201.598 145.831H193.452V150.471H201.47L201.716 150.718V159.742L201.47 159.999H193.452V173.898H201.47L201.598 174.026H201.716L200.465 183.295L200.337 183.423H184.3L184.054 183.177V136.689L184.3 136.432L184.299 136.434ZM205.19 136.434H214.085L214.342 136.691V173.898H222.361L222.489 174.026H222.606L221.355 183.295L221.227 183.423H205.19L204.944 183.177V136.689L205.19 136.432V136.434ZM226.583 136.434H243.252C243.477 136.434 243.936 139.535 244.632 145.714L244.503 145.831H235.234V150.471H243.253C244.172 150.471 244.632 150.846 244.632 151.594V182.301C244.526 183.049 244.151 183.423 243.499 183.423H227.216C226.959 183.423 226.499 180.29 225.836 174.025L225.964 173.897H235.233V159.998H227.343C226.337 159.998 225.835 159.613 225.835 158.864V137.438C225.835 136.977 226.081 136.646 226.583 136.432V136.434ZM247.945 136.434H263.865C264.196 136.434 264.442 137.813 264.613 140.572L265.361 145.714L265.244 145.831H257.098V150.471H265.116L265.361 150.718V159.742L265.116 159.999H257.098V173.898H265.116L265.244 174.026H265.361L264.111 183.295L263.983 183.423H247.945L247.698 183.177V136.689L247.945 136.432V136.434ZM277.486 136.434C277.817 136.873 279.111 140.347 281.367 146.837H281.495C283.868 139.951 285.172 136.476 285.375 136.434H295.148L286.381 161.121V183.178L286.124 183.424H276.608L276.351 183.178V160.993C276.266 160.459 273.347 152.311 267.584 136.563L267.712 136.435H277.485L277.486 136.434ZM298.591 136.434H314.511C314.842 136.434 315.088 137.813 315.259 140.572L316.008 145.714L315.89 145.831H307.744V150.471H315.762L316.008 150.718V159.742L315.762 159.999H307.744V173.898H315.762L315.89 174.026H316.008L314.757 183.295L314.629 183.423H298.592L298.346 183.177V136.689L298.592 136.432L298.591 136.434Z" fill="black"/>
</g>
<defs>
<clipPath id="clip0_228_354">
<rect width="315" height="70.836" fill="white" transform="translate(1 122)"/>
</clipPath>
</defs>
</svg>
