<svg width="316" height="315" viewBox="0 0 316 315" fill="none" xmlns="http://www.w3.org/2000/svg">
<g clip-path="url(#clip0_220_1466)">
<path d="M279.097 118.921H292.988C293.976 118.921 294.877 119.485 295.309 120.373C295.74 121.261 295.627 122.318 295.017 123.095L268.801 156.45L295.014 189.775C295.625 190.552 295.739 191.609 295.307 192.497C294.875 193.386 293.974 193.95 292.986 193.95H279.109C276.588 193.95 274.204 192.798 272.636 190.823L258.101 172.504C257.59 171.859 257.311 171.061 257.311 170.238L257.31 142.661C257.31 141.84 257.587 141.043 258.097 140.399L272.618 122.055C274.185 120.075 276.571 118.921 279.097 118.921Z" fill="#33302D"/>
<path d="M268.801 156.45L257.315 142.588C257.325 141.788 257.603 141.013 258.104 140.388L258.356 140.071H281.674L268.801 156.45Z" fill="#1A1815"/>
<path d="M230.965 193.95H217.074C216.086 193.95 215.185 193.386 214.753 192.498C214.321 191.609 214.435 190.553 215.045 189.776L241.261 156.421L215.048 123.096C214.437 122.319 214.323 121.262 214.755 120.373C215.186 119.485 216.087 118.921 217.075 118.921H230.952C233.474 118.921 235.858 120.072 237.425 122.048L251.961 140.367C252.472 141.011 252.75 141.81 252.75 142.633L252.752 170.209C252.752 171.031 252.474 171.828 251.965 172.472L237.444 190.815C235.877 192.795 233.491 193.95 230.965 193.95Z" fill="#32BFBD"/>
<path d="M241.261 156.42L252.747 170.282C252.737 171.083 252.459 171.857 251.957 172.482L251.706 172.799H228.388L241.261 156.42Z" fill="#009F9B"/>
<path fill-rule="evenodd" clip-rule="evenodd" d="M147.689 166.789C147.689 152.136 159.009 139.442 176.273 139.442C194.829 139.442 204.856 152.765 204.856 166.738L190.903 166.704C190.903 157.284 183.557 151.187 176.016 151.187C167.008 151.187 160.65 158.168 160.65 166.626C160.65 174.457 167.234 181.46 175.952 181.46C184.532 181.46 190.903 174.082 190.903 166.704L204.856 166.738C204.856 177.913 198.003 194.018 175.602 194.018C158.828 194.018 147.689 180.876 147.689 166.789Z" fill="#33302D"/>
<path d="M204.856 166.473L190.835 142.847V121.876C190.835 121.092 191.147 120.34 191.701 119.786C192.256 119.232 193.008 118.921 193.792 118.921H201.9C202.684 118.921 203.436 119.232 203.99 119.786C204.544 120.34 204.856 121.092 204.856 121.876V166.473Z" fill="#33302D"/>
<path d="M101.71 170.834H139.751C141.711 170.834 143.017 169.879 143.218 167.92C143.268 167.216 143.319 166.462 143.319 165.809C143.319 151.286 131.962 139.477 116.032 139.477C99.901 139.477 87.74 151.487 87.74 166.714C87.74 181.94 99.5493 193.95 117.339 193.95C126.836 193.95 133.771 190.382 139.198 185.206C140.656 183.749 140.555 182.091 139.098 180.633L136.635 178.171C135.228 176.764 133.67 176.714 132.063 177.97C127.892 181.236 123.268 182.945 117.288 182.945C108.946 182.945 102.916 178.071 101.71 170.834ZM115.932 150.482C122.665 150.482 127.59 154.804 129.098 160.985H102.062C103.778 154.75 109.465 150.443 115.932 150.482Z" fill="#33302D"/>
<path d="M87.6072 143.175C87.6793 142.217 87.3482 141.271 86.6935 140.567C86.0389 139.863 85.1202 139.464 84.1587 139.466L77.7837 139.48C64.9774 139.48 54.5957 149.861 54.5957 162.667V191.051C54.5957 192.663 55.9027 193.97 57.5149 193.97H65.8147C67.427 193.97 68.7339 192.663 68.7339 191.051V165.207C68.7339 158.03 74.5518 152.212 81.7285 152.212H84.4631C85.8529 152.212 87.0078 151.141 87.1121 149.755L87.6072 143.175Z" fill="#33302D"/>
<path d="M36.8104 139.48H48.1919C48.979 139.48 49.6972 139.928 50.0428 140.636C50.3883 141.343 50.3008 142.185 49.8171 142.806L32.4391 165.118C31.7078 166.057 31.7078 167.373 32.4391 168.312L49.8171 190.624C50.3008 191.245 50.3883 192.087 50.0428 192.794C49.6972 193.501 48.979 193.95 48.1919 193.95H36.7995C35.0144 193.95 33.3301 193.122 32.2396 191.709L15.2782 170.125C13.7441 168.173 13.7399 165.426 15.2679 163.469L32.2398 141.735C33.3297 140.313 35.0191 139.48 36.8104 139.48Z" fill="#33302D"/>
<path d="M12.2496 193.95H3.88255C2.29042 193.95 0.999756 192.659 0.999756 191.067V121.803C0.999756 120.211 2.29042 118.92 3.88255 118.92H12.2496C13.0142 118.92 13.7474 119.224 14.288 119.765C14.8286 120.305 15.1322 121.039 15.1322 121.803V191.067C15.1322 192.659 13.8416 193.95 12.2496 193.95Z" fill="#33302D"/>
<path d="M315.575 126.546C315.593 129.634 313.745 132.427 310.896 133.619C308.048 134.811 304.761 134.166 302.575 131.985C300.388 129.805 299.734 126.521 300.917 123.669C302.101 120.817 304.889 118.961 307.976 118.97C310.002 118.924 311.958 119.706 313.392 121.137C314.827 122.567 315.615 124.521 315.575 126.546ZM314.56 126.546C314.609 124.784 313.932 123.078 312.687 121.829C311.442 120.581 309.739 119.898 307.976 119.941C305.278 119.915 302.831 121.523 301.784 124.01C300.737 126.498 301.297 129.372 303.203 131.283C305.108 133.195 307.98 133.765 310.471 132.726C312.962 131.687 314.578 129.245 314.56 126.546ZM310.027 127.863L311.992 130.907H310.502L308.711 128.144H306.358V130.907H304.89V122.272H308.344C310.502 122.272 311.84 123.416 311.84 125.208C311.907 126.402 311.163 127.491 310.027 127.863ZM310.416 125.208C310.416 124.107 309.617 123.503 308.235 123.503H306.336V126.935H308.235C309.617 126.935 310.416 126.309 310.416 125.208Z" fill="#33302D"/>
</g>
<defs>
<clipPath id="clip0_220_1466">
<rect width="315" height="80.6707" fill="white" transform="translate(1 117)"/>
</clipPath>
</defs>
</svg>
