<svg width="316" height="315" viewBox="0 0 316 315" fill="none" xmlns="http://www.w3.org/2000/svg">
<g clip-path="url(#clip0_227_93)">
<path d="M293.156 147.785C298.721 145.906 304.913 144.689 310.687 146.532C313.991 147.645 315.765 151.159 315.731 154.498C315.8 161.35 315.87 168.203 315.626 175.055C313.644 175.055 311.661 175.055 309.713 175.02C309.47 173.942 309.261 172.864 309.017 171.785C305.33 174.707 300.426 176.794 295.695 175.055C290.339 172.933 289.678 164.898 293.713 161.176C297.782 157.42 303.626 157.385 308.739 156.237C308.426 154.498 308.148 152.272 306.096 151.785C301.991 150.567 297.852 152.411 293.921 153.524C293.608 151.646 293.365 149.732 293.156 147.785ZM299.695 163.681C297.782 165.211 297.678 168.933 300.182 169.907C303.208 171.055 306.13 169.003 308.496 167.368C308.496 165.142 308.496 162.915 308.461 160.689C305.469 161.211 302.095 161.559 299.695 163.681Z" fill="#231F20"/>
<path d="M138.856 134.08C142.16 133.871 145.5 133.871 148.839 133.941C152.769 143.923 155.309 154.463 159.552 164.341C163.065 154.254 166.3 144.097 169.744 134.01C173.048 133.906 176.353 133.906 179.657 134.01C180.631 147.715 182.022 161.42 182.614 175.124C180.04 175.124 177.501 175.124 174.961 175.124C174.057 165.35 173.64 155.506 172.666 145.732C168.735 155.332 165.952 165.42 162.37 175.159C159.97 175.263 157.57 175.229 155.169 175.124C151.726 165.385 148.943 155.367 144.839 145.871C144.004 155.611 143.621 165.42 142.717 175.159C140.421 175.159 138.126 175.159 135.83 175.124C136.491 161.385 137.917 147.75 138.856 134.08Z" fill="#231F20"/>
<path d="M252.494 137.176C254.79 136.689 257.155 136.376 259.485 136.167C259.555 139.471 259.555 142.776 259.555 146.115C261.468 146.15 263.416 146.254 265.364 146.289C265.746 148.167 266.059 150.08 266.338 151.994C264.077 152.098 261.851 152.202 259.624 152.237C259.659 157.246 259.277 162.289 259.798 167.298C260.529 169.733 263.694 169.037 265.607 169.49C265.99 171.403 266.268 173.351 266.477 175.299C262.825 175.681 258.72 176.168 255.45 174.081C253.294 172.655 252.633 169.977 252.529 167.577C252.25 162.498 252.598 157.42 252.39 152.341C251.068 152.202 249.711 152.063 248.389 151.924C248.424 150.08 248.494 148.272 248.563 146.428C249.85 146.324 251.137 146.185 252.459 146.08C252.39 143.089 252.424 140.132 252.494 137.176Z" fill="#231F20"/>
<path d="M186.962 146.88C189.431 146.393 191.936 146.115 194.44 145.976C196.701 152.585 198.684 159.298 201.014 165.872C203.38 159.472 205.223 152.863 207.31 146.359C209.71 146.22 212.075 146.15 214.475 146.185C211.797 154.95 208.319 163.437 205.362 172.133C203.797 176.133 202.823 180.655 199.553 183.681C196.875 186.116 193.014 186.221 189.64 185.629C189.327 183.716 189.014 181.803 188.701 179.925C190.37 179.89 192.04 179.994 193.675 179.716C195.901 178.951 197.849 176.273 196.84 173.907C193.605 164.864 190.057 155.959 186.962 146.88Z" fill="#231F20"/>
<path d="M219.137 146.219C221.154 146.219 223.171 146.254 225.154 146.289C225.432 147.541 225.676 148.793 225.954 150.046C229.05 147.506 232.737 145.037 236.981 145.732C240.668 145.872 243.589 149.211 243.659 152.793C243.833 160.202 243.729 167.646 243.694 175.055C241.398 175.09 239.102 175.125 236.841 175.159C236.181 168.411 236.981 161.629 236.494 154.915C236.181 152.133 232.737 151.437 230.58 152.55C228.737 153.454 226.267 154.741 226.406 157.141C226.267 163.124 226.476 169.107 226.372 175.09C223.937 175.125 221.537 175.125 219.102 175.055C219.137 165.42 219.102 155.82 219.137 146.219Z" fill="#231F20"/>
<path d="M271.868 146.219C273.921 146.219 275.973 146.219 278.025 146.254C278.269 147.924 278.547 149.593 278.825 151.298C281.364 148.654 284.147 145.906 288.043 145.593C288.669 147.889 289.017 150.254 289.086 152.62C285.26 153.489 280.912 155.089 279.208 158.881C278.86 164.272 279.277 169.698 279.069 175.09C276.669 175.125 274.268 175.125 271.868 175.055C271.868 165.42 271.868 155.82 271.868 146.219Z" fill="#231F20"/>
<path d="M26.7486 122.81C29.1834 119.888 31.827 116.758 35.5836 115.575C39.7924 114.462 43.3751 117.766 46.0187 120.584C52.9406 128.515 57.9842 137.871 62.68 147.263C65.2192 141.558 68.3845 136.132 71.6542 130.845C74.7847 126.045 78.0196 121.175 82.5414 117.523C84.6284 115.923 87.5155 114.392 90.1243 115.749C93.8113 117.697 96.594 120.932 99.2028 124.097C104.733 131.228 109.081 139.193 113.012 147.298C117.916 157.733 122.16 168.62 123.934 180.064C124.456 185.351 124.943 191.299 121.743 195.925C119.273 199.543 114.577 200.795 110.403 200.064C106.786 198.777 103.62 196.412 101.255 193.421C95.6201 186.464 92.2808 178.046 89.1851 169.733C88.7329 168.272 88.1764 166.846 87.6894 165.42C87.3764 166.881 86.959 168.342 86.472 169.768C83.3067 178.185 79.9327 186.777 74.1238 193.768C71.7933 196.621 68.7324 198.812 65.254 200.064C60.2452 201.108 55.4102 198.499 52.1754 194.812C45.8448 187.925 42.3316 179.02 39.0968 170.359C38.4707 168.585 37.8445 166.811 37.3924 164.968C36.8706 166.811 36.2445 168.655 35.5836 170.429C32.6618 178.394 29.3226 186.429 24.0355 193.142C21.1484 196.586 17.3918 199.96 12.696 200.203C8.34808 200.586 4.13927 197.769 2.46966 193.803C0.104372 188.307 0.800044 182.116 1.84355 176.377C4.10448 165.42 8.27851 154.95 13.2178 144.967C17.0092 137.21 21.3224 129.628 26.7486 122.81ZM29.2182 125.245C23.8616 132.062 19.5832 139.715 15.757 147.472C10.9916 157.524 6.67847 167.994 4.83494 179.02C4.17405 182.081 4.17405 185.247 4.4871 188.342C4.86972 191.264 6.01758 194.395 8.69591 195.89C11.2699 197.386 14.5743 196.795 16.9048 195.125C21.0789 192.203 23.8616 187.751 26.2616 183.333C31.4096 173.49 34.7836 162.811 37.3228 152.063C40.0359 163.089 43.4447 174.081 48.8709 184.133C51.0275 187.855 53.2885 191.716 56.8016 194.29C58.5756 195.89 60.9061 197.003 63.3409 196.725C66.054 196.447 68.315 194.708 70.2281 192.864C73.4629 189.525 75.8282 185.42 77.9152 181.316C82.3675 172.203 85.4285 162.463 87.8285 152.654C90.8199 164.55 94.5418 176.481 100.942 187.055C103.342 190.742 106.159 194.569 110.368 196.308C113.325 197.525 117.082 196.447 118.786 193.699C120.838 190.394 121.012 186.29 120.699 182.533C120.282 176.446 118.508 170.533 116.56 164.759C112.664 153.628 107.551 142.915 101.325 132.932C98.4375 128.48 95.4461 123.993 91.4113 120.445C89.9851 119.193 87.8633 117.975 86.0546 119.227C82.5762 121.349 80.1762 124.723 77.7413 127.923C71.8281 136.341 66.9584 145.524 62.9583 154.985C62.8539 155.124 62.5757 155.402 62.4713 155.541C62.1235 154.463 61.7756 153.42 61.3235 152.376C57.219 143.506 52.6623 134.776 46.8535 126.914C44.8708 124.306 42.8186 121.662 40.1403 119.749C38.9924 118.949 37.4619 118.219 36.1054 118.914C33.2183 120.236 31.2009 122.845 29.2182 125.245Z" fill="#FEFEFE"/>
<path d="M29.2181 125.245C31.2008 122.845 33.253 120.271 36.1401 118.949C37.4966 118.253 39.0271 118.949 40.175 119.784C42.8533 121.697 44.9055 124.375 46.8882 126.949C52.6623 134.845 57.2537 143.541 61.3582 152.411C61.8451 153.419 62.193 154.498 62.506 155.576C57.1493 146.497 52.2796 137.071 45.6012 128.862C43.6533 126.566 41.6011 124.132 38.7836 122.914C37.1836 122.218 35.5487 123.123 34.227 123.992C29.4268 128.027 25.8789 133.28 22.5397 138.497C14.6786 151.019 8.76539 164.759 4.86963 179.02C6.71316 167.994 10.9915 157.524 15.7917 147.471C19.5831 139.715 23.8615 132.062 29.2181 125.245Z" fill="#9E242E"/>
<path d="M86.0545 119.192C87.8633 117.94 89.9851 119.158 91.4112 120.41C95.4461 123.923 98.4375 128.41 101.325 132.897C107.551 142.915 112.699 153.593 116.56 164.724C118.508 170.498 120.282 176.377 120.699 182.499C120.038 178.255 118.925 174.081 117.499 170.046C113.812 158.95 108.699 148.306 102.507 138.393C99.7941 134.149 96.907 129.941 93.4287 126.323C92.0373 124.932 90.5416 123.471 88.6285 122.845C87.1328 122.393 85.7763 123.436 84.5589 124.167C81.324 126.706 78.8196 129.975 76.4195 133.28C72.1759 139.297 68.3845 145.628 64.9757 152.133C64.4192 153.176 63.7235 154.15 62.9583 155.02C66.9584 145.524 71.8281 136.376 77.7413 127.958C80.1761 124.723 82.611 121.314 86.0545 119.192Z" fill="#9E242E"/>
<path d="M34.227 123.993C35.5487 123.123 37.1836 122.219 38.7836 122.914C41.6011 124.132 43.6533 126.567 45.6012 128.862C52.2796 137.071 57.1493 146.498 62.4712 155.576C59.132 165.072 55.1667 174.603 54.9232 184.794C54.7493 188.064 55.6189 191.264 56.8363 194.29C53.3231 191.716 51.0274 187.855 48.9056 184.133C43.5142 174.081 40.0706 163.124 37.3575 152.063C35.4096 142.88 33.6009 133.488 34.227 123.993Z" fill="#FF912E"/>
<path d="M84.5937 124.132C85.8111 123.401 87.1677 122.358 88.6634 122.81C90.5764 123.436 92.0721 124.897 93.4635 126.288C96.9418 129.941 99.8289 134.115 102.542 138.358C108.733 148.272 113.847 158.915 117.534 170.011C118.995 174.046 120.073 178.22 120.734 182.464C121.047 186.22 120.873 190.325 118.821 193.629C117.116 196.412 113.394 197.456 110.403 196.238C106.194 194.534 103.377 190.673 100.977 186.986C94.5766 176.446 90.8547 164.516 87.8633 152.585C85.8459 143.298 83.9676 133.767 84.5937 124.132Z" fill="#F41CB2"/>
<path d="M22.5399 138.497C25.8791 133.28 29.427 128.028 34.2272 123.993C33.6011 133.454 35.4098 142.88 37.3925 152.063C34.8533 162.846 31.4445 173.49 26.3313 183.333C23.9312 187.751 21.1486 192.203 16.9745 195.125C14.644 196.795 11.3396 197.386 8.76561 195.89C6.08727 194.395 4.93942 191.229 4.5568 188.342C4.20896 185.247 4.24375 182.081 4.90463 179.02C8.73083 164.759 14.6788 151.02 22.5399 138.497Z" fill="#F41CB2"/>
<path d="M76.4542 133.245C78.8543 129.941 81.3587 126.671 84.5936 124.132C83.9674 133.732 85.8458 143.298 87.898 152.62C85.4979 162.463 82.4022 172.168 77.9847 181.281C75.8977 185.42 73.5324 189.49 70.2975 192.829C68.4192 194.673 66.1235 196.412 63.4104 196.69C60.9755 196.969 58.645 195.856 56.871 194.255C55.6536 191.229 54.784 188.029 54.958 184.76C55.2014 174.568 59.1668 165.003 62.506 155.541C62.6103 155.402 62.8886 155.124 62.993 154.985C63.7582 154.08 64.4539 153.141 65.0104 152.098C68.454 145.593 72.2106 139.263 76.4542 133.245Z" fill="#F25511"/>
</g>
<defs>
<clipPath id="clip0_227_93">
<rect width="315" height="85.0458" fill="white" transform="translate(0.800049 115.227)"/>
</clipPath>
</defs>
</svg>
