<svg width="316" height="315" viewBox="0 0 316 315" fill="none" xmlns="http://www.w3.org/2000/svg">
<path d="M79.6593 186.227H69.0229V131.614H103.591V141.636H79.6593V155.136H100.727V164.955H79.6593V186.227Z" fill="#1E0D50"/>
<path d="M119.955 186.227H109.727V148.387H119.955V186.227ZM108.5 135.909C108.5 134.068 109.114 132.637 110.341 131.409C111.568 130.182 113 129.568 114.841 129.568C116.682 129.568 118.114 130.182 119.341 131.409C120.568 132.637 121.182 134.068 121.182 135.909C121.182 137.546 120.568 138.977 119.341 140.205C118.114 141.432 116.682 142.046 114.841 142.046C113 142.046 111.568 141.432 110.341 140.205C109.114 138.977 108.5 137.546 108.5 135.909Z" fill="#1E0D50"/>
<path d="M126.091 175.796L134.886 173.955C135.091 175.591 135.704 177.023 136.727 178.046C137.954 179.068 139.591 179.682 141.636 179.682C143.273 179.682 144.5 179.273 145.318 178.659C146.136 177.841 146.545 177.023 146.545 176C146.545 174.159 145.114 172.932 142.454 172.318L137.545 171.091C134.068 170.273 131.409 168.841 129.568 167C127.727 164.955 126.909 162.705 126.909 159.841C126.909 156.364 128.341 153.5 131 151.046C133.659 148.591 137.136 147.364 141.227 147.364C143.886 147.364 146.136 147.773 147.977 148.591C150.023 149.409 151.454 150.227 152.477 151.455C153.5 152.682 154.318 153.705 154.932 154.932C155.545 156.159 155.954 157.182 155.954 158.409L147.568 160.046C147.364 158.614 146.75 157.591 145.727 156.568C144.704 155.546 143.273 154.932 141.432 154.932C140 154.932 138.977 155.341 137.954 155.955C136.932 156.773 136.523 157.591 136.523 158.614C136.523 160.455 137.75 161.682 140 162.091L145.318 163.318C149 164.136 151.659 165.568 153.704 167.614C155.75 169.659 156.568 172.114 156.568 174.977C156.568 178.455 155.341 181.318 152.682 183.773C150.023 186.227 146.545 187.455 141.841 187.455C139.182 187.455 136.727 187.046 134.682 186.227C132.636 185.409 131 184.386 129.773 183.159C128.545 181.932 127.727 180.705 127.114 179.477C126.704 178.046 126.295 176.818 126.091 175.796Z" fill="#1E0D50"/>
<path d="M199.318 130.386V179.273C199.318 181.727 199.523 184.182 199.727 186.227H189.909C189.705 185 189.5 183.568 189.5 181.932C188.682 183.568 187.25 184.795 185.409 185.818C183.568 186.841 181.318 187.25 178.864 187.25C173.545 187.25 169.045 185.409 165.568 181.523C162.091 177.636 160.455 172.932 160.455 167.204C160.455 161.682 162.091 156.977 165.568 153.091C169.045 149.204 173.341 147.364 178.659 147.364C184.182 147.364 187.659 149 189.296 152.068V130.386H199.318ZM170.682 167.204C170.682 170.477 171.5 173.136 173.341 175.182C175.182 177.023 177.432 178.045 180.091 178.045C182.75 178.045 185 177.023 186.841 175.182C188.682 173.136 189.5 170.477 189.5 167.204C189.5 163.932 188.682 161.273 186.841 159.432C185 157.591 182.955 156.568 180.091 156.568C177.432 156.568 175.182 157.591 173.341 159.432C171.5 161.273 170.682 163.932 170.682 167.204Z" fill="#1E0D50"/>
<path d="M218.955 175.182C220.795 177.023 223.045 178.046 225.705 178.046C228.364 178.046 230.614 177.023 232.455 175.182C234.295 173.341 235.318 170.682 235.318 167.205C235.318 163.727 234.295 161.068 232.455 159.227C230.614 157.386 228.364 156.364 225.705 156.364C223.045 156.364 220.795 157.386 218.955 159.227C217.114 161.068 216.091 163.727 216.091 167.205C216.091 170.682 217.114 173.341 218.955 175.182ZM211.591 152.886C215.477 149 220.182 147.159 225.909 147.159C231.636 147.159 236.341 149 240.023 152.886C243.909 156.773 245.75 161.477 245.75 167.409C245.75 173.136 243.909 178.046 240.023 181.932C236.341 185.818 231.636 187.659 225.909 187.659C220.182 187.659 215.477 185.818 211.591 181.932C207.909 178.046 206.068 173.341 206.068 167.409C205.864 161.477 207.909 156.773 211.591 152.886Z" fill="#1E0D50"/>
<path d="M262.523 186.227H252.295V148.386H262.114V153.091C263.136 151.25 264.568 150.023 266.818 149C268.864 147.977 271.114 147.364 273.364 147.364C278.886 147.364 282.568 149.409 284.614 153.705C287.273 149.409 291.364 147.364 296.682 147.364C300.568 147.364 303.841 148.591 306.295 151.046C308.955 153.5 310.386 156.977 310.386 161.886V186.432H300.364V163.932C300.364 161.682 299.75 160.046 298.727 158.818C297.705 157.386 296.068 156.773 293.818 156.773C291.773 156.773 289.932 157.591 288.704 159.023C287.477 160.455 286.864 162.296 286.864 164.341V186.636H276.636V164.136C276.636 161.886 276.023 160.25 275 159.023C273.773 157.591 272.136 156.977 270.091 156.977C267.841 156.977 266.205 157.796 264.977 159.227C263.75 160.659 263.136 162.296 263.136 164.546V186.227H262.523Z" fill="#1E0D50"/>
<path d="M29.75 165.977V147.773C29.75 147.364 29.9545 147.159 30.1591 146.954L53.6818 131.204C54.2955 130.795 55.3182 131.204 55.3182 132.023V149.409C55.3182 150.023 54.9091 150.841 54.2955 151.25L31.3864 166.795C30.5682 167.204 29.75 166.795 29.75 165.977Z" fill="#35CB5D"/>
<path d="M26.6817 184.795V146.75C26.6817 146.341 26.4772 146.136 26.2726 145.932L3.56809 131.818C2.95446 131.409 2.34082 131.818 2.34082 132.636V171.091C2.34082 171.5 2.54537 171.705 2.74991 171.909L25.0454 185.818C25.659 186.227 26.6817 185.818 26.6817 184.795Z" fill="#4F2DA7"/>
<path d="M29.75 184.796V172.114C29.75 171.705 29.9545 171.5 30.1591 171.296L44.4773 161.477C45.0909 161.068 46.1136 161.477 46.1136 162.296V174.364C46.1136 175.182 45.7045 176 44.8864 176.409L31.3864 185.614C30.5682 186.227 29.75 185.614 29.75 184.796Z" fill="#8D61FF"/>
</svg>
