<svg width="316" height="315" viewBox="0 0 316 315" fill="none" xmlns="http://www.w3.org/2000/svg">
<g clip-path="url(#clip0_228_1072)">
<path d="M169.365 52.1775C168.959 52.2935 168.002 52.4095 167.248 52.4385C164.233 52.4965 154.49 54.9611 150.953 56.5268C150.634 56.6718 149.735 57.0487 148.923 57.3677C146.807 58.1796 141.211 60.8471 140.341 61.485C139.935 61.746 139.268 62.0939 138.833 62.1809C138.398 62.2969 138.05 62.4998 138.05 62.6158C138.05 62.7318 137.818 62.9058 137.557 63.0218C137.267 63.1087 136.658 63.4567 136.165 63.7756C135.702 64.0946 135.006 64.4715 134.629 64.6455C134.252 64.7905 133.527 65.2544 133.005 65.6603C132.483 66.0663 131.961 66.3852 131.874 66.3852C131.207 66.3852 121.871 73.1701 119.232 75.5477C117.087 77.4904 113.114 81.7237 113.114 82.0716C113.114 82.1586 112.853 82.5646 112.506 82.9415C111.636 83.9273 109.026 88.0447 108.272 89.5814C107.953 90.3063 107.315 91.5821 106.91 92.452C105.489 95.3515 104.909 98.512 105.054 102.194C105.228 105.819 106.04 107.703 108.504 110.197C111.085 112.778 113.839 113.908 118.189 114.14C121.175 114.285 123.321 114.053 126.307 113.213C127.264 112.952 128.54 112.633 129.149 112.459C129.758 112.314 130.453 112.082 130.743 111.908C131.41 111.56 135.151 109.878 135.325 109.878C135.846 109.878 141.964 106.138 147.618 102.368C151.359 99.8747 154.635 97.7001 154.925 97.5551C155.186 97.3811 156.955 96.3373 158.839 95.2065C160.724 94.1047 163.044 92.7709 164.001 92.278C164.957 91.7851 166.32 91.0602 167.045 90.6832C167.77 90.3353 169.133 89.6974 170.089 89.3495C171.046 88.9725 172.235 88.4796 172.699 88.2766C173.192 88.0737 173.888 87.7547 174.294 87.5807C175.425 87.1168 177.976 86.6529 180.47 86.4789C185.863 86.131 189.632 88.5086 191.575 93.4958C192.039 94.6846 192.126 95.6704 192.126 99.1499C192.126 103.383 191.749 105.703 190.618 108.428C190.386 108.979 190.067 109.762 189.893 110.168C188.443 113.647 185.457 118.635 182.035 123.158C178.788 127.507 171.8 134.727 167.19 138.525C165.595 139.859 163.827 141.309 163.276 141.773C162.058 142.788 160.637 143.803 159.071 144.846C158.434 145.252 157.39 145.948 156.752 146.412C154.954 147.63 150.17 150.182 147.473 151.341C146.691 151.689 145.618 152.153 145.096 152.385C144.603 152.617 143.936 152.791 143.617 152.791C143.327 152.791 142.66 152.936 142.138 153.11C140.254 153.777 138.34 152.501 138.34 150.558C138.34 148.181 139.471 146.673 146.604 139.598C154.316 131.944 155.157 130.813 155.157 127.913C155.157 124.927 153.736 122.897 150.547 121.273C149.155 120.548 148.633 120.461 146.198 120.461C143.356 120.461 141.703 120.867 139.645 122.114C139.181 122.404 138.456 122.781 138.05 122.984C137.644 123.187 137.267 123.419 137.18 123.506C137.093 123.593 136.513 124.028 135.875 124.521C134.339 125.681 131.642 128.435 130.105 130.436C129.033 131.828 128.25 133.132 126.423 136.554C124.915 139.395 123.553 144.672 123.553 147.746C123.553 153.98 126.8 158.967 131.816 160.388C133.324 160.823 139.471 160.823 141.587 160.417C143.675 159.982 149.126 158.3 149.474 157.981C149.648 157.836 149.938 157.72 150.17 157.72C150.924 157.72 159.535 153.342 162.493 151.428C163.16 150.993 163.914 150.5 164.204 150.327C164.464 150.182 165.827 149.341 167.248 148.471C168.64 147.601 169.858 146.789 169.945 146.702C170.032 146.586 171.017 145.861 172.119 145.107C173.25 144.324 174.555 143.426 175.019 143.107C175.512 142.759 176.874 141.715 178.063 140.758C185.602 134.756 192.271 128.348 196.156 123.361C196.794 122.578 197.374 121.853 197.461 121.766C197.693 121.592 199.664 118.751 201.027 116.605C201.636 115.706 202.564 114.111 203.086 113.068C203.637 112.024 204.39 110.603 204.767 109.878C205.144 109.153 205.956 107.269 206.594 105.674C207.203 104.079 207.812 102.513 207.928 102.194C208.74 100.136 209.987 94.8296 210.537 91.0312C211.146 86.7399 210.682 79.694 209.494 75.8087C209.001 74.2139 208.885 73.924 207.812 71.6044C205.492 66.6172 201.781 62.0939 197.519 59.1364C196.939 58.7305 196.214 58.1796 195.895 57.8606C194.851 56.9328 189.545 54.5551 186.443 53.6563C184.79 53.1634 182.325 52.6415 180.963 52.4385C177.831 52.0326 170.321 51.8296 169.365 52.1775Z" fill="#FF0000"/>
<path d="M253.421 195.559C253.334 195.617 252 195.878 250.406 196.139C248.811 196.371 246.201 196.806 244.607 197.096L241.707 197.589V224.264C241.707 253.231 241.649 252.013 243.36 255.637C243.94 256.884 244.752 257.957 245.999 259.088C249.072 261.9 251.942 262.77 258.06 262.799C263.279 262.799 263.077 263.002 262.961 258.189L262.874 254.709L260.641 254.506C256.669 254.158 254.755 252.564 254.32 249.258C254.204 248.272 254.117 235.862 254.146 221.713C254.175 197.212 254.117 194.863 253.421 195.559Z" fill="#FF0000"/>
<path d="M173.134 196.139C166.697 197.096 164.552 197.502 164.291 197.821C164.088 198.053 164.059 207.302 164.146 224.989C164.291 249.693 164.349 251.926 164.813 253.115C165.915 255.927 166.494 256.913 167.973 258.392C171.018 261.436 174.903 262.683 181.282 262.683C184.819 262.683 185.312 262.625 185.544 262.161C185.834 261.61 185.979 256.565 185.747 255.405C185.573 254.68 185.457 254.651 183.282 254.477C180.528 254.303 178.904 253.376 177.773 251.375L177.049 250.07L176.962 235.051C176.904 223.858 176.962 219.915 177.223 219.596C177.484 219.277 178.469 219.19 181.572 219.19C186.356 219.19 185.95 219.654 185.834 214.116L185.747 210.347L181.688 210.202C179.455 210.115 177.455 209.941 177.281 209.825C176.991 209.651 176.904 207.882 176.904 202.634V195.704L176.266 195.733C175.889 195.762 174.497 195.936 173.134 196.139Z" fill="#FF0000"/>
<path d="M72.667 209.216C70.4924 209.419 65.2733 210.666 63.6786 211.362C63.3596 211.507 62.7797 211.71 62.3738 211.825C61.098 212.173 56.8647 214.29 56.8647 214.58C56.8647 214.725 57.1257 215.392 57.4157 216.088C59.3293 220.292 60.0542 221.8 60.1992 221.8C60.2861 221.8 60.5761 221.684 60.866 221.539C62.3448 220.785 64.1425 220.06 65.5632 219.625C66.4331 219.364 67.4769 219.016 67.8828 218.871C69.5065 218.291 73.8268 218.001 75.8274 218.32C79.7707 218.958 81.2205 220.785 81.4524 225.453C81.5684 228.034 81.5684 228.092 80.9015 228.266C80.5246 228.382 77.8571 228.469 74.9866 228.469C68.0858 228.469 65.9692 228.875 61.5039 231.049C57.6766 232.905 54.8351 236.413 53.4723 240.937C52.7765 243.343 52.8634 247.838 53.6463 250.215C56.2559 258.102 62.4608 262.712 71.1013 263.176C78.9589 263.611 87.0485 261.262 92.2386 257.087L94.1232 255.55L94.2102 240.212C94.2972 222.438 94.2682 221.829 92.1226 217.48C91.1657 215.508 87.9473 212.376 85.9467 211.507C85.0188 211.072 84.004 210.637 83.6851 210.492C81.5104 209.535 76.0014 208.897 72.667 209.216ZM81.2205 237.167C81.3945 237.399 81.5104 240.85 81.5104 245.025C81.5104 253.26 81.6264 252.738 79.4808 253.869C78.6689 254.304 77.7701 254.391 74.9576 254.42H71.4492L69.9994 253.434C69.2166 252.912 68.2887 252.042 67.9698 251.549C65.8242 248.418 65.9692 242.821 68.2308 240.067C68.8976 239.226 71.4492 237.457 71.9131 237.457C72.2031 237.457 72.522 237.341 72.696 237.196C73.1019 236.761 74.4357 236.645 77.8281 236.703C80.2637 236.732 81.0175 236.819 81.2205 237.167Z" fill="#FF0000"/>
<path d="M145.009 209.912C139.239 211.275 134.629 213.739 129.99 217.973L128.772 219.075V240.241C128.772 251.868 128.772 261.611 128.772 261.901C128.772 262.364 129.207 262.393 135.093 262.335L141.385 262.248L141.472 242.039L141.53 221.858L142.632 220.988C143.936 219.944 144.574 219.625 146.256 219.046C148.257 218.379 151.388 218.06 153.737 218.321C154.896 218.437 155.998 218.495 156.172 218.408C156.375 218.35 156.897 217.364 157.361 216.204C157.796 215.044 158.492 213.536 158.84 212.841C159.797 211.014 159.71 210.55 158.434 210.26C157.825 210.115 156.723 209.854 155.94 209.68C153.882 209.158 147.59 209.303 145.009 209.912Z" fill="#FF0000"/>
<path d="M208.073 209.97C207.116 210.115 206.218 210.376 206.073 210.521C205.899 210.666 205.609 210.782 205.377 210.782C205.145 210.782 204.101 211.188 203.086 211.71C200.854 212.812 197.432 215.972 195.982 218.321C194.707 220.379 193.228 223.453 192.996 224.555C192.88 225.019 192.706 225.685 192.561 226.004C192.445 226.323 192.097 227.57 191.807 228.759C191.024 231.89 191.024 241.923 191.778 244.851C192.474 247.548 194.04 251.665 194.33 251.665C194.475 251.665 194.591 251.81 194.591 251.984C194.591 253.086 198.041 257.464 200.477 259.436C201.549 260.306 203.956 261.553 205.754 262.161C207.696 262.828 211.988 263.553 213.901 263.553C218.019 263.553 225.441 261.785 227.906 260.219C228.486 259.871 229.269 259.465 229.675 259.349C230.544 259.088 232.458 257.899 232.69 257.493C232.951 257.087 229.704 250.505 229.269 250.505C229.066 250.505 228.544 250.766 228.138 251.085C227.732 251.404 227.239 251.665 227.007 251.665C226.804 251.665 226.369 251.839 226.05 252.071C225.731 252.274 224.223 252.883 222.716 253.405C220.135 254.304 219.7 254.362 215.902 254.391C212.307 254.391 211.698 254.333 210.538 253.782C206.479 251.839 204.159 246.939 204.159 240.328C204.159 238.907 204.188 237.718 204.246 237.689C204.275 237.631 210.712 237.544 218.511 237.457L232.719 237.313L232.632 234.413C232.458 228.73 230.95 221.075 229.646 219.335C229.53 219.161 229.124 218.437 228.747 217.712C227.181 214.609 223.876 211.942 219.961 210.637C217.091 209.651 211.843 209.361 208.073 209.97ZM214.307 219.19C215.525 219.509 218.077 221.568 218.077 222.206C218.077 222.38 218.28 222.902 218.511 223.337C219.178 224.642 219.7 228.933 219.236 229.484C218.946 229.861 217.816 229.919 211.959 229.919H205.029L204.855 229.194C204.478 227.715 205.493 223.743 206.653 222.206C207.928 220.495 209.059 219.625 210.741 219.132C211.669 218.872 212.568 218.698 212.77 218.756C212.944 218.814 213.64 219.016 214.307 219.19Z" fill="#FF0000"/>
<path d="M108.186 189.557C105.982 190.688 105.315 191.239 104.358 192.66C103.43 194.08 103.401 194.196 103.401 197.154V200.227L104.503 201.735C105.808 203.504 106.678 204.142 108.591 204.809C111.172 205.65 113.405 205.331 115.985 203.707C119.088 201.735 120.16 196.69 118.276 192.979C117.609 191.674 117.029 191.065 115.289 189.963C113.724 188.948 109.751 188.716 108.186 189.557Z" fill="#FF0000"/>
<path d="M115.289 210.492C114.825 210.637 113.521 210.898 112.39 211.043C111.288 211.188 109.258 211.478 107.896 211.681C106.533 211.855 105.344 212.116 105.199 212.203C104.938 212.435 104.909 261.698 105.141 262.133C105.257 262.278 107.838 262.394 111.23 262.394C117.145 262.394 117.174 262.394 117.319 261.727C117.406 261.379 117.435 249.665 117.406 235.718C117.319 210.579 117.319 210.347 116.739 210.289C116.42 210.26 115.782 210.347 115.289 210.492Z" fill="#FF0000"/>
</g>
<defs>
<clipPath id="clip0_228_1072">
<rect width="210" height="211.553" fill="white" transform="translate(53 52)"/>
</clipPath>
</defs>
</svg>
