<svg width="316" height="315" viewBox="0 0 316 315" fill="none" xmlns="http://www.w3.org/2000/svg">
<path d="M0.5 158V236.75H158H315.5V158V79.25H158H0.5V158ZM112.045 143.58C112.255 143.72 112.64 144.245 112.85 144.7C113.025 145.19 113.69 146.345 114.285 147.325C114.845 148.27 115.58 149.53 115.86 150.125C116.14 150.685 116.665 151.63 117.05 152.225C118.485 154.465 119.22 156.18 119.08 156.985C118.975 157.825 118.905 157.825 114.845 157.93C110.47 158.035 109.665 157.825 108.93 156.46C108.685 155.97 108.09 154.885 107.635 154.01L106.76 152.4H103.785C102.14 152.4 100.6 152.26 100.39 152.12C99.865 151.805 97.765 148.445 96.785 146.38C96.33 145.435 95.84 144.595 95.665 144.49C95.455 144.385 95.49 144.105 95.735 143.79C96.05 143.405 97.625 143.3 103.89 143.3C108.125 143.3 111.8 143.44 112.045 143.58ZM195.24 143.86C195.73 144.315 195.8 145.75 195.8 154.29C195.8 162.69 195.87 164.265 196.325 164.65C196.955 165.175 197.025 167.135 196.43 167.73C195.73 168.43 194.505 168.185 193.63 167.135L192.79 166.155L191.565 167.135C190.515 168.01 190.095 168.115 187.96 168.15C185.72 168.15 185.44 168.08 184.04 166.89C183.2 166.225 182.5 165.455 182.5 165.21C182.5 164.93 182.255 164.545 181.975 164.3C181.555 163.95 181.45 162.97 181.45 159.575C181.45 156.18 181.555 155.2 181.975 154.85C182.255 154.605 182.5 154.255 182.5 154.045C182.5 153.45 184.32 151.7 184.915 151.7C185.23 151.7 185.79 151.455 186.14 151.175C187.015 150.51 188.765 150.51 189.675 151.14C190.06 151.385 190.725 151.7 191.18 151.84C191.95 152.085 191.95 152.085 191.95 148.13C191.95 145.505 192.09 144 192.37 143.72C192.965 143.125 194.61 143.195 195.24 143.86ZM230.03 143.72C230.345 144.035 230.45 146.835 230.45 154.185C230.45 162.655 230.52 164.265 230.975 164.65C231.64 165.21 231.64 167.24 231.01 167.8C230.135 168.5 228.945 168.045 227.755 166.47L226.6 164.93V154.675C226.6 145.785 226.67 144.315 227.16 143.86C227.79 143.195 229.435 143.125 230.03 143.72ZM95.7 146.485C96.295 147.5 96.96 148.62 97.135 149.04C97.31 149.46 97.765 150.23 98.15 150.825C98.5 151.385 99.165 152.575 99.62 153.45C100.075 154.325 100.53 155.06 100.67 155.13C100.81 155.2 101.265 155.97 101.685 156.88C102.105 157.79 102.525 158.595 102.595 158.7C102.7 158.805 106.41 158.945 110.855 159.05C120.795 159.26 120.515 159.015 116.49 164.37C114.985 166.365 113.55 168.115 113.305 168.255C113.06 168.395 112.85 168.71 112.85 168.955C112.85 169.2 112.325 169.97 111.695 170.67C111.1 171.37 110.155 172.42 109.63 173.015L108.72 174.1H101.79C95.175 174.1 94.825 174.065 94.055 173.33C93.6 172.91 93.25 172.28 93.25 171.93C93.25 171.58 93.11 171.3 92.9 171.3C92.725 171.3 92.165 170.46 91.675 169.445C91.15 168.465 90.45 167.135 90.1 166.575C89.715 165.98 89.26 165.175 89.085 164.755C88.91 164.37 88.56 163.915 88.385 163.775C88.175 163.67 88 163.285 88 162.935C88 162.585 87.755 162.095 87.475 161.85C87.195 161.605 86.95 160.975 86.95 160.45C86.95 159.925 87.195 159.295 87.475 159.05C87.755 158.805 88 158.245 88 157.825C88 157.405 88.245 156.845 88.525 156.6C88.805 156.355 89.05 155.795 89.05 155.375C89.05 154.955 89.295 154.395 89.575 154.15C89.855 153.905 90.1 153.38 90.1 152.96C90.1 152.54 90.345 151.875 90.625 151.49C90.905 151.14 91.15 150.475 91.15 150.09C91.15 149.67 91.395 149.145 91.675 148.9C91.955 148.655 92.2 148.165 92.2 147.745C92.2 146.835 93.53 144.7 94.125 144.7C94.37 144.7 95.105 145.505 95.7 146.485ZM130.91 151.175C131.26 151.455 131.89 151.7 132.275 151.7C133.29 151.7 134.9 153.31 134.9 154.325C134.9 154.885 134.585 155.34 133.955 155.655C133.15 156.075 132.905 156.075 132.03 155.585C131.505 155.27 131.05 154.92 131.05 154.745C131.05 154.605 130.28 154.5 129.3 154.5H127.55V155.725C127.55 156.705 127.69 156.95 128.215 156.95C128.565 156.95 129.055 157.195 129.3 157.475C129.545 157.755 130.035 158 130.385 158C131.19 158 133.185 159.05 134.06 159.925C135.075 160.94 135.495 162.83 135.11 164.615C134.83 165.805 134.445 166.365 133.36 167.135C132.17 168.045 131.68 168.15 129.44 168.15C126.675 168.15 124.855 167.485 123.385 165.91C122.405 164.86 122.545 163.95 123.77 163.285C124.645 162.795 124.785 162.795 125.8 163.565C127.375 164.72 130.245 164.965 131.4 164.02C132.135 163.425 132.17 163.25 131.785 162.795C131.26 162.13 128.6 160.8 127.83 160.8C127.515 160.8 127.095 160.555 126.85 160.275C126.605 159.995 126.255 159.75 126.045 159.75C125.835 159.75 125.205 159.33 124.68 158.805C123.805 158 123.7 157.615 123.7 155.76C123.7 153.975 123.84 153.52 124.645 152.68C125.17 152.155 125.835 151.7 126.115 151.7C126.43 151.7 126.99 151.455 127.34 151.175C127.725 150.895 128.53 150.65 129.125 150.65C129.72 150.65 130.525 150.895 130.91 151.175ZM145.96 151.175C146.31 151.455 146.87 151.7 147.185 151.7C148.025 151.7 149.46 153.73 149.775 155.375C150.16 157.3 149.985 166.365 149.565 167.17C149.18 167.87 147.85 168.01 147.22 167.38C146.94 167.1 146.8 165.42 146.8 162.13C146.8 157.93 146.695 157.09 146.1 155.9C145.4 154.535 145.33 154.5 143.615 154.5C142.25 154.5 141.62 154.675 140.99 155.27C140.185 156.04 140.15 156.25 140.15 161.395C140.15 166.68 140.15 166.715 139.24 167.415C138.295 168.15 138.085 168.115 136.93 167.135C136.37 166.645 136.3 165.875 136.3 159.54C136.3 154.185 136.405 152.4 136.755 152.12C137 151.91 138.155 151.77 139.31 151.77C140.78 151.84 141.655 151.665 142.25 151.245C143.3 150.51 145.05 150.475 145.96 151.175ZM160.905 151.525C161.955 152.015 163.145 152.925 163.6 153.52C164.335 154.535 164.405 154.955 164.44 160.24C164.475 166.89 164.3 167.8 163.005 167.8C162.515 167.8 161.885 167.52 161.64 167.205C161.22 166.61 161.15 166.61 160.135 167.38C158.595 168.5 155.375 168.465 153.59 167.275C150.86 165.42 150.265 162.095 152.225 159.54C152.75 158.875 153.345 158.245 153.59 158.21C153.8 158.14 154.78 157.825 155.76 157.51C156.74 157.195 158.21 156.95 158.98 156.985C160.8 157.09 161.08 156.81 160.415 155.62C159.995 154.815 159.645 154.675 158.175 154.57C156.635 154.5 156.285 154.605 155.27 155.55C153.975 156.74 153.38 156.845 152.61 156.04C151.63 155.095 151.91 153.625 153.24 152.61C153.905 152.12 154.675 151.7 154.92 151.7C155.165 151.7 155.69 151.455 156.04 151.175C157.055 150.405 158.805 150.545 160.905 151.525ZM175.36 151.175C175.71 151.455 176.27 151.7 176.585 151.7C177.145 151.7 178.545 153.065 179.42 154.5C180.12 155.69 180.47 158.84 180.19 161.885C179.945 164.335 179.91 164.44 178.055 166.26L176.2 168.15H173.61C171.755 168.15 170.915 168.01 170.6 167.625C169.795 166.645 169.585 167.1 169.48 170.11C169.375 172.945 169.34 173.12 168.43 173.68C167.52 174.205 167.45 174.205 166.575 173.4L165.7 172.595V162.515C165.7 152.61 165.7 152.435 166.435 152.015C166.855 151.805 167.8 151.735 168.64 151.84C169.725 152.015 170.39 151.875 171.3 151.385C172.77 150.545 174.415 150.475 175.36 151.175ZM206.86 151.385C207.805 151.805 208.925 152.47 209.38 152.855C211.235 154.57 212.215 159.015 210.99 160.24C210.57 160.695 209.555 160.8 205.74 160.8H201.05V161.745C201.05 162.305 201.365 163.11 201.75 163.6C202.345 164.37 202.66 164.475 204.83 164.475C206.685 164.475 207.455 164.335 207.945 163.845C208.96 162.935 210.045 163.11 210.64 164.23C211.095 165.105 211.06 165.28 210.57 165.98C209.45 167.45 207.56 168.15 204.725 168.15C201.225 168.15 199.51 167.135 197.795 164.055C196.955 162.515 196.955 156.635 197.795 155.095C198.67 153.52 200.385 151.7 201.015 151.7C201.33 151.7 201.89 151.455 202.24 151.175C203.22 150.44 204.865 150.51 206.86 151.385ZM221.385 151.35C225.025 153.03 225.2 153.415 225.2 160.66C225.2 163.985 225.095 166.925 224.99 167.24C224.71 167.975 223.1 167.94 222.54 167.205C222.12 166.61 222.05 166.61 221.035 167.38C219.495 168.535 216.24 168.465 214.35 167.275C213.58 166.785 212.95 166.19 212.95 165.91C212.95 165.665 212.705 165.245 212.425 165C212.075 164.72 211.9 163.95 211.9 162.795C211.9 161.325 212.075 160.835 213.16 159.54C213.825 158.7 214.665 158 215.015 158C215.365 158 216.17 157.755 216.765 157.44C217.57 157.055 218.375 156.915 219.39 157.055C220.195 157.16 221.07 157.125 221.35 156.95C221.805 156.67 221.805 156.495 221.35 155.655C220.895 154.815 220.545 154.675 219.145 154.57C217.71 154.465 217.29 154.605 216.135 155.515C214.105 157.125 212.95 156.81 212.95 154.64C212.95 153.8 213.23 153.275 214.035 152.61C214.63 152.12 215.365 151.7 215.68 151.7C215.995 151.7 216.59 151.455 216.94 151.175C217.885 150.44 219.565 150.51 221.385 151.35Z" fill="#FF0000"/>
<path d="M185.965 155.41C185.195 156.215 185.125 156.6 185.125 159.645C185.125 162.83 185.16 163.005 186.105 163.81C187.12 164.685 187.925 164.825 189.745 164.44C191.32 164.125 191.95 162.76 191.95 159.54C191.95 157.195 191.845 156.705 191.04 155.655C190.27 154.64 189.99 154.5 188.485 154.5C187.155 154.5 186.665 154.675 185.965 155.41Z" fill="#FF0000"/>
<path d="M155.48 161.185C155.06 161.43 154.85 161.955 154.85 162.9C154.85 164.23 154.885 164.265 156.355 164.475C158.84 164.86 160.1 164.335 160.66 162.725C160.905 161.955 161.15 161.22 161.15 161.045C161.15 160.66 156.18 160.765 155.48 161.185Z" fill="#FF0000"/>
<path d="M170.425 155.795C169.69 156.915 169.55 157.51 169.55 159.645C169.55 163.46 170.495 164.65 173.575 164.65C175.885 164.65 177.285 161.29 176.515 157.755C175.955 155.235 175.185 154.535 172.98 154.5C171.44 154.5 171.265 154.605 170.425 155.795Z" fill="#FF0000"/>
<path d="M201.855 155.27C201.435 155.725 201.05 156.46 200.98 156.95L200.875 157.825L204.305 157.93C207.525 158.035 207.7 158 207.7 157.3C207.7 156.915 207.35 156.11 206.93 155.55C206.265 154.605 205.95 154.5 204.375 154.5C202.94 154.5 202.415 154.675 201.855 155.27Z" fill="#FF0000"/>
<path d="M216.17 161.22C215.925 161.465 215.75 162.235 215.75 162.97C215.75 164.16 215.82 164.3 216.975 164.51C217.64 164.615 218.76 164.58 219.495 164.405C220.545 164.16 220.965 163.845 221.455 162.795C221.805 162.06 221.98 161.325 221.875 161.15C221.56 160.66 216.66 160.73 216.17 161.22Z" fill="#FF0000"/>
</svg>
