<svg width="316" height="315" viewBox="0 0 316 315" fill="none" xmlns="http://www.w3.org/2000/svg">
<path fill-rule="evenodd" clip-rule="evenodd" d="M79.4668 158.083C79.4668 166.779 85.5142 173.186 94.6894 173.186C101.099 173.186 106.376 169.466 107.963 163.955C108.055 163.634 107.853 163.308 107.528 163.229L103.038 162.138C102.721 162.061 102.401 162.249 102.288 162.555C101.128 165.68 98.0894 167.611 94.5225 167.611C89.2977 167.611 85.738 163.993 85.3423 158.601C85.3404 158.508 85.3382 158.422 85.3361 158.34C85.3264 157.968 85.319 157.679 85.3509 157.288C85.787 151.957 89.3335 148.389 94.5225 148.389C98.0043 148.389 100.983 150.229 102.201 153.224C102.323 153.522 102.642 153.7 102.954 153.619L107.443 152.458C107.769 152.374 107.966 152.04 107.864 151.719C106.166 146.388 100.971 142.814 94.6894 142.814C85.5142 142.814 79.4668 149.221 79.4668 157.917V158.083Z" fill="#2B2B2B"/>
<path d="M259.601 143.438C259.264 143.438 258.99 143.71 258.99 144.047V171.952C258.99 172.289 259.264 172.561 259.601 172.561H264.218C264.555 172.561 264.828 172.289 264.828 171.952V160.999C264.828 160.662 265.101 160.39 265.44 160.39H277.522C277.859 160.39 278.132 160.662 278.132 160.999V171.952C278.132 172.289 278.406 172.561 278.743 172.561H283.361C283.698 172.561 283.972 172.289 283.972 171.952V144.047C283.972 143.71 283.698 143.438 283.361 143.438H278.743C278.406 143.438 278.132 143.71 278.132 144.047V154.23C278.132 154.567 277.859 154.839 277.522 154.839H265.44C265.101 154.839 264.828 154.567 264.828 154.23V144.047C264.828 143.71 264.555 143.438 264.218 143.438H259.601Z" fill="#2B2B2B"/>
<path d="M231.892 143.438C231.554 143.438 231.28 143.71 231.28 144.047V148.403C231.28 148.74 231.554 149.013 231.892 149.013H239.819C240.156 149.013 240.43 149.286 240.43 149.622V171.952C240.43 172.289 240.703 172.561 241.04 172.561H245.657C245.995 172.561 246.269 172.289 246.269 171.952V149.622C246.269 149.286 246.542 149.013 246.879 149.013H254.806C255.143 149.013 255.417 148.74 255.417 148.403V144.047C255.417 143.71 255.143 143.438 254.806 143.438H231.892Z" fill="#2B2B2B"/>
<path d="M216.388 143.438C216.138 143.438 215.914 143.588 215.822 143.818L204.513 171.724C204.35 172.124 204.646 172.561 205.079 172.561H210.14C210.39 172.561 210.615 172.409 210.708 172.177L213.1 166.172C213.217 165.879 213.537 165.721 213.845 165.793C214.784 166.015 216.87 166.426 219.438 166.426C222.007 166.426 224.094 166.014 225.032 165.793C225.338 165.72 225.658 165.877 225.776 166.168L228.208 172.18C228.301 172.41 228.526 172.561 228.775 172.561H233.877C234.311 172.561 234.606 172.123 234.442 171.722L223.054 143.817C222.96 143.588 222.736 143.438 222.488 143.438H216.388ZM223.114 159.477C223.245 159.803 223.073 160.169 222.731 160.256C222.014 160.439 220.767 160.696 219.459 160.696C218.148 160.696 216.9 160.438 216.182 160.256C215.841 160.169 215.67 159.804 215.8 159.478L219.155 151.091C219.257 150.836 219.619 150.835 219.722 151.09L223.114 159.477Z" fill="#2B2B2B"/>
<path d="M168.762 143.438C168.425 143.438 168.151 143.71 168.151 144.047V171.952C168.151 172.289 168.425 172.561 168.762 172.561H173.38C173.717 172.561 173.991 172.289 173.992 171.953L174.028 156.072C174.03 155.741 174.485 155.648 174.615 155.953L181.547 172.191C181.643 172.415 181.864 172.561 182.109 172.561H187.391C187.636 172.561 187.857 172.415 187.952 172.19L194.924 155.839C195.054 155.533 195.51 155.626 195.51 155.958V171.952C195.51 172.289 195.784 172.561 196.121 172.561H200.738C201.075 172.561 201.349 172.289 201.349 171.952V144.047C201.349 143.71 201.075 143.438 200.738 143.438H194.705C194.459 143.438 194.238 143.584 194.143 143.809L185.031 165.203C184.926 165.45 184.574 165.45 184.469 165.203L175.357 143.809C175.262 143.584 175.041 143.438 174.795 143.438H168.762Z" fill="#2B2B2B"/>
<path d="M142.323 143.438C141.986 143.438 141.712 143.71 141.712 144.047V171.952C141.712 172.289 141.986 172.561 142.323 172.561H161.996C162.333 172.561 162.607 172.289 162.607 171.952V167.596C162.607 167.259 162.333 166.986 161.996 166.986H148.162C147.825 166.986 147.552 166.713 147.552 166.377V161.064C147.552 160.727 147.825 160.454 148.162 160.454H160.286C160.623 160.454 160.896 160.181 160.896 159.845V155.488C160.896 155.152 160.623 154.879 160.286 154.879H148.162C147.825 154.879 147.552 154.606 147.552 154.27V149.622C147.552 149.286 147.825 149.013 148.162 149.013H161.996C162.333 149.013 162.607 148.74 162.607 148.403V144.047C162.607 143.71 162.333 143.438 161.996 143.438H142.323Z" fill="#2B2B2B"/>
<path d="M112.309 143.438C111.972 143.438 111.699 143.71 111.698 144.045L111.658 160.87C111.658 168.151 116.538 173.185 124.128 173.185C131.635 173.185 136.515 168.151 136.515 160.87L136.475 144.045C136.473 143.71 136.2 143.438 135.863 143.438H131.246C130.909 143.438 130.635 143.711 130.636 144.048L130.676 160.787C130.676 165.072 128.299 167.61 124.128 167.61C119.916 167.61 117.497 165.031 117.497 160.787L117.537 144.048C117.538 143.711 117.264 143.438 116.926 143.438H112.309Z" fill="#2B2B2B"/>
<path d="M43.7439 168.325C44.0853 168.666 44.0862 169.222 43.725 169.543C40.6185 172.299 36.7774 173.403 34.9308 173.798C34.3769 173.916 33.915 173.454 34.0333 172.9C34.4282 171.054 35.5318 167.212 38.2883 164.106C38.6086 163.745 39.1647 163.746 39.5061 164.087L43.7439 168.325Z" fill="#FFBA07"/>
<path fill-rule="evenodd" clip-rule="evenodd" d="M56.5961 164.155C56.5012 164.272 56.4536 164.42 56.4621 164.57C56.6715 168.275 56.5913 169.746 53.7346 172.602C51.7006 174.636 46.9013 176.217 44.3028 176.959C43.754 177.116 43.3281 176.457 43.6608 175.994C45.3094 173.695 47.993 169.205 45.7206 166.933C44.1527 165.365 43.6695 164.882 43.1866 164.399C42.7041 163.916 42.2216 163.434 40.6562 161.868C38.4175 159.63 34.1387 162.329 31.8812 164.05C31.4192 164.402 30.7353 163.976 30.896 163.418C31.6502 160.797 33.2156 156.097 35.2227 154.09C38.0793 151.234 39.5498 151.153 43.2555 151.363C43.4054 151.371 43.5533 151.324 43.6695 151.229C45.3099 149.889 57.8681 139.86 67.2092 139.024C68.1324 138.941 68.8839 139.693 68.8012 140.616C67.9648 149.957 57.9358 162.515 56.5961 164.155ZM52.803 155.094C54.0597 156.351 56.5087 155.94 58.2727 154.176C60.0367 152.412 60.4478 149.963 59.1911 148.706C57.9344 147.449 55.4856 147.86 53.7214 149.624C51.9574 151.388 51.5462 153.837 52.803 155.094Z" fill="#2B2B2B"/>
</svg>
