<svg width="316" height="315" viewBox="0 0 316 315" fill="none" xmlns="http://www.w3.org/2000/svg">
<path d="M91.2445 110.899C94.6456 104.369 83.626 106.206 83.626 106.206C79.6808 106.206 77.9122 110.967 77.0959 112.328L65.1921 135.795C62.9474 139.672 55.533 156.27 53.0842 159.943C52.8801 156.202 53.1522 148.719 53.2202 146.951C53.6964 139.877 54.1725 134.503 54.9208 128.041C55.465 123.007 56.5533 117.361 55.533 112.328C54.8528 109.199 53.8324 108.995 49.343 108.518C44.6495 108.042 41.4524 114.844 39.8879 118.042C34.1741 129.877 27.78 141.441 22.6784 153.549C21.1819 157.086 19.3453 160.623 17.7808 164.092C15.9442 168.31 14.2437 172.459 12.271 176.608C10.1623 180.962 3.56421 195.246 1.72762 199.736C-0.313041 204.633 -0.721172 208.579 7.44146 208.375C8.73388 208.375 11.5908 208.647 15.1279 204.838C17.9168 201.845 18.461 199.056 20.0935 194.906C25.9434 180.214 30.0928 170.486 36.4868 155.93C37.099 154.501 38.5275 150.352 39.956 147.155C39.8879 151.712 39.1397 157.154 38.7996 160.759C37.7112 173.956 36.963 186.676 35.8066 199.736C35.6706 201.504 35.1944 203.613 36.0107 205.246C36.8269 206.878 38.8676 207.286 40.5001 207.49C47.0302 208.307 47.7105 205.042 49.7511 200.552C51.5877 196.539 52.6761 193.274 54.3086 189.192C59.3422 176.608 64.6479 164.16 70.4978 151.916C71.9943 148.787 73.4908 145.726 75.1233 142.665C78.1163 137.02 80.5651 131.714 83.8301 125.456C86.2789 120.966 88.6597 115.865 91.2445 110.899ZM315.377 146.339C314.629 138.788 304.289 142.597 298.099 143.754C295.787 144.162 288.644 145.522 280.414 147.087C280.073 138.584 280.21 140.285 280.141 135.115C279.937 127.633 279.529 121.783 279.121 115.185C278.849 111.035 278.237 105.253 270.754 106.342C262.048 107.566 260.619 111.92 258.306 117.157C252.252 130.83 252.457 130.898 245.586 146.135C245.042 147.291 242.525 153.413 242.117 154.637C241.845 154.705 241.301 154.841 240.621 155.045C237.832 155.658 234.431 156.406 230.69 157.222L230.758 156.882C231.642 149.944 232.73 143.006 233.682 136.067C234.567 129.741 235.519 119.402 236.267 113.076C237.084 106.274 229.193 106.41 229.193 106.41C224.363 106.138 222.527 107.566 219.466 111.511C214.228 118.314 207.902 125.66 202.324 133.142C192.189 146.679 184.775 156.882 175.592 170.486C172.939 174.432 168.858 180.418 165.32 185.111C162.94 180.418 160.899 175.248 158.926 170.486C156.069 163.684 153.961 159.467 152.6 154.977C151.376 151.032 152.872 150.488 155.797 148.243C164.232 141.849 173.755 137.428 182.394 131.306C188.516 126.952 195.862 122.123 201.848 117.633C201.848 117.633 205.317 115.593 207.222 113.008C209.603 109.743 202.869 106.342 202.869 106.342C199.059 105.73 196.951 106.614 194.298 107.838C191.577 109.063 188.04 111.852 185.727 113.688C180.625 117.633 174.163 122.327 169.13 126.272C162.94 131.102 158.722 134.095 151.92 138.108L169.198 112.26C174.843 104.981 159.879 102.941 154.165 110.627C148.859 117.497 145.254 123.551 141.105 129.809C131.105 144.706 122.875 160.351 114.644 176.744C111.515 183.002 108.454 189.533 105.597 195.995C104.237 199.124 100.223 206.334 105.733 207.082C117.501 208.579 119.406 203.001 122.058 196.267C126.412 185.179 127.84 183.139 130.629 176.268C133.35 169.602 135.323 165.793 138.384 160.079C138.452 160.011 139.336 158.583 139.336 158.583C139.88 159.739 143.485 171.711 143.962 173.071C146.41 179.533 150.696 194.634 153.144 201.504C154.913 207.218 155.389 208.851 163.076 208.647C166.885 208.579 168.517 207.082 171.034 202.321C173.551 197.559 184.435 177.289 184.435 177.289C187.7 176.744 192.393 175.928 195.454 175.384C195.998 175.316 197.223 175.044 198.923 174.704C200.08 174.568 201.032 174.364 201.78 174.16C201.848 174.16 201.848 174.16 201.916 174.092C204.909 173.479 208.718 172.731 212.868 171.915C212.12 175.656 209.807 183.887 209.331 185.995C209.331 185.995 204.297 205.586 210.827 206.606C214.908 207.218 217.017 206.538 217.017 206.538C224.636 205.654 224.772 195.382 224.772 195.382L228.921 168.786C231.914 168.174 234.907 167.561 237.832 167.017L228.853 197.355C227.561 201.64 226.608 207.15 234.295 207.15C240.553 207.49 240.961 203.545 240.961 203.545C241.097 202.933 246.062 186.948 247.287 181.234C248.103 177.561 251.028 168.106 252.184 164.296C255.45 163.684 257.898 163.208 259.055 163.004C260.415 162.8 263.068 162.324 266.537 161.78C266.469 165.317 266.537 170.214 266.605 170.895C267.353 181.642 266.537 192.798 268.782 203.341C269.122 205.042 269.802 207.218 271.979 207.218C274.564 207.218 275.38 206.946 278.101 206.742C285.991 206.062 284.563 198.103 284.087 193.07C283.543 187.492 282.998 182.798 282.25 177.221C281.638 172.663 281.23 166.677 281.162 159.467V159.331C294.086 157.154 308.03 154.773 310.071 154.433C313.336 153.549 316.057 153.821 315.377 146.339ZM214.364 160.623C214.364 160.691 214.296 160.691 214.296 160.759C205.249 162.732 196.747 164.637 191.985 165.725C196.747 157.766 217.697 128.789 220.894 125.388C219.126 134.367 216.269 151.032 214.364 160.623ZM266.605 149.196V149.672C262.252 150.488 258.17 151.304 254.905 151.916C259.055 141.169 263.408 127.973 265.993 121.307C265.789 126.272 266.809 144.298 266.605 149.196ZM139.744 117.157C141.105 114.64 144.166 109.675 140.356 107.77C138.112 106.682 135.119 106.002 132.806 107.158C130.901 108.178 129.473 110.151 128.521 111.988L113.964 134.911C111.583 138.176 109.338 142.257 104.509 142.801C101.312 143.142 98.999 141.781 99.067 138.924C99.135 135.999 100.836 132.122 102.128 129.605C105.937 122.395 106.413 119.946 110.087 112.804C113.624 105.934 102.06 104.369 99.2031 109.335C97.1624 112.872 93.2171 119.538 92.3329 121.783C90.7003 125.864 78.4564 145.318 83.7621 153.005C90.5643 161.712 108.658 147.971 99.4071 163.82C91.9247 176.54 87.2312 183.819 80.7011 195.587C79.2726 198.103 77.5041 200.62 77.0279 203.613C76.3477 207.83 82.1296 207.762 84.6464 207.626C89.0678 207.286 91.1765 205.246 92.9451 201.232C93.8974 199.124 95.1898 196.539 96.1421 194.43C104.713 175.724 113.828 159.467 125.119 141.373C130.493 132.802 135.255 125.456 139.744 117.157Z" fill="#FC2779"/>
</svg>
