<svg width="316" height="315" viewBox="0 0 316 315" fill="none" xmlns="http://www.w3.org/2000/svg">
<g clip-path="url(#clip0_228_209)">
<path d="M54.6399 104C52.0477 104 46.2592 104.669 40.3199 122.815C22.5554 114.275 18.658 117.638 16.7138 119.584C14.8938 121.388 11.2717 125.932 19.972 142.871C1.50604 149.104 1 155.399 1 157.195C1 158.868 1.68359 165.348 19.9187 171.361C11.2983 188.741 15.4265 193.548 16.6961 194.825C17.8857 196.005 22.9993 200.107 40.1601 191.576C46.3658 209.889 52.1454 210.391 54.6311 210.391C57.2235 210.391 63.0028 209.722 68.9244 191.655C86.3606 200.257 90.8084 196.559 92.5574 194.825C94.3773 193.011 97.9993 188.477 89.2991 171.52C107.765 165.286 108.271 158.991 108.271 157.195C108.271 155.523 107.587 149.043 89.3525 143.029C97.9729 125.658 93.8447 120.843 92.5574 119.584C91.3589 118.404 86.2363 114.292 69.0221 122.868C62.5591 104.343 57.4011 104 54.6399 104ZM21.4546 124.285C22.0316 123.713 23.9758 121.239 38.9971 127.182C38.9262 127.437 38.8463 127.683 38.7841 127.956C36.6269 135.686 31.9215 139.358 25.2898 141.233C24.9525 141.33 24.6329 141.418 24.3133 141.515C17.9656 127.032 20.7266 125.016 21.4546 124.285ZM66.119 129.083C66.2788 129.004 66.4299 128.934 66.5897 128.872C66.6873 129.101 66.7672 129.321 66.8559 129.55C69.9276 137.289 74.846 142.475 82.8005 145.362C82.978 145.433 83.1378 145.486 83.2976 145.547C83.1912 145.776 83.0936 145.988 82.987 146.225C79.498 153.797 79.276 161.043 82.987 168.597C83.0669 168.755 83.1378 168.914 83.2177 169.072C82.987 169.169 82.7473 169.248 82.5164 169.336C74.6685 172.224 69.3329 177.181 66.5717 185.123C66.5185 185.299 66.4476 185.457 66.3942 185.624C66.1635 185.519 65.9415 185.422 65.6929 185.316C58.0313 181.909 50.8226 181.777 43.1343 185.316C42.9745 185.395 42.8147 185.466 42.6639 185.527C42.566 185.299 42.4861 185.078 42.3975 184.832C39.4056 177.067 34.4073 171.907 26.4528 169.02C26.2753 168.949 26.1155 168.896 25.9557 168.835C26.0533 168.606 26.1597 168.394 26.2663 168.165C29.7553 160.594 29.9151 153.392 26.2663 145.794C26.1864 145.635 26.1155 145.477 26.0356 145.318C26.2663 145.222 26.506 145.142 26.737 145.054C34.5938 142.158 39.8495 137.166 42.6993 129.251C42.7525 129.092 42.8237 128.934 42.8769 128.775C43.1076 128.872 43.3295 128.978 43.5782 129.066C51.2485 132.411 58.4397 132.623 66.119 129.083ZM7.70278 157.195C7.70278 156.262 7.22338 152.969 22.1292 146.877C22.2802 147.132 22.4223 147.396 22.5731 147.651C26.5594 154.624 25.8314 160.523 22.4932 166.493C22.3334 166.774 22.1826 167.047 22.0228 167.329C7.37431 161.439 7.70278 158.049 7.70278 157.195ZM21.4546 190.115C20.7799 189.445 18.0987 187.456 24.2954 172.691C24.5795 172.77 24.8549 172.849 25.1565 172.929C32.9514 175.068 36.6357 179.734 38.5445 186.311C38.6421 186.628 38.7309 186.936 38.8108 187.244C24.2422 193.354 22.0583 190.722 21.4546 190.115ZM54.6399 203.744C53.8499 203.744 50.645 204.545 44.2618 189.419C44.5015 189.287 44.7589 189.137 45.0163 189.005C52.0477 185.052 57.9958 185.774 64.015 189.084C64.3256 189.26 64.6275 189.428 64.9383 189.586C59.2299 204.157 55.4034 203.744 54.6399 203.744ZM87.8342 190.115C87.275 190.669 85.5704 193.478 70.2827 187.271C70.3626 187.007 70.4425 186.725 70.5136 186.443C72.6708 178.713 77.3762 175.042 84.0079 173.166C84.3542 173.069 84.6915 172.964 85.0289 172.876C91.3587 187.2 88.3848 189.577 87.8342 190.115ZM101.577 157.195C101.577 158.129 102.057 161.421 87.1506 167.514C86.9998 167.259 86.8665 167.012 86.7246 166.739C82.7383 159.766 83.4664 153.867 86.8045 147.898C86.9643 147.607 87.1241 147.326 87.275 147.044C101.915 152.952 101.577 156.35 101.577 157.195ZM87.8342 124.285C88.5091 124.954 91.1901 126.944 84.9934 141.709C84.7093 141.629 84.4341 141.55 84.1323 141.471C76.3374 139.332 72.7597 134.621 70.7443 128.089C70.6467 127.78 70.5581 127.481 70.4604 127.173C85.0466 121.054 87.2305 123.686 87.8342 124.285ZM64.9828 124.998C64.7518 125.13 64.5121 125.254 64.2724 125.394C57.2413 129.347 51.3464 128.529 45.2738 125.315C44.9632 125.157 44.6701 124.998 44.3594 124.84C50.2189 110.145 53.6102 110.647 54.6489 110.647C55.4479 110.647 58.5818 110.251 64.9828 124.998Z" fill="url(#paint0_linear_228_209)"/>
<path fill-rule="evenodd" clip-rule="evenodd" d="M143.898 173.343C143.898 174.267 144.626 175.024 145.523 175.024H172.707C172.831 175.024 172.929 174.919 172.929 174.796V172.392C172.929 172.269 172.831 172.163 172.707 172.163H147.68C147.387 172.163 147.148 171.917 147.148 171.608V158.103C147.148 157.795 147.387 157.557 147.68 157.557H171.047C171.171 157.557 171.269 157.451 171.269 157.328V154.995C171.269 154.871 171.171 154.766 171.047 154.766H147.68C147.387 154.766 147.148 154.519 147.148 154.22V142.792C147.148 142.484 147.387 142.246 147.68 142.246H172.334C172.458 142.246 172.556 142.14 172.556 142.017V139.605C172.556 139.482 172.458 139.376 172.334 139.376H145.523C144.626 139.376 143.898 140.133 143.898 141.058V173.343Z" fill="#042132"/>
<path fill-rule="evenodd" clip-rule="evenodd" d="M189.113 175.015H216.243C216.368 175.015 216.475 174.909 216.475 174.786V172.383C216.475 172.251 216.368 172.154 216.243 172.154H191.04C190.738 172.154 190.49 171.907 190.49 171.599V139.604C190.49 139.481 190.383 139.375 190.259 139.375H187.666C187.542 139.375 187.436 139.481 187.436 139.604V173.342C187.445 174.267 188.19 175.015 189.113 175.015Z" fill="#042132"/>
<path fill-rule="evenodd" clip-rule="evenodd" d="M285.821 161.914L295.488 143.082C295.594 142.888 295.807 142.818 295.967 142.818C296.136 142.818 296.349 142.888 296.447 143.082L306.097 161.914C306.185 162.082 306.177 162.293 306.079 162.452C305.981 162.619 305.803 162.724 305.609 162.724H286.29C286.104 162.724 285.927 162.628 285.829 162.46C285.731 162.293 285.731 162.091 285.821 161.914ZM284.258 165.524H307.66C307.864 165.524 308.042 165.639 308.14 165.815L312.773 174.892C312.808 174.971 312.888 175.015 312.977 175.015H315.773C315.854 175.015 315.925 174.971 315.969 174.901C316.004 174.83 316.013 174.742 315.977 174.672L298.727 141.101C298.64 140.925 297.786 139.367 295.949 139.367C294.075 139.367 293.216 141.022 293.18 141.092L275.939 174.681C275.903 174.751 275.903 174.839 275.947 174.91C275.993 174.98 276.064 175.024 276.143 175.024H278.939C279.028 175.024 279.099 174.98 279.143 174.901L283.778 165.832C283.876 165.639 284.054 165.524 284.258 165.524Z" fill="#042132"/>
<path fill-rule="evenodd" clip-rule="evenodd" d="M260.625 162.504C260.11 161.598 259.409 160.779 258.539 160.074C257.667 159.379 256.638 158.754 255.466 158.225C254.304 157.697 253.052 157.222 251.746 156.79C250.44 156.368 249.082 155.963 247.697 155.602C246.312 155.232 244.964 154.871 243.659 154.51C242.388 154.167 241.147 153.779 239.947 153.357C238.794 152.952 237.763 152.494 236.902 151.992C236.042 151.499 235.358 150.918 234.851 150.275C234.346 149.633 234.098 148.902 234.098 148.039C234.098 147.009 234.355 146.146 234.897 145.406C235.429 144.667 236.209 144.042 237.223 143.558C238.208 143.082 239.432 142.827 240.968 142.58C242.38 142.36 244.005 142.237 245.799 142.237H258.476C258.528 142.237 258.582 142.21 258.626 142.166C258.662 142.122 258.689 142.07 258.689 142.008V139.596C258.689 139.472 258.591 139.367 258.484 139.367H258.28H245.816C244.572 139.367 240.942 139.455 238.892 139.983C237.807 140.238 236.768 140.599 235.819 141.04C234.862 141.48 234.017 142.043 233.307 142.695C232.596 143.346 232.02 144.13 231.611 145.037C231.203 145.935 230.99 146.982 230.99 148.145C230.99 149.324 231.246 150.372 231.762 151.27C232.277 152.159 232.978 152.952 233.848 153.63C234.709 154.299 235.74 154.897 236.912 155.408C238.074 155.91 239.326 156.368 240.613 156.764C241.9 157.16 243.258 157.539 244.643 157.882C246.028 158.225 247.378 158.578 248.665 158.93C249.971 159.291 251.214 159.687 252.36 160.101C253.522 160.515 254.542 160.999 255.403 161.536C256.265 162.073 256.949 162.707 257.454 163.411C257.961 164.124 258.201 164.926 258.201 165.868C258.201 167.047 257.89 168.016 257.26 168.826C256.638 169.636 255.75 170.296 254.623 170.798C253.459 171.318 252.038 171.555 250.574 171.775C249.145 171.995 247.476 172.11 245.469 172.127H231.38C231.265 172.127 231.175 172.233 231.175 172.356V174.769C231.175 174.901 231.265 174.998 231.38 174.998L245.371 175.006C246.587 175.006 247.85 174.954 249.101 174.839C250.361 174.733 251.596 174.54 252.777 174.276L253.042 174.214C254.116 173.976 255.138 173.739 256.115 173.316C257.162 172.858 258.076 172.268 258.858 171.573C259.638 170.877 260.26 170.032 260.721 169.072C261.184 168.104 261.413 166.959 261.413 165.665C261.397 164.477 261.138 163.411 260.625 162.504Z" fill="#042132"/>
</g>
<defs>
<linearGradient id="paint0_linear_228_209" x1="54.6355" y1="210.391" x2="54.6355" y2="104" gradientUnits="userSpaceOnUse">
<stop stop-color="#007DF7"/>
<stop offset="0.5028" stop-color="#46DF83"/>
<stop offset="1" stop-color="#F8DA49"/>
</linearGradient>
<clipPath id="clip0_228_209">
<rect width="315" height="106.391" fill="white" transform="translate(1 104)"/>
</clipPath>
</defs>
</svg>
