<svg width="316" height="315" viewBox="0 0 316 315" fill="none" xmlns="http://www.w3.org/2000/svg">
<g clip-path="url(#clip0_228_1165)">
<path fill-rule="evenodd" clip-rule="evenodd" d="M245.428 181.292C241.245 183.933 236.322 184.263 232.577 182.15C227.824 179.467 225.207 173.19 225.207 164.433V138.275C225.207 125.642 220.213 116.654 211.861 114.225C197.714 110.103 187.066 127.429 183.062 133.923L158.101 174.393V124.93C157.818 113.546 154.126 106.736 147.104 104.685C142.464 103.327 135.513 103.874 128.765 114.201L72.8405 203.994C65.3537 189.781 61.4507 173.956 61.4708 157.893C61.4708 103.799 104.818 59.8055 158.101 59.8055C211.385 59.8055 254.727 103.813 254.727 157.893C254.727 157.987 254.751 158.067 254.756 158.152C254.76 158.237 254.756 158.331 254.756 158.426C255.26 168.899 251.87 177.232 245.442 181.292H245.428ZM276.198 157.902V157.633V157.364C275.892 91.4811 223.037 38 158.097 38C92.9815 38 40 91.7829 40 157.897C40 224.012 92.9815 277.79 158.101 277.79C187.969 277.795 216.704 266.353 238.392 245.817C240.487 243.835 241.721 241.109 241.828 238.226C241.935 235.343 240.906 232.534 238.962 230.402C237.069 228.315 234.423 227.066 231.609 226.929C228.794 226.792 226.04 227.778 223.952 229.671L223.792 229.817C206.049 246.622 182.539 255.985 158.101 255.98C129.571 255.98 103.903 243.351 86.2003 223.328L136.631 142.364V179.693C136.631 197.613 143.586 203.423 149.415 205.116C155.244 206.809 164.171 205.654 173.536 190.45L201.279 145.481C202.17 144.028 202.986 142.779 203.736 141.708V164.448C203.736 181.212 210.451 194.628 222.156 201.23C232.705 207.181 245.97 206.644 256.779 199.815C269.874 191.525 276.934 176.279 276.198 157.902Z" fill="#17181B"/>
</g>
<defs>
<clipPath id="clip0_228_1165">
<rect width="236.25" height="239.79" fill="white" transform="translate(40 38)"/>
</clipPath>
</defs>
</svg>
