<svg width="316" height="315" viewBox="0 0 316 315" fill="none" xmlns="http://www.w3.org/2000/svg">
<g clip-path="url(#clip0_228_650)">
<path d="M15.0132 134.008C15.0132 120.197 25.9566 109 39.4561 109C65.6261 109 88.4568 128.679 100.563 157.871C88.4565 187.074 65.6277 206.759 39.4569 206.759C25.957 206.759 15.0132 195.558 15.0132 181.742C15.0132 170.541 22.2067 161.059 32.1237 157.871C22.207 154.685 15.0132 145.206 15.0132 134.008Z" fill="url(#paint0_linear_228_650)"/>
<path d="M15.131 177.413C7.32667 177.413 1 172.936 1 167.414C1 162.936 5.15862 159.146 10.8917 157.872H50.4585C43.4596 169.545 30.2605 177.413 15.131 177.413Z" fill="#C51EA9"/>
<path d="M15.131 138.33C7.32667 138.33 1 142.807 1 148.329C1 152.807 5.15862 156.597 10.8917 157.872H50.4585C43.4596 146.198 30.2605 138.33 15.131 138.33Z" fill="url(#paint1_linear_228_650)"/>
<path d="M50.1548 181.823C43.1072 181.823 37.394 176.335 37.394 169.566C37.394 164.079 41.1496 159.433 46.3267 157.872H82.0564C75.7363 172.179 63.8171 181.823 50.1548 181.823Z" fill="url(#paint2_linear_228_650)"/>
<path fill-rule="evenodd" clip-rule="evenodd" d="M74.2065 148.217C76.9739 148.217 79.2171 145.974 79.2171 143.206C79.2171 140.439 76.9739 138.196 74.2065 138.196C71.4391 138.196 69.1958 140.439 69.1958 143.206C69.1958 145.974 71.4391 148.217 74.2065 148.217Z" fill="white"/>
<path d="M122.406 172.402H131.868V142.68H122.406V172.402ZM127.146 139.217C129.836 139.217 132.003 137.185 132.003 134.689C132.003 132.193 129.836 130.18 127.146 130.18C124.476 130.18 122.29 132.193 122.29 134.689C122.29 137.185 124.476 139.217 127.146 139.217Z" fill="#262626"/>
<path d="M147.352 155.451C147.371 152.065 149.345 150.053 152.344 150.053C155.343 150.053 157.124 152.026 157.104 155.316V172.402H166.566V153.458C166.586 146.763 162.503 142.293 156.253 142.293C151.86 142.293 148.532 144.518 147.216 148.137H146.888V142.68H137.89V172.402H147.352V155.451Z" fill="#262626"/>
<path d="M200.193 142.681H190.227L184.732 163.153H184.422L178.946 142.681H168.981L179.159 172.402H189.995L200.193 142.681Z" fill="#262626"/>
<path d="M203.821 172.402H213.283V142.68H203.821V172.402ZM208.562 139.217C211.251 139.217 213.419 137.185 213.419 134.689C213.419 132.193 211.251 130.18 208.562 130.18C205.891 130.18 203.705 132.193 203.705 134.689C203.705 137.185 205.891 139.217 208.562 139.217Z" fill="#262626"/>
<path d="M230.161 172.828C234.65 172.828 237.32 170.332 238.52 167.584H238.81V172.402H248.175V132.773H238.714V147.77H238.52C237.398 145.041 234.805 142.294 230.122 142.294C223.911 142.294 218.28 147.073 218.28 157.561C218.28 167.681 223.601 172.828 230.161 172.828ZM233.45 165.456C229.948 165.456 227.993 162.34 227.993 157.541C227.993 152.762 229.929 149.685 233.45 149.685C236.914 149.685 238.926 152.685 238.926 157.541C238.926 162.36 236.894 165.456 233.45 165.456Z" fill="#262626"/>
<path d="M267.968 172.963C275.767 172.963 280.894 169.19 281.977 163.346L273.291 163.095C272.555 165.068 270.619 166.132 268.142 166.132C264.504 166.132 262.26 163.714 262.26 160.076V159.825H282.075V157.464C282.075 147.673 276.115 142.293 267.678 142.293C258.7 142.293 252.933 148.447 252.933 157.657C252.933 167.177 258.622 172.963 267.968 172.963ZM262.26 154.329C262.395 151.368 264.737 149.124 267.871 149.124C270.987 149.124 273.231 151.291 273.269 154.329H262.26Z" fill="#262626"/>
<path d="M300.78 172.963C310.127 172.963 315.797 166.79 315.797 157.638C315.797 148.466 310.127 142.293 300.78 142.293C291.436 142.293 285.766 148.466 285.766 157.638C285.766 166.79 291.436 172.963 300.78 172.963ZM300.839 165.823C297.336 165.823 295.4 162.495 295.4 157.58C295.4 152.646 297.336 149.298 300.839 149.298C304.226 149.298 306.159 152.646 306.159 157.58C306.159 162.495 304.226 165.823 300.839 165.823Z" fill="#262626"/>
</g>
<defs>
<linearGradient id="paint0_linear_228_650" x1="57.7896" y1="109" x2="57.7896" y2="206.759" gradientUnits="userSpaceOnUse">
<stop stop-color="#F33D5E"/>
<stop offset="0.499912" stop-color="#C51EA9"/>
<stop offset="1" stop-color="#4F3CE4"/>
</linearGradient>
<linearGradient id="paint1_linear_228_650" x1="50.4585" y1="148.101" x2="1" y2="148.101" gradientUnits="userSpaceOnUse">
<stop stop-color="#C51EA9" stop-opacity="0"/>
<stop offset="1" stop-color="#F33D5E"/>
</linearGradient>
<linearGradient id="paint2_linear_228_650" x1="37.394" y1="157.872" x2="37.394" y2="181.823" gradientUnits="userSpaceOnUse">
<stop stop-color="#F33D5E" stop-opacity="0"/>
<stop offset="1" stop-color="white"/>
</linearGradient>
<clipPath id="clip0_228_650">
<rect width="315" height="97.7586" fill="white" transform="translate(1 109)"/>
</clipPath>
</defs>
</svg>
