<svg width="316" height="315" viewBox="0 0 316 315" fill="none" xmlns="http://www.w3.org/2000/svg">
<g clip-path="url(#clip0_228_756)">
<path fill-rule="evenodd" clip-rule="evenodd" d="M0.5 118.219H315.5V196.528H0.5V118.219Z" fill="#254AA5"/>
<path fill-rule="evenodd" clip-rule="evenodd" d="M79.0059 131.702H101.671V134.917H82.667V145.823H100.468V149.071H82.667V160.98H101.886V164.198H79.0059V131.702Z" fill="white"/>
<path fill-rule="evenodd" clip-rule="evenodd" d="M119.115 161.877L119.65 161.871L120.161 161.825C129.213 161.243 129.199 143.524 120.161 142.925L119.65 142.885L119.115 142.872C110.042 142.557 109.519 160.309 117.75 161.755L118.18 161.825L118.638 161.872L119.115 161.877ZM124.778 163.063L124.5 163.247L124.217 163.425C114.414 168.488 107.061 159.666 108.631 149.943L108.729 149.355L108.837 148.776C110.323 139.468 121.715 136.799 126.68 143.626L126.837 143.906L126.907 144.03V131.703H130.395V164.197H127.126V160.62L127.047 160.76C126.577 161.483 125.977 162.122 125.306 162.666L125.045 162.869L124.778 163.063Z" fill="white"/>
<path fill-rule="evenodd" clip-rule="evenodd" d="M156.176 150.452L156.167 150.399C155.307 140.438 143.242 140.216 141.879 150.425L141.87 150.452H156.176ZM141.842 153.476V153.535C142.041 163.487 153.774 164.714 156.001 156.559L156.157 156.014H159.61L159.388 156.893L159.258 157.37C156.389 168.747 138.127 167.398 138.401 152.992L138.382 152.376L138.401 151.798C138.674 135.8 159.573 135.684 159.601 151.938L159.61 152.554L159.589 153.475L141.842 153.476Z" fill="white"/>
<path fill-rule="evenodd" clip-rule="evenodd" d="M167.262 131.701H170.738V164.198H167.262V131.701Z" fill="white"/>
<path fill-rule="evenodd" clip-rule="evenodd" d="M207.168 140.513H210.836L203.149 164.198H199.651L194.154 145.471L188.689 164.198H185.152L177.54 140.513H181.203L186.902 159.585L192.324 140.513H196.021L201.467 159.585L207.168 140.513Z" fill="white"/>
<path fill-rule="evenodd" clip-rule="evenodd" d="M234.145 150.452V150.399C233.295 140.478 221.321 140.172 219.926 150.426L219.916 150.452H234.145ZM219.893 153.476V153.536C220.096 163.494 231.741 164.717 233.982 156.56L234.129 156.014H237.622L237.407 156.894L237.271 157.37C234.349 168.738 216.183 167.401 216.407 152.993L216.4 152.377L216.407 151.798C216.727 135.789 237.542 135.705 237.612 151.938L237.622 152.554L237.608 153.476L219.893 153.476Z" fill="white"/>
<path fill-rule="evenodd" clip-rule="evenodd" d="M245.314 140.512H248.718V164.198H245.314V140.512ZM245.314 131.701H248.72V136.825H245.314V131.701Z" fill="white"/>
<path fill-rule="evenodd" clip-rule="evenodd" d="M271.812 147.949L271.774 147.333L271.739 147.034L271.695 146.754C271.038 142.827 266.018 142.162 262.964 143.485L262.578 143.698L262.23 143.924L261.91 144.19C260.151 146.077 260.852 148.432 263.195 149.353L263.583 149.53L263.973 149.671C266.798 150.735 270.293 150.679 272.812 152.167L273.083 152.323L273.349 152.501L273.606 152.695L273.858 152.888C283.756 164.893 257.985 170.288 256.807 157.548L256.737 157.035L256.648 156.167H260.099L260.148 156.79L260.197 157.114L260.256 157.419C261.12 161.615 265.849 162.574 269.417 161.447L269.66 161.367L269.91 161.269L270.146 161.164C271.555 160.532 272.618 159.456 272.611 157.828L272.587 157.385L272.503 157C271.847 153.924 264.961 153.616 262.835 152.746L262.508 152.641L262.193 152.536L261.884 152.412L261.583 152.297L261.284 152.167C256.12 150.232 256.342 143.2 261.132 141.004L261.489 140.831L261.849 140.68C266.952 138.738 274.036 139.973 275.118 146.228L275.19 146.683L275.242 147.14L275.293 147.948L271.812 147.949Z" fill="white"/>
<path fill-rule="evenodd" clip-rule="evenodd" d="M297.803 147.949L297.758 147.333L297.726 147.044L297.679 146.755C296.987 142.828 292.025 142.163 288.948 143.486L288.571 143.698L288.221 143.924L287.903 144.19C286.151 146.064 286.842 148.423 289.158 149.363L289.539 149.531L289.927 149.671C292.761 150.745 296.298 150.672 298.814 152.168L299.097 152.324L299.361 152.501L299.613 152.695L299.863 152.889C309.73 164.894 283.969 170.291 282.798 157.549L282.73 157.035L282.642 156.167H286.092L286.146 156.797L286.179 157.114L286.24 157.42C287.085 161.622 291.817 162.572 295.382 161.447L295.634 161.359L295.884 161.27L296.123 161.165C297.517 160.563 298.63 159.434 298.601 157.828L298.578 157.385L298.494 157C297.88 153.967 290.971 153.61 288.819 152.747L288.494 152.642L288.174 152.536L287.866 152.413L287.569 152.298L287.268 152.167C282.074 150.235 282.286 143.21 287.102 141.005L287.455 140.832L287.817 140.68C292.901 138.746 300.05 139.955 301.085 146.229L301.155 146.684L301.197 147.141L301.241 147.949L297.803 147.949Z" fill="white"/>
<path fill-rule="evenodd" clip-rule="evenodd" d="M16.3177 158.714H33.1796C32.1562 158.943 31.2147 159.232 30.4647 159.724C28.939 160.62 28.3035 162.431 29.0792 163.765C29.8525 165.102 31.7334 165.471 33.2754 164.582C35.3805 163.565 36.8548 160.629 39.2589 159.003C39.0557 161.894 37.245 164.636 37.4108 166.967C37.4108 168.74 38.6678 170.191 40.2192 170.191C41.7683 170.191 43.0182 168.74 43.0182 166.967C43.1911 164.636 41.3781 161.894 41.1771 159.003C43.579 160.629 45.0603 163.565 47.1607 164.582C48.7004 165.471 50.5835 165.112 51.3592 163.765C52.1326 162.431 51.4994 160.62 49.9644 159.731C48.0322 158.425 44.7425 158.606 42.1351 157.342C44.7425 156.086 48.0322 156.28 49.9644 154.962C51.4994 154.066 52.1326 152.264 51.3592 150.918C50.5835 149.581 48.7004 149.212 47.1607 150.111C45.0603 151.128 43.579 154.066 41.1771 155.69C41.3781 152.799 43.1911 150.057 43.0182 147.721C43.0182 145.946 41.7683 144.504 40.2192 144.504C38.6678 144.504 37.4108 145.946 37.4108 147.721C37.245 150.057 39.0557 152.799 39.2589 155.69C36.8548 154.066 35.3805 151.128 33.2754 150.111C31.7334 149.212 29.8525 149.581 29.0792 150.918C28.3035 152.264 28.939 154.075 30.4647 154.962C31.2147 155.47 32.1562 155.753 33.1796 155.981H16.3177C17.0186 143.423 27.4507 133.467 40.2029 133.467C48.7798 133.467 56.3148 137.982 60.5273 144.767H63.6768C59.1862 136.419 50.3546 130.732 40.2029 130.732C25.4881 130.732 13.5537 142.649 13.5537 157.342C13.5537 172.037 25.4881 183.961 40.2029 183.961C50.3546 183.961 59.1815 178.276 63.6768 169.918H60.5273C56.3148 176.711 48.7798 181.228 40.2029 181.228C27.4507 181.228 17.0303 171.263 16.3177 158.714Z" fill="white"/>
<path d="M79.0059 183.002V170.26H79.861H80.7278V183.002H79.8703H79.0059ZM87.2908 183.251C86.0548 183.251 85.0618 182.792 84.3259 181.861C83.5992 180.937 83.2301 179.681 83.2301 178.102C83.2301 176.711 83.5829 175.584 84.2955 174.735C85.0058 173.883 85.9287 173.449 87.0852 173.449C88.2277 173.449 89.1249 173.935 89.7837 174.9L89.9076 175.068V170.259H90.6926H91.4636V183.002H90.7463H90.0221V181.737L89.8211 182.029C89.1763 182.845 88.3328 183.251 87.2908 183.251ZM87.3772 174.856C86.5104 174.856 85.8702 175.129 85.4637 175.691C85.0618 176.244 84.8586 177.133 84.8586 178.344C84.8586 179.495 85.0759 180.365 85.5151 180.99C85.9497 181.606 86.5735 181.919 87.3772 181.919C88.1389 181.919 88.7557 181.632 89.216 181.06C89.6716 180.498 89.9076 179.742 89.9076 178.811C89.9076 177.537 89.688 176.571 89.2557 175.885C88.8165 175.197 88.1926 174.856 87.3772 174.856ZM97.6972 183.251C96.3935 183.251 95.3538 182.836 94.5968 182.001C93.8491 181.172 93.4729 180.022 93.4729 178.554C93.4729 176.993 93.8771 175.754 94.6668 174.828C95.4612 173.904 96.5336 173.449 97.8701 173.449C99.085 173.449 100.071 173.899 100.812 174.795C101.566 175.701 101.938 176.886 101.938 178.354L101.919 178.907H95.1365C95.1972 179.838 95.4075 180.542 95.7696 181.025C96.1995 181.615 96.9028 181.905 97.8537 181.905C98.4448 181.905 98.9635 181.737 99.4074 181.404C99.8607 181.072 100.125 180.638 100.232 180.12H101.77C101.529 181.14 101.076 181.915 100.379 182.449C99.6808 182.985 98.7859 183.251 97.6972 183.251ZM100.298 177.652C100.256 176.788 100.038 176.121 99.6714 175.64C99.2439 175.111 98.6294 174.847 97.8023 174.847C96.9846 174.847 96.3234 175.148 95.828 175.759C95.4425 176.245 95.2136 176.868 95.1365 177.652H100.298ZM106.526 183.252C105.615 183.252 104.893 183.014 104.365 182.531C103.84 182.039 103.573 181.385 103.573 180.561C103.573 179.724 103.819 179.066 104.321 178.573C104.821 178.081 105.545 177.773 106.515 177.652L108.643 177.388C108.818 177.368 108.977 177.348 109.134 177.301C109.33 177.248 109.487 177.138 109.601 176.993C109.716 176.834 109.765 176.631 109.765 176.402V176.316C109.765 175.824 109.573 175.437 109.202 175.154C108.828 174.872 108.307 174.734 107.629 174.734C106.987 174.734 106.494 174.881 106.127 175.18C105.755 175.474 105.545 175.922 105.475 176.508H104.029C104.101 175.49 104.463 174.727 105.106 174.214C105.746 173.705 106.671 173.449 107.868 173.449C108.994 173.449 109.851 173.696 110.435 174.181C111.036 174.672 111.33 175.383 111.33 176.316V181.412C111.33 181.569 111.37 181.695 111.477 181.788C111.564 181.886 111.699 181.94 111.865 181.94C111.905 181.94 111.966 181.933 112.057 181.92C112.153 181.906 112.251 181.887 112.353 181.873V182.996C112.197 183.049 112.038 183.101 111.879 183.127C111.702 183.173 111.564 183.186 111.447 183.186C110.858 183.186 110.435 183.023 110.162 182.694C109.996 182.484 109.875 182.185 109.795 181.789C109.681 181.931 109.547 182.071 109.398 182.202C108.606 182.906 107.657 183.252 106.526 183.252ZM109.765 179.329V178.319C109.48 178.461 109.15 178.554 108.802 178.611L107.375 178.811C106.613 178.916 106.071 179.091 105.72 179.341C105.379 179.584 105.202 179.919 105.202 180.339C105.202 180.857 105.351 181.263 105.632 181.534C105.914 181.828 106.309 181.959 106.828 181.959C107.657 181.959 108.344 181.737 108.924 181.289C109.307 180.983 109.559 180.631 109.688 180.232C109.716 180.165 109.732 180.043 109.744 179.879C109.755 179.716 109.765 179.53 109.765 179.329ZM119.561 176.413C119.517 175.901 119.307 175.498 118.935 175.22C118.568 174.936 118.057 174.796 117.431 174.796C116.781 174.796 116.281 174.901 115.947 175.13C115.61 175.349 115.435 175.683 115.435 176.121C115.435 176.448 115.559 176.695 115.807 176.861C116.036 177.038 116.508 177.204 117.213 177.37L118.83 177.75C119.73 177.969 120.372 178.277 120.76 178.662C121.136 179.038 121.33 179.577 121.33 180.261C121.33 181.185 120.996 181.905 120.344 182.442C119.676 182.986 118.781 183.252 117.652 183.252C116.349 183.252 115.374 182.995 114.732 182.477C114.092 181.959 113.727 181.149 113.655 180.032H115.162C115.241 180.701 115.47 181.173 115.86 181.476C116.253 181.763 116.844 181.905 117.652 181.905C118.358 181.905 118.884 181.775 119.246 181.509C119.603 181.245 119.79 180.858 119.79 180.351C119.79 180.022 119.676 179.78 119.428 179.612C119.199 179.444 118.718 179.276 118.003 179.11L116.386 178.732C115.515 178.522 114.891 178.233 114.519 177.852C114.15 177.484 113.963 176.966 113.963 176.289C113.963 175.419 114.274 174.728 114.898 174.215C115.522 173.706 116.367 173.449 117.431 173.449C118.515 173.449 119.37 173.718 120.01 174.242C120.645 174.76 120.989 175.491 121.031 176.413H119.561Z" fill="white"/>
<path d="M135.684 179.665C135.515 180.832 135.111 181.721 134.441 182.337C133.772 182.943 132.894 183.249 131.784 183.249C130.55 183.249 129.567 182.811 128.828 181.922C128.097 181.044 127.728 179.85 127.728 178.356C127.728 176.858 128.109 175.664 128.871 174.777C129.632 173.89 130.658 173.449 131.938 173.449C133.048 173.449 133.948 173.748 134.62 174.366C135.277 174.971 135.637 175.815 135.684 176.879H134.179C134.116 176.219 133.882 175.699 133.492 175.342C133.085 174.98 132.55 174.798 131.889 174.798C131.097 174.798 130.48 175.113 130.032 175.743C129.583 176.378 129.352 177.248 129.352 178.356C129.352 179.53 129.567 180.419 129.99 181.019C130.41 181.616 131.027 181.903 131.838 181.903C132.452 181.903 132.962 181.709 133.366 181.327C133.772 180.937 134.046 180.386 134.179 179.665L135.684 179.665ZM137.735 183.002V173.722H138.471H139.221V175.314C139.349 175.069 139.494 174.84 139.641 174.635C140.233 173.846 140.964 173.449 141.826 173.449C141.966 173.449 142.111 173.476 142.265 173.529V175.12L141.938 175.113C141.095 175.113 140.445 175.367 139.982 175.869C139.525 176.378 139.298 177.097 139.298 178.039V183.002H138.515L137.735 183.002ZM147.501 183.249C146.181 183.249 145.16 182.836 144.403 182.001C143.646 181.175 143.277 180.025 143.277 178.557C143.277 176.991 143.662 175.755 144.464 174.831C145.26 173.907 146.328 173.449 147.676 173.449C148.889 173.449 149.868 173.9 150.616 174.798C151.356 175.699 151.73 176.889 151.73 178.356L151.716 178.909H144.931C144.992 179.838 145.204 180.543 145.564 181.026C146.003 181.616 146.69 181.903 147.641 181.903C148.239 181.903 148.756 181.738 149.207 181.406C149.648 181.07 149.929 180.639 150.017 180.123H151.564C151.337 181.143 150.87 181.915 150.176 182.449C149.489 182.986 148.585 183.249 147.501 183.249ZM150.104 177.652C150.05 176.791 149.84 176.123 149.454 175.64C149.031 175.113 148.415 174.849 147.604 174.849C146.779 174.849 146.13 175.148 145.63 175.762C145.249 176.247 145.008 176.868 144.931 177.652H150.104ZM156.328 183.249C155.422 183.249 154.695 183.014 154.172 182.528C153.634 182.036 153.361 181.385 153.361 180.561C153.361 179.726 153.615 179.066 154.118 178.573C154.618 178.081 155.351 177.773 156.307 177.652L158.436 177.388C158.604 177.374 158.774 177.341 158.931 177.299C159.129 177.246 159.293 177.14 159.398 176.991C159.506 176.835 159.564 176.629 159.564 176.405V176.317C159.564 175.827 159.382 175.435 159.003 175.155C158.622 174.875 158.104 174.732 157.426 174.732C156.784 174.732 156.281 174.884 155.919 175.183C155.559 175.474 155.34 175.92 155.26 176.508H153.828C153.898 175.488 154.258 174.725 154.901 174.214C155.541 173.706 156.466 173.449 157.662 173.449C158.788 173.449 159.651 173.696 160.239 174.182C160.83 174.674 161.122 175.383 161.122 176.317V181.413C161.122 181.569 161.171 181.692 161.27 181.788C161.368 181.886 161.492 181.942 161.648 181.942C161.704 181.942 161.772 181.929 161.861 181.923C161.947 181.903 162.045 181.89 162.153 181.87V182.994C161.999 183.047 161.844 183.1 161.667 183.127C161.496 183.167 161.358 183.187 161.244 183.187C160.655 183.187 160.235 183.022 159.961 182.697C159.791 182.482 159.662 182.185 159.59 181.789C159.478 181.931 159.342 182.072 159.195 182.204C158.401 182.907 157.454 183.249 156.328 183.249ZM159.564 179.332V178.319C159.274 178.46 158.957 178.558 158.604 178.611L157.16 178.812C156.415 178.919 155.859 179.094 155.522 179.339C155.172 179.583 154.999 179.917 154.999 180.342C154.999 180.86 155.141 181.266 155.422 181.537C155.702 181.826 156.106 181.957 156.627 181.957C157.454 181.957 158.146 181.737 158.709 181.287C159.099 180.981 159.363 180.632 159.485 180.235C159.506 180.165 159.527 180.041 159.538 179.882C159.555 179.717 159.564 179.53 159.564 179.332ZM167.447 182.995C166.922 183.072 166.529 183.109 166.286 183.109C165.601 183.109 165.127 182.959 164.844 182.659C164.562 182.36 164.422 181.844 164.422 181.114V174.998H163.139V173.722H164.422V171.123H165.985V173.722H167.447V174.998H165.985V181.114C165.985 181.326 166.066 181.482 166.237 181.604C166.394 181.73 166.62 181.789 166.896 181.789H167.447L167.447 182.995ZM173.038 183.249C171.725 183.249 170.695 182.836 169.938 182.001C169.19 181.175 168.814 180.025 168.814 178.557C168.814 176.991 169.209 175.755 170.01 174.831C170.802 173.907 171.877 173.449 173.211 173.449C174.426 173.449 175.412 173.9 176.148 174.798C176.9 175.699 177.262 176.889 177.262 178.356L177.258 178.909H170.475C170.536 179.838 170.749 180.542 171.111 181.025C171.538 181.616 172.237 181.903 173.185 181.903C173.786 181.903 174.302 181.737 174.753 181.406C175.192 181.07 175.466 180.638 175.562 180.123H177.108C176.872 181.142 176.414 181.915 175.718 182.449C175.027 182.985 174.125 183.249 173.038 183.249ZM175.641 177.652C175.594 176.791 175.379 176.123 174.999 175.64C174.573 175.113 173.961 174.849 173.141 174.849C172.326 174.849 171.664 175.148 171.169 175.762C170.781 176.247 170.555 176.868 170.475 177.652H175.641ZM179.812 182.055V181.114H180.737H181.657V182.696C181.657 183.59 181.517 184.26 181.23 184.708C180.947 185.155 180.47 185.454 179.812 185.625V184.796C180.176 184.737 180.428 184.532 180.571 184.192C180.676 183.937 180.737 183.532 180.762 183.002H180.737H179.811L179.812 182.055Z" fill="white"/>
<path d="M188.568 173.722H189.481H190.388L192.874 181.326L195.458 173.722H196.308H197.173L193.715 183.004H192.874H192.035L188.568 173.722ZM201.194 183.249C200.28 183.249 199.565 183.013 199.04 182.53C198.502 182.035 198.236 181.384 198.236 180.561C198.236 179.725 198.484 179.065 198.984 178.573C199.488 178.08 200.217 177.774 201.177 177.651L203.306 177.387C203.472 177.374 203.64 177.341 203.799 177.298C203.998 177.245 204.154 177.14 204.264 176.993C204.371 176.834 204.432 176.629 204.432 176.405V176.316C204.432 175.826 204.245 175.434 203.871 175.154C203.493 174.874 202.972 174.734 202.294 174.734C201.652 174.734 201.149 174.884 200.79 175.182C200.43 175.474 200.21 175.919 200.131 176.507H198.694C198.764 175.488 199.126 174.725 199.771 174.214C200.409 173.705 201.334 173.448 202.53 173.448C203.659 173.448 204.521 173.696 205.1 174.181C205.701 174.673 205.988 175.385 205.988 176.316V181.412C205.988 181.571 206.04 181.692 206.138 181.79C206.224 181.888 206.36 181.942 206.528 181.942C206.57 181.942 206.633 181.929 206.729 181.922C206.818 181.902 206.916 181.889 207.019 181.869V182.994C206.86 183.047 206.712 183.099 206.547 183.127C206.367 183.166 206.224 183.186 206.112 183.186C205.523 183.186 205.1 183.018 204.827 182.694C204.654 182.482 204.526 182.183 204.458 181.789C204.346 181.929 204.212 182.071 204.054 182.202C203.28 182.904 202.318 183.249 201.194 183.249ZM204.432 179.329V178.316C204.14 178.457 203.815 178.555 203.462 178.608L202.04 178.809C201.285 178.916 200.734 179.091 200.383 179.336C200.04 179.583 199.864 179.915 199.864 180.339C199.864 180.857 200.007 181.263 200.297 181.534C200.575 181.823 200.974 181.954 201.505 181.954C202.318 181.954 203.007 181.734 203.579 181.284C203.965 180.978 204.231 180.629 204.35 180.232C204.371 180.162 204.393 180.041 204.407 179.879C204.425 179.716 204.432 179.53 204.432 179.329ZM208.937 183.001V170.257H209.722H210.505V183.001H209.722H208.937ZM214.743 173.72V179.707C214.743 180.489 214.893 181.051 215.192 181.392C215.5 181.735 215.986 181.9 216.666 181.9C217.418 181.9 218.021 181.62 218.451 181.042C218.897 180.451 219.11 179.669 219.11 178.678V173.719H219.892H220.677V183.001H219.937H219.189V181.588C219.082 181.756 218.967 181.912 218.848 182.061C218.175 182.852 217.341 183.246 216.346 183.246C215.29 183.246 214.5 182.992 213.979 182.465C213.449 181.94 213.189 181.146 213.189 180.092V173.719H213.97L214.743 173.72ZM227.082 183.247C225.773 183.247 224.731 182.831 223.986 181.998C223.229 181.172 222.86 180.022 222.86 178.554C222.86 176.991 223.257 175.752 224.044 174.828C224.839 173.904 225.913 173.447 227.247 173.447C228.474 173.447 229.448 173.897 230.196 174.795C230.944 175.698 231.315 176.886 231.315 178.353L231.297 178.906H224.512C224.573 179.835 224.785 180.54 225.145 181.023C225.586 181.613 226.28 181.9 227.231 181.9C227.822 181.9 228.341 181.735 228.79 181.403C229.238 181.067 229.509 180.636 229.607 180.12H231.149C230.918 181.14 230.451 181.912 229.757 182.449C229.061 182.983 228.175 183.247 227.082 183.247ZM229.677 177.649C229.635 176.788 229.423 176.121 229.042 175.638C228.621 175.111 228 174.847 227.187 174.847C226.36 174.847 225.708 175.148 225.217 175.759C224.832 176.245 224.591 176.865 224.512 177.649H229.677ZM238.775 176.41C238.734 175.899 238.523 175.498 238.154 175.215C237.782 174.936 237.271 174.795 236.647 174.795C235.995 174.795 235.504 174.898 235.166 175.124C234.827 175.346 234.661 175.682 234.661 176.121C234.661 176.445 234.78 176.692 235.021 176.858C235.247 177.035 235.724 177.201 236.427 177.368L238.044 177.744C238.941 177.964 239.589 178.271 239.974 178.661C240.362 179.035 240.556 179.573 240.556 180.257C240.556 181.184 240.219 181.9 239.56 182.436C238.888 182.982 238 183.246 236.876 183.246C235.565 183.246 234.586 182.992 233.944 182.476C233.301 181.954 232.941 181.146 232.878 180.031H234.378C234.455 180.701 234.684 181.172 235.079 181.473C235.467 181.762 236.065 181.9 236.876 181.9C237.57 181.9 238.098 181.769 238.462 181.506C238.832 181.242 239.009 180.857 239.009 180.349C239.009 180.022 238.888 179.774 238.649 179.609C238.416 179.444 237.932 179.273 237.219 179.107L235.605 178.731C234.729 178.521 234.114 178.229 233.745 177.851C233.376 177.48 233.18 176.965 233.18 176.286C233.18 175.418 233.498 174.723 234.114 174.212C234.738 173.703 235.582 173.446 236.647 173.446C237.726 173.446 238.582 173.712 239.226 174.237C239.867 174.758 240.201 175.485 240.247 176.409L238.775 176.41Z" fill="white"/>
<path d="M247.455 173.721H248.193H248.938V175.04L249.008 174.928C249.688 173.943 250.569 173.449 251.658 173.449C252.873 173.449 253.833 173.861 254.543 174.699C255.258 175.532 255.611 176.669 255.611 178.09C255.611 179.697 255.249 180.964 254.536 181.877C253.821 182.789 252.828 183.249 251.562 183.249C250.515 183.249 249.688 182.854 249.064 182.042L249.008 181.975V186.667H248.235H247.455V173.721ZM251.48 181.902C252.303 181.902 252.926 181.589 253.335 180.98C253.765 180.367 253.973 179.461 253.973 178.283C253.973 177.123 253.779 176.262 253.366 175.709C252.959 175.149 252.338 174.867 251.492 174.867C250.627 174.867 250.004 175.182 249.609 175.814C249.212 176.437 249.008 177.441 249.008 178.81C249.008 179.795 249.221 180.56 249.653 181.097C250.085 181.631 250.691 181.902 251.48 181.902ZM257.95 183.003V173.721H258.69H259.436V175.313C259.569 175.068 259.709 174.839 259.861 174.634C260.448 173.845 261.181 173.448 262.041 173.448C262.183 173.448 262.333 173.481 262.482 173.53V175.119L262.167 175.112C261.312 175.112 260.66 175.366 260.202 175.868C259.747 176.377 259.508 177.095 259.508 178.038V183.003H258.735H257.95ZM267.718 183.248C266.433 183.248 265.384 182.8 264.595 181.902C263.803 180.999 263.408 179.811 263.408 178.355C263.408 176.887 263.803 175.7 264.595 174.797C265.384 173.898 266.433 173.448 267.718 173.448C269.01 173.448 270.057 173.899 270.849 174.797C271.639 175.7 272.036 176.887 272.036 178.355C272.036 179.811 271.639 180.999 270.849 181.902C270.057 182.8 269.01 183.248 267.718 183.248ZM267.718 181.902C268.534 181.902 269.186 181.589 269.669 180.945C270.16 180.306 270.403 179.445 270.403 178.355C270.403 177.263 270.16 176.404 269.669 175.76C269.186 175.112 268.534 174.797 267.718 174.797C266.891 174.797 266.239 175.112 265.763 175.76C265.279 176.405 265.032 177.263 265.032 178.355C265.032 179.445 265.279 180.306 265.763 180.945C266.239 181.589 266.891 181.902 267.718 181.902ZM277.501 182.994C276.966 183.071 276.587 183.108 276.34 183.108C275.662 183.108 275.179 182.959 274.898 182.658C274.615 182.359 274.478 181.843 274.478 181.113V174.997H273.193V173.721H274.478V171.122H276.041V173.721H277.501V174.998H276.041V181.113C276.041 181.326 276.12 181.482 276.279 181.605C276.447 181.729 276.667 181.79 276.949 181.79H277.501L277.501 182.994ZM283.092 183.248C281.779 183.248 280.751 182.833 279.994 182C279.246 181.174 278.865 180.024 278.865 178.556C278.865 176.993 279.26 175.754 280.062 174.83C280.856 173.906 281.919 173.448 283.265 173.448C284.482 173.448 285.459 173.899 286.204 174.797C286.952 175.7 287.321 176.888 287.321 178.355L287.304 178.908H280.526C280.589 179.837 280.8 180.542 281.164 181.025C281.596 181.615 282.288 181.902 283.239 181.902C283.837 181.902 284.358 181.737 284.807 181.405C285.244 181.069 285.517 180.638 285.61 180.122H287.164C286.926 181.142 286.47 181.914 285.774 182.451C285.078 182.985 284.183 183.248 283.092 183.248ZM285.695 177.651C285.652 176.79 285.428 176.123 285.047 175.64C284.629 175.112 284.017 174.849 283.197 174.849C282.372 174.849 281.718 175.15 281.223 175.761C280.837 176.247 280.601 176.867 280.526 177.651H285.695ZM296.795 179.665C296.638 180.834 296.218 181.72 295.559 182.336C294.891 182.943 294.012 183.249 292.902 183.249C291.669 183.249 290.683 182.81 289.952 181.921C289.213 181.044 288.846 179.849 288.846 178.356C288.846 176.86 289.223 175.663 289.989 174.776C290.746 173.89 291.779 173.449 293.059 173.449C294.176 173.449 295.064 173.748 295.732 174.366C296.393 174.97 296.753 175.815 296.795 176.879H295.297C295.232 176.219 295.005 175.7 294.599 175.341C294.204 174.979 293.678 174.797 293.008 174.797C292.216 174.797 291.599 175.112 291.15 175.745C290.711 176.377 290.484 177.247 290.484 178.356C290.484 179.532 290.692 180.418 291.108 181.016C291.522 181.616 292.143 181.902 292.963 181.902C293.566 181.902 294.08 181.711 294.482 181.326C294.9 180.937 295.162 180.386 295.297 179.665L296.795 179.665ZM302.042 182.994C301.512 183.071 301.129 183.109 300.881 183.109C300.206 183.109 299.722 182.959 299.44 182.658C299.157 182.359 299.014 181.844 299.014 181.114V174.998H297.732V173.722H299.015V171.122H300.582V173.721H302.043V174.998H300.582V181.113C300.582 181.326 300.662 181.482 300.83 181.605C300.987 181.729 301.218 181.79 301.491 181.79H302.043L302.042 182.994Z" fill="white"/>
</g>
<defs>
<clipPath id="clip0_228_756">
<rect width="315" height="78.3091" fill="white" transform="translate(0.5 118.22)"/>
</clipPath>
</defs>
</svg>
