<svg width="316" height="315" viewBox="0 0 316 315" fill="none" xmlns="http://www.w3.org/2000/svg">
<g clip-path="url(#clip0_232_59)">
<path d="M226.806 288.774H87.4463V284.934H226.806V288.774Z" fill="#D5152C"/>
<path d="M226.804 181.233V284.938H87.3721V182.32C95.2713 213.337 123.39 236.31 156.943 236.31C190.859 236.31 219.267 212.758 226.804 181.161V181.233Z" fill="#2B2A29"/>
<path d="M87.4468 182.318C93.3168 186.883 100.781 188.695 108.028 188.695C108.825 188.695 109.623 188.695 110.42 188.622C119.189 205.436 136.799 216.958 157.018 216.958C181.513 216.958 202.167 200.073 207.892 177.39C209.703 178.042 211.37 178.259 212.747 178.259C214.486 178.259 216.153 177.969 217.53 177.535C219.704 180.071 223.255 181.52 226.879 181.013C219.414 212.683 191.006 236.235 157.018 236.235C123.464 236.235 95.346 213.262 87.4468 182.245V182.318Z" fill="#E5B582"/>
<path d="M198.762 206.379L202.168 202.756L203.255 203.77L201.009 206.162L201.734 206.814L203.763 204.64L204.777 205.582L202.748 207.756L203.473 208.408L205.719 205.944L206.806 206.959L203.328 210.655L198.762 206.379ZM193.544 214.568C193.979 214.206 194.124 213.771 193.834 213.409C193.544 212.974 193.11 213.046 192.675 213.336L191.733 213.988L192.602 215.22L193.544 214.568ZM189.486 213.843L191.878 212.104C192.675 211.524 193.327 211.379 193.907 211.452C194.414 211.524 194.849 211.814 195.211 212.322C195.791 213.119 195.718 213.916 195.284 214.641L197.748 215.51L196.153 216.67L194.052 215.873L193.399 216.307L194.486 217.829L193.11 218.844L189.486 213.771V213.843ZM183.616 220.656C183.254 219.858 182.384 219.351 181.514 219.786C180.645 220.148 180.355 221.09 180.717 221.96C181.08 222.757 182.022 223.265 182.891 222.83C183.761 222.467 184.051 221.525 183.688 220.656H183.616ZM179.123 222.612C178.398 220.946 179.123 219.061 180.862 218.337C182.601 217.539 184.486 218.337 185.21 219.931C185.935 221.598 185.21 223.482 183.471 224.207C181.732 225.004 179.848 224.279 179.123 222.612ZM167.817 222.467L169.484 222.105L170.499 226.671L173.47 226.018L173.833 227.468L169.194 228.482L167.817 222.395V222.467ZM159.049 227.105L158.324 225.366L157.672 227.105H159.049ZM157.454 223.337H159.121L161.875 229.569H159.991L159.556 228.482L157.164 228.555L156.73 229.714L154.918 229.787L157.454 223.482V223.337ZM142.308 224.786C142.67 222.975 144.337 221.888 146.221 222.25C147.308 222.467 147.961 222.902 148.54 223.627L147.308 224.641C146.946 224.207 146.584 223.917 145.932 223.772C145.062 223.627 144.192 224.207 144.047 225.149C143.83 226.163 144.41 226.961 145.352 227.178C145.787 227.25 146.076 227.25 146.366 227.105L146.511 226.381L145.352 226.163L145.569 224.931L148.395 225.511L147.888 228.265C147.163 228.7 146.149 228.917 145.062 228.7C143.178 228.337 142.018 226.743 142.38 224.931L142.308 224.786ZM131.365 217.539L132.814 218.192L133.901 222.177L135.206 219.134L136.8 219.786L134.409 225.511L133.032 224.931L131.872 220.728L130.568 223.844L128.973 223.192L131.365 217.467V217.539ZM121.582 216.09L122.016 214.278L120.422 215.293L121.582 216.09ZM122.524 212.104L123.901 213.046L122.451 219.714L120.929 218.626L121.219 217.467L119.262 216.09L118.248 216.742L116.799 215.728L122.524 212.104ZM113.247 206.669C113.465 206.452 113.465 206.089 113.103 205.727L112.305 204.93L111.508 205.654L112.233 206.452C112.595 206.814 112.958 206.959 113.175 206.669H113.247ZM111.581 207.466L110.711 206.524L109.841 207.321L110.783 208.263C111.146 208.626 111.508 208.698 111.726 208.481C111.943 208.263 111.943 207.901 111.581 207.466ZM112.233 202.756L114.407 205.075C114.914 205.654 115.204 206.162 115.132 206.669C115.132 207.031 114.987 207.394 114.697 207.684C114.19 208.191 113.61 208.191 113.03 207.901C113.392 208.626 113.392 209.278 112.74 209.858C111.943 210.582 110.928 210.365 109.914 209.278L107.74 206.959L112.305 202.683L112.233 202.756Z" fill="#2B2A29"/>
<path d="M217.09 266.744C218.322 267.324 219.265 268.121 219.265 269.933C219.265 272.034 217.308 273.629 214.482 273.629C212.815 273.629 211.655 273.121 211.075 272.759L210.423 273.484H210.278L210.206 269.208H210.351C211.51 271.672 212.815 273.121 214.409 273.121C216.076 273.121 216.583 272.324 216.583 271.31C216.583 270.295 216.148 269.715 214.482 269.063C213.757 268.773 213.105 268.628 212.597 268.411C211.22 267.831 210.423 266.672 210.423 265.077C210.423 262.686 212.452 261.454 214.844 261.454C216.003 261.454 217.308 261.888 217.888 262.251L218.467 261.599H218.612L218.685 265.584H218.54C217.67 263.483 216.801 261.961 215.061 261.961C213.757 261.961 213.032 262.686 213.032 263.773C213.032 265.005 213.902 265.512 215.134 266.019C215.786 266.309 216.583 266.454 217.09 266.744ZM201.437 262.758H202.741C204.408 262.758 204.481 263.7 204.481 264.425C204.481 265.947 202.886 266.019 201.437 267.034V262.758ZM202.814 273.121H202.524C201.872 273.121 201.364 272.904 201.364 271.889V268.846C201.364 268.121 201.872 267.686 202.741 267.251C204.626 267.324 202.814 273.629 207.524 273.629C208.394 273.629 209.119 273.411 209.554 273.194L209.481 272.687C209.336 272.759 209.119 272.759 208.901 272.759C205.205 272.759 207.742 267.179 204.046 266.744C205.858 266.092 206.872 265.512 206.872 264.352C206.872 263.265 206.727 261.816 203.466 261.816H197.161V262.178H197.451C198.103 262.178 198.611 262.396 198.611 262.686V271.237C198.611 272.904 198.103 273.121 197.451 273.121H197.161V273.411H202.669V273.121H202.814ZM170.13 261.816H174.478V262.178H174.188C173.536 262.178 172.811 262.468 172.811 263.41V273.484H172.376L164.767 263.918V271.962C164.767 272.904 165.492 273.194 166.072 273.194H166.361V273.484H162.013V273.194H162.303C162.955 273.194 163.68 272.904 163.68 271.962V262.686C163.318 262.323 162.883 262.178 162.448 262.178H162.086V261.816H166.651L171.724 268.121V263.338C171.724 262.396 171 262.106 170.347 262.106H170.057V261.744L170.13 261.816ZM181.29 267.541H186.508V267.831H186.436C185.783 267.831 185.276 268.048 185.276 269.063V272.542C185.276 272.542 183.247 273.701 180.638 273.701C177.449 273.701 174.696 271.382 174.696 267.686C174.696 263.99 177.449 261.599 180.421 261.599C181.943 261.599 183.102 262.323 183.682 262.323C184.262 262.323 184.189 261.599 184.189 261.599L184.479 261.526L185.349 265.222L185.059 265.295C185.059 265.295 183.464 262.396 180.928 262.396C178.971 262.396 177.522 263.7 177.522 267.541C177.522 271.165 179.189 272.687 181.073 272.687C181.653 272.687 182.232 272.542 182.667 272.397V268.918C182.667 267.976 182.16 267.686 181.508 267.686H181.218V267.396L181.29 267.541ZM196.944 270.005L195.422 273.411H186.726V273.121H187.015C187.668 273.121 188.175 272.904 188.175 271.889V263.338C188.175 262.396 187.668 262.106 187.015 262.106H186.726V261.744H194.842L195.929 264.497L195.639 264.642C195.639 264.642 194.407 262.686 192.088 262.686H190.856V266.961H192.596C193.538 266.961 194.045 266.092 194.045 265.44V265.295H194.335V269.498H194.045V269.353C194.045 268.701 193.538 267.903 192.596 267.903H190.856V272.397H192.741C195.06 272.397 196.726 269.788 196.726 269.788L197.016 269.933L196.944 270.005ZM161.506 269.86L161.796 270.005L160.274 273.411H151.578V273.121H151.867C152.52 273.121 153.027 272.904 153.027 271.889V263.338C153.027 262.396 152.52 262.106 151.867 262.106H151.578V261.744H159.694L160.781 264.497L160.491 264.642C160.491 264.642 159.259 262.686 156.94 262.686H155.708V266.961H157.448C158.39 266.961 158.897 266.092 158.897 265.44V265.295H159.187V269.498H158.897V269.353C158.897 268.701 158.39 267.903 157.448 267.903H155.708V272.397H157.593C159.912 272.397 161.578 269.788 161.578 269.788L161.506 269.86ZM123.097 269.57L124.691 265.657L126.286 269.57H123.097ZM141.287 269.86C141.287 269.86 139.62 272.469 137.301 272.469H135.417V263.338C135.417 262.396 135.924 262.106 136.576 262.106H136.866V261.744H131.358V262.106H131.648C132.301 262.106 132.808 262.323 132.808 263.338V271.889C132.808 272.831 132.301 273.121 131.721 273.121C131.141 273.121 130.634 272.759 130.271 272.034C130.199 271.817 125.706 261.599 125.706 261.599H125.343L120.995 272.034C120.705 272.759 120.198 273.121 119.546 273.121C118.894 273.121 118.459 272.831 118.459 271.889V263.338C118.459 262.396 118.966 262.106 119.618 262.106H119.908V261.744H114.4V262.106H114.69C115.343 262.106 115.85 262.323 115.85 263.338V267.034H111.719V263.338C111.719 262.396 112.226 262.106 112.879 262.106H113.168V261.744H107.661V262.106H107.951C108.603 262.106 109.11 262.323 109.11 263.338V271.889C109.11 272.831 108.603 273.121 107.951 273.121H107.661V273.411H113.168V273.121H112.879C112.226 273.121 111.719 272.904 111.719 271.889V267.976H115.85V271.889C115.85 272.831 115.343 273.121 114.69 273.121H114.4V273.411H123.169V273.121H122.807C122.372 273.121 121.865 272.831 122.3 271.817L122.807 270.512H126.793L127.3 271.817C127.735 272.831 127.228 273.121 126.793 273.121H126.43V273.411H140.2L141.722 270.005L141.432 269.86H141.287ZM97.7323 266.454C97.7323 270.44 99.4716 272.687 101.718 272.687C104.617 272.687 106.284 269.063 106.284 269.063L106.574 269.135L105.487 273.629L105.197 273.556C105.197 273.556 105.197 272.904 104.762 272.904C104.255 272.904 103.168 273.556 101.573 273.556C97.5149 273.556 94.8335 270.802 94.8335 266.382C94.8335 261.961 97.5149 259.207 101.573 259.207C103.168 259.207 104.255 259.859 104.762 259.859C105.269 259.859 105.197 259.207 105.197 259.207L105.487 259.135L106.574 263.628L106.284 263.7C106.284 263.7 104.617 260.077 101.718 260.077C99.4716 260.077 97.7323 262.323 97.7323 266.309V266.454ZM151.65 270.005L150.128 273.411H141.432V273.121H141.722C142.374 273.121 142.881 272.904 142.881 271.889V263.338C142.881 262.396 142.374 262.106 141.722 262.106H141.432V261.744H146.939V262.106H146.65C145.997 262.106 145.49 262.323 145.49 263.338V272.469H147.374C149.693 272.469 151.36 269.86 151.36 269.86L151.65 270.005ZM134.257 243.988H135.707C137.373 243.988 138.171 244.786 138.171 246.018C138.171 248.264 135.707 248.626 134.257 249.641V243.988ZM135.634 256.671H135.417C134.765 256.671 134.257 256.453 134.257 255.439V251.38C134.257 250.656 134.909 250.221 135.779 249.858C137.663 249.931 138.388 259.787 144.331 259.787C146.142 259.787 147.229 258.7 147.229 258.7L147.012 258.482C147.012 258.482 146.36 258.99 145.345 258.99C141.722 258.99 140.78 249.714 137.156 249.279C138.968 248.626 140.997 247.829 140.997 245.8C140.997 244.351 139.765 242.901 136.576 242.901H130.271V243.191H130.489C131.141 243.191 131.648 243.409 131.648 244.423V255.366C131.648 256.308 131.141 256.598 130.489 256.598H130.271V256.888H135.707V256.598L135.634 256.671ZM167.738 249.279L169.333 253.192H166.144L167.666 249.279H167.738ZM162.593 256.671H162.303V256.961H166.144V256.671H165.782C165.347 256.671 164.84 256.381 165.274 255.439L165.782 254.134H169.695L170.202 255.366C170.637 256.381 170.13 256.671 169.695 256.671H169.333V256.961H182.885L184.407 253.554L184.117 253.41C184.117 253.41 182.45 256.018 180.203 256.018H178.391V247.032C178.391 246.09 178.899 245.873 179.551 245.873H179.768V245.583H174.333V245.873H174.551C175.203 245.873 175.71 246.09 175.71 247.032V255.511C175.71 256.453 175.203 256.671 174.623 256.743C174.043 256.743 173.536 256.381 173.246 255.656C173.029 255.149 168.753 245.365 168.753 245.365H168.391L164.115 255.656C163.825 256.381 163.318 256.743 162.665 256.743L162.593 256.671ZM153.389 245.8H153.099V245.51H158.825V245.8H158.462C158.027 245.8 157.375 246.09 157.955 247.105L160.129 250.873C160.129 250.873 161.796 248.119 162.376 247.105C162.955 246.09 162.303 245.8 161.868 245.8H161.506V245.51H165.492V245.8H165.202C164.622 245.8 164.187 246.163 163.753 246.887L160.709 252.033V255.439C160.709 256.381 161.216 256.671 161.796 256.671H162.086V256.961H156.65V256.671H156.94C157.593 256.671 158.027 256.453 158.027 255.439V252.322L154.911 246.887C154.476 246.163 154.114 245.8 153.462 245.8H153.389ZM148.244 246.163C150.128 246.163 151.215 247.757 151.215 251.235C151.215 254.714 150.056 256.308 148.244 256.308C146.36 256.308 145.273 254.714 145.273 251.235C145.273 247.757 146.432 246.163 148.244 246.163ZM148.244 257.178C151.505 257.178 154.042 254.931 154.042 251.235C154.042 247.539 151.505 245.293 148.244 245.293C144.983 245.293 142.446 247.539 142.446 251.235C142.446 254.931 144.983 257.178 148.244 257.178Z" fill="#FEFEFE"/>
<path d="M160.138 54.1181C158.253 53.6833 151.224 53.1036 151.079 53.6833C150.934 54.3356 152.528 54.3356 156.224 57.3793C157.239 58.1765 158.616 58.5388 160.065 58.3214C161.007 58.1765 161.587 57.7416 162.457 57.0894C164.631 55.4951 163.036 55.2052 160.138 54.1906V54.1181ZM206.156 163.475C204.997 163.185 197.025 160.069 195.286 159.199C191.517 157.388 177.458 147.314 174.414 144.126C170.936 140.43 164.921 137.676 164.486 138.256C164.486 138.256 171.008 145.213 169.704 152.025C169.269 154.489 168.979 155.504 170.283 153.909C172.82 150.793 172.313 147.314 172.385 147.387C172.602 147.604 178.835 151.01 178.11 161.229C178.038 162.098 181.589 157.678 182.024 155.504C182.748 155.504 186.517 161.663 186.227 164.417C186.009 166.374 187.386 165.142 188.256 163.91C188.763 163.185 189.053 162.243 189.198 161.591C189.343 160.721 189.561 160.939 190.575 161.156C193.691 161.953 202.243 162.823 206.229 163.475H206.156ZM146.151 187.68C144.919 199.13 134.266 205.29 134.193 205.725C134.193 205.798 153.108 202.971 146.151 187.68ZM96.8711 100.426C96.074 92.1648 80.6378 83.396 86.0006 63.9741C74.6953 77.1636 82.667 83.3235 87.0152 88.2515C88.1747 89.6284 89.4792 90.643 90.0589 91.9474C90.7112 93.3968 88.682 92.4547 87.45 92.3822C79.2609 92.1648 77.739 98.7596 78.6086 99.0495C79.1884 99.1944 86.0731 89.9907 95.2768 99.5568C95.8566 100.137 97.0161 101.948 96.8711 100.499V100.426ZM107.959 179.708C109.408 179.708 113.249 179.636 113.467 178.621C113.612 177.969 113.032 176.592 112.38 176.375C111.365 176.012 103.611 178.694 96.7262 175.143C94.1897 173.838 91.5083 171.592 91.2909 171.664C90.8561 171.882 94.1173 179.926 108.032 179.708H107.959ZM85.7107 169.2C84.986 165.867 85.5658 164.345 84.6961 163.185C84.0439 162.316 83.0293 161.446 81.2176 161.446C75.2025 161.519 75.6374 164.925 75.7823 163.113C75.8548 160.794 77.2317 154.996 84.8411 155.793C86.1455 155.938 86.7253 151.952 86.218 150.648C83.0293 143.039 77.5216 148.619 77.0143 152.17C76.0722 152.605 75.0576 146.59 76.1447 143.111C77.9564 137.603 83.9714 134.487 89.3342 141.082C91.5083 135.937 100.495 109.268 92.3055 101.586C89.3342 98.7596 84.1164 99.0495 81.0002 101.513C78.4637 103.543 78.1014 107.528 77.3766 107.528C76.2171 107.528 71.5066 101.731 72.0863 96.4406C72.8835 89.3385 80.203 88.5413 80.5653 88.1065C81.0726 87.4543 79.9131 86.7296 79.2609 86.0049C74.9127 81.7292 74.2604 72.6704 79.4783 66.9453C91.0735 54.1906 87.5225 52.2339 88.8994 52.5238C89.6241 52.6688 92.233 55.785 92.8128 59.191C94.4071 68.1773 88.5371 69.6992 92.7403 81.0045C92.4505 80.2073 93.0302 73.3227 97.7408 68.8295C100.06 66.583 107.234 63.9741 108.032 64.9162C108.104 66.5105 98.7554 67.5975 104.843 87.4543C107.379 95.7883 107.162 111.949 100.495 128.617C100.277 129.124 101.219 128.472 102.596 128.472C107.379 128.4 109.481 131.661 109.191 135.864C109.046 137.893 108.321 136.516 106.655 136.227C92.9577 134.197 91.9432 150.865 91.5808 157.895C91.2185 164.997 92.6679 173.911 115.134 171.157C116.366 171.012 117.598 179.781 117.598 180.506C117.67 181.81 116.873 182.172 115.568 182.39C96.3638 185.941 87.1601 176.085 85.5658 169.055L85.7107 169.2ZM193.619 118.979C195.648 120.863 196.373 123.907 197.025 126.443C199.779 136.734 208.693 136.879 208.91 136.444C208.983 136.299 204.055 133.763 204.417 124.776C204.562 120.79 201.88 116.007 198.04 113.761C188.184 107.818 174.994 110.935 169.341 109.485C175.066 116.007 179.922 125.863 183.111 128.472C186.082 130.936 188.981 132.023 196.3 138.328C196.155 138.183 193.184 124.631 189.705 120.138C189.343 119.631 186.299 116.297 186.009 116.37C188.256 115.645 192.024 117.529 193.546 119.051L193.619 118.979ZM218.259 73.7575C218.186 72.9603 215.142 79.7 203.91 92.2373C203.402 92.7446 204.417 95.3535 205.649 96.9478C206.011 97.4551 207.098 98.6871 207.751 98.3972C208.113 98.2523 207.461 94.5563 211.591 88.6138C214.49 84.4106 217.534 78.8304 218.259 73.685V73.7575ZM245.942 64.8437C245.942 65.206 245.942 65.4235 245.145 65.206C243.841 64.8437 242.319 64.119 241.087 65.1336C239.782 66.2206 239.492 67.67 237.753 68.4672C234.927 69.7716 230.506 68.6846 228.767 71.8733C228.042 73.1777 227.97 75.3518 229.709 75.7866C231.158 76.149 234.202 73.5401 237.608 77.5259C237.898 77.8158 241.377 75.7866 241.739 76.149C242.101 76.9462 239.927 80.5697 239.203 81.7292C235.434 88.034 230.144 86.5122 228.042 85.86C225.651 85.1353 223.622 84.8454 222.172 87.3094C219.926 91.0778 220.505 95.3535 219.708 99.4118C219.563 100.354 218.404 105.789 217.317 105.644C216.374 105.499 214.925 99.2669 213.983 99.4843C213.766 99.5568 214.635 106.441 211.664 109.34C211.374 109.63 209.417 102.311 202.243 101.513C201.953 98.4697 200.793 96.8029 197.387 93.9041C199.416 91.5126 202.533 87.8166 204.562 85.4251C208.475 80.7871 213.041 76.5838 215.07 70.7138C216.809 65.7858 217.606 60.7129 220.795 56.5097C222.317 54.4805 227.897 49.2627 235.217 51.3643C235.941 51.5817 240.797 50.7121 241.232 53.5384C241.304 53.8283 239.348 53.4659 238.188 54.2631C236.956 55.0603 236.449 56.7271 236.159 56.9445C228.622 56.2922 228.839 63.0319 229.637 62.2348C231.376 60.568 236.376 57.3068 242.681 60.9303C244.783 62.1623 245.942 64.3364 245.942 64.8437ZM140.063 44.7695C153.615 39.6242 164.413 45.1319 164.413 44.9145C151.296 35.6383 140.063 44.7695 140.063 44.7695ZM151.006 31.1452C151.006 32.1598 151.441 33.0294 152.021 33.0294C152.601 33.0294 153.036 32.2322 153.036 31.1452C153.036 30.1306 152.601 29.261 152.021 29.261C151.441 29.261 151.006 30.0581 151.006 31.1452ZM176.009 35.7833C173.327 36.2181 173.182 37.74 172.602 39.3343C171.733 42.523 170.573 42.4505 169.921 42.6679C165.645 43.3926 167.095 46.7987 167.167 47.0161C167.095 47.0161 167.095 47.0886 167.022 47.0886C166.587 47.4509 165.138 48.9003 164.921 49.8424C164.703 49.625 151.006 42.9578 139.194 49.77C139.194 49.8424 138.976 48.4655 136.875 46.9436C136.875 46.9436 138.397 43.4651 134.048 42.6679C133.396 42.4505 132.237 42.4505 131.367 39.3343C130.787 37.74 130.642 36.2181 127.961 35.7833C127.961 35.7833 129.265 34.1889 132.454 35.4209L134.338 33.8266L134.701 36.0007L137.092 35.4209L136.222 38.0298L138.541 38.4647L137.02 39.9141C137.02 39.9141 141.585 42.1606 141.078 36.508L139.411 37.5225C139.411 37.5225 137.962 35.4934 137.744 33.3918C137.672 33.4642 139.991 33.3193 139.991 33.3193L137.889 30.7104C137.889 30.7104 140.788 29.1885 142.817 29.116C142.817 29.0436 142.962 32.2322 142.962 32.2322L144.919 30.5654C144.919 30.5654 145.933 33.1744 146.151 35.276C146.006 35.2035 143.542 35.276 143.542 35.276C143.542 35.276 147.021 40.8562 149.629 35.2035C149.557 35.131 148.18 35.4934 146.876 34.044C146.803 34.044 146.948 33.1744 147.818 32.6671C147.093 32.3772 146.296 31.4351 146.368 31.0003C146.368 30.7104 146.876 30.348 147.673 30.1306C147.528 30.1306 146.731 29.1885 146.586 27.9565C146.586 28.029 147.238 27.5942 148.687 28.1015C148.687 28.1015 148.108 27.4492 147.963 25.2751C147.89 25.2027 148.977 24.9853 150.282 25.3476C150.427 25.3476 150.572 24.4055 151.441 23.101C151.514 23.0286 151.514 22.9561 151.586 22.9561C151.731 22.8112 151.804 22.6662 151.948 22.5213C152.093 22.3763 152.238 22.8112 152.456 23.1735C153.398 24.478 153.543 25.4201 153.615 25.4201C154.92 25.1302 156.007 25.2751 155.934 25.3476C155.862 27.5217 155.282 28.1739 155.282 28.1739C156.732 27.7391 157.311 28.1015 157.311 28.029C157.166 29.261 156.369 30.2031 156.224 30.2031C157.021 30.4205 157.529 30.7828 157.529 31.0727C157.529 31.5075 156.804 32.4497 156.079 32.7395C156.949 33.2468 157.094 34.1165 157.021 34.1165C155.717 35.5659 154.34 35.2035 154.268 35.276C156.876 41.0011 160.355 35.3485 160.355 35.3485C160.355 35.3485 157.964 35.276 157.746 35.3485C157.964 33.2468 158.978 30.6379 158.978 30.6379L160.935 32.3047C160.935 32.3047 161.08 29.116 161.08 29.1885C163.036 29.261 166.008 30.7828 166.008 30.7828L163.906 33.3918C163.906 33.3918 166.298 33.5367 166.153 33.4642C165.935 35.5659 164.486 37.595 164.486 37.595L162.819 36.5804C162.312 42.1606 166.877 39.9865 166.877 39.9865L165.355 38.5371L167.675 38.1023L166.732 35.4934L169.124 36.0731L169.486 33.8991L171.37 35.4934C174.559 34.2614 175.864 35.8557 175.864 35.8557L176.009 35.7833ZM124.192 94.3389C125.135 93.4693 126.149 93.2519 124.99 95.281C120.714 103.18 118.467 111.732 125.787 121.588C125.932 121.733 126.149 121.805 126.149 121.588C126.584 119.341 128.468 112.746 136.078 106.949C136.802 106.369 141.078 103.035 141.295 103.108C142.02 103.253 140.716 106.007 145.499 110.065C146.731 111.079 146.151 109.558 147.021 108.398C148.615 106.369 151.804 102.456 153.18 99.8466C153.398 99.4118 155.644 101.803 156.876 106.152C158.181 100.064 156.804 97.8175 153.833 95.3535C153.108 94.7738 153.688 97.6001 146.513 104.267C143.542 100.716 144.484 94.1215 144.049 93.6867C144.194 93.7592 141.078 98.8321 136.512 100.934C130.062 103.905 129.193 106.514 128.903 105.934C126.656 101.948 129.048 98.1798 130.207 95.2086C130.932 93.3244 135.498 84.628 135.135 83.9033C134.266 84.5555 126.656 88.6138 126.801 87.4543C128.106 76.5838 135.643 77.1636 136.657 69.4818C136.73 69.1919 132.961 71.8008 132.454 72.0907C130.425 73.2502 130.135 73.685 130.715 71.4384C131.947 66.2931 136.947 62.7421 136.222 62.8145C126.222 63.4668 128.686 73.6125 118.83 76.8737C119.192 77.8158 121.873 77.5259 122.671 77.4534C123.395 77.381 125.497 77.381 126.149 77.381C118.902 85.4251 122.018 91.0778 118.177 96.8754C117.743 97.6001 122.308 95.7159 124.047 94.2665L124.192 94.3389ZM132.599 59.8433C135.425 59.9882 138.614 57.6692 137.672 57.5242C130.425 56.6546 125.642 51.2194 125.569 51.1469C125.062 51.0744 126.077 54.0457 126.149 54.408C127.019 57.8866 128.758 59.5534 132.599 59.7708V59.8433ZM149.195 86.0774C149.484 86.0774 149.557 86.0049 149.702 85.715C149.992 85.0628 148.18 84.0482 150.572 78.3231C151.586 75.7866 151.659 73.4676 151.659 70.7862C151.659 67.4526 154.34 64.4813 154.268 64.3364C153.833 63.9016 148.542 68.3222 148.687 71.6559C148.76 73.3951 148.977 74.4822 148.035 75.8591C142.237 84.2656 148.687 86.0774 149.195 86.0774ZM108.539 97.745C117.598 98.2523 114.626 89.7733 116.511 85.4976C117.235 83.8308 119.119 82.164 119.554 80.7871C118.395 80.932 109.481 82.8887 110.568 72.9603C110.64 72.453 113.322 75.2794 116.873 74.4097C124.192 72.3081 123.323 64.9162 128.541 61.655C122.453 59.4809 125.279 54.0457 121.801 49.5525C120.931 48.393 119.119 48.0307 119.047 47.7408C118.975 47.3785 128.613 45.7841 134.773 51.4368C137.165 53.6109 136.367 53.9732 138.252 52.2339C145.644 45.5667 165.5 47.8133 167.602 55.1327C168.399 55.5675 174.124 56.7271 176.661 56.7271C178.255 56.7271 180.937 57.2344 180.502 59.191C179.415 63.6842 176.516 63.6117 176.733 64.4813C177.53 68.1048 175.066 73.1053 174.559 72.9603C174.124 72.8154 174.124 71.0036 173.69 70.7138C170.138 68.3222 163.761 67.67 160.427 64.2639C156.732 66.0757 157.166 71.8733 157.094 73.7575C156.804 79.4101 155.137 79.845 155.5 80.4972C156.949 82.4539 159.558 83.396 162.602 83.4684C165.573 83.5409 165.283 84.3381 168.182 83.9757C169.414 83.8308 171.226 82.0915 171.515 82.2365C171.733 82.3814 171.588 84.7729 170.573 86.3672C169.631 88.034 167.385 88.5413 165.283 88.3239C161.877 87.9616 156.297 87.3818 154.412 91.0778C153.18 93.5418 154.992 92.3822 157.964 91.2227C167.022 87.8166 169.196 98.2523 181.661 87.2369C181.734 87.1644 181.806 87.2369 181.806 87.3094C181.879 89.1211 182.458 93.8316 175.936 96.8029C172.602 98.3248 165.863 97.6725 164.123 99.1219C173.617 103.398 181.661 97.0928 187.097 96.7304C190.937 96.4406 196.808 98.2523 197.677 102.673C196.735 101.441 192.532 101.224 190.865 101.876C171.95 109.195 166.153 102.745 164.703 103.76C163.109 104.847 163.036 108.108 163.616 109.558C164.921 112.601 167.892 116.225 169.776 123.399C163.544 117.964 156.297 117.602 154.775 111.877C154.34 110.355 154.268 107.891 153.76 106.514C153.76 106.514 152.528 109.195 152.166 110.572C151.079 115.138 157.891 118.979 157.891 129.559C144.122 123.399 144.122 116.442 144.339 114.775C144.339 114.63 144.194 114.63 144.122 114.703C143.469 115.645 142.02 119.051 144.557 127.168C146.223 132.675 143.904 138.183 143.904 137.966C143.542 133.618 137.962 128.98 136.005 123.254C133.976 117.457 137.672 113.181 137.527 112.891C137.31 112.384 130.57 116.08 131.802 124.269C132.671 129.994 136.585 131.661 138.179 136.227C139.773 140.792 139.049 148.474 127.961 150.72C126.729 150.938 127.526 150.286 128.178 149.344C131.512 144.923 127.888 137.531 127.019 137.169C126.584 136.951 124.337 139.488 120.062 139.343C114.264 139.125 112.452 133.473 113.177 133.545C122.598 134.125 120.786 123.979 120.207 124.704C119.699 125.356 111.51 129.052 109.481 123.254C109.408 123.037 109.553 122.82 109.771 122.747C119.192 122.385 115.641 113.036 115.351 109.703C114.844 104.34 118.25 101.948 117.96 101.296C117.815 100.934 108.032 103.253 108.249 97.89L108.539 97.745ZM217.244 125.573C219.418 124.921 220.65 123.689 221.375 123.109C221.447 123.037 221.447 122.965 221.302 122.892C219.926 122.82 214.853 122.312 211.591 116.37C208.475 110.717 203.765 105.354 196.735 105.354C193.619 105.427 186.807 107.021 187.097 107.456C187.386 107.963 198.619 107.601 203.547 114.413C206.953 119.124 209.707 127.748 217.244 125.501V125.573ZM166.298 72.8154C163.181 70.3514 159.993 71.8008 158.471 75.7142C158.036 76.8737 158.326 76.7288 158.616 76.6563C162.239 75.6417 163.689 76.5113 165.863 77.5259C171.008 79.7725 174.632 78.6854 176.516 74.917C174.994 74.917 172.747 77.8883 166.298 72.8154ZM240.362 167.099C239.13 166.519 239.275 164.2 237.536 163.91C236.014 163.693 234.492 165.577 232.97 164.997C228.332 163.04 224.201 164.055 223.332 164.997C223.984 165.504 228.477 166.664 229.492 167.389C231.448 168.693 232.825 171.157 231.593 174.78C231.013 176.592 231.593 177.679 230.434 179.346C228.984 181.448 228.767 180.723 229.202 178.839C229.274 178.404 228.694 178.042 227.825 176.592C227.245 175.65 221.302 177.752 219.346 171.157C217.896 172.099 209.635 176.737 202.025 167.534C197.387 161.953 191.445 169.418 179.994 170.36C179.415 170.432 182.821 166.954 181.879 162.895C181.516 161.374 181.589 161.663 180.647 162.388C178.907 163.548 175.646 165.287 173.327 165.214C172.747 165.214 176.298 162.026 173.617 153.764C173.472 153.257 170.573 158.475 165.211 158.402C166.08 154.127 166.225 151.59 165.428 149.778C164.558 147.677 162.094 146.01 158.616 144.126C158.761 144.343 159.413 145.358 159.558 145.503C165.718 155.938 159.34 161.374 160.355 161.663C166.66 163.62 170.863 159.634 171.298 159.924C172.023 160.287 170.718 163.838 169.269 166.302C167.022 170.142 163.689 172.099 159.413 174.346C156.079 176.085 149.992 178.332 150.934 183.115C151.369 185.144 156.659 191.738 157.166 195.434C157.746 199.638 153.47 205.145 152.746 208.841C152.456 210.073 152.528 211.378 152.818 212.537C150.354 212.32 148.035 211.958 145.716 211.378C145.209 210.436 144.846 209.276 144.774 207.972C144.701 206.957 144.919 206.16 144.339 206.74C143.18 207.827 142.382 209.059 141.875 210.291C135.498 208.189 129.628 204.783 124.7 200.362C134.193 192.028 131.947 178.332 131.657 175.215C130.57 163.62 142.6 164.345 149.629 144.343C144.267 154.996 123.105 159.852 125.569 176.375C126.729 184.347 127.743 190.289 122.236 197.971C121.294 197.029 120.424 196.014 119.627 195C123.105 188.115 119.844 178.694 120.351 171.519C121.511 154.851 152.311 150.648 149.557 130.212C149.557 130.067 149.702 129.994 149.847 129.994C155.065 131.878 157.674 135.937 158.906 137.821C159.123 138.183 159.413 138.69 159.63 139.125C160.717 138.038 162.457 135.212 163.109 132.168C163.616 129.777 163.834 126.733 163.036 123.399C162.964 122.965 170.356 127.53 171.805 129.414C172.965 130.864 173.834 133.545 174.124 130.791C174.269 129.414 174.487 126.516 174.052 122.53C174.994 123.182 176.516 127.24 180.139 130.936C183.038 133.98 196.663 142.821 204.199 151.228C206.374 153.619 210.649 154.779 213.766 153.692C218.331 152.097 218.114 143.039 228.042 142.604C230.869 142.459 234.782 140.72 236.376 144.488C237.101 146.155 235.362 145.358 234.057 145.503C232.318 145.72 231.448 146.517 231.448 148.112C231.521 152.17 225.361 155.141 225.288 155.721C226.883 156.301 233.767 153.112 237.029 156.373C237.753 157.098 237.826 158.04 238.405 158.837C242.029 164.055 240.58 167.099 240.29 166.954L240.362 167.099ZM183.183 204.855C180.937 206.305 178.618 207.609 176.081 208.696C169.124 209.059 162.094 211.088 162.239 210.436C165.5 194.565 159.123 186.955 158.253 184.854C154.992 177.244 168.037 177.534 175.284 172.534C176.226 171.882 176.661 172.606 177.313 173.693C178.69 175.868 181.661 182.027 186.589 185.506C192.459 189.709 196.155 189.927 198.474 188.84C195.503 193.913 191.59 198.333 187.024 202.029C172.095 199.275 168.762 195.072 168.689 196.594C168.617 198.188 168.762 204.058 169.414 204.421C169.921 204.711 176.878 203.696 183.183 204.855Z" fill="#E5B582"/>
<path d="M187.601 201.737C159.555 196.012 158.685 183.402 158.468 182.387C158.685 180.141 163.831 177.749 168.469 177.459C169.338 177.387 167.961 186.663 193.471 196.012C191.659 198.113 189.702 199.997 187.601 201.737ZM150.351 212.317C149.119 212.172 147.887 211.955 146.655 211.665C145.713 210.143 145.206 208.404 145.496 206.447C145.713 205.94 146.22 205.36 147.09 203.548C147.96 201.737 148.032 200.215 148.249 199.852C148.105 206.085 149.192 209.926 150.424 212.245L150.351 212.317ZM81.1424 161.081C77.7363 160.864 76.142 162.603 76.2145 162.458C78.0987 159.269 80.4902 158.255 82.9541 158.182C93.8971 157.675 85.2007 178.039 114.116 173.039C114.768 172.894 113.174 175.503 112.667 176.227C111.87 175.865 110.058 176.517 107.376 176.662C105.202 176.735 100.854 177.024 97.3757 175.213C84.2586 168.473 88.0995 161.588 81.0699 161.154L81.1424 161.081ZM102.593 182.46C96.7234 181.59 89.5489 177.894 87.3748 172.314C88.027 173.401 97.2307 185.648 114.986 180.286C115.348 180.141 116.725 181.373 116.508 181.445C114.913 182.097 110.493 183.692 102.666 182.46H102.593ZM151.873 23.5332C151.801 23.5332 153.685 26.7943 151.945 28.8235C151.945 28.8235 150.134 27.3741 151.873 23.5332ZM138.539 30.9251C138.539 30.9251 139.408 30.4178 140.205 30.2004C140.205 30.2004 141.22 32.1571 141.582 33.8964C141.582 33.8239 141.365 33.6065 140.35 33.3891C140.278 33.3891 138.466 30.9251 138.466 30.9251H138.539ZM162.236 33.8964C162.599 32.1571 163.541 30.2004 163.613 30.2004C164.483 30.4903 165.28 30.9251 165.28 30.9251C165.28 30.9251 163.541 33.3891 163.396 33.3891C162.381 33.6065 162.236 33.8239 162.164 33.8964H162.236ZM163.106 39.7665C161.729 38.1721 162.091 34.911 162.091 34.911C162.091 34.911 164.12 36.0705 164.193 36.0705C164.7 34.9834 164.773 33.8964 164.773 33.8964L165.787 33.8239C165.642 35.3458 164.483 37.23 164.483 37.23C164.483 37.23 162.816 36.2154 162.743 36.2154C162.236 37.5924 163.178 39.7665 163.178 39.7665H163.106ZM139.408 37.1575C139.408 37.1575 138.249 35.2733 138.104 33.7515L139.118 33.8239C139.118 33.8239 139.191 34.911 139.698 35.998C139.771 35.998 141.8 34.8385 141.8 34.8385C141.8 34.8385 142.09 38.0997 140.785 39.694C140.785 39.694 141.727 37.5199 141.22 36.143C141.147 36.143 139.481 37.1575 139.481 37.1575H139.408ZM143.322 35.1284L142.814 34.4762C142.814 34.4762 145.423 34.3312 145.568 34.3312C145.713 34.3312 145.858 35.1284 145.858 35.1284H143.322ZM155.424 25.8522C155.352 27.519 154.554 28.896 154.192 29.2583C155.424 28.4612 156.656 28.6786 156.656 28.6786C156.656 28.6786 154.337 30.7802 154.264 30.7802C156.149 30.4903 157.236 31.1425 157.236 31.1425L154.409 32.3745C155.931 32.8094 156.873 33.9689 156.873 33.9689C156.873 33.9689 154.989 33.8964 153.685 33.8964L153.975 36.6503L152.38 33.8964H152.453C154.989 31.2875 152.815 29.0409 152.815 29.0409L155.641 25.8522H155.424ZM160.497 35.2009H157.96C157.96 35.2009 158.105 34.3312 158.25 34.3312C158.395 34.3312 161.004 34.4762 161.004 34.4762L160.497 35.1284V35.2009ZM149.626 30.7802C149.554 30.7077 147.235 28.6786 147.235 28.6786C147.235 28.6786 148.467 28.5336 149.699 29.2583C149.337 28.9684 148.539 27.5915 148.467 25.8522L151.293 29.0409C151.293 29.0409 149.047 31.215 151.656 33.8964L150.061 36.6503L150.351 33.8964C149.047 33.9689 147.162 33.9689 147.162 33.9689C147.162 33.9689 148.105 32.7369 149.626 32.3745L146.728 31.1425C146.728 31.1425 147.815 30.4178 149.699 30.7802H149.626ZM142.234 36.143C147.525 41.2883 150.858 37.1575 151.873 34.9834C153.54 38.2446 156.946 40.5636 161.511 36.0705C160.424 39.9114 161.946 41.0709 162.671 41.5782C157.671 39.4041 149.409 37.5924 141.003 41.5782C141.8 41.2159 143.177 39.5491 142.162 36.143H142.234ZM174.556 36.0705C172.744 36.3604 172.527 37.23 171.947 38.8968C171.295 41.5057 169.918 41.8681 168.903 42.2304C165.497 43.0276 166.222 46.2163 166.15 46.0713C164.193 43.9697 164.338 41.5782 164.338 41.5782C169.266 42.5928 169.701 39.7665 170.28 38.5345C171.875 35.3458 174.629 35.998 174.556 36.0705ZM134.915 42.158C133.9 41.7956 132.524 41.4333 131.871 38.8244C131.292 37.0851 131.147 36.2879 129.262 35.998C129.19 35.9256 131.944 35.2733 133.538 38.462C134.045 39.694 134.553 42.5203 139.481 41.5057C139.481 41.5057 139.626 43.8972 137.669 45.9989C137.596 46.0713 138.321 42.9551 134.915 42.158ZM93.3173 81.799C93.2449 78.3204 95.274 70.0589 104.26 66.4354C104.913 66.1455 91.9404 74.4071 96.8684 88.2488C97.0133 88.6112 93.3898 82.4512 93.3173 81.799ZM144.481 92.3071C138.321 101.366 133.756 99.2643 128.828 105.279C127.451 89.8432 141.22 94.1189 142.234 86.5096C152.235 90.133 147.887 97.38 146.655 103.323C144.698 101.656 144.626 92.3796 144.481 92.3796V92.3071ZM86.0704 62.3771C70.0545 79.48 86.7226 86.5096 88.7517 91.9448C78.606 91.2201 77.7363 97.0177 77.3015 98.612C74.4027 92.0173 85.0558 89.9881 82.5918 88.6112C78.0262 86.0023 70.7067 72.8852 86.0704 62.4495V62.3771ZM90.8534 140.21C93.7522 133.687 99.4773 115.063 94.7667 103.83C92.1578 97.525 80.1278 96.5829 76.7942 106.004C76.7217 106.221 76.3594 106.221 76.2869 106.004C75.3448 102.743 79.9829 96.148 85.9979 96.148C92.0129 96.148 96.506 101.148 97.8105 107.019C98.97 112.381 98.8975 128.325 90.9258 140.21H90.8534ZM76.4319 151.08C74.3302 143.181 82.5918 137.963 86.7226 146.442C88.4619 150.5 89.1141 154.124 87.8096 154.051C87.3748 150.428 81.5772 140.427 76.4319 151.008V151.08ZM228.184 57.5216C229.053 53.9706 233.547 53.5357 234.561 53.5357C235.503 53.5357 237.025 50.9268 240.649 53.1009C240.721 53.1009 240.721 53.2459 240.649 53.2459C239.924 53.2459 238.982 53.1009 238.04 53.5357C236.88 54.1155 236.01 55.4924 235.431 56.2896C227.966 55.4924 228.981 61.7248 228.691 61.6524C228.401 61.5799 227.459 60.8552 228.256 57.5941L228.184 57.5216ZM244.997 64.6236C242.678 63.754 241.301 63.9714 240.504 64.6236C239.562 65.3483 238.112 67.45 237.315 68.0297C235.141 69.4067 226.155 67.8848 227.966 75.2042C226.952 75.7115 220.574 65.9281 238.982 63.6091C239.706 62.522 242.823 61.0001 245.069 64.6961L244.997 64.6236ZM239.344 79.8423C238.04 81.799 237.17 85.8573 230.938 85.8573C227.097 85.8573 224.778 83.2484 221.951 86.0747C222.531 84.3355 223.183 83.031 226.227 82.5962C231.517 84.8427 237.17 81.6541 237.46 78.6828C237.46 78.4654 241.011 76.5812 241.083 76.7261C241.373 77.3059 239.779 79.1176 239.344 79.8423ZM203.472 91.51C203.689 90.4229 204.414 87.814 204.559 87.6691C207.167 84.6978 215.719 74.9144 218.908 69.4791C218.98 69.4067 219.053 69.4791 219.053 69.5516C216.951 75.8565 205.138 89.2634 203.544 91.5824C203.472 91.6549 203.399 91.5824 203.399 91.51H203.472ZM222.096 77.1609C218.4 87.0893 219.053 101.221 217.313 104.627C216.371 103.757 214.994 99.3367 214.052 97.9598C214.632 96.5829 214.559 86.7994 222.096 77.1609ZM198.399 94.1189C198.254 94.0464 198.399 93.829 198.544 93.829C199.631 94.0464 201.515 94.6262 203.689 99.4817C204.124 100.496 213.038 96.3655 211.371 107.816C211.371 107.888 211.226 107.888 211.226 107.816C209.197 101.873 202.384 101.293 202.312 101.004C202.095 98.3946 199.776 95.3509 198.399 94.1189ZM108.753 98.4671C108.681 98.3946 113.174 101.946 122.885 96.4379C122.668 96.6553 118.609 100.496 118.392 100.641C116.435 101.221 110.71 102.525 108.681 98.3946L108.753 98.4671ZM119.769 117.092C121.726 119.266 124.262 124.266 123.61 128.252C123.102 131.368 121.363 133.615 118.247 133.905C119.986 133.18 123.755 126.875 120.276 123.034C120.059 122.745 114.479 129.122 109.985 123.614C118.464 124.484 119.841 117.237 119.696 117.092H119.769ZM143.756 135.717C144.046 135.064 138.466 127.672 137.162 124.629C134.625 118.904 137.524 113.251 138.756 111.802C138.901 111.657 140.35 110.57 140.133 110.642C135.785 111.004 127.016 121.295 126.653 122.092C127.668 114.483 138.683 106.294 140.35 104.12C140.568 103.83 140.495 110.207 140.495 110.352C140.495 110.425 143.974 114.555 143.974 114.628C142.887 114.99 141.075 115.063 140.858 115.28C136.437 121.223 146.148 129.702 143.684 135.789L143.756 135.717ZM147.597 122.31C143.829 117.817 145.206 114.99 145.206 114.99C145.206 114.99 153.83 124.774 157.308 128.832C154.699 128.832 148.322 123.252 147.525 122.31H147.597ZM157.816 151.805C156.004 164.705 140.568 169.56 139.553 178.546C137.669 194.635 130.422 198.186 127.813 198.765C134.335 190.069 133.103 180.503 132.886 176.662C132.741 173.618 132.668 171.009 133.828 169.343C136.799 164.85 148.684 155.501 150.496 142.239C147.162 152.24 126.871 158.037 124.262 170.72C121.87 154.414 150.641 154.559 150.496 132.311C150.641 132.383 159.7 138.47 157.888 151.805H157.816ZM150.424 183.982C149.916 184.199 147.09 180.358 147.09 179.778C147.09 173.328 153.322 172.314 158.468 171.154C168.034 168.908 168.686 163.69 170.788 161.154C170.425 163.907 167.816 170.575 158.975 173.836C146.438 178.401 150.351 183.982 150.351 183.982H150.424ZM158.25 115.642C156.439 114.121 155.714 113.251 155.207 111.657C155.134 111.367 155.062 111.149 154.989 110.859C154.844 110.135 154.627 109.193 154.409 108.178C154.337 107.671 154.192 107.019 154.047 106.366C154.047 106.366 153.83 106.294 153.685 106.439C151.728 108.395 151.438 111.512 151.438 111.149C150.061 108.106 152.453 100.714 153.177 100.641C153.322 100.641 154.12 105.497 154.192 105.569C154.192 105.714 167.816 121.657 168.469 122.165C165.787 120.063 160.932 117.889 158.323 115.642H158.25ZM165.787 158.11C166.077 156.443 170.498 147.674 159.12 144.268C169.193 146.66 168.396 151.08 168.396 154.994C168.396 155.646 165.86 158.182 165.715 158.11H165.787ZM128.248 150.283C129.262 149.413 132.306 144.051 127.451 136.151C126.653 136.514 123.682 138.688 120.421 138.688C116.943 138.688 113.609 136.006 113.464 133.977C118.102 139.268 126.871 136.369 128.538 128.832C128.683 128.904 142.597 142.746 128.248 150.283ZM208.762 162.965C208.327 162.893 207.965 162.748 207.53 162.603C207.965 162.748 208.327 162.82 208.762 162.965ZM208.762 162.965C208.327 162.893 207.965 162.748 207.53 162.603C207.965 162.748 208.327 162.82 208.762 162.965ZM182.165 149.848C174.266 144.051 169.846 137.528 161.584 137.166C165.063 133.108 164.193 128.542 164.048 125.498C166.15 126.585 189.267 157.168 207.53 162.603C195.645 159.269 188.253 154.269 182.165 149.776V149.848ZM224.053 155.139C224.343 149.703 229.561 151.443 229.561 146.152C230.14 144.268 232.967 142.674 235.576 144.63C235.648 144.703 235.576 144.775 235.503 144.775C231.662 144.703 230.793 146.37 230.865 147.529C231.083 152.892 224.415 154.196 224.053 155.066V155.139ZM117.812 76.3638C126.943 69.9864 123.9 66.7253 128.828 61.8698C131.074 62.3046 133.756 62.1597 136.654 62.0872C136.22 62.667 130.639 60.5653 126.001 69.8415C123.61 74.697 116.87 77.016 117.812 76.3638ZM151.511 48.7527C144.481 49.9847 143.539 51.2167 142.597 51.8689C142.379 52.0139 142.307 57.739 141.365 58.6086C140.858 57.739 138.539 54.043 137.379 53.6082C138.176 52.5936 142.452 49.1151 151.511 48.7527ZM169.846 86.2921C166.367 90.5679 155.786 83.8282 153.25 92.0173C153.177 92.1622 147.09 83.5383 151.945 78.5379C152.018 78.4654 153.467 84.0456 153.467 84.0456C153.83 85.0602 166.584 86.3646 167.889 86.0747C168.396 85.9298 170.715 83.031 171.005 82.8136C171.367 82.6686 170.933 84.9152 169.846 86.2197V86.2921ZM110.71 73.6824C114.841 80.8569 120.204 78.4654 123.972 78.3929C123.972 78.5379 120.494 79.6249 119.769 80.4221C117.087 80.712 110.71 81.9439 110.638 73.6824H110.71ZM181.368 88.3938C181.586 94.4088 174.918 97.8873 170.57 97.6699C167.889 97.525 165.135 97.8149 163.323 99.0468C162.816 89.4808 174.846 100.424 181.441 88.4662L181.368 88.3938ZM186.441 99.4092C190.644 98.1047 196.877 101.293 196.877 102.018C190.644 99.4092 182.673 108.395 168.034 104.482C166.657 104.12 165.86 103.25 164.193 103.395C168.614 100.496 166.222 105.497 186.441 99.4092ZM174.339 71.6532C173.976 67.8123 165.57 68.8269 160.714 64.1163C159.845 63.3192 156.656 66.5079 156.511 69.9864C155.134 67.6674 154.917 65.5657 154.844 62.5945C154.844 62.3771 152.815 60.1305 149.626 59.3333C153.033 58.8985 153.685 60.4929 159.7 62.522C160.062 62.667 164.338 60.9277 164.338 61.1451C164.338 61.7248 169.266 67.305 169.918 67.5224C175.861 69.3342 176.005 65.0585 176.223 65.2759C176.44 65.6382 175.571 72.0156 174.339 71.6532ZM175.643 58.6086C178.18 60.7103 179.484 58.3912 179.484 58.6086C179.049 61.8698 175.933 63.754 175.788 63.6815C173.034 63.1018 171.875 57.739 172.165 57.8115C173.976 58.4637 175.426 58.3912 175.716 58.6086H175.643ZM139.626 64.3338C140.133 64.4062 141.003 68.8994 136.944 71.9431C137.089 71.5083 137.451 69.0443 137.524 68.537C137.669 67.3775 132.668 71.4358 130.929 72.4504C133.538 62.8119 139.481 64.3338 139.626 64.3338ZM144.119 71.9431C143.466 78.0306 140.64 80.4221 134.915 83.4658C134.915 83.4658 128.103 87.2342 127.523 87.3067C127.378 77.6682 142.959 76.2913 144.119 71.9431ZM197.167 115.86C204.631 122.165 198.689 130.136 205.863 135.717C195.21 132.455 198.761 122.889 193.688 118.469C188.688 114.121 181.296 116.005 181.296 116.005C181.296 116.005 189.63 109.555 197.167 115.86ZM207.892 114.628C209.559 117.454 211.516 124.701 220.647 123.469C219.415 123.904 211.951 130.644 205.283 116.585C201.442 108.54 190.427 107.816 187.891 107.598C200.645 104.917 204.776 109.41 207.965 114.628H207.892ZM240.141 166.371C240.141 166.444 239.996 166.444 239.996 166.371C237.822 160.864 234.779 164.922 233.329 164.197C230.865 162.893 224.56 162.82 223.256 164.052C223.618 160.501 230.575 159.124 236.01 161.009C237.098 161.081 240.721 162.675 240.141 166.371ZM181.078 116.222C181.078 116.367 193.906 135.137 194.485 136.514C188.398 131.513 187.021 131.151 183.325 127.745C178.614 123.469 176.658 116.729 170.425 110.425C170.643 110.352 181.151 115.932 181.151 116.222H181.078ZM230.068 175.72C230.14 177.097 231.227 177.749 229.706 180.068C229.633 180.141 229.561 180.068 229.561 179.996C229.851 178.474 228.908 177.822 227.966 176.517C223.401 176.082 220.719 174.705 220.14 170.357C210.139 177.097 203.689 167.386 200.79 166.299C200.5 166.009 212.603 170.865 221.082 166.009C223.328 172.314 228.981 169.488 230.068 175.792V175.72ZM166.947 47.3758C166.874 47.3033 164.99 49.1151 164.7 50.2021C164.483 49.9847 150.786 43.3175 139.046 50.1297C139.046 50.2021 138.828 48.8252 136.727 47.3033C136.727 47.3033 138.104 46.5786 140.713 47.5207C140.785 47.5932 150.931 42.9551 163.033 47.6657C163.033 47.7382 165.063 46.6511 166.947 47.4483V47.3758ZM167.309 75.6391C165.787 74.697 164.265 73.6824 162.526 73.6824C159.337 73.6099 159.048 76.0739 159.048 76.0739C166.657 72.088 166.512 82.5237 175.498 75.784C175.716 75.5666 171.875 78.3929 167.382 75.6391H167.309ZM159.772 58.5362H160.062C160.859 58.3188 161.367 57.9564 162.236 57.3766C164.41 55.7823 162.816 55.4924 159.917 54.4779C158.033 54.043 150.931 53.4633 150.858 54.043V54.1155H150.786C150.134 54.2604 145.786 53.5357 144.409 53.5357C146.873 52.5936 159.845 48.5353 165.352 54.6228C165.425 54.6953 164.338 59.6232 159.845 58.6811L159.772 58.5362Z" fill="#857040"/>
</g>
<defs>
<clipPath id="clip0_232_59">
<rect width="180" height="266.399" fill="white" transform="translate(68 21.7959)"/>
</clipPath>
</defs>
</svg>
