<svg width="316" height="315" viewBox="0 0 316 315" fill="none" xmlns="http://www.w3.org/2000/svg">
<path d="M261.434 212.849C291.52 212.849 316 188.208 316 157.924C316 127.623 291.52 103 261.434 103C231.342 103 206.868 127.623 206.868 157.924C206.868 188.208 231.342 212.849 261.434 212.849ZM261.434 138.339C272.156 138.339 280.888 147.125 280.888 157.918C280.888 168.712 272.15 177.486 261.428 177.486C250.7 177.486 241.98 168.712 241.98 157.912C241.98 147.107 250.706 138.327 261.428 138.327L261.434 138.339ZM55.5659 212.849C85.6518 212.849 110.132 188.208 110.132 157.924C110.132 127.623 85.6518 103 55.5659 103C25.4859 103 1 127.623 1 157.924C1 188.208 25.4859 212.849 55.5659 212.849ZM55.5659 138.339C66.2938 138.339 75.0196 147.125 75.0196 157.918C75.0196 168.712 66.2938 177.486 55.5659 177.486C44.844 177.486 36.1242 168.712 36.1242 157.912C36.1242 147.107 44.8499 138.327 55.5659 138.327V138.339ZM158.47 137.102L141.718 103.717H102.494L139.13 176.751V211.134H177.816V176.751L214.452 103.717H175.21L158.476 137.102H158.47Z" fill="#EE2E24"/>
</svg>
