<svg width="316" height="315" viewBox="0 0 316 315" fill="none" xmlns="http://www.w3.org/2000/svg">
<g clip-path="url(#clip0_228_1094)">
<path d="M274.152 157.149C274.152 145.478 283.044 137.253 294.826 137.253C306.608 137.253 315.5 145.478 315.5 157.149C315.5 168.82 306.608 177.045 294.826 177.045C283.044 177.045 274.152 168.709 274.152 157.149ZM303.829 157.149C303.829 151.703 300.384 147.701 294.937 147.701C289.491 147.701 286.045 151.703 286.045 157.149C286.045 162.595 289.491 166.597 294.937 166.597C300.384 166.597 303.829 162.706 303.829 157.149ZM266.372 147.924C267.15 149.48 267.483 151.147 267.483 152.925C267.483 157.149 265.26 161.039 261.703 164.04C266.594 166.374 269.484 172.043 269.484 177.378C269.484 187.382 261.37 194.051 249.032 194.051C236.694 194.051 228.58 187.493 228.58 177.378C228.469 171.821 231.47 166.708 236.361 164.04C232.693 161.039 230.581 157.149 230.581 152.925C230.581 144.144 237.472 137.698 248.365 137.698C254.812 137.698 256.701 138.809 260.369 138.809C262.815 138.92 265.371 138.253 267.483 136.92C268.261 136.475 269.039 136.142 269.928 136.142C271.373 136.142 272.151 137.587 272.151 139.365C272.485 143.255 270.04 146.701 266.372 147.924ZM258.035 177.045C258.035 172.599 254.59 169.487 249.143 169.487C243.697 169.487 240.251 172.488 240.251 177.045C240.251 181.269 244.03 184.603 249.143 184.603C254.256 184.603 258.035 181.269 258.035 177.045ZM241.918 153.592C242.03 157.482 245.364 160.595 249.366 160.483C253.145 160.372 256.035 157.371 256.257 153.592C256.257 149.591 253.367 146.812 249.143 146.812C244.92 146.812 241.918 149.48 241.918 153.592ZM223.245 157.927V171.821C223.245 174.488 222.245 175.6 219.355 175.6H215.465C212.575 175.6 211.574 174.488 211.574 171.821V158.26C211.574 154.815 211.019 152.37 209.796 150.813C208.351 149.035 206.128 148.146 203.905 148.257C201.571 148.146 199.348 149.146 197.792 150.813C196.458 152.37 195.569 154.815 195.569 158.149V171.71C195.569 174.488 194.346 175.489 191.679 175.489H187.788C185.121 175.489 183.898 174.488 183.898 171.71V140.588C183.898 138.809 184.787 138.031 186.121 138.031C188.122 138.031 190.9 139.698 193.012 142.922C196.236 139.365 200.793 137.364 205.572 137.364C211.241 137.364 215.798 139.365 218.799 142.699C221.8 146.034 223.245 150.591 223.245 157.927ZM162.557 126.583C162.557 123.026 165.558 120.247 169.004 120.247H169.226C172.672 120.469 175.339 123.47 175.117 126.916C174.895 130.362 171.894 133.029 168.448 132.807C165.114 132.696 162.557 129.917 162.557 126.583ZM163.335 171.821V142.588C163.335 139.921 164.336 138.698 167.225 138.698H171.116C174.006 138.698 175.006 139.81 175.006 142.588V171.821C175.006 174.488 174.006 175.6 171.116 175.6H167.225C164.336 175.6 163.335 174.488 163.335 171.821ZM142.772 171.821V135.141C142.772 125.916 147.885 120.692 152.22 120.692C153.554 120.692 154.443 121.581 154.443 123.248V171.821C154.443 174.6 153.332 175.6 150.553 175.6H146.663C143.995 175.6 142.772 174.6 142.772 171.821ZM94.7555 157.149C94.7555 145.478 103.647 137.253 115.429 137.253C127.211 137.253 136.103 145.478 136.103 157.149C136.103 168.82 127.211 177.045 115.429 177.045C103.647 177.045 94.7555 168.709 94.7555 157.149ZM124.321 157.149C124.321 151.703 120.876 147.701 115.429 147.701C109.983 147.701 106.537 151.703 106.537 157.149C106.537 162.595 109.983 166.597 115.429 166.597C120.876 166.597 124.321 162.706 124.321 157.149ZM88.7533 142.588V173.71C88.7533 175.489 87.8642 176.267 86.5303 176.267C84.5296 176.267 81.7509 174.6 79.7502 171.487C76.638 175.044 72.192 177.045 67.4125 176.934C62.9665 177.045 58.7428 175.489 55.4083 172.488C51.9626 169.153 50.073 164.04 50.073 156.704V142.588C50.073 139.921 51.0734 138.698 53.9633 138.698H57.8536C60.7435 138.698 61.7438 139.81 61.7438 142.588V155.704C61.7438 160.15 62.5219 162.484 63.9668 164.04C65.3006 165.374 67.3013 166.152 69.1909 166.041C71.3027 166.041 73.3035 165.263 74.7484 163.707C76.1934 162.151 76.9714 159.705 76.9714 155.926V142.588C76.9714 139.81 78.1941 138.698 80.8617 138.698H84.7519C87.5307 138.698 88.7533 139.81 88.7533 142.588ZM42.0702 123.248V173.71C42.0702 175.489 41.181 176.267 39.8472 176.267C37.8465 176.267 35.0677 174.6 33.067 171.599C30.6217 174.488 25.62 177.045 19.8402 177.045C8.28052 177.045 0.5 168.597 0.5 157.149C0.5 145.7 8.50282 137.253 19.8402 137.253C23.6193 137.253 27.2872 138.365 30.5106 140.476V135.141C30.5106 125.916 35.7346 120.692 39.9584 120.692C41.2922 120.692 42.0702 121.581 42.0702 123.248ZM30.5106 157.149C30.5106 151.48 26.5092 147.701 21.5074 147.701C16.5056 147.701 12.3931 151.48 12.3931 157.149C12.3931 162.818 16.3945 166.597 21.5074 166.597C26.6203 166.597 30.5106 162.929 30.5106 157.149Z" fill="#59CC03"/>
</g>
<defs>
<clipPath id="clip0_228_1094">
<rect width="315" height="73.8038" fill="white" transform="translate(0.5 120.247)"/>
</clipPath>
</defs>
</svg>
