<svg width="316" height="315" viewBox="0 0 316 315" fill="none" xmlns="http://www.w3.org/2000/svg">
<mask id="mask0_228_985" style="mask-type:luminance" maskUnits="userSpaceOnUse" x="0" y="125" width="141" height="65">
<path d="M0.0927734 125.511H140.174V189.32H0.0927734V125.511Z" fill="#00FFD0"/>
</mask>
<g mask="url(#mask0_228_985)">
<path fill-rule="evenodd" clip-rule="evenodd" d="M125.804 187.582C125.919 188.543 125.183 189.321 125.183 189.321L124.356 189.061C124.356 189.061 118.265 186.898 108.895 184.128C108.895 184.128 100.605 181.65 97.2369 180.535C97.2369 180.535 96.5147 180.256 95.0976 180.395C93.6833 180.535 88.789 180.907 85.568 181.248L80.6451 181.806C71.7531 182.834 67.6886 183.014 67.6886 183.014C53.5767 184.387 50.1989 184.642 50.1989 184.642C42.7485 185.19 38.0027 186.086 26.8584 186.815L5.87518 188.93C5.87518 188.93 4.38047 189.093 4.3682 189.085L3.80956 189.136C3.34902 188.828 3.29179 188.465 3.29179 188.465L3.31223 187.68C4.19789 187.357 3.20322 186.397 3.20322 186.397C2.74813 186.201 2.89801 185.865 2.89801 185.865C2.90346 185.8 2.93889 185.76 2.96342 185.716C3.00974 185.634 3.10512 185.503 3.09695 185.481C2.99748 185.228 3.46211 184.319 3.46211 184.319C3.22639 184.019 3.3204 184.075 3.08332 183.778C2.93344 183.587 2.86259 183.018 2.82716 182.614C2.80263 182.334 3.2986 181.779 3.1678 181.628C2.95524 181.378 2.73587 181.155 2.52604 180.889C2.44183 180.766 2.38385 180.627 2.35572 180.481C2.34518 180.378 2.36968 180.276 2.42521 180.189C2.57509 179.976 2.58054 179.967 2.39251 179.624C2.32165 179.493 2.2399 179.389 2.16496 179.267C2.00146 178.997 2.53558 178.4 2.48516 178.012C2.45784 177.825 2.415 177.642 2.35708 177.463C2.31324 177.315 2.27641 177.165 2.24671 177.014L2.20584 176.908C2.1744 176.825 2.16684 176.736 2.18404 176.649C2.1626 176.519 2.15893 176.387 2.17314 176.257C2.11591 176.067 2.05596 175.878 2.00009 175.687C1.95513 175.537 1.96467 175.411 2.01917 175.323C2.03552 175.299 2.05187 175.272 2.07095 175.261C2.17995 175.198 2.1418 174.931 2.18949 174.784L2.12136 174.702C2.04642 174.608 2.01781 174.543 2.04233 174.473C2.09683 174.319 2.04369 174.089 2.05732 173.908C2.0642 173.687 2.02475 173.467 1.9415 173.262C1.90608 173.164 1.88564 173.059 1.85975 172.957C1.82432 172.82 1.8325 172.713 1.87201 172.643C1.93197 172.54 2.00009 172.452 2.06277 172.354C2.10773 172.285 2.09956 172.104 2.04097 171.966C1.99759 171.865 1.95078 171.765 1.90063 171.666C1.82998 171.557 1.75451 171.451 1.67444 171.349C1.49731 171.125 1.38422 170.868 1.43736 170.556C1.47279 170.347 1.43327 170.237 1.31746 170.106C1.2357 170.017 1.16606 169.918 1.11035 169.81C0.884165 169.361 0.896428 169.225 1.15395 169.19C1.38558 169.158 1.42646 169.098 1.35152 168.613C1.28067 168.154 1.29021 167.88 1.52865 167.814C1.65401 167.78 1.76846 167.633 1.71941 167.273C1.66899 166.907 1.82569 166.246 1.61858 166.16C1.35016 166.048 1.32154 165.587 1.17166 165.313C1.16894 165.307 1.19074 165.205 1.20573 165.212C1.2466 165.228 1.29293 165.296 1.33381 165.313C1.38558 165.332 1.43327 165.319 1.48369 165.321C1.4469 165.215 1.41828 165.073 1.37196 165.01C1.2248 164.814 1.17711 164.67 1.17848 164.345C1.1812 163.961 1.15395 163.451 0.818763 163.169C0.768348 163.127 0.702946 162.863 0.696133 162.725C0.690683 162.63 0.764261 162.551 0.818763 162.515C0.878715 162.477 0.96183 162.515 1.02587 162.488C1.08582 162.464 1.13351 162.395 1.18529 162.346C1.1376 162.228 1.09809 162.083 1.0395 161.998C0.953349 161.87 0.852761 161.753 0.739735 161.649C0.558516 161.481 0.467225 161.181 0.585767 161.049C0.781974 160.835 0.625281 160.654 0.499926 160.427C0.431799 160.304 0.363671 160.165 0.315982 160.019C0.29462 159.93 0.291837 159.837 0.307807 159.747C0.350046 159.668 0.505376 159.373 0.863727 159.392C1.02178 159.402 1.04222 159.181 1.03677 159.125C0.990444 159.004 0.60348 159.108 0.550341 159.057C0.414086 158.929 0.563966 158.883 0.423623 158.782C0.284643 158.682 0.0557351 158.098 0.0966115 157.91C0.118412 157.81 0.212428 157.787 0.283281 157.77C0.388197 157.742 0.536715 157.825 0.351408 157.415C0.232866 157.147 0.284643 157.259 0.365034 156.93C0.40591 156.767 0.490388 156.835 0.430436 156.647L0.543528 156.549C0.543528 156.549 2.32438 156.286 2.57373 156.26C3.0806 156.207 2.65548 155.516 2.65548 155.516C2.51241 154.587 2.6255 154.194 2.6146 154.072C2.55329 153.328 2.29577 153.216 1.99873 153.031C1.9306 152.99 1.83795 152.702 1.79844 152.521C1.78481 152.457 1.88019 152.31 1.94695 152.313C2.05187 152.318 2.09138 152.254 2.20584 152.315C2.2399 152.334 2.2726 152.176 2.30803 152.202C2.29849 152.122 2.35299 152.146 2.32847 152.099C2.2508 151.953 2.19221 152.06 2.11591 151.913C2.04408 151.78 1.99176 151.638 1.96058 151.49C1.95104 151.435 2.04778 151.353 2.1091 151.338C2.21129 151.314 2.26443 151.033 2.15406 150.735C2.07231 150.517 2.05868 150.528 2.00418 150.28C1.91562 149.874 1.96058 149.623 2.11727 149.47C2.30122 149.29 2.28078 149.109 2.0546 148.758C2.03552 148.728 2.01644 148.692 1.99601 148.67C1.90063 148.566 1.79844 148.474 1.80661 148.233C1.81751 147.952 2.01644 147.752 2.10228 147.772C2.16769 147.786 2.20175 147.634 2.20993 147.584C2.25625 147.274 2.24399 147.369 2.1636 147.204C2.07231 147.015 1.8652 147.02 1.68943 146.999C1.34334 146.956 1.38558 146.821 1.19891 146.575C1.03541 146.357 0.982269 146.275 1.11716 146.088C1.15395 146.041 1.37332 145.998 1.436 146.007C1.57225 146.023 1.52048 145.914 1.53546 145.65C1.53955 145.579 1.56271 145.519 1.57907 145.46C1.71532 145.019 1.7126 145.02 1.5559 144.347C1.44417 143.865 1.36515 143.421 1.54909 143.093C1.67036 142.875 1.58179 142.164 1.74257 142.126C1.83795 142.102 1.8434 141.826 1.86656 141.679C1.88428 141.58 1.90063 141.542 1.95513 141.536C1.99056 141.532 2.03007 141.428 2.05051 141.367C2.09138 141.239 1.87883 141.029 1.8325 140.926C1.75369 140.747 1.66685 140.572 1.57225 140.401C1.44145 140.169 1.34062 139.98 1.53683 139.893C1.67036 139.834 1.6322 139.548 1.54228 139.421C1.33789 139.138 1.29566 138.799 1.22344 138.454C1.21526 138.413 1.20028 138.371 1.19619 138.331C1.17984 138.115 0.948205 137.929 1.05176 137.733C1.10626 137.63 1.24524 137.698 1.32563 137.631C1.47551 137.507 1.7998 137.323 1.6322 137.188C1.58043 137.147 1.64174 136.897 1.60087 136.838C1.48641 136.665 1.44281 136.527 1.31882 136.417C1.1049 136.229 1.20164 136.316 1.04631 135.962L1.01633 135.775C0.95638 135.58 1.19346 135.567 1.19346 135.567L3.47437 135.281C3.47437 135.281 9.49139 134.637 15.1787 134.069C15.1787 134.069 19.532 133.64 37.8024 131.773C37.8024 131.773 45.5226 131.096 54.3247 129.905C54.3247 129.905 62.0218 128.977 77.8859 127.687C77.8859 127.687 88.7128 126.568 96.5024 125.613C96.5024 125.613 99.3584 125.166 101.35 126.161C101.35 126.161 114.053 131.542 118.543 133.256L139.871 142.479C140.415 142.773 140.059 143.01 140.059 143.01C140.024 143.062 139.957 143.085 139.902 143.115C139.803 143.171 139.612 143.252 139.614 143.272C139.641 143.512 139.649 143.791 139.755 143.964C139.949 144.283 139.844 144.209 140.041 144.526C140.164 144.729 140.01 145.223 139.882 145.571C139.792 145.812 138.86 146.131 138.972 146.294C139.158 146.564 139.363 146.813 139.537 147.095C139.598 147.216 139.617 147.353 139.592 147.485C139.574 147.574 139.453 147.67 139.367 147.708C139.066 147.843 139.053 147.849 139.163 148.189C139.203 148.319 139.272 148.429 139.321 148.553C139.43 148.826 138.425 149.169 138.323 149.507C138.279 149.668 138.257 149.835 138.258 150.002C138.258 150.109 138.24 150.255 138.214 150.408C138.219 150.441 138.221 150.474 138.222 150.507C138.225 150.548 138.219 150.589 138.205 150.627C138.191 150.665 138.169 150.7 138.141 150.729C138.11 150.849 138.055 150.962 137.98 151.06C137.977 151.235 137.976 151.409 137.97 151.585C137.97 151.648 137.953 151.709 137.919 151.762C137.886 151.815 137.838 151.857 137.781 151.883C137.748 151.898 137.715 151.917 137.681 151.92C137.504 151.941 137.439 152.175 137.308 152.283L137.365 152.371C137.428 152.471 137.44 152.535 137.375 152.585C137.224 152.704 137.199 152.927 137.089 153.076C136.94 153.27 136.989 153.491 136.98 153.705C136.976 153.772 136.966 153.837 136.959 153.903C136.957 153.955 136.942 154.006 136.914 154.051C136.887 154.096 136.848 154.133 136.803 154.159C136.674 154.23 136.541 154.281 136.41 154.345C136.318 154.392 136.251 154.544 136.268 154.675C136.283 154.776 136.307 154.873 136.331 154.967C136.384 155.081 136.44 155.193 136.504 155.297C136.653 155.534 136.695 155.782 136.482 156.027C136.342 156.19 136.349 156.294 136.452 156.436C136.523 156.528 136.576 156.632 136.608 156.744C136.721 157.182 136.645 157.293 136.273 157.248C135.937 157.207 135.853 157.245 135.744 157.671C135.64 158.075 135.505 158.301 135.147 158.286C134.956 158.278 134.734 158.368 134.643 158.681C134.552 159.001 134.606 159.395 134.855 159.527C135.177 159.699 135.012 160.091 135.101 160.364C135.101 160.369 135.026 160.447 135.007 160.437C134.958 160.412 134.925 160.342 134.876 160.318C134.813 160.286 134.74 160.282 134.672 160.266C134.676 160.365 134.652 160.492 134.689 160.557C134.806 160.763 134.809 160.898 134.662 161.168C134.49 161.488 134.304 161.92 134.643 162.252C134.693 162.303 134.667 162.541 134.617 162.658C134.583 162.739 134.445 162.784 134.354 162.797C134.255 162.811 134.156 162.756 134.054 162.761C133.962 162.763 133.866 162.807 133.771 162.831C133.785 162.945 133.776 163.077 133.82 163.165C133.888 163.308 133.981 163.435 134.079 163.543C134.257 163.735 134.253 164.011 134.028 164.086C133.663 164.209 133.801 164.405 133.873 164.631C133.914 164.754 133.947 164.889 133.948 165.024C133.948 165.099 133.877 165.25 133.839 165.254C133.549 165.287 133.249 165.611 132.964 165.34C132.921 165.299 132.832 165.326 132.765 165.324C132.776 165.438 132.752 165.6 132.803 165.656C132.936 165.803 133.103 165.901 133.252 166.024C133.402 166.148 133.462 166.702 133.321 166.846C133.246 166.923 133.106 166.914 133 166.91C132.843 166.903 132.674 166.788 132.748 167.185C132.795 167.444 132.72 167.716 132.423 167.723C132.181 167.73 132.156 167.996 132.156 168.17C132.156 168.558 132.017 168.791 131.742 168.953C131.602 169.035 131.43 169.11 131.704 169.267C131.953 169.411 132.061 169.667 132.004 170.103C131.955 170.458 131.9 170.903 132.231 171.143C132.308 171.198 132.306 171.463 132.282 171.625C132.273 171.684 132.075 171.778 131.985 171.758C131.842 171.722 131.719 171.608 131.587 171.522C131.547 171.496 131.512 171.46 131.474 171.431C131.45 171.499 131.396 171.586 131.411 171.634C131.452 171.777 131.535 171.896 131.574 172.041C131.609 172.164 131.632 172.313 131.602 172.439C131.591 172.488 131.421 172.527 131.329 172.522C131.177 172.514 131.091 172.495 131.113 172.774C131.129 172.98 131.042 173.213 131.008 173.435C130.95 173.8 130.777 173.996 130.495 174.078C130.161 174.173 130.107 174.33 130.265 174.69C130.279 174.721 130.291 174.754 130.309 174.78C130.397 174.894 130.495 174.999 130.377 175.199C130.239 175.431 130.161 175.233 130.051 175.193C129.969 175.161 129.792 175.179 129.779 175.221C129.72 175.408 129.652 175.638 129.69 175.799C129.735 175.983 129.881 176.119 129.995 176.262C130.176 176.49 130.396 176.678 130.546 176.937C130.677 177.165 130.591 177.291 130.345 177.283C130.259 177.28 130.174 177.266 130.091 177.242C129.909 177.187 129.75 177.215 129.612 177.43C129.574 177.49 129.52 177.532 129.468 177.576C129.085 177.905 129.091 177.905 129.009 178.512C128.952 178.945 128.863 179.339 128.465 179.558C128.201 179.704 128.011 180.324 127.77 180.309C127.627 180.301 127.498 180.53 127.401 180.644C127.333 180.723 127.293 180.75 127.214 180.739C127.164 180.731 127.103 180.651 127.048 180.696C126.935 180.791 127.097 181.184 127.116 181.283C127.149 181.462 127.188 181.629 127.244 181.797C127.323 182.028 127.381 182.214 127.07 182.23C126.859 182.241 126.784 182.489 126.853 182.621C127.011 182.917 126.921 183.212 126.867 183.52C126.861 183.557 126.864 183.597 126.851 183.629C126.781 183.815 127.019 184.038 126.791 184.17C126.668 184.241 126.506 184.146 126.365 184.177C126.098 184.241 125.836 184.325 125.582 184.429C125.549 184.443 125.503 184.653 125.532 184.715C125.615 184.891 125.716 185.063 125.84 185.192C126.052 185.41 126.186 185.687 126.241 186.028C126.282 186.284 126.255 186.519 126.048 186.731C125.699 187.085 125.804 187.582 125.804 187.582Z" fill="#00FFD0"/>
</g>
<path fill-rule="evenodd" clip-rule="evenodd" d="M54.8255 149.95C53.2995 148.655 51.2625 147.943 49.0892 147.943C45.1896 147.943 42.1211 149.7 40.8976 152.577C39.599 149.176 36.4788 147.944 33.8791 147.944C30.9932 147.944 28.6101 149.191 27.3702 151.316L26.7025 148.598H22.7825V174.636H27.5854V158.62C27.5854 154.784 29.771 152.305 33.1528 152.305C36.0632 152.305 37.7323 154.093 37.7323 157.208V174.639H42.5353V158.618C42.5353 154.783 44.7209 152.304 48.1027 152.304C51.0131 152.304 52.6822 154.092 52.6822 157.207V174.638H57.4852V156.046C57.4852 153.533 56.5655 151.425 54.8255 149.95ZM92.1975 149.948C90.6715 148.654 88.6358 147.941 86.4612 147.941C82.5616 147.941 79.4945 149.699 78.2709 152.575C76.9724 149.174 73.8522 147.943 71.2524 147.943C68.3652 147.943 65.9835 149.189 64.7422 151.315L64.0759 148.597H60.1558V174.635H64.9588V158.62C64.9588 154.784 67.143 152.305 70.5248 152.305C73.4352 152.305 75.1057 154.093 75.1057 157.208V174.639H79.9087V158.618C79.9087 154.783 82.0929 152.304 85.4747 152.304C88.3865 152.304 90.0556 154.092 90.0556 157.207V174.638H94.8586V156.046C94.8586 153.533 93.9389 151.424 92.1975 149.948ZM111.593 171.336C107.615 171.336 103.587 168.115 103.587 161.956C103.587 156.551 106.953 152.627 111.593 152.627C116.174 152.627 119.5 156.551 119.5 161.956C119.5 168.115 115.522 171.336 111.593 171.336ZM111.543 147.941C107.814 147.941 104.61 149.371 102.278 152.074C100.076 154.626 98.8631 158.136 98.8631 161.956C98.8631 165.796 100.076 169.313 102.278 171.858C104.605 174.549 107.81 175.97 111.543 175.97C118.89 175.97 124.223 170.077 124.223 161.956C124.223 153.836 118.89 147.941 111.543 147.941ZM13.4395 141.778V174.636H18.7779V139.932L13.4395 141.778ZM271.37 169.952C272.1 169.396 272.839 168.841 273.577 168.29C280.394 163.185 287.441 157.908 287.441 150.195C287.441 144.153 282.956 139.933 276.534 139.933C270.893 139.933 264.823 143.603 264.823 151.662C264.823 152.051 264.85 152.483 264.891 152.752L269.49 151.026C269.49 146.594 272.883 144.275 276.233 144.275C279.49 144.275 282.773 146.287 282.773 150.782C282.773 156.603 276.662 161.161 268.204 167.468C266.947 168.402 265.695 169.341 264.447 170.286L264.371 170.343V174.635H288.396V169.952H271.37ZM156.534 155.528L156.108 155.367C152.236 153.893 149.494 152.596 149.494 149.317C149.494 146.088 152.215 144.399 154.901 144.399C157.067 144.399 159.815 145.489 160.886 147.872L165.445 146.196L165.377 146.035C163.583 141.821 158.849 139.933 154.954 139.933C149.851 139.933 144.36 142.976 144.36 149.658C144.36 156.182 149.647 158.215 153.892 159.849L154.413 160.049C158.751 161.741 161.594 163.101 161.594 166.441C161.594 169.906 158.517 171.455 155.468 171.455C152.454 171.455 148.854 169.936 147.792 165.668L147.745 165.479L142.909 167.213C144.367 172.546 149.174 175.97 155.262 175.97C158.322 175.97 161.171 175.087 163.284 173.485C165.672 171.673 166.935 169.085 166.935 166.003C166.935 159.449 161.411 157.366 156.534 155.528ZM214.336 161.956C214.336 168.164 210.324 171.413 206.36 171.413C202.346 171.413 198.283 168.164 198.283 161.956C198.283 156.506 201.68 152.552 206.36 152.552C210.982 152.552 214.336 156.508 214.336 161.956ZM206.311 147.941C198.963 147.941 193.63 153.836 193.63 161.956C193.63 170.077 198.963 175.97 206.31 175.97C213.657 175.97 218.99 170.077 218.99 161.956C218.99 153.836 213.657 147.941 206.31 147.941M239.73 164.27C239.73 169.08 236.189 171.673 232.858 171.673C230.323 171.673 227.613 170.167 227.613 165.942V149.278H222.994V165.943C222.994 173.346 227.815 175.972 231.942 175.972C235.263 175.972 238.188 174.39 239.706 171.808L240.587 175.364H244.349V149.278H239.73V164.27ZM255.334 142.603L251.064 144.337V149.873H247.019V153.976H251.064V167.95C251.064 174.929 254.833 175.97 257.08 175.97C258.077 175.97 259.11 175.807 260.234 175.469L260.366 175.428V170.966L260.084 171.158C259.425 171.603 258.653 171.87 258.02 171.87C256.314 171.87 255.336 170.568 255.336 168.299V153.979H260.366V149.873H255.334V142.603Z" fill="#333333"/>
<path fill-rule="evenodd" clip-rule="evenodd" d="M308.849 161.438V151.066L304.021 152.847V161.438H293.186L306.399 139.935H301.039L287.062 162.622V166.096H304.021V174.638H308.849V166.096H315.092V161.438H308.849ZM189.341 167.238C187.963 169.793 185.388 171.361 182.494 171.361C178.48 171.361 174.431 168.437 174.431 161.905C174.431 157.402 176.856 152.554 182.182 152.554C183.468 152.546 184.731 152.89 185.835 153.548C186.939 154.206 187.843 155.153 188.449 156.287L192.949 154.566L192.867 154.394C190.999 150.416 186.903 147.943 182.182 147.943C178.858 147.943 175.778 149.179 173.512 151.421C170.956 153.953 169.604 157.596 169.604 161.958C169.604 171.587 176.179 175.972 182.286 175.972C187.033 175.972 191.239 173.39 193.54 169.064L193.63 168.892L193.591 168.874L189.341 167.239V167.238Z" fill="#333333"/>
</svg>
