<svg width="316" height="315" viewBox="0 0 316 315" fill="none" xmlns="http://www.w3.org/2000/svg">
<path fill-rule="evenodd" clip-rule="evenodd" d="M42.228 114.647C41.1568 114.682 39.1697 114.811 36.5177 115.016C35.9766 115.058 35.1591 115.145 34.7023 115.208C34.2446 115.272 33.7941 115.296 33.7012 115.26C33.6082 115.224 32.5938 115.343 31.4478 115.525C30.3018 115.706 29.0684 115.89 28.7076 115.933C28.3461 115.975 27.7263 116.093 27.3293 116.193C26.9315 116.294 26.3408 116.41 26.0163 116.453C25.1507 116.567 23.5227 116.969 23.5227 117.069C23.5219 117.116 23.4046 117.124 23.2612 117.087C23.1187 117.049 22.8965 117.063 22.769 117.118C22.6421 117.173 22.4492 117.236 22.3405 117.256C21.9931 117.322 20.5998 117.726 19.5184 118.074C18.9411 118.26 18.4095 118.419 18.337 118.427C18.2118 118.441 18.0038 118.515 17.4178 118.754C16.8523 118.987 16.6263 119.057 16.5286 119.037C16.4727 119.024 16.1947 119.134 15.9103 119.279C15.626 119.424 15.3031 119.542 15.192 119.542C15.0802 119.542 14.9896 119.601 14.9896 119.673C14.9896 119.746 14.8951 119.805 14.7801 119.805C14.6651 119.805 14.4075 119.921 14.2075 120.063C14.0074 120.206 13.8034 120.281 13.7546 120.233C13.5222 119.999 13.753 148.054 13.9948 149.472C14.1248 150.23 14.2476 151.076 14.2689 151.352C14.3177 151.994 14.8139 154.033 15.17 155.051C15.3212 155.484 15.4535 155.883 15.463 155.937C15.4732 155.991 15.4937 156.05 15.5086 156.068C15.5228 156.086 15.5543 156.189 15.5779 156.298C15.6024 156.406 15.7166 156.716 15.8323 156.986C15.9481 157.257 16.0474 157.523 16.0521 157.577C16.0576 157.631 16.123 157.75 16.1986 157.84C16.2734 157.931 16.2986 158.005 16.2553 158.005C16.2112 158.005 16.2923 158.213 16.4357 158.468C16.579 158.723 16.6964 159.013 16.6964 159.114C16.6964 159.214 16.7405 159.315 16.7948 159.339C16.8484 159.363 17.1524 159.885 17.469 160.498C17.7857 161.112 18.1267 161.662 18.2267 161.721C18.3268 161.78 18.374 161.883 18.3323 161.951C18.2897 162.018 18.3181 162.074 18.3945 162.074C18.4717 162.074 18.5339 162.172 18.5339 162.291C18.5339 162.411 18.6812 162.702 18.8623 162.938C19.0427 163.175 19.19 163.409 19.19 163.459C19.19 163.538 19.587 164.054 20.1627 164.722C20.2667 164.843 20.4195 165.069 20.503 165.224C20.5864 165.38 20.7676 165.62 20.907 165.76C21.0456 165.898 21.159 166.071 21.159 166.143C21.159 166.216 21.2481 166.275 21.356 166.275C21.4646 166.275 21.5387 166.328 21.5206 166.391C21.4859 166.513 22.2901 167.493 23.1943 168.431C23.4825 168.731 23.911 169.198 24.1457 169.468C24.3804 169.738 24.5726 169.923 24.5726 169.879C24.5726 169.835 24.9735 170.202 25.4642 170.695C26.5692 171.806 28.302 173.366 28.71 173.617C28.8778 173.721 29.0778 173.942 29.1542 174.109C29.2298 174.276 29.3566 174.413 29.4346 174.413C29.5709 174.413 29.7977 174.601 30.8216 175.562C31.0713 175.796 31.3218 175.989 31.3785 175.989C31.4344 175.989 31.6116 176.166 31.7715 176.382C31.9314 176.599 32.1118 176.776 32.1724 176.776C32.2779 176.776 32.9521 177.363 34.2982 178.626C34.6511 178.958 34.963 179.206 34.9905 179.178C35.0189 179.151 35.1929 179.308 35.3772 179.527C35.5623 179.747 35.7529 179.927 35.8002 179.927C35.8482 179.927 36.0522 180.089 36.2531 180.287C36.9478 180.973 37.5456 181.502 37.6267 181.502C37.6716 181.502 37.8843 181.682 38.0993 181.902C38.3308 182.138 38.5577 182.264 38.653 182.209C38.742 182.158 38.7703 182.166 38.7152 182.226C38.6112 182.341 39.1051 182.946 39.3036 182.946C39.4351 182.946 40.0518 183.618 40.0581 183.766C40.0668 183.976 39.7675 183.848 39.3658 183.472C39.135 183.255 38.8711 183.078 38.7782 183.078C38.6861 183.077 38.5758 182.988 38.5348 182.88C38.4931 182.772 38.3789 182.683 38.2812 182.683C38.1835 182.683 37.9977 182.575 37.8685 182.444C37.7393 182.312 37.4266 182.064 37.1746 181.891C36.9218 181.719 36.6367 181.486 36.5414 181.375C36.3949 181.206 36.383 181.205 36.4681 181.37C36.524 181.479 36.3563 181.39 36.0963 181.174C35.0779 180.327 34.6329 179.986 34.3344 179.824C34.1635 179.731 34.0241 179.595 34.0241 179.521C34.0241 179.447 33.9721 179.418 33.9083 179.457C33.8453 179.497 33.6531 179.394 33.4814 179.23C33.3105 179.065 32.8498 178.704 32.4583 178.428C32.0669 178.151 31.6825 177.873 31.6053 177.811C31.5273 177.748 31.1981 177.488 30.8736 177.233C30.5483 176.978 30.1451 176.653 29.9765 176.51C29.8072 176.367 29.6339 176.251 29.5898 176.251C29.5457 176.251 29.3346 176.089 29.1211 175.89C28.9069 175.692 28.7754 175.618 28.8281 175.726C28.8809 175.834 28.8163 175.805 28.6848 175.66C28.3264 175.268 27.3293 174.507 27.3293 174.627C27.3293 174.683 27.1269 174.517 26.8804 174.255C26.6338 173.994 26.4078 173.803 26.3786 173.832C26.3495 173.861 26.1565 173.709 25.9494 173.493C25.7422 173.278 25.5201 173.1 25.4548 173.1C25.3492 173.1 25.0491 172.855 24.3032 172.16C24.1749 172.039 24.0457 171.965 24.0166 171.993C23.9882 172.022 23.6164 171.724 23.1911 171.331C22.7658 170.938 22.3964 170.638 22.3712 170.663C22.346 170.689 22.1924 170.583 22.031 170.429C21.4773 169.898 20.8991 169.425 20.8038 169.425C20.7085 169.425 20.4037 169.147 19.7563 168.473C19.5657 168.275 19.3452 168.112 19.2656 168.112C19.1868 168.112 19.0482 167.994 18.9584 167.85C18.8679 167.705 18.7277 167.587 18.6465 167.587C18.5646 167.587 18.3638 167.455 18.1999 167.292C18.0361 167.129 17.6155 166.736 17.2658 166.419C16.3096 165.55 14.6155 163.912 14.6738 163.912C14.7021 163.912 14.5391 163.735 14.3122 163.518C14.0862 163.302 13.8554 163.124 13.8011 163.124C13.7467 163.124 13.5459 162.858 13.3553 162.534C13.1655 162.208 12.9599 161.943 12.8992 161.943C12.8386 161.943 12.7559 161.818 12.7165 161.667C12.6771 161.515 12.5858 161.428 12.5141 161.472C12.4416 161.516 12.3416 161.421 12.2904 161.262C12.24 161.102 12.1274 160.899 12.0399 160.812C11.9533 160.725 11.6824 160.338 11.4382 159.953C11.194 159.567 10.9633 159.222 10.9247 159.186C10.7537 159.025 10.2977 158.269 9.9354 157.545C9.71881 157.112 9.49748 156.737 9.44235 156.713C9.38801 156.689 9.37698 156.615 9.41715 156.549C9.4581 156.483 9.42896 156.429 9.35256 156.429C9.27616 156.429 9.21394 156.322 9.21394 156.192C9.21394 156.06 9.0572 155.632 8.8666 155.239C8.67521 154.847 8.49956 154.408 8.47594 154.264C8.45231 154.119 8.31762 153.603 8.17585 153.117C8.03487 152.631 7.88916 151.981 7.85371 151.673C7.71194 150.456 7.64027 149.917 7.57647 149.603C7.35672 148.52 7.24724 145.799 7.24173 141.286L7.23464 136.152L7.59773 135.887C7.79779 135.742 7.98525 135.642 8.01439 135.667C8.04432 135.691 8.10496 135.661 8.14907 135.599C8.2365 135.477 9.33287 134.894 10.8215 134.177L11.3137 133.94V130.154C11.3137 127.717 11.2673 126.368 11.183 126.368C11.1105 126.368 11.0515 126.438 11.0515 126.521C11.0515 126.605 11.0144 126.638 10.9696 126.593C10.9247 126.548 10.6608 126.627 10.3843 126.768C10.1071 126.909 9.78969 127.024 9.67864 127.024C9.5668 127.024 9.47622 127.087 9.47622 127.164C9.47622 127.24 9.41715 127.266 9.34469 127.221C9.27301 127.177 9.21394 127.213 9.21394 127.302C9.21394 127.39 9.17771 127.426 9.1336 127.382C9.08949 127.338 8.73506 127.481 8.34598 127.701C7.95689 127.92 7.63869 128.061 7.63869 128.013C7.63869 127.965 7.46148 128.052 7.24488 128.206C7.02828 128.36 6.85107 128.449 6.85107 128.403C6.85107 128.298 5.7673 128.884 5.63891 129.06C5.58535 129.131 5.54125 129.142 5.54046 129.083C5.53888 129.024 5.37585 129.086 5.17736 129.221C4.97888 129.356 4.65359 129.535 4.45511 129.621C4.25663 129.706 4.09438 129.829 4.09438 129.894C4.09438 130.009 3.60527 130.218 3.40521 130.189C3.35086 130.181 3.30676 130.234 3.30676 130.306C3.30676 130.379 3.21776 130.438 3.10985 130.438C3.00116 130.438 2.91216 130.482 2.91216 130.536C2.91216 130.59 2.59002 130.808 2.19778 131.02C1.80476 131.232 1.51885 131.463 1.56217 131.533C1.60549 131.602 1.57635 131.62 1.49758 131.571C1.41882 131.522 1.20538 131.632 1.02343 131.813C0.841493 131.995 0.632773 132.144 0.559524 132.144C0.381521 132.144 0.487062 145.674 0.677667 147.372C0.754855 148.057 0.881662 148.973 0.960425 149.406C1.03919 149.839 1.12583 150.459 1.15339 150.785C1.18017 151.11 1.35424 151.907 1.53933 152.557C1.72442 153.207 1.89061 153.797 1.90872 153.87C2.16628 154.894 2.85939 156.542 3.10749 156.722C3.18074 156.775 3.19098 156.82 3.12954 156.821C3.06889 156.823 3.16577 157.074 3.34614 157.381C3.52572 157.688 3.67852 157.998 3.6856 158.07C3.69269 158.143 3.79351 158.313 3.91008 158.449C4.02586 158.584 4.19205 158.851 4.2779 159.04C4.53545 159.603 4.94029 160.234 5.04583 160.235C5.10018 160.236 5.14428 160.318 5.14428 160.419C5.14428 160.52 5.2325 160.636 5.34119 160.677C5.44988 160.719 5.5381 160.839 5.5381 160.943C5.5381 161.047 5.58457 161.153 5.64128 161.176C5.6972 161.201 6.02564 161.59 6.37062 162.041C6.7156 162.493 7.04325 162.861 7.09996 162.861C7.15667 162.861 7.27008 163.009 7.352 163.19C7.43391 163.37 7.59143 163.518 7.70091 163.518C7.81118 163.518 7.90097 163.576 7.90097 163.648C7.90097 163.88 9.45023 165.571 9.61878 165.522C9.67706 165.505 9.84955 165.668 10.0031 165.883C10.1559 166.098 10.3324 166.275 10.3946 166.275C10.4568 166.275 10.727 166.481 10.9948 166.734C11.2626 166.987 11.5272 167.193 11.5831 167.193C11.639 167.193 11.8816 167.372 12.1226 167.59C13.1891 168.555 13.6223 168.898 13.7751 168.899C13.8656 168.9 13.9397 168.96 13.9397 169.033C13.9397 169.107 14.146 169.265 14.3989 169.386C14.6517 169.506 14.8581 169.692 14.8581 169.799C14.8581 169.907 14.899 169.954 14.9478 169.904C14.9975 169.855 15.2338 170.004 15.4732 170.236C15.7126 170.468 15.9087 170.617 15.9087 170.567C15.9087 170.516 16.0167 170.578 16.1498 170.705C16.2821 170.831 16.5278 171.023 16.6964 171.131C16.8641 171.24 17.1107 171.432 17.243 171.558C17.3753 171.684 17.532 171.788 17.5903 171.788C17.6486 171.788 17.8116 171.891 17.9511 172.017C18.3567 172.384 19.2475 173.034 19.3436 173.034C19.3924 173.035 19.5696 173.154 19.7374 173.3C20.4336 173.902 20.9905 174.275 21.0724 174.194C21.1205 174.146 21.159 174.17 21.159 174.247C21.159 174.374 21.6474 174.743 23.1273 175.735C23.4038 175.92 23.7984 176.203 24.0032 176.363C24.7498 176.946 26.4101 178.084 26.4101 178.011C26.4101 177.971 26.5921 178.12 26.815 178.342C27.0379 178.565 27.2663 178.718 27.323 178.683C27.3805 178.648 27.6113 178.795 27.8365 179.011C28.061 179.226 28.2902 179.402 28.3453 179.402C28.3997 179.402 28.6517 179.579 28.9045 179.795C29.1566 180.012 29.4315 180.189 29.5142 180.189C29.5961 180.189 29.6993 180.282 29.7426 180.395C29.7859 180.507 29.8702 180.569 29.9292 180.532C29.9891 180.496 30.1963 180.613 30.39 180.792C30.5838 180.972 30.7421 181.085 30.7421 181.043C30.7421 181 30.9035 181.116 31.102 181.3C31.2997 181.483 31.5108 181.633 31.5707 181.633C31.6313 181.633 32.1047 181.945 32.6221 182.327C33.1404 182.709 33.7272 183.103 33.9257 183.203C34.1241 183.302 34.2864 183.426 34.2864 183.477C34.2864 183.529 34.4636 183.644 34.6802 183.733C34.8968 183.823 35.074 183.948 35.074 184.012C35.074 184.075 35.1323 184.127 35.204 184.127C35.326 184.127 35.6695 184.377 36.0641 184.751C36.1586 184.841 36.2743 184.915 36.3208 184.915C36.3665 184.915 36.5981 185.063 36.8344 185.243C37.0714 185.424 37.3061 185.572 37.3573 185.572C37.4077 185.572 37.5865 185.719 37.7535 185.899C37.9205 186.08 38.1158 186.228 38.1867 186.228C38.2568 186.228 38.4868 186.375 38.6963 186.555C38.9058 186.737 39.124 186.884 39.1807 186.884C39.2374 186.884 39.2209 187.002 39.1437 187.147C39.0665 187.291 38.931 187.409 38.8436 187.409C38.7554 187.409 38.4324 187.638 38.1261 187.919C37.8189 188.199 37.5684 188.393 37.5684 188.35C37.5684 188.305 37.4763 188.401 37.3636 188.561C37.2518 188.722 37.0746 188.853 36.9698 188.853C36.8659 188.853 36.7808 188.904 36.7808 188.967C36.7808 189.029 36.2192 189.51 35.5332 190.034C34.8472 190.559 34.2864 191.039 34.2864 191.102C34.2864 191.165 34.2226 191.216 34.1446 191.216C34.0666 191.216 33.7697 191.452 33.483 191.741C33.1971 192.03 32.9199 192.266 32.8663 192.266C32.8135 192.266 32.6718 192.37 32.552 192.496C32.4315 192.622 32.1756 192.844 31.9818 192.988C31.3572 193.453 30.6105 194.2 30.6105 194.359C30.6105 194.443 30.5601 194.482 30.4987 194.444C30.4373 194.406 30.249 194.521 30.082 194.699C29.9143 194.877 29.8324 195.025 29.8985 195.027C29.9655 195.029 29.9166 195.091 29.7906 195.165C29.6638 195.238 29.5606 195.388 29.5606 195.496C29.5606 195.605 29.5024 195.659 29.4307 195.615C29.3535 195.567 29.3362 195.626 29.3874 195.76C29.4472 195.915 29.4252 195.955 29.3173 195.888C29.2306 195.834 29.1723 195.84 29.1873 195.899C29.2023 195.959 29.1448 196.244 29.0605 196.532C28.9754 196.821 28.9053 197.84 28.9053 198.797L28.9045 200.536H44.2112H59.5179L59.4699 198.469C59.4439 197.332 59.3651 196.312 59.2958 196.205C59.2265 196.096 59.1674 195.944 59.1659 195.867C59.1611 195.689 58.5145 194.867 57.9151 194.276C56.9282 193.304 56.792 193.185 56.6652 193.185C56.5935 193.185 56.4572 193.061 56.3627 192.91C56.2674 192.759 56.1611 192.663 56.1256 192.699C56.0902 192.734 55.9279 192.637 55.7657 192.482C54.9781 191.733 54.203 191.068 53.8778 190.861C53.6793 190.735 53.4217 190.527 53.3051 190.399C53.1886 190.271 53.024 190.166 52.9405 190.166C52.8562 190.166 52.753 190.077 52.7121 189.969C52.6703 189.86 52.586 189.772 52.5246 189.772C52.4624 189.772 52.1718 189.537 51.8788 189.249C51.3747 188.754 50.695 188.557 50.695 188.903C50.695 188.972 50.6556 188.988 50.6075 188.94C50.5595 188.892 50.4264 188.932 50.3122 189.028C50.198 189.125 49.4962 189.462 48.7519 189.775C48.0084 190.089 47.3696 190.393 47.3334 190.453C47.2964 190.512 47.1522 190.56 47.012 190.56C46.8718 190.56 46.7568 190.628 46.7568 190.712C46.7568 190.797 46.7175 190.827 46.6694 190.778C46.6206 190.73 46.4583 190.769 46.3079 190.866C46.1582 190.963 45.4147 191.322 44.657 191.665C42.5052 192.637 42.1634 192.795 41.1127 193.299C40.5708 193.559 40.0983 193.778 40.062 193.784C40.0266 193.791 39.4737 194.043 38.8349 194.344C38.1962 194.645 37.6204 194.892 37.555 194.892C37.4904 194.892 37.4369 194.941 37.4369 195.001C37.4369 195.061 37.3479 195.111 37.24 195.111C36.9407 195.111 37.0053 194.921 37.3384 194.82C37.5007 194.771 37.7905 194.584 37.9827 194.405C38.1741 194.225 38.371 194.09 38.4198 194.103C38.4687 194.117 38.6805 193.975 38.8908 193.787C39.1019 193.6 39.3012 193.461 39.3358 193.48C39.3697 193.498 39.5178 193.41 39.6659 193.283C39.8131 193.157 39.9927 193.054 40.0636 193.054C40.1353 193.054 40.1936 193.004 40.1936 192.944C40.1936 192.883 40.3448 192.764 40.5291 192.681C40.7134 192.596 40.8292 192.47 40.7851 192.399C40.7394 192.325 40.7922 192.303 40.9087 192.348C41.0206 192.39 41.1127 192.367 41.1127 192.296C41.1127 192.224 41.2159 192.128 41.3419 192.082C41.6704 191.964 42.1217 191.688 42.4021 191.434C42.5344 191.314 42.6832 191.216 42.7321 191.216C42.7809 191.216 42.9928 191.063 43.2031 190.875C43.4134 190.689 43.615 190.556 43.6512 190.58C43.6875 190.605 43.8544 190.501 44.023 190.349C44.1908 190.197 44.5208 189.963 44.7555 189.828C44.9902 189.694 45.1816 189.538 45.1816 189.481C45.1816 189.425 45.2706 189.378 45.3785 189.378C45.4872 189.378 45.5754 189.319 45.5754 189.247C45.5754 189.175 45.6384 189.116 45.7156 189.116C45.8684 189.116 46.7954 188.454 46.8663 188.295C46.8907 188.241 46.9916 188.197 47.0916 188.197C47.1916 188.197 47.4673 188.029 47.7043 187.825C47.9414 187.62 48.3274 187.341 48.5621 187.206C48.7968 187.07 48.989 186.909 48.989 186.848C48.989 186.787 49.037 186.767 49.0953 186.803C49.1544 186.84 49.3678 186.726 49.571 186.552C49.7734 186.378 50.0507 186.2 50.1862 186.157C50.3216 186.114 50.4327 186.036 50.4327 185.984C50.4327 185.933 50.6249 185.78 50.8596 185.644C51.0943 185.509 51.3747 185.317 51.4826 185.219C51.5913 185.12 52.2111 184.702 52.8609 184.29C53.5107 183.878 54.1566 183.437 54.2952 183.31C54.4346 183.184 54.6559 183.046 54.7875 183.004C54.9198 182.962 55.0269 182.873 55.0269 182.805C55.0269 182.739 55.1159 182.683 55.2238 182.683C55.3325 182.683 55.4207 182.638 55.4207 182.583C55.4207 182.527 55.6869 182.336 56.0114 182.158C56.3367 181.981 56.6021 181.786 56.6021 181.726C56.6021 181.667 56.6525 181.648 56.714 181.686C56.7754 181.724 56.9377 181.654 57.0747 181.529C57.4252 181.211 59.3454 179.927 59.4699 179.927C59.5266 179.927 59.74 179.752 59.9456 179.538C60.1504 179.323 60.3646 179.177 60.4213 179.212C60.478 179.247 60.5852 179.171 60.66 179.044C60.734 178.915 60.797 178.858 60.7994 178.915C60.801 178.971 60.9301 178.9 61.0853 178.755C61.2405 178.611 61.4177 178.523 61.4791 178.561C61.5405 178.599 61.591 178.537 61.591 178.425C61.591 178.312 61.6351 178.233 61.6894 178.247C61.8501 178.292 62.5566 177.875 62.8259 177.577C62.963 177.425 63.1276 177.302 63.1922 177.302C63.256 177.302 63.3797 177.243 63.4671 177.172C64.2523 176.531 64.4792 176.375 64.4823 176.469C64.4847 176.53 64.5477 176.475 64.6217 176.347C64.6966 176.219 64.8131 176.148 64.8809 176.19C64.9486 176.233 65.0037 176.218 65.0037 176.159C65.0037 176.099 65.24 175.904 65.5291 175.726C65.8173 175.548 66.0536 175.356 66.0536 175.301C66.0536 175.246 66.0985 175.215 66.1521 175.232C66.2663 175.268 67.5163 174.433 67.6596 174.225C67.7132 174.148 67.7573 174.129 67.758 174.183C67.7604 174.273 68.0889 174.037 68.4874 173.659C68.5827 173.568 68.6969 173.494 68.741 173.494C68.8568 173.494 69.5901 172.963 70.054 172.544C70.2721 172.345 70.5108 172.181 70.5825 172.18C70.6549 172.178 70.9495 171.971 71.2378 171.72C71.526 171.468 71.8316 171.263 71.9175 171.263C72.0033 171.263 72.1892 171.116 72.3318 170.934C72.4736 170.754 72.646 170.607 72.7154 170.607C72.7847 170.607 73.0013 170.459 73.1958 170.278C73.3904 170.098 73.5975 169.95 73.655 169.95C73.7125 169.95 73.9456 169.773 74.1732 169.555C74.4009 169.338 74.5868 169.202 74.5868 169.252C74.5868 169.302 74.6986 169.228 74.8364 169.089C74.9735 168.949 75.2838 168.687 75.5256 168.507C75.7674 168.327 76.1218 168.016 76.3132 167.818C76.5046 167.618 76.7244 167.456 76.8023 167.456C76.8795 167.456 77.0402 167.308 77.1583 167.128C77.2765 166.947 77.434 166.799 77.5073 166.799C77.5813 166.799 77.7695 166.667 77.9271 166.504C78.0838 166.342 78.5635 165.885 78.9919 165.49C79.4212 165.093 79.7567 164.722 79.7378 164.665C79.7189 164.607 79.7922 164.526 79.9009 164.485C80.0096 164.444 80.0647 164.355 80.0237 164.288C79.9828 164.222 80.0017 164.184 80.0655 164.204C80.2033 164.247 81.0185 163.505 81.0185 163.337C81.0185 163.272 81.154 163.095 81.3202 162.942C81.4856 162.79 81.8526 162.369 82.1361 162.008C82.4189 161.647 82.7119 161.309 82.7867 161.255C82.8607 161.202 82.8749 161.158 82.8174 161.157C82.7591 161.156 82.8923 160.963 83.112 160.728C83.3317 160.494 83.5121 160.232 83.5121 160.147C83.5129 160.062 83.5925 159.913 83.6893 159.816C83.9571 159.548 84.6235 158.477 84.5912 158.365C84.5754 158.311 84.6321 158.267 84.7164 158.267C84.8007 158.267 84.8306 158.228 84.7825 158.18C84.7345 158.132 84.8464 157.896 85.0299 157.655C85.2134 157.414 85.3299 157.217 85.2874 157.217C85.2457 157.217 85.3922 156.892 85.6135 156.495C85.834 156.098 85.9821 155.773 85.9419 155.773C85.9018 155.773 85.9608 155.595 86.0727 155.379C86.3562 154.831 87.188 152.142 87.2486 151.578C87.2762 151.322 87.3967 150.67 87.5164 150.128C87.6361 149.587 87.7424 148.775 87.7519 148.323C87.7621 147.872 87.8102 147.503 87.8582 147.503C87.9071 147.503 87.9559 144.072 87.9677 139.879L87.989 132.255L87.5558 131.874C87.3179 131.663 87.0722 131.491 87.0107 131.49C86.9485 131.489 86.7193 131.337 86.4996 131.152C86.2656 130.955 86.016 130.85 85.8939 130.897C85.7805 130.94 85.7277 130.936 85.7765 130.887C85.8789 130.784 85.3851 130.367 84.7762 130.042C84.551 129.921 84.0414 129.651 83.6444 129.442C83.2467 129.231 82.8923 129.026 82.8568 128.984C82.7623 128.876 82.2834 128.685 82.1676 128.711C82.1133 128.722 82.0692 128.678 82.0692 128.613C82.0692 128.548 81.7738 128.388 81.4123 128.258C81.0516 128.129 80.7562 127.965 80.7562 127.895C80.7562 127.825 80.7208 127.803 80.6782 127.847C80.6349 127.889 80.3474 127.784 80.0387 127.611C79.7299 127.439 79.4401 127.335 79.3944 127.38C79.3495 127.425 79.3125 127.39 79.3125 127.302C79.3125 127.213 79.2534 127.177 79.181 127.221C79.1085 127.266 79.0494 127.24 79.0494 127.164C79.0494 127.087 78.9589 127.024 78.8486 127.024C78.7375 127.024 78.365 126.882 78.0192 126.706C77.0473 126.214 77.0717 126.118 77.1111 130.25L77.1465 133.916L78.3933 134.537C79.0794 134.878 79.7559 135.247 79.8969 135.357C80.0379 135.467 80.2222 135.557 80.3057 135.557C80.39 135.557 80.6058 135.673 80.7869 135.816C80.9673 135.958 81.1524 136.036 81.1981 135.991C81.2579 135.931 81.3375 141.647 81.3115 144.09C81.2823 146.866 80.7476 151.102 80.1939 152.951C80.0418 153.456 79.9111 153.929 79.9024 154C79.8544 154.401 79.5039 155.379 79.4086 155.379C79.3472 155.379 79.333 155.438 79.3779 155.51C79.4228 155.583 79.3968 155.642 79.3204 155.642C79.2432 155.642 79.181 155.715 79.1802 155.806C79.1802 156.11 77.7436 158.792 77.5813 158.792C77.5222 158.792 77.4742 158.855 77.4742 158.932C77.4742 159.051 77.2214 159.43 76.6212 160.209C76.5487 160.303 76.3432 160.524 76.1628 160.702C75.9832 160.879 75.8737 161.024 75.9186 161.024C75.9643 161.024 75.7453 161.283 75.4334 161.6C75.1208 161.918 74.8908 162.203 74.9223 162.234C74.9538 162.267 74.8325 162.371 74.6521 162.467C74.4718 162.564 74.3237 162.69 74.3237 162.745C74.3237 162.879 71.63 165.618 71.4985 165.618C71.4426 165.618 71.1842 165.838 70.9243 166.105C70.6644 166.373 70.5344 166.541 70.636 166.479C70.7621 166.402 70.7904 166.413 70.7266 166.517C70.6754 166.6 70.5612 166.669 70.473 166.669C70.3848 166.669 70.1446 166.86 69.939 167.095C69.7326 167.329 69.5365 167.5 69.5026 167.474C69.468 167.448 69.0466 167.779 68.5646 168.21C68.0833 168.642 67.0996 169.465 66.3789 170.04C65.659 170.615 64.988 171.184 64.8895 171.305C64.7903 171.427 64.6296 171.525 64.5327 171.525C64.4359 171.525 64.2933 171.643 64.2161 171.788C64.1389 171.932 64.0034 172.05 63.9152 172.05C63.8262 172.05 63.6805 172.169 63.5899 172.313C63.5002 172.458 63.3655 172.576 63.2906 172.576C63.1394 172.576 61.55 173.86 61.4815 174.038C61.4571 174.1 61.3539 174.151 61.2515 174.151C61.1491 174.151 61.0656 174.21 61.0656 174.282C61.0656 174.354 60.9876 174.413 60.8923 174.413C60.797 174.413 60.5985 174.546 60.4505 174.709C60.3032 174.871 59.9913 175.152 59.7574 175.332C59.5234 175.513 59.2533 175.734 59.158 175.825C59.0619 175.915 58.9359 175.989 58.876 175.989C58.8169 175.989 58.5318 176.193 58.2435 176.444C57.5252 177.066 57.5544 177.043 56.6683 177.695C56.2351 178.014 55.7334 178.41 55.5538 178.575C55.3734 178.741 55.1568 178.877 55.0726 178.877C54.9875 178.877 54.8977 178.924 54.8741 178.982C54.8497 179.041 54.4756 179.351 54.0424 179.671C53.6092 179.991 53.2075 180.328 53.15 180.418C53.0925 180.509 52.9696 180.583 52.8775 180.583C52.7853 180.583 52.5711 180.731 52.4017 180.911C52.2324 181.092 52.0284 181.24 51.9489 181.24C51.8693 181.24 51.7063 181.343 51.5865 181.469C51.2849 181.789 50.9848 182.027 50.8832 182.027C50.7777 182.027 49.4647 183.105 49.404 183.241C49.3804 183.295 49.2859 183.339 49.1937 183.339C49.1024 183.339 48.8732 183.482 48.6857 183.656C48.3778 183.941 48.3282 183.951 48.1746 183.762C48.0344 183.589 48.0352 183.57 48.1769 183.656C48.2935 183.726 48.3738 183.669 48.4219 183.484C48.462 183.332 48.5715 183.209 48.6653 183.209C48.7598 183.209 49.1024 182.943 49.4277 182.618C49.7522 182.293 50.0806 182.027 50.157 182.027C50.2326 182.027 50.3925 181.879 50.5107 181.699C50.6288 181.518 50.7926 181.37 50.8745 181.368C51.0045 181.365 51.6236 180.843 52.9649 179.608C53.1665 179.423 53.3878 179.271 53.4572 179.271C53.5265 179.271 53.5832 179.18 53.5832 179.071C53.5832 178.96 53.7163 178.818 53.8785 178.754C54.2393 178.612 54.6441 178.147 54.5244 178.014C54.4756 177.959 54.5141 177.961 54.6095 178.015C54.7166 178.077 54.9158 177.986 55.134 177.775C55.5003 177.422 55.705 177.241 56.8565 176.251C57.2354 175.926 57.7269 175.498 57.9506 175.299C58.1735 175.101 58.4003 174.939 58.4546 174.939C58.509 174.939 58.587 174.833 58.6279 174.704C58.6689 174.576 58.876 174.368 59.0887 174.242C59.3013 174.116 59.7109 173.793 60 173.524C60.289 173.256 60.834 172.769 61.2113 172.444C61.5894 172.119 62.021 171.728 62.1714 171.575C62.3211 171.422 62.7007 171.082 63.0142 170.82C63.3277 170.558 63.5411 170.344 63.4891 170.344C63.4364 170.344 63.5466 170.223 63.7349 170.075C64.1846 169.721 65.2668 168.638 65.1699 168.638C65.129 168.638 65.3109 168.428 65.574 168.171C65.8378 167.915 66.0536 167.683 66.0536 167.655C66.0536 167.627 66.3049 167.328 66.6121 166.991C66.9184 166.654 67.1697 166.336 67.1697 166.285C67.1697 166.234 67.3178 166.047 67.4981 165.871C67.6785 165.695 67.8849 165.457 67.9573 165.343C68.1085 165.104 68.6906 164.282 69.2931 163.457C69.5223 163.142 69.6743 162.85 69.6318 162.808C69.5893 162.765 69.6098 162.73 69.6775 162.73C69.7452 162.73 69.9469 162.449 70.1256 162.107C70.3052 161.764 70.5549 161.342 70.6809 161.17C70.8077 160.998 70.9109 160.746 70.9109 160.613C70.9109 160.478 70.9621 160.368 71.0243 160.368C71.1929 160.368 71.9025 158.874 71.8505 158.628C71.8395 158.574 71.8923 158.529 71.9687 158.529C72.0451 158.529 72.0742 158.476 72.0333 158.41C71.9931 158.343 72.0191 158.269 72.0931 158.245C72.1664 158.221 72.2499 158.08 72.2782 157.931C72.3066 157.783 72.4326 157.429 72.5586 157.144C72.6846 156.86 72.802 156.556 72.8209 156.471C72.839 156.385 73.006 155.854 73.1919 155.29C73.681 153.804 74.1953 151.813 74.1205 151.693C74.085 151.636 74.1205 151.305 74.1992 150.957C74.4978 149.635 74.7088 147.362 74.6285 146.324C74.571 145.572 74.5907 145.271 74.6986 145.271C74.8104 145.271 74.849 142.084 74.849 132.735C74.849 121.808 74.8246 120.199 74.6569 120.199C74.5505 120.199 74.2701 120.117 74.0331 120.018C73.0729 119.614 71.4559 119.031 70.714 118.82C70.2808 118.697 69.8382 118.564 69.7295 118.524C69.6208 118.485 69.4144 118.431 69.2703 118.403C69.1254 118.376 68.6969 118.238 68.3181 118.097C67.9384 117.955 67.599 117.838 67.5627 117.837C67.5273 117.837 67.4832 117.83 67.4651 117.822C67.4469 117.814 67.2847 117.797 67.1043 117.785C66.924 117.772 66.3868 117.629 65.9111 117.466C65.4361 117.305 64.8746 117.149 64.6643 117.12C64.454 117.091 63.8979 116.965 63.4285 116.839C62.9591 116.713 62.4274 116.598 62.247 116.586C62.0667 116.572 61.8304 116.53 61.7217 116.491C61.3956 116.372 59.4659 115.985 58.8343 115.912C58.509 115.874 57.4756 115.706 56.5368 115.538C55.5979 115.371 54.5937 115.232 54.3054 115.23C54.0164 115.227 52.9822 115.134 52.0079 115.022C51.0328 114.909 49.1725 114.759 47.8729 114.688C45.6132 114.565 44.887 114.559 42.228 114.647ZM50.0389 123.788C50.7926 123.834 52.2387 124.133 52.7956 124.359C52.9035 124.402 53.0822 124.457 53.1917 124.479C53.4627 124.534 55.2734 125.405 55.6964 125.684C56.5887 126.271 56.8447 126.48 57.4559 127.116C58.3373 128.035 58.5712 128.318 58.5712 128.463C58.5712 128.531 58.6547 128.634 58.7563 128.692C58.8579 128.749 59.1446 129.194 59.3935 129.68C59.6416 130.166 59.8739 130.536 59.9086 130.501C59.9432 130.466 59.9748 130.511 59.9787 130.602C59.9921 130.912 60.148 131.606 60.2874 131.973C60.723 133.118 60.7781 157.273 60.3481 158.464C60.2961 158.608 60.1858 158.903 60.1031 159.12C60.0204 159.337 59.9448 159.559 59.9346 159.612C59.9251 159.667 59.9023 159.741 59.8842 159.777C59.8661 159.812 59.8424 159.886 59.8314 159.941C59.7786 160.206 59.0524 161.547 58.8351 161.78C58.6988 161.926 58.6177 162.077 58.6555 162.114C58.6925 162.152 58.1868 162.726 57.5315 163.391C56.8762 164.055 56.3399 164.56 56.3399 164.513C56.3399 164.433 56.2036 164.529 55.7712 164.911C55.6798 164.993 55.4656 165.103 55.2939 165.157C55.1222 165.212 54.8646 165.365 54.7221 165.498C54.5795 165.631 54.4125 165.709 54.3511 165.671C54.2897 165.634 54.2393 165.665 54.2393 165.742C54.2393 165.818 54.1069 165.883 53.9439 165.885C53.7817 165.887 53.5343 165.975 53.3941 166.082C53.254 166.188 53.0287 166.275 52.894 166.275C52.742 166.275 52.6845 166.332 52.7428 166.426C52.7956 166.513 52.779 166.543 52.7034 166.495C52.6302 166.45 52.1859 166.524 51.7157 166.658C51.2463 166.792 50.4256 166.94 49.8924 166.986C49.3591 167.032 48.7243 167.106 48.4825 167.149C48.2399 167.192 47.7674 167.241 47.4318 167.257C46.3536 167.308 28.7297 167.325 28.6801 167.275C28.6281 167.224 30.0064 165.718 31.0571 164.679C31.4108 164.329 31.6486 164.043 31.5856 164.043C31.5226 164.043 31.6029 163.951 31.7628 163.839L32.055 163.634V145.463V127.29L31.5297 126.797C31.2414 126.525 31.0051 126.254 31.0051 126.195C31.0044 126.072 30.0915 125.187 29.9647 125.187C29.9182 125.187 29.7804 125.018 29.6591 124.813C29.537 124.607 29.244 124.248 29.0069 124.014L28.5761 123.59L38.8806 123.663C44.5483 123.704 49.5694 123.76 50.0389 123.788ZM41.9003 145.287V159.611L44.7555 159.552C47.7721 159.49 48.1872 159.414 48.8244 158.803C48.9874 158.647 49.1197 158.56 49.1197 158.61C49.1197 158.869 49.7096 158.112 50.0483 157.419L50.4358 156.626L50.4303 144.999C50.424 131.916 50.5398 133.289 49.3442 132.119C48.9898 131.772 48.6519 131.518 48.5928 131.555C48.5345 131.591 48.466 131.576 48.4424 131.522C48.2722 131.138 47.0231 130.962 44.4924 130.962H41.9003V145.287ZM245.092 135.743C245.065 135.768 243.269 135.824 241.103 135.867C238.191 135.924 236.738 136.01 235.525 136.198C234.623 136.337 233.854 136.432 233.816 136.41C233.778 136.386 233.217 136.481 232.568 136.621C231.92 136.762 231.3 136.895 231.192 136.918C231.018 136.955 230.992 139.45 230.962 158.247L230.929 179.533H235.984H241.038V162.287V145.041L241.465 144.944C242.164 144.783 245.678 144.755 245.865 144.909C245.957 144.984 246.068 145.01 246.111 144.967C246.327 144.751 248.126 146.03 248.126 146.401C248.126 146.501 248.185 146.584 248.258 146.584C248.33 146.584 248.378 146.628 248.365 146.683C248.352 146.736 248.411 147.017 248.496 147.306C248.61 147.696 248.65 151.917 248.651 163.682L248.652 179.533H253.118H257.583L257.575 162.638L257.566 145.744L258.589 145.431C261.409 144.569 264.371 145.236 264.748 146.817C264.796 147.013 264.869 147.234 264.912 147.306C264.956 147.378 264.999 147.481 265.009 147.536C265.019 147.59 265.035 154.811 265.044 163.583L265.06 179.533H270.184H275.306L275.266 162.107C275.228 146.285 275.203 144.608 275.004 143.893C274.883 143.46 274.78 142.958 274.775 142.777C274.769 142.596 274.651 142.213 274.512 141.924C274.372 141.635 274.256 141.343 274.253 141.275C274.248 141.123 273.566 140.103 273.429 140.042C273.374 140.019 273.33 139.939 273.33 139.867C273.33 139.757 272.651 139.074 271.656 138.183C271.301 137.864 270.254 137.209 270.147 137.237C270.093 137.252 270.048 137.209 270.048 137.143C270.048 137.077 269.872 136.983 269.656 136.936C269.44 136.888 269.23 136.795 269.189 136.729C269.148 136.662 268.982 136.607 268.82 136.607C268.658 136.607 268.47 136.559 268.401 136.5C268.268 136.385 267.256 136.121 266.504 136.006C265.545 135.858 264.311 135.828 259.875 135.845C259.273 135.847 257.698 136.084 257.184 136.248C256.931 136.329 256.593 136.38 256.431 136.361C256.27 136.342 256.065 136.372 255.974 136.428C255.884 136.484 255.721 136.54 255.611 136.555C255.291 136.596 253.061 137.41 252.93 137.534C252.862 137.597 252.663 137.541 252.471 137.405C252.058 137.115 250.796 136.563 250.541 136.563C250.44 136.563 250.358 136.527 250.358 136.482C250.358 136.438 250.255 136.395 250.129 136.387C250.002 136.38 249.456 136.274 248.914 136.154C248.373 136.032 247.349 135.909 246.639 135.878C245.93 135.847 245.303 135.794 245.247 135.759C245.19 135.724 245.121 135.717 245.092 135.743ZM98.651 136.608C98.6739 136.759 98.8456 137.057 99.033 137.27C99.2197 137.483 99.3465 137.657 99.3142 137.657C99.2811 137.657 99.4048 137.819 99.5883 138.017C99.7718 138.215 99.9215 138.424 99.9215 138.483C99.9215 138.54 100.066 138.743 100.243 138.934C100.419 139.125 100.534 139.329 100.498 139.388C100.461 139.447 100.486 139.496 100.553 139.496C100.62 139.496 100.83 139.73 101.02 140.018L101.366 140.54L101.365 158.1L101.364 175.66L100.938 176.115C100.704 176.365 100.512 176.603 100.512 176.643C100.512 176.683 100.373 176.863 100.202 177.042C100.031 177.22 99.8081 177.559 99.708 177.794C99.6072 178.029 99.456 178.22 99.3733 178.22C99.2898 178.22 99.2575 178.256 99.3016 178.3C99.3457 178.344 99.2079 178.527 98.9952 178.706C97.976 179.564 97.6744 179.534 107.109 179.528C116.73 179.522 119.258 179.426 120.519 179.016C120.983 178.866 121.514 178.715 121.701 178.681C122.007 178.626 122.907 178.242 123.419 177.947C123.527 177.885 123.957 177.646 124.376 177.416C125.372 176.867 126.903 175.566 126.88 175.288C126.869 175.168 126.922 175.069 126.995 175.069C127.147 175.069 127.751 174.406 127.751 174.241C127.751 174.182 127.893 173.945 128.066 173.715C128.456 173.199 129.06 171.774 129.134 171.198C129.164 170.963 129.264 170.6 129.357 170.392C129.907 169.148 129.594 144.352 129.027 144.352C128.967 144.352 128.952 144.296 128.994 144.228C129.101 144.055 128.181 141.989 127.997 141.989C127.948 141.989 127.779 141.739 127.62 141.432C127.309 140.831 125.585 139.102 125.3 139.102C125.203 139.102 125.124 139.057 125.122 139.003C125.117 138.881 124.507 138.429 124.296 138.391C124.211 138.376 123.935 138.233 123.682 138.073C123.429 137.914 123.074 137.747 122.894 137.702C122.714 137.658 122.507 137.578 122.435 137.525C122.273 137.408 121.326 137.082 121.057 137.052C120.948 137.04 120.26 136.906 119.528 136.753C117.895 136.414 119.287 136.458 108.093 136.391L98.6093 136.333L98.651 136.608ZM134.796 136.432C134.748 136.481 134.708 146.197 134.708 158.026V179.533H139.763H144.816V172.039V164.544L148 164.605C149.751 164.639 151.301 164.699 151.445 164.738C151.59 164.778 151.738 164.815 151.774 164.821C151.961 164.85 152.55 165.475 152.743 165.85C152.942 166.235 152.963 166.945 152.958 172.906L152.951 179.533H158.142H163.332L163.289 172.74C163.265 169.003 163.211 165.799 163.169 165.618C163.127 165.438 163.028 165.014 162.949 164.677C162.79 164.005 162.323 163.124 162.123 163.124C162.054 163.124 162.039 163.056 162.091 162.973C162.142 162.89 162.097 162.756 161.989 162.678C161.881 162.598 161.722 162.401 161.637 162.239C161.551 162.078 161.437 161.959 161.385 161.974C161.333 161.99 160.925 161.753 160.476 161.447C160.028 161.141 159.364 160.822 159.001 160.738L158.341 160.586L159.028 160.127C159.406 159.875 159.763 159.589 159.82 159.493C159.879 159.396 159.99 159.317 160.068 159.317C160.228 159.317 160.832 158.705 160.832 158.543C160.832 158.486 160.95 158.332 161.094 158.202C161.238 158.071 161.356 157.889 161.356 157.798C161.356 157.707 161.421 157.611 161.499 157.585C161.629 157.542 162.022 156.579 162.237 155.773C162.512 154.747 162.394 143.39 162.097 142.121C161.968 141.575 161.334 140.152 161.219 140.152C161.16 140.152 161.078 140.047 161.037 139.918C160.95 139.642 159.708 138.314 159.538 138.314C159.473 138.314 159.343 138.222 159.249 138.109C159.048 137.866 157.52 137.133 157.036 137.047C156.849 137.014 156.401 136.904 156.04 136.803C155.679 136.702 154.81 136.557 154.109 136.482C152.71 136.332 134.942 136.286 134.796 136.432ZM176.485 136.49C175.961 136.551 175.164 136.697 174.713 136.815C174.262 136.933 173.834 137.044 173.761 137.061C173.69 137.078 173.467 137.16 173.269 137.244C172.665 137.497 172.19 137.676 172.121 137.676C172.084 137.676 172.008 137.76 171.95 137.864C171.892 137.967 171.765 138.051 171.669 138.051C171.572 138.051 171.311 138.22 171.089 138.428C170.868 138.635 170.663 138.781 170.634 138.753C170.605 138.724 170.412 138.924 170.205 139.196C169.998 139.469 169.707 139.811 169.559 139.955C169.314 140.195 169.046 140.679 168.979 141.005C168.964 141.077 168.861 141.236 168.751 141.357C168.641 141.48 168.59 141.642 168.637 141.718C168.684 141.795 168.663 141.858 168.59 141.858C168.419 141.858 167.974 143.314 167.906 144.09C167.818 145.109 167.85 171.29 167.941 172.086C168.033 172.9 168.653 174.789 168.898 175.004C168.98 175.077 169.122 175.318 169.213 175.54C169.393 175.982 170.669 177.388 170.841 177.333C170.899 177.314 170.981 177.388 171.023 177.497C171.064 177.606 171.152 177.695 171.218 177.695C171.283 177.695 171.65 177.903 172.033 178.158C172.417 178.412 172.863 178.646 173.026 178.677C173.189 178.708 173.658 178.86 174.068 179.014C175.174 179.43 177.112 179.524 184.626 179.529L191.29 179.533L191.255 175.431L191.221 171.328L185.083 171.302C181.708 171.287 178.871 171.228 178.78 171.171C178.689 171.113 178.452 170.869 178.255 170.63L177.896 170.192V166.068V161.943H183.8H189.704L189.74 157.906L189.777 153.87L183.837 153.9L177.896 153.931V149.89V145.849L178.252 145.301C178.784 144.48 178.754 144.484 185.333 144.484H191.286V140.414V136.345L184.362 136.362C180.553 136.371 177.009 136.429 176.485 136.49ZM196.231 136.432C196.183 136.481 196.143 146.197 196.143 158.026V179.533H201.263H206.382V172.05V164.568H210.647H214.913L214.947 172.017L214.981 179.468L220.203 179.501L225.425 179.536L225.382 163.027C225.343 147.808 225.322 146.452 225.11 145.669C224.984 145.201 224.865 144.716 224.846 144.589C224.827 144.462 224.77 144.318 224.72 144.269C224.67 144.218 224.627 144.083 224.624 143.969C224.622 143.855 224.506 143.525 224.366 143.237C224.227 142.948 224.111 142.637 224.109 142.548C224.106 142.457 224.045 142.383 223.972 142.383C223.901 142.383 223.853 142.339 223.868 142.285C223.922 142.084 223.026 140.809 222.891 140.894C222.811 140.943 222.788 140.918 222.84 140.835C222.936 140.68 221.614 139.232 221.378 139.232C221.301 139.232 221.218 139.188 221.194 139.134C221.075 138.868 219.843 138.112 219.608 138.162C219.554 138.173 219.51 138.129 219.51 138.063C219.51 137.924 217.516 137.133 216.991 137.063C216.796 137.037 216.392 136.949 216.091 136.869C215.79 136.788 215.512 136.755 215.471 136.795C215.431 136.835 215.334 136.814 215.254 136.748C214.845 136.407 196.559 136.104 196.231 136.432ZM284.422 137.104C284.291 137.517 284.073 138.191 283.936 138.603C283.799 139.014 283.666 139.458 283.638 139.588C283.61 139.718 283.346 140.562 283.05 141.464C282.753 142.366 282.482 143.274 282.446 143.481C282.409 143.688 282.293 144.025 282.186 144.229C282.081 144.434 281.97 144.737 281.938 144.903C281.908 145.07 281.874 145.206 281.863 145.206C281.852 145.206 281.823 145.309 281.799 145.435C281.759 145.647 281.931 145.665 283.975 145.665H286.195V162.599V179.533H291.314H296.434V157.936V136.34L290.546 136.347L284.659 136.355L284.422 137.104ZM303.729 136.509C303.603 136.95 303.225 138.016 303.11 138.256C303.039 138.404 302.995 138.581 303.014 138.65C303.032 138.717 302.958 138.98 302.851 139.232C302.744 139.485 302.577 139.958 302.481 140.283C302.385 140.608 302.197 141.184 302.063 141.563C301.929 141.943 301.823 142.268 301.826 142.285C301.838 142.344 301.73 142.704 301.499 143.368C301.289 143.973 301.187 144.334 300.953 145.304L300.866 145.665H303.114H305.361V162.599V179.533H310.414H315.468V157.939V136.345H309.622C305.059 136.345 303.767 136.38 303.729 136.509ZM150.789 144.155C151.258 144.446 151.523 144.739 151.797 145.27L152.169 145.99L152.135 150.258L152.102 154.526L151.721 155.217C151.512 155.597 151.312 155.881 151.279 155.847C151.245 155.813 151.134 155.869 151.032 155.971C150.652 156.352 149.837 156.474 147.344 156.527L144.816 156.581V150.125V143.669L147.485 143.716L150.154 143.761L150.789 144.155ZM213.116 144.12C213.494 144.331 213.737 144.405 213.743 144.31C213.75 144.225 213.788 144.244 213.828 144.352C213.869 144.461 214.062 144.756 214.257 145.009C214.896 145.837 214.915 146.025 214.915 151.46V156.56H210.649H206.382V150.112V143.663L209.441 143.719C212.449 143.774 212.508 143.78 213.116 144.12ZM115.814 144.222C116.206 144.295 116.666 144.381 116.837 144.414C117.006 144.447 117.228 144.542 117.329 144.626C117.43 144.71 117.512 144.73 117.512 144.672C117.512 144.613 117.599 144.68 117.704 144.819C117.811 144.959 117.899 145.03 117.901 144.976C117.908 144.808 118.387 145.348 118.879 146.078L119.348 146.775L119.316 157.935C119.286 168.582 119.273 169.113 119.039 169.458C118.905 169.656 118.832 169.819 118.876 169.819C119.005 169.819 118.287 170.507 117.728 170.922C116.991 171.468 116.519 171.555 113.935 171.62L111.605 171.679V157.884V144.09H113.353C114.315 144.09 115.422 144.15 115.814 144.222Z" fill="#EC1C24"/>
<path fill-rule="evenodd" clip-rule="evenodd" d="M7.75356 127.899C7.58894 128.099 7.60155 128.103 7.90163 127.947C8.34191 127.718 8.37499 127.681 8.13634 127.681C8.02529 127.681 7.8528 127.779 7.75356 127.899ZM59.8423 130.536C59.7769 130.647 59.9715 131.225 60.0746 131.225C60.1109 131.225 60.0873 131.084 60.0211 130.91C59.9557 130.737 59.9368 130.56 59.9809 130.517C60.0242 130.473 60.0242 130.438 59.9801 130.438C59.936 130.438 59.8746 130.482 59.8423 130.536ZM239.273 135.802C238.899 135.883 243.979 135.854 244.78 135.771C244.996 135.749 243.933 135.728 242.417 135.725C240.901 135.722 239.486 135.757 239.273 135.802ZM245.25 135.736C245.28 135.763 245.629 135.818 246.026 135.859C246.493 135.907 246.632 135.895 246.42 135.824C246.095 135.716 245.145 135.644 245.25 135.736ZM259.876 135.82C259.707 135.894 259.848 135.907 260.27 135.858C260.631 135.817 260.95 135.761 260.98 135.735C261.094 135.638 260.126 135.712 259.876 135.82ZM261.451 135.771C262.304 135.859 265.433 135.88 265.221 135.796C265.097 135.747 264.109 135.712 263.027 135.719C261.944 135.725 261.235 135.749 261.451 135.771ZM0.475121 140.217C0.475121 141.733 0.494023 142.336 0.516865 141.556C0.540493 140.775 0.540493 139.535 0.516865 138.799C0.494023 138.063 0.474333 138.701 0.475121 140.217ZM74.6276 145.993C74.6284 146.427 74.6528 146.588 74.6819 146.352C74.7119 146.116 74.7111 145.761 74.6811 145.564C74.6512 145.367 74.6268 145.56 74.6276 145.993ZM87.8786 146.256C87.8801 146.545 87.9069 146.647 87.9384 146.484C87.9699 146.32 87.9684 146.084 87.9361 145.959C87.903 145.834 87.877 145.967 87.8786 146.256ZM178.062 153.894C178.188 153.927 178.395 153.927 178.521 153.894C178.647 153.861 178.544 153.834 178.291 153.834C178.038 153.834 177.935 153.861 178.062 153.894ZM179.378 153.9C179.723 153.927 180.255 153.927 180.559 153.9C180.864 153.872 180.582 153.85 179.932 153.85C179.282 153.851 179.033 153.874 179.378 153.9ZM181.934 153.901C182.385 153.926 183.124 153.926 183.575 153.901C184.026 153.875 183.657 153.855 182.754 153.855C181.852 153.855 181.482 153.875 181.934 153.901ZM185.216 153.901C185.667 153.926 186.405 153.926 186.856 153.901C187.307 153.875 186.939 153.855 186.036 153.855C185.134 153.855 184.764 153.875 185.216 153.901ZM187.974 153.896C188.137 153.928 188.373 153.927 188.499 153.894C188.624 153.861 188.49 153.836 188.202 153.837C187.913 153.838 187.811 153.865 187.974 153.896ZM189.48 153.886C189.688 153.948 189.711 154.287 189.745 157.915L189.783 161.877L189.78 157.875C189.777 153.971 189.771 153.872 189.514 153.846C189.314 153.826 189.306 153.835 189.48 153.886ZM160.438 161.424C160.894 161.733 161.153 161.823 160.832 161.561C160.652 161.413 160.445 161.291 160.372 161.291C160.301 161.291 160.33 161.351 160.438 161.424Z" fill="#F01C24"/>
<path fill-rule="evenodd" clip-rule="evenodd" d="M7.75356 127.899C7.58894 128.099 7.60155 128.103 7.90163 127.947C8.34191 127.718 8.37499 127.681 8.13634 127.681C8.02529 127.681 7.8528 127.779 7.75356 127.899ZM59.8423 130.536C59.7769 130.647 59.9715 131.225 60.0746 131.225C60.1109 131.225 60.0873 131.084 60.0211 130.91C59.9557 130.737 59.9368 130.56 59.9809 130.517C60.0242 130.473 60.0242 130.438 59.9801 130.438C59.936 130.438 59.8746 130.482 59.8423 130.536ZM239.273 135.802C238.899 135.883 243.979 135.854 244.78 135.771C244.996 135.749 243.933 135.728 242.417 135.725C240.901 135.722 239.486 135.757 239.273 135.802ZM245.25 135.736C245.28 135.763 245.629 135.818 246.026 135.859C246.493 135.907 246.632 135.895 246.42 135.824C246.095 135.716 245.145 135.644 245.25 135.736ZM259.876 135.82C259.707 135.894 259.848 135.907 260.27 135.858C260.631 135.817 260.95 135.761 260.98 135.735C261.094 135.638 260.126 135.712 259.876 135.82ZM261.451 135.771C262.304 135.859 265.433 135.88 265.221 135.796C265.097 135.747 264.109 135.712 263.027 135.719C261.944 135.725 261.235 135.749 261.451 135.771ZM0.475121 140.217C0.475121 141.733 0.494023 142.336 0.516865 141.556C0.540493 140.775 0.540493 139.535 0.516865 138.799C0.494023 138.063 0.474333 138.701 0.475121 140.217ZM74.6276 145.993C74.6284 146.427 74.6528 146.588 74.6819 146.352C74.7119 146.116 74.7111 145.761 74.6811 145.564C74.6512 145.367 74.6268 145.56 74.6276 145.993ZM87.8786 146.256C87.8801 146.545 87.9069 146.647 87.9384 146.484C87.9699 146.32 87.9684 146.084 87.9361 145.959C87.903 145.834 87.877 145.967 87.8786 146.256ZM178.062 153.894C178.188 153.927 178.395 153.927 178.521 153.894C178.647 153.861 178.544 153.834 178.291 153.834C178.038 153.834 177.935 153.861 178.062 153.894ZM179.378 153.9C179.723 153.927 180.255 153.927 180.559 153.9C180.864 153.872 180.582 153.85 179.932 153.85C179.282 153.851 179.033 153.874 179.378 153.9ZM181.934 153.901C182.385 153.926 183.124 153.926 183.575 153.901C184.026 153.875 183.657 153.855 182.754 153.855C181.852 153.855 181.482 153.875 181.934 153.901ZM185.216 153.901C185.667 153.926 186.405 153.926 186.856 153.901C187.307 153.875 186.939 153.855 186.036 153.855C185.134 153.855 184.764 153.875 185.216 153.901ZM187.974 153.896C188.137 153.928 188.373 153.927 188.499 153.894C188.624 153.861 188.49 153.836 188.202 153.837C187.913 153.838 187.811 153.865 187.974 153.896ZM189.48 153.886C189.688 153.948 189.711 154.287 189.745 157.915L189.783 161.877L189.78 157.875C189.777 153.971 189.771 153.872 189.514 153.846C189.314 153.826 189.306 153.835 189.48 153.886ZM160.438 161.424C160.894 161.733 161.153 161.823 160.832 161.561C160.652 161.413 160.445 161.291 160.372 161.291C160.301 161.291 160.33 161.351 160.438 161.424Z" fill="#F01C24"/>
<path fill-rule="evenodd" clip-rule="evenodd" d="M7.75356 127.899C7.58894 128.099 7.60155 128.103 7.90163 127.947C8.34191 127.718 8.37499 127.681 8.13634 127.681C8.02529 127.681 7.8528 127.779 7.75356 127.899ZM59.8423 130.536C59.7769 130.647 59.9715 131.225 60.0746 131.225C60.1109 131.225 60.0873 131.084 60.0211 130.91C59.9557 130.737 59.9368 130.56 59.9809 130.517C60.0242 130.473 60.0242 130.438 59.9801 130.438C59.936 130.438 59.8746 130.482 59.8423 130.536ZM239.273 135.802C238.899 135.883 243.979 135.854 244.78 135.771C244.996 135.749 243.933 135.728 242.417 135.725C240.901 135.722 239.486 135.757 239.273 135.802ZM245.25 135.736C245.28 135.763 245.629 135.818 246.026 135.859C246.493 135.907 246.632 135.895 246.42 135.824C246.095 135.716 245.145 135.644 245.25 135.736ZM259.876 135.82C259.707 135.894 259.848 135.907 260.27 135.858C260.631 135.817 260.95 135.761 260.98 135.735C261.094 135.638 260.126 135.712 259.876 135.82ZM261.451 135.771C262.304 135.859 265.433 135.88 265.221 135.796C265.097 135.747 264.109 135.712 263.027 135.719C261.944 135.725 261.235 135.749 261.451 135.771ZM0.475121 140.217C0.475121 141.733 0.494023 142.336 0.516865 141.556C0.540493 140.775 0.540493 139.535 0.516865 138.799C0.494023 138.063 0.474333 138.701 0.475121 140.217ZM74.6276 145.993C74.6284 146.427 74.6528 146.588 74.6819 146.352C74.7119 146.116 74.7111 145.761 74.6811 145.564C74.6512 145.367 74.6268 145.56 74.6276 145.993ZM87.8786 146.256C87.8801 146.545 87.9069 146.647 87.9384 146.484C87.9699 146.32 87.9684 146.084 87.9361 145.959C87.903 145.834 87.877 145.967 87.8786 146.256ZM178.062 153.894C178.188 153.927 178.395 153.927 178.521 153.894C178.647 153.861 178.544 153.834 178.291 153.834C178.038 153.834 177.935 153.861 178.062 153.894ZM179.378 153.9C179.723 153.927 180.255 153.927 180.559 153.9C180.864 153.872 180.582 153.85 179.932 153.85C179.282 153.851 179.033 153.874 179.378 153.9ZM181.934 153.901C182.385 153.926 183.124 153.926 183.575 153.901C184.026 153.875 183.657 153.855 182.754 153.855C181.852 153.855 181.482 153.875 181.934 153.901ZM185.216 153.901C185.667 153.926 186.405 153.926 186.856 153.901C187.307 153.875 186.939 153.855 186.036 153.855C185.134 153.855 184.764 153.875 185.216 153.901ZM187.974 153.896C188.137 153.928 188.373 153.927 188.499 153.894C188.624 153.861 188.49 153.836 188.202 153.837C187.913 153.838 187.811 153.865 187.974 153.896ZM189.48 153.886C189.688 153.948 189.711 154.287 189.745 157.915L189.783 161.877L189.78 157.875C189.777 153.971 189.771 153.872 189.514 153.846C189.314 153.826 189.306 153.835 189.48 153.886ZM160.438 161.424C160.894 161.733 161.153 161.823 160.832 161.561C160.652 161.413 160.445 161.291 160.372 161.291C160.301 161.291 160.33 161.351 160.438 161.424Z" fill="#F01C24"/>
<path fill-rule="evenodd" clip-rule="evenodd" d="M7.75356 127.899C7.58894 128.099 7.60155 128.103 7.90163 127.947C8.34191 127.718 8.37499 127.681 8.13634 127.681C8.02529 127.681 7.8528 127.779 7.75356 127.899ZM59.8423 130.536C59.7769 130.647 59.9715 131.225 60.0746 131.225C60.1109 131.225 60.0873 131.084 60.0211 130.91C59.9557 130.737 59.9368 130.56 59.9809 130.517C60.0242 130.473 60.0242 130.438 59.9801 130.438C59.936 130.438 59.8746 130.482 59.8423 130.536ZM239.273 135.802C238.899 135.883 243.979 135.854 244.78 135.771C244.996 135.749 243.933 135.728 242.417 135.725C240.901 135.722 239.486 135.757 239.273 135.802ZM245.25 135.736C245.28 135.763 245.629 135.818 246.026 135.859C246.493 135.907 246.632 135.895 246.42 135.824C246.095 135.716 245.145 135.644 245.25 135.736ZM259.876 135.82C259.707 135.894 259.848 135.907 260.27 135.858C260.631 135.817 260.95 135.761 260.98 135.735C261.094 135.638 260.126 135.712 259.876 135.82ZM261.451 135.771C262.304 135.859 265.433 135.88 265.221 135.796C265.097 135.747 264.109 135.712 263.027 135.719C261.944 135.725 261.235 135.749 261.451 135.771ZM0.475121 140.217C0.475121 141.733 0.494023 142.336 0.516865 141.556C0.540493 140.775 0.540493 139.535 0.516865 138.799C0.494023 138.063 0.474333 138.701 0.475121 140.217ZM74.6276 145.993C74.6284 146.427 74.6528 146.588 74.6819 146.352C74.7119 146.116 74.7111 145.761 74.6811 145.564C74.6512 145.367 74.6268 145.56 74.6276 145.993ZM87.8786 146.256C87.8801 146.545 87.9069 146.647 87.9384 146.484C87.9699 146.32 87.9684 146.084 87.9361 145.959C87.903 145.834 87.877 145.967 87.8786 146.256ZM178.062 153.894C178.188 153.927 178.395 153.927 178.521 153.894C178.647 153.861 178.544 153.834 178.291 153.834C178.038 153.834 177.935 153.861 178.062 153.894ZM179.378 153.9C179.723 153.927 180.255 153.927 180.559 153.9C180.864 153.872 180.582 153.85 179.932 153.85C179.282 153.851 179.033 153.874 179.378 153.9ZM181.934 153.901C182.385 153.926 183.124 153.926 183.575 153.901C184.026 153.875 183.657 153.855 182.754 153.855C181.852 153.855 181.482 153.875 181.934 153.901ZM185.216 153.901C185.667 153.926 186.405 153.926 186.856 153.901C187.307 153.875 186.939 153.855 186.036 153.855C185.134 153.855 184.764 153.875 185.216 153.901ZM187.974 153.896C188.137 153.928 188.373 153.927 188.499 153.894C188.624 153.861 188.49 153.836 188.202 153.837C187.913 153.838 187.811 153.865 187.974 153.896ZM189.48 153.886C189.688 153.948 189.711 154.287 189.745 157.915L189.783 161.877L189.78 157.875C189.777 153.971 189.771 153.872 189.514 153.846C189.314 153.826 189.306 153.835 189.48 153.886ZM160.438 161.424C160.894 161.733 161.153 161.823 160.832 161.561C160.652 161.413 160.445 161.291 160.372 161.291C160.301 161.291 160.33 161.351 160.438 161.424Z" fill="#F01C24"/>
</svg>
