<svg width="316" height="315" viewBox="0 0 316 315" fill="none" xmlns="http://www.w3.org/2000/svg">
<path d="M163.654 195.759V157.394H157.798V195.759H158H163.654ZM157.798 143.865H163.452V150.125H157.798V143.865Z" fill="#F5AB40"/>
<path d="M171.125 117.01H176.779V171.125H171.125V117.01Z" fill="#00A7DC"/>
<path d="M144.471 117.01H150.125V171.125H144.471V117.01ZM39.875 133.769H45.5288V171.125H39.875V133.769Z" fill="#F5AB40"/>
<path d="M197.981 133.769C187.481 133.769 181.221 142.25 181.221 153.154C181.221 163.856 187.885 171.125 198.788 171.125C204.442 171.125 208.481 169.913 210.702 168.904L211.106 168.702V163.856C208.885 164.663 204.038 166.077 199.596 166.077C193.135 166.077 187.481 162.442 187.279 153.759H212.519C212.519 153.154 212.721 152.144 212.721 150.731C212.721 144.067 209.692 133.769 197.981 133.769ZM206.462 148.913H187.481C188.087 144.471 190.913 138.413 197.375 138.413C204.846 138.413 206.663 144.875 206.462 148.913ZM246.24 147.096C246.442 139.827 242.606 133.769 231.904 133.769C227.26 133.769 223.221 134.375 220.192 136.192V141.038C223.221 139.625 227.462 138.413 230.894 138.413C238.567 138.817 240.183 143.663 240.183 146.692V149.923C224.231 145.077 216.962 151.942 217.164 160.827C217.365 166.077 221 171.125 228.471 171.125C233.519 171.125 238.164 169.913 240.385 167.288V171.125H246.24V147.096ZM240.385 160.827C237.962 163.654 235.135 166.481 230.289 166.481C226.856 166.481 223.423 164.259 223.423 160.019C223.423 152.952 232.51 152.75 240.385 154.971V160.827Z" fill="#00A7DC"/>
<path d="M139.221 145.279C137.202 137.606 131.952 133.971 124.481 133.769H122.26C122.058 133.769 121.654 133.769 121.452 133.971C116.606 134.779 113.577 138.009 113.577 138.009V133.769H107.923V188.086H113.577V167.288C113.577 167.288 117.212 170.721 122.26 171.125H125.49C131.346 170.519 135.587 167.894 138.01 162.644C140.635 156.99 140.837 151.134 139.221 145.279ZM134.173 153.558V154.365C133.971 155.779 133.567 157.192 133.365 158.202C132.962 159.211 131.144 163.654 126.702 164.865C125.894 165.067 125.087 165.269 124.077 165.269C124.077 165.269 116.808 165.269 113.577 159.413V145.077C113.577 144.875 115.798 140.231 121.856 139.019C122.663 138.817 125.288 138.615 127.712 139.423H127.913L128.317 139.625L128.721 139.827L129.125 140.029C130.942 141.24 134.173 144.471 134.375 151.134C134.375 152.144 134.173 152.75 134.173 153.558Z" fill="#F5AB40"/>
<path d="M256.538 138.211V133.769H250.481V171.125H256.538V150.327C256.538 146.288 257.346 144.269 257.548 144.067L258.76 142.25C259.365 141.644 260.577 140.634 262.394 139.827C263 139.625 263.606 139.423 264.413 139.221H265.423C266.231 139.019 267.038 139.019 268.048 138.817H270.875V133.769C261.99 133.365 257.548 137.404 256.538 138.211Z" fill="#00A7DC"/>
<path d="M35.4328 158.606C35.029 154.365 32.404 151.942 28.3655 150.731C27.3559 150.327 26.1443 150.125 25.1347 149.923C22.9136 149.317 20.6924 148.913 18.6732 148.106C14.8366 146.49 15.6443 141.846 17.8655 140.231C19.279 139.221 21.0963 138.615 22.9136 138.615H26.3463C27.5578 138.817 28.5674 138.817 29.779 139.221C32.0001 139.827 33.8174 140.635 33.8174 140.635V135.788C33.6155 135.788 32.6059 135.385 32.6059 135.385C28.5674 134.173 24.529 133.567 20.2886 134.173C14.8366 134.981 9.9905 138.817 10.5963 145.885C10.7982 148.711 12.2117 150.933 14.8366 151.942C16.8559 152.952 19.279 153.356 21.2982 153.961C23.1155 154.567 25.1347 155.173 26.952 155.779C28.1636 156.183 28.9713 157.192 29.1732 158.404C29.9809 161.231 28.9713 163.654 25.9424 165.067C23.3174 166.279 20.4905 166.279 17.6636 166.077C12.6155 165.673 10.5963 164.058 10.5963 164.058V168.702C10.5963 168.702 12.0097 169.308 13.827 169.913L16.2501 170.519C19.077 170.923 21.904 170.923 24.9328 170.317C26.7501 169.913 28.5674 169.308 30.1828 168.5C34.0193 166.885 36.0386 163.048 35.4328 158.606ZM39.8751 122.461H45.529V128.721H39.8751V122.461Z" fill="#F5AB40"/>
<path d="M304.798 143.663C302.779 135.788 296.317 134.375 294.904 133.971H294.298C290.664 133.567 288.039 133.971 285.817 134.779L285.414 134.981C282.587 136.192 281.375 138.009 281.375 138.009V133.769H275.317V170.923H281.375V148.106C281.375 143.259 285.414 139.221 290.462 139.221H290.664C290.664 139.221 295.106 138.817 297.731 142.25L297.933 142.452L298.337 143.058C298.539 143.461 298.74 143.663 298.942 144.067C298.942 144.269 299.144 144.471 299.144 144.875C299.346 145.683 299.75 147.702 299.75 151.538V170.923H305.808V148.711C305.404 146.692 305.202 145.077 304.798 143.663Z" fill="#00A7DC"/>
<path d="M88.9423 133.769C81.6731 133.971 78.4423 137.404 77.4327 138.817L77.0289 139.423V139.019L76.827 138.817L76.625 138.413C75.2116 136.394 73.1923 135.183 72.1827 134.779C69.3558 133.769 66.9327 133.769 66.5289 133.769H66.327C62.6923 133.567 60.0673 134.981 60.0673 134.981C57.0385 136.192 55.625 138.01 55.625 138.01V133.769H49.9712V170.923H55.625V148.51C55.625 147.096 55.827 146.087 56.0289 145.481C57.0385 141.442 60.6731 138.615 64.9135 138.615C68.75 138.615 71.7789 140.635 73.1923 143.865C73.5962 144.875 73.7981 146.087 73.7981 147.298V170.721H79.452V147.702C79.452 142.452 83.4904 138.615 88.5385 138.615C90.3558 138.615 92.1731 139.221 93.5866 140.231C96.0097 141.846 97.625 144.269 97.625 147.5V170.721H103.481V148.308C103.481 145.279 102.875 142.856 101.865 140.837C98.2308 134.375 91.5673 133.769 88.9423 133.769Z" fill="#F5AB40"/>
</svg>
