<svg width="316" height="315" viewBox="0 0 316 315" fill="none" xmlns="http://www.w3.org/2000/svg">
<path fill-rule="evenodd" clip-rule="evenodd" d="M72.0858 164.456L71.7207 184.57H84.0442V164.456C84.0442 159.859 87.7816 156.12 92.3806 156.12H98.1762V144.341L92.3806 144.161C81.1702 144.161 72.0858 153.246 72.0858 164.456Z" fill="#F58024"/>
<path fill-rule="evenodd" clip-rule="evenodd" d="M223.341 144.161C212.132 144.161 203.043 153.246 203.043 164.456C203.043 175.665 212.132 184.751 223.341 184.751C234.547 184.751 243.634 175.665 243.634 164.456C243.634 153.246 234.547 144.161 223.341 144.161ZM230.587 164.456C230.587 168.452 227.335 171.703 223.341 171.703C219.342 171.703 216.092 168.452 216.092 164.456C216.092 160.459 219.342 157.207 223.341 157.207C227.335 157.207 230.587 160.459 230.587 164.456Z" fill="#F58024"/>
<path fill-rule="evenodd" clip-rule="evenodd" d="M137.555 173.456C132.993 173.456 129.282 169.745 129.282 165.183C129.282 160.621 132.993 156.909 137.555 156.909C142.116 156.909 145.828 160.621 145.828 165.183C145.828 169.745 142.116 173.456 137.555 173.456ZM117.429 164.599L117.414 200.264H128.63V183.239C131.321 184.572 134.35 185.324 137.555 185.324C148.678 185.324 157.695 176.305 157.695 165.183C157.695 154.06 148.678 145.041 137.555 145.041C126.627 145.041 117.738 153.747 117.429 164.599Z" fill="#F58024"/>
<path fill-rule="evenodd" clip-rule="evenodd" d="M179.784 173.468C175.223 173.468 171.51 169.755 171.51 165.193C171.51 160.632 175.223 156.92 179.784 156.92C184.344 156.92 188.056 160.632 188.056 165.193C188.056 169.755 184.344 173.468 179.784 173.468ZM170.858 147.138V130.112H159.642V165.778C159.968 176.629 168.855 185.336 179.784 185.336C190.906 185.336 199.925 176.316 199.925 165.193C199.925 154.072 190.906 145.053 179.784 145.053C176.578 145.053 173.549 145.806 170.858 147.138Z" fill="#F58024"/>
<path fill-rule="evenodd" clip-rule="evenodd" d="M101.431 144.296L114.18 144.268V184.584H101.431V144.296Z" fill="#F58024"/>
<path fill-rule="evenodd" clip-rule="evenodd" d="M287.812 115.018V143.674H316V115H305.383V118.839H312.162V139.835H291.651V118.857H298.657V115.018H287.812Z" fill="#F58024"/>
<path fill-rule="evenodd" clip-rule="evenodd" d="M298.978 136.434C297.885 136.061 296.871 135.509 295.937 134.779L297.451 132.482C298.253 133.08 299.072 133.534 299.903 133.841C300.733 134.15 301.532 134.304 302.299 134.304C303.026 134.304 303.592 134.16 303.994 133.869C304.395 133.58 304.596 133.193 304.596 132.706V132.651C304.596 132.37 304.506 132.128 304.33 131.922C304.152 131.716 303.909 131.534 303.601 131.375C303.293 131.217 302.937 131.077 302.536 130.955C302.135 130.834 301.719 130.708 301.289 130.576C300.747 130.427 300.201 130.25 299.651 130.044C299.098 129.839 298.604 129.573 298.164 129.246C297.726 128.919 297.367 128.513 297.085 128.027C296.805 127.541 296.666 126.943 296.666 126.233V126.177C296.666 125.467 296.8 124.836 297.072 124.286C297.342 123.735 297.716 123.263 298.193 122.871C298.669 122.479 299.231 122.179 299.873 121.973C300.519 121.768 301.205 121.665 301.934 121.665C302.868 121.665 303.811 121.815 304.764 122.114C305.717 122.413 306.585 122.824 307.37 123.347L306.025 125.757C305.315 125.328 304.596 124.987 303.867 124.734C303.138 124.482 302.466 124.356 301.85 124.356C301.195 124.356 300.687 124.496 300.322 124.776C299.958 125.056 299.776 125.411 299.776 125.841V125.897C299.776 126.16 299.868 126.387 300.056 126.583C300.242 126.78 300.49 126.957 300.799 127.116C301.107 127.275 301.462 127.42 301.863 127.55C302.266 127.681 302.681 127.821 303.11 127.97C303.653 128.139 304.194 128.335 304.736 128.559C305.278 128.784 305.769 129.059 306.207 129.386C306.646 129.713 307.005 130.11 307.286 130.576C307.566 131.044 307.705 131.614 307.705 132.286V132.342C307.705 133.126 307.566 133.808 307.286 134.387C307.005 134.967 306.618 135.448 306.123 135.831C305.628 136.214 305.044 136.503 304.372 136.699C303.699 136.896 302.979 136.994 302.214 136.994C301.149 136.994 300.07 136.807 298.978 136.434Z" fill="#F58024"/>
<path fill-rule="evenodd" clip-rule="evenodd" d="M55.05 172.792C50.452 172.792 46.7136 169.053 46.7136 164.456C46.7136 159.859 50.452 156.12 55.05 156.12C57.6324 156.12 59.9135 157.326 61.4455 159.176L70.698 151.533C66.9735 147.029 61.348 144.161 55.05 144.161C43.8386 144.161 34.7512 153.246 34.7512 164.456C34.7512 175.665 43.8386 184.751 55.05 184.751C61.3082 184.751 66.8999 181.916 70.6234 177.462L61.4156 169.771C59.8846 171.603 57.6155 172.792 55.05 172.792Z" fill="#F58024"/>
<path fill-rule="evenodd" clip-rule="evenodd" d="M33.0393 176.973C32.1469 178.68 30.9432 180.131 29.4341 181.321C27.9221 182.51 26.1643 183.415 24.1578 184.033C22.1493 184.652 20.0055 184.962 17.7244 184.962C14.6028 184.962 11.6174 184.589 8.76933 183.847C5.91726 183.104 3.3298 182.014 1 180.575L5.90831 171.284C6.59969 171.78 7.41741 172.239 8.35947 172.66C9.30055 173.082 10.2804 173.453 11.2981 173.775C12.3128 174.097 13.3275 174.345 14.3431 174.518C15.3588 174.692 16.289 174.778 17.1325 174.778C19.9548 174.778 21.3684 173.912 21.3684 172.177C21.3684 171.336 20.9356 170.689 20.0672 170.244C19.1997 169.798 18.1224 169.377 16.8361 168.98C15.5449 168.584 14.1442 168.149 12.6341 167.679C11.123 167.207 9.72134 166.552 8.43408 165.708C7.14583 164.866 6.06548 163.763 5.19902 162.401C4.33056 161.038 3.89783 159.267 3.89783 157.084C3.89783 155.153 4.30768 153.407 5.1264 151.846C5.94312 150.283 7.06028 148.945 8.4699 147.831C9.88051 146.716 11.5816 145.848 13.5612 145.229C15.5449 144.609 17.6767 144.298 19.9548 144.298C22.6815 144.298 25.0362 144.536 27.0198 145.005C29.0004 145.477 30.984 146.158 32.9647 147.051L28.506 156.119C27.365 155.525 26.1513 155.029 24.8631 154.633C23.5718 154.236 22.3602 154.036 21.2192 154.036C19.8314 154.036 18.7401 154.297 17.9493 154.817C17.1564 155.34 16.7605 156.02 16.7605 156.863C16.7605 157.559 17.1942 158.116 18.0597 158.536C18.9272 158.957 20.0194 159.354 21.3316 159.725C22.6437 160.097 24.0563 160.505 25.5694 160.95C27.0805 161.398 28.4931 162.03 29.8062 162.847C31.1183 163.666 32.2086 164.73 33.0781 166.045C33.9435 167.358 34.3763 169.055 34.3763 171.136C34.3763 173.316 33.9316 175.26 33.0393 176.973Z" fill="#F58024"/>
<path fill-rule="evenodd" clip-rule="evenodd" d="M114.557 131.382C114.557 135.378 111.306 138.63 107.311 138.63C103.311 138.63 100.062 135.378 100.062 131.382C100.062 127.385 103.311 124.133 107.311 124.133C111.306 124.133 114.557 127.385 114.557 131.382Z" fill="#F58024"/>
<path fill-rule="evenodd" clip-rule="evenodd" d="M261.754 154.846L253.904 144.125H239.721L254.743 164.423L240.014 184.541H253.876L261.754 173.897L269.632 184.541H283.494L268.765 164.423L283.786 144.125H269.604L261.754 154.846Z" fill="#F58024"/>
</svg>
