<svg width="316" height="315" viewBox="0 0 316 315" fill="none" xmlns="http://www.w3.org/2000/svg">
<path d="M194.265 185.323C197.452 184.767 200.604 187.555 201.303 191.577C202.002 195.599 199.991 199.35 196.803 199.906H196.711C193.366 200.532 189.973 200.861 186.571 200.89C179.476 200.89 173.735 199.185 169.314 195.763C163.61 191.384 160.601 184.489 160.601 175.84V95.8543C160.601 92.6241 163.916 90 168.002 90C172.088 90 175.404 92.6241 175.404 95.8543V175.868C175.404 179.804 176.388 182.55 178.335 184.047C180.089 185.395 184.353 187.113 194.136 185.352L194.265 185.323Z" fill="#EA2330"/>
<path d="M44.6336 193.916C41.9524 193.916 39.4139 189.98 38.1018 187.427C31.2207 174.064 25.9796 163.397 21.7939 154.825C13.237 137.319 8.59493 128.991 4.74435 126.024C0.893761 123.058 0.109384 119.2 1.94911 115.792C2.41418 114.956 3.04071 114.221 3.79228 113.63C4.54385 113.039 5.40548 112.603 6.32706 112.347C7.24865 112.092 8.2118 112.022 9.16057 112.142C10.1093 112.262 11.0248 112.57 11.8537 113.047C20.0968 117.731 24.3895 126.488 35.0855 148.322C39.2356 156.793 44.3983 167.333 51.1653 180.475C52.841 183.726 54.0176 190.279 51.0869 192.447L44.6336 193.916Z" fill="#EA2330"/>
<path d="M217.953 162.191C217.943 152.86 214.232 143.914 207.633 137.316C201.034 130.718 192.087 127.009 182.756 127.001H151.644C148.407 127.001 145.79 123.685 145.79 119.599C145.79 115.514 148.407 112.198 151.644 112.198H182.756C196.013 112.198 208.727 117.464 218.101 126.838C227.476 136.213 232.742 148.927 232.742 162.184V195.121C232.742 198.351 229.426 200.975 225.34 200.975C221.254 200.975 217.939 198.351 217.939 195.121L217.953 162.191Z" fill="#EA2330"/>
<path d="M129.204 171.511V172.302C129.204 180.738 122.358 186.2 111.641 186.2C100.923 186.2 94.0066 180.752 94.0066 172.317C94.0066 163.881 100.931 158.405 111.641 158.405H112.29C123.456 158.405 142.745 163.546 144.071 163.981V149.905C136.941 147.395 125.532 143.616 112.29 143.616H111.641C91.8032 143.616 79.2033 156.487 79.2033 172.324C79.2033 188.161 91.8032 200.996 111.641 200.996C131.479 200.996 144.079 188.161 144.079 172.324V171.611L144.014 140.892C144.014 125.054 128.719 112.219 111.641 112.219L108.789 112.176C86.227 112.176 68.5571 118.28 55.6505 148.072C54.5952 150.504 53.5969 152.921 52.6271 155.324L52.4845 155.667C49.3969 163.289 47.5857 168.894 43.129 179.198C34.8003 198.451 27.3273 209.696 15.9538 210.352C9.78578 210.708 8.27407 214.816 9.04418 218.909C9.8143 223.002 12.3671 225.483 15.9538 225.483C34.4937 225.483 46.0811 208.427 57.1836 184.125L57.3191 183.811C59.0091 179.861 60.6278 175.754 62.3106 171.497C64.5211 165.792 66.8101 159.859 69.3486 153.998C79.2104 131.237 90.3771 127.03 108.824 127.03H111.677C119.585 127.03 129.24 132.477 129.24 140.899V171.425" fill="#EA2330"/>
<path d="M301.204 171.511V172.303C301.204 180.738 294.273 186.2 283.555 186.2C272.838 186.2 265.921 180.753 265.921 172.317C265.921 163.881 272.845 158.405 283.555 158.405H284.211C295.378 158.405 314.667 163.546 316 163.981V149.905C308.869 147.395 297.424 143.616 284.211 143.616H283.555C263.718 143.616 251.118 156.487 251.118 172.324C251.118 188.161 263.718 200.997 283.555 200.997C303.393 200.997 315.993 188.161 315.993 172.324V171.611L315.929 140.892C315.929 125.055 300.633 112.269 283.555 112.269C283.555 112.269 278.236 112.219 277.138 112.219C240.678 112.219 217.953 135.993 217.953 168.859H232.756C232.756 144.2 248.879 127.015 277.116 127.015C278.421 127.015 282.536 127.073 282.536 127.073C293.16 127.073 301.204 132.456 301.204 140.885V171.547V171.511Z" fill="#EA2330"/>
<g style="mix-blend-mode:multiply" opacity="0.7">
<path style="mix-blend-mode:multiply" d="M129.204 160.501V172.302C129.204 178.905 124.997 183.669 118.03 185.437V200.511C134.139 198.066 144.079 186.378 144.079 172.317V171.603V164.002C142.36 163.553 133.418 161.542 129.204 160.501Z" fill="url(#paint0_linear_228_156)"/>
<path style="mix-blend-mode:multiply" d="M301.204 160.501V172.302C301.204 178.905 296.925 183.711 289.952 185.458V200.519C306.06 198.073 316 186.385 316 172.324V171.611V164.009C314.275 163.553 305.404 161.542 301.204 160.501Z" fill="url(#paint1_linear_228_156)"/>
<path style="mix-blend-mode:multiply" d="M186.478 112.354V127.201C195.115 128.127 203.105 132.212 208.915 138.67C214.724 145.128 217.943 153.505 217.953 162.191V164.002H218.138C218.681 154.688 221.491 145.648 226.324 137.669C222.282 130.493 216.529 124.428 209.578 120.011C202.626 115.595 194.691 112.965 186.478 112.354Z" fill="url(#paint2_linear_228_156)"/>
<path style="mix-blend-mode:multiply" d="M175.411 127.001H160.601V164.551H175.411V127.001Z" fill="url(#paint3_linear_228_156)"/>
<path style="mix-blend-mode:multiply" d="M21.7939 154.832C25.9939 163.389 31.2207 174.085 38.1019 187.434C38.2944 187.812 38.5155 188.218 38.765 188.639C40.1912 185.744 41.6672 182.585 43.1433 179.169C44.4411 176.182 45.5036 173.6 46.452 171.24C41.9168 162.277 38.216 154.711 35.0856 148.329L21.7939 154.832Z" fill="url(#paint4_linear_228_156)"/>
</g>
<defs>
<linearGradient id="paint0_linear_228_156" x1="127.179" y1="202.137" x2="134.531" y2="160.437" gradientUnits="userSpaceOnUse">
<stop offset="0.02" stop-color="white" stop-opacity="0"/>
<stop offset="0.65" stop-color="white" stop-opacity="0"/>
<stop offset="0.71" stop-color="#DFDFE0" stop-opacity="0.17"/>
<stop offset="0.89" stop-color="#88898A" stop-opacity="0.62"/>
<stop offset="0.99" stop-color="#666769" stop-opacity="0.8"/>
</linearGradient>
<linearGradient id="paint1_linear_228_156" x1="299.1" y1="202.137" x2="306.474" y2="160.294" gradientUnits="userSpaceOnUse">
<stop offset="0.02" stop-color="white" stop-opacity="0"/>
<stop offset="0.65" stop-color="white" stop-opacity="0"/>
<stop offset="0.71" stop-color="#DFDFE0" stop-opacity="0.17"/>
<stop offset="0.91" stop-color="#88898A" stop-opacity="0.62"/>
<stop offset="1" stop-color="#666769" stop-opacity="0.8"/>
</linearGradient>
<linearGradient id="paint2_linear_228_156" x1="180.609" y1="130.402" x2="225.34" y2="144.935" gradientUnits="userSpaceOnUse">
<stop offset="0.02" stop-color="white" stop-opacity="0"/>
<stop offset="0.65" stop-color="white" stop-opacity="0"/>
<stop offset="0.71" stop-color="#DFDFE0" stop-opacity="0.17"/>
<stop offset="0.91" stop-color="#88898A" stop-opacity="0.62"/>
<stop offset="1" stop-color="#666769" stop-opacity="0.8"/>
</linearGradient>
<linearGradient id="paint3_linear_228_156" x1="168.002" y1="164.551" x2="168.002" y2="127.001" gradientUnits="userSpaceOnUse">
<stop offset="0.02" stop-color="white" stop-opacity="0"/>
<stop offset="0.65" stop-color="white" stop-opacity="0"/>
<stop offset="0.71" stop-color="#DFDFE0" stop-opacity="0.17"/>
<stop offset="0.91" stop-color="#88898A" stop-opacity="0.62"/>
<stop offset="1" stop-color="#666769" stop-opacity="0.8"/>
</linearGradient>
<linearGradient id="paint4_linear_228_156" x1="22.0079" y1="143.53" x2="44.4411" y2="181.045" gradientUnits="userSpaceOnUse">
<stop offset="0.02" stop-color="white" stop-opacity="0"/>
<stop offset="0.5" stop-color="white" stop-opacity="0"/>
<stop offset="0.54" stop-color="#F0F0F1" stop-opacity="0.07"/>
<stop offset="0.85" stop-color="#8D8D8F" stop-opacity="0.52"/>
<stop offset="1" stop-color="#666769" stop-opacity="0.7"/>
</linearGradient>
</defs>
</svg>
