<svg width="316" height="315" viewBox="0 0 316 315" fill="none" xmlns="http://www.w3.org/2000/svg">
<path fill-rule="evenodd" clip-rule="evenodd" d="M25.566 180.549C25.566 180.548 -6.33243 169.044 6.69282 134.605C29.4878 143.381 32.2267 165.799 25.566 180.549Z" fill="#BEB355"/>
<path fill-rule="evenodd" clip-rule="evenodd" d="M33.3043 158.435C33.3043 158.435 28.2107 137.095 51.2404 132.8C54.8125 149.134 42.3605 156.916 33.3043 158.435Z" fill="#BEB355"/>
<path fill-rule="evenodd" clip-rule="evenodd" d="M32.5277 183.095C32.5277 183.093 30.1226 155.516 60.0067 155.367C60.6682 174.468 47.0114 183.8 32.5277 183.095Z" fill="#BEB355"/>
<path fill-rule="evenodd" clip-rule="evenodd" d="M107.282 135.287C107.38 135.674 107.484 136.451 107.608 137.607C107.728 138.764 107.791 139.61 107.791 140.136C107.791 140.338 107.74 140.587 107.651 140.884C107.066 140.87 106.567 140.815 106.162 140.725C105.127 139.139 104.404 138.147 103.979 137.739C103.195 136.983 102.185 136.339 100.949 135.813C100.037 135.419 98.9944 135.224 97.8115 135.224C95.5451 135.224 93.5433 136.237 91.8202 138.265C90.094 140.295 89.2325 143.316 89.2325 147.32C89.2325 149.197 89.5727 151.026 90.2405 152.801C90.9162 154.574 91.9242 155.96 93.2645 156.97C94.6143 157.976 96.1924 158.482 98.0131 158.482C98.8967 158.482 99.8354 158.37 100.823 158.134C101.33 158.031 101.735 157.816 102.047 157.49C102.262 157.269 102.407 156.951 102.478 156.513C102.582 155.73 102.639 154.615 102.639 153.168C102.639 151.755 102.617 150.791 102.576 150.265C102.485 150.056 102.387 149.925 102.305 149.87C102.214 149.808 101.935 149.711 101.477 149.572L99.6621 149.087C99.2731 148.989 99.029 148.873 98.9329 148.741C98.9046 148.567 98.8904 148.435 98.8904 148.353C98.8904 148.166 98.9392 147.903 99.0353 147.562C99.2794 147.481 99.4464 147.438 99.544 147.438C101.025 147.438 102.305 147.493 103.389 147.605C103.771 147.632 104.189 147.646 104.633 147.646L107.852 147.605L109.215 147.562C109.383 147.548 109.835 147.562 110.585 147.605C110.599 147.958 110.605 148.255 110.605 148.498C110.605 148.644 110.556 148.816 110.459 149.004C110.23 149.142 109.835 149.309 109.278 149.509C108.722 149.717 108.408 149.849 108.339 149.919C108.235 150.023 108.159 150.196 108.117 150.424C108.074 150.653 108.054 151.464 108.054 152.842C108.054 154.434 108.047 155.392 108.033 155.704C107.984 156.701 107.958 157.269 107.958 157.408C107.958 157.905 107.888 158.217 107.748 158.343C107.373 158.717 106.191 159.147 104.215 159.632C102.242 160.109 99.9394 160.351 97.3186 160.351C95.49 160.351 93.8976 160.207 92.5416 159.915C91.1934 159.624 90.0468 159.194 89.0939 158.627C87.815 157.864 86.722 156.951 85.8116 155.863C84.9013 154.782 84.2256 153.61 83.7751 152.35C83.1483 150.569 82.8364 148.789 82.8364 147.016C82.8364 145.028 83.3026 143.011 84.2256 140.968C84.9013 139.492 85.8541 138.161 87.0842 136.977C88.3143 135.792 89.8515 134.851 91.7005 134.143C93.5433 133.443 95.5609 133.091 97.7296 133.091C98.0005 133.091 98.4447 133.126 99.0495 133.194C100.713 133.194 102.256 133.403 103.694 133.811C105.134 134.227 106.331 134.718 107.282 135.287ZM112.128 158.869C112.309 158.717 112.539 158.613 112.824 158.543C113.513 158.398 114.173 158.12 114.798 157.732C114.924 157.408 114.979 156.312 114.979 154.442C114.979 151.02 114.91 148.706 114.757 147.499C114.729 147.285 114.625 147.099 114.431 146.932C114.089 146.759 113.631 146.6 113.047 146.468C112.776 146.398 112.615 146.254 112.56 146.017L112.497 145.269C113.505 145.131 114.409 144.792 115.229 144.244C116.044 143.697 116.655 143.135 117.058 142.568C117.282 142.256 117.469 142.02 117.628 141.861L119.054 141.798C119.123 142.11 119.157 142.366 119.157 142.568C119.157 142.721 119.151 142.9 119.137 143.115C119.123 143.593 119.117 143.981 119.117 144.293C119.117 144.445 119.123 145.006 119.137 145.983C119.693 145.035 120.104 144.397 120.361 144.071C120.479 143.926 120.84 143.593 121.44 143.08C121.904 142.74 122.426 142.568 123.01 142.568C123.727 142.568 124.352 142.809 124.881 143.302C125.409 143.786 125.68 144.348 125.68 144.986C125.68 145.622 125.478 146.191 125.075 146.704C124.672 147.21 124.144 147.458 123.476 147.458C122.892 147.458 122.279 147.216 121.64 146.731C121.265 146.433 120.958 146.282 120.729 146.282L120.584 146.302C120.298 146.398 120.041 146.655 119.811 147.077C119.43 147.75 119.241 148.457 119.241 149.185L119.284 149.731C119.332 150.736 119.373 153.084 119.4 156.776C119.443 157.116 119.575 157.457 119.791 157.795C120.033 157.983 120.285 158.113 120.536 158.197C120.784 158.28 121.222 158.35 121.849 158.398C122.474 158.454 122.849 158.543 122.989 158.654C123.122 158.772 123.191 158.959 123.191 159.216C123.191 159.361 123.149 159.554 123.073 159.805H121.153L117.266 159.597C116.286 159.597 115.396 159.638 114.596 159.721H114.25C114.151 159.721 113.45 159.756 112.128 159.825C112.087 159.603 112.065 159.444 112.065 159.334C112.065 159.23 112.087 159.071 112.128 158.869ZM144.521 156.049L144.987 156.354C145.113 156.444 145.191 156.562 145.217 156.694L145.238 156.798C144.91 158.003 144.48 158.827 143.953 159.285C143.424 159.736 142.762 159.964 141.978 159.964C141.178 159.964 140.483 159.742 139.905 159.306C139.329 158.863 138.806 158.093 138.327 156.978C137.743 158.009 136.922 158.786 135.865 159.306C134.808 159.825 133.509 160.088 131.972 160.088C130.561 160.088 129.524 159.791 128.858 159.202C128.19 158.613 127.856 157.836 127.856 156.88C127.856 156.431 127.96 155.981 128.155 155.516C128.349 155.058 128.669 154.601 129.115 154.152C129.553 153.694 130.261 153.195 131.242 152.654C131.387 152.577 131.91 152.343 132.786 151.969L137.861 149.939C137.903 149.427 137.924 148.9 137.924 148.374C137.924 146.551 137.702 145.304 137.248 144.639C136.977 144.238 136.506 144.03 135.824 144.03C135.142 144.03 134.517 144.16 133.947 144.417C133.377 144.674 132.966 145.006 132.709 145.408C132.515 145.705 132.354 146.274 132.216 147.099C132.124 147.695 132.035 148.033 131.951 148.131C131.75 148.388 131.381 148.622 130.846 148.83C130.31 149.038 129.942 149.191 129.754 149.287C129.017 149.641 128.433 149.815 128.003 149.815C127.814 149.656 127.716 149.427 127.716 149.128C127.716 148.353 127.877 147.695 128.204 147.132C128.697 146.35 129.434 145.587 130.414 144.853C131.402 144.112 132.32 143.6 133.175 143.302C134.344 142.921 135.767 142.733 137.451 142.733C138.543 142.733 139.475 142.935 140.253 143.329C141.039 143.732 141.581 144.321 141.886 145.11C142.193 145.893 142.338 147.307 142.338 149.35L142.283 152.695L142.326 155.155V155.785C142.326 156.354 142.401 156.742 142.554 156.949C142.715 157.157 142.916 157.261 143.159 157.261C143.305 157.261 143.438 157.227 143.542 157.145L144.153 156.189L144.521 156.049ZM137.84 151.338C137.068 151.594 136.193 152.024 135.226 152.626C134.252 153.229 133.578 153.832 133.197 154.442C132.926 154.892 132.786 155.441 132.786 156.083C132.786 156.666 132.966 157.151 133.321 157.524C133.668 157.905 134.079 158.099 134.539 158.099C135.303 158.099 135.95 157.879 136.478 157.449C137.194 156.866 137.618 156.403 137.736 156.056C137.862 155.71 137.925 154.733 137.925 153.125C137.925 152.53 137.895 151.935 137.84 151.338ZM146.622 158.523C146.726 158.468 146.879 158.433 147.068 158.419C147.867 158.37 148.506 158.225 148.986 157.997C149.076 157.954 149.139 157.864 149.153 157.734C149.174 157.594 149.216 156.368 149.271 154.04V152.862L149.286 150.769L149.271 148.596V148.111C149.271 147.473 149.125 147.002 148.834 146.704C148.541 146.398 147.777 146.066 146.539 145.713V144.882C146.796 144.819 147.103 144.743 147.457 144.66C148.708 144.403 149.738 144.036 150.55 143.565C151.177 143.198 151.796 142.652 152.407 141.924H153.527V142.242L153.589 143.871L153.568 144.619L153.609 144.986C154.896 143.967 155.975 143.302 156.836 142.976C157.699 142.652 158.685 142.491 159.799 142.491C160.876 142.491 161.903 142.721 162.905 143.178C163.906 143.642 164.733 144.411 165.401 145.491C166.368 144.556 167.175 143.905 167.828 143.523C168.274 143.267 168.885 143.039 169.671 142.845C170.449 142.652 171.186 142.546 171.882 142.546C173.766 142.546 175.261 143.115 176.358 144.252C177.458 145.408 178.007 146.961 178.007 148.922V152.149C178.007 152.813 177.985 153.957 177.951 155.578V157.145C177.951 157.414 178.028 157.677 178.195 157.934C178.724 158.162 179.176 158.315 179.557 158.384C179.828 158.419 180.086 158.517 180.329 158.668C180.357 158.91 180.392 159.11 180.433 159.271L180.412 159.679C180.031 159.748 179.76 159.784 179.6 159.784C179.488 159.784 179.16 159.748 178.612 159.693C178.062 159.632 177.368 159.597 176.519 159.597C174.475 159.597 172.841 159.665 171.632 159.805C171.54 159.465 171.492 159.194 171.492 158.987L171.512 158.702C171.687 158.613 172.271 158.376 173.265 157.997C173.44 157.816 173.544 157.663 173.571 157.524C173.634 157.192 173.668 156.466 173.668 155.357L173.571 149.634C173.558 148.671 173.481 147.874 173.342 147.251C173.21 146.621 173.007 146.129 172.744 145.768C172.479 145.408 172.125 145.116 171.673 144.882C171.229 144.653 170.756 144.535 170.268 144.535C169.512 144.535 168.732 144.749 167.946 145.179C167.16 145.603 166.459 146.254 165.847 147.12L165.826 147.707L165.867 150.306L165.826 152.432V154.464L165.804 156.272C165.804 157.165 165.896 157.691 166.077 157.85C166.348 158.107 167.008 158.294 168.071 158.398L168.696 158.627C168.808 158.939 168.865 159.181 168.865 159.353C168.865 159.451 168.836 159.61 168.781 159.84L168.19 159.825H167.376L166.952 159.805C165.985 159.707 164.984 159.652 163.955 159.638L161.772 159.597C161.243 159.597 160.326 159.658 159.025 159.784L158.657 159.721L158.636 158.523C159.048 158.398 159.778 158.301 160.841 158.217C160.903 158.205 160.994 158.176 161.104 158.134C161.249 157.962 161.341 157.816 161.369 157.691C161.438 157.422 161.467 156.874 161.467 156.049L161.453 151.927L161.487 150.832C161.487 148.72 161.418 147.418 161.264 146.912C161.076 146.268 160.681 145.734 160.076 145.318C159.471 144.909 158.748 144.702 157.907 144.702C156.808 144.702 155.849 144.965 155.036 145.485C154.215 146.005 153.749 146.468 153.631 146.869C153.617 147.036 153.609 147.154 153.609 147.236L153.631 147.438V147.646C153.631 147.764 153.596 147.958 153.527 148.214L153.589 154.04L153.609 157.082C153.609 157.192 153.625 157.365 153.645 157.608L153.749 157.913C154.132 158.038 154.458 158.12 154.729 158.176C155.23 158.288 155.612 158.405 155.869 158.543C155.912 158.772 155.932 158.939 155.932 159.028C155.932 159.208 155.875 159.458 155.765 159.784C155.549 159.797 155.39 159.805 155.299 159.805C155.146 159.805 154.472 159.742 153.263 159.617L151.037 159.597C149.98 159.597 148.701 159.673 147.193 159.825L146.6 159.805C146.574 159.583 146.547 159.334 146.518 159.049C146.518 158.931 146.553 158.751 146.622 158.523ZM198.504 145.068C199.372 145.907 200.02 146.871 200.451 147.958C200.875 149.046 201.091 150.071 201.091 151.034C201.091 152.85 200.812 154.311 200.256 155.419C199.415 157.096 198.281 158.335 196.855 159.132C195.432 159.929 193.77 160.331 191.885 160.331C189.765 160.331 187.971 159.854 186.497 158.91C185.022 157.962 183.972 156.888 183.34 155.682C182.707 154.477 182.394 152.98 182.394 151.193C182.394 150.292 182.54 149.378 182.838 148.463C183.137 147.556 183.548 146.759 184.07 146.08C184.599 145.402 185.167 144.835 185.794 144.376C186.705 143.724 187.616 143.261 188.533 142.984C189.451 142.707 190.563 142.568 191.864 142.568C194.701 142.568 196.918 143.4 198.504 145.068ZM187.366 152.087C187.484 153.769 187.574 154.733 187.629 154.99C187.804 155.897 188.081 156.674 188.464 157.324C188.721 157.746 189.146 158.113 189.743 158.439C190.341 158.765 191.058 158.931 191.885 158.931C192.88 158.931 193.713 158.613 194.387 157.983C195.069 157.359 195.556 156.375 195.855 155.031C196.049 154.152 196.14 152.71 196.14 150.708C196.14 148.248 195.737 146.502 194.917 145.485C194.104 144.46 193.033 143.954 191.705 143.954C190.655 143.954 189.793 144.244 189.103 144.827C188.415 145.408 187.942 146.268 187.672 147.403C187.49 148.131 187.386 149.697 187.366 152.087ZM202.536 170.176V169.26C202.781 169.108 202.962 169.012 203.066 168.956L204.636 168.389C205.29 168.132 205.652 167.924 205.735 167.778C205.951 167.37 206.047 166.656 206.02 165.623L205.882 157.546L205.672 147.499C205.638 146.773 205.477 146.254 205.208 145.942C204.935 145.63 204.212 145.305 203.045 144.965L203.031 143.912C204.359 143.655 205.477 143.337 206.389 142.956C207.057 142.685 207.961 142.173 209.099 141.412L210.136 141.39L210.156 141.959L210.136 144.154C210.136 144.238 210.144 144.438 210.156 144.764C211.339 144.042 212.306 143.571 213.07 143.345C214.184 143.019 215.414 142.852 216.756 142.852C218.14 142.852 219.37 143.204 220.441 143.912C220.525 143.96 220.643 144.036 220.788 144.134C221.47 144.619 221.962 145.09 222.276 145.532C222.958 146.496 223.443 147.438 223.744 148.374C223.972 149.079 224.09 149.96 224.09 151.013C224.09 152.418 223.903 153.61 223.542 154.588C223.174 155.557 222.539 156.541 221.644 157.532C220.747 158.517 219.787 159.222 218.765 159.638C217.735 160.06 216.658 160.268 215.532 160.268C214.42 160.268 213.628 160.199 213.154 160.068C212.243 159.811 211.339 159.43 210.443 158.931C210.4 159.147 210.38 159.291 210.38 159.375L210.443 159.921C210.456 160.074 210.463 160.255 210.463 160.47C210.463 160.567 210.449 161.1 210.421 162.076L210.484 165.769C210.484 165.853 210.478 166.122 210.463 166.581V166.801C210.463 167.308 210.498 167.667 210.567 167.902C210.616 168.034 210.734 168.187 210.908 168.346C211.048 168.403 211.172 168.464 211.297 168.526C211.722 168.609 212.089 168.693 212.41 168.776C212.73 168.852 213.064 168.921 213.418 168.978C213.536 169.123 213.599 169.323 213.599 169.565C213.599 169.712 213.591 169.934 213.577 170.217H213.21C212.423 170.217 211.875 170.203 211.561 170.176L208.488 169.912H207.731L207.022 169.891L206.305 169.948L205.208 170.009C204.797 170.023 204.351 170.058 203.864 170.113C203.371 170.168 203.023 170.197 202.801 170.197L202.536 170.176ZM210.262 155.661C210.311 155.822 210.345 155.946 210.359 156.03C210.512 156.652 210.7 157.088 210.928 157.345C211.353 157.83 211.832 158.156 212.375 158.321C213.188 158.551 213.905 158.668 214.517 158.668C215.22 158.668 215.914 158.517 216.582 158.217C217.256 157.92 217.798 157.526 218.201 157.019C218.258 156.951 218.342 156.86 218.446 156.735C218.543 156.519 218.619 156.36 218.675 156.25C219.217 155.198 219.488 154.069 219.488 152.883C219.488 150.687 218.835 148.844 217.527 147.34C216.623 146.274 215.33 145.734 213.662 145.734C212.667 145.734 211.541 145.991 210.282 146.51C210.241 147.036 210.219 148.518 210.219 150.95L210.282 154.872C210.282 154.962 210.274 155.225 210.262 155.661ZM226.406 158.584C226.628 158.529 227.228 158.446 228.222 158.343C228.659 158.288 228.93 158.191 229.034 158.058C229.174 157.85 229.244 157.373 229.244 156.617V155.178L229.299 153.653V151.99L229.319 151.582L229.299 150.569L229.34 150.224L229.423 142.852V142.283C229.423 139.769 229.354 138.21 229.222 137.615C229.138 137.268 228.944 136.991 228.639 136.783C228.332 136.582 227.617 136.396 226.491 136.215V135.792C226.491 135.591 226.503 135.336 226.532 135.036L228.242 134.677C228.582 134.58 228.91 134.498 229.222 134.435C229.981 134.268 230.94 133.929 232.094 133.416C232.294 133.291 232.483 133.195 232.665 133.112L233.762 133.195L233.721 145.332C234.959 144.354 236.086 143.669 237.1 143.261C238.122 142.852 239.179 142.652 240.277 142.652C241.327 142.652 242.231 142.837 243.003 143.212C243.767 143.579 244.359 144.044 244.783 144.59C245.2 145.137 245.499 145.803 245.68 146.586C245.797 147.12 245.86 148.131 245.86 149.634V150.93L245.882 153.792L245.776 157.934C245.833 158.058 245.895 158.134 245.964 158.176C246.125 158.246 246.528 158.343 247.167 158.46C247.528 158.529 247.815 158.592 248.022 158.647C248.128 158.847 248.183 159.008 248.183 159.132L248.163 159.291C248.134 159.444 248.12 159.666 248.12 159.964L247.654 159.984C247.452 159.984 247.049 159.958 246.451 159.903C245.312 159.797 244.351 159.742 243.581 159.742C243.079 159.742 242.404 159.77 241.563 159.825C240.966 159.846 240.207 159.86 239.283 159.86C239.13 159.86 238.998 159.84 238.873 159.805V159.313L238.831 159.049C238.831 158.945 238.867 158.794 238.935 158.606C239.248 158.454 239.609 158.357 240.028 158.309C240.437 158.26 240.833 158.211 241.195 158.156C241.25 157.899 241.286 157.74 241.299 157.671L241.404 154.705V149.731C241.404 148.263 241.321 147.265 241.152 146.739C240.993 146.219 240.653 145.797 240.14 145.463C239.625 145.131 238.998 144.965 238.261 144.965C237.405 144.965 236.578 145.165 235.772 145.561C234.959 145.962 234.27 146.433 233.699 146.975V150.528C233.699 152.475 233.679 153.936 233.638 154.915C233.61 155.496 233.603 155.855 233.603 156.008C233.603 156.943 233.658 157.581 233.783 157.934C233.84 158.101 233.986 158.246 234.229 158.384C234.736 158.419 235.153 158.446 235.487 158.454C235.815 158.46 236.086 158.488 236.286 158.543C236.314 158.884 236.328 159.12 236.328 159.257C236.328 159.444 236.3 159.673 236.245 159.942L233.986 159.84C233.131 159.777 232.365 159.742 231.683 159.742L228.833 159.88L226.837 159.86C226.699 159.673 226.558 159.334 226.406 158.847V158.584ZM266.31 145.068C267.178 145.907 267.825 146.871 268.256 147.958C268.68 149.046 268.896 150.071 268.896 151.034C268.896 152.85 268.617 154.311 268.061 155.419C267.22 157.096 266.086 158.335 264.661 159.132C263.237 159.929 261.574 160.331 259.69 160.331C257.569 160.331 255.776 159.854 254.302 158.91C252.828 157.962 251.777 156.888 251.144 155.682C250.513 154.477 250.199 152.98 250.199 151.193C250.199 150.292 250.346 149.378 250.643 148.463C250.942 147.556 251.354 146.759 251.875 146.08C252.404 145.402 252.973 144.835 253.6 144.376C254.51 143.724 255.42 143.261 256.338 142.984C257.257 142.707 258.369 142.568 259.67 142.568C262.506 142.568 264.724 143.4 266.31 145.068ZM255.171 152.087C255.288 153.769 255.379 154.733 255.434 154.99C255.609 155.897 255.886 156.674 256.269 157.324C256.526 157.746 256.95 158.113 257.548 158.439C258.147 158.765 258.863 158.932 259.69 158.932C260.684 158.932 261.519 158.614 262.193 157.983C262.875 157.359 263.36 156.375 263.659 155.031C263.854 154.152 263.944 152.71 263.944 150.708C263.944 148.248 263.541 146.502 262.722 145.485C261.908 144.46 260.838 143.954 259.509 143.954C258.458 143.954 257.597 144.244 256.909 144.827C256.22 145.408 255.748 146.268 255.477 147.403C255.296 148.131 255.192 149.697 255.171 152.087ZM271.24 158.828C271.592 158.669 271.92 158.557 272.219 158.502C272.963 158.384 273.4 158.28 273.519 158.197C273.728 158.08 273.859 157.927 273.93 157.754C274.013 157.483 274.048 156.888 274.048 155.967V154.201L274.068 152.758L274.013 150.624V149.35C274.013 148.498 273.944 147.799 273.804 147.258C273.748 147.057 273.582 146.849 273.296 146.649C272.914 146.378 272.274 146.113 271.364 145.858L271.342 144.882C271.517 144.827 271.676 144.792 271.822 144.772C271.961 144.749 272.511 144.619 273.456 144.376C274.207 144.105 274.687 143.919 274.903 143.808C274.972 143.767 275.083 143.704 275.229 143.628C275.396 143.489 275.577 143.357 275.779 143.22C276.188 142.935 276.676 142.444 277.245 141.736L278.33 141.653L278.289 143.954C278.275 144.182 278.269 144.362 278.269 144.501C278.269 144.605 278.275 144.916 278.289 145.428C279.415 144.46 280.438 143.779 281.362 143.4C282.572 142.9 283.718 142.652 284.803 142.652C286.084 142.652 287.202 142.963 288.169 143.593C289.128 144.223 289.762 144.951 290.061 145.776C290.36 146.6 290.511 148.27 290.511 150.771L290.429 157.387C290.429 157.699 290.484 157.954 290.588 158.156C290.727 158.266 291.102 158.37 291.707 158.46L292.708 158.647C292.834 158.821 292.889 159.036 292.889 159.291C292.889 159.458 292.882 159.679 292.869 159.964L288.878 159.679L287.697 159.721H286.764L284.073 159.923H283.378C283.364 159.748 283.358 159.611 283.358 159.52C283.358 159.271 283.372 159.008 283.398 158.724C283.587 158.682 284.066 158.62 284.824 158.523C285.033 158.494 285.255 158.446 285.5 158.384C285.77 158.274 285.923 158.162 285.964 158.058C286.076 157.824 286.131 157.387 286.131 156.735C286.131 155.6 286.117 154.727 286.09 154.118L286.111 151.761C286.125 148.907 285.944 147.134 285.581 146.427C285.062 145.409 284.288 144.902 283.26 144.902C282.494 144.902 281.71 145.098 280.896 145.485C280.083 145.866 279.241 146.455 278.373 147.236L278.33 147.584L278.373 148.865L278.351 150.224L278.428 153.472L278.385 153.977C278.385 156.181 278.477 157.428 278.658 157.712C278.831 157.997 279.505 158.309 280.674 158.647C280.708 158.877 280.729 159.043 280.729 159.153C280.729 159.313 280.688 159.562 280.59 159.903C280.165 159.915 279.819 159.923 279.533 159.923C279.241 159.923 278.796 159.88 278.184 159.805L276.009 159.762C274.917 159.762 273.352 159.811 271.301 159.903C271.246 159.77 271.217 159.624 271.217 159.479C271.217 159.367 271.225 159.153 271.24 158.828ZM295.191 149.107C295.545 147.958 295.858 147.189 296.129 146.814C296.887 145.699 297.701 144.835 298.563 144.217C299.426 143.593 300.204 143.178 300.892 142.978C301.79 142.721 302.519 142.589 303.077 142.589C304.348 142.589 305.384 142.686 306.17 142.886C306.956 143.082 307.616 143.365 308.145 143.724C308.909 144.252 309.521 144.792 309.98 145.332C310.438 145.872 310.821 146.51 311.112 147.238C311.405 147.972 311.558 148.859 311.586 149.898L309.326 149.856C308.701 149.856 307.331 149.793 305.209 149.676C304.425 149.621 303.883 149.593 303.584 149.593C303.486 149.593 302.757 149.599 301.387 149.613H299.634C299.607 149.8 299.593 149.967 299.593 150.098C299.593 150.82 299.675 151.574 299.857 152.365C300.03 153.154 300.295 153.853 300.649 154.456C301.004 155.059 301.442 155.571 301.963 156.008C302.484 156.438 303.028 156.749 303.584 156.943L304.765 157.324C305.809 157.324 306.51 157.29 306.864 157.228C307.512 157.088 308.088 156.916 308.581 156.708C309.084 156.501 309.681 156.14 310.389 155.641C310.876 155.995 311.281 156.313 311.607 156.597C310.411 157.907 309.173 158.857 307.895 159.444C306.608 160.033 305.176 160.331 303.584 160.331C302.513 160.331 301.637 160.235 300.955 160.047C300.043 159.805 299.224 159.43 298.493 158.932C297.758 158.425 297.125 157.809 296.595 157.061C296.068 156.319 295.671 155.551 295.413 154.768C295.072 153.743 294.905 152.913 294.905 152.295C294.905 151.117 295.003 150.049 295.191 149.107ZM307.025 148.235C307.011 147.473 306.864 146.753 306.579 146.06C306.294 145.373 305.85 144.833 305.252 144.445C304.653 144.064 304.05 143.871 303.437 143.871C302.533 143.871 301.706 144.266 300.976 145.068C300.246 145.866 299.829 146.945 299.731 148.311L304.376 148.331C304.675 148.331 305.099 148.311 305.641 148.276C306.038 148.235 306.316 148.214 306.475 148.214C306.601 148.214 306.783 148.221 307.025 148.235Z" fill="#052C9E"/>
<path fill-rule="evenodd" clip-rule="evenodd" d="M88.0273 175.893L88.6951 175.908L88.8794 175.879H89.2779L89.6622 175.908H89.689L89.8606 175.879L90.33 175.922H90.6985L91.012 176.007L91.1537 176.163L91.2813 176.276L91.2246 176.728L91.1821 176.857L90.9694 177.026L90.5426 177.068H90.1441L90.1158 177.082L89.8748 177.139H89.6622L89.1787 177.168C89.1645 177.168 89.1361 177.168 89.122 177.182L89.0495 177.21C89.0086 177.224 88.9786 177.253 88.9645 177.309L88.9078 177.437C88.9078 177.451 88.8936 177.451 88.8936 177.479L88.8511 177.89L88.8227 178.399V178.428L88.8511 178.626L88.8227 178.754V178.81L88.8511 179.037L88.8227 179.207V179.25L88.8369 179.476L88.8652 179.688V179.9L88.8227 180.07V180.127L88.8511 180.354L88.8652 180.551L88.8511 180.793L88.8652 180.99V181.174L88.8511 181.429L88.8227 181.784L88.8369 181.996L88.7802 182.351L88.5959 182.718L88.4116 182.902L87.999 182.86L87.7848 182.675L87.6871 182.351L87.6572 182.025C87.6572 182.011 87.643 181.996 87.643 181.982L87.6005 181.826L87.6304 181.429L87.643 181.217V181.16L87.6147 180.977L87.6304 180.765V180.708L87.6005 180.538L87.6147 180.311L87.6304 180.127V179.943V179.914L87.5863 179.675L87.6147 179.221V179.065L87.643 178.867V178.81L87.6304 178.598L87.643 178.146L87.6005 177.72L87.6147 177.579C87.6147 177.564 87.6147 177.522 87.6005 177.508L87.5438 177.366C87.5438 177.352 87.5155 177.338 87.5155 177.338L87.4729 177.267C87.4588 177.238 87.4162 177.224 87.3879 177.21L87.202 177.139L87.0619 177.097C87.0461 177.082 87.0036 177.082 86.9894 177.082L86.6634 177.111L86.4224 177.097H86.3925H86.0665L85.7814 177.054L85.427 176.969L85.3136 176.87L85.186 176.715V176.262L85.2853 176.148L85.5121 175.993L85.8397 175.893L86.1799 175.908H86.2082L86.5642 175.865L86.7768 175.879L86.9611 175.922L86.9894 175.936H87.1894C87.202 175.936 87.2178 175.922 87.232 175.922L87.4162 175.865L87.5863 175.908L87.6147 175.922H87.8572L88.0273 175.893ZM94.9621 179.645L94.9904 179.221L94.9762 179.051L95.0046 178.81V178.754L94.9621 178.598L94.9762 178.371L95.0188 178.172V177.733L95.0046 177.706L94.9621 177.465L95.0046 177.309L95.0188 177.281V176.785L95.0613 176.29L95.1605 176.12L95.3731 175.993L95.7291 175.922L96.2126 175.893L96.3544 175.936C96.3827 175.95 96.3969 175.95 96.4111 175.95L96.6379 175.936L96.8095 175.922L97.0647 175.893L97.249 175.922H97.2915L97.5057 175.893L97.6616 175.908L97.8601 175.95H97.8884L98.131 175.936H98.3294L98.7846 175.908L98.983 175.978L99.3799 176.063L99.8209 176.163L100.007 176.29L100.177 176.375L100.361 176.503L100.503 176.63L100.646 176.771L100.774 176.969L100.887 177.139L101.001 177.338L101.071 177.479L101.272 177.89L101.284 178.101V178.3C101.284 178.314 101.3 178.328 101.3 178.342L101.357 178.583L101.328 178.796V178.995L101.272 179.221L101.215 179.432L101.1 179.574C101.086 179.602 101.071 179.602 101.071 179.631L101.015 179.815L100.916 179.985L100.774 180.184L100.503 180.425L100.446 180.481L100.404 180.595L100.205 180.834C100.177 180.877 100.149 180.933 100.163 180.99L100.234 181.288C100.234 181.302 100.248 181.316 100.262 181.344L100.347 181.444L100.588 181.855L100.66 182.053L100.788 182.392L100.689 182.562L100.404 182.888L100.248 182.945L100.007 182.93L99.6508 182.675L99.5658 182.534L99.2949 182.151L99.2098 181.968L98.9689 181.571L98.7846 181.33C98.7704 181.302 98.7421 181.302 98.7279 181.288L98.6413 181.231C98.6287 181.217 98.5846 181.203 98.5704 181.203L98.3719 181.188H98.0302L97.8034 181.16L97.534 181.146H97.3198L97.1072 181.132L96.8095 181.16L96.4961 181.217C96.4819 181.217 96.4678 181.231 96.4536 181.231L96.3544 181.288C96.326 181.302 96.3118 181.316 96.2977 181.344L96.241 181.444C96.2268 181.458 96.2268 181.5 96.2268 181.515L96.1984 181.911L96.1827 182.124L96.1685 182.491L95.9134 182.845L95.7291 182.93L95.2881 182.845L95.1463 182.633L95.0314 182.208L94.9762 181.812L95.0188 181.642V181.571L94.9621 181.344L95.0188 181.188V181.118V180.919L94.9904 180.708L94.9621 180.226L95.0046 180.07V179.999L94.9762 179.886L94.9621 179.645ZM97.9168 177.168L97.534 177.182L97.3072 177.153L97.0647 177.139H97.0363L96.6662 177.196L96.4536 177.253C96.3969 177.267 96.3402 177.295 96.326 177.352L96.2268 177.593C96.2268 177.607 96.2126 177.621 96.2126 177.649L96.1984 177.903V178.342L96.2126 178.371L96.2551 178.569L96.2268 178.768L96.2126 178.966L96.2268 179.235L96.2551 179.476L96.3118 179.675C96.3118 179.702 96.3402 179.702 96.3544 179.73L96.4252 179.815C96.4394 179.843 96.4678 179.843 96.4961 179.858L96.7087 179.943C96.7371 179.957 96.7528 179.943 96.7654 179.943H97.008L97.2348 179.928L97.4206 179.957H97.6474L97.8034 179.928L98.0459 179.943H98.216L98.3861 179.928L98.8129 179.914H98.8555L99.2665 179.773L99.4524 179.73C99.4807 179.716 99.4949 179.716 99.5091 179.702L99.6367 179.588C99.6508 179.574 99.665 179.574 99.6792 179.546L99.7501 179.404L99.9926 179.094C100.007 179.065 100.019 179.051 100.019 179.009L100.035 178.881L100.063 178.697V178.668L100.049 178.3L100.035 178.257L99.9501 177.89C99.9501 177.862 99.9217 177.818 99.906 177.805L99.7926 177.706L99.6934 177.564L99.6508 177.522L99.5091 177.423L99.3673 177.352C99.3516 177.338 99.339 177.338 99.339 177.338L99.139 177.253L98.7988 177.182H98.7704L98.3294 177.168L98.1735 177.139H98.131L97.9168 177.168ZM110.621 182.193L110.592 182.534L110.493 182.732L110.066 182.93H109.868L109.569 182.675L109.356 182.351L109.186 182.039C109.172 181.996 109.115 181.968 109.072 181.954L108.773 181.869C108.745 181.855 108.717 181.869 108.702 181.869L108.304 181.911L108.162 181.883H108.12L107.879 181.897L107.694 181.869H107.622L107.423 181.911L107.282 181.897C107.268 181.897 107.253 181.883 107.239 181.883L107.027 181.911L106.798 181.897L106.501 181.883H106.444L106.215 181.94H106.187L106.06 181.996L106.017 182.025L105.875 182.152C105.861 182.165 105.847 182.165 105.831 182.193L105.661 182.562L105.292 182.845L105.107 182.959L104.937 182.916L104.738 182.845L104.582 182.689L104.469 182.379L104.568 182.108C104.568 182.096 104.582 182.082 104.582 182.053V181.869L104.752 181.486L104.851 181.359C104.866 181.33 104.894 181.316 104.894 181.274L104.922 181.132L105.022 180.921L105.107 180.736L105.321 180.311L105.491 179.957L105.576 179.787C105.576 179.773 105.59 179.744 105.59 179.744L105.648 179.546L105.705 179.404L105.819 179.179L105.932 178.98L106.003 178.824L106.06 178.64L106.187 178.399L106.258 178.286C106.272 178.257 106.288 178.243 106.288 178.229L106.315 178.061L106.444 177.834L106.513 177.692C106.513 177.678 106.529 177.678 106.529 177.649L106.571 177.451L106.656 177.309L106.77 177.125L106.798 177.097L106.97 176.63L107.197 176.29L107.494 176.049L107.694 176.007H107.921L108.176 176.262L108.417 176.586L108.575 177.012L108.631 177.224L108.717 177.423L108.787 177.579L108.816 177.763C108.816 177.777 108.83 177.791 108.846 177.82L108.945 177.988L109.016 178.172L109.072 178.385L109.158 178.583L109.228 178.754L109.313 178.909L109.384 179.136C109.384 179.136 109.399 179.165 109.399 179.179L109.484 179.321L109.54 179.489L109.625 179.716C109.625 179.716 109.641 179.744 109.641 179.76L109.74 179.9L109.811 180.084L109.896 180.283L109.925 180.481L109.939 180.51L110.082 180.877C110.082 180.877 110.095 180.877 110.095 180.892L110.195 181.061L110.266 181.274L110.281 181.302L110.38 181.472L110.479 181.883L110.493 181.897L110.621 182.193ZM107.395 180.692L107.567 180.707C107.595 180.707 107.623 180.707 107.652 180.692L107.723 180.664L108.02 180.692C108.049 180.692 108.077 180.692 108.105 180.678L108.376 180.551C108.461 180.508 108.49 180.437 108.49 180.366L108.476 180.097C108.476 180.069 108.461 180.069 108.461 180.054L108.334 179.758L108.235 179.532L108.178 179.305C108.178 179.291 108.162 179.276 108.162 179.262L108.091 179.121L107.95 178.908L107.864 178.681C107.836 178.596 107.737 178.555 107.652 178.568H107.579C107.524 178.568 107.466 178.612 107.439 178.667L107.409 178.709C107.409 178.724 107.395 178.724 107.395 178.724L107.282 179.021L107.154 179.177C107.154 179.177 107.14 179.191 107.14 179.206L107.055 179.39V179.402L106.998 179.631L106.756 180.111C106.743 180.141 106.743 180.154 106.743 180.168L106.727 180.338C106.727 180.423 106.784 180.508 106.869 180.536L107.168 180.636L107.395 180.692ZM120.469 178.794L120.455 179.884L120.483 180.069L120.469 180.267L120.427 180.437V181.286L120.455 181.513L120.483 181.726L120.427 182.052V182.107L120.455 182.293L120.327 182.66L120.198 182.787L120.028 182.915L119.575 182.886L119.332 182.66L119.134 182.489L118.836 182.149L118.763 182.037C118.763 182.023 118.735 182.007 118.735 182.007L118.565 181.839L118.48 181.726L118.31 181.555L118.195 181.414L118.011 181.201L117.91 181.088L117.796 180.932L117.655 180.763L117.541 180.593C117.527 180.565 117.513 180.565 117.499 180.549L117.357 180.451L117.201 180.239L117.114 180.14C117.114 180.125 117.114 180.125 117.102 180.111L116.93 179.969L116.803 179.785L116.675 179.658L116.519 179.473L116.39 179.332L116.305 179.163C116.305 179.149 116.291 179.133 116.277 179.121L115.965 178.837C115.965 178.837 115.936 178.837 115.922 178.823L115.823 178.766C115.724 178.709 115.595 178.752 115.538 178.851L115.495 178.922C115.481 178.936 115.467 178.965 115.467 178.993L115.453 179.305L115.467 179.487L115.481 179.686L115.453 179.842V179.899L115.467 180.069L115.453 180.48L115.481 180.747L115.439 180.96V181.003L115.453 181.144V181.371L115.467 181.641L115.424 182.08V182.504L115.267 182.66L114.969 182.886L114.714 182.915L114.344 182.66L114.245 182.122V181.74L114.231 181.499V181.314L114.202 181.102V180.678L114.231 180.466V180.253V180.21L114.188 180.012L114.231 179.842V179.758L114.174 179.587L114.216 179.418L114.231 179.388V179.191L114.174 178.738L114.188 178.525L114.202 178.327L114.231 178.1V178.072V177.492L114.188 177.265L114.216 176.84L114.287 176.514L114.402 176.189L114.572 176.048L114.742 175.991L114.955 176.019L115.325 176.189L115.439 176.331L115.667 176.629C115.667 176.641 115.68 176.629 115.694 176.641L115.851 176.783L115.979 176.925L116.135 177.095L116.22 177.208L116.377 177.364L116.491 177.563C116.491 177.577 116.503 177.577 116.519 177.591L116.93 178.002L117.029 178.199C117.029 178.213 117.058 178.227 117.073 178.242L117.201 178.369L117.371 178.497L117.499 178.681L117.527 178.709L117.655 178.851L117.755 178.993L117.883 179.177L118.011 179.319L118.195 179.487L118.338 179.629L118.551 179.955C118.565 179.984 118.579 179.998 118.593 180.012L118.735 180.097C118.749 180.111 118.763 180.111 118.763 180.111L118.877 180.168C118.99 180.225 119.134 180.168 119.176 180.054L119.233 179.913C119.233 179.899 119.247 179.884 119.247 179.856V179.376V179.346L119.233 179.177L119.204 178.963L119.247 178.738L119.261 178.497V178.468V178.256L119.233 178.031L119.247 177.832L119.261 177.648L119.233 177.407L119.261 176.925V176.514L119.46 176.147L119.631 176.005L120.057 176.019L120.285 176.133L120.441 176.53L120.455 176.953V177.478L120.441 177.648V177.69L120.469 177.916L120.455 178.128V178.327L120.441 178.582L120.469 178.794ZM127.048 183.198H126.72L126.494 183.141L126.437 183.127L126.295 183.141L126.082 183.113L125.868 183.028L125.67 182.943L125.441 182.872L125.257 182.773L125.115 182.603L124.802 182.305L124.632 182.179L124.504 182.009L124.448 181.853C124.448 181.853 124.433 181.825 124.433 181.811L124.32 181.641L124.263 181.47L124.248 181.314L124.235 181.258L124.163 181.088L124.134 180.634L124.177 180.466L124.205 180.253L124.292 180.04L124.433 179.672L124.802 179.418L125.002 179.402L125.371 179.516L125.528 179.714V180.083L125.484 180.338L125.427 180.691L125.399 180.875V180.946L125.441 181.088C125.441 181.088 125.456 181.102 125.456 181.116L125.541 181.286C125.541 181.3 125.569 181.314 125.569 181.314L125.67 181.428L125.783 181.57L125.812 181.598L126.095 181.811L126.139 181.839L126.323 181.91L126.536 181.951H126.579L126.763 181.938L126.935 181.951H126.977L127.176 181.896H127.331C127.36 181.896 127.404 181.896 127.417 181.881L127.588 181.782L127.744 181.683L127.9 181.57C127.914 181.555 127.943 181.555 127.957 181.527L128.143 181.244L128.327 180.932C128.341 180.918 128.341 180.875 128.341 180.861L128.355 180.735V180.678L128.313 180.466V180.437L128.242 180.267L128.155 180.069L128.114 180.012L127.815 179.758L127.687 179.672L127.331 179.459C127.317 179.459 127.303 179.431 127.289 179.431L127.034 179.361L126.878 179.276L126.864 179.262L126.409 179.092L126.168 179.007L125.84 178.78L125.826 178.766L125.613 178.653L125.456 178.483L125.243 178.072L125.186 177.946L125.172 177.705L125.158 177.506L125.172 177.308V177.095L125.271 176.925C125.271 176.911 125.286 176.897 125.286 176.897L125.342 176.727L125.585 176.36L125.755 176.232C125.769 176.218 125.783 176.218 125.783 176.218L125.925 176.062L126.111 175.948L126.281 175.906H126.295L126.508 175.807L126.678 175.75L126.949 175.736H127.36L127.531 175.807L127.716 175.892C127.73 175.892 127.744 175.906 127.758 175.906L127.985 175.934L128.299 176.232L128.44 176.388L128.61 176.558L128.669 176.755L128.823 177.18L128.738 177.549L128.625 177.705L128.199 177.845L128.015 177.804L127.673 177.435L127.445 177.166C127.432 177.138 127.417 177.138 127.404 177.123L127.246 177.038L127.105 176.982C127.076 176.967 127.048 176.953 127.005 176.967L126.85 177.01L126.706 177.053C126.678 177.067 126.635 177.081 126.621 177.109L126.451 177.308C126.423 177.336 126.409 177.379 126.409 177.435L126.423 177.534C126.423 177.577 126.451 177.591 126.465 177.62L126.607 177.804C126.621 177.832 126.649 177.832 126.664 177.845L127.02 178.031C127.034 178.031 127.048 178.043 127.062 178.043L127.232 178.072L127.588 178.242L127.73 178.341C127.744 178.341 127.758 178.369 127.772 178.369L127.985 178.426L128.313 178.624L128.511 178.709L128.81 179.007L128.995 179.133L129.094 179.262L129.264 179.431L129.307 179.658C129.307 179.672 129.321 179.686 129.321 179.7L129.421 179.87L129.521 180.054L129.563 180.267L129.592 180.423L129.563 180.691L129.549 180.848L129.563 181.102L129.507 181.272L129.407 181.456V181.485L129.365 181.669L129.136 182.066L128.853 182.378L128.681 182.475L128.639 182.504L128.497 182.645L128.327 182.759L128.155 182.858L127.943 182.943L127.787 182.986L127.574 183.085L127.388 183.113L127.048 183.198ZM133.258 179.686L133.272 179.248V179.007L133.315 178.865V178.809L133.287 178.61L133.315 178.383L133.287 178.144L133.258 177.93L133.315 177.747V177.676L133.287 177.563L133.258 177.336L133.315 176.826L133.4 176.331L133.471 176.133L133.669 175.991L134.11 175.92H134.551L134.978 175.948L135.162 175.934H135.375L135.588 175.948H135.644L135.788 175.92L135.986 175.934L136.17 175.963L136.199 175.977H136.427C136.441 175.977 136.455 175.963 136.455 175.963L136.626 175.92L136.852 175.948L137.052 175.963C137.067 175.963 137.095 175.977 137.109 175.963L137.251 175.906H137.508L137.692 175.963H137.734L138.103 175.934L138.287 175.948H138.728L139.013 175.963L139.268 176.133L139.398 176.289L139.424 176.783L139.339 176.941L139.013 177.109L138.572 177.152L138.145 177.18L137.933 177.152L137.72 177.138H137.692L137.479 177.166L137.308 177.152L137.109 177.166L136.896 177.123C136.868 177.109 136.838 177.109 136.811 177.123L136.668 177.166L136.526 177.138H136.47L136.227 177.18L136.071 177.152L136.043 177.138H135.873L135.66 177.166H135.091H135.063L134.792 177.208C134.764 177.208 134.721 177.237 134.707 177.251L134.636 177.322C134.622 177.336 134.594 177.379 134.594 177.407L134.509 177.761C134.509 177.788 134.495 177.804 134.509 177.845L134.551 177.974L134.537 178.199V178.227L134.58 178.568C134.58 178.582 134.594 178.624 134.608 178.639L134.665 178.724C134.693 178.766 134.75 178.794 134.792 178.794L135.177 178.823L135.66 178.88H135.701L135.901 178.851H136.099L136.356 178.837L136.526 178.823L136.753 178.851L137.251 178.865L137.706 178.965L137.862 179.092L137.947 179.291L137.989 179.686L137.834 179.814L137.649 179.969L137.251 180.083H136.796L136.583 180.069L136.399 180.097L135.986 180.083L135.745 180.069L135.547 180.097L135.134 180.111L134.75 180.182C134.665 180.196 134.608 180.267 134.594 180.352L134.551 180.678L134.523 181.13L134.495 181.343L134.48 181.57V181.626L134.537 181.839L134.48 182.248L134.452 182.546L134.195 182.872L133.855 182.971L133.657 182.901L133.386 182.574L133.301 182.122L133.315 181.626V181.47V181.442L133.287 181.187L133.272 181.017L133.315 180.792V180.735L133.272 180.522V180.352L133.287 180.083V179.87L133.258 179.686ZM149.144 179.191V179.587L149.087 179.758C149.087 179.771 149.074 179.785 149.074 179.814V180.04L149.03 180.225L148.974 180.437L148.874 180.662L148.832 180.861L148.733 181.017L148.605 181.215L148.49 181.385L148.377 181.57L148.277 181.711L148.136 181.896L147.994 182.023L147.81 182.179L147.638 182.321L147.239 182.532L147.084 182.589C147.069 182.589 147.055 182.603 147.041 182.603L146.913 182.688L146.701 182.773L146.444 182.858L146.288 182.844H146.246L146.076 182.872L146.061 182.886L145.847 182.957L145.179 182.901H145.151L144.995 182.915L144.767 182.844L144.54 182.759L144.341 182.716L144.127 182.631L143.957 182.56L143.773 182.434L143.603 182.348L143.445 182.22L143.233 182.037L143.077 181.91L142.935 181.782L142.834 181.598L142.707 181.4L142.579 181.229L142.48 181.088L142.352 180.905L142.31 180.707C142.31 180.691 142.296 180.678 142.296 180.662L142.196 180.492L142.124 180.253L142.096 180.054L142.039 179.842V179.672L142.025 179.206L142.053 179.021L142.124 178.78V178.724V178.61L142.181 178.398L142.296 178.144L142.338 177.958L142.423 177.747L142.565 177.62C142.593 177.591 142.593 177.577 142.593 177.563L142.664 177.393L142.806 177.265C142.822 177.251 142.85 177.237 142.85 177.223L142.907 177.109L143.063 176.911L143.218 176.783L143.404 176.629L143.574 176.487L143.716 176.43C143.73 176.416 143.745 176.416 143.759 176.416L143.929 176.289L144.171 176.175L144.313 176.147C144.327 176.147 144.341 176.147 144.356 176.133L144.526 176.048L144.726 175.991L144.924 175.948L145.151 175.92H145.179L145.364 175.878L145.79 175.92H145.833L146.031 175.878L146.203 175.963C146.217 175.977 146.246 175.977 146.26 175.977L146.444 175.991L146.658 176.019L146.857 176.119L146.998 176.202C147.013 176.218 147.027 176.218 147.027 176.218L147.239 176.289L147.425 176.4L147.567 176.501C147.567 176.501 147.581 176.501 147.595 176.514L147.794 176.615L147.951 176.755L148.065 176.941L148.192 177.081L148.221 177.109L148.391 177.251L148.463 177.393C148.463 177.407 148.476 177.421 148.49 177.435L148.618 177.549L148.674 177.747C148.674 177.775 148.69 177.775 148.704 177.804L148.832 177.958L148.86 178.1C148.86 178.128 148.874 178.128 148.874 178.144L148.988 178.383L149.016 178.525L149.044 178.766L149.103 178.993L149.144 179.191ZM145.792 177.095L145.392 177.138L145.137 177.152L145.009 177.166C144.995 177.166 144.981 177.166 144.967 177.18L144.74 177.279L144.627 177.322C144.597 177.336 144.584 177.336 144.568 177.35L144.412 177.492L144.228 177.534L144.143 177.591L144.03 177.719L143.872 177.846C143.858 177.861 143.844 177.846 143.844 177.861L143.73 178.002C143.73 178.015 143.716 178.015 143.716 178.031L143.631 178.213L143.518 178.383C143.518 178.398 143.489 178.398 143.489 178.426L143.433 178.582L143.39 178.809L143.304 178.95C143.291 178.965 143.291 179.007 143.291 179.021V179.177L143.275 179.629C143.275 179.658 143.291 179.673 143.291 179.686L143.332 179.842L143.404 180.012L143.447 180.267L143.489 180.395C143.489 180.409 143.504 180.409 143.504 180.423L143.603 180.593C143.603 180.606 143.617 180.621 143.617 180.621L143.759 180.763L143.83 180.932L143.872 180.988L144.014 181.102L144.143 181.244L144.186 181.272L144.37 181.371L144.512 181.47L144.712 181.57C144.726 181.584 144.754 181.584 144.768 181.584H144.924L145.066 181.669C145.08 181.683 145.108 181.683 145.137 181.683L145.776 181.697L146.189 181.669C146.203 181.669 146.217 181.655 146.231 181.655L146.403 181.598L146.587 181.513L146.628 181.485L146.786 181.357L146.913 181.258L147.085 181.116L147.239 181.017L147.298 180.96L147.383 180.848L147.496 180.634L147.624 180.508C147.64 180.492 147.652 180.492 147.652 180.48L147.737 180.295L147.81 180.14C147.824 180.125 147.824 180.083 147.824 180.069V179.884L147.851 179.643V179.248L147.838 179.021L147.81 178.837V178.809L147.725 178.582L147.652 178.426L147.581 178.227C147.567 178.213 147.567 178.199 147.539 178.171L147.439 178.072L147.326 177.901L147.199 177.719C147.199 177.705 147.17 177.69 147.154 177.69L147.013 177.577C147.013 177.577 146.998 177.577 146.984 177.563L146.828 177.492L146.687 177.364C146.672 177.35 146.658 177.35 146.628 177.336L146.458 177.294L146.246 177.194C146.231 177.18 146.203 177.18 146.189 177.18L146.019 177.166L145.861 177.109C145.849 177.095 145.805 177.095 145.792 177.095ZM152.654 179.643L152.683 179.22L152.668 179.05L152.697 178.809V178.752L152.654 178.596L152.668 178.369L152.711 178.171V177.731L152.697 177.705L152.654 177.464L152.697 177.308L152.711 177.279V176.783L152.755 176.289L152.853 176.119L153.067 175.991L153.421 175.92L153.905 175.892L154.048 175.934C154.077 175.948 154.089 175.948 154.105 175.948L154.332 175.934L154.502 175.92L154.759 175.892L154.943 175.92H154.985L155.198 175.892L155.354 175.906L155.554 175.948H155.582L155.823 175.934H156.023L156.477 175.906L156.675 175.977L157.074 176.062L157.515 176.161L157.699 176.289L157.869 176.374L158.055 176.501L158.197 176.629L158.338 176.769L158.466 176.967L158.579 177.138L158.694 177.336L158.765 177.478L158.964 177.889L158.978 178.1V178.298C158.978 178.313 158.992 178.327 158.992 178.341L159.049 178.582L159.02 178.794V178.993L158.964 179.22L158.907 179.431L158.794 179.573C158.779 179.601 158.765 179.601 158.765 179.629L158.709 179.814L158.608 179.984L158.466 180.182L158.197 180.423L158.14 180.48L158.097 180.593L157.897 180.833C157.869 180.875 157.841 180.932 157.855 180.988L157.927 181.286C157.927 181.3 157.94 181.314 157.956 181.343L158.041 181.442L158.282 181.853L158.353 182.052L158.482 182.39L158.381 182.56L158.097 182.886L157.94 182.943L157.699 182.929L157.345 182.674L157.258 182.532L156.989 182.149L156.904 181.967L156.663 181.57L156.477 181.329C156.463 181.3 156.434 181.3 156.42 181.286L156.335 181.229C156.321 181.215 156.278 181.201 156.264 181.201L156.066 181.187H155.724L155.496 181.159L155.226 181.144H155.014L154.801 181.13L154.502 181.159L154.19 181.215C154.174 181.215 154.162 181.229 154.147 181.229L154.048 181.286C154.02 181.3 154.004 181.314 153.99 181.343L153.933 181.442C153.919 181.456 153.919 181.499 153.919 181.513L153.891 181.91L153.877 182.122L153.862 182.489L153.607 182.844L153.421 182.929L152.982 182.844L152.84 182.631L152.725 182.206L152.668 181.811L152.711 181.641V181.57L152.654 181.343L152.711 181.187V181.116V180.918L152.683 180.707L152.654 180.225L152.697 180.069V179.998L152.668 179.884L152.654 179.643ZM155.609 177.166L155.226 177.18L154.999 177.152L154.757 177.138H154.729L154.36 177.194L154.146 177.251C154.089 177.265 154.032 177.294 154.018 177.35L153.919 177.591C153.919 177.605 153.905 177.62 153.905 177.648L153.891 177.901V178.341L153.905 178.369L153.947 178.568L153.919 178.766L153.905 178.965L153.919 179.234L153.947 179.475L154.004 179.673C154.004 179.7 154.032 179.7 154.047 179.728L154.117 179.814C154.133 179.842 154.16 179.842 154.19 179.856L154.403 179.941C154.431 179.955 154.445 179.941 154.459 179.941H154.7L154.929 179.927L155.113 179.955H155.34L155.496 179.927L155.738 179.941H155.908L156.078 179.927L156.505 179.913H156.548L156.96 179.771L157.145 179.728C157.173 179.714 157.187 179.714 157.201 179.7L157.33 179.587C157.343 179.573 157.359 179.573 157.371 179.544L157.444 179.402L157.685 179.092C157.699 179.064 157.713 179.05 157.713 179.007L157.727 178.88L157.756 178.695V178.667L157.742 178.298L157.727 178.256L157.642 177.889C157.642 177.861 157.614 177.816 157.6 177.804L157.486 177.705L157.387 177.563L157.343 177.52L157.201 177.421L157.06 177.35C157.045 177.336 157.031 177.336 157.031 177.336L156.833 177.251L156.491 177.18H156.463L156.022 177.166L155.866 177.138H155.823L155.609 177.166ZM162.728 179.7L162.7 179.247L162.756 179.076V179.02V178.639L162.772 178.412V178.256L162.756 178.015L162.728 177.788L162.7 177.605V177.208L162.728 177.067V177.038V176.698L162.843 176.388L162.871 176.232L163.013 176.104L163.426 175.948L163.667 176.062L164.008 176.36L164.335 176.769L164.448 176.882L164.561 177.081C164.575 177.109 164.59 177.123 164.605 177.138L164.776 177.265L164.846 177.393L165.187 177.788L165.286 177.93C165.286 177.946 165.302 177.958 165.302 177.958L165.443 178.087L165.571 178.27C165.571 178.284 165.585 178.298 165.585 178.298L165.727 178.426L165.828 178.596L165.968 178.78L166.281 179.161C166.281 179.177 166.295 179.191 166.31 179.191L166.607 179.388C166.68 179.445 166.765 179.445 166.836 179.388L167.105 179.206C167.119 179.206 167.133 179.177 167.133 179.177L167.404 178.88L167.546 178.681L167.659 178.568C167.674 178.554 167.688 178.554 167.702 178.525L167.773 178.355L167.916 178.213L168.256 177.816L168.327 177.705L168.455 177.534L168.598 177.336L168.726 177.237L168.867 177.081C168.867 177.081 168.882 177.081 168.882 177.067L169.023 176.854L169.152 176.741C169.152 176.741 169.181 176.727 169.181 176.712L169.422 176.36L169.735 176.104L170.047 175.963L170.26 175.991L170.502 176.161L170.686 176.457L170.715 177.251L170.686 177.492V177.705L170.701 177.889V178.157L170.743 178.341L170.729 178.511L170.715 178.752L170.729 178.936L170.701 179.149V179.191L170.729 179.402L170.715 179.544V179.573L170.729 179.799L170.701 180.026V180.409L170.686 180.593V180.621L170.715 180.875L170.729 181.031L170.701 181.229V181.286L170.743 181.47L170.686 181.655V182.121L170.644 182.532L170.416 182.83L170.245 182.915L169.804 182.801L169.62 182.645L169.507 182.178V181.724V181.669L169.45 181.499L169.478 181.314L169.507 181.059V181.031L169.493 180.848L169.507 180.606V179.785L169.493 179.262L169.464 178.95C169.464 178.894 169.422 178.865 169.393 178.837L169.337 178.78C169.294 178.738 169.222 178.738 169.165 178.752L169.067 178.78C169.037 178.794 169.009 178.809 168.995 178.837L168.796 179.064L168.683 179.247L168.242 179.757L168.115 179.913L167.987 180.083L167.872 180.225L167.73 180.395L167.588 180.535L167.289 180.905L166.935 181.201H166.68L166.508 181.13L166.196 180.932L166.069 180.776L165.798 180.466L165.684 180.295C165.67 180.267 165.656 180.267 165.642 180.253L165.472 180.14L165.33 179.955L165.229 179.785L165.116 179.601C165.116 179.587 165.087 179.573 165.087 179.573L164.931 179.417L164.832 179.262C164.832 179.247 164.804 179.247 164.804 179.247L164.519 178.936L164.462 178.894L164.335 178.837C164.221 178.78 164.079 178.851 164.037 178.963L163.98 179.121C163.98 179.133 163.964 179.149 163.964 179.177L163.952 179.601V179.842L163.964 180.04V180.239L163.98 180.423L163.993 180.678L164.008 180.848V181.059L163.964 181.258V181.314L164.008 181.513V181.938L163.993 182.137L163.908 182.461L163.681 182.815L163.467 182.943L163.027 182.815L162.885 182.688L162.785 182.348L162.728 182.052L162.744 181.811V181.781L162.715 181.414L162.728 181.187L162.756 180.79V180.763L162.728 180.535L162.772 180.125L162.756 179.856L162.728 179.7ZM176.768 175.821L177.166 175.849L177.407 175.863L177.593 175.835H177.862L178.076 175.863H178.332L178.771 175.835L179.254 175.991L179.341 176.175L179.426 176.317L179.369 176.727L179.24 176.868L178.928 177.053H178.573L178.332 177.038L177.947 177.067C177.919 177.067 177.891 177.067 177.862 177.095L177.735 177.18C177.72 177.194 177.692 177.223 177.678 177.251L177.621 177.364C177.621 177.379 177.607 177.393 177.607 177.407L177.55 177.747V177.775L177.579 178.114L177.535 178.313V178.369L177.563 178.525L177.579 178.78L177.55 178.979L177.563 179.163L177.55 179.361V179.629L177.593 179.785L177.535 179.969V180.04L177.579 180.239L177.563 180.451V180.678L177.593 181.116L177.65 181.47C177.664 181.541 177.735 181.626 177.805 181.641L178.076 181.697H178.105L178.558 181.711L179.07 181.782L179.398 182.122L179.439 182.264L179.467 182.463L179.369 182.702L179.014 182.901H178.744L178.332 182.915L178.133 182.901H177.933L177.905 182.915L177.706 182.957H177.308L176.84 182.915H176.654L176.626 182.929L176.413 182.971L176.242 182.915H176.156L175.986 182.971L175.802 182.957L175.588 182.929H175.56L175.12 182.957L174.679 182.83L174.537 182.674L174.481 182.532L174.424 182.137L174.622 181.924L174.778 181.796L175.219 181.74H175.703C175.717 181.74 175.731 181.754 175.76 181.74L176.057 181.641C176.071 181.641 176.1 181.626 176.114 181.612L176.229 181.513C176.257 181.499 176.27 181.47 176.286 181.428L176.356 181.159V181.116V180.848V180.82L176.328 180.579L176.342 180.381V180.338L176.328 180.154V179.941L176.356 179.7V179.658L176.342 179.516L176.371 179.291V179.05L176.356 178.865L176.314 178.61L176.342 178.412V178.199L176.314 177.987L176.298 177.591L176.27 177.379C176.27 177.35 176.242 177.308 176.213 177.279L176.144 177.208L176.057 177.152L175.66 177.067H175.632L175.219 177.038L174.879 177.01L174.622 176.884L174.466 176.67L174.438 176.289L174.58 176.133L174.92 175.92L175.262 175.878H175.717L175.958 175.849L176.114 175.878H176.171L176.314 175.849H176.512L176.768 175.821ZM189.429 178.794L189.416 179.884L189.445 180.069L189.429 180.267L189.388 180.437V181.286L189.416 181.513L189.445 181.724L189.388 182.052V182.107L189.416 182.291L189.287 182.66L189.16 182.787L188.99 182.915L188.534 182.886L188.293 182.66L188.095 182.489L187.796 182.149L187.725 182.036C187.725 182.023 187.696 182.007 187.696 182.007L187.525 181.837L187.44 181.724L187.27 181.555L187.156 181.414L186.972 181.201L186.871 181.088L186.758 180.932L186.616 180.763L186.503 180.593C186.488 180.565 186.474 180.565 186.46 180.549L186.317 180.451L186.162 180.239L186.076 180.14C186.076 180.125 186.076 180.125 186.062 180.111L185.892 179.969L185.762 179.785L185.636 179.658L185.479 179.473L185.351 179.332L185.266 179.161C185.266 179.149 185.252 179.133 185.238 179.121L184.926 178.837C184.926 178.837 184.898 178.837 184.882 178.823L184.783 178.766C184.684 178.709 184.556 178.752 184.499 178.851L184.457 178.922C184.441 178.936 184.428 178.963 184.428 178.993L184.413 179.303L184.428 179.487L184.441 179.686L184.413 179.842V179.899L184.428 180.069L184.413 180.48L184.441 180.747L184.4 180.96V181.003L184.413 181.144V181.371L184.428 181.641L184.386 182.08V182.504L184.228 182.66L183.931 182.886L183.674 182.915L183.305 182.66L183.206 182.121V181.74L183.192 181.499V181.314L183.164 181.102V180.678L183.192 180.466V180.253V180.21L183.149 180.012L183.192 179.842V179.757L183.135 179.587L183.176 179.417L183.192 179.388V179.191L183.135 178.738L183.149 178.525L183.164 178.327L183.192 178.1V178.072V177.492L183.149 177.265L183.176 176.84L183.249 176.514L183.362 176.189L183.532 176.048L183.702 175.991L183.916 176.019L184.285 176.189L184.4 176.331L184.627 176.627C184.627 176.641 184.641 176.627 184.655 176.641L184.811 176.783L184.939 176.925L185.096 177.095L185.181 177.208L185.337 177.364L185.452 177.563C185.452 177.577 185.465 177.577 185.479 177.591L185.892 178.002L185.991 178.199C185.991 178.213 186.019 178.227 186.033 178.242L186.162 178.369L186.333 178.497L186.46 178.681L186.488 178.709L186.616 178.851L186.715 178.993L186.843 179.177L186.972 179.319L187.156 179.487L187.298 179.629L187.512 179.955C187.525 179.984 187.541 179.998 187.553 180.012L187.696 180.097C187.711 180.111 187.725 180.111 187.725 180.111L187.838 180.168C187.952 180.225 188.095 180.168 188.136 180.054L188.193 179.913C188.193 179.899 188.208 179.884 188.208 179.856V179.376V179.346L188.193 179.177L188.164 178.963L188.208 178.738L188.223 178.497V178.468V178.256L188.193 178.031L188.208 177.832L188.223 177.648L188.193 177.407L188.223 176.925V176.514L188.421 176.147L188.591 176.005L189.018 176.019L189.245 176.133L189.401 176.53L189.416 176.953V177.478L189.401 177.648V177.69L189.429 177.916L189.416 178.128V178.327L189.401 178.582L189.429 178.794ZM197.956 178.835L198.397 178.807L198.666 178.862L198.695 178.876L199.051 178.892L199.448 179.006L199.603 179.188L199.718 179.443L199.731 179.684V180.136L199.747 180.335L199.731 180.562V180.774L199.703 181.157L199.603 181.355L199.362 181.681L199.263 181.85L199.12 181.992L198.978 182.162L198.822 182.289L198.638 182.389L198.454 182.502L198.055 182.686L197.885 182.771L197.487 182.897L197.288 182.954H196.89C196.876 182.954 196.861 182.97 196.847 182.97L196.705 183.011L196.465 182.97L196.307 182.954C196.307 182.954 196.279 182.941 196.264 182.941L196.038 182.954L195.696 182.871L195.483 182.756C195.469 182.743 195.455 182.743 195.455 182.743L195.099 182.63L194.929 182.516C194.915 182.502 194.901 182.502 194.901 182.502L194.73 182.431L194.546 182.304L194.403 182.148L194.261 182.034L194.105 181.864L194.077 181.836L193.919 181.722L193.82 181.568L193.693 181.398L193.565 181.214L193.522 181.072C193.522 181.072 193.508 181.058 193.508 181.044L193.395 180.817L193.324 180.604L193.294 180.477L193.28 180.462L193.181 180.209L193.152 180.067V179.854V179.826L193.11 179.613L193.124 179.443V179.401L193.096 179.202L193.166 179.032C193.166 179.018 193.181 179.018 193.181 179.006L193.209 178.791L193.223 178.552L193.294 178.424C193.308 178.41 193.324 178.368 193.324 178.35V178.152L193.437 178.024C193.452 177.996 193.466 177.996 193.466 177.969L193.522 177.785L193.607 177.586L193.878 177.275L194.162 176.979L194.346 176.808L194.502 176.695L194.686 176.525L194.872 176.397L195 176.312L195.184 176.199L195.398 176.156L195.597 176.114L195.809 176.057L196.066 175.958L196.236 175.972C196.264 175.972 196.279 175.972 196.307 175.958L196.465 175.901L196.705 175.944L196.833 175.958H196.876L197.074 175.93L197.317 175.958L197.501 176.057C197.515 176.071 197.529 176.071 197.543 176.071L197.729 176.1L197.942 176.171L198.098 176.256L198.126 176.27L198.34 176.326L198.695 176.582L198.893 176.708L199.136 176.991L199.235 177.331L199.192 177.53L198.879 177.842L198.695 177.912L198.31 177.842L198.027 177.586C198.013 177.572 197.999 177.586 197.984 177.572L197.586 177.388L197.458 177.303C197.444 177.289 197.402 177.275 197.387 177.275L197.202 177.246L197.019 177.19H196.975L196.591 177.161H196.564L196.364 177.19H196.165C196.151 177.19 196.151 177.175 196.123 177.19L195.91 177.26H195.88L195.696 177.36L195.512 177.416C195.497 177.416 195.483 177.445 195.469 177.445L195.327 177.544L195.299 177.572L195.184 177.714L194.986 177.854L194.943 177.883L194.73 178.194L194.601 178.336C194.589 178.35 194.573 178.382 194.573 178.396L194.488 178.623L194.431 178.791L194.36 178.99L194.332 179.174V179.217L194.36 179.401L194.346 179.642C194.346 179.656 194.36 179.684 194.36 179.684L194.389 179.869L194.445 180.023L194.474 180.221C194.474 180.25 194.488 180.264 194.488 180.278L194.559 180.434L194.686 180.661C194.686 180.675 194.702 180.675 194.702 180.689L194.815 180.831L195.071 181.157C195.085 181.185 195.115 181.185 195.127 181.2L195.242 181.256L195.398 181.412L195.441 181.44L195.668 181.538L195.838 181.609L196.009 181.637L196.222 181.71L196.264 181.722L196.493 181.751L196.691 181.779H196.748L196.918 181.737L197.345 181.653L197.373 181.637L197.529 181.568L197.729 181.497C197.742 181.497 197.758 181.483 197.758 181.483L198.055 181.27L198.098 181.228L198.183 181.114L198.397 180.888C198.425 180.859 198.454 180.803 198.454 180.774L198.466 180.633V180.576L198.397 180.321C198.381 180.264 198.34 180.209 198.296 180.193L198.055 180.095C198.041 180.08 198.013 180.08 197.999 180.08L197.713 180.067H197.501L197.06 180.023L196.776 179.784L196.691 179.571L196.677 179.373L196.734 179.117L197.117 178.919L197.387 178.848L197.701 178.835H197.956ZM215.675 182.192L215.646 182.532L215.547 182.73L215.12 182.929H214.922L214.624 182.674L214.41 182.349L214.24 182.037C214.226 181.995 214.169 181.967 214.127 181.952L213.827 181.867C213.799 181.853 213.771 181.867 213.758 181.867L213.36 181.91L213.218 181.881H213.175L212.933 181.896L212.748 181.867H212.678L212.478 181.91L212.336 181.896C212.322 181.896 212.307 181.881 212.293 181.881L212.081 181.91L211.854 181.896L211.555 181.881H211.498L211.27 181.938H211.241L211.115 181.995L211.071 182.023L210.929 182.151C210.915 182.163 210.901 182.163 210.887 182.192L210.715 182.56L210.347 182.844L210.162 182.957L209.991 182.915L209.792 182.844L209.636 182.688L209.523 182.378L209.622 182.107C209.622 182.094 209.636 182.08 209.636 182.052V181.867L209.806 181.485L209.906 181.357C209.92 181.329 209.948 181.314 209.948 181.272L209.978 181.13L210.077 180.919L210.162 180.735L210.375 180.31L210.545 179.955L210.63 179.785C210.63 179.771 210.646 179.743 210.646 179.743L210.703 179.544L210.759 179.402L210.873 179.177L210.986 178.979L211.057 178.823L211.115 178.639L211.241 178.398L211.314 178.284C211.328 178.256 211.342 178.242 211.342 178.227L211.37 178.059L211.498 177.832L211.569 177.69C211.569 177.676 211.583 177.676 211.583 177.648L211.625 177.449L211.711 177.308L211.824 177.123L211.854 177.095L212.024 176.629L212.251 176.289L212.55 176.048L212.748 176.005H212.975L213.232 176.26L213.473 176.585L213.629 177.01L213.686 177.223L213.771 177.421L213.843 177.577L213.871 177.761C213.871 177.775 213.886 177.79 213.9 177.816L213.999 177.987L214.07 178.171L214.127 178.383L214.212 178.582L214.282 178.752L214.369 178.908L214.44 179.135C214.44 179.135 214.454 179.163 214.454 179.177L214.539 179.319L214.596 179.487L214.681 179.714C214.681 179.714 214.695 179.743 214.695 179.758L214.794 179.899L214.865 180.083L214.95 180.281L214.979 180.48L214.993 180.508L215.136 180.875C215.136 180.875 215.15 180.875 215.15 180.889L215.25 181.059L215.32 181.272L215.335 181.3L215.434 181.47L215.533 181.881L215.547 181.896L215.675 182.192ZM212.449 180.692L212.619 180.707C212.648 180.707 212.676 180.707 212.704 180.692L212.777 180.664L213.074 180.692C213.103 180.692 213.131 180.692 213.16 180.678L213.43 180.551C213.515 180.508 213.544 180.437 213.544 180.366L213.53 180.097C213.53 180.069 213.515 180.069 213.515 180.054L213.388 179.758L213.287 179.532L213.23 179.305C213.23 179.291 213.218 179.276 213.218 179.262L213.145 179.121L213.004 178.908L212.919 178.681C212.89 178.596 212.791 178.554 212.704 178.568H212.635C212.578 178.568 212.52 178.612 212.492 178.667L212.463 178.709C212.463 178.724 212.449 178.724 212.449 178.724L212.336 179.021L212.208 179.177C212.208 179.177 212.194 179.191 212.194 179.206L212.109 179.39V179.402L212.052 179.629L211.81 180.111C211.796 180.14 211.796 180.154 211.796 180.168L211.781 180.338C211.781 180.423 211.838 180.508 211.923 180.536L212.222 180.636L212.449 180.692ZM223.392 178.835L223.832 178.807L224.103 178.862L224.131 178.876L224.485 178.892L224.884 179.006L225.04 179.188L225.153 179.443L225.167 179.684V180.136L225.183 180.335L225.167 180.562V180.774L225.139 181.157L225.04 181.355L224.799 181.681L224.698 181.85L224.556 181.992L224.414 182.162L224.259 182.289L224.073 182.389L223.888 182.502L223.492 182.686L223.32 182.771L222.923 182.897L222.723 182.954H222.326C222.312 182.954 222.298 182.97 222.283 182.97L222.14 183.011L221.899 182.97L221.743 182.954C221.743 182.954 221.715 182.941 221.701 182.941L221.472 182.954L221.132 182.871L220.92 182.756C220.905 182.743 220.891 182.743 220.891 182.743L220.535 182.63L220.365 182.516C220.349 182.502 220.337 182.502 220.337 182.502L220.165 182.431L219.981 182.304L219.839 182.148L219.697 182.034L219.541 181.864L219.513 181.836L219.356 181.722L219.256 181.568L219.129 181.398L219 181.214L218.959 181.072C218.959 181.072 218.943 181.058 218.943 181.044L218.829 180.817L218.759 180.604L218.73 180.477L218.716 180.462L218.617 180.209L218.589 180.067V179.854V179.826L218.546 179.613L218.56 179.443V179.401L218.532 179.202L218.603 179.032C218.603 179.018 218.617 179.018 218.617 179.006L218.645 178.791L218.659 178.552L218.73 178.424C218.744 178.41 218.759 178.368 218.759 178.35V178.152L218.874 178.024C218.886 177.996 218.9 177.996 218.9 177.969L218.959 177.785L219.044 177.586L219.313 177.275L219.598 176.979L219.782 176.808L219.938 176.695L220.123 176.525L220.308 176.397L220.436 176.312L220.62 176.199L220.834 176.156L221.033 176.114L221.246 176.057L221.501 175.958L221.672 175.972C221.701 175.972 221.715 175.972 221.743 175.958L221.899 175.901L222.14 175.944L222.269 175.958H222.312L222.51 175.93L222.751 175.958L222.936 176.057C222.951 176.071 222.965 176.071 222.98 176.071L223.164 176.1L223.377 176.171L223.534 176.256L223.562 176.27L223.775 176.326L224.131 176.582L224.329 176.708L224.57 176.991L224.67 177.331L224.627 177.53L224.315 177.842L224.131 177.912L223.747 177.842L223.462 177.586C223.449 177.572 223.433 177.586 223.421 177.572L223.022 177.388L222.895 177.303C222.88 177.289 222.838 177.275 222.824 177.275L222.638 177.246L222.454 177.19H222.411L222.027 177.161H221.998L221.8 177.19H221.602C221.586 177.19 221.586 177.175 221.559 177.19L221.345 177.26H221.316L221.132 177.36L220.948 177.416C220.934 177.416 220.92 177.445 220.905 177.445L220.762 177.544L220.734 177.572L220.62 177.714L220.422 177.854L220.379 177.883L220.165 178.194L220.038 178.336C220.023 178.35 220.009 178.382 220.009 178.396L219.924 178.623L219.867 178.791L219.797 178.99L219.768 179.174V179.217L219.797 179.401L219.782 179.642C219.782 179.656 219.797 179.684 219.797 179.684L219.825 179.869L219.882 180.023L219.91 180.221C219.91 180.25 219.924 180.264 219.924 180.278L219.995 180.434L220.123 180.661C220.123 180.675 220.137 180.675 220.137 180.689L220.252 180.831L220.507 181.157C220.521 181.185 220.549 181.185 220.564 181.2L220.677 181.256L220.834 181.412L220.875 181.44L221.104 181.538L221.274 181.609L221.444 181.637L221.658 181.71L221.701 181.722L221.928 181.751L222.128 181.779H222.184L222.354 181.737L222.781 181.653L222.808 181.637L222.965 181.568L223.164 181.497C223.178 181.497 223.192 181.483 223.192 181.483L223.492 181.27L223.534 181.228L223.619 181.114L223.832 180.888C223.862 180.859 223.888 180.803 223.888 180.774L223.903 180.633V180.576L223.832 180.321C223.818 180.264 223.775 180.209 223.732 180.193L223.492 180.095C223.477 180.08 223.449 180.08 223.433 180.08L223.15 180.067H222.936L222.496 180.023L222.213 179.784L222.128 179.571L222.112 179.373L222.169 179.117L222.553 178.919L222.824 178.848L223.136 178.835H223.392ZM228.834 179.643L228.862 179.22L228.848 179.05L228.876 178.809V178.752L228.834 178.596L228.848 178.369L228.891 178.171V177.731L228.876 177.705L228.834 177.464L228.876 177.308L228.891 177.279V176.783L228.933 176.289L229.032 176.119L229.245 175.991L229.601 175.92L230.084 175.892L230.226 175.934C230.255 175.948 230.269 175.948 230.283 175.948L230.51 175.934L230.681 175.92L230.937 175.892L231.121 175.92H231.165L231.378 175.892L231.533 175.906L231.733 175.948H231.762L232.003 175.934H232.201L232.656 175.906L232.855 175.977L233.253 176.062L233.694 176.161L233.879 176.289L234.049 176.374L234.233 176.501L234.376 176.629L234.518 176.769L234.646 176.967L234.759 177.138L234.874 177.336L234.943 177.478L235.143 177.889L235.158 178.1V178.298C235.158 178.313 235.172 178.327 235.172 178.341L235.228 178.582L235.2 178.794V178.993L235.143 179.22L235.087 179.431L234.972 179.573C234.959 179.601 234.943 179.601 234.943 179.629L234.887 179.814L234.787 179.984L234.646 180.182L234.376 180.423L234.32 180.48L234.276 180.593L234.077 180.833C234.049 180.875 234.02 180.932 234.035 180.988L234.105 181.286C234.105 181.3 234.12 181.314 234.134 181.343L234.219 181.442L234.461 181.853L234.532 182.052L234.66 182.39L234.561 182.56L234.276 182.886L234.12 182.943L233.879 182.929L233.523 182.674L233.438 182.532L233.168 182.149L233.083 181.967L232.841 181.57L232.656 181.329C232.642 181.3 232.614 181.3 232.6 181.286L232.515 181.229C232.501 181.215 232.458 181.201 232.442 181.201L232.244 181.187H231.904L231.677 181.159L231.406 181.144H231.193L230.979 181.13L230.681 181.159L230.368 181.215C230.355 181.215 230.34 181.229 230.325 181.229L230.226 181.286C230.198 181.3 230.184 181.314 230.17 181.343L230.113 181.442C230.099 181.456 230.099 181.499 230.099 181.513L230.07 181.91L230.056 182.122L230.042 182.489L229.787 182.844L229.601 182.929L229.16 182.844L229.018 182.631L228.905 182.206L228.848 181.811L228.891 181.641V181.57L228.834 181.343L228.891 181.187V181.116V180.918L228.862 180.707L228.834 180.225L228.876 180.069V179.998L228.848 179.884L228.834 179.643ZM231.79 177.166L231.406 177.18L231.179 177.152L230.937 177.138H230.908L230.54 177.194L230.325 177.251C230.269 177.265 230.212 177.294 230.198 177.35L230.099 177.591C230.099 177.605 230.084 177.62 230.084 177.648L230.07 177.901V178.341L230.084 178.369L230.127 178.568L230.099 178.766L230.084 178.965L230.099 179.234L230.127 179.475L230.184 179.673C230.184 179.7 230.212 179.7 230.226 179.728L230.297 179.814C230.311 179.842 230.34 179.842 230.368 179.856L230.582 179.941C230.611 179.955 230.625 179.941 230.639 179.941H230.88L231.108 179.927L231.292 179.955H231.519L231.677 179.927L231.918 179.941H232.088L232.258 179.927L232.685 179.913H232.727L233.14 179.771L233.324 179.728C233.353 179.714 233.367 179.714 233.381 179.7L233.509 179.587C233.523 179.573 233.537 179.573 233.553 179.544L233.622 179.402L233.864 179.092C233.879 179.064 233.893 179.05 233.893 179.007L233.907 178.88L233.935 178.695V178.667L233.921 178.298L233.907 178.256L233.822 177.889C233.822 177.861 233.794 177.816 233.779 177.804L233.666 177.705L233.565 177.563L233.523 177.52L233.381 177.421L233.239 177.35C233.225 177.336 233.211 177.336 233.211 177.336L233.011 177.251L232.671 177.18H232.642L232.201 177.166L232.045 177.138H232.003L231.79 177.166ZM240.842 175.821L241.24 175.849L241.481 175.863L241.665 175.835H241.935L242.149 175.863H242.404L242.845 175.835L243.329 175.991L243.414 176.175L243.499 176.317L243.442 176.727L243.313 176.868L243.001 177.053H242.647L242.404 177.038L242.02 177.067C241.991 177.067 241.963 177.067 241.935 177.095L241.807 177.18C241.793 177.194 241.765 177.223 241.75 177.251L241.694 177.364C241.694 177.379 241.68 177.393 241.68 177.407L241.623 177.747V177.775L241.651 178.114L241.609 178.313V178.369L241.637 178.525L241.651 178.78L241.623 178.979L241.637 179.163L241.623 179.361V179.629L241.665 179.785L241.609 179.969V180.04L241.651 180.239L241.637 180.451V180.678L241.665 181.116L241.722 181.47C241.736 181.541 241.807 181.626 241.878 181.641L242.149 181.697H242.177L242.631 181.711L243.143 181.782L243.47 182.122L243.513 182.264L243.541 182.463L243.442 182.702L243.086 182.901H242.817L242.404 182.915L242.206 182.901H242.007L241.979 182.915L241.779 182.957H241.382L240.913 182.915H240.727L240.698 182.929L240.486 182.971L240.316 182.915H240.231L240.059 182.971L239.875 182.957L239.662 182.929H239.634L239.193 182.957L238.752 182.83L238.61 182.674L238.553 182.532L238.497 182.137L238.695 181.924L238.852 181.796L239.292 181.74H239.775C239.79 181.74 239.804 181.754 239.832 181.74L240.131 181.641C240.146 181.641 240.174 181.626 240.188 181.612L240.301 181.513C240.33 181.499 240.344 181.47 240.358 181.428L240.429 181.159V181.116V180.848V180.82L240.401 180.579L240.415 180.381V180.338L240.401 180.154V179.941L240.429 179.702V179.658L240.415 179.516L240.443 179.291V179.05L240.429 178.865L240.387 178.612L240.415 178.413V178.199L240.387 177.988L240.372 177.591L240.344 177.379C240.344 177.35 240.316 177.308 240.287 177.279L240.216 177.208L240.131 177.152L239.733 177.067H239.705L239.292 177.038L238.952 177.01L238.695 176.884L238.539 176.67L238.511 176.289L238.652 176.133L238.994 175.92L239.334 175.878H239.79L240.032 175.849L240.188 175.878H240.245L240.387 175.849H240.585L240.842 175.821ZM249.865 175.92L250.304 175.948H250.334L250.49 175.92L250.731 175.963L250.915 175.991L251.073 176.048C251.087 176.062 251.115 176.062 251.13 176.062H251.286L251.498 176.175C251.514 176.175 251.528 176.189 251.541 176.189L251.712 176.218L251.868 176.36L252.024 176.459L252.366 176.686L252.508 176.769L252.805 177.095L252.878 177.35L252.85 177.52L252.522 177.861L252.352 177.917L252.095 177.903L251.783 177.731L251.471 177.52L251.059 177.294L250.903 177.223L250.717 177.166C250.703 177.166 250.689 177.152 250.674 177.152H250.448L250.248 177.109H250.207H250.063L249.851 177.138C249.837 177.138 249.808 177.138 249.794 177.152L249.594 177.237L249.496 177.251C249.466 177.251 249.424 177.251 249.41 177.265L249.225 177.393L249.07 177.492L248.912 177.549C248.898 177.549 248.855 177.577 248.841 177.591L248.558 177.889L248.43 177.974C248.416 177.987 248.388 178.015 248.373 178.043L248.288 178.227L248.188 178.412L248.102 178.539C248.102 178.554 248.074 178.568 248.074 178.582L248.017 178.752V178.78L247.975 178.993L247.918 179.191L247.904 179.262L247.918 179.402L247.89 179.588V179.645L247.932 179.884L247.989 180.069L248.159 180.48L248.216 180.636C248.216 180.65 248.232 180.678 248.244 180.691L248.359 180.82L248.543 180.96L248.614 181.088C248.629 181.116 248.643 181.13 248.671 181.144L248.855 181.244L248.942 181.357C248.97 181.385 248.999 181.414 249.04 181.428L249.169 181.47L249.41 181.584L249.581 181.669C249.594 181.669 249.61 181.683 249.622 181.683L249.794 181.711H249.837L249.992 181.697L250.448 181.726L250.646 181.711C250.66 181.711 250.689 181.711 250.703 181.697L250.887 181.612L251.115 181.527L251.243 181.499C251.257 181.499 251.286 181.499 251.3 181.485L251.67 181.229L252.053 181.003L252.437 180.946L252.635 181.045L252.75 181.215L252.878 181.456L252.763 181.853L252.692 181.981L252.38 182.179C252.366 182.179 252.352 182.206 252.352 182.22L252.237 182.348L252.053 182.461L251.684 182.631L251.471 182.702L251.243 182.773C251.243 182.773 251.215 182.773 251.2 182.787L251.059 182.886L250.859 182.915H250.674H250.632L250.433 182.957L250.177 182.943H250.15L249.964 182.957L249.766 182.943L249.537 182.915L249.339 182.872L249.126 182.83L248.955 182.745L248.756 182.617L248.572 182.504L248.359 182.404L248.032 182.192L247.819 182.066L247.748 181.951L247.706 181.924L247.534 181.796L247.42 181.626L247.335 181.47L247.165 181.258L247.094 181.059L247.024 180.918L246.88 180.678L246.852 180.492L246.824 180.295L246.781 180.125C246.781 180.111 246.767 180.097 246.767 180.083L246.682 179.927L246.71 179.714V179.658L246.682 179.473L246.668 179.262L246.682 179.076L246.696 178.851L246.795 178.44L246.894 178.256V178.227L246.965 178.002L247.065 177.832L247.18 177.69C247.18 177.69 247.194 177.676 247.194 177.662L247.279 177.478L247.435 177.308L247.564 177.152L247.706 176.996L247.819 176.826L247.989 176.656L248.159 176.585C248.175 176.585 248.202 176.571 248.216 176.558L248.345 176.43L248.558 176.317L248.756 176.202L249.14 176.104L249.367 176.034L249.865 175.92ZM256.601 178.369L256.573 178.031L256.557 177.775L256.544 177.605L256.601 177.435V177.364L256.557 177.166V176.727L256.644 176.274L256.828 176.133L256.998 176.019H257.397L257.567 176.104L257.723 176.287L257.809 176.656V177.053L257.779 177.492V177.873L257.793 178.087L257.779 178.298V178.497L257.822 178.724L257.793 178.88L257.779 179.388L257.838 179.842L257.85 179.87L257.908 180.04L257.935 180.225C257.935 180.239 257.965 180.267 257.979 180.295L258.064 180.395L258.121 180.549C258.121 180.565 258.135 180.593 258.149 180.606L258.291 180.763L258.362 180.918L258.405 180.974L258.718 181.215L258.846 181.343L258.888 181.371L259.03 181.442L259.187 181.555C259.187 181.555 259.2 181.555 259.216 181.57L259.414 181.655H259.442L259.641 181.697H259.669L259.811 181.683L260.238 181.74C260.252 181.74 260.266 181.754 260.295 181.74L260.452 181.697L260.636 181.655L260.849 181.626C260.863 181.626 260.891 181.626 260.906 181.612L261.091 181.513L261.205 181.47C261.219 181.456 261.219 181.442 261.233 181.442L261.403 181.314L261.602 181.187L261.616 181.173L261.745 181.045L261.887 180.889L262 180.82C262.029 180.79 262.057 180.747 262.071 180.719L262.099 180.593L262.213 180.409C262.213 180.395 262.227 180.381 262.227 180.381L262.284 180.21L262.34 180.012L262.427 179.587L262.455 179.346L262.47 178.894L262.455 178.667L262.441 178.511L262.413 178.256L262.455 178.072V178.031V177.816V177.788L262.413 177.634L262.47 177.407V177.35L262.441 176.967L262.47 176.812L262.512 176.473L262.611 176.175L262.796 175.991L263.308 175.977L263.508 176.147L263.662 176.514L263.692 176.868L263.706 177.279L263.678 177.449L263.662 177.719L263.678 177.889L263.649 178.114V178.144L263.662 178.313L263.678 178.539L263.692 178.78L263.678 178.993L263.649 179.445L263.621 179.7V179.899L263.534 180.352L263.492 180.549L263.421 180.776L263.336 180.946L263.095 181.371L262.994 181.513L262.867 181.669C262.867 181.669 262.838 181.669 262.838 181.683L262.725 181.896L262.413 182.192L262.255 182.248L262.227 182.277L262.029 182.433L261.859 182.504L261.63 182.617L261.446 182.688C261.446 182.688 261.432 182.688 261.418 182.702L261.276 182.815L261.033 182.844L260.835 182.901L260.594 182.929L260.395 182.971L260.195 182.943L259.926 182.929L259.528 182.915L259.301 182.886L259.087 182.815L258.874 182.716C258.86 182.702 258.846 182.702 258.831 182.702L258.675 182.688L258.475 182.56L258.234 182.419L258.05 182.334L257.935 182.206L257.923 182.192L257.567 181.91L257.409 181.74L257.283 181.598L257.225 181.428C257.225 181.414 257.197 181.385 257.182 181.371L257.083 181.258L256.984 181.031L256.899 180.848L256.8 180.65L256.7 180.466L256.686 180.253L256.644 180.069L256.63 179.686L256.601 179.417L256.557 179.076L256.585 178.88V178.851V178.639L256.601 178.398V178.369ZM267.328 179.643V179.247L267.357 179.078V179.05L267.343 178.823L267.357 178.624L267.343 178.426L267.385 178.242C267.385 178.213 267.399 178.185 267.385 178.157L267.328 178.031L267.371 177.845L267.385 177.816V177.591L267.371 177.563L267.343 177.435L267.371 176.967V176.542L267.484 176.246L267.626 176.076L267.741 175.948L268.124 175.963L268.31 176.034L268.48 176.175L268.537 176.656L268.593 177.095L268.551 177.322V177.364L268.579 177.549L268.565 177.731V177.79L268.593 178.002L268.579 178.171V178.412L268.607 178.596L268.593 178.794V178.823L268.607 179.22L268.579 179.418V179.459L268.607 179.643L268.565 179.785V179.842L268.579 180.012L268.565 180.196V180.239L268.607 180.423V181.088L268.636 181.414C268.636 181.442 268.666 181.485 268.692 181.513L268.777 181.612C268.806 181.641 268.864 181.655 268.891 181.655L269.233 181.697L269.688 181.683L269.929 181.726H269.971L270.157 181.697H270.313L270.497 181.726H270.554L270.726 181.697L270.953 181.74H271.009L271.123 181.726H271.349L271.535 181.74H271.762L271.946 181.697L272.658 181.711L273.041 181.74L273.369 181.938L273.525 182.137L273.539 182.504L273.411 182.716L273.041 182.886L272.644 182.915H272.019H271.99L271.79 182.943L271.549 182.957L271.394 182.915H271.323L271.094 182.971H270.924L270.738 182.915H270.653L270.497 182.971H270.285L270.028 182.929H269.987L269.83 182.957L269.589 182.915H269.389L269.148 182.957L268.978 182.915H268.921L268.777 182.943H268.296L267.996 182.886L267.699 182.815L267.557 182.645L267.414 182.504L267.399 182.037L267.385 181.555V181.371V181.329L267.343 181.102L267.328 180.889L267.357 180.707L267.385 180.536V180.492L267.357 180.295V180.097L267.371 179.856V179.814L267.328 179.643ZM278.413 175.892L279.081 175.906L279.265 175.878H279.664L280.047 175.906H280.077L280.247 175.878L280.716 175.92H281.085L281.398 176.005L281.54 176.161L281.667 176.274L281.611 176.727L281.568 176.856L281.354 177.024L280.929 177.067H280.53L280.502 177.081L280.261 177.138H280.047L279.565 177.166C279.55 177.166 279.522 177.166 279.508 177.18L279.436 177.208C279.395 177.223 279.366 177.251 279.35 177.308L279.294 177.435C279.294 177.449 279.28 177.449 279.28 177.478L279.237 177.889L279.209 178.398V178.426L279.237 178.624L279.209 178.752V178.809L279.237 179.035L279.209 179.206V179.248L279.223 179.475L279.251 179.686V179.899L279.209 180.069V180.125L279.237 180.352L279.251 180.549L279.237 180.792L279.251 180.988V181.173L279.237 181.428L279.209 181.782L279.223 181.995L279.166 182.349L278.982 182.716L278.796 182.901L278.385 182.858L278.171 182.674L278.072 182.349L278.043 182.023C278.043 182.009 278.029 181.995 278.029 181.981L277.987 181.825L278.015 181.428L278.029 181.215V181.159L278.001 180.976L278.015 180.763V180.707L277.987 180.536L278.001 180.31L278.015 180.125V179.941V179.913L277.972 179.673L278.001 179.22V179.064L278.029 178.865V178.809L278.015 178.596L278.029 178.144L277.987 177.719L278.001 177.577C278.001 177.563 278.001 177.52 277.987 177.506L277.93 177.364C277.93 177.35 277.901 177.336 277.901 177.336L277.859 177.265C277.845 177.237 277.802 177.223 277.774 177.208L277.588 177.138L277.446 177.095C277.432 177.081 277.39 177.081 277.375 177.081L277.049 177.109L276.808 177.095H276.778H276.452L276.167 177.053L275.813 176.967L275.7 176.868L275.57 176.714V176.26L275.671 176.147L275.898 175.991L276.226 175.892L276.566 175.906H276.594L276.949 175.863L277.163 175.878L277.347 175.92L277.375 175.934H277.575C277.588 175.934 277.604 175.92 277.616 175.92L277.802 175.863L277.972 175.906L278.001 175.92H278.243L278.413 175.892ZM285.419 178.369L285.391 178.031L285.376 177.775L285.362 177.605L285.419 177.435V177.364L285.376 177.166V176.727L285.461 176.274L285.646 176.133L285.816 176.019H286.214L286.384 176.104L286.54 176.289L286.627 176.656V177.053L286.597 177.492V177.873L286.613 178.087L286.597 178.298V178.497L286.641 178.724L286.613 178.88L286.597 179.388L286.654 179.842L286.669 179.87L286.726 180.04L286.755 180.225C286.755 180.239 286.783 180.267 286.797 180.295L286.882 180.395L286.939 180.549C286.939 180.565 286.953 180.593 286.967 180.606L287.11 180.763L287.18 180.918L287.224 180.974L287.536 181.215L287.663 181.343L287.707 181.371L287.849 181.442L288.005 181.555C288.005 181.555 288.019 181.555 288.033 181.57L288.232 181.655H288.26L288.46 181.697H288.489L288.63 181.683L289.056 181.74C289.07 181.74 289.086 181.754 289.114 181.74L289.27 181.697L289.454 181.655L289.668 181.626C289.681 181.626 289.709 181.626 289.725 181.612L289.909 181.513L290.023 181.47C290.037 181.456 290.037 181.442 290.051 181.442L290.221 181.314L290.42 181.187L290.435 181.173L290.563 181.045L290.705 180.889L290.818 180.82C290.846 180.792 290.875 180.747 290.889 180.719L290.917 180.593L291.031 180.409C291.031 180.395 291.046 180.381 291.046 180.381L291.103 180.21L291.16 180.012L291.245 179.587L291.273 179.346L291.287 178.894L291.273 178.667L291.259 178.511L291.231 178.256L291.273 178.072V178.031V177.816V177.788L291.231 177.634L291.287 177.407V177.35L291.259 176.967L291.287 176.812L291.33 176.473L291.429 176.175L291.615 175.991L292.125 175.977L292.325 176.147L292.481 176.514L292.51 176.868L292.524 177.279L292.495 177.449L292.481 177.719L292.495 177.889L292.467 178.114V178.144L292.481 178.313L292.495 178.539L292.51 178.78L292.495 178.993L292.467 179.447L292.439 179.7V179.899L292.352 180.352L292.311 180.549L292.239 180.776L292.154 180.946L291.913 181.371L291.813 181.513L291.684 181.669C291.684 181.669 291.656 181.669 291.656 181.683L291.543 181.896L291.231 182.192L291.075 182.248L291.046 182.277L290.846 182.434L290.676 182.504L290.448 182.617L290.264 182.688C290.264 182.688 290.249 182.688 290.235 182.702L290.094 182.815L289.853 182.844L289.653 182.901L289.412 182.929L289.213 182.971L289.013 182.943L288.744 182.929L288.347 182.915L288.118 182.886L287.906 182.815L287.692 182.716C287.677 182.702 287.663 182.702 287.649 182.702L287.493 182.688L287.295 182.56L287.052 182.419L286.868 182.334L286.755 182.206L286.74 182.192L286.384 181.91L286.228 181.74L286.101 181.598L286.044 181.428C286.044 181.414 286.016 181.385 286.002 181.371L285.901 181.258L285.802 181.031L285.717 180.848L285.617 180.65L285.518 180.466L285.504 180.253L285.461 180.069L285.447 179.686L285.419 179.418L285.376 179.076L285.405 178.88V178.851V178.639L285.419 178.398V178.369ZM296.146 179.645L296.175 179.22L296.162 179.05L296.19 178.809V178.752L296.146 178.596L296.162 178.369L296.205 178.171V177.731L296.19 177.705L296.146 177.464L296.19 177.308L296.205 177.279V176.783L296.247 176.289L296.346 176.119L296.559 175.991L296.915 175.92L297.397 175.892L297.54 175.934C297.568 175.948 297.583 175.948 297.597 175.948L297.824 175.934L297.994 175.92L298.25 175.892L298.435 175.92H298.477L298.69 175.892L298.847 175.906L299.046 175.948H299.074L299.315 175.934H299.515L299.97 175.906L300.169 175.977L300.567 176.062L301.007 176.161L301.191 176.289L301.363 176.374L301.547 176.501L301.689 176.629L301.832 176.769L301.96 176.967L302.073 177.138L302.186 177.336L302.257 177.478L302.456 177.889L302.471 178.1V178.298C302.471 178.313 302.484 178.327 302.484 178.341L302.541 178.582L302.512 178.794V178.993L302.456 179.22L302.399 179.431L302.286 179.573C302.271 179.601 302.257 179.601 302.257 179.629L302.201 179.814L302.101 179.984L301.96 180.182L301.689 180.423L301.632 180.48L301.589 180.593L301.391 180.834C301.363 180.875 301.334 180.932 301.348 180.988L301.419 181.286C301.419 181.3 301.434 181.314 301.448 181.343L301.533 181.442L301.774 181.853L301.845 182.052L301.974 182.39L301.875 182.56L301.589 182.886L301.434 182.943L301.191 182.929L300.837 182.674L300.752 182.532L300.481 182.151L300.396 181.967L300.155 181.57L299.97 181.329C299.955 181.3 299.926 181.3 299.914 181.286L299.827 181.231C299.813 181.215 299.77 181.201 299.756 181.201L299.558 181.187H299.216L298.989 181.159L298.72 181.144H298.506L298.293 181.13L297.994 181.159L297.682 181.215C297.668 181.215 297.654 181.229 297.639 181.229L297.54 181.286C297.512 181.3 297.496 181.314 297.483 181.343L297.427 181.442C297.411 181.456 297.411 181.499 297.411 181.513L297.383 181.91L297.368 182.122L297.356 182.489L297.099 182.844L296.915 182.929L296.474 182.844L296.332 182.631L296.219 182.206L296.162 181.811L296.205 181.641V181.57L296.146 181.343L296.205 181.187V181.116V180.918L296.175 180.707L296.146 180.225L296.19 180.069V179.998L296.162 179.884L296.146 179.645ZM299.103 177.168L298.718 177.182L298.491 177.153L298.25 177.139H298.222L297.852 177.196L297.639 177.253C297.583 177.267 297.526 177.295 297.512 177.352L297.411 177.593C297.411 177.607 297.397 177.621 297.397 177.649L297.383 177.903V178.342L297.397 178.371L297.441 178.569L297.411 178.768L297.397 178.966L297.411 179.235L297.441 179.476L297.496 179.675C297.496 179.702 297.526 179.702 297.54 179.73L297.611 179.815C297.625 179.843 297.654 179.843 297.682 179.858L297.895 179.943C297.923 179.957 297.937 179.943 297.951 179.943H298.192L298.421 179.928L298.605 179.957H298.833L298.989 179.928L299.23 179.943H299.4L299.572 179.928L299.999 179.914H300.041L300.452 179.773L300.637 179.73C300.665 179.716 300.681 179.716 300.693 179.702L300.822 179.588C300.837 179.574 300.851 179.574 300.865 179.546L300.936 179.404L301.178 179.094C301.191 179.065 301.207 179.051 301.207 179.009L301.219 178.881L301.248 178.697V178.668L301.235 178.3L301.219 178.257L301.134 177.89C301.134 177.862 301.106 177.82 301.092 177.805L300.978 177.706L300.879 177.564L300.837 177.522L300.693 177.423L300.552 177.352C300.537 177.338 300.523 177.338 300.523 177.338L300.325 177.253L299.983 177.182H299.955L299.515 177.168L299.359 177.139H299.315L299.103 177.168ZM306.222 179.602L306.251 179.193L306.222 178.995L306.264 178.528L306.251 178.33L306.207 178.103L306.222 177.876V177.848L306.193 177.649L306.222 177.465L306.251 177.196L306.222 176.772L306.337 176.248L306.45 176.106L306.648 175.993L307.075 175.851L307.543 175.837L307.715 175.865H307.743L307.97 175.851L308.112 175.879H308.809L309.008 175.822L309.249 175.837H309.433L309.661 175.865L309.86 175.851L310.03 175.865H310.058L310.272 175.837H310.499L310.726 175.851L310.926 175.879H310.969L311.295 175.851L311.523 175.879H311.863L312.262 176.12L312.389 176.319L312.318 176.701L312.205 176.87L311.906 177.082H311.408L311.025 177.125L310.825 177.082H310.769L310.584 177.111L310.357 177.068H310.315L310.102 177.097L309.945 177.111L309.704 177.068H309.661L309.504 177.082H309.291H309.263L309.05 177.125L308.838 177.082H308.765L308.595 177.111L308.097 177.139L307.715 177.196C307.686 177.196 307.658 177.224 307.628 177.238L307.573 177.281C307.543 177.309 307.516 177.338 307.516 177.38L307.458 177.692L307.43 177.947V177.99L307.458 178.172V178.201L307.585 178.569C307.601 178.626 307.672 178.683 307.729 178.697L308.026 178.768L308.055 178.782H308.496L308.652 178.81H308.723L308.907 178.754L309.164 178.782H309.376L309.59 178.754L310.017 178.824L310.357 178.839L310.726 178.938L310.855 179.165L310.882 179.59L310.784 179.716L310.655 179.843L310.329 179.999L309.504 180.028L309.291 180.014H309.263H309.079L308.85 180.042L308.708 179.999C308.68 179.985 308.652 179.985 308.623 179.999L308.453 180.042L307.715 180.07C307.686 180.07 307.642 180.084 307.628 180.099L307.573 180.141C307.529 180.169 307.5 180.226 307.5 180.269L307.458 180.651V180.68L307.472 180.891V181.103L307.573 181.458C307.585 181.529 307.642 181.557 307.7 181.585L308.012 181.699C308.026 181.713 308.055 181.713 308.069 181.713L308.553 181.727L308.779 181.741H308.809L309.008 181.713L309.178 181.727H309.433L309.633 181.699L309.803 181.741H309.874L310.074 181.699H310.258L310.485 181.685L310.712 181.727H310.74L311.139 181.699L311.551 181.727H311.75L312.162 181.869L312.276 181.996L312.432 182.436L312.118 182.789L311.707 182.902H311.025L310.784 182.945L310.57 182.916H310.414H310.386L310.187 182.945L309.945 182.902H309.775C309.761 182.902 309.746 182.916 309.732 182.916L309.59 182.959L309.39 182.916H309.334L309.121 182.973L308.907 182.93L308.894 182.916H308.708L308.68 182.93L308.496 182.973L308.34 182.945H308.312L308.069 182.959L307.871 182.916H307.672L307.458 182.945L307.004 182.959L306.563 182.831L306.45 182.675C306.45 182.661 306.422 182.647 306.422 182.647L306.264 182.491L306.251 182.039V181.557V181.515L306.193 181.359L306.236 181.146V181.089L306.193 180.921L306.222 180.722V180.692L306.207 180.494L306.193 180.269L306.251 180.056V179.999L306.222 179.843V179.602Z" fill="#252F4C"/>
<path d="M71.8664 134.6H70.6694V181.689H71.8664V134.6Z" fill="#565D74"/>
</svg>
