<svg width="316" height="315" viewBox="0 0 316 315" fill="none" xmlns="http://www.w3.org/2000/svg">
<path d="M51.3346 144.333V177.971H36.7739V173.791C33.8078 177.094 29.5357 178.983 23.4347 178.983C13.6691 178.983 8.00342 174.399 8.00342 165.972V144.333H22.5641V163.546C22.5641 167.994 24.8284 169.815 29.3636 169.815C34.1587 169.815 36.7739 167.657 36.7739 163.209V144.333H51.3346Z" fill="#EE2C3C"/>
<path d="M105.477 161.119C105.477 165.028 104.607 168.198 103.122 170.827C100.072 175.884 94.2304 178.915 86.2094 178.915C80.5437 178.915 76.1839 177.431 73.13 174.263V191.587H58.5693V144.333H72.7791V148.377C75.9173 144.938 80.3648 143.321 86.206 143.321C94.227 143.321 100.068 146.355 103.119 151.477C104.607 154.109 105.477 157.276 105.477 161.119ZM89.9617 161.119C89.9617 158.761 89.6108 157.075 88.9157 155.86C87.6098 153.637 84.9912 152.489 81.4177 152.489C75.9241 152.489 72.9613 155.184 72.9613 160.172V161.993C72.9613 166.982 75.9241 169.679 81.4177 169.679C84.9946 169.679 87.6098 168.534 88.9157 166.309C89.6108 165.095 89.9617 163.478 89.9617 161.119Z" fill="#EE2C3C"/>
<path d="M178.807 144.333H193.284V147.367C195.548 144.537 197.991 143.389 201.48 143.389C206.711 143.389 210.024 146.019 210.024 149.927C210.024 153.702 206.623 156.465 201.656 156.465C198.602 156.465 195.99 155.252 194.856 153.431C193.635 153.835 193.371 154.375 193.371 156.734V177.968H178.811L178.807 144.333Z" fill="#EE2C3C"/>
<path d="M256.113 158.625V177.971H241.552V173.995C238.677 177.097 234.226 178.915 227.163 178.915C220.276 178.915 215.133 177.029 212.953 173.254C212.08 171.905 211.732 170.355 211.732 168.466C211.732 166.645 212.08 165.163 212.778 163.882C215.916 158.625 224.376 157.412 235.009 157.412H241.548V156.872C241.548 154.85 241.373 154.109 240.85 153.232C239.979 151.75 237.975 151.007 234.833 151.007C231.435 151.007 229.515 151.682 228.645 153.164C228.297 153.837 228.209 154.31 228.122 155.186H213.301C213.389 153.365 213.824 151.816 214.607 150.469C217.485 145.549 224.896 143.323 234.661 143.323C245.21 143.323 251.402 145.481 254.28 150.334C255.502 152.559 256.113 155.322 256.113 158.625ZM240.766 167.861C241.376 166.916 241.552 165.975 241.552 164.153V163.681H235.971C231.786 163.681 228.385 164.018 227.426 165.771C227.163 166.175 226.991 166.648 226.991 167.256C226.991 167.863 227.079 168.333 227.426 168.873C228.3 170.358 230.565 170.895 233.183 170.895C237.104 170.892 239.635 169.815 240.766 167.861Z" fill="#EE2C3C"/>
<path d="M309 130.38V177.971H294.79V173.927C291.652 177.298 287.292 178.915 281.364 178.915C273.342 178.915 267.501 175.949 264.451 170.828C262.966 168.198 262.095 165.03 262.095 161.12C262.095 157.276 262.966 154.109 264.451 151.479C267.417 146.355 273.342 143.324 281.364 143.324C287.029 143.324 291.305 144.805 294.443 147.975V130.38H309ZM294.615 160.175C294.615 155.187 291.649 152.492 286.159 152.492C282.582 152.492 279.97 153.637 278.661 155.862C277.965 157.076 277.615 158.761 277.615 161.122C277.615 163.548 277.962 165.166 278.661 166.447C279.97 168.67 282.585 169.818 286.159 169.818C291.652 169.818 294.615 167.123 294.615 162.134V160.175Z" fill="#EE2C3C"/>
<path d="M145.903 152.656V161.333H155.291L154.94 162.466C153.769 166.233 147.941 168.766 143.234 168.766C136.684 168.766 128.204 166.327 128.204 154.704C128.204 145.082 133.664 140.48 142.013 140.48C146.578 140.48 150.098 141.314 152.214 143.772C153.094 144.852 153.911 146.332 153.995 147.563H170.662C170.662 147.563 171.056 141.588 164.773 136.381C164.672 136.297 164.574 136.224 164.476 136.146C159.411 131.896 151.792 129.532 142.36 129.532C123.116 129.532 110.681 139.439 110.681 154.769C110.681 172.5 126.433 178.793 139.92 178.793C147.489 178.793 154.309 177.045 158.453 173.603L158.649 177.971H171.691V177.645V170.173V152.656H145.903Z" fill="#EE2C3C"/>
</svg>
