<svg width="316" height="315" viewBox="0 0 316 315" fill="none" xmlns="http://www.w3.org/2000/svg">
<g clip-path="url(#clip0_228_900)">
<path d="M164.732 180.59H80.2314V96.0894H164.732V180.59Z" fill="#FFCB04"/>
<path d="M86.7064 178.865H2.20557V94.3592H86.7064V178.865Z" fill="#BC8CBF"/>
<path d="M235.094 177.41H150.599V92.9138H235.094V177.41Z" fill="#F16669"/>
<path d="M314.139 178.865H229.644V94.3592H314.139V178.865Z" fill="#F79448"/>
<path d="M80.2368 178.865H86.7065V96.0864H80.2368V178.865Z" fill="#C9749C"/>
<path d="M150.596 177.41H164.732V96.0891H150.596V177.41Z" fill="#F04E30"/>
<path d="M235.094 94.3645H229.646V177.41H235.094V94.3645Z" fill="#F04E29"/>
<path d="M181.015 170.766V102.456H211.272V112.002H192.184V130.233H206.144V140.109H192.184V170.766H181.015Z" fill="#231F20"/>
<path d="M37.5957 170.767H48.0829V102.457H37.5957V170.767Z" fill="#231F20"/>
<path d="M125.07 149.59C125.07 153.612 124.104 156.699 122.826 158.18C121.553 159.666 119.552 161.061 116.168 161.061H113.107V112.161H116.168C119.552 112.161 121.553 113.558 122.826 115.049C124.104 116.525 125.07 119.617 125.07 123.629V149.59ZM131.048 108.46C127.107 104.329 123.115 102.457 113.777 102.457H102.625V170.767H113.777C123.115 170.767 127.107 168.898 131.048 164.772C134 161.688 135.745 156.679 135.745 149.215V124.01C135.745 116.551 134 111.547 131.048 108.46Z" fill="#231F20"/>
<path d="M290.24 148.808C290.24 156.016 288.799 161.484 285.91 165.199C283.022 168.915 278.791 170.766 273.209 170.766C267.176 170.766 262.831 168.79 260.168 164.842C257.507 160.88 256.168 154.42 256.168 145.46V127.729C256.168 118.759 257.507 112.309 260.168 108.368C262.831 104.429 267.176 102.459 273.209 102.459C278.791 102.459 283.022 104.315 285.91 108.011C288.799 111.721 290.24 117.105 290.24 124.189V127.729H279.57V122.127C279.57 118.399 279.065 115.683 278.038 113.993C277.024 112.299 275.408 111.457 273.209 111.457C271.01 111.457 269.395 112.299 268.38 113.993C267.351 115.683 266.843 118.399 266.843 122.127V151.057C266.843 154.786 267.351 157.502 268.38 159.196C269.395 160.88 271.01 161.732 273.209 161.732C275.408 161.732 277.024 160.88 278.038 159.196C279.065 157.502 279.57 154.786 279.57 151.057V144.306H290.24V148.808Z" fill="#231F20"/>
<path d="M69.4121 221.737H65.7803V201.072H69.4121V221.737Z" fill="#4C4D4F"/>
<path d="M85.0068 204.38H80.9312V218.433H85.0068C89.3462 218.433 92.1841 215.512 92.1841 211.434C92.1841 207.358 89.3462 204.38 85.0068 204.38ZM85.0068 221.743H77.2993V201.071H85.0068C91.502 201.071 95.9884 205.524 95.9884 211.375C95.9884 217.219 91.502 221.743 85.0068 221.743Z" fill="#4C4D4F"/>
<path d="M117.551 204.38H105.801V210.018H116.225V213.32H105.801V221.743H102.167V201.071H117.551V204.38Z" fill="#4C4D4F"/>
<path d="M132.912 222.094C126.888 222.094 122.404 217.397 122.404 211.435C122.404 205.525 126.799 200.709 133.061 200.709C136.871 200.709 139.174 202.048 141.149 203.935L138.816 206.618C137.162 205.084 135.395 204.054 133.031 204.054C129.072 204.054 126.214 207.298 126.214 211.374C126.214 215.447 129.072 218.762 133.031 218.762C135.572 218.762 137.19 217.724 138.971 216.071L141.299 218.435C139.138 220.677 136.779 222.094 132.912 222.094Z" fill="#4C4D4F"/>
<path d="M173.461 215.661C173.461 213.883 172.074 212.853 169.211 212.853H163.456V218.524H169.474C171.96 218.524 173.461 217.548 173.461 215.661ZM172.312 206.946C172.312 205.262 171.014 204.288 168.67 204.288H163.456V209.782H168.414C170.748 209.782 172.312 208.864 172.312 206.946ZM175.944 206.358C175.944 208.894 174.526 210.198 172.989 210.994C175.414 211.821 177.093 213.213 177.093 216.041C177.093 219.762 174.055 221.737 169.449 221.737H159.88V201.072H169.147C173.312 201.072 175.944 203.114 175.944 206.358Z" fill="#4C4D4F"/>
<path d="M191.334 205.262L187.793 213.53H194.905L191.334 205.262ZM202.166 221.742H198.334L196.239 216.748H186.459L184.329 221.742H180.613L189.708 200.923H193.074L202.166 221.742Z" fill="#4C4D4F"/>
<path d="M221.039 201.072H224.615V221.742H221.574L210.177 207.037V221.742H206.606V201.072H209.974L221.039 215.364V201.072Z" fill="#4C4D4F"/>
<path d="M250.612 221.743H246.204L239.153 212.44L235.925 215.75V221.743H232.298V201.073H235.925V211.464L245.773 201.073H250.221L241.631 209.96L250.612 221.743Z" fill="#4C4D4F"/>
</g>
<defs>
<clipPath id="clip0_228_900">
<rect width="315" height="134.579" fill="white" transform="translate(0.30127 90.0864)"/>
</clipPath>
</defs>
</svg>
