<svg width="316" height="315" viewBox="0 0 316 315" fill="none" xmlns="http://www.w3.org/2000/svg">
<g clip-path="url(#clip0_228_276)">
<path d="M79.9287 170.929H84.6136C85.0001 170.929 85.3282 170.943 85.5943 170.976C85.8605 171.009 86.0792 171.056 86.2542 171.122C86.4292 171.188 86.5605 171.268 86.6553 171.363C86.7501 171.457 86.8157 171.571 86.8594 171.698C86.9032 171.826 86.9287 171.972 86.936 172.128C86.9433 172.285 86.9469 172.464 86.9469 172.657C86.9469 172.85 86.9433 173.043 86.9324 173.211C86.9214 173.382 86.8923 173.536 86.8376 173.671C86.7865 173.809 86.699 173.929 86.586 174.031C86.4693 174.134 86.3089 174.221 86.0938 174.29C85.8787 174.36 85.6126 174.411 85.2844 174.447C84.96 174.484 84.5589 174.502 84.0813 174.502H80.7089V176.846H79.9287V170.922V170.929ZM80.7089 173.889H84.0813C84.4277 173.889 84.7193 173.882 84.9563 173.871C85.1933 173.86 85.3902 173.838 85.5433 173.809C85.6964 173.78 85.8167 173.732 85.9006 173.678C85.9844 173.623 86.0464 173.547 86.0865 173.455C86.1266 173.364 86.1485 173.251 86.1558 173.12C86.1631 172.992 86.1667 172.836 86.1667 172.657C86.1667 172.489 86.1667 172.347 86.1558 172.227C86.1449 172.106 86.1266 172.004 86.0865 171.921C86.0464 171.837 85.9844 171.771 85.9006 171.724C85.8167 171.676 85.6964 171.636 85.5433 171.611C85.3902 171.585 85.1933 171.567 84.9563 171.56C84.7193 171.552 84.4277 171.549 84.0813 171.549H80.7089V173.893V173.889ZM96.4917 170.805C96.9693 170.805 97.3704 170.834 97.6949 170.889C98.0193 170.943 98.2891 171.027 98.5006 171.14C98.712 171.253 98.8725 171.392 98.9891 171.563C99.1058 171.735 99.186 171.931 99.237 172.161C99.2881 172.391 99.3209 172.65 99.3318 172.938C99.3428 173.226 99.3464 173.543 99.3464 173.893C99.3464 174.243 99.3428 174.56 99.3318 174.848C99.3209 175.136 99.2917 175.395 99.237 175.625C99.1824 175.854 99.1021 176.051 98.9891 176.223C98.8761 176.39 98.712 176.532 98.5006 176.646C98.2891 176.759 98.0193 176.842 97.6949 176.897C97.3704 176.952 96.9693 176.981 96.4917 176.981H94.1438C93.6662 176.981 93.2652 176.952 92.9407 176.897C92.6162 176.842 92.3464 176.759 92.135 176.646C91.9235 176.532 91.7594 176.394 91.6464 176.223C91.5298 176.051 91.4459 175.854 91.3949 175.625C91.3438 175.395 91.311 175.136 91.3037 174.848C91.2964 174.56 91.2928 174.243 91.2928 173.893C91.2928 173.543 91.2964 173.226 91.3037 172.938C91.311 172.65 91.3438 172.391 91.3949 172.161C91.4459 171.931 91.5334 171.735 91.6464 171.563C91.7594 171.392 91.9235 171.253 92.135 171.14C92.3464 171.027 92.6162 170.943 92.9407 170.889C93.2652 170.834 93.6662 170.805 94.1438 170.805H96.4917ZM96.4917 176.357C96.8344 176.357 97.1261 176.347 97.3631 176.328C97.6001 176.31 97.7969 176.27 97.9501 176.212C98.1032 176.153 98.2235 176.066 98.3074 175.956C98.3912 175.847 98.4532 175.701 98.4896 175.515C98.5261 175.333 98.5516 175.107 98.5553 174.841C98.5589 174.575 98.5662 174.257 98.5662 173.886C98.5662 173.514 98.5662 173.197 98.5553 172.93C98.5443 172.664 98.5261 172.438 98.4896 172.256C98.4532 172.074 98.3912 171.928 98.3074 171.818C98.2235 171.709 98.1032 171.622 97.9537 171.563C97.8006 171.505 97.6073 171.465 97.3704 171.447C97.1334 171.428 96.8417 171.417 96.4954 171.417H94.1475C93.8011 171.417 93.5094 171.428 93.2725 171.447C93.0355 171.465 92.8386 171.505 92.6855 171.563C92.5324 171.622 92.412 171.705 92.3282 171.818C92.2443 171.928 92.1824 172.074 92.1459 172.256C92.1094 172.438 92.0876 172.664 92.0803 172.93C92.073 173.197 92.073 173.514 92.073 173.886C92.073 174.257 92.073 174.575 92.0839 174.841C92.0912 175.107 92.1131 175.333 92.1495 175.515C92.186 175.698 92.248 175.843 92.3318 175.956C92.4157 176.069 92.5324 176.153 92.6855 176.212C92.8386 176.27 93.0355 176.31 93.2725 176.328C93.5094 176.347 93.8011 176.357 94.1475 176.357H96.4954H96.4917ZM104.21 170.929H104.99V176.853H104.21V170.929ZM110.893 176.853H110.113V170.929H111.48L117.196 176.113V170.929H117.977V176.853H116.938L110.893 171.549V176.853ZM129.858 170.929V171.545H126.741V176.85H125.961V171.545H122.844V170.929H129.858ZM148.693 170.805C149.17 170.805 149.571 170.834 149.896 170.889C150.22 170.943 150.49 171.027 150.702 171.14C150.913 171.253 151.074 171.392 151.19 171.563C151.307 171.735 151.387 171.931 151.438 172.161C151.489 172.391 151.522 172.65 151.533 172.938C151.544 173.226 151.547 173.543 151.547 173.893C151.547 174.243 151.544 174.56 151.533 174.848C151.522 175.136 151.493 175.395 151.438 175.625C151.383 175.854 151.303 176.051 151.19 176.223C151.077 176.39 150.913 176.532 150.702 176.646C150.49 176.759 150.22 176.842 149.896 176.897C149.571 176.952 149.17 176.981 148.693 176.981H146.345C145.867 176.981 145.466 176.952 145.142 176.897C144.817 176.842 144.547 176.759 144.336 176.646C144.125 176.532 143.96 176.394 143.847 176.223C143.731 176.051 143.647 175.854 143.596 175.625C143.545 175.395 143.512 175.136 143.505 174.848C143.497 174.56 143.494 174.243 143.494 173.893C143.494 173.543 143.497 173.226 143.505 172.938C143.512 172.65 143.545 172.391 143.596 172.161C143.647 171.931 143.734 171.735 143.847 171.563C143.96 171.392 144.125 171.253 144.336 171.14C144.547 171.027 144.817 170.943 145.142 170.889C145.466 170.834 145.867 170.805 146.345 170.805H148.693ZM148.693 176.357C149.035 176.357 149.327 176.347 149.564 176.328C149.801 176.31 149.998 176.27 150.151 176.212C150.304 176.153 150.425 176.066 150.508 175.956C150.592 175.847 150.654 175.701 150.691 175.515C150.727 175.333 150.753 175.107 150.756 174.841C150.76 174.575 150.767 174.257 150.767 173.886C150.767 173.514 150.767 173.197 150.756 172.93C150.745 172.664 150.727 172.438 150.691 172.256C150.654 172.074 150.592 171.928 150.508 171.818C150.425 171.709 150.304 171.622 150.155 171.563C150.002 171.505 149.808 171.465 149.571 171.447C149.334 171.428 149.043 171.417 148.696 171.417H146.349C146.002 171.417 145.71 171.428 145.473 171.447C145.237 171.465 145.04 171.505 144.887 171.563C144.733 171.622 144.613 171.705 144.529 171.818C144.445 171.928 144.383 172.074 144.347 172.256C144.31 172.438 144.289 172.664 144.281 172.93C144.274 173.197 144.274 173.514 144.274 173.886C144.274 174.257 144.274 174.575 144.285 174.841C144.292 175.107 144.314 175.333 144.351 175.515C144.387 175.698 144.449 175.843 144.533 175.956C144.617 176.069 144.733 176.153 144.887 176.212C145.04 176.27 145.237 176.31 145.473 176.328C145.71 176.347 146.002 176.357 146.349 176.357H148.696H148.693ZM156.411 176.85V170.925H162.387V171.541H157.191V173.514H162.128V174.13H157.191V176.846H156.411V176.85ZM179.952 173.517C180.379 173.517 180.747 173.536 181.053 173.568C181.359 173.601 181.618 173.652 181.826 173.718C182.038 173.784 182.202 173.867 182.329 173.962C182.457 174.057 182.548 174.174 182.617 174.298C182.687 174.422 182.73 174.564 182.749 174.717C182.77 174.874 182.778 175.038 182.778 175.22C182.778 175.402 182.759 175.566 182.727 175.727C182.694 175.884 182.632 176.029 182.544 176.157C182.457 176.288 182.34 176.405 182.191 176.507C182.041 176.609 181.852 176.697 181.622 176.769C181.392 176.842 181.115 176.893 180.791 176.934C180.466 176.97 180.091 176.988 179.657 176.988H178.618C178.228 176.988 177.889 176.974 177.593 176.944C177.302 176.915 177.05 176.872 176.839 176.817C176.627 176.759 176.452 176.686 176.314 176.598C176.175 176.511 176.066 176.405 175.982 176.285C175.898 176.164 175.843 176.029 175.81 175.876C175.778 175.723 175.763 175.555 175.763 175.369H176.543C176.543 175.606 176.58 175.789 176.649 175.924C176.718 176.059 176.835 176.157 176.999 176.223C177.159 176.288 177.375 176.332 177.637 176.347C177.9 176.365 178.228 176.372 178.618 176.372H179.657C180.113 176.372 180.488 176.35 180.791 176.31C181.09 176.27 181.33 176.204 181.509 176.113C181.688 176.022 181.815 175.905 181.888 175.76C181.961 175.614 181.997 175.435 181.997 175.224C181.997 175.012 181.972 174.841 181.921 174.699C181.87 174.56 181.771 174.447 181.626 174.363C181.48 174.279 181.272 174.221 181.002 174.188C180.732 174.155 180.382 174.137 179.952 174.137H178.88C178.403 174.137 177.994 174.119 177.655 174.086C177.316 174.053 177.032 174.006 176.802 173.94C176.572 173.875 176.387 173.798 176.252 173.703C176.117 173.609 176.007 173.503 175.938 173.382C175.869 173.262 175.821 173.127 175.8 172.978C175.778 172.828 175.767 172.672 175.767 172.497C175.767 172.322 175.785 172.15 175.818 171.997C175.851 171.844 175.916 171.702 176.007 171.578C176.098 171.454 176.226 171.341 176.387 171.242C176.547 171.144 176.751 171.064 177.003 170.998C177.254 170.932 177.553 170.885 177.907 170.849C178.26 170.816 178.672 170.798 179.15 170.798H179.93C180.32 170.798 180.659 170.812 180.955 170.838C181.246 170.863 181.498 170.907 181.709 170.965C181.921 171.024 182.096 171.097 182.234 171.18C182.373 171.268 182.486 171.37 182.566 171.49C182.646 171.611 182.705 171.746 182.738 171.899C182.77 172.052 182.785 172.219 182.785 172.402H182.005C182.005 172.172 181.968 171.99 181.899 171.859C181.83 171.727 181.713 171.629 181.549 171.563C181.385 171.498 181.173 171.457 180.907 171.439C180.641 171.421 180.313 171.414 179.927 171.414H179.146C178.629 171.414 178.198 171.432 177.863 171.465C177.528 171.498 177.262 171.56 177.068 171.64C176.875 171.724 176.737 171.833 176.664 171.972C176.587 172.11 176.551 172.285 176.551 172.493C176.551 172.621 176.562 172.737 176.58 172.836C176.598 172.934 176.638 173.025 176.696 173.098C176.755 173.175 176.835 173.237 176.941 173.288C177.046 173.339 177.185 173.382 177.36 173.415C177.535 173.448 177.746 173.474 177.994 173.488C178.246 173.503 178.541 173.51 178.891 173.51H179.963L179.952 173.517ZM193.719 175.493H188.841L188.028 176.85H187.124L190.682 170.925H191.801L195.349 176.85H194.532L193.722 175.493H193.719ZM193.351 174.877L191.283 171.417L189.209 174.877H193.347H193.351ZM200.044 176.85V170.925H200.825V176.23H205.761V176.846H200.044V176.85ZM210.366 176.85V170.925H216.6V171.541H211.142V173.514H216.338V174.13H211.142V176.226H216.6V176.842H210.366V176.85ZM236.309 175.493H231.431L230.618 176.85H229.718L233.276 170.925H234.395L237.943 176.85H237.126L236.317 175.493H236.309ZM235.941 174.877L233.874 171.417L231.8 174.877H235.938H235.941ZM242.635 176.85V170.925H247.309C247.787 170.925 248.188 170.951 248.512 171.005C248.837 171.056 249.106 171.14 249.321 171.246C249.533 171.355 249.697 171.49 249.814 171.651C249.927 171.811 250.014 172.004 250.065 172.223C250.116 172.442 250.149 172.69 250.16 172.967C250.171 173.244 250.175 173.55 250.175 173.886C250.175 174.221 250.171 174.527 250.16 174.804C250.149 175.081 250.12 175.329 250.065 175.548C250.014 175.767 249.927 175.96 249.814 176.121C249.697 176.281 249.533 176.416 249.321 176.525C249.11 176.635 248.84 176.715 248.512 176.766C248.188 176.817 247.787 176.846 247.309 176.846H242.635V176.85ZM247.309 176.234C247.652 176.234 247.943 176.223 248.18 176.208C248.417 176.193 248.614 176.153 248.767 176.099C248.92 176.044 249.041 175.964 249.125 175.858C249.208 175.752 249.27 175.614 249.31 175.439C249.351 175.267 249.372 175.052 249.38 174.801C249.387 174.549 249.391 174.243 249.391 173.893C249.391 173.543 249.387 173.237 249.38 172.985C249.372 172.734 249.351 172.518 249.31 172.343C249.27 172.168 249.208 172.03 249.125 171.924C249.041 171.818 248.92 171.738 248.767 171.684C248.614 171.629 248.417 171.592 248.18 171.574C247.943 171.556 247.652 171.549 247.305 171.549H243.412V176.237H247.305L247.309 176.234ZM261.404 170.929H262.206L258.935 176.853H257.791L254.517 170.929H255.421L258.414 176.357L261.404 170.929ZM266.92 170.929H267.7V176.853H266.92V170.929ZM276.756 173.521C277.183 173.521 277.551 173.539 277.857 173.572C278.164 173.605 278.422 173.656 278.63 173.722C278.838 173.787 279.006 173.871 279.13 173.966C279.254 174.061 279.352 174.177 279.418 174.301C279.483 174.425 279.531 174.567 279.549 174.721C279.567 174.874 279.578 175.041 279.578 175.224C279.578 175.406 279.56 175.57 279.527 175.73C279.494 175.887 279.432 176.033 279.348 176.161C279.261 176.292 279.144 176.409 278.995 176.511C278.845 176.613 278.656 176.7 278.426 176.773C278.196 176.846 277.919 176.897 277.595 176.937C277.27 176.974 276.895 176.992 276.461 176.992H275.422C275.032 176.992 274.693 176.977 274.397 176.948C274.106 176.919 273.854 176.875 273.643 176.821C273.431 176.762 273.256 176.689 273.118 176.602C272.979 176.514 272.87 176.409 272.786 176.288C272.702 176.168 272.644 176.033 272.615 175.88C272.582 175.727 272.567 175.559 272.567 175.373H273.347C273.347 175.61 273.384 175.792 273.453 175.927C273.522 176.062 273.639 176.161 273.803 176.226C273.967 176.292 274.179 176.336 274.441 176.35C274.704 176.365 275.032 176.376 275.422 176.376H276.461C276.917 176.376 277.292 176.354 277.595 176.314C277.894 176.274 278.134 176.208 278.313 176.117C278.492 176.026 278.616 175.909 278.689 175.763C278.762 175.617 278.798 175.439 278.798 175.227C278.798 175.016 278.772 174.844 278.721 174.702C278.67 174.564 278.572 174.451 278.426 174.367C278.28 174.283 278.072 174.225 277.803 174.192C277.533 174.159 277.183 174.141 276.753 174.141H275.681C275.203 174.141 274.795 174.123 274.456 174.09C274.117 174.057 273.832 174.01 273.603 173.944C273.373 173.878 273.187 173.802 273.052 173.707C272.917 173.612 272.808 173.506 272.739 173.386C272.669 173.266 272.622 173.131 272.596 172.981C272.575 172.832 272.564 172.675 272.564 172.5C272.564 172.325 272.582 172.154 272.615 172.001C272.647 171.848 272.713 171.705 272.804 171.581C272.895 171.457 273.023 171.344 273.18 171.246C273.34 171.148 273.544 171.067 273.796 171.002C274.047 170.936 274.346 170.889 274.7 170.852C275.054 170.819 275.466 170.801 275.943 170.801H276.723C277.114 170.801 277.453 170.816 277.748 170.841C278.04 170.867 278.291 170.911 278.503 170.969C278.714 171.027 278.889 171.1 279.028 171.184C279.166 171.272 279.279 171.374 279.359 171.494C279.44 171.614 279.498 171.749 279.531 171.902C279.564 172.055 279.578 172.223 279.578 172.405H278.798C278.798 172.176 278.762 171.993 278.692 171.862C278.623 171.731 278.506 171.632 278.342 171.567C278.182 171.501 277.967 171.461 277.701 171.443C277.434 171.425 277.106 171.417 276.72 171.417H275.94C275.418 171.417 274.992 171.436 274.656 171.468C274.321 171.501 274.055 171.563 273.862 171.643C273.668 171.727 273.53 171.837 273.457 171.975C273.38 172.114 273.344 172.289 273.344 172.497C273.344 172.624 273.355 172.741 273.373 172.839C273.391 172.938 273.431 173.029 273.49 173.102C273.548 173.178 273.632 173.24 273.734 173.291C273.836 173.342 273.978 173.386 274.153 173.419C274.325 173.452 274.536 173.477 274.788 173.492C275.039 173.506 275.338 173.514 275.684 173.514H276.756V173.521ZM289.389 170.805C289.867 170.805 290.268 170.834 290.592 170.889C290.917 170.943 291.187 171.027 291.398 171.14C291.609 171.253 291.77 171.392 291.887 171.563C292.003 171.735 292.083 171.931 292.134 172.161C292.185 172.391 292.218 172.65 292.229 172.938C292.24 173.226 292.244 173.543 292.244 173.893C292.244 174.243 292.24 174.56 292.229 174.848C292.218 175.136 292.189 175.395 292.134 175.625C292.08 175.854 292 176.051 291.887 176.223C291.773 176.39 291.609 176.532 291.398 176.646C291.187 176.759 290.917 176.842 290.592 176.897C290.268 176.952 289.867 176.981 289.389 176.981H287.041C286.564 176.981 286.163 176.952 285.838 176.897C285.514 176.842 285.244 176.759 285.032 176.646C284.821 176.532 284.657 176.394 284.544 176.223C284.427 176.051 284.343 175.854 284.292 175.625C284.241 175.395 284.208 175.136 284.201 174.848C284.194 174.56 284.19 174.243 284.19 173.893C284.19 173.543 284.194 173.226 284.201 172.938C284.208 172.65 284.241 172.391 284.292 172.161C284.343 171.931 284.431 171.735 284.544 171.563C284.657 171.392 284.821 171.253 285.032 171.14C285.244 171.027 285.514 170.943 285.838 170.889C286.163 170.834 286.564 170.805 287.041 170.805H289.389ZM289.389 176.357C289.732 176.357 290.023 176.347 290.26 176.328C290.497 176.31 290.694 176.27 290.847 176.212C291.001 176.153 291.121 176.066 291.205 175.956C291.289 175.847 291.351 175.701 291.387 175.515C291.423 175.333 291.445 175.107 291.453 174.841C291.46 174.575 291.464 174.257 291.464 173.886C291.464 173.514 291.464 173.197 291.453 172.93C291.442 172.664 291.423 172.438 291.387 172.256C291.351 172.074 291.289 171.928 291.205 171.818C291.121 171.709 291.001 171.622 290.851 171.563C290.698 171.505 290.505 171.465 290.268 171.447C290.031 171.428 289.739 171.417 289.393 171.417H287.045C286.699 171.417 286.407 171.428 286.17 171.447C285.933 171.465 285.736 171.505 285.583 171.563C285.43 171.622 285.309 171.705 285.226 171.818C285.142 171.928 285.08 172.074 285.043 172.256C285.007 172.438 284.985 172.664 284.978 172.93C284.974 173.197 284.97 173.514 284.97 173.886C284.97 174.257 284.974 174.575 284.981 174.841C284.989 175.107 285.01 175.333 285.047 175.515C285.083 175.698 285.145 175.843 285.229 175.956C285.313 176.066 285.43 176.153 285.583 176.212C285.736 176.27 285.933 176.31 286.17 176.328C286.407 176.347 286.699 176.357 287.045 176.357H289.393H289.389ZM304.253 176.85H303.473V175.738C303.473 175.559 303.473 175.402 303.462 175.271C303.455 175.143 303.433 175.03 303.393 174.939C303.353 174.848 303.291 174.772 303.207 174.717C303.123 174.662 303.003 174.615 302.85 174.586C302.696 174.556 302.5 174.535 302.263 174.524C302.026 174.513 301.734 174.505 301.388 174.505H297.884V176.85H297.104V170.925H301.515C301.993 170.925 302.394 170.94 302.718 170.973C303.043 171.005 303.313 171.053 303.528 171.118C303.739 171.184 303.903 171.264 304.02 171.359C304.137 171.454 304.22 171.567 304.271 171.694C304.322 171.822 304.355 171.968 304.366 172.125C304.377 172.285 304.381 172.46 304.381 172.653C304.381 172.901 304.363 173.116 304.326 173.302C304.29 173.488 304.228 173.649 304.14 173.78C304.053 173.911 303.94 174.017 303.794 174.093C303.648 174.17 303.469 174.228 303.254 174.257C303.469 174.287 303.644 174.341 303.772 174.418C303.903 174.494 304.002 174.597 304.071 174.717C304.14 174.841 304.188 174.987 304.209 175.158C304.231 175.329 304.242 175.519 304.242 175.738V176.85H304.253ZM297.888 173.889H301.519C301.865 173.889 302.157 173.882 302.394 173.871C302.631 173.86 302.828 173.838 302.981 173.809C303.134 173.78 303.254 173.732 303.338 173.678C303.422 173.623 303.484 173.547 303.524 173.455C303.564 173.364 303.586 173.251 303.593 173.12C303.601 172.992 303.604 172.836 303.604 172.657C303.604 172.489 303.604 172.347 303.593 172.227C303.582 172.106 303.564 172.004 303.524 171.921C303.484 171.837 303.422 171.771 303.338 171.724C303.254 171.676 303.134 171.636 302.981 171.611C302.828 171.585 302.631 171.567 302.394 171.56C302.157 171.552 301.865 171.549 301.519 171.549H297.888V173.893V173.889ZM313.178 173.517C313.605 173.517 313.973 173.536 314.279 173.568C314.585 173.601 314.844 173.652 315.052 173.718C315.26 173.784 315.428 173.867 315.552 173.962C315.676 174.057 315.774 174.174 315.84 174.298C315.905 174.422 315.953 174.564 315.971 174.717C315.989 174.87 316 175.038 316 175.22C316 175.402 315.982 175.566 315.949 175.727C315.916 175.884 315.854 176.029 315.77 176.157C315.683 176.288 315.566 176.405 315.417 176.507C315.267 176.609 315.078 176.697 314.848 176.769C314.618 176.842 314.341 176.893 314.017 176.934C313.692 176.97 313.317 176.988 312.883 176.988H311.844C311.454 176.988 311.115 176.974 310.819 176.944C310.528 176.915 310.276 176.872 310.065 176.817C309.853 176.759 309.678 176.686 309.54 176.598C309.401 176.511 309.292 176.405 309.208 176.285C309.124 176.164 309.066 176.029 309.037 175.876C309.004 175.723 308.989 175.555 308.989 175.369H309.769C309.769 175.606 309.806 175.789 309.875 175.924C309.944 176.059 310.061 176.157 310.225 176.223C310.389 176.288 310.601 176.332 310.863 176.347C311.126 176.361 311.454 176.372 311.844 176.372H312.883C313.339 176.372 313.714 176.35 314.017 176.31C314.316 176.27 314.556 176.204 314.735 176.113C314.914 176.022 315.038 175.905 315.11 175.76C315.183 175.614 315.22 175.435 315.22 175.224C315.22 175.012 315.194 174.841 315.143 174.699C315.092 174.56 314.994 174.447 314.848 174.363C314.702 174.279 314.494 174.221 314.225 174.188C313.955 174.155 313.605 174.137 313.175 174.137H312.103C311.625 174.137 311.217 174.119 310.878 174.086C310.539 174.053 310.254 174.006 310.025 173.94C309.795 173.875 309.609 173.798 309.474 173.703C309.339 173.609 309.23 173.503 309.16 173.382C309.091 173.262 309.044 173.127 309.018 172.978C308.996 172.828 308.985 172.672 308.985 172.497C308.985 172.322 309.004 172.15 309.037 171.997C309.069 171.844 309.135 171.702 309.226 171.578C309.317 171.454 309.445 171.341 309.602 171.242C309.762 171.144 309.966 171.064 310.218 170.998C310.469 170.932 310.768 170.885 311.122 170.849C311.476 170.816 311.888 170.798 312.365 170.798H313.145C313.535 170.798 313.875 170.812 314.17 170.838C314.462 170.863 314.713 170.907 314.925 170.965C315.136 171.024 315.311 171.097 315.45 171.18C315.588 171.268 315.701 171.37 315.781 171.49C315.862 171.611 315.92 171.746 315.953 171.899C315.985 172.052 316 172.219 316 172.402H315.22C315.22 172.172 315.183 171.99 315.114 171.859C315.045 171.727 314.928 171.629 314.764 171.563C314.604 171.498 314.389 171.457 314.122 171.439C313.856 171.421 313.528 171.414 313.142 171.414H312.362C311.84 171.414 311.414 171.432 311.078 171.465C310.743 171.498 310.477 171.56 310.283 171.64C310.09 171.724 309.952 171.833 309.879 171.972C309.802 172.11 309.766 172.285 309.766 172.493C309.766 172.621 309.777 172.737 309.795 172.836C309.813 172.934 309.853 173.025 309.912 173.098C309.97 173.175 310.054 173.237 310.156 173.288C310.258 173.339 310.4 173.382 310.575 173.415C310.746 173.448 310.958 173.474 311.209 173.488C311.461 173.503 311.76 173.51 312.106 173.51H313.178V173.517ZM286.418 156.546H293.553C293.542 157.749 293.782 158.529 294.278 158.872C294.635 159.102 295.088 159.233 295.653 159.277C296.214 159.317 297.982 159.35 300.95 159.372C304.064 159.361 305.934 159.342 306.561 159.313C307.184 159.284 307.68 159.193 308.041 159.036C308.584 158.814 308.858 158.201 308.858 157.21C308.858 156.491 308.665 156.006 308.285 155.766C307.899 155.525 307.119 155.39 305.938 155.365C305.03 155.365 303.101 155.292 300.163 155.153C297.151 155.007 295.193 154.931 294.285 154.905C292.514 154.843 291.154 154.676 290.202 154.399C289.254 154.122 288.51 153.666 287.978 153.042C287.07 151.996 286.618 150.261 286.618 147.825C286.618 145.091 287.14 143.162 288.179 142.039C288.97 141.168 290.188 140.606 291.825 140.366C293.469 140.125 296.801 140.005 301.832 140.005C305.387 140.005 307.884 140.107 309.325 140.307C311.545 140.617 313.069 141.234 313.896 142.16C314.724 143.089 315.136 144.657 315.136 146.852V147.989H307.994C307.968 147.311 307.914 146.852 307.822 146.604C307.739 146.356 307.564 146.155 307.301 145.999C306.98 145.813 306.419 145.689 305.613 145.634C304.815 145.579 303.108 145.554 300.509 145.554C297.381 145.554 295.47 145.652 294.789 145.846C294.107 146.046 293.76 146.582 293.76 147.472C293.76 148.361 294.107 148.839 294.789 149.032C295.357 149.181 297.957 149.327 302.594 149.473C306.503 149.59 309.113 149.728 310.433 149.889C311.749 150.046 312.795 150.348 313.576 150.804C314.458 151.336 315.089 152.062 315.45 152.991C315.818 153.917 316 155.248 316 156.987C316 159.266 315.694 160.957 315.081 162.073C314.615 162.89 313.98 163.502 313.16 163.9C312.34 164.297 311.184 164.571 309.696 164.716C308.1 164.855 305.132 164.928 300.782 164.928C297.147 164.928 294.457 164.833 292.721 164.643C290.986 164.457 289.681 164.118 288.802 163.634C287.894 163.109 287.267 162.423 286.917 161.574C286.571 160.721 286.396 159.426 286.396 157.687L286.414 156.55M267.747 146.319C263.835 146.319 261.484 146.422 260.689 146.622C259.781 146.859 259.183 147.391 258.899 148.212C258.615 149.036 258.476 150.665 258.476 153.115C258.476 154.596 258.556 155.667 258.706 156.327C259.001 157.56 259.891 158.263 261.385 158.442C262.479 158.58 264.616 158.653 267.784 158.653C270.748 158.653 272.724 158.599 273.705 158.497C274.685 158.387 275.411 158.15 275.881 157.782C276.312 157.45 276.596 156.965 276.753 156.32C276.902 155.671 276.982 154.621 276.982 153.152C276.982 151.413 276.924 150.137 276.807 149.32C276.687 148.503 276.476 147.887 276.166 147.475C275.779 146.954 275.13 146.629 274.237 146.509C273.337 146.381 271.178 146.323 267.751 146.323L267.747 146.319ZM267.729 140.041C272.946 140.041 276.538 140.169 278.499 140.428C281.325 140.811 283.053 142.152 283.694 144.449C284.128 146.031 284.347 148.704 284.347 152.474C284.347 156.243 284.128 158.938 283.694 160.52C283.053 162.817 281.325 164.162 278.499 164.541C276.541 164.8 272.972 164.928 267.802 164.928C262.632 164.928 258.921 164.8 256.959 164.541C254.134 164.159 252.406 162.817 251.764 160.52C251.33 158.938 251.112 156.211 251.112 152.331C251.112 148.452 251.33 146.021 251.764 144.449C252.406 142.152 254.134 140.807 256.959 140.428C258.906 140.169 262.497 140.041 267.729 140.041ZM226.232 152.375H236.608C238.402 152.339 239.481 152.31 239.824 152.28C240.167 152.251 240.466 152.16 240.714 152.003C241.034 151.803 241.257 151.507 241.384 151.114C241.512 150.716 241.578 150.115 241.578 149.313C241.578 148.511 241.505 147.935 241.359 147.541C241.209 147.154 240.954 146.87 240.59 146.695C240.331 146.575 240.021 146.509 239.664 146.484C239.306 146.458 238.278 146.443 236.587 146.429H226.229V152.379L226.232 152.375ZM218.868 164.567V140.366H236.681C240.859 140.377 243.357 140.421 244.184 140.497C245.008 140.577 245.803 140.847 246.572 141.321C247.491 141.879 248.126 142.644 248.465 143.618C248.807 144.599 248.979 146.134 248.979 148.226C248.979 149.987 248.869 151.285 248.651 152.113C248.432 152.94 248.023 153.6 247.422 154.096C246.777 154.628 245.803 154.997 244.498 155.197C246.04 155.317 247.152 155.759 247.823 156.528C248.209 156.987 248.457 157.545 248.567 158.201C248.669 158.854 248.723 160.228 248.723 162.321V164.563H241.468V163.276C241.468 161.935 241.421 160.972 241.319 160.403C241.217 159.831 241.034 159.393 240.761 159.087C240.491 158.803 240.116 158.628 239.631 158.548C239.153 158.471 238.151 158.435 236.627 158.435H226.232V164.567H218.868ZM187.408 164.567V140.366H203.967C207.245 140.366 209.363 140.431 210.304 140.559C212.699 140.88 214.318 141.653 215.167 142.874C216.006 144.096 216.432 146.283 216.432 149.429C216.432 152.576 216.082 154.519 215.386 155.726C214.916 156.542 214.256 157.166 213.403 157.589C212.557 158.012 211.39 158.307 209.914 158.478C208.867 158.595 206.909 158.653 204.037 158.653H197.179V152.594H203.982C205.655 152.583 206.672 152.557 207.048 152.521C207.416 152.485 207.748 152.393 208.047 152.244C208.422 152.036 208.681 151.737 208.82 151.329C208.958 150.924 209.031 150.29 209.031 149.429C209.031 148.569 208.94 147.935 208.765 147.537C208.59 147.14 208.277 146.848 207.835 146.673C207.504 146.542 206.22 146.462 203.985 146.425H194.776V164.567H187.412H187.408ZM146.181 156.55H153.316C153.305 157.753 153.545 158.533 154.041 158.876C154.398 159.105 154.851 159.237 155.416 159.28C155.977 159.321 157.742 159.353 160.713 159.375C163.827 159.364 165.697 159.346 166.324 159.317C166.947 159.288 167.443 159.197 167.804 159.04C168.347 158.817 168.621 158.205 168.621 157.213C168.621 156.495 168.428 156.01 168.049 155.769C167.662 155.529 166.882 155.394 165.701 155.368C164.793 155.368 162.864 155.296 159.926 155.157C156.914 155.011 154.956 154.935 154.049 154.909C152.277 154.847 150.917 154.679 149.965 154.402C149.017 154.125 148.273 153.669 147.741 153.046C146.833 152 146.381 150.264 146.381 147.829C146.381 145.094 146.903 143.166 147.942 142.043C148.733 141.172 149.951 140.61 151.588 140.369C153.232 140.129 156.564 140.009 161.595 140.009C165.15 140.009 167.647 140.111 169.088 140.311C171.308 140.621 172.832 141.237 173.659 142.163C174.487 143.093 174.899 144.661 174.899 146.855V147.993H167.757C167.731 147.315 167.68 146.855 167.589 146.607C167.505 146.36 167.33 146.159 167.068 146.002C166.747 145.816 166.185 145.692 165.38 145.638C164.581 145.583 162.875 145.557 160.276 145.557C157.147 145.557 155.237 145.656 154.555 145.849C153.873 146.05 153.527 146.586 153.527 147.475C153.527 148.365 153.873 148.842 154.555 149.036C155.124 149.185 157.723 149.331 162.361 149.477C166.269 149.593 168.88 149.732 170.2 149.892C171.516 150.049 172.562 150.352 173.342 150.807C174.225 151.34 174.855 152.065 175.216 152.995C175.584 153.921 175.767 155.252 175.767 156.991C175.767 159.269 175.457 160.961 174.848 162.077C174.381 162.893 173.747 163.506 172.927 163.903C172.103 164.301 170.951 164.574 169.463 164.72C167.866 164.859 164.898 164.931 160.549 164.931C156.914 164.931 154.224 164.837 152.488 164.647C150.753 164.461 149.447 164.122 148.569 163.637C147.661 163.112 147.034 162.427 146.684 161.577C146.338 160.724 146.163 159.43 146.163 157.691L146.181 156.553V156.55ZM127.514 146.319C123.602 146.319 121.251 146.422 120.459 146.622C119.552 146.859 118.954 147.391 118.669 148.212C118.385 149.036 118.246 150.665 118.246 153.115C118.246 154.596 118.327 155.667 118.476 156.327C118.771 157.56 119.661 158.263 121.156 158.442C122.25 158.58 124.386 158.653 127.554 158.653C130.515 158.653 132.494 158.599 133.475 158.497C134.456 158.387 135.178 158.15 135.652 157.782C136.082 157.45 136.366 156.965 136.523 156.32C136.672 155.671 136.753 154.621 136.753 153.152C136.753 151.413 136.694 150.137 136.578 149.32C136.457 148.503 136.246 147.887 135.936 147.475C135.55 146.954 134.901 146.629 134.007 146.509C133.107 146.381 130.948 146.323 127.518 146.323L127.514 146.319ZM127.496 140.041C132.713 140.041 136.304 140.169 138.266 140.428C141.091 140.811 142.819 142.152 143.461 144.449C143.895 146.031 144.114 148.704 144.114 152.474C144.114 156.243 143.895 158.938 143.461 160.52C142.819 162.817 141.091 164.162 138.266 164.541C136.308 164.8 132.739 164.928 127.569 164.928C122.399 164.928 118.688 164.8 116.726 164.541C113.901 164.159 112.172 162.817 111.531 160.52C111.097 158.938 110.878 156.211 110.878 152.331C110.878 148.452 111.097 146.021 111.531 144.449C112.172 142.152 113.901 140.807 116.726 140.428C118.673 140.169 122.264 140.041 127.496 140.041ZM79.9287 164.567V140.366H96.4881C99.7657 140.366 101.884 140.431 102.825 140.559C105.22 140.88 106.839 141.653 107.688 142.874C108.527 144.096 108.953 146.283 108.953 149.429C108.953 152.576 108.603 154.519 107.907 155.726C107.437 156.542 106.777 157.166 105.924 157.589C105.078 158.012 103.911 158.307 102.434 158.478C101.388 158.595 99.4303 158.653 96.5574 158.653H89.7032V152.594H96.5027C98.1761 152.583 99.1933 152.557 99.5688 152.521C99.937 152.485 100.269 152.393 100.568 152.244C100.943 152.036 101.202 151.737 101.341 151.329C101.479 150.924 101.552 150.29 101.552 149.429C101.552 148.569 101.461 147.935 101.286 147.537C101.111 147.14 100.797 146.848 100.356 146.673C100.025 146.542 98.7412 146.462 96.5063 146.425H87.2969V152.594V158.653V164.567H79.9324H79.9287Z" fill="#293038"/>
<path fill-rule="evenodd" clip-rule="evenodd" d="M1 158.406C8.525 150.881 15.8859 143.523 23.7609 135.648C27.7057 131.704 33.663 130.923 38.4026 133.311L13.662 158.052L40.5682 184.958H27.5526L1 158.406ZM19.7141 158.081C27.2391 150.556 34.6 143.199 42.475 135.32C47.3896 130.406 55.4323 130.406 60.3469 135.32L63.2125 138.186C68.1271 143.1 68.1271 151.143 63.2125 156.058L49.9708 169.299L43.9005 163.229C48.1734 158.956 52.4464 154.683 56.7193 150.41C58.3417 148.788 58.3417 146.134 56.7193 144.508L54.1052 141.894C52.4828 140.271 49.8286 140.271 48.2062 141.894L32.3724 157.724C41.4469 166.798 50.525 175.876 59.5995 184.951H46.5839C37.626 175.993 28.6682 167.035 19.7104 158.078L19.7141 158.081Z" fill="#08D8C8"/>
</g>
<defs>
<clipPath id="clip0_228_276">
<rect width="315" height="53.9583" fill="white" transform="translate(1 131)"/>
</clipPath>
</defs>
</svg>
