<svg width="316" height="315" viewBox="0 0 316 315" fill="none" xmlns="http://www.w3.org/2000/svg">
<g clip-path="url(#clip0_220_1381)">
<path d="M43.7368 200.702C67.765 200.702 87.2437 181.224 87.2437 157.197C87.2437 133.169 67.765 113.691 43.7368 113.691C19.7087 113.691 0.22998 133.169 0.22998 157.197C0.22998 181.224 19.7087 200.702 43.7368 200.702Z" fill="#EC4702"/>
<path d="M13.8794 150.36C14.1166 151.891 14.8907 153.289 16.0634 154.303C17.065 155.219 18.2453 155.918 19.5301 156.357C19.9934 156.523 20.4475 156.714 20.8907 156.929C21.1767 157.067 21.4714 157.206 21.7574 157.327L23.9327 158.255L26.3421 159.269L29.0894 160.464L31.3514 161.444L33.5268 162.388L34.2981 162.726C35.0781 163.064 35.8755 163.411 36.7248 163.706C38.2691 164.228 39.8593 164.602 41.4742 164.824C42.427 164.962 43.3886 165.032 44.3515 165.032C45.6437 165.033 46.9328 164.905 48.1995 164.65C49.9702 164.318 51.6954 163.777 53.3389 163.038C54.1189 162.683 54.9162 162.354 55.7049 162.033L57.2562 161.383L58.6169 160.776L59.9256 160.196L61.9189 159.329L63.8689 158.506C64.9176 158.064 65.9489 157.639 66.9889 157.137L68.0376 156.695C69.2995 156.229 70.4988 155.609 71.6083 154.849C72.8361 154.002 73.7644 152.789 74.2603 151.382C74.428 150.867 74.5669 150.344 74.6763 149.814V149.701C74.7632 149.295 74.7632 148.876 74.6763 148.47C74.6278 148.242 74.567 148.016 74.4943 147.794V147.682C74.4943 147.569 74.4336 147.456 74.399 147.344C74.2987 146.908 74.1535 146.484 73.9656 146.078C72.9946 144.262 71.4049 142.854 69.4849 142.109C67.2576 141.13 65.0216 140.168 62.7856 139.206L60.3849 138.227L58.3309 137.36C56.9616 136.771 55.5835 136.19 54.2142 135.575C52.4142 134.722 50.5122 134.105 48.5549 133.737C47.5582 133.564 46.5788 133.46 45.7035 133.373L44.7068 133.261H44.5248L43.2855 133.356C42.5228 133.408 41.8382 133.46 41.1622 133.538C40.5782 133.612 39.9993 133.722 39.4288 133.867L39.2208 133.919C37.9842 134.168 36.774 134.533 35.6068 135.011C33.5095 135.93 31.4063 136.84 29.2974 137.741L27.7981 138.383L20.6914 141.398L20.2147 141.598C18.8047 142.105 17.4916 142.85 16.3321 143.799C15.1377 144.73 14.2993 146.042 13.9574 147.517C13.9574 147.612 13.9054 147.708 13.8794 147.803C13.7976 148.04 13.7338 148.284 13.6887 148.531C13.6246 148.944 13.6246 149.365 13.6887 149.779C13.7339 149.978 13.7977 150.172 13.8794 150.36ZM67.9423 149.302C67.439 149.758 66.8496 150.109 66.2089 150.334L64.7789 150.957C63.2796 151.607 61.7889 152.266 60.2896 152.907L53.6249 155.785L52.4635 156.287C51.4409 156.738 50.4702 157.154 49.4735 157.509C46.3922 158.53 43.0816 158.638 39.9401 157.821C38.8481 157.457 37.7302 156.998 36.6815 156.565L32.5301 154.779L29.8434 153.627L27.2868 152.543C25.8654 151.945 24.4441 151.347 23.0227 150.724L22.3987 150.463C21.8466 150.279 21.3262 150.01 20.8561 149.666C20.6799 149.503 20.5229 149.319 20.3881 149.12C20.9778 148.552 21.689 148.125 22.4681 147.872L33.4228 143.175C34.7835 142.594 36.1441 142.014 37.5395 141.39C38.493 140.919 39.4958 140.556 40.5295 140.307C41.336 140.141 42.1523 140.028 42.9735 139.969C44.2747 139.861 45.5842 139.91 46.8735 140.116C48.0433 140.31 49.1825 140.657 50.2622 141.147C51.8511 141.84 53.4458 142.528 55.0462 143.21L63.7129 146.91C64.8136 147.387 65.9229 147.855 67.0149 148.349C67.3895 148.494 67.7206 148.733 67.9769 149.042L68.0636 149.181C68.0273 149.233 67.9867 149.283 67.9423 149.328V149.302Z" fill="white"/>
<path d="M44.3429 165.091C43.3796 165.093 42.4176 165.02 41.4655 164.874C39.8448 164.658 38.2486 164.287 36.6988 163.765C35.8321 163.479 35.0868 163.132 34.3241 162.803L33.4575 162.448L31.4728 161.581L29.0201 160.507L26.2728 159.319L24.3488 158.505L23.8634 158.297L21.6881 157.378L20.8214 156.979C20.3806 156.76 19.9261 156.569 19.4607 156.407C18.1774 155.962 16.9979 155.26 15.994 154.345C14.824 153.316 14.0615 151.901 13.8447 150.358C13.7726 150.162 13.7203 149.959 13.6887 149.752C13.6246 149.332 13.6246 148.906 13.6887 148.486C13.7379 148.237 13.8016 147.991 13.8794 147.75V147.689C13.9036 147.618 13.9239 147.546 13.9401 147.472C14.2824 145.986 15.1273 144.664 16.3321 143.728C17.4954 142.778 18.811 142.031 20.2234 141.519L20.7001 141.319L27.7721 138.295L29.2714 137.653C31.6115 136.648 33.6048 135.816 35.5808 134.932C36.7494 134.447 37.9628 134.079 39.2035 133.831L39.4115 133.779C39.982 133.635 40.5609 133.525 41.1448 133.45C41.8295 133.372 42.5315 133.32 43.2768 133.268L44.5162 133.173H44.7068L45.7035 133.285C46.5702 133.372 47.5495 133.476 48.5375 133.649C50.4993 134.015 52.4048 134.635 54.2056 135.495C55.5489 136.093 56.9356 136.683 58.2702 137.229H58.3223L60.3763 138.095L62.7596 139.118C64.9436 140.054 67.2056 141.025 69.4589 142.021C71.3899 142.764 72.9873 144.18 73.957 146.008C74.146 146.414 74.294 146.838 74.399 147.273C74.399 147.386 74.4596 147.507 74.4943 147.62V147.724C74.5723 147.984 74.633 148.192 74.6763 148.408C74.7631 148.82 74.7631 149.245 74.6763 149.656V149.769C74.5669 150.302 74.428 150.829 74.2603 151.346C73.7583 152.754 72.824 153.968 71.591 154.813C70.4776 155.574 69.2757 156.197 68.0116 156.667H67.9249L66.963 157.075C66.0009 157.499 64.9089 157.985 63.8429 158.435L61.8929 159.259L59.8996 160.125L58.7296 160.645L58.5909 160.706C58.1316 160.905 57.7242 161.113 57.2302 161.304L55.8522 161.885L55.6182 161.98C54.8555 162.292 54.0756 162.621 53.3129 162.959C51.668 163.704 49.9396 164.248 48.1649 164.58C46.9109 164.876 45.6306 165.048 44.3429 165.091ZM44.5248 133.285L43.2942 133.381C42.5488 133.433 41.8468 133.485 41.1622 133.563C40.5783 133.638 39.9995 133.748 39.4288 133.892L39.2208 133.935C37.9875 134.19 36.7805 134.558 35.6155 135.036C33.5961 135.903 31.6461 136.769 29.3061 137.757L27.8068 138.399C25.5101 139.387 23.1267 140.409 20.7347 141.423L20.2581 141.623C18.8542 142.134 17.545 142.875 16.3841 143.815C15.1974 144.742 14.3651 146.048 14.0267 147.516C14.0267 147.594 13.9834 147.672 13.9661 147.741V147.802C13.8842 148.039 13.8205 148.283 13.7754 148.53C13.7069 148.937 13.7069 149.353 13.7754 149.76C13.8038 149.964 13.8532 150.165 13.9227 150.358C14.1576 151.88 14.9255 153.268 16.0894 154.275C17.0923 155.19 18.2722 155.889 19.5561 156.329C20.0208 156.492 20.4752 156.683 20.9168 156.901L21.7834 157.3L23.9587 158.219L24.4441 158.418L26.3681 159.241L29.1154 160.429L31.5681 161.503L33.5528 162.37L34.3761 162.734C35.1388 163.063 35.9188 163.401 36.7421 163.687C38.287 164.207 39.877 164.581 41.4915 164.805C43.72 165.142 45.9902 165.086 48.1995 164.64C49.9668 164.301 51.6885 163.757 53.3302 163.02C54.0929 162.673 54.8816 162.353 55.6356 162.041L55.8696 161.945L57.2476 161.365C57.7069 161.174 58.1142 160.966 58.6082 160.758L58.7469 160.706L59.9169 160.186L61.9103 159.319L63.8603 158.496C64.9263 158.045 66.0183 157.56 66.9803 157.135C67.2923 156.988 67.6216 156.858 67.9423 156.728L68.0289 156.685C69.2878 156.222 70.4843 155.605 71.591 154.847C72.8024 153.996 73.7126 152.782 74.191 151.381C74.3576 150.869 74.4965 150.348 74.607 149.821V149.7C74.6937 149.3 74.6937 148.886 74.607 148.486C74.5636 148.278 74.503 148.062 74.425 147.81V147.698C74.425 147.585 74.3643 147.472 74.3296 147.36C74.2304 146.929 74.0851 146.511 73.8963 146.112C72.9345 144.302 71.3532 142.899 69.4416 142.16C67.1883 141.163 64.9263 140.193 62.7422 139.257L60.3589 138.234C59.6829 137.939 58.9982 137.645 58.3049 137.367H58.2529C56.9182 136.795 55.5316 136.206 54.1882 135.634C52.3912 134.782 50.4921 134.165 48.5375 133.797C47.5582 133.624 46.5788 133.519 45.7122 133.433L44.7155 133.32L44.5248 133.285ZM44.1868 158.418C42.7516 158.456 41.3191 158.272 39.9402 157.872C38.8568 157.517 37.7735 157.066 36.6728 156.607C35.2861 156.026 33.8821 155.419 32.5215 154.83L29.8348 153.677L27.2781 152.594C25.7614 151.953 24.3921 151.372 23.0141 150.774L22.4854 150.549H22.3901C21.8327 150.362 21.3089 150.087 20.8388 149.734C20.6598 149.571 20.4999 149.388 20.3621 149.188C20.9525 148.608 21.6709 148.175 22.4594 147.923L33.4141 143.226C34.7488 142.663 36.1268 142.073 37.5308 141.449C38.485 140.971 39.4913 140.605 40.5295 140.357C41.3388 140.191 42.1581 140.078 42.9822 140.019C44.2863 139.912 45.5986 139.961 46.8909 140.167C48.0618 140.368 49.2031 140.714 50.2882 141.198C51.8915 141.909 53.5036 142.593 55.0722 143.26L63.7389 146.961C64.8223 147.429 65.9316 147.906 67.041 148.4C67.4216 148.551 67.7583 148.795 68.0203 149.11L68.1156 149.258V149.301L67.9856 149.457C67.4767 149.907 66.8891 150.26 66.2523 150.497L64.5189 151.242L60.2983 152.958L53.6769 155.801L52.5155 156.303C51.4842 156.754 50.5135 157.17 49.5255 157.534C47.8181 158.164 46.0059 158.461 44.1868 158.409V158.418ZM20.4487 149.128C20.5779 149.316 20.7292 149.487 20.8994 149.639C21.3584 149.983 21.8708 150.249 22.4161 150.428L22.5201 150.471L23.0488 150.696C24.4268 151.294 25.7961 151.875 27.3128 152.516L29.8694 153.599L32.5561 154.752C33.9168 155.341 35.3208 155.948 36.7075 156.529C37.8082 156.988 38.8828 157.395 39.9662 157.785C41.3361 158.186 42.7601 158.37 44.1868 158.331C45.9969 158.385 47.8005 158.091 49.4995 157.465C50.4875 157.118 51.4496 156.693 52.4722 156.243L53.6422 155.74L60.2636 152.897L64.4669 151.069L66.2003 150.324C66.8391 150.099 67.4279 149.751 67.9336 149.301L68.0376 149.18L67.9683 149.067C67.7137 148.765 67.3895 148.53 67.0236 148.382C65.9143 147.888 64.8049 147.412 63.7216 146.952L55.0549 143.243C53.4862 142.576 51.8742 141.891 50.2709 141.181C49.1951 140.698 48.0622 140.354 46.8995 140.158C45.613 139.953 44.3065 139.903 43.0082 140.011C42.187 140.07 41.3705 140.182 40.5642 140.349C39.5333 140.598 38.5334 140.961 37.5828 141.432C36.1788 142.056 34.8008 142.645 33.4661 143.217L22.5114 147.906C21.744 148.156 21.0402 148.57 20.4487 149.119V149.128Z" fill="white"/>
<path d="M72.07 161.866L70.4407 162.568L67.8407 163.677L65.2407 164.856L63.022 165.844L61.1673 166.659L58.8273 167.69L56.8946 168.557C55.612 169.103 54.2946 169.649 53.0293 170.177C52.5613 170.368 52.102 170.585 51.6426 170.793C50.8213 171.197 49.9658 171.528 49.086 171.781L48.3666 171.963C47.7671 172.138 47.156 172.271 46.5379 172.361C43.7955 172.788 40.9885 172.461 38.4172 171.417C36.9786 170.793 35.5312 170.186 34.0839 169.579L31.5272 168.505L31.3799 168.435C29.8545 167.794 28.3292 167.141 26.8038 166.477C25.3738 165.844 23.9525 165.203 22.5225 164.553L21.5432 164.111L19.8272 163.357L17.9985 162.49L16.7678 161.953L12.7031 160.22L13.7258 164.137C13.7865 164.362 13.8298 164.553 13.8905 164.735C13.9511 164.917 13.9771 164.995 14.0118 165.133C14.1445 165.64 14.3304 166.131 14.5665 166.598C15.4255 168.132 16.7568 169.348 18.3625 170.065C19.0558 170.411 19.7578 170.689 20.4338 170.931L21.4392 171.339L22.7652 171.911L23.9872 172.448L25.7899 173.202L27.8525 174.068L29.9932 175.004L31.8045 175.793L32.3679 176.036C33.2345 176.417 34.1012 176.798 35.0199 177.154L35.3666 177.292C36.2134 177.65 37.0818 177.954 37.9666 178.202C39.1626 178.514 40.3759 178.714 41.6066 178.913C42.4669 179.045 43.3363 179.108 44.2066 179.104C45.2656 179.101 46.3229 179.02 47.3699 178.861C48.1586 178.74 48.9213 178.558 49.5713 178.402L49.7273 178.358C50.4645 178.195 51.191 177.987 51.9026 177.734C52.622 177.474 53.3066 177.171 53.974 176.868L62.5453 173.202L66.0727 171.685L67.0954 171.235L69.1147 170.368C70.725 169.762 72.1436 168.735 73.2227 167.395C73.8594 166.633 74.2732 165.709 74.4187 164.726C74.4436 164.617 74.4754 164.51 74.5141 164.405L74.6354 164.007L75.6927 160.176L72.07 161.866Z" fill="white"/>
<path d="M44.1963 179.158C43.326 179.161 42.4568 179.098 41.5963 178.967C40.3656 178.768 39.161 178.568 37.9563 178.256C37.071 178.009 36.2025 177.705 35.3563 177.346L35.0183 177.208C34.1516 176.861 33.2849 176.48 32.4183 176.116L31.7943 175.847L29.9829 175.058L27.8423 174.131L25.7796 173.265L23.9769 172.502L22.9456 172.051L22.6942 171.947L21.4289 171.393L20.4322 170.994C19.7248 170.74 19.0306 170.451 18.3522 170.127C16.739 169.412 15.3989 168.197 14.5302 166.661C14.2961 166.19 14.1103 165.696 13.9755 165.187C13.9322 165.057 13.8975 164.928 13.8542 164.806C13.8109 164.685 13.7502 164.46 13.6982 164.217L12.6409 160.204H12.7275L16.7922 161.938L18.0922 162.492L19.6349 163.194L19.9989 163.359L21.5589 164.078L22.7462 164.607C24.0809 165.213 25.4589 165.837 26.8196 166.435C28.1803 167.033 29.8183 167.727 31.2743 168.351L31.5429 168.463L33.727 169.382L34.1343 169.555C35.547 170.145 37.0116 170.76 38.4676 171.375C41.0298 172.42 43.8284 172.747 46.5623 172.32C47.1806 172.231 47.7917 172.097 48.391 171.921L49.1104 171.739C49.9891 171.492 50.8423 171.161 51.6584 170.751C52.109 170.543 52.577 170.335 53.045 170.145C54.1804 169.677 55.3677 169.174 56.9104 168.515L58.7217 167.727L58.843 167.675L61.5124 166.522L63.0724 165.837L64.9097 165.014L65.2911 164.841L67.8911 163.662L70.3004 162.622L70.4565 162.562L72.0858 161.851L75.7778 160.118V160.213L74.7118 164.044C74.7118 164.182 74.6338 164.321 74.5991 164.442C74.5957 164.471 74.5957 164.5 74.5991 164.529C74.5749 164.603 74.5546 164.678 74.5385 164.754C74.3901 165.743 73.9734 166.672 73.3338 167.441C72.251 168.787 70.8261 169.816 69.2084 170.422L67.1891 171.289L66.1664 171.731L62.6391 173.256L54.0244 176.93C53.3744 177.216 52.6984 177.511 51.9964 177.797C51.2831 178.044 50.5569 178.253 49.821 178.421L49.6564 178.464C48.9977 178.62 48.235 178.802 47.455 178.924C46.3762 179.084 45.2869 179.162 44.1963 179.158ZM12.7969 160.3L13.8022 164.139C13.8629 164.382 13.9062 164.555 13.9669 164.728C14.0275 164.901 14.0449 164.979 14.0795 165.109C14.2115 165.612 14.3945 166.1 14.6255 166.565C15.4854 168.082 16.8101 169.282 18.4042 169.989C19.0975 170.335 19.7996 170.613 20.4756 170.855L21.4809 171.254L22.7462 171.8L22.9976 171.913L24.0289 172.363L25.8316 173.126L27.8943 173.993L30.0349 174.92L31.8463 175.708L32.4703 175.977C33.3369 176.341 34.2036 176.722 35.0703 177.069L35.4343 177.216C36.2819 177.56 37.1503 177.849 38.0343 178.083C39.2303 178.395 40.435 178.594 41.6657 178.794C42.526 178.926 43.3953 178.989 44.2657 178.984C45.3218 178.981 46.3762 178.9 47.4203 178.742C48.2003 178.62 48.963 178.438 49.6217 178.282L49.7777 178.239C50.5102 178.072 51.2334 177.867 51.9444 177.624C52.6464 177.364 53.3224 177.069 53.9724 176.757H54.0157L62.5871 173.091C63.7051 172.615 64.8058 172.147 66.1144 171.575L67.1371 171.133L69.1564 170.266C70.7593 169.664 72.1717 168.643 73.2471 167.311C73.8793 166.553 74.2902 165.635 74.4345 164.659C74.4536 164.58 74.4767 164.502 74.5038 164.425V164.338L74.6251 163.94L75.6565 160.196L72.1291 161.816L70.3438 162.588L67.9344 163.636L65.3344 164.806L64.9531 164.979L63.1158 165.803L61.5557 166.487L61.2611 166.609L58.7651 167.692C58.1757 167.961 57.5604 168.229 56.9537 168.481C55.411 169.148 54.2237 169.642 53.0884 170.11C52.6204 170.301 52.1524 170.517 51.7017 170.717C50.8822 171.127 50.0263 171.461 49.145 171.713L48.4257 171.895C47.8195 172.067 47.2029 172.2 46.5797 172.294C43.8315 172.721 41.019 172.394 38.4416 171.349C37.0116 170.725 35.5556 170.11 34.1083 169.521L33.6923 169.425L31.4649 168.559L31.1963 168.446C29.7403 167.831 28.2236 167.189 26.7416 166.531C25.2596 165.872 24.0029 165.309 22.6682 164.702L21.4809 164.174L19.9122 163.454L19.5482 163.29L18.0142 162.588L16.7922 162.059L12.7969 160.3Z" fill="white"/>
<path d="M195.344 140.883C198.462 140.88 201.502 141.857 204.034 143.677C206.566 145.497 208.462 148.067 209.453 151.023L216.031 148.813C214.38 143.907 211.039 139.748 206.604 137.077C202.17 134.407 196.93 133.401 191.822 134.237C186.713 135.073 182.068 137.698 178.717 141.643C175.365 145.588 173.525 150.596 173.525 155.772C173.525 160.948 175.365 165.956 178.717 169.901C182.068 173.846 186.713 176.471 191.822 177.307C196.93 178.144 202.17 177.137 206.604 174.467C211.039 171.797 214.38 167.637 216.031 162.731L209.453 160.521C208.579 163.118 207.006 165.422 204.907 167.182C202.807 168.942 200.263 170.088 197.554 170.496C194.845 170.903 192.076 170.555 189.553 169.49C187.029 168.425 184.848 166.684 183.249 164.459C181.651 162.235 180.697 159.612 180.493 156.881C180.289 154.149 180.843 151.414 182.093 148.977C183.344 146.539 185.242 144.494 187.58 143.066C189.918 141.638 192.604 140.883 195.344 140.883Z" fill="#1D1D1B"/>
<path d="M236.372 170.661C235.593 170.665 234.821 170.514 234.101 170.219C233.38 169.924 232.725 169.489 232.172 168.94C231.62 168.391 231.182 167.738 230.882 167.019C230.582 166.3 230.428 165.529 230.426 164.751V143.085H237.1V136.152H230.426V126.965H223.493V136.152H219.506V143.085H223.493V164.751C223.498 168.156 224.852 171.42 227.26 173.827C229.668 176.235 232.932 177.59 236.337 177.594C237.845 177.593 239.34 177.329 240.757 176.814L238.408 170.297C237.757 170.54 237.067 170.663 236.372 170.661Z" fill="#1D1D1B"/>
<path d="M123.349 118.752C119.945 118.755 116.682 120.108 114.275 122.514C111.869 124.921 110.516 128.184 110.513 131.587V136.146H104.256V143.079H110.513V176.236H117.447V143.079H124.38V136.146H117.447V131.587C117.447 130.022 118.068 128.521 119.175 127.414C120.282 126.307 121.783 125.686 123.349 125.686C124.043 125.685 124.732 125.805 125.385 126.041L127.769 119.532C126.353 119.013 124.856 118.749 123.349 118.752Z" fill="#1D1D1B"/>
<path d="M300.332 139.835V135.181H293.398V176.242H300.332V155.772C300.336 151.825 301.907 148.04 304.698 145.249C307.489 142.458 311.274 140.888 315.221 140.883V133.95C309.69 133.948 304.366 136.052 300.332 139.835Z" fill="#1D1D1B"/>
<path d="M167.74 146.161C165.514 141.625 161.783 138.001 157.183 135.909C152.583 133.817 147.4 133.386 142.518 134.69C137.636 135.994 133.357 138.951 130.413 143.058C127.469 147.165 126.041 152.166 126.373 157.208C126.705 162.25 128.777 167.021 132.235 170.706C135.693 174.39 140.322 176.761 145.333 177.413C150.344 178.065 155.426 176.957 159.712 174.28C163.997 171.602 167.221 167.52 168.832 162.731L162.263 160.521C161.377 163.153 159.772 165.485 157.63 167.254C155.489 169.022 152.895 170.156 150.142 170.527C147.39 170.898 144.588 170.493 142.055 169.355C139.521 168.218 137.355 166.395 135.803 164.092L169.335 149.411L167.74 146.161ZM133.359 157.583C133.286 156.982 133.249 156.377 133.247 155.772C133.248 152.722 134.186 149.746 135.933 147.246C137.68 144.746 140.152 142.843 143.016 141.793C145.88 140.743 148.997 140.597 151.946 141.375C154.895 142.153 157.534 143.818 159.507 146.144L133.359 157.583Z" fill="#1D1D1B"/>
<path d="M279.41 139.835C276.304 136.929 272.415 134.995 268.223 134.27C264.031 133.544 259.719 134.06 255.817 135.754C251.914 137.447 248.592 140.244 246.258 143.801C243.924 147.357 242.681 151.518 242.681 155.772C242.681 160.026 243.924 164.187 246.258 167.744C248.592 171.3 251.914 174.097 255.817 175.791C259.719 177.484 264.031 178 268.223 177.275C272.415 176.55 276.304 174.615 279.41 171.71V176.242H286.344V135.181H279.41V139.835ZM264.512 170.661C261.568 170.659 258.69 169.785 256.243 168.148C253.795 166.51 251.888 164.185 250.763 161.464C249.637 158.743 249.343 155.75 249.919 152.862C250.494 149.975 251.913 147.322 253.996 145.241C256.078 143.16 258.731 141.743 261.619 141.169C264.507 140.595 267.501 140.89 270.221 142.017C272.941 143.145 275.266 145.053 276.902 147.501C278.537 149.95 279.41 152.828 279.41 155.772C279.406 159.721 277.834 163.507 275.041 166.298C272.248 169.09 268.461 170.659 264.512 170.661Z" fill="#1D1D1B"/>
</g>
<defs>
<clipPath id="clip0_220_1381">
<rect width="315" height="87.019" fill="white" transform="translate(0.22998 113.695)"/>
</clipPath>
</defs>
</svg>
