<svg width="316" height="315" viewBox="0 0 316 315" fill="none" xmlns="http://www.w3.org/2000/svg">
<path d="M1 131.031H316V183.526H1V131.031Z" fill="#004C8F"/>
<path d="M53.5022 131.031H316V183.526H53.5022V131.031Z" fill="#004C8F"/>
<path d="M70.1956 169.697V144.859H78.3672V153.242H86.0244V144.859H94.2082V169.697H86.0244V160.06H78.3672V169.697H70.1956ZM107.14 151.031H109.258C110.783 151.031 111.899 151.189 112.612 151.506C113.139 151.736 113.568 152.08 113.945 152.595C114.288 153.103 114.566 153.744 114.77 154.549C114.955 155.347 115.054 156.192 115.054 157.083C115.054 158.535 114.856 159.75 114.426 160.734C114.01 161.717 113.41 162.423 112.638 162.859C111.866 163.302 110.717 163.512 109.199 163.512L107.14 163.526V151.031ZM110.295 169.697C112.222 169.697 113.82 169.539 115.126 169.19C116.44 168.853 117.509 168.404 118.327 167.869C119.16 167.32 119.911 166.582 120.605 165.664C121.291 164.714 121.893 163.519 122.36 162.055C122.843 160.595 123.073 158.951 123.073 157.091C123.073 154.358 122.552 152.048 121.497 150.12C120.427 148.232 118.974 146.865 117.119 146.061C115.272 145.255 113.067 144.859 110.505 144.859H99.1459V169.697H110.295ZM126.817 169.697V144.859H146.196V150.985H134.882V154.964H143.933V160.925H134.882V169.697H126.817ZM173.562 154.358H165.847C165.701 153.123 165.252 152.146 164.506 151.446C163.754 150.76 162.81 150.423 161.648 150.423C160.203 150.423 159.028 150.985 158.124 152.094C157.213 153.216 156.757 155.03 156.757 157.526C156.757 159.268 156.962 160.576 157.338 161.467C157.728 162.384 158.275 163.044 158.955 163.486C159.655 163.928 160.506 164.133 161.555 164.133C162.81 164.133 163.813 163.815 164.546 163.09C165.298 162.41 165.734 161.394 165.88 160.034H173.734C173.562 161.578 173.252 162.872 172.803 163.928C172.375 164.978 171.608 166.021 170.573 167.07C169.509 168.142 168.232 168.977 166.823 169.52C165.377 170.093 163.708 170.364 161.793 170.364C159.906 170.364 158.143 170.093 156.553 169.539C154.942 168.971 153.582 168.166 152.499 167.156C151.397 166.107 150.539 164.932 149.926 163.605C149.04 161.737 148.625 159.684 148.625 157.393C148.625 155.479 148.935 153.663 149.563 152.001C150.189 150.35 151.055 148.945 152.156 147.81C153.265 146.68 154.473 145.835 155.82 145.268C157.523 144.542 159.397 144.193 161.476 144.193C163.285 144.193 164.961 144.456 166.546 144.99C168.123 145.526 169.418 146.305 170.427 147.341C171.443 148.364 172.244 149.58 172.783 150.918C173.179 151.862 173.43 153.004 173.562 154.358ZM199.735 150.45C200.89 150.45 201.636 150.503 202.006 150.608C202.46 150.738 202.864 151.005 203.16 151.374C203.45 151.744 203.603 152.173 203.603 152.668C203.603 153.301 203.352 153.822 202.87 154.219C202.354 154.635 201.477 154.826 200.215 154.826H197.14V150.449L199.735 150.45ZM201.786 169.697C203.721 169.697 205.081 169.605 205.879 169.434C206.714 169.23 207.526 168.943 208.302 168.575C209.108 168.153 209.729 167.757 210.137 167.321C210.771 166.733 211.239 166.021 211.583 165.162C211.926 164.298 212.098 163.322 212.098 162.272C212.098 160.773 211.727 159.539 210.976 158.535C210.223 157.526 209.213 156.859 207.939 156.496C210.097 155.136 211.173 153.38 211.173 151.241C211.173 149.031 210.223 147.341 208.342 146.193C206.889 145.307 204.625 144.859 201.556 144.859H189.233V169.697H201.786ZM200.474 159.294C202.091 159.294 203.14 159.492 203.669 159.909C204.157 160.311 204.421 160.865 204.421 161.611C204.421 162.364 204.157 162.958 203.623 163.374C203.114 163.816 202.052 164.001 200.474 164.001H197.14V159.294H200.474ZM230.045 161.348H224.85L227.411 152.311L230.045 161.348ZM222.408 169.697L223.351 166.437H231.484L232.435 169.697H240.56L231.649 144.859H223.351L214.434 169.697H222.408ZM243.992 169.697V144.859H251.603L260.19 158.159V144.859H268.019V169.697H260.243L251.84 156.727V169.697H243.992ZM273.464 169.697V144.859H281.379V153.05L288.765 144.859H298.362L289.26 154.212L299.307 169.697H289.525L283.55 159.802L281.378 161.948V169.697H273.464Z" fill="white"/>
<path d="M1 131.031H53.4956V183.526H1V131.031Z" fill="#ED232A"/>
<path d="M10.1875 140.218H44.3135V174.344H10.1875V140.218Z" fill="white"/>
<path d="M24.6233 131.031H29.8714V183.526H24.6233V131.031Z" fill="white"/>
<path d="M1 154.661H53.4956V159.909H1V154.661Z" fill="white"/>
<path d="M19.3762 149.406H35.125V165.156H19.3762V149.406Z" fill="#004C8F"/>
</svg>
