<svg width="316" height="315" viewBox="0 0 316 315" fill="none" xmlns="http://www.w3.org/2000/svg">
<g clip-path="url(#clip0_228_742)">
<path fill-rule="evenodd" clip-rule="evenodd" d="M213.056 92V105.141H196.5L195.415 105.157C176.672 105.737 161.603 121.273 161.603 140.287V221.763H148.557V140.287L148.573 139.023C149.241 112.979 170.484 92 196.5 92H213.056ZM231.731 92.1566V220.899H219.161V92.1566H231.731ZM177.673 162.787L178.112 162.815C179.838 163.032 181.174 164.516 181.174 166.314V169.116L181.147 169.558C180.931 171.297 179.457 172.643 177.673 172.643H171.628L171.189 172.615C169.463 172.398 168.126 170.914 168.126 169.116V166.314L168.154 165.872C168.37 164.133 169.843 162.787 171.628 162.787H177.673Z" fill="url(#paint0_linear_228_742)"/>
<path fill-rule="evenodd" clip-rule="evenodd" d="M31.8054 145.524C49.1141 145.524 58.96 156.719 58.96 156.719L50.2256 165.835C50.2256 165.835 42.9224 157.678 31.8054 157.678C22.4371 157.678 17.831 162.318 17.831 167.115C17.831 172.712 23.5486 175.751 35.6163 178.31C49.5906 181.348 61.5004 186.626 61.5004 201.66C61.5004 215.893 46.5737 223.25 32.4409 223.25C11.7984 223.25 1 207.736 1 207.736L10.2104 199.101C10.2104 199.101 17.9907 211.096 32.4409 211.096C39.9043 211.096 48.3195 207.897 48.3195 201.98C48.3195 195.583 42.9224 192.385 31.6475 190.145C15.9268 186.946 4.8115 180.708 4.8115 166.795C4.8115 156.079 15.4502 145.524 31.8054 145.524ZM105.444 145.524C127.038 145.524 137.36 158.958 137.36 172.712V221.331H125.134V210.616C125.134 210.616 116.875 223.25 100.202 223.25C87.0227 223.25 72.8912 213.975 72.8912 197.981C72.8912 183.587 85.4348 173.352 101.949 173.352C115.447 173.352 124.022 179.43 124.022 179.43V175.431C124.022 160.078 111.319 157.999 105.444 157.999C94.3265 157.999 83.5299 164.236 83.5299 164.236L77.9714 153.041L78.0761 152.974C79.256 152.229 90.2963 145.524 105.444 145.524ZM280.272 145.524C300.757 145.524 316 161.037 316 184.868C316 186.306 316 187.426 315.841 189.185H256.612C257.407 200.38 268.046 210.777 281.86 210.777C296.31 210.777 303.933 199.901 303.933 199.901L312.348 208.696C312.348 208.696 301.233 223.25 281.86 223.25C259.63 223.25 243.59 206.298 243.59 184.388C243.59 162.797 258.2 145.524 280.272 145.524ZM104.808 184.547C93.3741 184.547 86.2293 190.306 86.2293 197.981C86.2293 207.578 94.8042 211.415 103.061 211.415C116.082 211.415 124.022 200.22 124.022 200.22V189.824L123.918 189.752C122.992 189.121 115.896 184.547 104.808 184.547ZM280.272 157.999C264.394 157.999 257.883 170.314 256.93 177.989H302.979C302.502 169.674 295.039 157.999 280.272 157.999Z" fill="black"/>
</g>
<defs>
<linearGradient id="paint0_linear_228_742" x1="5971.08" y1="-621.672" x2="-1963.66" y2="8969.7" gradientUnits="userSpaceOnUse">
<stop stop-color="#11BCE2"/>
<stop offset="1" stop-color="#0569F7"/>
</linearGradient>
<clipPath id="clip0_228_742">
<rect width="315" height="131.25" fill="white" transform="translate(1 92)"/>
</clipPath>
</defs>
</svg>
