<svg width="316" height="315" viewBox="0 0 316 315" fill="none" xmlns="http://www.w3.org/2000/svg">
<path d="M112.847 154.365C112.217 154.294 111.233 153.735 110.537 153.175C103.896 146.665 112.427 139.184 122.292 134.845V122.468C124.602 123.938 125.862 124.006 125.93 124.216L133.485 116.735L130.965 110.296C153.075 102.67 161.956 99.7304 179.934 96.7248L176.711 93.7139L181.961 90.7109C194.036 94.7009 205.47 95.7509 203.507 105.891C203.998 99.0348 195.464 96.3757 182.454 92.7663L179.934 94.3046L184.759 98.2946C163.216 102.001 149.991 106.201 134.254 111.682L136.42 117.281L128.545 125.046C129.876 125.395 143.654 130.012 157.992 120.011C157.992 120.011 158.276 119.801 158.276 119.73C157.856 119.032 156.874 118.26 155.687 117.21C159.887 117.491 162.607 121.2 162.119 125.046H160.163C160.278 123.851 160.086 122.646 159.604 121.547C148.479 129.663 135.611 130.852 124.623 127.007V136.588C119.307 138.478 109.792 144.35 109.863 150.023C110.212 152.748 111.614 153.698 112.871 154.433" fill="black"/>
<path d="M157.83 151.913C145.928 157.929 134.53 162.754 116.971 163.455C94.0972 162.964 90.5298 147.784 101.371 131.902C111.609 115.885 127.815 101.4 153.609 92.3752C161.09 89.7502 172.081 86.7131 182.709 86.6002C197.934 86.4585 212.792 91.2202 211.813 105.841C211.251 117.034 195.091 132.845 186.56 144.18C182.922 149.167 182.292 152.364 188.516 152.086C211.091 150.616 231.613 142.78 250.642 134.664C237.771 143.41 171.235 176.357 170.962 153.905C171.031 151.033 172.359 148.025 174.527 144.81C176.627 141.591 179.567 138.231 182.575 134.803C187.122 129.627 198.378 117.216 202.158 109.826C208.524 95.7667 194.283 95.0658 181.94 90.7293L176.69 93.7323L179.914 96.7432C161.932 99.7488 153.052 102.689 130.944 110.314L133.464 116.754L125.91 124.235C125.7 124.025 124.579 123.957 122.271 122.487V134.869C112.401 139.205 103.896 146.689 110.517 153.199C111.215 153.758 112.197 154.32 112.827 154.388C124.902 161.245 157.877 151.939 157.811 151.939M33.8509 186.466L29.538 176.648L24.9704 186.466H33.8509ZM20.1037 197.228H11.0527L25.0177 170.254H35.0373L48.3645 197.228H38.3107L36.2816 192.367H22.2798L20.1037 197.228ZM49.6875 170.254H58.3499V197.226H49.6875V170.254ZM63.6445 178.423H72.3071V197.199H63.6445V178.423ZM63.6445 170.285H72.3071V175.79H63.6445V170.285ZM94.6064 187.881C94.6064 186.222 94.2127 184.914 93.4357 183.956C92.6587 182.998 91.5982 182.52 90.2857 182.52C88.8472 182.52 87.7473 182.982 86.986 183.904C86.2248 184.825 85.8416 186.161 85.8416 187.92C85.8416 189.579 86.2275 190.868 86.9966 191.789C87.7657 192.711 88.834 193.167 90.2122 193.167C91.564 193.167 92.6403 192.695 93.4357 191.742C94.231 190.789 94.6327 189.505 94.6327 187.883M77.229 170.23H85.9124V181.098C86.893 180.07 88.0742 179.256 89.3827 178.704C90.7161 178.162 92.1436 177.891 93.5827 177.906C96.541 177.906 98.9193 178.851 100.715 180.741C102.51 182.631 103.408 185.137 103.408 188.261C103.408 191.104 102.523 193.38 100.752 195.094C98.9797 196.808 96.6303 197.667 93.664 197.667C92.0471 197.667 90.5797 197.373 89.2619 196.782C87.9483 196.189 86.7921 195.296 85.8862 194.175L85.8127 195.876C85.7654 196.388 85.6814 196.832 85.5502 197.21H76.8667C76.9638 196.858 77.04 196.414 77.0951 195.889C77.1502 195.364 77.1791 194.753 77.1791 194.07V170.235M122.408 189.064C119.599 189.064 117.683 189.248 116.664 189.589C115.646 189.931 115.134 190.595 115.134 191.506C115.134 192.125 115.383 192.608 115.877 192.955C116.37 193.301 117.071 193.474 117.977 193.474C119.455 193.474 120.562 193.133 121.297 192.445C122.032 191.758 122.408 190.721 122.408 189.335V189.041V189.064ZM122.592 194.427C121.765 195.514 120.691 196.317 119.373 196.842C118.056 197.367 116.486 197.63 114.585 197.63C111.913 197.63 109.86 197.157 108.424 196.204C107.741 195.78 107.181 195.183 106.802 194.473C106.423 193.764 106.238 192.966 106.267 192.162C106.267 189.786 107.506 188.067 109.984 187.017C112.462 185.967 116.614 185.442 122.442 185.363C122.442 185.326 122.45 185.258 122.46 185.153C122.47 185.078 122.476 185.001 122.476 184.925C122.476 183.964 122.214 183.245 121.61 182.772C121.006 182.3 120.166 182.064 119.003 182.064C117.958 182.064 117.153 182.237 116.588 182.583C116.315 182.751 116.083 182.978 115.909 183.248C115.736 183.518 115.626 183.824 115.588 184.143H107.571C107.608 182.058 108.621 180.507 110.538 179.491C112.454 178.475 115.433 177.963 119.41 177.963C123.227 177.963 126.07 178.557 127.933 179.748C129.797 180.94 130.732 182.741 130.732 185.169V194.745C130.725 195.226 130.752 195.706 130.813 196.183C130.863 196.534 130.958 196.876 131.097 197.202H123.051C122.892 196.762 122.774 196.309 122.699 195.847C122.626 195.391 122.589 194.918 122.589 194.43L122.592 194.427ZM153 187.881C153 186.222 152.606 184.914 151.829 183.956C151.052 182.998 149.991 182.52 148.647 182.52C147.214 182.52 146.112 182.982 145.353 183.904C144.594 184.825 144.208 186.161 144.208 187.92C144.208 189.579 144.592 190.868 145.358 191.789C146.125 192.711 147.196 193.167 148.576 193.167C149.928 193.167 151.002 192.695 151.8 191.742C152.598 190.789 152.997 189.505 152.997 187.883M135.593 170.23H144.256V181.098C145.287 180.034 146.445 179.26 147.721 178.704C149.054 178.162 150.482 177.891 151.921 177.906C154.876 177.906 157.255 178.851 159.053 180.741C160.851 182.631 161.746 185.137 161.746 188.261C161.746 191.104 160.859 193.38 159.087 195.094C157.315 196.808 154.966 197.667 151.999 197.667C150.382 197.667 148.915 197.373 147.6 196.782C146.285 196.189 145.128 195.297 144.222 194.175L144.148 195.876C144.112 196.327 144.033 196.774 143.912 197.21H135.249C135.36 196.776 135.436 196.335 135.478 195.889C135.53 195.357 135.556 194.753 135.556 194.07V170.235M180.798 189.064C177.99 189.064 176.073 189.248 175.023 189.589C173.973 189.931 173.493 190.595 173.493 191.506C173.493 192.125 173.742 192.608 174.236 192.955C174.729 193.301 175.43 193.474 176.336 193.474C177.811 193.474 178.921 193.133 179.662 192.445C180.402 191.758 180.764 190.721 180.764 189.335L180.798 189.064ZM180.982 194.427C180.155 195.514 179.084 196.317 177.766 196.842C176.449 197.367 174.879 197.63 172.976 197.63C170.306 197.63 168.251 197.157 166.815 196.204C166.132 195.78 165.573 195.182 165.195 194.473C164.817 193.763 164.634 192.966 164.662 192.162C164.662 189.786 165.901 188.067 168.377 187.017C170.852 185.967 175.013 185.442 180.838 185.363C180.838 185.326 180.846 185.258 180.856 185.153L180.872 184.925C180.872 183.964 180.609 183.245 180.006 182.772C179.402 182.3 178.557 182.064 177.402 182.064C176.352 182.064 175.548 182.237 174.987 182.583C174.425 182.93 174.094 183.45 173.981 184.143H165.97C166.006 182.058 167.02 180.507 168.928 179.491C170.836 178.475 173.826 177.963 177.801 177.963C181.617 177.963 184.458 178.557 186.324 179.748C188.19 180.94 189.122 182.741 189.122 185.169V194.745C189.116 195.226 189.142 195.706 189.201 196.183C189.252 196.534 189.347 196.876 189.484 197.202H181.436C181.277 196.763 181.159 196.309 181.084 195.847C181.012 195.378 180.975 194.905 180.974 194.43L180.982 194.427ZM216.091 186.71V183.56H227.439V193.482C225.696 194.868 223.901 195.91 222.05 196.611C220.23 197.306 218.297 197.662 216.349 197.661C213.718 197.661 211.33 197.1 209.177 195.971C207.079 194.896 205.375 193.185 204.308 191.083C203.205 188.952 202.665 186.568 202.665 183.935C202.645 181.409 203.206 178.913 204.303 176.638C205.397 174.38 206.928 172.7 209.007 171.603C211.086 170.506 213.409 169.96 216.073 169.96C218.01 169.96 219.764 170.275 221.323 170.905C222.882 171.535 224.119 172.409 225.009 173.53C225.898 174.651 226.573 176.115 227.03 177.921L223.819 178.798C223.418 177.433 222.916 176.357 222.323 175.577C221.73 174.798 220.879 174.165 219.769 173.695C218.659 173.225 217.441 172.986 216.086 172.986C214.469 172.986 213.073 173.233 211.894 173.727C210.715 174.22 209.763 174.874 209.038 175.68C208.327 176.45 207.756 177.338 207.35 178.305C206.659 180.023 206.313 181.86 206.332 183.712C206.332 186.109 206.739 188.112 207.56 189.75C208.326 191.309 209.587 192.572 211.146 193.341C212.694 194.118 214.404 194.52 216.136 194.514C217.676 194.513 219.201 194.211 220.625 193.624C222.082 193.031 223.189 192.398 223.945 191.724V186.657H216.084M232.209 197.199V177.78H235.175V180.727C235.963 179.352 236.635 178.444 237.275 178.008C237.916 177.572 238.624 177.352 239.394 177.352C240.507 177.352 241.638 177.701 242.788 178.402L241.638 181.452C240.912 181.004 240.078 180.76 239.226 180.746C238.524 180.739 237.841 180.966 237.283 181.392C236.713 181.827 236.304 182.428 236.057 183.192C235.68 184.437 235.495 185.732 235.509 187.033V197.197H232.201M247.473 187.5C247.473 189.986 248.017 191.847 249.101 193.083C249.6 193.679 250.227 194.156 250.935 194.477C251.642 194.799 252.413 194.958 253.191 194.942C253.965 194.955 254.733 194.795 255.437 194.472C256.142 194.149 256.764 193.672 257.259 193.075C258.343 191.831 258.882 189.936 258.882 187.39C258.882 184.988 258.341 183.169 257.249 181.93C256.157 180.691 254.808 180.071 253.188 180.071C251.545 180.071 250.182 180.688 249.098 181.919C248.014 183.15 247.471 185.009 247.471 187.497M244.074 187.492C244.074 183.896 245.077 181.239 247.077 179.507C248.744 178.071 250.783 177.354 253.183 177.354C255.855 177.354 258.039 178.226 259.732 179.974C261.425 181.722 262.27 184.137 262.27 187.219C262.27 189.718 261.895 191.682 261.147 193.11C260.414 194.523 259.274 195.685 257.874 196.443C256.437 197.234 254.822 197.642 253.183 197.63C250.463 197.63 248.266 196.758 246.62 195.018C244.974 193.278 244.1 190.765 244.1 187.492M279.38 197.199V194.328C278.727 195.363 277.816 196.211 276.737 196.79C275.659 197.368 274.448 197.658 273.225 197.63C272.077 197.63 271.009 197.409 270.022 196.968C269.035 196.527 268.29 195.981 267.812 195.315C267.334 194.648 266.993 193.839 266.799 192.873C266.667 192.228 266.596 191.204 266.596 189.802V177.78H269.904V188.537C269.904 190.254 269.97 191.411 270.103 192.007C270.308 192.873 270.749 193.551 271.416 194.044C272.083 194.538 272.917 194.784 273.899 194.784C274.88 194.789 275.842 194.516 276.674 193.997C277.499 193.536 278.145 192.81 278.506 191.936C278.863 191.065 279.047 189.805 279.047 188.143V177.753H282.346V197.173H279.38M291.035 187.605C291.035 190.104 291.56 191.952 292.55 193.117C293.539 194.283 294.776 194.91 296.214 194.91C297.674 194.91 298.923 194.291 299.963 193.052C301.002 191.813 301.522 189.902 301.522 187.277C301.522 184.801 301.015 182.946 300 181.717C298.984 180.489 297.768 179.869 296.361 179.869C294.954 179.869 293.726 180.525 292.647 181.838C291.568 183.15 291.035 185.053 291.035 187.555M288.069 204.583V177.73H291.061V180.255C291.77 179.268 292.568 178.53 293.461 178.039C294.353 177.549 295.429 177.304 296.689 177.304C298.343 177.304 299.839 177.724 301.078 178.58C302.317 179.436 303.302 180.636 303.948 182.19C304.593 183.744 304.919 185.445 304.919 187.295C304.919 189.28 304.562 191.07 303.848 192.658C303.134 194.246 302.1 195.467 300.745 196.312C299.391 197.157 297.957 197.583 296.466 197.583C295.369 197.583 294.387 197.352 293.513 196.892C292.639 196.433 291.928 195.847 291.371 195.144V204.583H288.064M91.9867 206.263V209.056H101.668V229.125C102.749 229.125 105.088 228.08 105.088 225.906V209.054C105.784 209.054 106.361 207.019 106.361 206.261L91.9867 206.263ZM95.9951 213.508H97.7092V222.216H95.9951V213.508ZM100.885 221.068V210.831H92.8135V224.822H96.8193C97.5491 224.739 98.247 224.476 98.8511 224.058C99.2199 223.82 99.5623 223.543 99.8722 223.231C100.444 222.596 100.885 221.838 100.885 221.068ZM88.1752 213.823C88.1752 214.201 87.8602 214.842 87.4743 215.223L87.2224 215.48C87.1909 215.506 87.1593 215.54 87.0911 215.54H88.1752V222.103H86.8627V208.978H88.1752V213.747V213.823ZM83.4685 206.263V229.101C85.0567 229.101 86.8285 227.662 86.8285 226.072V224.875H88.7317C90.0074 224.809 91.4748 223.024 91.4748 222.129V217.042C91.4748 216.086 90.3934 215.393 89.8815 215.01C90.3934 214.564 91.4748 213.802 91.4748 212.844V206.242L83.4685 206.263ZM112.569 208.844H117.415V211.81H112.569V208.844ZM112.569 214.409H117.415V217.401H112.569V214.409ZM121.489 214.409H123.235C123.515 214.412 123.788 214.319 124.009 214.146C124.332 213.955 125.883 212.015 126.078 211.815H121.489V208.849H126.466V217.38H121.489V214.406V214.409ZM121.489 226.494V224.355H128.277C129.259 224.355 130.146 222.68 130.64 221.775H121.46V219.937H126.563C128.015 219.937 130.375 217.932 130.44 216.897V206.24H108.6V219.937H117.386V221.775H108.6V224.355H117.386V226.494H108.346V229.132H128.829C129.669 229.132 130.443 227.458 131.091 226.486H121.458L121.489 226.494ZM137.654 209.203H142.494V216.816H137.654V209.203ZM146.484 209.203H151.091V216.816H146.484V209.203ZM137.622 226.171V219.73H151.587C152.847 219.73 155.115 217.643 155.176 216.595V206.263H133.501V225.94C133.501 227.515 134.446 229.143 136.215 229.143H152.763C154.013 229.143 155.512 227.148 155.769 226.166H137.656L137.622 226.171ZM162.639 209.203H167.469V216.816H162.639V209.203ZM171.464 209.203H176.073V216.816H171.464V209.203ZM162.597 226.171V219.73H176.562C177.827 219.73 180.092 217.643 180.158 216.595V206.263H158.481V225.94C158.481 227.515 159.426 229.143 161.192 229.143H177.735C178.982 229.143 180.481 227.148 180.746 226.166H162.591L162.597 226.171ZM195.094 221.425V220.709H196.722V221.323H206.565C206.565 221.323 206.321 222.651 204.203 222.651H196.853V226.208C196.853 228.912 195.12 229.227 195.12 229.227V222.754H183.392V221.425H195.12M188.014 224.817H189.768L187.392 227.783C186.867 228.395 186.111 229.371 185.03 229.371L184.242 229.387L187.991 224.82" fill="#FF6600"/>
<path d="M203.011 224.817H201.26L203.633 227.783C204.158 228.395 204.914 229.371 205.996 229.371L206.783 229.387L203.037 224.82M195.123 210.645H186.802L186.794 209.904L187.219 209.301L187.778 208.587H195.123V210.645ZM186.802 212.094H195.123V214.136H186.802V212.094ZM186.802 215.448H195.123V217.548H186.802V215.448ZM204.2 208.482C206.3 208.482 206.694 207.153 206.694 207.153H196.876L197.59 206.229H195.979L195.154 207.279H188.553L189.34 206.229H187.655L183.473 211.671H185.266V219.108C185.266 219.108 185.45 219.134 185.686 219.108C188.311 219.108 188.503 218.766 188.503 218.766H204.179C206.263 218.766 206.468 217.522 206.468 217.522H196.714V215.349H204.179C206.235 215.349 206.542 214.031 206.542 214.031H196.687V211.886H204.153C206.208 211.886 206.515 210.542 206.515 210.542H196.661V208.482H204.2ZM230.975 226.442C230.975 227.277 230.791 227.933 229.694 227.933H212.619V207.676H230.975V226.442ZM211.167 206.334V229.429H230.602C232.065 229.429 232.624 228.043 232.55 226.607V206.334H211.167ZM220.223 216.16L215.309 225.019C215.309 225.019 216.958 225.329 217.708 223.767L221.908 216.155L220.247 216.128M226.001 223.174C226.001 223.654 225.828 223.896 225.484 223.896H223.846V225.195H225.93C227.242 225.195 227.636 224.723 227.573 223.289V214.658C229.19 214.658 229.29 213.306 229.29 213.306L227.573 213.325V210.348H225.998V213.325H214.973V214.758H225.998V223.174" fill="#FF6600"/>
</svg>
