<svg width="316" height="315" viewBox="0 0 316 315" fill="none" xmlns="http://www.w3.org/2000/svg">
<path d="M95 161.824C95 154.822 99.8962 150.019 107.149 150.019C110.472 150.019 113.339 151.165 115.79 153.499L112.651 156.839C111.262 155.462 109.28 154.687 107.244 154.687C103.083 154.687 100.175 157.614 100.175 161.824C100.175 166.033 103.042 168.961 107.244 168.961C109.464 168.961 111.493 168.138 112.882 166.627L116.069 170.061C113.529 172.489 110.71 173.629 107.196 173.629C99.8076 173.636 95 168.968 95 161.824Z" fill="#1B1E2D"/>
<path d="M143.173 144.023C143.173 142.147 144.562 140.818 146.455 140.818C148.348 140.818 149.826 142.147 149.826 144.023C149.826 145.898 148.437 147.133 146.455 147.133C144.474 147.133 143.173 145.804 143.173 144.023ZM143.868 150.519H149.043V173.131H143.868V150.519Z" fill="#1B1E2D"/>
<path d="M176.526 160.638V173.131H171.35V160.955C171.35 156.975 169.274 154.688 165.808 154.688C162.022 154.688 159.386 157.434 159.386 161.232V173.131H154.211V150.519H158.828L158.875 153.494C160.816 151.207 163.54 150.061 166.774 150.061C172.645 150.061 176.526 154.182 176.526 160.631" fill="#1B1E2D"/>
<path d="M179.626 170.337L182.029 166.627C184.059 168.226 187.069 169.143 190.071 169.143C193.075 169.143 194.647 168.226 194.647 166.58C194.647 164.934 193.17 164.198 189.656 163.834C183.698 163.288 180.32 160.812 180.32 156.879C180.32 152.946 184.289 149.971 190.207 149.971C193.674 149.971 196.725 150.841 199.265 152.582L197.004 156.245C194.968 154.963 192.802 154.322 190.446 154.322C187.163 154.322 185.406 155.24 185.406 156.886C185.406 158.349 186.748 159.125 190.071 159.496C196.819 160.232 199.775 162.377 199.775 166.634C199.775 170.89 195.846 173.683 189.935 173.683C186.101 173.683 182.683 172.583 179.632 170.344" fill="#514ED8"/>
<path d="M238.431 150.52L230.852 173.132H225.357L223.185 166.676L219.902 157.616L216.627 166.676L214.455 173.132H208.911L201.284 150.52H206.78L209.368 158.851L211.819 167.276L217.689 150.52H222.074L227.897 167.364L230.437 158.851L232.935 150.52H238.431Z" fill="#514ED8"/>
<path d="M240.327 144.023C240.327 142.147 241.716 140.818 243.608 140.818C245.503 140.818 246.98 142.147 246.98 144.023C246.98 145.898 245.59 147.133 243.608 147.133C241.627 147.133 240.327 145.804 240.327 144.023ZM241.021 150.519H246.197V173.131H241.021V150.519Z" fill="#514ED8"/>
<path d="M266.475 172.356C264.718 173.131 263.24 173.455 261.347 173.455C256.635 173.455 253.863 170.757 253.863 165.353V154.87H249.566V150.526H253.863V144.569L258.991 144.023V150.519H265.548V154.864H258.991V165.347C258.991 167.633 260.053 168.915 262.178 168.915C263.104 168.915 264.167 168.639 265.046 168.227L266.475 172.349V172.356Z" fill="#514ED8"/>
<path d="M267.68 161.824C267.68 154.822 272.576 150.019 279.828 150.019C283.151 150.019 286.017 151.165 288.47 153.499L285.33 156.839C283.941 155.462 281.96 154.687 279.924 154.687C275.763 154.687 272.855 157.614 272.855 161.824C272.855 166.033 275.721 168.961 279.924 168.961C282.143 168.961 284.173 168.138 285.562 166.627L288.749 170.061C286.209 172.489 283.39 173.629 279.876 173.629C272.487 173.629 267.68 168.961 267.68 161.824Z" fill="#514ED8"/>
<path d="M314.062 160.638V173.131H308.886V160.955C308.886 156.975 306.809 154.688 303.344 154.688C299.557 154.688 296.922 157.434 296.922 161.232V173.131H291.746V141.095H296.922V153.177C298.768 151.12 301.266 150.067 304.317 150.067C310.275 150.067 314.068 154.229 314.068 160.638" fill="#514ED8"/>
<path d="M116.97 162.081C116.97 155.449 121.627 150.525 128.907 150.525C136.187 150.525 140.797 155.449 140.797 162.081C140.797 168.712 136.139 173.636 128.907 173.636C121.675 173.636 116.97 168.712 116.97 162.081ZM128.907 169.069C133.068 169.069 135.737 165.933 135.737 162.081C135.737 158.229 133.068 155.092 128.907 155.092C124.746 155.092 122.036 158.229 122.036 162.081C122.036 165.933 124.705 169.069 128.907 169.069Z" fill="#1B1E2D"/>
<path d="M26.5599 157.468V132.432C12.7325 132.432 1.52344 143.641 1.52344 157.468C1.52344 171.295 12.7325 182.504 26.5599 182.504V157.468Z" fill="#1B1E2D"/>
<path d="M30.0674 132.432C30.0674 145.39 40.5708 155.883 53.5287 155.893V132.432H30.0674Z" fill="#6B91FC"/>
<path d="M55.7287 170.969C55.7287 163.959 50.0463 158.277 43.0367 158.277C36.027 158.277 30.3447 163.959 30.3447 170.969C30.3447 177.979 36.027 183.661 43.0367 183.661C50.0463 183.661 55.7287 177.979 55.7287 170.969Z" fill="#514ED8"/>
</svg>
