<svg width="316" height="315" viewBox="0 0 316 315" fill="none" xmlns="http://www.w3.org/2000/svg">
<g clip-path="url(#clip0_227_104)">
<path d="M228.511 138.588V142.323H228.715C230.404 140.065 232.846 138.488 235.599 137.877C238.479 137.068 241.544 137.211 244.337 138.284C246.446 139.003 248.242 140.43 249.418 142.323C249.601 142.593 249.771 142.873 249.926 143.161C250.006 142.971 250.108 142.792 250.231 142.627C251.169 141.294 252.361 140.159 253.739 139.288C255.116 138.416 256.652 137.824 258.258 137.547C261.491 136.868 264.859 137.307 267.81 138.792C269.606 139.641 271.155 140.937 272.307 142.556C273.459 144.175 274.176 146.063 274.39 148.038C274.558 149.096 274.626 150.168 274.593 151.239V175.347H263.796V154.465C263.78 153.666 263.712 152.868 263.593 152.078C263.429 150.996 262.92 149.997 262.141 149.228C261.363 148.459 260.358 147.961 259.275 147.81C258.237 147.564 257.152 147.61 256.14 147.942C255.127 148.274 254.225 148.878 253.533 149.69C252.508 150.902 251.957 152.446 251.984 154.034V175.347H240.959V154.364C240.985 153.339 240.839 152.317 240.527 151.341C240.199 150.328 239.572 149.439 238.729 148.79C237.885 148.142 236.865 147.764 235.802 147.708C234.948 147.624 234.087 147.702 233.262 147.937C232.235 148.244 231.315 148.833 230.605 149.637C229.896 150.441 229.426 151.427 229.248 152.484C229.194 153.075 229.194 153.671 229.248 154.262V175.347H218.045V138.588H228.511ZM305.254 142.018V138.588H316V172.197C316.017 176.27 314.957 180.275 312.926 183.806C311.95 185.575 310.628 187.129 309.04 188.377C307.451 189.625 305.629 190.541 303.679 191.072C299.013 192.441 294.045 192.396 289.403 190.945C285.74 189.832 282.573 187.49 280.435 184.314C279.497 182.976 278.832 181.465 278.479 179.869V179.335C278.519 179.168 278.519 178.994 278.479 178.827L288.234 176.033C288.356 176.253 288.434 176.494 288.463 176.744C288.919 178.328 289.876 179.721 291.19 180.715C292.505 181.709 294.106 182.25 295.754 182.257C297.07 182.299 298.384 182.119 299.64 181.723C300.924 181.226 302.063 180.415 302.95 179.362C303.838 178.31 304.447 177.052 304.721 175.703C305.113 173.902 305.25 172.055 305.127 170.215C303.622 172.099 301.446 173.328 299.056 173.645C295.801 174.326 292.417 174.035 289.327 172.807C286.811 171.905 284.553 170.405 282.747 168.435C280.942 166.466 279.642 164.086 278.962 161.502C278.202 159.136 277.927 156.641 278.154 154.166C278.381 151.691 279.105 149.287 280.283 147.098C281.227 145.144 282.548 143.395 284.17 141.952C285.791 140.509 287.682 139.4 289.733 138.69C292.922 137.651 296.342 137.546 299.59 138.385C301.836 138.917 303.834 140.199 305.254 142.018ZM289.428 155.812V156.955C289.507 158.355 289.984 159.704 290.803 160.842C291.622 161.981 292.749 162.862 294.052 163.382C295.226 163.857 296.501 164.032 297.76 163.89C299.283 163.871 300.761 163.368 301.98 162.455C303.199 161.542 304.097 160.266 304.543 158.809C304.935 157.536 305.074 156.198 304.95 154.872C304.886 153.676 304.542 152.512 303.945 151.474C303.347 150.436 302.514 149.553 301.512 148.898C300.51 148.242 299.367 147.832 298.177 147.7C296.987 147.569 295.782 147.719 294.661 148.14C293.08 148.685 291.716 149.726 290.773 151.109C289.83 152.491 289.359 154.14 289.428 155.812ZM217.842 133.508V122H315.822C316.026 125.799 316.026 129.607 315.822 133.406C315.314 133.609 219.468 133.711 217.842 133.508ZM201.685 191.783V180.275H274.618V191.783H201.685ZM213.015 175.347H201.508V138.893H190.203V131.018H191.118C194.323 130.929 197.404 129.756 199.856 127.69C201.445 126.392 202.561 124.606 203.032 122.61V122.203H212.888L213.015 175.347ZM90.2669 178.929H74.2375C73.9622 178.975 73.6798 178.913 73.4484 178.757C73.2169 178.601 73.0539 178.363 72.9927 178.09L64.7875 153.932C64.7875 153.627 64.5843 153.322 64.3811 152.789L63.5427 155.075L55.9218 177.938C55.9099 178.082 55.8679 178.223 55.7987 178.35C55.7294 178.477 55.6344 178.589 55.5196 178.677C55.4049 178.766 55.2729 178.829 55.1322 178.864C54.9915 178.898 54.8451 178.903 54.7024 178.878H38.6984C39.2065 177.633 39.6129 176.338 40.0194 175.144L54.7278 136.048C55.0327 135.337 55.3375 135.006 56.1504 135.006H72.3831C72.6842 134.967 72.9892 135.042 73.2382 135.216C73.4872 135.39 73.6624 135.65 73.7294 135.946L89.9113 177.887C90.0813 178.215 90.2012 178.566 90.2669 178.929ZM175.723 178.929H159.592C158.881 178.929 158.576 178.726 158.373 178.09L150.142 153.932C150.142 153.627 149.939 153.322 149.736 152.789L149.329 154.034L141.2 177.887C141.185 178.043 141.138 178.195 141.062 178.333C140.987 178.47 140.884 178.591 140.761 178.689C140.638 178.786 140.496 178.857 140.345 178.898C140.193 178.94 140.035 178.95 139.879 178.929H124.155C124.155 178.522 124.358 178.192 124.46 177.887L140.286 135.896C140.364 135.585 140.557 135.316 140.826 135.142C141.094 134.968 141.418 134.901 141.734 134.956H158.068C158.337 134.933 158.605 135.004 158.827 135.157C159.05 135.31 159.212 135.535 159.288 135.794L175.622 178.192C175.61 178.442 175.644 178.692 175.723 178.929ZM128.473 135.159V148.038H116.458V179.03H99.0056V148.14H86.5581V135.261L128.473 135.159ZM1 135.159H43.0169V148.013H31.0012V179.03H13.4222V148.14H1V135.159Z" fill="black"/>
</g>
<defs>
<clipPath id="clip0_227_104">
<rect width="315" height="70.0623" fill="white" transform="translate(1 122)"/>
</clipPath>
</defs>
</svg>
