<svg width="316" height="315" viewBox="0 0 316 315" fill="none" xmlns="http://www.w3.org/2000/svg">
<g clip-path="url(#clip0_228_889)">
<path d="M77.4883 70.0889C78.2669 70.2545 79.0509 70.3989 79.8226 70.5874C83.0187 71.3434 85.8662 73.1556 87.9044 75.731C89.9426 78.3063 91.0522 81.494 91.0537 84.7783C91.0731 87.2447 91.0537 89.7112 91.0537 92.1776V230.908C91.0537 238.343 86.2318 244.223 78.9752 245.652C78.5946 245.726 78.2194 245.828 77.8406 245.911H74.6695C74.4994 245.83 74.3225 245.765 74.1409 245.715C66.6606 244.341 61.7788 238.482 61.7788 230.875C61.7788 204.662 61.7788 178.449 61.7788 152.234C61.7788 151.955 61.7277 151.675 61.7013 151.397C61.4511 151.531 61.1851 151.642 60.9508 151.799C54.5838 156.094 48.1693 160.32 41.8728 164.712C34.2638 170.02 30.2242 177.409 30.1361 186.685C29.9969 201.448 30.1044 216.215 30.0973 230.98C30.0973 238.254 25.0112 244.303 17.8409 245.603C17.344 245.693 16.8508 245.811 16.3575 245.916H13.8893C13.7202 245.834 13.5431 245.77 13.3607 245.724C8.51065 244.97 4.83213 242.499 2.35688 238.251C1.32802 236.472 0.852349 234.518 0.5 232.522V168.57C0.564806 168.484 0.614274 168.388 0.646225 168.285C1.50243 160.357 5.37122 154.216 11.9214 149.771C28.2575 138.668 44.6153 127.598 60.9948 116.558C61.6026 116.148 61.8087 115.732 61.807 115.006C61.7811 104.906 61.7758 94.8097 61.7911 84.7184C61.7965 81.4692 62.8896 78.3154 64.8961 75.7597C66.9025 73.2041 69.7068 71.3938 72.8619 70.6174C73.6371 70.4289 74.4193 70.265 75.198 70.0889H77.4883Z" fill="#290E43"/>
<path d="M175.63 97.6657C175.63 94.4082 175.494 91.1472 175.682 87.8968C175.931 83.6263 178.117 80.2684 181.209 77.4338C185.821 73.2056 191.216 70.7691 197.465 70.2582C197.592 70.2214 197.711 70.1617 197.817 70.082H201.34C201.836 70.1772 202.329 70.2987 202.827 70.3639C204.958 70.6526 206.989 71.4417 208.756 72.6665C224.516 83.3368 240.276 94.0083 256.036 104.681C259.873 107.272 263.259 110.266 265.646 114.305C271.46 124.134 270.209 136.997 262.404 145.215C260.643 147.063 258.447 148.522 256.33 149.988C241.617 160.166 226.89 170.325 212.149 180.466C208.026 183.318 204.728 186.916 202.743 191.611C201.228 195.194 198.807 197.986 195.52 200.129C191.219 202.928 187.005 205.863 182.812 208.821C179.983 210.815 177.527 213.199 175.941 216.347C175.871 216.465 175.792 216.578 175.705 216.684C175.653 216.536 175.618 216.382 175.6 216.226C175.591 215.317 175.6 214.406 175.6 213.495C175.6 203.749 175.282 193.986 175.728 184.25C176.123 175.644 179.364 168.088 186.702 162.871C189.873 160.611 193.152 158.483 196.379 156.295C210.215 146.912 224.052 137.532 237.891 128.154C238.42 127.802 238.517 127.615 237.927 127.217C226.993 119.83 216.064 112.433 205.139 105.028C205.062 104.987 204.981 104.954 204.897 104.929C204.842 104.862 204.78 104.8 204.712 104.744C199.23 101.032 193.79 97.2675 188.237 93.6454C186.659 92.6396 184.948 91.8626 183.152 91.3375C180.138 90.4319 177.805 91.6176 176.583 94.4751C176.146 95.497 175.938 96.6033 175.63 97.6657Z" fill="#FE0055"/>
<path d="M299.116 245.911C298.473 245.765 297.828 245.631 297.178 245.472C290.483 243.818 285.931 238.038 285.927 231.107C285.917 198.339 285.917 165.574 285.927 132.812C285.927 125.335 291.531 118.975 298.677 118.19C306.429 117.346 313.123 122.025 314.864 129.542C315.106 130.63 315.224 131.742 315.216 132.856C315.235 165.592 315.24 198.327 315.23 231.063C315.23 238.716 309.825 244.805 302.213 245.761C302.111 245.793 302.014 245.841 301.928 245.904L299.116 245.911Z" fill="#2A0F44"/>
<path d="M131.398 245.911C130.852 245.763 130.307 245.606 129.759 245.469C122.978 243.781 118.537 238.006 118.537 230.818C118.537 209.83 118.537 188.842 118.537 167.854C118.537 156.258 118.537 144.663 118.537 133.068C118.537 125.866 123.023 120.121 129.902 118.445C138.836 116.273 147.793 123.22 147.8 132.411C147.821 165.465 147.821 198.518 147.8 231.571C147.8 238.618 142.358 244.71 135.281 245.728C135.096 245.771 134.916 245.83 134.742 245.904L131.398 245.911Z" fill="#290E43"/>
<path d="M16.1795 70.0889C17.5255 70.4254 18.912 70.6526 20.2122 71.1195C23.0029 72.1313 25.4146 73.9773 27.1201 76.407C28.8255 78.8367 29.7419 81.7323 29.745 84.7008C29.745 99.2645 29.7503 113.828 29.7608 128.392C29.7608 129.086 29.5529 129.488 28.9751 129.877C21.8952 134.637 14.8271 139.418 7.77072 144.22C5.03259 146.099 2.58322 148.367 0.5 150.953V83.302C0.556861 83.1372 0.602767 82.9689 0.637416 82.7981C1.59404 76.3378 6.27852 71.5388 12.7512 70.3848C13.1934 70.3056 13.632 70.1875 14.0654 70.0889H16.1795Z" fill="#FE0055"/>
<path d="M188.478 245.911C187.928 245.768 187.381 245.618 186.829 245.481C180.135 243.804 175.746 238.157 175.554 231.211C175.494 229.079 175.947 227.354 177.346 225.688C179.361 223.29 181.126 220.681 183.003 218.167C185.05 215.424 187.936 213.68 190.684 211.791C193.829 209.637 197.012 207.538 200.111 205.322C201.584 204.265 202.898 202.997 204.285 201.827C204.45 201.686 204.637 201.562 204.813 201.432C204.834 201.658 204.873 201.881 204.873 202.107C204.873 206.247 204.873 210.387 204.873 214.527C204.873 220.105 204.873 225.684 204.873 231.264C204.877 234.849 203.559 238.31 201.171 240.984C198.783 243.658 195.492 245.357 191.929 245.756C191.836 245.768 191.753 245.858 191.66 245.913L188.478 245.911Z" fill="#290E43"/>
<path d="M134.392 70.0889C134.944 70.2034 135.497 70.3144 136.048 70.4412C141.744 71.6498 145.668 74.9865 147.396 80.5325C149.121 86.0397 147.937 91.0748 143.893 95.2272C139.767 99.4642 134.664 100.75 129.046 99.0572C123.427 97.3642 119.985 93.4108 118.808 87.6306C117.127 79.3821 123.17 71.2146 131.574 70.265C131.756 70.2256 131.933 70.1665 132.102 70.0889H134.392Z" fill="#2A0F43"/>
<path d="M315.5 86.8254C315.292 87.6341 315.112 88.4515 314.871 89.2514C312.84 95.9918 306.501 100.232 299.309 99.6739C292.727 99.1629 287.109 93.8354 286.107 87.1567C285.814 85.1817 285.923 83.1678 286.428 81.2362C286.934 79.3047 287.825 77.4953 289.048 75.9172C290.271 74.3391 291.801 73.0248 293.545 72.0534C295.29 71.082 297.213 70.4737 299.198 70.265C299.354 70.226 299.504 70.1668 299.644 70.0889H301.758C301.864 70.168 301.984 70.2276 302.111 70.265C305.105 70.5323 307.945 71.7108 310.249 73.6417C312.553 75.5726 314.209 78.1632 314.996 81.0645C315.172 81.6952 315.338 82.3242 315.509 82.9549L315.5 86.8254Z" fill="#2A0F43"/>
<path d="M175.63 97.6655C175.938 96.6085 176.142 95.4968 176.572 94.4944C177.795 91.6368 180.127 90.4424 183.142 91.3567C184.937 91.8818 186.649 92.6588 188.226 93.6646C193.77 97.2832 199.219 101.048 204.702 104.764C204.77 104.819 204.832 104.881 204.887 104.949C204.878 105.271 204.864 105.593 204.864 105.916C204.864 117.712 204.868 129.509 204.876 141.306C204.876 141.924 204.73 142.303 204.196 142.662C197.223 147.36 190.26 152.075 183.307 156.806C180.544 158.643 178.104 160.925 176.084 163.558C175.957 163.695 175.817 163.82 175.667 163.93C175.642 163.764 175.607 163.601 175.594 163.437C175.582 163.273 175.594 163.084 175.594 162.908C175.594 141.838 175.594 120.768 175.594 99.7004C175.589 99.015 175.617 98.3403 175.63 97.6655Z" fill="#290E43"/>
</g>
<defs>
<clipPath id="clip0_228_889">
<rect width="315" height="175.822" fill="white" transform="translate(0.5 70.0889)"/>
</clipPath>
</defs>
</svg>
